<?xml version="1.0" encoding="utf-8"?>
<!-- Generator: Adobe Illustrator 27.8.1, SVG Export Plug-In . SVG Version: 6.00 Build 0)  -->
<svg version="1.1" id="Layer_1" xmlns="http://www.w3.org/2000/svg" xmlns:xlink="http://www.w3.org/1999/xlink" x="0px" y="0px"
	 viewBox="0 0 288 288" style="enable-background:new 0 0 288 288;" xml:space="preserve">
<style type="text/css">
	.st0{fill:#312D2A;}
</style>
<g>
	<path class="st0" d="M78.4,116c5.8-3.1,9.9-8.5,11.2-14.9c1.6-8,7-14.8,14.5-18.1c3.9-1.7,8.2-2.4,12.4-2c6.7,0.6,13-1.8,17.5-6.6
		c6.2-6.7,15-10.6,24.2-10.6c12.6,0,23.9,7,29.5,18.3c2.9,5.9,8.4,10.1,14.8,11.5c3.8,0.8,7.4,2.3,10.8,4.4
		c14.4,9.1,19.8,27.5,12.9,42.8h-30.9v8H231l1.1-2.1c10.4-19.4,4-43.7-14.6-55.4c-4.1-2.6-8.6-4.4-13.3-5.5
		c-4.1-0.9-7.5-3.6-9.4-7.3c-7-14-21-22.7-36.7-22.7c-11.4,0-22.3,4.8-30.1,13.1c-2.7,3-6.7,4.4-10.9,4c-5.6-0.5-11.2,0.4-16.4,2.6
		c-9.9,4.3-17,13.3-19.1,23.9c-0.8,4-3.4,7.4-7.1,9.4c-13.5,7.1-22.3,20.5-23.4,35.7l-0.3,4.3h39.2v-8H59.8
		C61.9,130.2,68.6,121.1,78.4,116z"/>
	<path class="st0" d="M179.1,208.7c-5.3,2.4-18,5.1-36.1,5.1c-22.3,0-36.4-4.2-38.5-6.7l-0.2-15.8c12.4,5.3,35,5.5,38.4,5.5
		c2.4,0,14.1-0.1,25.2-2l-2.1-6.2l-0.5-1.5c-6.1,1-13.7,1.6-22.6,1.6c-22.3,0-36.4-4.2-38.5-6.7v-16.6c12.4,5.3,35.1,5.6,38.5,5.6
		s26.1-0.2,38.5-5.6v3.8l2.9,1l5.1,1.7v-15.2v-1.5v-23.7c0-0.1,0-0.1,0-0.2c0-0.1,0-0.2,0-0.4c0-13.8-41.7-14.2-46.5-14.2
		s-46.5,0.4-46.5,14.2c0,0.1,0,0.2,0,0.4c0,0.1,0,0.1,0,0.2v23.7v1.5v25.7c0,0.2,0,0.3,0,0.5l0.3,24.6c0,13.9,41.7,14.3,46.5,14.3
		c2.4,0,13.9-0.1,24.8-1.9l2-2L179.1,208.7z M104.2,156.4v-16.6c12.4,5.3,35.1,5.5,38.5,5.5s26.1-0.2,38.5-5.5v16.6
		c-2.1,2.5-16.2,6.7-38.5,6.7S106.3,158.9,104.2,156.4z M180.7,131.1c-3.1,2.4-16.1,6.2-38.1,6.2s-35-3.8-38.1-6.2
		c3.1-2.4,16.1-6.2,38.1-6.2S177.6,128.7,180.7,131.1z"/>
	<path class="st0" d="M213.2,199.1l7.7-2l7.1-15.2l-4.1-4.1l-15.2,7.1l-2,7.7l0.5,0.5l-6.7,6.7l-4.9-4.9c1.8-3.7,1.6-8.2-0.8-11.7
		l-1.4-1.8c0,0,0,0,0,0h0l-3.2-3.2l0,0l-8-2.7l-2.7,2.7l5.3,5.4l1.7-1.7l-1.7,1.7l2.9,2.9l-5.9,5.9l-2.9-2.9h0l-5.3-5.3l-2.7,2.7
		l2.7,8l0,0l3.2,3.2c2.3,2.3,5.3,3.4,8.3,3.4c1.8,0,3.5-0.4,5.1-1.2l4.9,4.9l-4.8,4.8l-2.4-2.4L173.8,222l4.8,4.8l0,0l5.3,5.3
		l14.4-14.4l-2.4-2.4l4.8-4.8l20.2,20.2l5.3-5.3L206,205.2l6.7-6.7L213.2,199.1z"/>
</g>
</svg>
