<?xml version="1.0" encoding="UTF-8"?>
<svg xmlns="http://www.w3.org/2000/svg" version="1.1" viewBox="0 0 288 288">
  <defs>
    <style>
      .cls-1 {
        fill: #2ba4dd;
      }

      .cls-1, .cls-2 {
        stroke-width: 0px;
      }

      .cls-3 {
        fill: none;
        stroke: #2ba4dd;
        stroke-miterlimit: 10;
        stroke-width: .2px;
      }

      .cls-2 {
        fill: #fcfbfa;
      }

      .cls-4 {
        display: none;
      }
    </style>
  </defs>
  <g id="GUIDES" class="cls-4">
    <g>
      <path class="cls-1" d="M144,96.3c26.3,0,47.8,21.4,47.8,47.7s-21.4,47.7-47.8,47.7-47.8-21.4-47.8-47.7,21.4-47.7,47.8-47.7M144,96.1c-26.5,0-48,21.5-48,47.9s21.5,47.9,48,47.9,48-21.5,48-47.9-21.5-47.9-48-47.9h0Z"/>
      <line class="cls-3" x1="96" x2="96" y2="288"/>
      <line class="cls-3" x1="0" y1="96" x2="288" y2="96"/>
      <path class="cls-1" d="M144,12.4c35.2,0,68.3,13.7,93.2,38.6,24.9,24.9,38.6,58,38.6,93.2s-13.7,68.3-38.6,93.2c-24.9,24.9-58,38.6-93.2,38.6s-68.3-13.7-93.2-38.6c-24.9-24.9-38.6-58-38.6-93.2s13.7-68.3,38.6-93.2c24.9-24.9,58-38.6,93.2-38.6M144,12.1C71.1,12.1,12,71.2,12,144.1s59.1,132,132,132,132-59.1,132-132S216.9,12.1,144,12.1h0Z"/>
      <path class="cls-1" d="M240,12.2c6.5,0,11.8,5.3,11.8,11.8v240c0,6.5-5.3,11.8-11.8,11.8H48c-6.5,0-11.8-5.3-11.8-11.8V24c0-6.5,5.3-11.8,11.8-11.8h192M240,12H48c-6.6,0-12,5.4-12,12v240c0,6.6,5.4,12,12,12h192c6.6,0,12-5.4,12-12V24c0-6.6-5.4-12-12-12h0Z"/>
      <path class="cls-1" d="M264,36.2c6.5,0,11.8,5.3,11.8,11.8v192c0,6.5-5.3,11.8-11.8,11.8H24c-6.5,0-11.8-5.3-11.8-11.8V48c0-6.5,5.3-11.8,11.8-11.8h240M264,36H24c-6.6,0-12,5.4-12,12v192c0,6.6,5.4,12,12,12h240c6.6,0,12-5.4,12-12V48c0-6.6-5.4-12-12-12h0Z"/>
      <path class="cls-1" d="M247.8,24.2c8.8,0,16,7.2,16,16v207.6c0,8.8-7.2,16-16,16H40.2c-8.8,0-16-7.2-16-16V40.2c0-8.8,7.2-16,16-16h207.6M247.8,24H40.2c-8.9,0-16.2,7.3-16.2,16.2v207.6c0,8.9,7.3,16.2,16.2,16.2h207.6c8.9,0,16.2-7.3,16.2-16.2V40.2c0-8.9-7.3-16.2-16.2-16.2h0Z"/>
      <line class="cls-3" x1="192" x2="192" y2="288"/>
      <line class="cls-3" x1="0" y1="192" x2="288" y2="192"/>
    </g>
  </g>
  <g id="ART">
    <path class="cls-2" d="M202.4,239.7h-24.7l-1.2-11c-.3-.1-.6-.2-.9-.4l-8.6,6.9-17.5-17.5,6.9-8.6c-.1-.3-.2-.6-.4-.9l-11-1.2v-24.7l11-1.2c.1-.3.2-.6.4-.9l-6.9-8.6,17.5-17.5,8.6,6.9c.3-.1.6-.2.9-.4l1.2-11h24.7l1.2,11c.3.1.6.2.9.4l8.6-6.9,17.5,17.5-6.9,8.6c.1.3.2.6.4.9l11,1.2v24.7l-11,1.2c-.1.3-.2.6-.4.9l6.9,8.6-17.5,17.5-8.6-6.9c-.3.1-.6.2-.9.4l-1.2,11ZM184.8,231.7h10.4l1-8.9c3.1-.9,6.4-2.2,9.3-3.8l7,5.6,7.4-7.4-5.6-7c1.6-2.8,3-6.1,3.8-9.3l8.9-1v-10.4l-8.9-1c-.9-3.1-2.2-6.4-3.8-9.3l5.6-7-7.4-7.4-7,5.6c-2.8-1.6-6.1-3-9.3-3.8l-1-8.9h-10.4l-1,8.9c-3.1.9-6.4,2.2-9.3,3.8l-7-5.6-7.4,7.4,5.6,7c-1.6,2.8-3,6.1-3.8,9.3l-8.9,1v10.4l8.9,1c.9,3.1,2.2,6.4,3.8,9.3l-5.6,7,7.4,7.4,7-5.6c2.8,1.6,6.1,3,9.3,3.8l1,8.9Z"/>
    <path class="cls-2" d="M190,216.7c-12.1,0-22-9.9-22-22s9.9-22,22-22,22,9.9,22,22-9.9,22-22,22ZM190,180.7c-7.7,0-14,6.3-14,14s6.3,14,14,14,14-6.3,14-14-6.3-14-14-14Z"/>
    <g>
      <path class="cls-2" d="M135,68.7v8h28v16h-28v8h28v48.9l3.5-3.5,4.2,3.4.3.2v-49h42v44.8c2,2.2,5.9,5.9,8,8.1v-84.9h-86ZM213,92.7h-42v-16h42v16Z"/>
      <path class="cls-2" d="M141.9,218.7h-20.9v-93.2c-2.4,1-5,1.8-8,2.5v90.8h-42v-90.3c-3-.6-5.6-1.3-8-2.2v100.5h86.9c-1.9-1.9-6.1-6.1-8-8Z"/>
      <path class="cls-2" d="M135,109.1c0,1.6-.3,3.6-1.2,5.6h23.2v-8h-22v2.4Z"/>
      <path class="cls-2" d="M128.9,120.7c-.5.6-1.1,1-1.9,1.3v6.7h30v-8h-28.1Z"/>
      <rect class="cls-2" x="127" y="134.7" width="30" height="8"/>
      <polygon class="cls-2" points="127 156.7 155.9 156.7 157 155.6 157 148.7 127 148.7 127 156.7"/>
      <polygon class="cls-2" points="145.2 167.4 149.9 162.7 127 162.7 127 170.7 141.9 170.7 145.2 167.4"/>
      <polygon class="cls-2" points="139 182.3 139 177 139 176.7 127 176.7 127 184.7 139 184.7 139 182.3"/>
      <rect class="cls-2" x="127" y="190.7" width="12" height="8"/>
      <polygon class="cls-2" points="139 212.4 139 207.1 139 204.7 127 204.7 127 212.7 139 212.7 139 212.4"/>
      <rect class="cls-2" x="177" y="106.7" width="30" height="8"/>
      <rect class="cls-2" x="177" y="120.7" width="30" height="8"/>
      <rect class="cls-2" x="177" y="134.7" width="30" height="8"/>
      <rect class="cls-2" x="77" y="134.7" width="30" height="8"/>
      <rect class="cls-2" x="77" y="148.7" width="30" height="8"/>
      <rect class="cls-2" x="77" y="162.7" width="30" height="8"/>
      <rect class="cls-2" x="77" y="176.7" width="30" height="8"/>
      <rect class="cls-2" x="77" y="190.7" width="30" height="8"/>
      <rect class="cls-2" x="77" y="204.7" width="30" height="8"/>
    </g>
    <path class="cls-2" d="M91,50.3c-8.9,0-37.8.9-37.8,12.8v48.3c0,11.7,29,12.6,37.8,12.6s37.8-.9,37.8-12.6v-48.3c0-11.9-29-12.8-37.8-12.8ZM91,57.3c40.4,1.2,40.4,14,0,15.1-40.7-1.3-40.5-13.9,0-15.1ZM121.5,111.3c-2.7,1.8-13.3,5.7-30.5,5.7s-27.7-3.8-30.5-5.7v-14.1c9.9,3.4,24.5,4.8,30.5,4.8s20.6-1.4,30.5-4.8v14.1ZM121.5,88.6c-2.7,1.8-13.3,5.7-30.5,5.7s-27.7-3.8-30.5-5.7v-14.1c9.9,3.4,24.5,4.8,30.5,4.8s20.6-1.4,30.5-4.8v14.1Z"/>
  </g>
</svg>