<?xml version="1.0" encoding="UTF-8"?>
<svg xmlns="http://www.w3.org/2000/svg" version="1.1" viewBox="0 0 288 288">
  <!-- Generator: Adobe Illustrator 30.1.0, SVG Export Plug-In . SVG Version: 2.1.1 Build 136)  -->
  <defs>
    <style>
      .st0 {
        fill: none;
        stroke: #2ba4dd;
        stroke-miterlimit: 10;
        stroke-width: .25px;
      }

      .st1 {
        fill: #fcfbfa;
      }

      .st2 {
        fill: #2ba4dd;
      }

      .st3 {
        display: none;
      }
    </style>
  </defs>
  <g id="Guides" class="st3">
    <g id="Guides1" data-name="Guides">
      <path class="st2" d="M144,96.34c26.33,0,47.75,21.39,47.75,47.67s-21.42,47.67-47.75,47.67-47.75-21.39-47.75-47.67,21.42-47.67,47.75-47.67M144,96.09c-26.51,0-48,21.46-48,47.92s21.49,47.92,48,47.92,48-21.46,48-47.92-21.49-47.92-48-47.92h0Z"/>
      <line class="st0" x1="96" x2="96" y2="288"/>
      <line class="st0" x1="192" x2="192" y2="288"/>
      <line class="st0" x1="0" y1="192" x2="288" y2="192"/>
      <line class="st0" x1="0" y1="96" x2="288" y2="96"/>
      <path class="st2" d="M144,12.4c35.19,0,68.28,13.7,93.16,38.59,24.88,24.88,38.59,57.97,38.59,93.16s-13.7,68.28-38.59,93.16c-24.88,24.88-57.97,38.59-93.16,38.59s-68.28-13.7-93.16-38.59c-24.88-24.88-38.59-57.97-38.59-93.16s13.7-68.28,38.59-93.16c24.88-24.88,57.97-38.59,93.16-38.59M144,12.15C71.1,12.15,12,71.25,12,144.15s59.1,132,132,132,132-59.1,132-132S216.9,12.15,144,12.15h0Z"/>
      <path class="st2" d="M240,12.25c6.48,0,11.75,5.27,11.75,11.75v240c0,6.48-5.27,11.75-11.75,11.75H48c-6.48,0-11.75-5.27-11.75-11.75V24c0-6.48,5.27-11.75,11.75-11.75h192M240,12H48c-6.6,0-12,5.4-12,12v240c0,6.6,5.4,12,12,12h192c6.6,0,12-5.4,12-12V24c0-6.6-5.4-12-12-12h0Z"/>
      <path class="st2" d="M264,36.25c6.48,0,11.75,5.27,11.75,11.75v192c0,6.48-5.27,11.75-11.75,11.75H24c-6.48,0-11.75-5.27-11.75-11.75V48c0-6.48,5.27-11.75,11.75-11.75h240M264,36H24c-6.6,0-12,5.4-12,12v192c0,6.6,5.4,12,12,12h240c6.6,0,12-5.4,12-12V48c0-6.6-5.4-12-12-12h0Z"/>
      <path class="st2" d="M247.78,24.25c8.81,0,15.97,7.16,15.97,15.97v207.56c0,8.81-7.16,15.97-15.97,15.97H40.22c-8.81,0-15.97-7.16-15.97-15.97V40.22c0-8.81,7.16-15.97,15.97-15.97h207.56M247.78,24H40.22c-8.92,0-16.22,7.3-16.22,16.22v207.56c0,8.92,7.3,16.22,16.22,16.22h207.56c8.92,0,16.22-7.3,16.22-16.22V40.22c0-8.92-7.3-16.22-16.22-16.22h0Z"/>
      <path class="st2" d="M239.75,48.25v191.5H48.25V48.25h191.5M240,48H48v192h192V48h0Z"/>
    </g>
  </g>
  <g id="Art">
    <g>
      <path class="st1" d="M239.66,193.83c-18.08,34.4-54.17,57.92-95.66,57.92-59.55,0-108-48.45-108-108,0-18.84,4.85-36.57,13.37-52h9.63v3l-4.58,11.49c-.45,1.07-.41,2.29.11,3.33l14.54,29.09c.58,1.15,1.67,1.95,2.94,2.16,1.27.21,2.56-.21,3.47-1.12l2.78-2.78,1.01,1.52.88,4.42c.17.87.63,1.66,1.31,2.24l22.85,19.74c.44.38.96.66,1.52.82l11.16,3.11v10c0,.75.6,1.36,1,2l10,15v42c0,.82.13,1.24.6,1.91,0,0,3.4,7.09,9.4,7.09s11-3,11-3c0,0,2-1.42,2-3v-7l6-4c1.17-.73,2-2.62,2-4v-10l18.44-9.93c.86-.47,1.51-1.24,1.84-2.16,0,0,2.38-6.43,4.08-11.12-2.84-.73-5.36-1.58-7.55-2.57l-3.55,9.57-19.25,10.21c-1.28.7-2,2.54-2,4v10l-6.7,4.26c-1.17.73-1.3,2.36-1.3,3.74v6s-2,1-4,1-3-2-3-2v-42c0-.75-.6-1.36-1-2l-10-15v-12c0-1.79-1.28-3.51-3-4l-13.11-3.56-21.15-18.26-.77-3.85c-.1-.51-.3-1-.59-1.43l-4.16-6.23c-.67-1-1.74-1.64-2.93-1.76-1.2-.12-2.38.3-3.22,1.15l-2.31,2.31-11.24-22.49,4.49-10.88c.2-.49,0-1.47,0-2v-7c0-2.21-2.79-4-5-4h-7.76c10.97-16.35,26.29-29.56,44.28-37.94l14.42,10.18c.53.37,1.14.61,1.78.7l14.24,1.9,4,4-.68,1.02-10.65-3.28c-1.48-.46-3.09-.02-4.14,1.13l-10.39,11.43c-.67.74-1.04,1.7-1.04,2.69v6.23c0,2.04,1.53,3.75,3.56,3.98l6.34.71.54,3.25c.32,1.93,1.54,3.01,3.5,3.01h9c1.99,0,3.44-1.14,3.72-3.11l.69-4.82,7-2.33c.18-.06.35-.13.52-.22l4.35-2.17,4.72,2.66v8l-12.43,5.04c-1.32.57-2.24,1.8-2.4,3.24l-.83,7.5-7.8,5.2c-.92.61-1.54,1.58-1.73,2.67l-1.04,6.23c-.1.59-.06,1.19.1,1.76l2.39,8.36-2.87-.52-2.32-6.19c-.58-1.56-2.08-2.6-3.75-2.6h-10.39c-.87,0-1.71.28-2.4.8l-4.16,3.12c-1.21.9-1.8,2.41-1.54,3.89l3.12,17.66c.34,1.91,2,3.3,3.94,3.3h6.79l8.21,7.3c.83.74,1.93,1.1,3.06.99l19.02-1.9,9.07,8.17c.51.46,1.13.78,1.81.93l8.14,2.05h3v-8h-1l-7.38-1.63-9.61-8.65c-.84-.75-1.94-1.11-3.07-1.01l-19.03,1.9-8.04-7.15c-.73-.65-1.68-1.01-2.66-1.01h-4.96l-2.11-11.94,1.12-.84h6.28l2.14,5.72c.49,1.32,1.64,2.28,3.03,2.53l11.43,2.08c1.37.25,2.75-.23,3.68-1.25.93-1.02,1.26-2.46.88-3.78l-3.91-13.68.61-3.63,7.91-5.27c.98-.66,1.63-1.71,1.76-2.89l.78-7.03,12.4-5.31c1.36-.58,2.61-1.69,2.73-3.16v-13c.13-1.57-.62-3.24-2-4l-8.68-4.67c-1.15-.64-2.55-.67-3.73-.08l-5.98,2.99-9.08,3.03c-1.44.48-2.48,1.73-2.7,3.23l-.55,3.84h-1.45l-.48-2.89c-.29-1.77-1.72-3.12-3.5-3.32l-5.79-.64v-1.11l7.64-8.4,11.08,3.41c1.69.52,3.52-.13,4.5-1.6l4.16-6.23c1.06-1.59.85-3.7-.5-5.05l-7.27-7.27c-.62-.62-1.43-1.02-2.3-1.14l-14.61-1.95-9.49-6.7c3.79-1.38,7.68-2.54,11.65-3.49l1.01,3.54c.44,1.53,1.74,2.66,3.32,2.87l15.58,2.08c.18.02.36.04.53.04,1.69,0,3.22-1.07,3.78-2.71,1.39-4.07,2.33-6.84,2.95-8.73,3,.06,5.97.23,8.9.53v12.44c0,1.26,0,2,1.3,2.86l2.81,2.11,1.86,13.92c.26,1.99,1.96,3.11,3.96,3.11h6.07v14.02c0,2.21,1.79,3.98,4,3.98h8c1.08,0,1.71-.42,2.47-1.2l26.65-27.54c9.54,7.77,17.72,17.14,24.15,27.69,3.61.52,7.14,1.22,10.42,2.15-19.44-36.89-58.17-62.1-102.69-62.1-63.96,0-116,52.04-116,116s52.04,116,116,116c47.03,0,87.61-28.13,105.8-68.45-1.55.53-3.21,1.03-5.01,1.46-1.61.39-3.33.75-5.13,1.07ZM163,37.42c15.64,2.79,30.13,8.96,42.67,17.72l-24.77,25.63h-1.9v-13.66c0-2.21-1.79-4.36-4-4.36h-6.89l-1.29-11.75c-.14-1.06-.71-2.03-1.57-2.67l-2.26-1.58v-9.33ZM137.61,35.94c-.31.92-.64,1.89-.97,2.87l-9.73-1.3-.11-.39c3.55-.57,7.16-.97,10.81-1.18Z"/>
      <path class="st1" d="M258,153.24v-46.49c0-.05-.01-.1-.02-.16,0-.11.02-.23.02-.34,0-13.12-39.05-13.5-43.5-13.5s-43.5.38-43.5,13.5c0,.12,0,.23.02.34,0,.05-.02.1-.02.16v69.96c0,13.2,39.05,13.58,43.5,13.58s43.5-.38,43.5-13.58v-23.47ZM249.37,106.25c-3.32,2.19-15.28,5.5-34.87,5.5s-31.55-3.31-34.87-5.5c3.32-2.19,15.28-5.5,34.87-5.5s31.55,3.31,34.87,5.5ZM179,161.77c4.03,1.68,9.12,2.8,14.21,3.55l4.41-7.43c-10.84-1.29-17.19-3.63-18.62-5.13v-14.09c4.75,1.98,10.97,3.18,16.91,3.92l-4.08-6.71-1.33-2.18c-6.52-1.28-10.42-2.89-11.5-4.03v-14.93c11.67,4.83,32.33,5.02,35.5,5.02s23.83-.19,35.5-5.02v14.93c-1.11,1.16-5.15,2.82-11.94,4.11l-1.27,2.09-4.1,6.77c6.06-.73,12.46-1.94,17.31-3.96v14.09c-1.45,1.52-7.95,3.9-19.06,5.18l4.47,7.43c5.21-.75,10.46-1.89,14.59-3.6v14.46c-2.06,2.17-14.3,6.06-35.5,6.06s-33.44-3.9-35.5-6.06v-14.46Z"/>
      <polygon class="st1" points="196.19 171.82 205.52 171.82 205.56 171.75 205.59 171.75 213.96 157 222.65 171.75 222.72 171.75 222.76 171.82 232.47 171.82 220.27 151.54 231.66 132.75 231.66 132.75 231.88 132.39 222.55 132.39 214.63 146.01 206.49 132.39 196.79 132.39 197 132.75 196.95 132.75 208.31 151.42 196.19 171.82"/>
    </g>
  </g>
</svg>