<?xml version="1.0" encoding="utf-8"?>
<!-- Generator: Adobe Illustrator 27.8.1, SVG Export Plug-In . SVG Version: 6.00 Build 0)  -->
<svg version="1.1" id="Layer_1" xmlns="http://www.w3.org/2000/svg" xmlns:xlink="http://www.w3.org/1999/xlink" x="0px" y="0px"
	 viewBox="0 0 288 288" style="enable-background:new 0 0 288 288;" xml:space="preserve">
<style type="text/css">
	.st0{fill:#FCFBFA;}
</style>
<g>
	<path class="st0" d="M174.5,231H164v-10.3c4.9-5,8-11.9,8-19.2V167v-4h-35c-11.9,0-19,7.9-19,21v4v14.4c0,7.1,2.9,14,8,18.9v9.7
		h-11.5C99.9,231,88,243.1,88,258v18h8v-18c0-10.3,8.5-19,18.5-19h13.3l17.1,18.2l17.1-18.2h12.4c10,0,18.5,8.7,18.5,19v18h8v-18
		C201,243.1,189.1,231,174.5,231z M137,171h26.7c-1.3,9-7.1,9-9.1,9h-28.3C127.4,174,130.9,171,137,171z M154.6,188
		c3.6,0,6.8-0.9,9.4-2.6v16.2c0,9.9-8.1,18.8-17.6,19.4c-5.4,0.4-10.6-1.4-14.5-5.1c-3.8-3.5-5.9-8.3-5.9-13.5V188H154.6z
		 M144.9,245.5L134,233.9v-7.2c3.4,1.5,7.1,2.3,11,2.3c0.6,0,1.3,0,1.9-0.1c3.2-0.2,6.3-1.1,9.1-2.4v7.3L144.9,245.5z"/>
	<path class="st0" d="M62.2,108.9c1.8,0,4.9,0.1,8.6,0.4c7-14.7,18.3-26.9,32.2-35.1V65C84.9,74.5,70.4,90,62.2,108.9z"/>
	<path class="st0" d="M202.9,88.5c2.2-0.4,4.4-0.5,6.7-0.3c0.7-0.7,1.3-1.3,2.1-2c-7.2-8.4-15.9-15.5-25.7-20.7v9.2
		C192.3,78.6,197.9,83.2,202.9,88.5z"/>
	<path class="st0" d="M274.6,137.9c6.3-11.6,2.4-26.2-8.7-33.2c-2.5-1.6-5.2-2.7-8-3.3c-1.7-0.4-3.2-1.6-4-3.2
		c-4.2-8.3-12.6-13.5-22-13.5c-6.8,0-13.4,2.9-18,7.9c-1.2,1.3-2.8,1.9-4.4,1.7c-3.5-0.4-7,0.2-10.2,1.6c-6,2.6-10.3,8-11.6,14.4
		c-0.4,1.9-1.5,3.4-3,4.2c-8.1,4.2-13.4,12.2-14.1,21.3l-0.3,4.3H189v-4v-4h-9.6c1.5-4.5,4.7-8.3,8.9-10.5c1.1-0.6,2.1-1.3,3-2.1
		c0.6-1,1.4-2,2.4-2.9c0.8-1.4,1.4-2.9,1.8-4.6c0.8-3.8,3.4-7.1,7-8.7c1.9-0.8,4-1.2,6.1-1c4.2,0.4,8.2-1.1,11.1-4.2
		c3.2-3.4,7.5-5.3,12.2-5.3c6.3,0,12,3.5,14.8,9.1c1.9,3.8,5.4,6.5,9.5,7.4c1.9,0.4,3.8,1.2,5.5,2.2c6.9,4.4,9.7,13,6.9,20.5H266
		v1.3v2.7v4h7.4L274.6,137.9z"/>
	<path class="st0" d="M227.5,114c-7.6,0-32.5,0.8-32.5,11v16v0.7V158v0.4v16.6c0,10,24.9,10.8,32.5,10.8s32.5-0.8,32.5-10.8v-16.6
		V158v-16.3V141v-16C260,114.8,235.1,114,227.5,114z M252,174.1c-2.2,1.5-10.7,3.7-24.5,3.7s-22.3-2.3-24.5-3.7v-8
		c8,2.8,19.7,3.1,24.5,3.1s16.5-0.3,24.5-3.1V174.1z M227.5,161.3c-13.8,0-22.3-2.3-24.5-3.7v-8.1c8,2.8,19.7,3.1,24.5,3.1
		s16.5-0.3,24.5-3.1v8.1C249.8,159,241.3,161.3,227.5,161.3z M252,140.7c-2.2,1.5-10.7,3.7-24.5,3.7s-22.3-2.3-24.5-3.7v-7.9
		c8,2.8,19.7,3.1,24.5,3.1s16.5-0.3,24.5-3.1V140.7z M227.5,122c11.2,0,19.1,1.6,22.7,3c-3.6,1.4-11.5,3-22.7,3s-19.1-1.6-22.7-3
		C208.4,123.6,216.3,122,227.5,122z"/>
	<path class="st0" d="M60.5,114c-7.6,0-32.5,0.8-32.5,11v16v0.7V158v0.4v16.6c0,10,24.9,10.8,32.5,10.8S93,185.1,93,175.1v-16.6V158
		v-16.3V141v-16C93,114.8,68.1,114,60.5,114z M60.5,122c11.2,0,19.1,1.6,22.7,3c-3.6,1.4-11.5,3-22.7,3s-19.1-1.6-22.7-3
		C41.4,123.6,49.3,122,60.5,122z M60.5,161.3c-13.8,0-22.3-2.3-24.5-3.7v-8.1c8,2.8,19.7,3.1,24.5,3.1s16.5-0.3,24.5-3.1v8.1
		C82.8,159,74.3,161.3,60.5,161.3z M85,140.7c-2.2,1.5-10.7,3.7-24.5,3.7s-22.3-2.3-24.5-3.7v-7.9c8,2.8,19.7,3.1,24.5,3.1
		s16.5-0.3,24.5-3.1V140.7z M36,166.2c8,2.8,19.7,3.1,24.5,3.1S77,169,85,166.2v8c-2.2,1.5-10.7,3.7-24.5,3.7s-22.3-2.3-24.5-3.7
		V166.2z"/>
	<path class="st0" d="M180,102V28c0-3.3-2.7-6-6-6h-8v8h6v70h-55V30h6v-8h-8c-3.3,0-6,2.7-6,6V102c0,3.3,2.7,6,6,6H174
		C177.3,108,180,105.3,180,102z"/>
	<path class="st0" d="M129,21v1v8v1h31v-1v-8v-1c0-1.1-0.9-2-2-2h-7.6c0-3.3-2.7-6-6-6s-6,2.7-6,6H131C129.9,19,129,19.9,129,21z"/>
	<rect x="123" y="43" class="st0" width="42" height="8"/>
	<rect x="123" y="55" class="st0" width="42" height="8"/>
	<polygon class="st0" points="160.7,73.8 155.1,68.2 139.4,83.9 133.1,77.7 127.4,83.3 139.4,95.2 	"/>
</g>
</svg>
