<?xml version="1.0" encoding="utf-8"?>
<!-- Generator: Adobe Illustrator 27.8.1, SVG Export Plug-In . SVG Version: 6.00 Build 0)  -->
<svg version="1.1" id="Layer_1" xmlns="http://www.w3.org/2000/svg" xmlns:xlink="http://www.w3.org/1999/xlink" x="0px" y="0px"
	 viewBox="0 0 288 288" style="enable-background:new 0 0 288 288;" xml:space="preserve">
<style type="text/css">
	.st0{fill:#312D2A;}
</style>
<g>
	<path class="st0" d="M225,110c-4.7,0-15.8,0.3-23.8,2.9c-2.1,6.2-5.1,12-9.1,17.1c18.2,0.1,29.4,3.2,32.7,5.3
		c-3.3,2.1-14.7,5.3-33.3,5.3c-3.4,0-6.5-0.1-9.4-0.3c-4.1,3.3-8.4,6.1-13,8.2c12.1,1.7,19.4,4.6,20.9,6.5c-2.2,3-18.2,8.1-44.4,8.1
		c-15.7,0-27.8-1.8-35.3-3.9l-5,6.7c11.4,3.9,28.4,5.2,40.4,5.2c13.5,0,33.5-1.6,44.5-6.8v18.3c-2.1,2.8-18.3,7.7-44.5,7.7
		s-42.4-4.9-44.5-7.7v-11.4c-2.6,3.2-5.3,6.3-8,9.2v1.5v1V210v1v27.5c0,15,47.1,15.4,52.5,15.4s52.5-0.4,52.5-15.4v-24.9
		c11.6-0.5,35.4-2.7,35.4-13v-20.1c10.4-0.7,24-3.1,24-10.5v-49C257.5,110.8,232.7,110,225,110z M249.5,136.4c-1.5,1-6.7,2.8-16,3.5
		v-4.6c0-1.3-0.4-2.5-1.1-3.6c5.4-0.3,12-1.1,17.1-2.9V136.4z M249.5,152.7c-1.5,1-6.7,2.8-16,3.5v-8.2c5.2-0.4,11.3-1.2,16-2.8
		V152.7z M145.7,245.9c-26.2,0-42.4-4.9-44.5-7.7v-18.3c13.7,6.2,40.5,6.4,44.5,6.4s30.8-0.2,44.5-6.4v18.3
		C188.1,241,171.9,245.9,145.7,245.9z M190.2,191.8v18.9c-2.1,2.8-18.3,7.7-44.5,7.7s-42.4-4.9-44.5-7.7v-18.9
		c13.7,6.2,40.5,6.4,44.5,6.4S176.5,198,190.2,191.8z M198.2,182.8v-1v-11.7c6.9-0.3,19.2-1.3,27.4-4.6v12.7
		c-1.7,1.8-11,4.9-27.4,5.7V182.8z M247.7,120.9c-3.7,1.4-11.5,3-22.6,3s-18.9-1.6-22.6-3c3.7-1.4,11.5-2.9,22.6-2.9
		S244,119.6,247.7,120.9z M225.5,143.8v12.7c-1.7,1.8-10.9,4.9-27.4,5.7V155c0-2.5-1.3-4.7-3.6-6.5
		C201.8,148.3,216.4,147.5,225.5,143.8z M198.2,205.6v-13.7c7.3-0.3,19.4-1.3,27.4-4.6v12.8C223.7,201.9,214.4,204.9,198.2,205.6z
		 M233.5,172.5v-8.3c5.2-0.4,11.3-1.2,16-2.8v7.7C247.9,170.1,242.8,171.8,233.5,172.5z"/>
	<path class="st0" d="M95.7,119.4l-23.2,16.2c-7.8,5.7-15,11.7-21.4,17.8l-14.5,14l29.2,30.2l14.5-14c6.4-6.1,12.6-13.1,18.6-20.8
		l17.1-22.8c7.9,4.6,16.9,7.2,26.4,7.3c0.3,0,0.7,0,1,0c14.2,0,27.6-5.4,37.8-15.3c10.5-10.1,16.4-23.7,16.6-38.2
		c0.3-14.6-5.2-28.3-15.3-38.8c-20.9-21.6-55.4-22.2-77.1-1.4C87.3,71.1,83.9,98.3,95.7,119.4z M92.5,157.9
		c-5.7,7.3-11.7,14-17.8,19.9l-8.8,8.4l-18.1-18.7l8.8-8.4c6.1-5.9,13-11.6,20.4-17l23-16c1.2,1.6,2.6,3.2,4,4.6
		c1.7,1.7,3.4,3.3,5.3,4.8L92.5,157.9z M194.5,93L194.5,93L194.5,93z M140.5,46.4V57h8V46.7c10.4,1.2,20.4,5.8,28.2,13.9
		c7.5,7.8,12,17.8,12.9,28.5h-10.1v8h10c-1,11.1-5.9,21.4-14,29.3c-7.5,7.2-16.9,11.6-27,12.7v-10h-8v10.3
		c-11.7-0.7-22.5-5.6-30.7-14.1c-7.7-7.9-11.9-17.9-12.8-28.1h12.5v-4v-4H97c0.9-10.9,5.6-21.5,14-29.6
		C119.3,51.4,129.8,47.1,140.5,46.4z"/>
	<path class="st0" d="M144.2,83.5c5.5,0,10,4.5,10,10c0,1.7-0.4,3.4-1.2,4.8l4.2,4.2l12.2-34.9l-34.9,12.2l5,5
		C140.9,83.9,142.5,83.5,144.2,83.5z"/>
	<path class="st0" d="M153,106.8l-4.3-4.3c-1.3,0.7-2.9,1.1-4.5,1.1c-5.5,0-10-4.5-10-10c0-1.6,0.4-3.1,1.1-4.5l-5-5L118,118.9
		L153,106.8z"/>
</g>
</svg>
