<?xml version="1.0" encoding="utf-8"?>
<!-- Generator: Adobe Illustrator 27.8.1, SVG Export Plug-In . SVG Version: 6.00 Build 0)  -->
<svg version="1.1" id="Layer_1" xmlns="http://www.w3.org/2000/svg" xmlns:xlink="http://www.w3.org/1999/xlink" x="0px" y="0px"
	 viewBox="0 0 288 288" style="enable-background:new 0 0 288 288;" xml:space="preserve">
<style type="text/css">
	.st0{fill:#312D2A;}
</style>
<g>
	<path class="st0" d="M250.3,81H203c-5.5,0-9.9-4.5-9.9-10.1h-8c0,10,8,18.1,17.9,18.1h52.3l1.1-2.1c5.1-9.5,4-20.9-2.1-29.2
		c-1.4,2.5-3.1,4.9-5,7C251.9,69.6,252.4,75.6,250.3,81z"/>
	<path class="st0" d="M159.7,89h27.6c-3.1-2.2-5.8-4.9-8-8h-19.7h-3h-5.2c1.6-5.2,5.2-9.8,10.2-12.4c3.9-2,6.7-5.8,7.6-10.3
		c0.9-4.4,3.9-8,7.9-9.8c2.2-1,4.7-1.3,7-1.1c1.6,0.2,3.2,0.1,4.8-0.3c-0.3-2-0.5-4-0.5-6.1c0-0.8,0-1.5,0.1-2.3
		c-1.1,0.6-2.3,0.9-3.4,0.8c-3.8-0.4-7.7,0.2-11.2,1.7c-6.4,2.8-11.1,8.6-12.6,15.5c-0.4,2.2-1.7,3.9-3.5,4.8
		c-8.8,4.6-14.5,13.3-15.3,23.2l-0.3,4.3h14.3H159.7z"/>
	<path class="st0" d="M194.5,41c0,16,13,29,29,29s29-13,29-29s-13-29-29-29S194.5,25,194.5,41z M244.5,41c0,11.6-9.4,21-21,21
		s-21-9.4-21-21s9.4-21,21-21S244.5,29.4,244.5,41z"/>
	<polygon class="st0" points="219.6,40.6 216.2,37.2 210.5,42.9 219.6,52 235.4,36.3 229.7,30.6 	"/>
	<path class="st0" d="M252.4,268L252.4,268L252.4,268l0-39.2c-2.2,3.2-4.9,6-8,8.3V268h-20v-24c-0.3,0-0.6,0-0.9,0
		c-2.4,0-4.8-0.3-7.1-0.7V268h-13v-20h-22v20h-13v-77.6l22.3,6.4c1-2.6,2.2-5,3.7-7.3l-34.1-9.7V268l-8,4v4h8h0h0h21h22h13h8h28h0h0
		h8v-4L252.4,268z M189.4,268v-12h6v12H189.4z"/>
	<path class="st0" d="M174.4,226h18.6c-1.4-2.5-2.5-5.2-3.2-8h-15.3V226z"/>
	<path class="st0" d="M174.4,212h14.3c-0.1-1-0.1-2-0.1-3c0-1.7,0.1-3.4,0.4-5h-14.5V212z"/>
	<path class="st0" d="M174.4,240h32.9c-3.9-2-7.3-4.7-10.1-8h-22.8V240z"/>
	<path class="st0" d="M238.4,248v-7.3c-2.5,1.2-5.2,2.1-8,2.6v4.7H238.4z"/>
	<rect x="230.4" y="254" class="st0" width="8" height="8"/>
	<path class="st0" d="M194.5,209c0,16,13,29,29,29s29-13,29-29s-13-29-29-29S194.5,193,194.5,209z M244.5,209c0,11.6-9.4,21-21,21
		s-21-9.4-21-21s9.4-21,21-21S244.5,197.4,244.5,209z"/>
	<polygon class="st0" points="219.6,208.6 216.2,205.2 210.5,210.9 219.6,220 235.4,204.3 229.7,198.6 	"/>
	<path class="st0" d="M186.8,134c10.2,0,18.5-8.3,18.5-18.5v-4.9l7.3,7.4l5.7-5.6l-16.8-17l-16.8,17l5.7,5.6l6.9-7v4.5
		c0,5.8-4.7,10.5-10.5,10.5h-49.5v8H186.8z"/>
	<path class="st0" d="M186.8,150c5.8,0,10.5,4.7,10.5,10.5v4.5l-6.9-7l-5.7,5.6l16.8,17l16.8-17l-5.7-5.6l-7.3,7.4v-4.9
		c0-10.2-8.3-18.5-18.5-18.5h-49.5v8H186.8z"/>
	<path class="st0" d="M131.4,177.1v-25.4V151v-25.5V125v-25c0-14.6-42.6-15-47.5-15s-47.5,0.4-47.5,15v25v0.5V151v0.7v25.4
		c0,14.1,42.6,14.5,47.5,14.5S131.4,191.2,131.4,177.1z M123.4,151.3c-2.1,2.5-16.6,6.8-39.5,6.8s-37.4-4.3-39.5-6.8v-17
		c12.6,5.5,36,5.7,39.5,5.7s26.9-0.2,39.5-5.7V151.3z M83.9,115c3.5,0,26.9-0.2,39.5-5.9v16c-2.1,2.5-16.6,6.8-39.5,6.8
		s-37.4-4.3-39.5-6.8v-16C57,114.8,80.4,115,83.9,115z M123.2,100c-2.6,2.7-16.8,7-39.3,7s-36.7-4.3-39.3-7c2.6-2.7,16.8-7,39.3-7
		S120.6,97.3,123.2,100z M44.4,160.5c12.6,5.5,36,5.7,39.5,5.7s26.9-0.2,39.5-5.7v16.3c-2.1,2.5-16.6,6.8-39.5,6.8
		s-37.4-4.3-39.5-6.8V160.5z"/>
</g>
</svg>
