<?xml version="1.0" encoding="utf-8"?>
<!-- Generator: Adobe Illustrator 27.1.0, SVG Export Plug-In . SVG Version: 6.00 Build 0)  -->
<svg version="1.1" id="ART" xmlns="http://www.w3.org/2000/svg" xmlns:xlink="http://www.w3.org/1999/xlink" x="0px" y="0px"
	 viewBox="0 0 288 288" style="enable-background:new 0 0 288 288;" xml:space="preserve">
<style type="text/css">
	.st0{fill:#FCFBFA;}
</style>
<g>
	<rect x="164" y="143.5" class="st0" width="28" height="8"/>
	<rect x="164" y="171.5" class="st0" width="37" height="8"/>
	<rect x="164" y="157.5" class="st0" width="43" height="8"/>
</g>
<g>
	<path class="st0" d="M69,113v93h89v-93H69z M135,198H92v-8.4c0-3.1,2.5-5.6,5.6-5.6h31.8c3.1,0,5.6,2.5,5.6,5.6V198L135,198z
		 M150,198h-7v-8.4c0-7.5-6.1-13.6-13.6-13.6H97.6c-7.5,0-13.6,6.1-13.6,13.6v8.4h-7v-77h73V198L150,198z"/>
	<path class="st0" d="M113.5,169c11.6,0,21-9.4,21-21s-9.4-21-21-21s-21,9.4-21,21S101.9,169,113.5,169z M113.5,135
		c7.2,0,13,5.8,13,13s-5.8,13-13,13s-13-5.8-13-13S106.3,135,113.5,135z"/>
</g>
<g>
	<circle class="st0" cx="69.5" cy="68.7" r="5"/>
	<circle class="st0" cx="87.2" cy="68.7" r="5"/>
	<circle class="st0" cx="104.5" cy="68.7" r="5"/>
	<path class="st0" d="M57,232c-0.5,0-1-0.4-1-1V88h176v96.3c2.9,1.2,5.6,2.8,8,4.7V57c0-5-4-9-9-9H57c-5,0-9,4-9,9v174c0,5,4,9,9,9
		h132.9c-1.9-2.4-3.6-5.1-4.9-8H57z M57,56h174c0.6,0,1,0.5,1,1v23H56V57C56,56.5,56.5,56,57,56z"/>
</g>
<g>
	<path class="st0" d="M218,187.5c-16.5,0-30,13.5-30,30s13.5,30,30,30s30-13.5,30-30S234.5,187.5,218,187.5z M218,239.5
		c-12.1,0-22-9.9-22-22s9.9-22,22-22s22,9.9,22,22S230.1,239.5,218,239.5z"/>
	<path class="st0" d="M220.1,209.6l-2.1,2.1l-2.1-2.1c-2.7-2.7-7.1-2.7-9.9,0s-2.7,7.1,0,9.9l12,12l12-12c2.7-2.7,2.7-7.1,0-9.9
		S222.8,206.9,220.1,209.6z"/>
</g>
</svg>
