<svg id="ART" xmlns="http://www.w3.org/2000/svg" viewBox="0 0 288 288"><defs><style>.cls-1{fill:#fcfbfa;}</style></defs><path class="cls-1" d="M198,132.07V105a14,14,0,0,0-14-14h-4.18L172,69a9,9,0,0,0-8.47-6h-39a9,9,0,0,0-8.47,6l-7.87,22H103a14,14,0,0,0-14,14v81a14,14,0,0,0,14,14h5.18l7.87,22a9,9,0,0,0,8.47,6h39a9,9,0,0,0,8.47-6l7.87-22H184a14,14,0,0,0,14-14V158.93a8,8,0,0,0,7-7.93V140A8,8,0,0,0,198,132.07ZM123.58,71.66a1,1,0,0,1,.94-.66h39a1,1,0,0,1,.94.66L171.32,91H116.68Zm40.84,147.68a1,1,0,0,1-.94.66h-39a1,1,0,0,1-.94-.66L116.68,200h54.64ZM190,186a6,6,0,0,1-6,6H103a6,6,0,0,1-6-6V105a6,6,0,0,1,6-6h81a6,6,0,0,1,6,6ZM67.19,125.75a38.08,38.08,0,0,0-.76,39.63l-6.9,4.05a46.08,46.08,0,0,1,.92-48Zm12.18,6.63a25.77,25.77,0,0,0-.51,26.77l-6.9,4a33.77,33.77,0,0,1,.67-35.13ZM124,111v12a4,4,0,0,1-4,4H108a4,4,0,0,1-4-4V111a4,4,0,0,1,4-4h12A4,4,0,0,1,124,111Zm29,0v12a4,4,0,0,1-4,4H137a4,4,0,0,1-4-4V111a4,4,0,0,1,4-4h12A4,4,0,0,1,153,111Zm29,0v12a4,4,0,0,1-4,4H166a4,4,0,0,1-4-4V111a4,4,0,0,1,4-4h12A4,4,0,0,1,182,111Zm0,28v12a4,4,0,0,1-4,4H166a4,4,0,0,1-4-4V139a4,4,0,0,1,4-4h12A4,4,0,0,1,182,139Zm-58,0v12a4,4,0,0,1-4,4H108a4,4,0,0,1-4-4V139a4,4,0,0,1,4-4h12A4,4,0,0,1,124,139Zm29,0v12a4,4,0,0,1-4,4H137a4,4,0,0,1-4-4V139a4,4,0,0,1,4-4h12A4,4,0,0,1,153,139Zm0,28v12a4,4,0,0,1-4,4H137a4,4,0,0,1-4-4V167a4,4,0,0,1,4-4h12A4,4,0,0,1,153,167Zm-29,0v12a4,4,0,0,1-4,4H108a4,4,0,0,1-4-4V167a4,4,0,0,1,4-4h12A4,4,0,0,1,124,167Z"/></svg>