<svg xmlns="http://www.w3.org/2000/svg" viewBox="0 0 288 288"><defs><style>.cls-1{fill:#fcfbfa;}</style></defs><g id="ART"><path class="cls-1" d="M60,216.44a14.57,14.57,0,0,0,8,0V207a36,36,0,0,1,72,0v9.44a14.57,14.57,0,0,0,8,0V152h15v-8H45v8H60Zm8-34.69V152h8v21.08A44.49,44.49,0,0,0,68,181.75ZM84,152h8v12.68a43.63,43.63,0,0,0-8,3.15Zm16,11.19V152h8v11.19c-1.32-.12-2.65-.19-4-.19S101.32,163.07,100,163.19ZM116,152h8v15.83a43.63,43.63,0,0,0-8-3.15Zm24,29.75a44.49,44.49,0,0,0-8-8.67V152h8Zm107.28,37.54c-.34.48-8.37,11.71-23.28,11.71a29.17,29.17,0,0,1-20-8.07,28.82,28.82,0,0,1-40,0,28.82,28.82,0,0,1-40,0,28.82,28.82,0,0,1-40,0A29.17,29.17,0,0,1,64,231c-14.91,0-22.94-11.23-23.28-11.71l6.56-4.58a21,21,0,0,0,33.44,0L84,210l3.28,4.69a21,21,0,0,0,33.46,0L124,210.1l3.25,4.61a21,21,0,0,0,33.46,0L164,210.1l3.25,4.61a21,21,0,0,0,33.46,0L204,210.1l3.25,4.61a21,21,0,0,0,33.46,0ZM55,78H65V89a5,5,0,0,0,8.06,4L92.37,78H117a5,5,0,0,0,5-5c0-10.81-10.32-19-24-19H63l-6-8H46V69A9,9,0,0,0,55,78ZM54,55.33,59,62H98c7.76,0,13.73,3.23,15.48,8H89.63L73,82.85V70H55a1,1,0,0,1-1-1ZM121,104V96h-8v24h8v-8h15.34l-14,14H112l-8,4v4h59v-4l-8-4h-.34L199,81.66V172H166v4l8,4h58l8-4v-4H207V74H174.34l-30,30Zm56.66-22h9.68l-44,44h-9.68Z"/></g></svg>