<?xml version="1.0" encoding="utf-8"?>
<!-- Generator: Adobe Illustrator 28.0.0, SVG Export Plug-In . SVG Version: 6.00 Build 0)  -->
<svg version="1.1" id="ART" xmlns="http://www.w3.org/2000/svg" xmlns:xlink="http://www.w3.org/1999/xlink" x="0px" y="0px"
	 viewBox="0 0 288 288" style="enable-background:new 0 0 288 288;" xml:space="preserve">
<style type="text/css">
	.st0{fill:#FCFBFA;}
</style>
<g>
	<path class="st0" d="M95.4,89.2c-7.2,7.2-8.4,18.5-3,27c9.2,14.4,21.6,29.6,35.9,43.9s29.5,26.7,43.9,35.9
		c3.5,2.3,7.6,3.4,11.6,3.4c5.6,0,11.3-2.2,15.5-6.4l15.4-15.4l-32.8-32.8l-14.7,14.7L129,121.2l14.7-14.6l-32.8-32.8L95.4,89.2z
		 M123,115.9c-2.9,2.9-2.9,7.7,0,10.7l39,39c2.9,2.9,7.7,2.9,10.7,0l9.3-9.3l21.5,21.5l-9.8,9.8c-4.5,4.5-11.7,5.3-17.1,1.9
		c-13.9-8.9-28.6-20.9-42.6-34.8c-13.9-13.9-26-28.6-34.8-42.6c-3.4-5.4-2.6-12.6,1.9-17.1l9.7-9.7l21.5,21.5L123,115.9z"/>
	<path class="st0" d="M63.9,136.6c0-48.5,39.5-88,88-88c28.3,0,53.5,13.4,69.7,34.3h3h6.9C214.2,57.4,185,40.6,152,40.6
		c-52.9,0-96,43.1-96,96c0,15.1,3.5,29.5,9.8,42.2h9C67.8,166.3,63.9,151.9,63.9,136.6z"/>
	<path class="st0" d="M239.2,125.4c0.5,3.7,0.7,7.4,0.7,11.2c0,48.5-39.5,88-88,88c-2.7,0-5.4-0.1-8-0.4v8c2.6,0.2,5.3,0.3,8,0.3
		c52.9,0,96-43.1,96-96c0-3.8-0.2-7.5-0.7-11.2h-0.5L239.2,125.4L239.2,125.4z"/>
	<polygon class="st0" points="159.8,119.4 159.8,100.4 151.8,100.4 151.8,100.4 151.8,119.4 151.8,119.4 	"/>
	<polygon class="st0" points="174.6,130.9 174.6,88.9 174.6,88.9 166.6,88.9 166.6,130.9 	"/>
	<polygon class="st0" points="180.8,100.4 180.8,119.4 180.8,119.4 188.8,119.4 188.8,100.4 	"/>
	<polygon class="st0" points="203.6,130.9 203.6,88.9 203.6,88.9 195.6,88.9 195.6,130.9 	"/>
	<polygon class="st0" points="209.8,100.4 209.8,119.4 209.8,119.4 217.8,119.4 217.8,100.4 	"/>
	<polygon class="st0" points="224.6,88.9 224.6,130.9 232.6,130.9 232.6,130.9 232.6,88.9 232.6,88.9 	"/>
	<polygon class="st0" points="246.8,119.4 246.8,100.4 238.8,100.4 238.8,100.4 238.8,119.4 238.8,119.4 	"/>
	<path class="st0" d="M137.9,184.8H40.1v62.6h97.8V184.8z M48.1,239.4v-46.6h81.8v46.6H48.1z"/>
	<path class="st0" d="M60.1,219.1l3.2,0.8l5,8.5H74l-6-9.4c1.6-0.5,2.8-1.3,3.6-2.5c0.9-1.2,1.3-2.6,1.3-4.3c0-2.4-0.8-4.2-2.3-5.5
		s-3.7-2-6.5-2H55v23.7h5.1V219.1z M60.1,208.8h2.5c2,0,3.4,0.3,4.1,0.8c0.8,0.5,1.2,1.4,1.2,2.7s-0.4,2.2-1.2,2.7
		c-0.8,0.5-2.1,0.8-4.1,0.8h-2.5V208.8z"/>
	<polygon class="st0" points="76.5,228.4 92.3,228.4 92.3,224.1 81.6,224.1 81.6,218.6 91,218.6 91,214.3 81.6,214.3 81.6,209 
		91.9,209 91.9,204.7 76.5,204.7 	"/>
	<path class="st0" d="M113.4,223.2c-1.2,0.4-2.3,0.8-3.3,1c-0.9,0.2-1.9,0.3-2.8,0.3c-2.3,0-4-0.7-5.2-2.1c-1.2-1.4-1.8-3.4-1.8-6.1
		c0-2.4,0.6-4.3,1.8-5.6c1.2-1.3,2.9-2,5.1-2c0.8,0,1.6,0.1,2.4,0.3s1.8,0.5,3,0.9v-4.3c-0.7-0.4-1.6-0.7-2.6-0.9s-2-0.4-3.2-0.4
		c-2.4,0-4.5,0.5-6.3,1.4c-1.8,1-3.1,2.3-4.1,4.1s-1.4,3.9-1.4,6.4c0,4.1,1,7.2,2.9,9.3c2,2.2,4.8,3.2,8.6,3.2
		c1.3,0,2.6-0.1,3.7-0.4s2.1-0.6,2.9-1v-4.1H113.4z"/>
	<circle class="st0" cx="121.6" cy="216.1" r="4.3"/>
</g>
</svg>
