<svg id="ART" xmlns="http://www.w3.org/2000/svg" viewBox="0 0 288 288"><defs><style>.cls-1{fill:#312d2a;}</style></defs><title>RMIL_Personas</title><path class="cls-1" d="M108,247V168h-8v79H86V176H78v71H64V161.48a33.49,33.49,0,0,0,8.85-3.06A24.56,24.56,0,0,0,82,150.35a24.56,24.56,0,0,0,9.15,8.07,33.49,33.49,0,0,0,8.85,3.06v-8.2a24.72,24.72,0,0,1-5.36-2.06C88.83,148.09,86,143.12,86,136V113.66l14-14V96a25.59,25.59,0,0,1,1.27-8H96V79.27A19.83,19.83,0,0,0,102,65V43H71a9,9,0,0,0-9,9V64.55a20.62,20.62,0,0,0,6,14.6V88H58a16,16,0,0,0-16,16v72H56v71h0l-8,4v4h68v-4l-8-4ZM78,102.34,71.66,96H78Zm8,0V96h6.34ZM70,64.55V64H86a16,16,0,0,0,8-2.16V65a11.87,11.87,0,0,1-3.72,8.68A12,12,0,0,1,81.42,77C75.12,76.69,70,71.11,70,64.55ZM71,51H93.41A8,8,0,0,1,86,56H70V52A1,1,0,0,1,71,51ZM81,85l1,0a20,20,0,0,0,6-.92V88H76v-4A19.89,19.89,0,0,0,81,85ZM58,96h2.34L78,113.66V136c0,12-8.57,16-14,17.35V115H56v39H50V104A8,8,0,0,1,58,96Zm-8,72v-6h6v6Zm182,8h14V104a16,16,0,0,0-16-16H220V79.27A19.83,19.83,0,0,0,226,65V43H195a9,9,0,0,0-9,9V64.55a20.62,20.62,0,0,0,6,14.6V88h-5.27A25.63,25.63,0,0,1,188,96h6.13L206,110.25,217.87,96H230a8,8,0,0,1,8,8v50h-6V115h-8v39H188v8h36v85H210V176h-8v71H188V168h-8v79h0l-8,4v4h68v-4l-8-4h0ZM194,64.55V64h16a16,16,0,0,0,8-2.16V65a12,12,0,0,1-12.58,12C199.12,76.69,194,71.11,194,64.55ZM195,51h22.41A8,8,0,0,1,210,56H194V52A1,1,0,0,1,195,51Zm11,46.75-6-7.2v-6.5a19.89,19.89,0,0,0,5,.93l1,0a20,20,0,0,0,6-.92v6.47ZM238,162v6h-6v-6Zm-70,0h14V99a21,21,0,0,0-21-21h-5V73h8V50a17,17,0,0,0-17-17h-6a17,17,0,0,0-17,17V73h8v5h-5a21,21,0,0,0-21,21v63h14v32h6v61h36V194h6Zm-8,24H128V145h32v41ZM152.28,63.68A12,12,0,0,1,143.42,67a12.32,12.32,0,0,1-11.33-11A16.86,16.86,0,0,0,144,53.27a16.94,16.94,0,0,0,9.4,2.88A18.26,18.26,0,0,0,156,56,11.83,11.83,0,0,1,152.28,63.68ZM143,75l1,0a20.3,20.3,0,0,0,4-.4v6.18a5.23,5.23,0,0,1-8,0V74.57A19,19,0,0,0,143,75Zm25,79v-6h6v6Zm6-55v41h-6V105h-8v32H148V90a12.89,12.89,0,0,0,6.06-4H161A13,13,0,0,1,174,99ZM141,41h6a9,9,0,0,1,8.74,6.87c-1.86.49-5.37.74-9.05-2.62L144,42.8l-2.7,2.45c-3.68,3.36-7.19,3.11-9,2.63A9,9,0,0,1,141,41ZM127,86h6.94A12.89,12.89,0,0,0,140,90v47H128V105h-8v35h-6V99A13,13,0,0,1,127,86Zm-13,68v-6h6v6Zm26,40v39h-6V194Zm-6,47h6v6h-6Zm14,6v-6h6v6Zm6-14h-6V194h6Z"/></svg>