<svg xmlns="http://www.w3.org/2000/svg" viewBox="0 0 288 288"><defs><style>.cls-1{fill:#fcfbfa;}</style></defs><g id="ART"><path class="cls-1" d="M210,143v17.94l-8,.06V143.06Zm-42.63,28.66-4.18-4.18-5.65,5.66,9.83,9.84,17.15-17.15-5.65-5.66Zm-14.85-36.85,4.25-2.5a10.77,10.77,0,0,1,0-2.62l-4.25-2.5,5.08-8.62,4.31,2.54a11.94,11.94,0,0,1,1.78-1V115h10v5.11a12.1,12.1,0,0,1,1.92,1.1l4.48-2.64,5.08,8.62-4.53,2.67c0,.37.05.75.05,1.14s0,.77-.05,1.14l4.53,2.67-5.08,8.62-4.48-2.64a12.1,12.1,0,0,1-1.92,1.1V147h-10v-5.11a11.94,11.94,0,0,1-1.78-1l-4.31,2.54ZM164.69,131a4,4,0,1,0,4-4A4,4,0,0,0,164.69,131ZM73.56,91.37a11.34,11.34,0,0,1-11.33,10.87h-.49A11.3,11.3,0,0,1,50.87,90.54l8,.34a3.27,3.27,0,0,0,3.22,3.36A3.34,3.34,0,0,0,65.57,91,3.59,3.59,0,0,0,62,87l-4-.17L58.5,76c-.3-.12-.59-.22-.88-.37A13.45,13.45,0,1,1,69.41,51.42a13.29,13.29,0,0,1,5.56,5l39.08,19.05A15.95,15.95,0,0,1,134,91a16,16,0,0,1-4.84,11.45L132,164h15v27H89V164h15.29l2.57-61.54a15.94,15.94,0,0,1-4.29-7.28L66.44,77.56l-.1,2.29A11.54,11.54,0,0,1,73.56,91.37ZM139,172H97v11h42Zm-17.68-65.35a15.92,15.92,0,0,1-6.64,0L112.19,164h11.62ZM118,83a8,8,0,1,0,8,8A8,8,0,0,0,118,83Zm-13.17-3.08L76.69,66.2a14,14,0,0,1-1.08,3.21,13.38,13.38,0,0,1-1.86,2.82L101.89,86ZM61.13,68.41a5.46,5.46,0,0,0,7.29-2.51,5.47,5.47,0,0,0-4.9-7.85,5.45,5.45,0,0,0-2.39,10.36ZM211,99H138.45a22.32,22.32,0,0,1-3.13,5.48l.1,2.52H211a5,5,0,0,1,5,5v80a5,5,0,0,1-5,5H87a5,5,0,0,1-5-5V112a5,5,0,0,1,5-5l14-.06-.32-2.46A22.32,22.32,0,0,1,97.55,99H87a13,13,0,0,0-13,13v80a13,13,0,0,0,13,13H211a13,13,0,0,0,13-13V112A13,13,0,0,0,211,99Z"/></g></svg>