<svg id="ART" xmlns="http://www.w3.org/2000/svg" viewBox="0 0 288 288"><defs><style>.cls-1{fill:#fdfcfb;}</style></defs><title>RMIL_Personas</title><path class="cls-1" d="M103.83,111.25a6,6,0,0,1,0-8.49l-5.66-5.65a14,14,0,0,0,0,19.8Z"/><path class="cls-1" d="M84,131.05A34,34,0,0,1,84,83l-5.66-5.66a42.06,42.06,0,0,0,0,59.4Z"/><path class="cls-1" d="M88.27,126.81l5.66-5.66a20,20,0,0,1,0-28.29l-5.66-5.65A28,28,0,0,0,88.27,126.81Z"/><path class="cls-1" d="M188,232V181a9,9,0,0,0-9-9H109a9,9,0,0,0-9,9v51H86v4l8,4H194l8-4v-4Zm-50.13,0,5-5-2.12-2.12,3.74-3.74L155.34,232ZM180,232H166.66l-16.5-16.5,5.45-5.45,6.83-1.74,6.27-13.44-3.58-3.58-13.44,6.27L150,204.39l-5.45,5.45-3.57-3.57a11,11,0,0,0-1-10.64l-4.11-4.38h0l-8.5-2.84-2.83,2.83,7.79,7.79L128,203.27l-7.79-7.79-2.83,2.83,2.84,8.5,2.83,2.83a11,11,0,0,0,12.19,2.29l3.57,3.57-3.74,3.74L133,217.12,118.13,232l0,0H108V181a1,1,0,0,1,1-1h70a1,1,0,0,1,1,1Z"/><path class="cls-1" d="M179,137H167V121.47a32.9,32.9,0,0,0,10-23.54V50H134c-14.4,0-23,9.34-23,25V98a33,33,0,0,0,10,23.79V137H109.18A38.13,38.13,0,0,0,71,175.1V199h8V175.1A30.14,30.14,0,0,1,109.16,145H124l20,20.81L165,145h14a30,30,0,0,1,30,30.1V199h8V175.1A38,38,0,0,0,179,137ZM134,58h35c-1.42,13-10.09,13-13,13H119.24C120.35,62.37,125.3,58,134,58Zm25,80-15,16.19L129,138V127.44A33.45,33.45,0,0,0,144,131a32.31,32.31,0,0,0,15-3.73Zm-15-15a25.14,25.14,0,0,1-24.23-18,22.25,22.25,0,0,0,11.1,5.44,7,7,0,1,0,.77-8C125.38,101,119.22,95.72,119,79h37a20.3,20.3,0,0,0,13.06-4.18l.06,23.12A25.41,25.41,0,0,1,144,123Z"/></svg>