<?xml version="1.0" encoding="utf-8"?>
<!-- Generator: Adobe Illustrator 28.0.0, SVG Export Plug-In . SVG Version: 6.00 Build 0)  -->
<svg version="1.1" id="ART" xmlns="http://www.w3.org/2000/svg" xmlns:xlink="http://www.w3.org/1999/xlink" x="0px" y="0px"
	 viewBox="0 0 288 288" style="enable-background:new 0 0 288 288;" xml:space="preserve">
<style type="text/css">
	.st0{fill:#312D2A;}
</style>
<g>
	<path class="st0" d="M197.9,103.5v14.1h-24.2c-3.5,0-6.4-2.9-6.4-6.4V94.5H157V82c1.5-1.3,2.8-2.9,3.8-4.6l24.8,3.4
		c0.6,0.1,1.2,0.1,1.8,0.1c3.3,0,6.5-1.2,8.9-3.4c2.9-2.5,4.5-6.1,4.5-9.9c0-3.7-1.5-7.1-4.2-9.6c-2.7-2.5-6.4-3.9-10.2-3.6
		l-26.8,1.8c-3.5-4.8-9.2-8-15.7-8c-6.4,0-12.2,3.2-15.7,8l-26.8-1.8c-3.8-0.2-7.5,1.1-10.2,3.6c-2.7,2.5-4.2,6-4.2,9.6
		c0,3.8,1.6,7.4,4.5,9.9c2.5,2.2,5.7,3.4,8.9,3.4c0.6,0,1.2,0,1.8-0.1l24.8-3.4c1,1.7,2.3,3.3,3.8,4.6v12.4h-10.3v16.8
		c0,3.5-2.9,6.4-6.4,6.4H99.1c-5-0.2-14.8,0.5-24.2,7.2c-3.7,2.6-6.9,5.8-9.5,9.5c-3.3,4.7-5.1,10.3-5.1,16.3v34.2h37.6v-22.5
		c0-0.3,0.3-0.6,0.6-0.6h18c0.8,0,1.5,0.3,2,0.8c3.7,4,11.8,10.9,23.9,12c15.6,1.5,26.7-7.7,30.7-11.8c0.7-0.7,1.7-1.1,2.7-1.1h22.1
		v19.3h29.9v-77.4H197.9z M187.1,62.3c1.6-0.1,3.1,0.4,4.2,1.5c1.1,1,1.7,2.3,1.7,3.8c0,1.5-0.6,2.9-1.8,3.9
		c-1.2,1.1-2.8,1.5-4.4,1.3l-23.4-3.1c0.1-0.7,0.1-1.4,0.1-2.1c0-1.2-0.1-2.5-0.4-3.6L187.1,62.3z M124.7,69.7l-23.4,3.1
		c-1.6,0.2-3.2-0.3-4.4-1.3c-1.1-1-1.8-2.4-1.8-3.9c0-1.4,0.6-2.8,1.7-3.8c1.1-1.1,2.6-1.6,4.2-1.5l24,1.6c-0.2,1.2-0.4,2.4-0.4,3.6
		C124.6,68.3,124.6,69,124.7,69.7z M144,56.2c6.3,0,11.4,5.1,11.4,11.4c0,6.3-5.1,11.4-11.4,11.4c-6.3,0-11.4-5.1-11.4-11.4
		C132.6,61.3,137.7,56.2,144,56.2z M149,86.4v8.1h-10v-8.1c1.6,0.4,3.3,0.6,5,0.6S147.4,86.8,149,86.4z M197.5,153.6h-21.8
		c-3.2,0-6.1,1.2-8.3,3.4c-4,4-12.6,10.6-24.3,9.5c-9.4-0.9-15.8-6.3-18.8-9.5c-2-2.1-4.8-3.4-7.8-3.4h-18c-4.8,0-8.6,3.9-8.6,8.6
		v14.5H68.3v-26.2c0-4.3,1.2-8.4,3.6-11.7c2.1-3,4.6-5.5,7.6-7.6c7.6-5.3,15.4-5.9,19.4-5.7h15.5c7.9,0,14.4-6.5,14.4-14.4v-8.8
		h30.6v8.8c0,7.9,6.5,14.4,14.4,14.4h23.9V153.6z M219.7,172.9h-13.9v-61.4h13.9V172.9z"/>
	<g>
		<g>
			<path class="st0" d="M97.1,215.8c-2.5-7.5-7.4-15.6-14.4-24.1l-3.1-3.7l-3.1,3.7c-6.6,7.9-11.3,15.7-14.1,23.3
				c-0.7,1.9-1.1,3.9-1.1,5.9c-0.2,9.6,7,17.8,16.5,18.8c0.6,0.1,1.2,0.1,1.8,0.1c4.6,0,9-1.7,12.4-4.7c3.9-3.5,6.1-8.4,6.1-13.6
				C97.9,219,97.5,217,97.1,215.8z M78.5,231.8c-5.2-0.5-9.4-5.3-9.3-10.6c0-1.2,0.2-2.3,0.6-3.4c2.1-5.5,5.3-11.2,9.7-17.1
				c4.8,6.3,8.1,12.2,9.9,17.6c0.2,0.5,0.5,1.6,0.5,3.1c0,2.9-1.2,5.7-3.4,7.7C84.3,231.1,81.5,232.1,78.5,231.8z"/>
		</g>
	</g>
</g>
<g id="Annotations_00000122681919041100526550000008728122085437856441_">
</g>
</svg>
