<?xml version="1.0" encoding="utf-8"?>
<!-- Generator: Adobe Illustrator 24.0.3, SVG Export Plug-In . SVG Version: 6.00 Build 0)  -->
<svg version="1.1" id="icon_art" xmlns="http://www.w3.org/2000/svg" xmlns:xlink="http://www.w3.org/1999/xlink" x="0px" y="0px"
	 viewBox="0 0 288 288" style="enable-background:new 0 0 288 288;" xml:space="preserve">
<style type="text/css">
	.st0{fill:#FCFBFA;}
</style>
<title>RMIL_Business_Billing_Yen_Air_RGB</title>
<path class="st0" d="M158.8,126.9L144,146.6l-14.8-19.7l-6.4,4.8l16,21.3H129v8h11v6h-11v8h11v7.7h8V175h11v-8h-11v-6h11v-8h-9.8
	l16-21.3L158.8,126.9z M93,101h47v8H93V101z M93,81h69v8H93V81z M181.7,48H74v181h140V80.3L181.7,48z M181,58.7L203.3,81H181V58.7z
	 M82,221V56h91v33h33v132H82z M74,235v4l8,4h124l8-4v-4H74z"/>
</svg>
