<svg id="ART" xmlns="http://www.w3.org/2000/svg" viewBox="0 0 288 288"><defs><style>.cls-1{fill:#312d2a;}</style></defs><path class="cls-1" d="M210,227v0H136V208H125V102h56v21.12a6.3,6.3,0,0,0-4.59,3,6,6,0,0,0,.25,6.13L188,149.7v4.91a11,11,0,0,0-4.72,3.09,12.18,12.18,0,0,0-3,8.11,11.35,11.35,0,0,0,11.32,11.4h.05a11.37,11.37,0,0,0,8-3.19,11.07,11.07,0,0,0,3.4-8l-8,0a3.09,3.09,0,0,1-1,2.27,3.41,3.41,0,0,1-2.4.94h0a3.31,3.31,0,0,1-2.37-1,3.37,3.37,0,0,1-1-2.38,4.27,4.27,0,0,1,1-2.8A3.53,3.53,0,0,1,192,162h4V149.7l11.34-17.46a6,6,0,0,0,.25-6.13,6.3,6.3,0,0,0-4.59-3V101.91A9,9,0,0,0,211,93V89a9,9,0,0,0-9-9h-6.51L118.92,60.83A9,9,0,0,0,110,53h-4a9,9,0,0,0-9,9v4.12l-6,13V80H85a9,9,0,0,0-9,9v4a9,9,0,0,0,9,9h6V208H78v19.44L71,231v4H218v-4ZM99,111.13,115,121l-16,9.84Zm18,69.68L102.63,172,117,163.13Zm0-34L102.63,138,117,129.13Zm0-34L99.43,102H117ZM99,145.13,115,155l-16,9.84Zm0,34L115,189l-16,9.84Zm18,18V208H99.33ZM195,102v21h-6V102Zm-3,39.2L185.37,131h13.26ZM105,67.85V62a1,1,0,0,1,1-1h4a1,1,0,0,1,1,1v5.88L116.13,79H99.87Zm15.57,1.64L162.51,80H125v-.88ZM85,94a1,1,0,0,1-1-1V89a1,1,0,0,1,1-1H202a1,1,0,0,1,1,1v4a1,1,0,0,1-1,1H85Zm1,122h42v11H86Z"/></svg>