<?xml version="1.0" encoding="UTF-8"?>
<svg id="ART" xmlns="http://www.w3.org/2000/svg" version="1.1" viewBox="0 0 288 288">
  <defs>
    <style>
      .cls-1 {
        fill: #fcfbfa;
        stroke-width: 0px;
      }
    </style>
  </defs>
  <path class="cls-1" d="M102.3,147.9h-15.1c-8.3,0-15.1,6.8-15.1,15.1s6.8,15.1,15.1,15.1,15.1-6.8,15.1-15.1v-15.1ZM109.9,200.9c0,8.3,6.8,15.1,15.1,15.1s15.1-6.8,15.1-15.1v-37.9c0-8.3-6.8-15.1-15.1-15.1s-15.1,6.8-15.1,15.1c0,0,0,37.9,0,37.9ZM140.1,102.3v-15.1c0-8.3-6.8-15.1-15.1-15.1s-15.1,6.8-15.1,15.1,6.8,15.1,15.1,15.1h15.1ZM87.1,109.9c-8.3,0-15.1,6.8-15.1,15.1s6.8,15.1,15.1,15.1h37.9c8.3,0,15.1-6.8,15.1-15.1s-6.8-15.1-15.1-15.1c0,0-37.9,0-37.9,0ZM185.7,140.1h15.1c8.3,0,15.1-6.8,15.1-15.1s-6.8-15.1-15.1-15.1-15.1,6.8-15.1,15.1v15.1ZM178.1,87.1c0-8.3-6.8-15.1-15.1-15.1s-15.1,6.8-15.1,15.1v37.9c0,8.3,6.8,15.1,15.1,15.1s15.1-6.8,15.1-15.1v-37.9ZM147.9,185.7v15.1c0,8.3,6.8,15.1,15.1,15.1s15.1-6.8,15.1-15.1-6.8-15.1-15.1-15.1h-15.1ZM200.9,178.1c8.3,0,15.1-6.8,15.1-15.1s-6.8-15.1-15.1-15.1h-37.9c-8.3,0-15.1,6.8-15.1,15.1s6.8,15.1,15.1,15.1h37.9Z"/>
</svg>