<svg id="ART" xmlns="http://www.w3.org/2000/svg" viewBox="0 0 288 288"><defs><style>.cls-1{fill:#312d2a;}</style></defs><title>RMIL_Personas</title><path class="cls-1" d="M185.9,164h-.35c5.86-4,10.61-9.49,14.79-16.8l.79-1.38L182.89,71.05l-.1,0C179.1,57.77,167.34,48,153.43,48H134.49c-13.88,0-25.61,9.76-29.29,23.07l-.09,0L87,145.82l.79,1.38c4.18,7.31,8.93,12.77,14.79,16.8h-.45C78.49,164,60,182.15,60,205.33V236h8V205.33C68,186.64,83,172,102.1,172h19c1.09,10.82,11.32,19.94,22.91,19.94s21.9-9.12,23-19.94h19C205,172,220,186.64,220,205.33V236h8V205.33C228,182.15,209.51,164,185.9,164ZM112,104.07V90.35a36.91,36.91,0,0,0,6,.88c6.58.4,16.19-.85,26-8.55a37.93,37.93,0,0,0,23.78,8.61c.76,0,1.48,0,2.17-.06a37,37,0,0,0,6.05-.88v13.72c0,18.71-14.35,33.93-32,33.93S112,122.78,112,104.07ZM167,163V138.31a42.41,42.41,0,0,0,16.78-29.84l8.81,36.12C186.33,155,178.77,160.08,167,163ZM134.49,56h18.94C165.88,56,176,66.75,176,80v2.16c-5.67,1.72-17.39,3.24-29.3-7.62L144,72l-2.7,2.46c-11.89,10.84-23.61,9.34-29.3,7.63V80C112,66.75,122.09,56,134.49,56Zm-39,88.59,8.74-36A42.39,42.39,0,0,0,121,138.31V163C109.29,160.07,101.75,154.94,95.5,144.59ZM144,183.94c-7.71,0-15-6.73-15-13.83v-27.2a38.2,38.2,0,0,0,30.1,0v27.2C159.05,177.21,151.71,183.94,144,183.94Z"/></svg>