<svg id="ART" xmlns="http://www.w3.org/2000/svg" viewBox="0 0 288 288"><defs><style>.cls-1{fill:#fcfbfa;}</style></defs><path class="cls-1" d="M140,149V121.19h8V149Zm36.1,21.79-24-14.8-4.2,6.8,24,14.81Zm-64.2,0,4.2,6.81,24-14.81-4.2-6.8ZM178.06,113H111V101.41a20.2,20.2,0,0,1,11.48-18.19,25.72,25.72,0,0,1-4-5.35l-.8-1.4,8.24-33.1h0c2-6.47,7.77-11.28,14.35-11.28h8c7.33,0,13.62,6,14.88,13.52l7.68,30.85-.79,1.39a26.15,26.15,0,0,1-3.61,5,19.94,19.94,0,0,1,11.38,18.28ZM133,74.9a21.1,21.1,0,0,1-5.14-6.15l-1.61,6.47A13.28,13.28,0,0,0,133,80.66Zm22.48-19.53a17.66,17.66,0,0,1-11.16-3.06,17.74,17.74,0,0,1-10,3.1c-.4,0-.78,0-1.15,0v3.17c0,6.81,5.16,12.56,11.27,12.56s11-5.75,11-12.56ZM141,87.09a3.22,3.22,0,0,0,3.48,3c1.71,0,3.52-1,3.52-3V78.73a17.73,17.73,0,0,1-3.52.37,17.49,17.49,0,0,1-3.48-.37Zm15-12.24v5.66a13.18,13.18,0,0,0,6.36-5.29L160.81,69A20.29,20.29,0,0,1,156,74.85ZM133.27,47.37a10.62,10.62,0,0,0,8.36-3.09l2.69-2.46,2.7,2.46a10.56,10.56,0,0,0,8.39,3.08s0-.06,0-.1l-.49-2h0c-1.1-3-3.7-5.2-6.57-5.2h-8C136.83,40.1,133.74,43.39,133.27,47.37ZM169.94,105l-.05-3.84A11.92,11.92,0,0,0,158,88.92l-2.06,0-.11,0a11.6,11.6,0,0,1-22.62.22l-2,0A12.22,12.22,0,0,0,119,101.41V105ZM122,244.41V256H49V244.41c0-11,9.6-20.37,21-20.37h1V219A19.36,19.36,0,0,1,65,205V191c0-9.87,5.75-16,15-16h26v29.24a20.59,20.59,0,0,1-6,14.42V224h2A20.22,20.22,0,0,1,122,244.41ZM79,226.33a9.93,9.93,0,0,0,6.55,2.42h0A10,10,0,0,0,92,226.43v-2.7a19.57,19.57,0,0,1-6.36,1.09A21,21,0,0,1,79,223.74ZM73.58,187H92a5.25,5.25,0,0,0,5.55-4H80C78.48,183,75,183,73.58,187ZM73,195v10c0,6.51,5.67,11.82,12.64,11.82A12.64,12.64,0,0,0,98,204.24V193.8a14.7,14.7,0,0,1-6,1.2Zm41,49.41A12.21,12.21,0,0,0,102,232H97.73a18.12,18.12,0,0,1-12.11,4.73h-.07A18.14,18.14,0,0,1,73.4,232H70c-6.91,0-13,5.78-13,12.37V248h57Zm128,0V256H169V244.41A20.22,20.22,0,0,1,189,224h2v-5.36a20.59,20.59,0,0,1-6-14.42V175h26c9.25,0,15,6.13,15,16v14A19.36,19.36,0,0,1,220,219V224h1.05C232.4,224,242,233.37,242,244.41Zm-43-18a10,10,0,0,0,6.41,2.32h0a9.93,9.93,0,0,0,6.55-2.42v-2.59a21,21,0,0,1-6.64,1.08,19.57,19.57,0,0,1-6.36-1.09ZM218,195H199a14.7,14.7,0,0,1-6-1.2v10.44a12.64,12.64,0,0,0,12.36,12.58c7,0,12.64-5.31,12.64-11.82Zm-24.51-12a5.08,5.08,0,0,0,5.51,4h18.42c-1.38-4-4.9-4-6.42-4ZM234,244.41C234,237.82,228,232,221,232H217.6a18.14,18.14,0,0,1-12.15,4.71h-.08a18.12,18.12,0,0,1-12.1-4.73H189a12.21,12.21,0,0,0-12,12.4V248h57Z"/></svg>