<svg id="icon_art" data-name="icon art" xmlns="http://www.w3.org/2000/svg" viewBox="0 0 288 288"><defs><style>.cls-1{fill:#312d2a;}</style></defs><title>RMIL_Technology</title><path class="cls-1" d="M111,153v34a1,1,0,0,0,1,1h23.08l0,8H112a9,9,0,0,1-9-9V153a9,9,0,0,1,9-9h64a9,9,0,0,1,9,9v34.09l-8-7.42V153a1,1,0,0,0-1-1H112A1,1,0,0,0,111,153Zm67.61,58.66,8,18.26-20.83,9.17-8.05-18.28-1.5,1.67a8.61,8.61,0,0,1-15-5.73L141,174.26a8.61,8.61,0,0,1,14.47-6.37l31.12,28.86a8.61,8.61,0,0,1-5.85,14.93h-.09Zm-2.51,14.16-9.81-22.28,14.44.14a.57.57,0,0,0,.58-.39.55.55,0,0,0-.15-.67L150,173.76a.53.53,0,0,0-.66-.11.55.55,0,0,0-.37.56l.26,42.49a.54.54,0,0,0,.39.57.53.53,0,0,0,.67-.16l9.79-10.83,9.8,22.27ZM82,94a4,4,0,1,0-4-4A4,4,0,0,0,82,94Zm14,0a4,4,0,1,0-4-4A4,4,0,0,0,96,94Zm14,0a4,4,0,1,0-4-4A4,4,0,0,0,110,94ZM230,81V207a9,9,0,0,1-9,9H187.55a14.48,14.48,0,0,0,6.79-7.6,3.17,3.17,0,0,0,.14-.4H221a1,1,0,0,0,1-1V122H66v85a1,1,0,0,0,1,1h68.2l.05,8H67a9,9,0,0,1-9-9V81a9,9,0,0,1,9-9H221A9,9,0,0,1,230,81ZM66,81v19H222V81a1,1,0,0,0-1-1H67A1,1,0,0,0,66,81Zm60,33v-6H66v6Zm96,0v-6H134v6Z"/></svg>