<svg id="ART" xmlns="http://www.w3.org/2000/svg" viewBox="0 0 288 288"><defs><style>.cls-1{fill:#fcfbfa;}</style></defs><path class="cls-1" d="M65,64V222H223V64ZM215,88H173V72h42Zm-92,0V72h42V88Zm42,8V214H123V96ZM115,72V88H73V72ZM73,96h42V214H73ZM173,214V96h42V214ZM159,110H129v-8h30Zm0,14H129v-8h30Zm0,14H129v-8h30Zm0,14H129v-8h30Zm0,14H129v-8h30Zm0,14H129v-8h30Zm0,14H129v-8h30Zm-30,14v-8h30v8Zm50-106h30v8H179Zm0,14h30v8H179Zm0,14h30v8H179Zm0,14h30v8H179Zm0,14h30v8H179Zm0,14h30v8H179Zm0,14h30v8H179Zm0,14h30v8H179Zm-70-98v8H79v-8ZM79,116h30v8H79Zm0,14h30v8H79Zm0,14h30v8H79Zm0,14h30v8H79Zm0,14h30v8H79Zm0,14h30v8H79Zm0,14h30v8H79Z"/></svg>