<svg id="ART" xmlns="http://www.w3.org/2000/svg" viewBox="0 0 288 288"><defs><style>.cls-1{fill:#312d2a;}</style></defs><path class="cls-1" d="M224,119.57l-6.94,4L198.22,91,205,87.12V62.88L184,50.75,163,62.88V71H125V62.88L104,50.75,83,62.88V87.12l6.81,3.94L71.34,123.8,64,119.57,43,131.69v24.25l21,12.12,6.89-4L89.79,197,83,200.88v24.24l21,12.13,21-12.13V217h38v8.12l21,12.13,21-12.13V200.88l-6.75-3.9,19.26-32.66,6.49,3.74,21-12.12V131.69ZM171,67.49,184,60l13,7.5v15L184,90l-13-7.5Zm-80,0L104,60l13,7.5v15L104,90l-13-7.5ZM51,151.32v-15l13-7.51,13,7.51v15l-13,7.51Zm66,69.19L104,228l-13-7.5v-15l13-7.5,13,7.5Zm80,0L184,228l-13-7.5v-15l13-7.5,13,7.5ZM191.32,193,184,188.75l-6.85,4L170.41,181h-9.23l9,15.71L163,200.88V209H125v-8.12l-7.21-4.17,9.1-15.71h-9.24l-6.79,11.71-6.86-4L96.71,193l-18.9-32.87L85,155.94V148h25v-8H85v-8.31l-6.73-3.89L96.74,95.06,104,99.25l7.61-4.39,8.82,15.33a25.87,25.87,0,0,1,5-7.32l-6.91-12L125,87.12V79h38v8.12L169.78,91l-7,12a26,26,0,0,1,5,7.4L176.7,95l7.3,4.21L191.29,95l18.84,32.53L203,131.69V140H178v8h25v7.94l7.58,4.38ZM237,151.32l-13,7.51-13-7.51v-15l13-7.51,13,7.51ZM164,121a20,20,0,1,0-39.91,0v6h-8L116,175l56.07-.08V127h-8Zm-31.91,0A12,12,0,1,1,156,121v6H132.08Zm31.95,46L124,167l.06-32h40Zm-26-19.77a6,6,0,1,1,8.88,5.27l1.12,7.73h-8l1.2-7.69A6,6,0,0,1,138,147.17Z"/></svg>