<svg id="ART" xmlns="http://www.w3.org/2000/svg" viewBox="0 0 288 288"><defs><style>.cls-1{fill:#fcfbfa;}</style></defs><path class="cls-1" d="M223,221V91H180v5.59c0,.81,0,1.61-.06,2.41H215V221H143V205h-8v16h-8v8H231v-8Z"/><path class="cls-1" d="M208,121H174a55.67,55.67,0,0,1-5.11,8H200v13H164v8h44Z"/><rect class="cls-1" x="164" y="156" width="37" height="8"/><polygon class="cls-1" points="208 170 164 170 164 178 200 178 200 191 164 191 164 199 208 199 208 170"/><rect class="cls-1" x="157" y="205" width="44" height="8"/><path class="cls-1" d="M201,107H179a50.43,50.43,0,0,1-2.3,8H201Z"/><path class="cls-1" d="M158,140.17l-.21.18A81.41,81.41,0,0,1,150,146v45H62V138h45.46a65.66,65.66,0,0,1-7.55-8H62v-5a1,1,0,0,1,1-1H95.71a54.36,54.36,0,0,1-4-8H63a9,9,0,0,0-9,9v74H158Z"/><polygon class="cls-1" points="90.88 151.11 74.88 161.11 74.88 167.89 90.88 177.89 95.12 171.11 84.55 164.5 95.12 157.89 90.88 151.11"/><polygon class="cls-1" points="122.12 177.89 138.12 167.89 138.12 161.11 122.12 151.11 117.88 157.89 128.45 164.5 117.88 171.11 122.12 177.89"/><polygon class="cls-1" points="99.55 178 107.73 178 113.45 151 105.27 151 99.55 178"/><path class="cls-1" d="M113.46,135.47a72.28,72.28,0,0,0,19.18,11.29l1.36.49,1.36-.49a72.28,72.28,0,0,0,19.18-11.29C167.27,125,174,111.73,174,97V59H94V97C94,111.73,100.73,125,113.46,135.47ZM102,67h64V97c0,26.25-25.74,39-32,41.68C127.73,136,102,123.25,102,97Z"/><polygon class="cls-1" points="154.83 89.45 149.17 83.8 132.7 100.34 125.37 93.01 119.71 98.67 132.71 111.66 154.83 89.45"/></svg>