<?xml version="1.0" encoding="utf-8"?>
<!-- Generator: Adobe Illustrator 27.1.0, SVG Export Plug-In . SVG Version: 6.00 Build 0)  -->
<svg version="1.1" id="ART" xmlns="http://www.w3.org/2000/svg" xmlns:xlink="http://www.w3.org/1999/xlink" x="0px" y="0px"
	 viewBox="0 0 288 288" style="enable-background:new 0 0 288 288;" xml:space="preserve">
<style type="text/css">
	.st0{fill:#FCFBFA;}
</style>
<path class="st0" d="M245.8,114.8h-6c-0.3,0-0.7,0-1,0.1v-3.1c0-5-4-9-9-9h-6c-0.3,0-0.7,0-1,0.1v-3.1c0-5-4-9-9-9h-6c-5,0-9,4-9,9
	v31H87v-31c0-5-4-9-9-9h-6c-5,0-9,4-9,9v3.1c-0.3,0-0.7-0.1-1-0.1h-6c-5,0-9,4-9,9v3.1c-0.3,0-0.7-0.1-1-0.1h-6c-5,0-9,4-9,9v38
	c0,5,4,9,9,9h6c0.3,0,0.7,0,1-0.1v3.1c0,5,4,9,9,9h6c0.3,0,0.7,0,1-0.1v3.1c0,5,4,9,9,9h6c5,0,9-4,9-9v-31h111.8v31c0,5,4,9,9,9h6
	c5,0,9-4,9-9v-3.1c0.3,0,0.7,0.1,1,0.1h6c5,0,9-4,9-9v-3.1c0.3,0,0.7,0.1,1,0.1h6c5,0,9-4,9-9v-38
	C254.8,118.8,250.8,114.8,245.8,114.8L245.8,114.8z M47,161.8c0,0.6-0.5,1-1,1h-6c-0.5,0-1-0.4-1-1v-38c0-0.6,0.5-1,1-1h6
	c0.5,0,1,0.4,1,1V161.8z M63,173.8c0,0.6-0.5,1-1,1h-6c-0.5,0-1-0.4-1-1v-62c0-0.6,0.5-1,1-1h6c0.5,0,1,0.4,1,1V173.8z M79,185.8
	c0,0.6-0.4,1-1,1h-6c-0.6,0-1-0.4-1-1v-86c0-0.6,0.4-1,1-1h6c0.6,0,1,0.4,1,1V185.8z M87,146.8v-8h111.8v8H87z M214.8,111.8v74
	c0,0.6-0.4,1-1,1h-6c-0.6,0-1-0.4-1-1v-86c0-0.6,0.4-1,1-1h6c0.6,0,1,0.4,1,1V111.8z M230.8,173.8c0,0.6-0.4,1-1,1h-6
	c-0.6,0-1-0.4-1-1v-62c0-0.6,0.4-1,1-1h6c0.6,0,1,0.4,1,1V173.8z M246.8,161.8c0,0.6-0.4,1-1,1h-6c-0.6,0-1-0.4-1-1v-38
	c0-0.6,0.4-1,1-1h6c0.6,0,1,0.4,1,1V161.8z"/>
</svg>
