<?xml version="1.0" encoding="utf-8"?>
<!-- Generator: Adobe Illustrator 28.0.0, SVG Export Plug-In . SVG Version: 6.00 Build 0)  -->
<svg version="1.1" id="ART" xmlns="http://www.w3.org/2000/svg" xmlns:xlink="http://www.w3.org/1999/xlink" x="0px" y="0px"
	 viewBox="0 0 288 288" style="enable-background:new 0 0 288 288;" xml:space="preserve">
<style type="text/css">
	.st0{fill:#FCFBFA;}
</style>
<g>
	<path class="st0" d="M78,184v8h132v-8H78z M112,198v8h64v-8H112z M112,198v8h64v-8H112z M78,184v8h132v-8H78z M78,184v8h132v-8H78z
		 M112,198v8h64v-8H112z M112,198v8h64v-8H112z M78,184v8h132v-8H78z M78,184v8h132v-8H78z M112,198v8h64v-8H112z M112,198v8h64v-8
		H112z M78,184v8h132v-8H78z M78,184v8h132v-8H78z M112,198v8h64v-8H112z M112,198v8h64v-8H112z M78,184v8h132v-8H78z M78,184v8h132
		v-8H78z M112,198v8h64v-8H112z M112,198v8h64v-8H112z M78,184v8h132v-8H78z M78,184v8h132v-8H78z M112,206h64v-8h-64V206z
		 M231,172.3V76c0-5-4-9-9-9H66c-5,0-9,4-9,9v97.8L36,213v4l8,4h200l8-4v-4L231,172.3z M65,76c0-0.5,0.5-1,1-1h156c0.5,0,1,0.5,1,1
		v94H65V76z M45.1,213l18.8-35H225l18,35H45.1z M78,192h132v-8H78V192z M112,206h64v-8h-64V206z M112,198v8h64v-8H112z M78,184v8
		h132v-8H78z M78,184v8h132v-8H78z M112,198v8h64v-8H112z M112,198v8h64v-8H112z M78,184v8h132v-8H78z M78,184v8h132v-8H78z
		 M112,198v8h64v-8H112z M112,198v8h64v-8H112z M78,184v8h132v-8H78z M78,184v8h132v-8H78z M112,198v8h64v-8H112z M112,198v8h64v-8
		H112z M78,184v8h132v-8H78z M78,184v8h132v-8H78z M112,198v8h64v-8H112z M112,198v8h64v-8H112z M78,184v8h132v-8H78z"/>
	<g>
		<path class="st0" d="M186.4,123c0-4.4-1.5-8.5-4.2-11.8c0-0.3,0-0.6,0-0.8c0-9-6.5-16.6-15.1-18.3c-2.2-3.2-5.4-5.7-9-7
			c-2.3-0.8-4.6-1.2-7-1.1c-2.2,0.1-3.8,1.1-5.5,2.1c-0.5,0.3-1,0.6-1.6,1c-0.6-0.3-1.1-0.7-1.6-1c-1.7-1-3.3-2-5.5-2.1
			c-2.4-0.1-4.7,0.3-7,1.1c-3.7,1.4-6.8,3.8-9,7c-8.6,1.7-15.1,9.3-15.1,18.3c0,0.3,0,0.5,0,0.8c-2.7,3.3-4.2,7.5-4.2,11.8
			c0,4.4,1.5,8.5,4.2,11.8c0,0.3,0,0.5,0,0.8c0,8.9,6.5,16.6,15,18.3c3.5,5.1,9.2,8.3,15.5,8.3c0.2,0,0.4,0,0.5,0
			c2.3-0.1,4-1.1,5.8-2.2c0.4-0.3,0.9-0.5,1.4-0.8c0.5,0.3,1,0.6,1.4,0.8c1.8,1.1,3.5,2.2,5.8,2.2c0.2,0,0.4,0,0.5,0
			c6.3,0,12-3.1,15.5-8.3c8.6-1.7,15-9.4,15-18.3c0-0.3,0-0.5,0-0.8C184.9,131.5,186.4,127.4,186.4,123z M140,152.2
			c-0.6,0.3-1.1,0.6-1.5,0.9c-0.7,0.4-1.6,1-1.9,1.1h-0.3c-4,0-7.6-2.2-9.5-5.8l-1-2l-2.2-0.2c-5.5-0.4-9.8-5.1-9.8-10.6
			c0-0.5,0-1,0.1-1.6l0.3-2l-1.4-1.4c-2.1-2-3.2-4.7-3.2-7.6c0-2.9,1.1-5.6,3.2-7.6l1.5-1.4l-0.3-2c-0.1-0.6-0.1-1.1-0.1-1.6
			c0-5.5,4.3-10.2,9.9-10.6l2.2-0.2l1-1.9c1.3-2.4,3.4-4.2,5.9-5.1c1.2-0.4,2.3-0.7,3.5-0.7h0.3c0.3,0.1,1,0.6,1.6,0.9
			c0.5,0.3,1.1,0.7,1.8,1.1V152.2z M175.2,130.6l-1.4,1.4l0.3,2c0.1,0.6,0.1,1.1,0.1,1.6c0,5.5-4.3,10.2-9.8,10.6l-2.2,0.2l-1,2
			c-1.8,3.6-5.5,5.8-9.5,5.8h-0.2c-0.3-0.1-1.2-0.6-1.9-1.1c-0.4-0.3-1-0.6-1.5-0.9V93.9c0.7-0.4,1.3-0.8,1.8-1.1
			c0.6-0.4,1.3-0.8,1.6-0.9c1.3,0,2.6,0.2,3.8,0.7c2.5,0.9,4.6,2.8,5.9,5.1l1,1.9l2.2,0.2c5.5,0.4,9.9,5.1,9.9,10.6
			c0,0.5,0,1-0.1,1.6l-0.3,2l1.5,1.4c2.1,2,3.2,4.7,3.2,7.6C178.4,125.9,177.3,128.6,175.2,130.6z"/>
		<path class="st0" d="M127.8,137.5c-1.4,1.5-3.8,1.6-5.4,0.2c-1.5-1.4-1.6-3.8-0.2-5.4c1.4-1.5,3.8-1.6,5.4-0.2
			C129.1,133.5,129.2,135.9,127.8,137.5z"/>
		<circle class="st0" cx="121.2" cy="123" r="3.8"/>
		<path class="st0" d="M127.6,113.8c-1.5,1.5-3.9,1.4-5.4-0.1c-1.5-1.5-1.4-3.9,0.1-5.4c1.5-1.5,3.9-1.4,5.4,0.1
			C129.2,110,129.1,112.4,127.6,113.8z"/>
		<circle class="st0" cx="166.8" cy="123" r="3.8"/>
		<path class="st0" d="M165.9,113.7c-1.5,1.5-3.9,1.5-5.4,0.1c-1.5-1.5-1.5-3.9-0.1-5.4c1.4-1.5,3.9-1.6,5.4-0.1
			S167.3,112.2,165.9,113.7z"/>
		<path class="st0" d="M165.7,137.8c-1.6,1.4-4,1.2-5.4-0.3c-1.4-1.6-1.2-4,0.3-5.4c1.6-1.4,4-1.3,5.4,0.3
			C167.4,134,167.2,136.4,165.7,137.8z"/>
	</g>
</g>
</svg>
