<svg id="ART" xmlns="http://www.w3.org/2000/svg" viewBox="0 0 288 288"><defs><style>.cls-1{fill:#312d2a;}</style></defs><path class="cls-1" d="M92,161a14,14,0,1,0,14,14A14,14,0,0,0,92,161Zm0,20a6,6,0,1,1,6-6A6,6,0,0,1,92,181Zm-9-67a7.5,7.5,0,1,1-7.5,7.5A7.5,7.5,0,0,1,83,114Zm20,0a7.5,7.5,0,1,1-7.5,7.5A7.5,7.5,0,0,1,103,114Zm20,0a7.5,7.5,0,1,1-7.5,7.5A7.5,7.5,0,0,1,123,114Zm14.11,0L137,184h67.06l15,19H232V114ZM224,195h-1.06l-15-19H145V122.91h79ZM118,95H91a26,26,0,0,0-26,26v1a26,26,0,0,0,26,26h27a25.85,25.85,0,0,0,13-3.5v8.91A33.73,33.73,0,0,1,118,156H91a34,34,0,0,1-34-34v-1A34,34,0,0,1,91,87h27a34.06,34.06,0,0,1,31.81,22h-8.76A26,26,0,0,0,118,95Zm53,55h-8V135l18,0v15l-6,13-4-3Zm25,0h-8V135l18,0v15l-6,13-4-3ZM71,186a11,11,0,1,0,11,11A11,11,0,0,0,71,186Zm0,14a3,3,0,1,1,3-3A3,3,0,0,1,71,200Z"/></svg>