<svg id="ART" xmlns="http://www.w3.org/2000/svg" viewBox="0 0 288 288"><defs><style>.cls-1{fill:#fcfbfa;}</style></defs><path class="cls-1" d="M206,93H54a9,9,0,0,0-9,9V228a9,9,0,0,0,9,9H206a9,9,0,0,0,9-9V102A9,9,0,0,0,206,93ZM54,101H206a1,1,0,0,1,1,1v9H53v-9A1,1,0,0,1,54,101ZM206.71,228.71a1,1,0,0,1-.71.29H54a1,1,0,0,1-1-1V119H207V228A1,1,0,0,1,206.71,228.71Z"/><path class="cls-1" d="M236,51H84a9,9,0,0,0-9,9V87h8V77H237V186a1,1,0,0,1-.29.71,1,1,0,0,1-.71.29H221v8h15a9,9,0,0,0,9-9V60A9,9,0,0,0,236,51ZM83,69V60a1,1,0,0,1,1-1H236a1,1,0,0,1,1,1v9Z"/><path class="cls-1" d="M109.17,164.17l-7,7a29,29,0,0,1,54.42-10.91l5.85-5.85a37,37,0,0,0-68.31,17l-7.27-7.27-5.66,5.66L98,186.66l16.83-16.83Z"/><path class="cls-1" d="M147.17,178.17l5.66,5.66,7-7a29,29,0,0,1-54.42,10.91l-5.85,5.85a37,37,0,0,0,68.31-17l7.27,7.27,5.66-5.66L164,161.34Z"/></svg>