<svg id="ART" xmlns="http://www.w3.org/2000/svg" viewBox="0 0 288 288">
  <defs>
    <style>
      .cls-1 {
        fill: #312d2a;
      }
    </style>
  </defs>
  <path class="cls-1" d="M246,83v84h-8V91H161V83ZM155.59,199c-8.76,18.5-12.41,30.53-13.79,36H130a282.76,282.76,0,0,0-11.13-70.82C104.27,114.3,78.1,81,41,65.12v8.77c33.15,15.48,56.73,46.54,70.17,92.54C122.69,205.88,122,238.57,122,238.9l-.1,4.1h26.46l.58-3.31c0-.12,2.34-12.84,13.88-37.22,8.46-17.88,24.79-44.5,55.18-72.61V167h8V112.08l-6.63,5.79C183.65,149,165,179.21,155.59,199Zm-25.08-37.71a286.42,286.42,0,0,1,7,30.63l2.14,12.34,5.41-11.3c14.16-29.57,36-57.49,65-83l8-7H161v8h36c-22.73,21.26-40.7,44.1-53.79,68.12-1.46-6.85-3.14-13.55-5-20C121.14,100.29,87.56,60.43,41,43.64v8.53c42.65,16.47,73.54,54.08,89.51,109.16Z"/>
</svg>
