<?xml version="1.0" encoding="UTF-8"?>
<svg id="ART" xmlns="http://www.w3.org/2000/svg" version="1.1" viewBox="0 0 288 288">
  <!-- Generator: Adobe Illustrator 29.5.0, SVG Export Plug-In . SVG Version: 2.1.0 Build 137)  -->
  <defs>
    <style>
      .st0 {
        fill: #fcfbfa;
      }
    </style>
  </defs>
  <g>
    <rect class="st0" x="51.4" y="218.2" width="8" height="22.7"/>
    <rect class="st0" x="68.4" y="206" width="8" height="34.9"/>
    <rect class="st0" x="85.4" y="193.8" width="8" height="47.1"/>
    <path class="st0" d="M110.4,248.9H34.3v-76.1h76.1v76.1ZM42.3,240.9h60.1v-60.1h-60.1v60.1Z"/>
  </g>
  <path class="st0" d="M218.1,112v17.1c0,.2,0,.4-.2.7-1,1.8-5.8,5.6-20.4,9.1-15,3.6-35,5.6-56.3,5.6s-41.3-2-56.4-5.6c-14.6-3.5-19.4-7.3-20.4-9.1-.2-.3-.2-.5-.2-.7v-38.3c4.4,2.7,10.7,5,18.8,7,15.6,3.8,36.3,6,58.2,6s26.7-.8,38.4-2.3c-2.2-2.2-4.1-4.7-5.8-7.4-10.1,1.1-21.1,1.7-32.6,1.7-21.3,0-41.3-2-56.3-5.7-5.7-1.4-10-2.9-13-4.3-6-2.7-7.6-5-7.6-6s.3-1.1,1.2-2c2.1-2.1,7.5-5.3,19.5-8.3,15-3.7,35-5.7,56.3-5.7s14.9.3,21.9.8c.7-2.7,1.7-5.3,2.9-7.8-7.9-.6-16.3-.9-24.8-.9-22,0-42.6,2.1-58.2,6-17.8,4.4-26.8,10.4-26.8,18s0,.8,0,1.2c0,.3,0,.5,0,.8v81h8v-22.9c4.4,2.6,10.7,4.9,18.8,6.8,15.6,3.7,36.3,5.8,58.2,5.8s42.6-2.1,58.2-5.8c8.1-1.9,14.4-4.2,18.8-6.8v35.5c0,.5-.5,1.3-1.9,2.5-2.5,2-7.9,4.8-18.8,7.4-15,3.6-35,5.6-56.3,5.6s-14-.2-20.7-.6v8c6.7.4,13.6.6,20.7.6,21.9,0,42.6-2.1,58.2-5.8,8.1-1.9,14.4-4.2,18.8-6.8v36.2c0,1.3-3.8,5.8-20.7,9.8-15,3.6-35,5.6-56.3,5.6s-14-.2-20.7-.6v8c6.7.4,13.6.6,20.7.6,21.9,0,42.6-2.1,58.2-5.8,17.8-4.2,26.8-10.2,26.8-17.6v-113.3c-2.5,1.3-5.2,2.3-8,3.1Z"/>
  <path class="st0" d="M236.7,54.9l-1.4,1.5-1.4,1.5-2.9,3c-4.4-8.2-13-13.8-22.9-13.8s-23.6,9.4-25.7,21.8l4.9-4.7,1.1,1.1,4.5,4.7-10,9.7-3.2,3.1-1.6,1.5-.4.4-2.3-2.2-2.2-2-.5-.5-4.6-4.3-5.8-5.5,5.5-5.8,1,1,3.5,3.3,1.8,1.7c1.4-17.5,16.1-31.2,33.9-31.2s22.6,6.3,28.7,15.8Z"/>
  <path class="st0" d="M253.7,76.2l-5.6,5.8-1-.9-3.5-3.4-1.8-1.8c-1.4,17.5-16.1,31.2-33.9,31.2s-22.7-6.3-28.7-15.9l5.8-5.8c4.4,8.2,13,13.7,22.9,13.7s23.8-9.5,25.7-22l-5,4.7-.6-.7-4.9-5.2,10-9.4,3.2-3.1,1.6-1.5.5-.5,2.1,2,2.3,2.2.4.4,4.6,4.4,5.8,5.6Z"/>
  <g>
    <path class="st0" d="M190.3,85.1l8.1-21.8h5.9l8.1,21.8h-6.7l-1.1-3.8h-6.8l-1.1,3.8h-6.4ZM199.2,76.7h4.1l-2.1-7.2-2,7.2Z"/>
    <path class="st0" d="M214.4,85.1v-21.8h6v21.8h-6Z"/>
  </g>
</svg>