<svg id="icon_art" data-name="icon art" xmlns="http://www.w3.org/2000/svg" viewBox="0 0 288 288"><defs><style>.cls-1{fill:#fcfbfa;}</style></defs><title>RMIL_Technology</title><path class="cls-1" d="M196.89,159.29v-9.24c-8.88,3.28-26.07,6.64-49.32,6.64v8.8c16.17,0,31.68-1.64,43.67-4.61C193.28,160.37,195.15,159.84,196.89,159.29Z"/><path class="cls-1" d="M196.89,199.49v-9.24c-8.88,3.28-26.07,6.65-49.32,6.65v8.79c16.17,0,31.68-1.64,43.67-4.61C193.28,200.58,195.15,200,196.89,199.49Z"/><path class="cls-1" d="M196.89,119v-9.23c-8.88,3.28-26.07,6.64-49.32,6.64v8.79c16.17,0,31.68-1.63,43.67-4.6C193.28,120.05,195.15,119.52,196.89,119Z"/><path class="cls-1" d="M217,83.14C217,66.42,169.25,62,144,62S71,66.42,71,83.14c0,.28,0,.56,0,.84s0,.27,0,.42v121C71,221.7,118.75,226,144,226s73-4.3,73-20.56V84.4c0-.15,0-.28,0-.42S217,83.42,217,83.14Zm-8,122.3c0,.73-3.05,4.44-17.14,7.82C179.12,216.32,162.12,218,144,218s-35.12-1.68-47.86-4.74C82.05,209.88,79,206.17,79,205.44V175.23c14.68,8,46.12,10.41,65,10.41s50.32-2.4,65-10.41Zm0-40.36c0,.74-3.05,4.44-17.14,7.82-12.74,3.06-29.74,4.74-47.86,4.74S108.88,176,96.14,172.9C82.05,169.52,79,165.82,79,165.08V135c14.68,8,46.12,10.41,65,10.41S194.32,143,209,135Zm0-40.26c0,.74-3.05,4.44-17.14,7.82-12.74,3.06-29.74,4.74-47.86,4.74s-35.12-1.68-47.86-4.74C82.05,129.26,79,125.56,79,124.82V93.58c14.68,8.23,46.12,10.7,65,10.7s50.32-2.47,65-10.7ZM191.83,91.38c-12.73,3.16-29.71,4.9-47.83,4.9s-35.1-1.74-47.83-4.9C81.92,87.84,79,84,79,83.14s2.92-4.7,17.17-8.24C108.9,71.74,125.88,70,144,70s35.1,1.74,47.83,4.9C206.08,78.44,209,82.3,209,83.14S206.08,87.84,191.83,91.38Z"/></svg>