<?xml version="1.0" encoding="UTF-8"?>
<svg id="Layer_1" xmlns="http://www.w3.org/2000/svg" version="1.1" viewBox="0 0 288 288">
  <!-- Generator: Adobe Illustrator 29.5.0, SVG Export Plug-In . SVG Version: 2.1.0 Build 137)  -->
  <defs>
    <style>
      .st0 {
        fill: #fcfbfa;
      }
    </style>
  </defs>
  <g>
    <path class="st0" d="M169.5,247.8h-78V89.8h78v158ZM99.5,239.8h62V97.8h-62v142Z"/>
    <rect class="st0" x="105.5" y="103.8" width="50" height="8"/>
    <path class="st0" d="M155.5,124.8h-6v-7h-38v7h-6v8h6v7h38v-7h6v-8ZM141.5,131.8h-22v-6h22v6Z"/>
  </g>
  <rect class="st0" x="50.5" y="169.8" width="35" height="8"/>
  <rect class="st0" x="50.5" y="183.8" width="35" height="8"/>
  <rect class="st0" x="50.5" y="197.8" width="35" height="8"/>
  <rect class="st0" x="50.5" y="211.8" width="35" height="8"/>
  <g>
    <g>
      <rect class="st0" x="175.5" y="155.8" width="8" height="8"/>
      <rect class="st0" x="175.5" y="169.8" width="8" height="8"/>
      <rect class="st0" x="189.5" y="155.8" width="8" height="8"/>
      <rect class="st0" x="189.5" y="169.8" width="8" height="8"/>
      <rect class="st0" x="189.5" y="183.8" width="8" height="8"/>
      <rect class="st0" x="189.5" y="197.8" width="8" height="8"/>
      <rect class="st0" x="203.5" y="155.8" width="8" height="8"/>
      <rect class="st0" x="203.5" y="169.8" width="8" height="8"/>
      <rect class="st0" x="203.5" y="183.8" width="8" height="8"/>
      <rect class="st0" x="203.5" y="197.8" width="8" height="8"/>
      <rect class="st0" x="189.5" y="211.8" width="8" height="8"/>
      <rect class="st0" x="175.5" y="183.8" width="8" height="8"/>
      <rect class="st0" x="175.5" y="197.8" width="8" height="8"/>
      <rect class="st0" x="175.5" y="211.8" width="8" height="8"/>
      <rect class="st0" x="203.5" y="211.8" width="8" height="8"/>
    </g>
    <polygon class="st0" points="225.5 239.8 225.5 127.8 175.5 139.4 175.5 147.6 217.5 137.8 217.5 239.8 197.5 239.8 197.5 228.8 189.5 228.8 189.5 239.8 175.5 239.8 175.5 247.8 225.5 247.8 225.5 239.8 225.5 239.8"/>
  </g>
  <polygon class="st0" points="71.5 239.8 71.5 228.8 63.5 228.8 63.5 239.8 44.5 239.8 44.5 163.8 85.5 163.8 85.5 155.8 36.5 155.8 36.5 239.8 36.5 243.8 36.5 247.8 86.5 247.8 86.5 239.8 71.5 239.8"/>
  <path class="st0" d="M109.2,227.8l14.3-24.1-13.6-22.4h11.5l9.6,16.1,9.3-16.1h11l-13.7,22.6,14.4,23.9h-11.5l-10.4-17.6-10,17.6h-11Z"/>
  <rect class="st0" x="105.5" y="145.8" width="8" height="8"/>
  <rect class="st0" x="119.5" y="145.8" width="8" height="8"/>
  <rect class="st0" x="133.5" y="145.8" width="8" height="8"/>
  <rect class="st0" x="147.5" y="145.8" width="8" height="8"/>
  <rect class="st0" x="105.5" y="159.8" width="8" height="8"/>
  <rect class="st0" x="119.5" y="159.8" width="8" height="8"/>
  <rect class="st0" x="133.5" y="159.8" width="8" height="8"/>
  <rect class="st0" x="147.5" y="159.8" width="8" height="8"/>
  <path class="st0" d="M157.1,66.6c1.8-2,3.8-3.8,5.9-5.4-6.1-7.1-15.1-11.3-24.8-11.3s-17.8,3.8-24,10.5c-1.9,2.1-4.7,3.1-7.7,2.8-4.5-.4-9,.3-13.2,2.1-7.9,3.5-13.7,10.7-15.4,19.2-.6,2.9-2.4,5.3-5,6.7-10.8,5.7-17.8,16.3-18.7,28.4l-.3,4.3h31.4v-8h-22.5c1.8-7.5,6.7-13.9,13.7-17.6,4.8-2.5,8.1-7,9.1-12.2,1.2-6,5.2-11,10.7-13.4,2.9-1.3,6.1-1.8,9.2-1.5,5.4.5,10.7-1.4,14.3-5.4,4.7-5,11.3-7.9,18.1-7.9s14.2,3.3,18.9,8.8Z"/>
  <path class="st0" d="M191.7,111.8c-.3,1.3-.7,2.7-1.3,4h-14.9v8h19.8l1.1-2.1c1.4-2.5,2.4-5.2,3-7.9-2.7-.4-5.3-1.1-7.7-2Z"/>
  <path class="st0" d="M251.5,77.3l-5.6,5.8-1-.9-3.5-3.4-1.8-1.8c-1.4,17.5-16.1,31.2-33.9,31.2s-22.7-6.3-28.7-15.9l5.8-5.8c4.4,8.2,13,13.7,22.9,13.7s23.8-9.5,25.7-22l-5,4.7-.6-.7-4.9-5.2,10-9.4,3.2-3.1,1.6-1.5.5-.5,2.1,2,2.3,2.2.4.4,4.6,4.4,5.8,5.6Z"/>
  <path class="st0" d="M234.5,56l-1.4,1.5-1.4,1.5-2.9,3c-4.4-8.2-13-13.8-22.9-13.8s-23.6,9.4-25.7,21.8l4.9-4.7,1.1,1.1,4.5,4.7-10,9.7-3.2,3.1-1.6,1.5-.4.4-2.3-2.2-2.2-2-.5-.5-4.6-4.3-5.8-5.5,5.5-5.8,1,1,3.5,3.3,1.8,1.7c1.4-17.5,16.1-31.2,33.9-31.2s22.6,6.3,28.7,15.8Z"/>
  <g>
    <path class="st0" d="M188.5,85.7l8.1-21.8h5.9l8.1,21.8h-6.7l-1.1-3.8h-6.8l-1.1,3.8h-6.4ZM197.3,77.3h4.1l-2.1-7.2-2,7.2Z"/>
    <path class="st0" d="M212.6,85.7v-21.8h6v21.8h-6Z"/>
  </g>
</svg>