<svg id="ART" xmlns="http://www.w3.org/2000/svg" viewBox="0 0 288 288"><defs><style>.cls-1{fill:#312d2a;}</style></defs><path class="cls-1" d="M220.5,90c-7.62,0-32.5.79-32.5,11V102h-1c-10.46,0-20.34,1-27.82,2.83-9.54,2.32-14.18,5.74-14.18,10.43V126c23.87.47,38.48,5,40.83,7.9-2.13,2.46-15.51,7.43-40.83,7.91v8c11.9-.23,23-1.47,31.6-3.57a51.59,51.59,0,0,0,9.4-3.12v18.63c-1.53,2.49-16.22,8.19-45,8.19-28,0-42.67-5.4-44.84-8H88v56.28c0,5.39,5.7,9.37,17.42,12.18C115,232.74,127.61,234,141,234s26-1.26,35.58-3.54c11.72-2.81,17.42-6.79,17.42-12.18V193.6c11.7-.51,35-2.81,35-12.94V160.52c10.35-.72,24-3.08,24-10.52V101C253,90.79,228.12,90,220.5,90ZM186,218c-1.69,2.45-16.47,8-45,8s-43.31-5.54-45-8V199.23a51.59,51.59,0,0,0,9.4,3.12C115,204.68,127.6,206,141,206s26-1.28,35.6-3.61a51.59,51.59,0,0,0,9.4-3.12Zm0-28.23c-1.53,2.49-16.22,8.18-45,8.18s-43.47-5.69-45-8.18V171.25a52.42,52.42,0,0,0,9.4,3.11C115,176.69,127.6,178,141,178s26-1.29,35.6-3.62a52.42,52.42,0,0,0,9.4-3.11Zm59-73.39c-1.53,1-6.7,2.78-16,3.51v-4.64a6.48,6.48,0,0,0-1.09-3.6,80.93,80.93,0,0,0,13.69-1.91c.79-.19,2-.5,3.4-1Zm0,16.28c-1.53,1-6.7,2.78-16,3.51v-8.25c5.22-.37,11.28-1.16,16-2.82Zm-24,3.83c-1.72,1.78-10.81,4.9-27,5.64V134a7.74,7.74,0,0,0-2.37-5.49,116.36,116.36,0,0,0,23.19-2.76,44.6,44.6,0,0,0,6.18-1.93Zm-27,13.65c6.95-.31,19-1.34,27-4.63v12.69c-.72.66-3.26,2.14-9.24,3.47A107,107,0,0,1,194,163.84ZM243.13,101c-3.68,1.37-11.48,3-22.63,3s-18.95-1.58-22.63-3c3.68-1.37,11.49-3,22.63-3S239.45,99.58,243.13,101ZM187,110c18.61,0,30,3.15,33.32,5.27-3.3,2.12-14.74,5.26-33.32,5.26s-30-3.14-33.32-5.26C157,113.15,168.39,110,187,110Zm7,75.59V171.86a108.44,108.44,0,0,0,21.86-2.94,41.68,41.68,0,0,0,5.14-1.64V180.1C219.14,181.87,210,184.87,194,185.59Zm35-33.09v-8.29c5.22-.37,11.28-1.16,16-2.82v7.67C243.42,150.07,238.23,151.79,229,152.5ZM48.3,183.81A102.66,102.66,0,0,1,55.75,156H139V79.66a149.57,149.57,0,0,1,43.79-10.41,12,12,0,1,0-.18-8A156.69,156.69,0,0,0,139,71.08V63H50v86.14c-5.32,11.75-8.78,24.06-9.72,34.46a12,12,0,1,0,8,.21ZM194,61a4,4,0,1,1-4,4A4,4,0,0,1,194,61ZM94.84,95.21a17.79,17.79,0,0,0,10,3.1c.39,0,.78,0,1.15,0v3.17c0,6.81-5.16,12.56-11.28,12.56-6,0-11-5.75-11-12.56V98.27A17.62,17.62,0,0,0,94.84,95.21Zm-3.67,26.42a16.74,16.74,0,0,0,7,0V130a3.23,3.23,0,0,1-3.49,3c-1.7,0-3.51-1.05-3.51-3Zm21.75-3.51a13.23,13.23,0,0,1-6.75,5.44V117.8a21,21,0,0,0,5.14-6.15Zm-7-27.85a10.61,10.61,0,0,1-8.36-3.09l-2.7-2.46-2.69,2.46a10.61,10.61,0,0,1-8.4,3.09s0-.08,0-.11l.49-2h0c1.1-3,3.7-5.2,6.57-5.2h8C102.33,83,105.43,86.29,105.9,90.27ZM83.17,117.75v5.66a13.14,13.14,0,0,1-6.36-5.29l1.55-6.22A20.13,20.13,0,0,0,83.17,117.75Zm-2,14.16h2.2A11.6,11.6,0,0,0,106,132l.25-.07H109c6.39,0,11.21,5.33,11.21,12.4V148h-51v-3.69A12.2,12.2,0,0,1,81.15,131.91ZM58,71h73v77h-2.83v-3.69A20.27,20.27,0,0,0,117,125.76a26.18,26.18,0,0,0,3.64-5l.79-1.39-8.24-33.1h0c-2-6.47-7.77-11.28-14.36-11.28h-8c-7.33,0-13.62,6-14.89,13.51l-7.68,30.86.8,1.39a26.2,26.2,0,0,0,3.7,5.07,20.43,20.43,0,0,0-11.58,18.48V148H58ZM44,199a4,4,0,1,1,4-4A4,4,0,0,1,44,199Z"/></svg>