<svg id="ART" xmlns="http://www.w3.org/2000/svg" viewBox="0 0 288 288"><defs><style>.cls-1{fill:#312d2a;}</style></defs><path class="cls-1" d="M243,180H233v-8a25.79,25.79,0,0,0-20.61-25.38,32.85,32.85,0,0,0,6.14-7.92l.8-1.39L208,91.93,208,92c-2.61-8.1-9.87-14-18.42-14H178.41c-9.59,0-17.56,7.36-19.15,17l-10.53,42.31.8,1.39a33,33,0,0,0,6.15,7.94A26.49,26.49,0,0,0,139.78,157H131V147a26.9,26.9,0,0,0,8-19V89H104c-11.84,0-18.93,7.78-19,20.82h0v18.52a26.34,26.34,0,0,0,7.94,18.83V157H81.49a26.7,26.7,0,0,0-26.2,23H45l-8,4v4H55v28h8V184c0-10.3,8.47-19,18.49-19H94.72l17.16,18.22L129.05,165h12.46c10,0,18.49,8.7,18.49,19v32h8V188h83v-4ZM167,106.52A23.17,23.17,0,0,0,184,102.08a22.87,22.87,0,0,0,17,4.44v6.1c0,10.2-7.64,18.49-17,18.49s-17-8.29-17-18.49ZM177,138.06a23.64,23.64,0,0,0,14,0v13.51c0,3.27-3.35,6.24-7,6.24s-7-3-7-6.24Zm22,7.2V133.79a26.45,26.45,0,0,0,8.31-11.63l3.47,13.91A20.32,20.32,0,0,1,199,145.26ZM178.41,86h11.13c6.28,0,11.39,5.56,11.45,12.41-3.28.66-8.74.62-14.3-4.44L184,91.52,181.31,94c-5.58,5.08-11.07,5.1-14.35,4.44a12.67,12.67,0,0,1,.14-1.76l.69-2.79h0A11.52,11.52,0,0,1,178.41,86ZM160.7,122.33a26.54,26.54,0,0,0,8.3,11.5v11.41a20.3,20.3,0,0,1-11.72-9.17ZM104,97h26.74c-1.3,9-7.06,9-9.11,9H93.32C94.35,100.06,97.93,97,104,97Zm17.63,17a16.94,16.94,0,0,0,9.37-2.57v16.58a19.22,19.22,0,0,1-19,19,18.85,18.85,0,0,1-19-18.63V114Zm-9.75,57.51-10.94-11.62v-7.27A27.14,27.14,0,0,0,112,155,26.26,26.26,0,0,0,123,152.6v7.19Zm37.57-13.31a18.75,18.75,0,0,1,12-4.24h7.76a15.12,15.12,0,0,0,29.5,0h7.76c10.37,0,18.49,7.91,18.49,18v8H167.71A27,27,0,0,0,149.45,158.24Z"/></svg>