<svg id="Icon_Art" data-name="Icon Art" xmlns="http://www.w3.org/2000/svg" viewBox="0 0 28.8 28.8">
  <defs>
    <style>
      .cls-1 {
        fill: #fcfbfa;
      }

      .cls-2 {
        fill: #312d2a;
      }

      .cls-3 {
        fill: none;
        stroke: #fcfbfa;
        stroke-miterlimit: 10;
        stroke-width: 0.8px;
      }
    </style>
  </defs>
  <path class="cls-1" d="M18.3,20.74v-.8h2.8v.8Z"/>
  <g>
    <rect class="cls-2" x="12.7" y="18.9" height="0.8"/>
    <rect class="cls-2" x="12.7" y="15.5" height="0.8"/>
  </g>
  <path class="cls-1" d="M12.1,18.94c-3.31,0-5.27-.67-5.4-1V15.49a14.52,14.52,0,0,0,5.4.85v-.8c-3.31,0-5.27-.67-5.4-1V12.09a14.72,14.72,0,0,0,5.5.85,14.75,14.75,0,0,0,5.5-.85v1.65h.8v-6c0-1.42-4-1.8-6.3-1.8s-6.3.38-6.3,1.8v10.2c0,1.4,3.85,1.79,6.2,1.8ZM6.7,7.75c.14-.35,2.14-1,5.5-1s5.31.64,5.49,1c-.18.36-2.17,1-5.49,1s-5.36-.66-5.5-1Zm0,.94a14.72,14.72,0,0,0,5.5.85,14.75,14.75,0,0,0,5.5-.85v2.44c-.14.35-2.14,1-5.5,1s-5.37-.66-5.5-1Z"/>
  <polygon class="cls-1" points="17.7 17.64 15.1 16.64 15.1 17.5 16.64 18.09 15.1 18.68 15.1 19.54 17.7 18.54 17.7 17.64"/>
  <rect class="cls-3" x="13.1" y="14.74" width="10" height="8.4" rx="0.4"/>
</svg>
