<?xml version="1.0" encoding="utf-8"?>
<!-- Generator: Adobe Illustrator 28.0.0, SVG Export Plug-In . SVG Version: 6.00 Build 0)  -->
<svg version="1.1" id="ART" xmlns="http://www.w3.org/2000/svg" xmlns:xlink="http://www.w3.org/1999/xlink" x="0px" y="0px"
	 viewBox="0 0 288 288" style="enable-background:new 0 0 288 288;" xml:space="preserve">
<style type="text/css">
	.st0{fill:#312D2A;}
</style>
<g>
	<rect x="169.6" y="128.7" class="st0" width="8" height="27.6"/>
	<rect x="184.4" y="112" class="st0" width="8" height="61"/>
	<rect x="198.6" y="128.7" class="st0" width="8" height="27.6"/>
	<rect x="213.4" y="112" class="st0" width="8" height="61"/>
	<rect x="227.6" y="128.7" class="st0" width="8" height="27.6"/>
	<path class="st0" d="M134.4,84h-48v8h-8v8h8v8h48v-8h8v-8h-8V84z M126.4,100h-32v-8h32V100z"/>
	<rect x="78.4" y="70" class="st0" width="64" height="8"/>
	<rect x="78.4" y="114" class="st0" width="64" height="8"/>
	<rect x="78.4" y="210" class="st0" width="64" height="8"/>
	<rect x="78.4" y="196" class="st0" width="64" height="8"/>
	<path class="st0" d="M78.4,190h64v-28h-64C78.4,162,78.4,190,78.4,190z M86.4,170h48v12h-48C86.4,182,86.4,170,86.4,170z"/>
	<path class="st0" d="M78.4,156h64v-28h-64C78.4,128,78.4,156,78.4,156z M86.4,136h48v12h-48C86.4,148,86.4,136,86.4,136z"/>
	<path class="st0" d="M160.4,232h-4V48h-92v184h-4l-8,4v4h116v-4L160.4,232z M148.4,232h-76V56h76V232z"/>
</g>
</svg>
