<?xml version="1.0" encoding="utf-8"?>
<!-- Generator: Adobe Illustrator 24.0.3, SVG Export Plug-In . SVG Version: 6.00 Build 0)  -->
<svg version="1.1" id="ART" xmlns="http://www.w3.org/2000/svg" xmlns:xlink="http://www.w3.org/1999/xlink" x="0px" y="0px"
	 viewBox="0 0 288 288" style="enable-background:new 0 0 288 288;" xml:space="preserve">
<style type="text/css">
	.st0{fill:#312D2A;}
</style>
<path class="st0" d="M206,233h-64v-6h72v-8h-80v16.6l-11.5-11.1L111,235.6V219H88v8h15v6H83c-0.6,0-1-0.4-1-1v-18c0-0.6,0.4-1,1-1
	h131V47H83c-5,0-9,4-9,9v176c0,5,4,9,9,9h20v13.4l19.5-18.9l19.5,18.9V241h64l8-4v-4H206z M82,56c0-0.6,0.4-1,1-1h123v150H83
	c-0.3,0-0.7,0-1,0.1V56z M88,61h8v138h-8V61z M126,159h58v-4l-8-4v-21h8v-12.7l-33-13.7l-33,13.7V130h8v21l-8,4v4H126z M154,130v21
	h-6v-21H154z M168,151h-6v-21h6V151z M151,112.3l23.4,9.7h-46.7L151,112.3z M140,130v21h-6v-21H140z"/>
</svg>
