<svg id="ART" xmlns="http://www.w3.org/2000/svg" viewBox="0 0 288 288"><defs><style>.cls-1{fill:#fcfbfa;}</style></defs><path class="cls-1" d="M188,55.08H100a11,11,0,0,0-11,11V221.91a11,11,0,0,0,11,11h88a11,11,0,0,0,11-11V66.08A11,11,0,0,0,188,55.08ZM100,63h88a3.09,3.09,0,0,1,3,3.08V205H97V66.08A3.09,3.09,0,0,1,100,63Zm88,162H100a3.1,3.1,0,0,1-3-3.09V213h94v8.91A3.1,3.1,0,0,1,188,225ZM109,125h70a4,4,0,0,0,4-4V75a4,4,0,0,0-4-4H109a4,4,0,0,0-4,4v46A4,4,0,0,0,109,125Zm4-46h62v38H113Zm-4,118h28a4,4,0,0,0,4-4V135a4,4,0,0,0-4-4H109a4,4,0,0,0-4,4v58A4,4,0,0,0,109,197Zm4-58h20v50H113Zm66-8H151a4,4,0,0,0-4,4v22a4,4,0,0,0,4,4h28a4,4,0,0,0,4-4V135A4,4,0,0,0,179,131Zm-4,22H155V139h20Zm4,14H151a4,4,0,0,0-4,4v22a4,4,0,0,0,4,4h28a4,4,0,0,0,4-4V171A4,4,0,0,0,179,167Zm-4,22H155V175h20Z"/></svg>