<?xml version="1.0" encoding="UTF-8"?>
<svg id="ART" xmlns="http://www.w3.org/2000/svg" viewBox="0 0 288 288">
  <defs>
    <style>
      .cls-1 {
        fill: #fcfbfa;
      }
    </style>
  </defs>
  <path class="cls-1" d="M210.34,101.11c0-.13-.02-.35-.07-.64,0,0-.03-.15-.05-.27-2.54-13.12-45.41-13.5-50.37-13.5s-47.78.38-50.36,13.48c-.03.1-.05.21-.06.31,0,.04,0,.09-.02.13-.03.19-.04.36-.05.5,0,.14,0,.24,0,.32v42.48h8v-5.95c.41.18.84.36,1.28.53.43.18.88.34,1.34.5.46.17.93.32,1.4.47.95.31,1.94.59,2.96.85,2.54.67,5.24,1.21,7.99,1.66,1.09.18,2.2.34,3.3.49,1.1.15,2.21.29,3.3.41,1.09.12,2.17.23,3.23.33,2.71.25,5.3.43,7.63.56.41.02.81.04,1.2.06.22.01.44.02.65.03.32.01.63.02.94.04.51.02,1.01.04,1.48.05.56.02,1.1.04,1.6.05,2.01.05,3.49.06,4.2.06,1.04,0,3.69-.02,7.28-.16.31-.02.62-.03.94-.04.21-.01.43-.02.65-.03.39-.02.79-.04,1.2-.06.73-.04,1.49-.09,2.27-.14.48-.03.98-.06,1.48-.1.25-.02.5-.03.76-.06.36-.02.72-.05,1.09-.08.67-.06,1.34-.11,2.03-.18,1.06-.1,2.14-.21,3.23-.33,1.09-.12,2.19-.26,3.29-.41,1.11-.15,2.21-.31,3.31-.49.55-.09,1.1-.19,1.64-.28,1.64-.3,3.25-.62,4.81-.99.52-.13,1.03-.25,1.54-.39,1.02-.26,2-.54,2.96-.85.47-.15.94-.3,1.4-.47.46-.16.9-.32,1.34-.5.44-.17.87-.35,1.28-.53v17.92c-.06.09-.15.17-.24.26-.37.35-.95.73-1.73,1.12-.57.29-1.24.58-2.03.88-.04.02-.08.03-.13.05-.49.18-1.03.37-1.61.56-.05.02-.11.03-.16.05-.45.15-.92.29-1.42.43-.5.15-1.03.29-1.58.43-2.35.61-5.12,1.18-8.3,1.69-2.05.33-4.27.63-6.64.88-5.42.59-11.67.95-18.66.95-6.17,0-11.76-.28-16.71-.75v7.99c.46.04.91.07,1.36.11.46.04.91.07,1.35.11.68.05,1.35.09,2.01.13.33.02.65.04.97.06.64.04,1.26.08,1.87.1.51.03,1,.05,1.48.07,1.91.08,3.57.13,4.88.15.29.01.56.01.81.01.89.02,1.56.02,1.98.02,1.08,0,3.9-.02,7.69-.18.47-.02.96-.04,1.46-.07.61-.02,1.23-.06,1.87-.1.32-.02.64-.04.97-.06.66-.04,1.33-.08,2.01-.13.44-.04.89-.07,1.34-.11,1.65-.12,3.37-.28,5.11-.48.37-.04.75-.08,1.12-.13,1.86-.21,3.75-.47,5.62-.77.75-.12,1.49-.25,2.24-.38,1.48-.27,2.94-.57,4.36-.9.34-.08.68-.16,1.02-.25,2.33-.58,4.54-1.25,6.52-2.05.28-.1.55-.21.82-.33.12-.05.23-.11.35-.15v17.92c-2.13,2.7-17.65,7.28-42.5,7.28-6.17,0-11.76-.28-16.71-.75v8c8.07.7,14.89.75,16.71.75,5.17,0,50.5-.41,50.5-14.92v-81.94c0-.13,0-.24-.01-.33ZM117.78,101.43c3.21-2.58,17.51-6.73,42.07-6.73s38.85,4.15,42.07,6.73c0,.01,0,.01,0,.01-.03.02-.06.05-.09.06-.35.28-.82.56-1.41.86-.16.08-.33.16-.51.24-.21.1-.43.2-.67.29-.11.05-.22.1-.33.13-.22.1-.44.19-.68.27-.5.19-1.05.38-1.63.57-.29.09-.6.19-.91.28-1.27.38-2.71.76-4.31,1.12-.79.17-1.62.35-2.49.51-.88.18-1.8.35-2.77.5-.12.02-.24.04-.36.06-.34.05-.68.11-1.02.16-1.04.15-2.12.31-3.24.45-1.09.14-2.22.27-3.39.38-.56.06-1.13.11-1.71.16-1.43.13-2.91.24-4.46.34-.44.03-.88.05-1.33.08-1.33.07-2.71.13-4.13.17-.71.03-1.43.05-2.16.06-1.45.03-2.94.05-4.48.05s-3.03-.02-4.48-.05c-.73-.01-1.45-.03-2.16-.06-1.42-.04-2.8-.1-4.13-.17-.45-.03-.89-.05-1.33-.08-1.55-.1-3.03-.21-4.46-.34-.58-.05-1.15-.1-1.71-.16-1.17-.11-2.3-.24-3.39-.38-1.12-.14-2.2-.3-3.24-.45-.34-.05-.68-.11-1.02-.16-.12-.02-.24-.04-.36-.06-.97-.15-1.89-.32-2.77-.5-.88-.16-1.71-.34-2.49-.51-1.6-.36-3.04-.74-4.31-1.12-.31-.09-.62-.19-.91-.28-.58-.19-1.13-.38-1.63-.57-.24-.08-.46-.17-.68-.27-.11-.03-.22-.08-.33-.13-.24-.09-.46-.19-.67-.29-.18-.08-.35-.16-.51-.24-.59-.3-1.06-.58-1.41-.86-.03-.01-.06-.04-.09-.06,0,0,.01,0,.01-.01ZM202.35,128.77c-.06.09-.15.17-.24.26-.09.09-.19.17-.31.26-.11.09-.23.18-.37.26-.12.09-.27.18-.42.27-.19.11-.41.22-.65.35-.37.18-.78.37-1.24.55-.98.41-2.17.83-3.55,1.23-.32.1-.65.2-1,.29-.36.1-.73.2-1.12.3-2.32.6-5.07,1.18-8.21,1.68-.5.08-1.02.16-1.54.23-.54.09-1.09.16-1.65.23-1.01.14-2.05.27-3.12.38-.38.05-.76.09-1.14.12-.36.05-.72.08-1.08.11-.62.06-1.25.12-1.9.17-.06.01-.13.01-.2.02-1.03.08-2.08.16-3.17.23-2.77.17-5.7.29-8.79.33-.42.01-.86.01-1.29.01-.5.01-1,.01-1.51.01s-1,0-1.5-.01c-.44,0-.88,0-1.31-.01-2.52-.04-4.92-.12-7.22-.24-.45-.03-.9-.05-1.34-.08-1.32-.08-2.59-.17-3.83-.28-.57-.05-1.12-.1-1.66-.15-.7-.06-1.38-.13-2.05-.2-.23-.03-.45-.05-.68-.08-.9-.1-1.77-.21-2.61-.33-.57-.07-1.12-.14-1.66-.23-.54-.07-1.07-.15-1.59-.24-.8-.13-1.57-.26-2.31-.4-.18-.03-.36-.07-.54-.1-.12-.02-.25-.05-.37-.07-4.64-.89-8.22-1.93-10.6-2.92-.24-.09-.47-.19-.69-.3-.18-.07-.34-.15-.5-.23-.28-.14-.52-.27-.74-.4-.14-.08-.26-.15-.38-.24-.28-.18-.5-.35-.68-.52-.09-.09-.18-.17-.24-.26v-18.61c.38.17.77.33,1.17.48.08.04.15.07.23.09.4.16.8.31,1.22.45.51.18,1.03.36,1.56.52.79.24,1.6.47,2.43.69,1.38.37,2.8.7,4.26.99.65.13,1.31.26,1.97.38.28.05.56.1.84.15l1.29.21c.48.08.96.16,1.45.23.12.02.23.03.33.05.51.07,1.01.14,1.52.21.52.07,1.03.13,1.54.2.04.01.08.01.11.01,1.09.13,2.17.25,3.23.37.83.08,1.64.15,2.44.22.99.09,1.96.16,2.91.24.81.05,1.61.11,2.38.15.48.03.95.06,1.4.08.99.06,1.93.1,2.82.14.76.02,1.48.05,2.15.07.91.03,1.74.05,2.46.06.29.01.56.01.81.01.89.02,1.56.02,1.98.02.83,0,2.7-.01,5.24-.09.68-.02,1.4-.05,2.16-.07.89-.04,1.83-.08,2.81-.14.46-.02.93-.05,1.41-.08.77-.04,1.57-.1,2.38-.15.94-.08,1.92-.15,2.91-.24.8-.07,1.61-.14,2.44-.22,1.07-.12,2.14-.24,3.22-.37.04,0,.08,0,.12-.01.51-.07,1.02-.13,1.53-.2.52-.07,1.03-.14,1.54-.21.1-.02.21-.03.32-.05.48-.07.97-.15,1.45-.23.46-.07.92-.15,1.38-.23.19-.03.39-.06.59-.1.72-.13,1.43-.27,2.13-.41,1.46-.29,2.88-.62,4.26-.99.83-.22,1.64-.45,2.43-.69.53-.16,1.05-.34,1.56-.52.42-.14.82-.29,1.22-.45.08-.02.15-.05.23-.09.4-.15.79-.31,1.17-.48v18.61Z"/>
  <path class="cls-1" d="M117.78,101.43s-.01.01-.01.01c.03.02.06.05.09.06-.03-.02-.05-.04-.08-.07ZM201.92,101.43s-.05.05-.08.07c.03-.01.06-.04.09-.06,0,0,0,0,0-.01ZM195.37,140.32c1.02-.25,2.01-.54,2.96-.85-.96.31-1.94.59-2.96.85ZM189.02,141.7c1.63-.29,3.25-.62,4.81-.99-1.56.37-3.17.69-4.81.99ZM121.37,139.47c.95.31,1.94.6,2.96.85-1.02-.26-2.01-.54-2.96-.85Z"/>
  <path class="cls-1" d="M130.8,105.77c.88.18,1.8.35,2.77.5-.97-.16-1.89-.33-2.77-.5ZM138.19,106.94c1.09.14,2.22.27,3.39.38-1.17-.12-2.3-.25-3.39-.38ZM173.85,115.65c.94-.08,1.92-.15,2.91-.24-.99.09-1.96.17-2.91.24ZM178.12,107.32c1.17-.11,2.3-.24,3.39-.38-1.09.13-2.22.26-3.39.38ZM186.13,106.27c.97-.15,1.89-.32,2.77-.5-.88.17-1.8.34-2.77.5Z"/>
  <path class="cls-1" d="M77.65,149.92v51.38h59.28v-51.38h-59.28ZM128.93,193.3h-43.28v-35.38h43.28v35.38Z"/>
  <g>
    <path class="cls-1" d="M90.69,186.66l8.07-21.81h5.88l8.13,21.81h-6.66l-1.11-3.78h-6.81l-1.08,3.78h-6.42ZM99.51,178.26h4.14l-2.1-7.17-2.04,7.17Z"/>
    <path class="cls-1" d="M114.78,186.66v-21.81h6v21.81h-6Z"/>
  </g>
  <path class="cls-1" d="M195.23,117.72v8.37c-9.56,2.77-19.67,4.25-30.12,4.25-1.88,0-3.76-.05-5.62-.15v-8.01c1.86.11,3.73.16,5.62.16,10.5,0,20.63-1.62,30.12-4.62Z"/>
  <path class="cls-1" d="M195.23,144.72v8.37c-9.56,2.77-19.67,4.25-30.12,4.25-1.88,0-3.76-.05-5.62-.15v-8.01c1.86.11,3.73.16,5.62.16,10.5,0,20.63-1.62,30.12-4.62Z"/>
  <path class="cls-1" d="M195.23,171.72v8.37c-9.56,2.77-19.67,4.25-30.12,4.25-1.88,0-3.76-.05-5.62-.15v-8.01c1.86.11,3.73.16,5.62.16,10.5,0,20.63-1.62,30.12-4.62Z"/>
</svg>