<?xml version="1.0" encoding="utf-8"?>
<!-- Generator: Adobe Illustrator 24.0.3, SVG Export Plug-In . SVG Version: 6.00 Build 0)  -->
<svg version="1.1" id="ART" xmlns="http://www.w3.org/2000/svg" xmlns:xlink="http://www.w3.org/1999/xlink" x="0px" y="0px"
	 viewBox="0 0 288 288" style="enable-background:new 0 0 288 288;" xml:space="preserve">
<style type="text/css">
	.st0{fill:#FCFBFA;}
</style>
<path class="st0" d="M255,149h-5v-3.8c0-10.8-9.1-19.3-20.8-19.3H227v-6.2c3.8-3.6,6-8.7,6-14V91c0-9.9-5.8-16-15-16h-26v4
	c0,0.3,0,0.5,0,0.8l0,0V105c0,5.4,2.2,10.6,6,14.4v6.6h-3c-0.4,0-0.8,0-1.2,0.1c1.4,2.5,2.5,5.2,3.2,7.9h4.7
	c3.1,2.3,6.8,3.5,10.7,3.6h0.1c3.9,0,7.7-1.3,10.8-3.6h5.9c6.3,0,12.8,4.2,12.8,11.3v3.8h-50v-6.8c-0.1-11.9-7.8-22.4-19.1-26
	c2.2-2.2,4.1-4.7,5.6-7.4l0.8-1.4L168,61.9V62c-2.6-8.1-9.9-14-18.4-14h-11.2c-9.6,0-17.6,7.4-19.2,17l-10.5,42.3l0.8,1.4
	c1.5,2.7,3.4,5.2,5.6,7.4c-11.3,3.6-19,14.1-19.1,26v6.9H46v-3.8c0-7.1,6.5-11.3,12.8-11.3h5.9c3.1,2.3,6.9,3.6,10.8,3.6h0.1
	c3.8,0,7.6-1.2,10.7-3.5H91c0.7-2.8,1.8-5.4,3.2-7.9c-0.4,0-0.8-0.1-1.2-0.1h-3v-6.6c3.8-3.8,6-9,6-14.5V76H70
	c-9.2,0-14.9,6-15,15.8l0,0v14c0,5.3,2.2,10.4,6,14v6.2h-2.2c-11.7-0.1-20.8,8.4-20.8,19.2v3.8h-5l-8,4v4h238v-4L255,149z
	 M225,105.8c0,6.5-5.7,11.8-12.6,11.8c-6.9-0.2-12.3-5.7-12.4-12.6V93.8c1.9,0.8,3.9,1.2,6,1.2h19V105.8z M218,83c1.5,0,5,0,6.4,4
	H206c-2.6,0.3-5-1.5-5.5-4H218z M212.4,129.5L212.4,129.5c-2.3,0-4.6-0.8-6.4-2.3v-2.7c2,0.7,4.2,1.1,6.4,1.1c2.3,0,4.5-0.4,6.6-1.1
	v2.6C217.2,128.7,214.9,129.6,212.4,129.5z M75.6,129.5L75.6,129.5c-2.4,0-4.8-0.8-6.6-2.4v-2.6c2.1,0.7,4.4,1.1,6.6,1.1
	c2.2,0,4.3-0.4,6.4-1.1v2.7C80.2,128.7,77.9,129.5,75.6,129.5z M70,84h17.6c-0.6,2.5-3,4.2-5.6,4H63.6C65,84,68.5,84,70,84z M82,96
	c2.1,0,4.1-0.4,6-1.2V105c0,6.9-5.5,12.4-12.4,12.6c-7,0-12.6-5.3-12.6-11.8V96H82z M159.7,115H159v-11.2c3.8-3,6.7-7.1,8.3-11.6
	l3.5,13.9C168.3,110.3,164.4,113.4,159.7,115L159.7,115z M127,76.5c6,0.8,12.1-0.8,17-4.4c4.8,3.7,11,5.3,17,4.4v6.1
	c0,10.2-7.6,18.5-17,18.5s-17-8.3-17-18.5V76.5z M137,108.1c4.6,1.4,9.4,1.4,14,0v12c0,3.3-3.4,6.2-7,6.2s-7-3-7-6.2V108.1z
	 M138.4,56h11.1c6.3,0,11.4,5.6,11.4,12.4c-3.3,0.7-8.7,0.6-14.3-4.4l-2.7-2.5l-2.7,2.5c-5.6,5.1-11.1,5.1-14.3,4.4
	c0-0.6,0.1-1.2,0.1-1.8l0.7-2.8l0,0C129.3,59.3,133.6,56.1,138.4,56z M120.7,92.3c1.7,4.5,4.5,8.5,8.3,11.5V115h-0.7
	c-4.6-1.6-8.5-4.7-11-8.9L120.7,92.3z M104,149v-6.8c0-10.4,8.5-19.2,18.5-19.2h6.9c2.2,8.1,10.5,12.9,18.5,10.7
	c5.2-1.4,9.3-5.5,10.7-10.7h6.9c10,0,18.5,8.8,18.5,19.2v6.8H104z M160.3,186l-5.6,3.3c-1.4-1.1-3-2-4.7-2.6v-5.9h-13v6.4
	c-1.3,0.6-2.5,1.3-3.6,2.2l-5.7-3.4l-6.3,10.7l5.7,3.3c-0.2,0.9-0.2,1.8-0.2,2.7c0,0.9,0.1,1.8,0.2,2.7l-5.7,3.4l6.3,10.7l5.7-3.3
	c1.1,0.9,2.3,1.6,3.6,2.2v6.4h13v-5.9c1.7-0.6,3.3-1.5,4.7-2.6l5.6,3.3l6.3-10.7l-5.6-3.3c0.3-1.8,0.3-3.7,0-5.5l5.6-3.3L160.3,186z
	 M144.1,212c-5.1,0-9.2-4.1-9.2-9.2c0-5.1,4.1-9.2,9.2-9.2c5.1,0,9.2,4.1,9.2,9.2c0,0,0,0,0,0C153.2,207.9,149.1,212,144.1,212z
	 M144,162.8c-22.1,0-40,17.9-40,40s17.9,40,40,40s40-17.9,40-40S166.1,162.8,144,162.8z M144,234.8c-17.7,0-32-14.3-32-32
	s14.3-32,32-32s32,14.3,32,32S161.7,234.8,144,234.8z M79,163h-8v21.8l25.8,7.9l2.3-7.7L79,178.8V163z M209,178.8l-20.2,6.1l2.3,7.7
	l25.8-7.9V163h-8V178.8z"/>
</svg>
