<?xml version="1.0" encoding="UTF-8"?>
<svg id="ART" xmlns="http://www.w3.org/2000/svg" version="1.1" viewBox="0 0 288 288">
  <defs>
    <style>
      .cls-1 {
        fill: #312d2a;
        stroke-width: 0px;
      }
    </style>
  </defs>
  <path class="cls-1" d="M170.7,72h-53.3c-25,0-45.3,20.3-45.3,45.3v53.3c0,25.1,20.3,45.4,45.3,45.4h53.3c25,0,45.3-20.3,45.3-45.4v-53.3c0-25-20.3-45.3-45.3-45.3ZM185.5,166.1c0,10.7-9,18.9-20.8,18.9h-41.5c-11.8,0-20.8-8.2-20.8-18.9v-44.2c0-10.7,9-18.9,20.8-18.9h27.7c11.8,0,20.8,5.3,20.8,16v6.6c0,3.8,2.8,6.3,6.9,6.3s6.9,2.5,6.9,6.3v27.8ZM148.2,121.9h-18c-4.1,0-6.9,2.5-6.9,6.3s2.8,6.3,6.9,6.3h18c4.1,0,6.9-2.5,6.9-6.3s-2.8-6.3-6.9-6.3ZM164.8,159.8c0,3.8-2.8,6.3-6.9,6.3h-27.7c-4.1,0-6.9-2.5-6.9-6.3s2.8-6.3,6.9-6.3h27.7c4.1,0,6.9,2.5,6.9,6.3Z"/>
</svg>