<?xml version="1.0" encoding="utf-8"?>
<!-- Generator: Adobe Illustrator 24.0.3, SVG Export Plug-In . SVG Version: 6.00 Build 0)  -->
<svg version="1.1" id="ART" xmlns="http://www.w3.org/2000/svg" xmlns:xlink="http://www.w3.org/1999/xlink" x="0px" y="0px"
	 viewBox="0 0 288 288" style="enable-background:new 0 0 288 288;" xml:space="preserve">
<style type="text/css">
	.st0{fill:#FCFBFA;}
</style>
<path class="st0" d="M197.9,158.9c29.3-27.7,30.5-73.9,2.8-103.2s-73.9-30.5-103.2-2.8s-30.5,73.9-2.8,103.2
	c0.8,0.8,1.5,1.6,2.3,2.4l-33.2,80l36.2-6.2l21.2,30.1l34.8-83.8c3.9-0.4,7.7-1.2,11.4-2.2l21,51.1l-13,18.5L155,197l-4.3,10.4
	l23,54.9l21.1-30.1l36.2,6.3L197.9,158.9z M82.7,106c0-35.9,29.1-65,65-65s65,29.1,65,65s-29.1,65-65,65l0,0
	C111.8,171,82.7,141.9,82.7,106z M103.4,164c5.2,4,10.9,7.3,17,9.7l-21,50.5l-22.7,3.9L103.4,164z M119.4,245.8l-12.7-18.1
	l21.4-51.4c6.2,1.7,12.6,2.6,19.1,2.7L119.4,245.8z M191.5,164.4l26.5,63.7l-22.2-3.8L175,173.7
	C180.9,171.3,186.4,168.2,191.5,164.4L191.5,164.4z M147.7,165c32.6,0,59-26.4,59-59s-26.4-59-59-59s-59,26.4-59,59
	C88.7,138.6,115.1,165,147.7,165z M147.7,55c28.2,0,51,22.8,51,51s-22.8,51-51,51s-51-22.8-51-51C96.7,77.8,119.5,55,147.7,55z
	 M176.7,125l3.5-38.8L164,92.4l-16.3-21.3l-16.2,21.3l-16.5-6.3l4.7,38.9H176.7z M134.2,102l13.5-17.7l13.6,17.7l9.8-3.8l-1.7,18.7
	h-42.7l-2.3-18.7L134.2,102z M119.1,131h58v8h-58V131z"/>
</svg>
