<?xml version="1.0" encoding="utf-8"?>
<!-- Generator: Adobe Illustrator 24.0.3, SVG Export Plug-In . SVG Version: 6.00 Build 0)  -->
<svg version="1.1" id="ART" xmlns="http://www.w3.org/2000/svg" xmlns:xlink="http://www.w3.org/1999/xlink" x="0px" y="0px"
	 viewBox="0 0 288 288" style="enable-background:new 0 0 288 288;" xml:space="preserve">
<style type="text/css">
	.st0{fill:#312D2A;}
</style>
<path class="st0" d="M144.7,87l9.8,139.1c0.4,6.2,5.7,11,11.9,10.9h55.2c6.2,0.1,11.5-4.7,11.9-10.9l9.8-139L144.7,87z M234.7,95
	l-1.6,22h-78.3l-1.6-22H234.7z M225.5,225.5c-0.2,2-1.9,3.6-3.9,3.5h-55.2c-2,0.1-3.8-1.5-3.9-3.5L155.4,125h77.2L225.5,225.5z
	 M175.3,223.1H193c11.4-7.1,21.2-16.6,28.6-27.9l1.4-19.9C214.4,197.2,197.1,214.4,175.3,223.1z M144,229.1c-8.5,0-16.9-1.3-25-3.8
	v8.3c8.1,2.3,16.5,3.4,25,3.4c2.9,0,5.8-0.1,8.7-0.4c-1.9-2.2-3.2-4.9-3.8-7.7C147.3,229.1,145.6,229.1,144,229.1z M59,144.1
	c0-47,38.2-85,85.2-85c21,0,41.2,7.8,56.8,21.8h11.3c-34.9-37.7-93.7-40-131.4-5.1s-40,93.7-5.1,131.4c6.7,7.2,14.5,13.4,23.2,18.2
	v-9.3C74.1,200.7,59,173.5,59,144.1z M72.5,144.1c0.1-39.6,32.3-71.6,71.8-71.5c11.6,0,23,2.9,33.3,8.3h14.7
	C157.4,54.4,107.6,61.1,81,96s-19.9,84.8,15,111.4c1,0.8,2,1.5,3,2.2v-10C82.3,186.1,72.5,165.7,72.5,144.1z M119,219.6
	c8.1,2.7,16.5,4.1,25,4.1c1.4,0,2.9-0.1,4.3-0.1l-0.6-8c-1.2,0.1-2.5,0.1-3.7,0.1c-8.5,0-17-1.5-25-4.5V219.6z M214.2,131.1
	c6.5,34.7-13.4,68.9-46.7,80.5l0.6,8.2c37.7-11.9,60.8-49.7,54.3-88.7H214.2z M127,157.1v-40h-8V149h-6v-31.8h-8V149h-6v-31.8h-8v40
	c0,8.4,5.8,15.7,14,17.5V237h8v-62.3C121.2,172.8,127,165.5,127,157.1z M99,157.1V157h20v0.1c0,5.5-4.5,10-10,10S99,162.7,99,157.1z
	"/>
</svg>
