<?xml version="1.0" encoding="utf-8"?>
<!-- Generator: Adobe Illustrator 27.1.0, SVG Export Plug-In . SVG Version: 6.00 Build 0)  -->
<svg version="1.1" id="Layer_1" xmlns="http://www.w3.org/2000/svg" xmlns:xlink="http://www.w3.org/1999/xlink" x="0px" y="0px"
	 viewBox="0 0 288 288" style="enable-background:new 0 0 288 288;" xml:space="preserve">
<style type="text/css">
	.st0{display:none;}
	.st1{display:inline;}
	.st2{fill:#4EA8E6;}
	.st3{fill:none;stroke:#4EA8E6;stroke-width:0.25;stroke-miterlimit:10;}
	.st4{fill:#312D2A;}
</style>
<g id="GUIDES" class="st0">
	<g class="st1">
		<g>
			<path class="st2" d="M144,96.3c26.3,0,47.8,21.4,47.8,47.7s-21.4,47.7-47.8,47.7S96.2,170.3,96.2,144S117.7,96.3,144,96.3
				 M144,96.1c-26.5,0-48,21.5-48,47.9c0,26.5,21.5,47.9,48,47.9s48-21.5,48-47.9C192,117.5,170.5,96.1,144,96.1L144,96.1z"/>
		</g>
		<line class="st3" x1="96" y1="0" x2="96" y2="288"/>
		<line class="st3" x1="192" y1="0" x2="192" y2="288"/>
		<line class="st3" x1="0" y1="192" x2="288" y2="192"/>
		<line class="st3" x1="0" y1="96" x2="288" y2="96"/>
		<g>
			<path class="st2" d="M144,12.4c35.2,0,68.3,13.7,93.2,38.6s38.6,58,38.6,93.2s-13.7,68.3-38.6,93.2S179.2,276,144,276
				s-68.3-13.7-93.2-38.6s-38.6-58-38.6-93.2S26,75.9,50.8,51C75.7,26.1,108.8,12.4,144,12.4 M144,12.1c-72.9,0-132,59.1-132,132
				s59.1,132,132,132s132-59.1,132-132S216.9,12.1,144,12.1L144,12.1z"/>
		</g>
		<g>
			<path class="st2" d="M240,12.2c6.5,0,11.8,5.3,11.8,11.8v240c0,6.5-5.3,11.8-11.8,11.8H48c-6.5,0-11.8-5.3-11.8-11.8V24
				c0-6.5,5.3-11.8,11.8-11.8H240 M240,12H48c-6.6,0-12,5.4-12,12v240c0,6.6,5.4,12,12,12h192c6.6,0,12-5.4,12-12V24
				C252,17.4,246.6,12,240,12L240,12z"/>
		</g>
		<g>
			<path class="st2" d="M264,36.2c6.5,0,11.8,5.3,11.8,11.8v192c0,6.5-5.3,11.8-11.8,11.8H24c-6.5,0-11.8-5.3-11.8-11.8V48
				c0-6.5,5.3-11.8,11.8-11.8H264 M264,36H24c-6.6,0-12,5.4-12,12v192c0,6.6,5.4,12,12,12h240c6.6,0,12-5.4,12-12V48
				C276,41.4,270.6,36,264,36L264,36z"/>
		</g>
		<g>
			<path class="st2" d="M247.8,24.2c8.8,0,16,7.2,16,16v207.6c0,8.8-7.2,16-16,16H40.2c-8.8,0-16-7.2-16-16V40.2c0-8.8,7.2-16,16-16
				H247.8 M247.8,24H40.2C31.3,24,24,31.3,24,40.2v207.6c0,8.9,7.3,16.2,16.2,16.2h207.6c8.9,0,16.2-7.3,16.2-16.2V40.2
				C264,31.3,256.7,24,247.8,24L247.8,24z"/>
		</g>
	</g>
</g>
<g id="ART">
	<g>
		<g>
			<path class="st4" d="M188,55.1h-58.3v8H188c1.7,0,3,1.3,3,3V205h-4.1v-28c0-12.2-9.7-21.7-22.1-21.7h-6v-5.8
				c3.5-3.1,5.9-7.4,6.8-12.3c6.6-1.7,11.2-7.4,11.2-14.4c0-2.7,0-7.7-5.2-11.8c0.4-6.3-5.1-10.2-6.8-11.5
				c-3.5-2.5-7.6-3.3-11.4-2.1c-0.2,0.1-0.4-0.1-0.6-0.2c-2.8-2.5-6.4-3.8-10.2-3.8c-5.9,0-10.4,2.5-13.5,7.8
				c-4.6-0.4-9.4,1.3-12.6,4.5c-3.1,3.1-4.3,7.4-3.2,11.6c0.4,1.6,0.4,1.6-0.3,3l-0.2,0.3c-2.4,4.8-2,9.8,1.1,14.2
				c2.8,3.9,7.5,6.8,11.8,7.5c1.3,2.8,3.1,5.3,5.3,7.3v5.8h-6c-12.4,0-22.1,9.5-22.1,21.7v28H97V86.8h-8V222c0,6.1,4.9,11,11,11h88
				c6.1,0,11-4.9,11-11V66.1C199,60,194,55.1,188,55.1z M128.4,117.3c-2.6,0.2-4.5,2.3-4.5,4.9v10.7v0.1c-1.2-0.7-2.4-1.7-3.3-3
				c-1.4-1.9-1.5-3.8-0.4-5.9l0.2-0.3c1.4-2.7,1.9-4.5,0.9-8.5c-0.4-1.6,0-2.9,1.1-4c1.7-1.7,4.8-2.6,7.2-2c2.4,0.6,4.9-0.6,6-3
				c1.8-3.6,3.7-4.9,7.2-4.9c1.8,0,3.5,0.7,4.9,1.8c2.3,2,5.4,2.7,8.3,1.8c1.3-0.4,2.8-0.1,4.3,1c1,0.7,3.6,2.6,3.5,4.5
				c-0.2,2.6,1,5.1,3.1,6.8c2,1.6,2.1,3.2,2.1,5.6c0,2.3-1,4.3-2.8,5.5V124c0-1.4-0.6-2.8-1.7-3.7l-10.4-9.2l-0.4-0.3
				c-1.9-1.3-4.5-1.1-6.2,0.5C143.7,114.5,137.4,116.5,128.4,117.3z M144.9,146.9c-7.2,0-13.1-6.3-13.1-14V125c8-1,14.3-3,18.8-6.2
				l7.4,6.6v7.5C158,140.6,152.1,146.9,144.9,146.9z M150.8,154v3.8l-5.9,6.3l-5.9-6.3V154c1.9,0.6,3.8,0.9,5.9,0.9
				C146.9,154.9,148.9,154.6,150.8,154z M110.9,177c0-7.5,5.9-13.5,13.6-13.7v14.8l0,0c-1.7,1.2-2.7,3.2-2.7,5.4
				c0,3.7,3,6.7,6.7,6.7s6.7-3,6.7-6.7c0-2.2-1.1-4.2-2.7-5.4l0,0v-14.8h0.7l11.7,12.7l11.7-12.7h0.1v14.3c-1.4,0.8-3,1.8-4.4,3.2
				c-2.8,3-3.3,5.9-3.3,7.8c0,1.8,0.4,3.4,1.1,4.9c0.7,1.4,2.1,2.2,3.6,2.2c0.6,0,1.2-0.1,1.8-0.4c2-1,2.8-3.4,1.8-5.4
				c-0.1-0.2-0.2-0.6-0.2-1.2c0-0.7,0.4-1.5,1.2-2.4c0.6-0.6,1.6-1.2,2.5-1.7c0.9,0.5,1.9,1.1,2.5,1.7c0.8,0.8,1.2,1.6,1.2,2.4
				c0,0.7-0.1,1-0.2,1.2c-1,2-0.2,4.4,1.8,5.4c0.6,0.3,1.2,0.4,1.8,0.4c1.5,0,2.9-0.8,3.6-2.2c0.7-1.4,1.1-3.1,1.1-4.9
				c0-1.9-0.6-4.9-3.3-7.8c-1.3-1.4-3-2.4-4.4-3.2v-14.3h0.2c7.9,0,14.1,6,14.1,13.7v28h-68v-28H110.9z M191,221.9c0,1.7-1.3,3-3,3
				h-88c-1.7,0-3-1.3-3-3V213h94V221.9z M149,71c0-2.8-2.2-5-5-5s-5,2.2-5,5s2.2,5,5,5S149,73.8,149,71z M79.3,62.7h30v-8h-30V62.7z
				 M113.8,90.8h10V40.5H65.3v40.3h40.4L113.8,90.8z M73.3,48.5h42.4v32l-6.2-7.7H73.3V48.5z"/>
		</g>
	</g>
</g>
</svg>
