<svg id="ART" xmlns="http://www.w3.org/2000/svg" viewBox="0 0 288 288"><defs><style>.cls-1{fill:#fdfcfb;}</style></defs><title>RMIL_Personas</title><path class="cls-1" d="M188,232V181a9,9,0,0,0-9-9H109a9,9,0,0,0-9,9v51H86v4l8,4H194l8-4v-4Zm-80,0V181a1,1,0,0,1,1-1h70a1,1,0,0,1,1,1v51Zm70.79-101.08h-3.1l1.74-1.32.11-.09A28.64,28.64,0,0,0,186.12,97L173.74,63.62l-.07-.19C169,52.41,157,45,144,45c-13.5,0-25.77,7.65-29.84,18.62L101.8,97a28.66,28.66,0,0,0,8.55,32.53l1.86,1.41h-3A38.22,38.22,0,0,0,71,169.1V192h8V169.1a30.21,30.21,0,0,1,30.16-30.18l13.64.07L140,152.06V166h8V152l17.09-13,13.73-.07A30.22,30.22,0,0,1,209,169.1V192h8V169.1A38.23,38.23,0,0,0,178.79,130.92ZM129,133.65V121.44A33.45,33.45,0,0,0,144,125a32.23,32.23,0,0,0,15-3.73v12.29L144,145ZM144,150h-.1l0-.07Zm0-33A25,25,0,0,1,118.9,93.23a62.69,62.69,0,0,1,50.18,0A25.44,25.44,0,0,1,144,117Zm28.48,6.28-5.52,4.2v-12a33.44,33.44,0,0,0,9.52-17.41,10,10,0,0,1,3,4.82h0A20.65,20.65,0,0,1,172.52,123.29ZM121.66,66.4C124.54,58.63,133.94,53,144,53c9.84,0,18.78,5.42,22.27,13.49l7.45,20.1C164.73,82.11,153.08,80,144,80s-20.82,2.12-29.83,6.63Zm-13.29,36.46.06,0a9.93,9.93,0,0,1,3-4.8,32.44,32.44,0,0,0,9.6,17.71v11.78l-5.63-4.28A20.65,20.65,0,0,1,108.37,102.86ZM140,218h8v7.91h-8Zm-2-32h12l-2,26h-8Z"/></svg>