<svg id="ART" xmlns="http://www.w3.org/2000/svg" viewBox="0 0 288 288"><defs><style>.cls-1{fill:#312d2a;}</style></defs><path class="cls-1" d="M63,103H99v8H63Zm0,22H99v-8H63Zm0,14H99v-8H63Zm0,14H99v-8H63Zm0,14H99v-8H63Zm0,14H99v-8H63Zm0,14H99v-8H63Zm0,14H99v-8H63ZM63,97H99V89H63Zm0-14H99V75H63Zm50,144,8,4v4H41v-4l8-4V61H60.78l5-8H96.22l5,8H113Zm-8,0V69H96.78l-5-8H70.22l-5,8H57V227H77V215h8v12ZM189,83h8V75h-8Zm14,0h8V75h-8Zm14,0h8V75h-8ZM189,97h8V89h-8Zm14,0h8V89h-8Zm-14,14h8v-8h-8Zm14,0h8v-8h-8Zm-14,14h8v-8h-8Zm14,0h8v-8h-8Zm-14,14h8v-8h-8Zm14,0h8v-8h-8Zm-14,14h8v-8h-8Zm14,0h8v-8h-8Zm-14,14h8v-8h-8Zm14,0h8v-8h-8Zm-14,14h8v-8h-8Zm14,0h8v-8h-8Zm-14,14h8v-8h-8Zm14,0h8v-8h-8Zm-14,14h8v-8h-8Zm14,0h8v-8h-8ZM217,97h8V89h-8Zm0,14h8v-8h-8Zm0,14h8v-8h-8Zm0,14h8v-8h-8Zm0,14h8v-8h-8Zm0,14h8v-8h-8Zm0,14h8v-8h-8Zm0,14h8v-8h-8Zm0,14h8v-8h-8Zm30,22v4H167v-4l8-4V61h17.94L207,52.3,221.06,61H239V227Zm-16-4V69H218.79L207,61.7,195.21,69H183V227h20V215h8v12Zm-62-50v-8H134.16l15.17-15.17-5.66-5.66-24.75,24.75,24.75,24.75,5.66-5.66-15-15Zm-29.75-46.83,5.66,5.66,24.75-24.75L144.91,86.33,139.25,92l15,15H120v8h34.42Z"/></svg>