<?xml version="1.0" encoding="utf-8"?>
<!-- Generator: Adobe Illustrator 24.0.3, SVG Export Plug-In . SVG Version: 6.00 Build 0)  -->
<svg version="1.1" id="ART" xmlns="http://www.w3.org/2000/svg" xmlns:xlink="http://www.w3.org/1999/xlink" x="0px" y="0px"
	 viewBox="0 0 288 288" style="enable-background:new 0 0 288 288;" xml:space="preserve">
<style type="text/css">
	.st0{fill:#FCFBFA;}
</style>
<path class="st0" d="M231,86H124.8L114,71.5c-1.7-2.3-4.4-3.6-7.2-3.6H57c-5,0-9,4-9,9v143.2h192V95C240,90,236,86,231,86z M57,75.9
	h49.8c0.3,0,0.6,0.2,0.8,0.4L117.8,90l-10.2,13.6c-0.2,0.2-0.5,0.4-0.8,0.4H56V76.9C56,76.3,56.4,75.9,57,75.9z M232,212.1H56v-17.4
	l33.3-33.1l12.8,12.1l29.9-30.8V156h8v-27h-27v8h13.5l-24.7,25.4l-12.7-12l-33.2,33V112h50.8c2.8,0,5.5-1.3,7.2-3.6L124.9,94H231
	c0.6,0,1,0.4,1,1V212.1z M65,86h37v8H65V86z M218,198h-6v-3.6c0.1-11.2-8.8-20.3-20-20.4h-9v-5.3c3.8-3.8,6-9,6-14.4V125h-26
	c-9.2,0-15,6.1-15,16v14c0,5.3,2.2,10.3,6,14v5h-8.2c-11.3,0-20.8,9.4-20.8,20.5v3.5H70l-8,4v4h164v-4L218,198z M162,173.7
	c2.1,0.7,4.4,1.1,6.6,1.1c2.2,0,4.3-0.4,6.4-1.1v2.8l-6.4,7.1l-6.6-7.2V173.7z M163,133h17.6c-0.6,2.5-3,4.2-5.6,4h-18.4
	C158,133,161.5,133,163,133z M175,145c2.1,0,4.1-0.4,6-1.2v10.4c0,6.8-5.5,12.4-12.4,12.6c-7,0-12.6-5.3-12.6-11.8v-10H175z
	 M133,198v-3.6c0-6.7,6-12.5,12.8-12.5h10.4l12.5,13.5l12.2-13.4H192c6.7,0.1,12.1,5.7,12,12.4v3.6H133z"/>
</svg>
