<?xml version="1.0" encoding="utf-8"?>
<!-- Generator: Adobe Illustrator 24.0.3, SVG Export Plug-In . SVG Version: 6.00 Build 0)  -->
<svg version="1.1" id="ART" xmlns="http://www.w3.org/2000/svg" xmlns:xlink="http://www.w3.org/1999/xlink" x="0px" y="0px"
	 viewBox="0 0 288 288" style="enable-background:new 0 0 288 288;" xml:space="preserve">
<style type="text/css">
	.st0{fill:#FCFBFA;}
</style>
<path class="st0" d="M211,59.1c-19.3,0-35,15.7-35,35s15.7,35,35,35s35-15.7,35-35c0,0,0,0,0,0C246,74.7,230.3,59.1,211,59.1z
	 M211,121.1c-14.9,0-27-12.1-27-27s12.1-27,27-27s27,12.1,27,27S225.9,121.1,211,121.1z M200.1,87h9v22h8V79h-17V87z M205.6,134.7
	l-0.7,5.3h-23.2l0.9-15h1.5c-3.5-3.1-6.5-6.7-8.8-10.8l-0.2,2.8h-25.1v-14H171c-0.6-2.6-0.9-5.3-1-8H82.1l-1-12.6
	c-0.4-4.8-4.5-8.4-9.3-8.4H51.1v4l7.6,3.8V82h13.1c0.7,0,1.2,0.5,1.3,1.1l8.1,101.4c0.5,4.8,4.5,8.4,9.3,8.4h3.3
	c-1.1,2.1-1.6,4.3-1.6,6.6c-0.2,8.1,6.2,14.8,14.3,15c8.1,0.2,14.8-6.2,15-14.3c0-0.3,0-0.5,0-0.8c0-2.3-0.6-4.6-1.6-6.6h48.5
	c-3.7,7.2-0.8,16,6.4,19.7s16,0.8,19.7-6.4c2.1-4.2,2.1-9.2,0-13.4h5.1v-0.2l7.6-3.8v-4H90.5c-0.7,0-1.2-0.5-1.3-1.1l-1-12.9h111.8
	c5.2,0,9.7-3.9,10.3-9.1l3.4-26.9c-0.9,0.1-1.7,0.1-2.6,0.1C209.2,135.1,207.4,134.9,205.6,134.7z M113.4,199.7c0,3.7-3,6.7-6.6,6.7
	c-3.7,0-6.7-3-6.7-6.6c0-3.7,3-6.7,6.6-6.7c0,0,0,0,0,0C110.4,193.1,113.4,196,113.4,199.7L113.4,199.7z M188,199.7
	c0,3.7-3,6.7-6.6,6.7s-6.7-3-6.7-6.6c0-3.7,3-6.7,6.6-6.7h0C185,193,188,196,188,199.7L188,199.7z M174.6,125l-0.9,15h-23.6v-15
	H174.6z M118.2,140l-0.6-15h24.5v15H118.2z M142.1,148v15h-23l-0.6-15H142.1z M84.5,125h25.1l0.6,15H85.7L84.5,125z M142.1,117
	h-24.8l-0.5-14h25.3V117z M108.7,103l0.6,14H83.8l-1.1-14H108.7z M86.3,148h24.2l0.6,15H87.5L86.3,148z M150.1,163v-15h23.1l-0.9,15
	H150.1z M199.9,163h-19.6l0.9-15h22.7l-1.6,12.9C202.1,162.1,201.1,163,199.9,163z"/>
</svg>
