<?xml version="1.0" encoding="UTF-8"?>
<svg id="Icon" xmlns="http://www.w3.org/2000/svg" version="1.1" viewBox="0 0 288 288">
  <!-- Generator: Adobe Illustrator 29.7.1, SVG Export Plug-In . SVG Version: 2.1.1 Build 8)  -->
  <defs>
    <style>
      .st0 {
        fill: #fcfbfa;
      }
    </style>
  </defs>
  <g>
    <path class="st0" d="M170.59,47.62c-.38-.11-.76-.21-1.15-.31l.52-1.37.63,1.68Z"/>
    <path class="st0" d="M174.28,40.35c11.67,3.41,22.71,8.79,32.66,15.95l-2.92,7.78c-8.01-6.03-16.83-10.78-26.16-14.15l-3.58-9.58Z"/>
    <path class="st0" d="M239.37,93.47l-7.32,2.53-.16.43c7.89,14.55,12.03,30.82,12.03,47.58,0,.58-.01,1.16-.02,1.74-7.19-.89-13.76-4.51-18.4-10.25l-3.11-3.86-3.11,3.86c-4.36,5.4-10.41,8.93-17.1,10.06v8.09c7.62-1,14.67-4.4,20.21-9.73,5.75,5.53,13.12,8.97,21.05,9.83-.95,9.9-3.35,19.51-7.17,28.66-3.17-1.75-6-4.11-8.3-6.96l-3.11-3.86-3.11,3.86c-4.88,6.04-11.91,9.74-19.53,10.36v6.2c0,.59-.04,1.21-.13,1.84,8.58-.52,16.6-4.05,22.77-9.98,2.4,2.3,5.11,4.26,8.04,5.81-7.06,13.74-17.3,25.76-29.82,34.95-2.66.82-5.42,1.23-8.22,1.23-8.51,0-16.48-3.81-21.85-10.46l-3.06-3.8s-.07.02-.11.01l-3.05,3.79c-5.37,6.65-13.34,10.46-21.85,10.46s-16.49-3.81-21.85-10.46l-3.11-3.86-3.11,3.86c-5.37,6.65-13.34,10.46-21.85,10.46-4.36,0-8.69-1.02-12.55-2.96-10.36-8.08-19.12-18.24-25.58-29.63,6.84-1.29,13.16-4.55,18.2-9.4,6.69,6.43,15.56,10.04,24.96,10.04,4.63,0,9.11-.86,13.27-2.5v-8.83c-4.03,2.18-8.55,3.33-13.27,3.33-8.51,0-16.48-3.81-21.85-10.46l-3.11-3.86-3.11,3.86c-4.74,5.87-11.54,9.55-18.95,10.31-4.66-10.11-7.55-20.82-8.62-31.94,1.09.09,2.17.14,3.26.14,9.4,0,18.28-3.61,24.96-10.05,3.73,3.58,8.17,6.3,13,7.99v-8.63c-3.79-1.78-7.19-4.43-9.89-7.77l-3.11-3.86-3.11,3.86c-5.37,6.65-13.34,10.46-21.85,10.46-1.24,0-2.49-.08-3.73-.25-.02-.56-.02-1.13-.02-1.7,0-55.14,44.86-100,100-100,6.64,0,13.21.66,19.63,1.94l2.85-7.58c-7.33-1.56-14.86-2.36-22.48-2.36-59.55,0-108,48.45-108,108,0,1.81.05,3.58.13,5.23.71,14.88,4.39,29.16,10.94,42.44,7.22,14.66,17.89,27.73,30.87,37.77,19.05,14.76,41.89,22.56,66.06,22.56s44.84-7.1,63.34-20.52c14.93-10.83,26.92-25.37,34.66-42.04,5.75-12.38,9.05-25.59,9.81-39.25.13-2.04.19-4.12.19-6.19,0-17.77-4.31-35.04-12.55-50.54ZM143.92,244.01c-15.71,0-30.82-3.56-44.53-10.41,7.75-.94,14.95-4.36,20.59-9.78,6.68,6.43,15.55,10.04,24.96,10.04s18.27-3.61,24.96-10.04c5.25,5.04,11.83,8.35,18.96,9.54-13.85,7.01-29.12,10.65-44.94,10.65Z"/>
  </g>
  <path class="st0" d="M169.95,211.6s-.07.02-.11.01l.06-.07.05.06Z"/>
  <path class="st0" d="M105.43,142.64l.21.28v-.22c-.07-.02-.14-.04-.21-.06Z"/>
  <path class="st0" d="M119.6,141.08c-.16.38-.25.79-.27,1.21-.01-.1-.01-.2-.01-.3,0-.32.02-.63.06-.93.07,0,.15.01.22.02Z"/>
  <path class="st0" d="M168.51,106.23c.01-.1.01-.2.01-.3,0-11.14-24.17-14.11-38.44-14.11s-38.45,2.97-38.45,14.11c0,.1,0,.2.01.3v.02c-.01.07-.01.14-.01.21v49.49c0,7.97,12.03,11.45,21.69,12.95v-8.07c-8.9-1.54-13.02-4-13.69-5.07v-15.17c1.67.76,3.62,1.45,5.79,2.05h.01c.07.02.14.04.21.06,2.35.65,4.94,1.19,7.73,1.63v-1.25c-.03-.36-.05-.73-.05-1.09,0-.58.03-1.15.1-1.7.16-1.39.53-2.69,1.07-3.88-3.34-.53-6.35-1.23-8.84-2.05h0c-1.12-.38-2.14-.77-3.02-1.19-1.96-.91-2.78-1.69-3-2.01v-16.04c1.28.57,2.68,1.09,4.15,1.55h0c.61.19,1.23.37,1.87.54,7.8,2.1,17.33,2.84,24.42,2.84s16.61-.74,24.41-2.84c2.18-.59,4.22-1.28,6.03-2.09v6.78c1.17.03,2.5.07,3.93.15.01,0,.03,0,.05.01,0,0,.01-.01.02,0,1.26.06,2.6.15,4,.27v-15.87c0-.07,0-.14-.01-.21v-.02ZM153.83,109.09c-5.07,1.57-12.98,2.96-23.75,2.96s-18.69-1.39-23.76-2.96c-3.62-1.11-5.79-2.32-6.53-3.16,1.77-2.03,11.82-6.11,30.29-6.11s28.51,4.08,30.28,6.11c-.73.84-2.91,2.05-6.53,3.16Z"/>
  <path class="st0" d="M105.64,142.7v.22l-.21-.28c.07.02.14.04.21.06Z"/>
  <path class="st0" d="M119.6,141.08c-.16.38-.25.79-.27,1.21-.01-.1-.01-.2-.01-.3,0-.32.02-.63.06-.93.07,0,.15.01.22.02Z"/>
  <path class="st0" d="M119.38,141.06c-.04.3-.06.61-.06.93,0,.1,0,.2.01.3.02-.42.11-.83.27-1.21-.07,0-.15-.02-.22-.02ZM169.9,211.54l-.06.07s.08,0,.11-.01l-.05-.06Z"/>
  <path class="st0" d="M196.21,142.29c0-.1,0-.2,0-.3,0-7.33-10.48-11.13-21.71-12.87-1.99-.31-4-.55-5.99-.74-1.35-.12-2.69-.23-4-.3-.03,0-.06,0-.08,0-1.35-.08-2.66-.13-3.92-.16-.95-.03-1.87-.04-2.75-.04-1.04,0-2.13.02-3.26.05-11.88.35-28.11,2.67-33.42,9.27-.18.21-.34.43-.49.66-.65.98-1.08,2.05-1.22,3.21.07,0,.15.01.22.02-.16.38-.25.79-.27,1.21v.02c-.01.07-.01.14-.01.21v49.49c0,11.21,24.17,14.2,38.45,14.2,13.53,0,35.95-2.69,38.25-12.51.13-.54.2-1.1.2-1.69v-49.49c0-.07,0-.14,0-.21v-.02ZM157.77,135.87c.72,0,1.41.01,2.1.02h.01c17.13.29,26.47,4.15,28.18,6.1-.15.16-.35.34-.6.53-1.04.78-3.01,1.73-5.92,2.63-5.07,1.56-12.98,2.95-23.77,2.95-4.49,0-8.48-.24-11.97-.64-4.91-.55-8.84-1.4-11.8-2.31-2.91-.9-4.88-1.85-5.92-2.63-.25-.19-.45-.37-.6-.53,1.78-2.03,11.82-6.12,30.29-6.12ZM188.22,191.82c-1.19,1.96-11.26,6.39-30.45,6.39s-29.27-4.43-30.45-6.39v-15.16c1.81.82,3.84,1.51,6.01,2.1,7.8,2.12,17.34,2.86,24.44,2.86s16.64-.74,24.44-2.86c2.17-.59,4.2-1.28,6.01-2.1v15.16ZM188.22,167.23c-.49.81-2.49,2.04-6.02,3.2-5.02,1.66-13.15,3.19-24.43,3.19s-19.4-1.53-24.43-3.19c-3.53-1.16-5.53-2.39-6.02-3.2v-16.05c1.81.81,3.85,1.5,6.03,2.08,1.36.37,2.77.7,4.21.98,6.84,1.36,14.35,1.86,20.21,1.86,7.09,0,16.61-.73,24.41-2.84,2.18-.58,4.22-1.27,6.04-2.08v16.05Z"/>
  <path class="st0" d="M119.38,141.06c-.04.3-.06.61-.06.93,0,.1,0,.2.01.3.02-.42.11-.83.27-1.21-.07,0-.15-.02-.22-.02Z"/>
  <path class="st0" d="M226.7,73.32l-9.31-24.91-4.65,12.36-2.99,7.97-1.72,4.58-24.62,8.56,24.57,8.58,9.43,24.73,9.23-24.73,1.43-.49,7.76-2.69,15.6-5.39-24.73-8.57ZM222.01,85.72l-4.66,12.48-4.76-12.48-10.95-3.83,11.02-3.83,4.72-12.56,4.68,12.56,11.03,3.82-11.08,3.84Z"/>
  <g>
    <path class="st0" d="M170.59,47.62c-.38-.11-.76-.21-1.15-.31l.52-1.37.63,1.68Z"/>
    <path class="st0" d="M169.96,45.94l-.52,1.37c.39.1.77.2,1.15.31l-.63-1.68Z"/>
    <g>
      <path class="st0" d="M191.91,67.1l-16.15,5.58-1.91,5.12-2.7,7.22-1.16,3.11-1.55-4.06-1.48-3.88-2.86-7.51-16.03-5.59,16.04-5.58,5.33-14.2c.39.1.77.2,1.15.31l5.19,13.88,16.13,5.6Z"/>
      <path class="st0" d="M170.59,47.62c-.38-.11-.76-.21-1.15-.31l.52-1.37.63,1.68Z"/>
    </g>
  </g>
</svg>