<?xml version="1.0" encoding="utf-8"?>
<!-- Generator: Adobe Illustrator 25.0.1, SVG Export Plug-In . SVG Version: 6.00 Build 0)  -->
<svg version="1.1" xmlns="http://www.w3.org/2000/svg" xmlns:xlink="http://www.w3.org/1999/xlink" x="0px" y="0px"
	 viewBox="0 0 288 288" style="enable-background:new 0 0 288 288;" xml:space="preserve">
<style type="text/css">
	.st0{display:none;opacity:0.75;}
	.st1{display:inline;}
	.st2{fill:#00AEEF;}
	.st3{fill:none;stroke:#00AEEF;stroke-width:0.25;stroke-miterlimit:10;}
	.st4{fill:#FCFBFA;}
	.st5{fill:#2F2925;}
</style>
<g id="Guide" class="st0">
	<g class="st1">
		<g>
			<path class="st2" d="M144,155.3c26.3,0,47.8,21.4,47.8,47.7s-21.4,47.7-47.8,47.7s-47.8-21.4-47.8-47.7S117.7,155.3,144,155.3
				 M144,155c-26.5,0-48,21.5-48,47.9s21.5,47.9,48,47.9s48-21.5,48-47.9S170.5,155,144,155L144,155z"/>
		</g>
		<line class="st3" x1="96" y1="58.9" x2="96" y2="346.9"/>
		<line class="st3" x1="192" y1="58.9" x2="192" y2="346.9"/>
		<line class="st3" x1="0" y1="154.9" x2="288" y2="154.9"/>
		<line class="st3" x1="0" y1="250.9" x2="288" y2="250.9"/>
		<g>
			<path class="st2" d="M144,71.3c35.2,0,68.3,13.7,93.2,38.6c24.9,24.9,38.6,58,38.6,93.2s-13.7,68.3-38.6,93.2
				c-24.9,24.9-58,38.6-93.2,38.6s-68.3-13.7-93.2-38.6c-24.9-24.9-38.6-58-38.6-93.2s13.7-68.3,38.6-93.2
				C75.7,85,108.8,71.3,144,71.3 M144,71.1c-72.9,0-132,59.1-132,132s59.1,132,132,132s132-59.1,132-132S216.9,71.1,144,71.1
				L144,71.1z"/>
		</g>
		<g>
			<path class="st2" d="M247.8,83.2c8.8,0,16,7.2,16,16v207.6c0,8.8-7.2,16-16,16H40.2c-8.8,0-16-7.2-16-16V99.1c0-8.8,7.2-16,16-16
				H247.8 M247.8,82.9H40.2c-8.9,0-16.2,7.3-16.2,16.2v207.6c0,8.9,7.3,16.2,16.2,16.2h207.6c8.9,0,16.2-7.3,16.2-16.2V99.1
				C264,90.2,256.7,82.9,247.8,82.9L247.8,82.9z"/>
		</g>
	</g>
</g>
<g id="ART">
	<g>
		<path class="st4" d="M101.5,121.4c-20.9,20.9-23.8,53.1-8.8,77.2l-38,38l19.8,19.8l38-38c10.1,6.3,21.6,9.5,33.1,9.5
			c12.8,0,25.5-3.9,36.3-11.6h0.1v0c2.7-1.9,5.3-4.1,7.7-6.6c24.3-24.3,24.3-63.9,0-88.3S125.8,97.1,101.5,121.4z M66,236.6
			l31.4-31.4c1.3,1.5,2.6,3,4,4.5c1.4,1.4,2.9,2.8,4.5,4l-31.4,31.4L66,236.6z M117,211.8v-21.2c0-6.8,5.4-12.4,12-12.4l4.3,0
			c3.3,3,7.6,4.7,12.1,4.7c0,0,0,0,0.1,0c4.5,0,8.8-1.7,12.2-4.7l3.4,0c6.9,0,13,5.8,13,12.4v21.4
			C156.5,222.6,134.4,222.5,117,211.8z M139,141.1h19v10c0,6.5-5.7,11.8-12.6,11.8c-6.7,0-12.4-5.8-12.4-12.6V140
			C134.7,140.7,136.7,141.1,139,141.1z M133.5,129.1H151c1.5,0,5,0,6.4,4H139C137.7,133.1,134.6,133.1,133.5,129.1z M139,169.9
			c2,0.7,4.2,1.1,6.4,1.1c2.3,0,4.6-0.4,6.6-1.1v2.6c-1.8,1.6-4.2,2.4-6.6,2.4c-2.4,0-4.6-0.8-6.4-2.3V169.9z M184.1,204
			c-0.7,0.7-1.4,1.3-2.1,2v-15.4c0-11-9.6-20.4-20.9-20.4l-1,0v-5.1c3.7-3.6,6-8.5,6-13.9v-10v-4c0-9.9-5.7-16-15-16h-26v4v25.2
			c0,5.6,2.3,10.7,6,14.4l0,5.4l-2,0c-11,0-20,9.1-20,20.4v15.2c-0.6-0.6-1.2-1.2-1.9-1.8c-21.2-21.2-21.2-55.7,0-76.9
			c10.6-10.6,24.5-15.9,38.5-15.9c13.9,0,27.9,5.3,38.5,15.9C205.3,148.3,205.3,182.8,184.1,204z"/>
		
			<rect x="52.2" y="239.1" transform="matrix(0.7071 -0.7071 0.7071 0.7071 -163.8247 114.3884)" class="st4" width="8" height="31.7"/>
		<path class="st4" d="M117,83.4c0-6.6,6.1-12.4,13-12.4l3.4,0c3.3,3,7.7,4.7,12.2,4.7c0,0,0,0,0.1,0c4.5,0,8.8-1.7,12.1-4.7l4.3,0
			c6.6,0,12,5.6,12,12.4v19.9c2.8,1.3,5.4,2.8,8,4.4V83.4c0-11.2-9-20.4-20-20.4l-2,0v-5.4c3.7-3.7,6-8.9,6-14.4V18v-4h-26
			c-9.3,0-15,6.1-15,16v4v10c0,5.4,2.3,10.4,6,13.9V63l-1,0c-11.4,0-21,9.3-21,20.4v23.8c2.6-1.6,5.2-3,8-4.3V83.4z M152,65.4
			c-1.8,1.5-4,2.3-6.4,2.3c0,0,0,0,0,0c-2.4,0-4.7-0.8-6.6-2.4v-2.6c2.1,0.7,4.3,1.1,6.6,1.1c2.2,0,4.3-0.4,6.4-1.1L152,65.4z
			 M140,22h17.5c-0.6,2.1-2.1,4-5.5,4h-18.4C134.9,22,138.4,22,140,22z M133,34h19c2.2,0,4.2-0.4,6-1.2v10.4
			c0,6.8-5.7,12.6-12.4,12.6c-7,0-12.6-5.3-12.6-11.8V34z"/>
		<path class="st4" d="M257.9,136.3c0-8.2-4.6-15.1-11.4-18.3c1.3-1.4,2.5-3.1,3.6-5l0.8-1.4l-7.7-30.9c-1.3-7.6-7.6-13.5-14.9-13.5
			h-8c-7.2,0-13.5,5.8-14.8,13.3l-8.4,31.1l0.8,1.4c1.2,2.2,2.6,4,4.2,5.5c-1.6,0.8-3,1.8-4.4,3c1.2,1.4,2.3,2.9,3.4,4.4l1.7,1.8
			c2.3-2.2,5.3-3.4,8.5-3.4l2,0c1,5.1,5.6,8.9,11.3,8.9c5.8,0,10.4-3.9,11.3-9.1c0,0,0.1,0,0.1,0l2.1,0c6.7,0,11.9,5.4,11.9,12.2
			l0.1,23.9l8,0L257.9,136.3z M213.3,82.3l0.5-2c1.1-2.9,3.7-5,6.5-5h8c2.9,0,5.5,2.2,6.6,5.2l0,0l0.5,2c0,0,0,0.1,0,0.1
			c-2.1,0.2-5.2-0.2-8.4-3.1l-2.7-2.5l-2.7,2.5c-3.2,2.9-6.2,3.3-8.4,3.1C213.3,82.5,213.3,82.4,213.3,82.3z M213,116.1
			c-3.2-1.1-5.4-2.8-7.3-5.6l1.9-7c1.3,2.6,3.2,4.9,5.4,6.6V116.1z M228,122.3c0,1.9-1.8,3-3.5,3c-1.7,0-3.5-1.1-3.5-3V114
			c1.1,0.2,2.3,0.4,3.5,0.4c1.2,0,2.4-0.1,3.5-0.4V122.3z M235.5,93.8c0,6.8-5,12.6-11,12.6c-6.1,0-11.3-5.8-11.3-12.6v-3.2
			c0.4,0,0.8,0,1.2,0c2.9,0,6.4-0.7,10-3.1c4.1,2.7,8,3.3,11.2,3.1V93.8z M236,115.8v-5.7c1.9-1.6,3.6-3.6,4.8-5.9l1.5,6.2
			C240.6,113,238.7,114.7,236,115.8z"/>
		<path class="st4" d="M53,124.2l2.1,0c0,0,0.1,0,0.1,0c0.9,5.2,5.6,9.1,11.3,9.1c5.7,0,10.3-3.8,11.3-8.9l2,0c3,0,5.9,1.1,8.2,3.2
			c1.5-2.2,3.1-4.3,4.8-6.4c-1.2-1-2.5-1.9-3.9-2.6c1.6-1.5,2.9-3.4,4.2-5.5l0.8-1.4l-8.4-31.1c-1.4-7.4-7.6-13.3-14.8-13.3h-8
			c-7.3,0-13.6,6-14.9,13.5l-7.7,30.9l0.8,1.4c1.1,1.9,2.3,3.5,3.6,5c-6.8,3.2-11.4,10.1-11.4,18.3L33,160.2l8,0l0.1-23.9
			C41.1,129.5,46.3,124.2,53,124.2z M70,122.3c0,2-1.8,3-3.5,3c-1.7,0-3.5-1.1-3.5-3V114c1.1,0.2,2.3,0.4,3.5,0.4
			c1.2,0,2.3-0.1,3.5-0.4V122.3z M78,110.1c2.2-1.8,4.1-4,5.4-6.6l1.9,7c-1.9,2.9-4.1,4.6-7.3,5.6V110.1z M55.6,82.5l0.5-2l0,0
			c1.1-3,3.7-5.2,6.6-5.2h8c2.8,0,5.3,2.1,6.5,5l0.5,2c0,0.1,0,0.2,0,0.3c-2.1,0.2-5.2-0.2-8.4-3.1l-2.7-2.5L64,79.5
			c-3.2,2.9-6.3,3.3-8.4,3.1C55.6,82.6,55.6,82.5,55.6,82.5z M55.5,90.6c3.1,0.2,7.1-0.4,11.2-3.1c3.6,2.4,7,3.1,10,3.1
			c0.4,0,0.8,0,1.2,0v3.2c0,6.8-5.2,12.6-11.3,12.6c-6,0-11-5.8-11-12.6V90.6z M50.2,104.2c1.2,2.3,2.9,4.3,4.8,5.9v5.7
			c-2.7-1.1-4.6-2.7-6.4-5.3L50.2,104.2z"/>
	</g>
</g>
<g id="Layer_1">
</g>
</svg>
