<svg id="icon_art" data-name="icon art" xmlns="http://www.w3.org/2000/svg" viewBox="0 0 288 288"><defs><style>.cls-1{fill:#312d2a;}</style></defs><title>RMIL_Technology</title><path class="cls-1" d="M182,87H163a26.6,26.6,0,0,0-19,7.77A26.6,26.6,0,0,0,125,87H106v8H92v63H196V95H182Zm-42,63H100V103h6v41h19c6.95,0,12.65,3.92,15,5.82Zm0-9.82A30.7,30.7,0,0,0,125,136H114V95h11a18.87,18.87,0,0,1,15,7.25Zm8-37.93A18.83,18.83,0,0,1,163,95h11v41H163a30.7,30.7,0,0,0-15,4.18Zm40,.75v47H148v-.18c2.36-1.9,8.07-5.82,15-5.82h19V103Z"/><rect class="cls-1" x="78" y="184" width="132" height="8"/><rect class="cls-1" x="112" y="198" width="64" height="8"/><path class="cls-1" d="M252,213l-21-40.68V76a9,9,0,0,0-9-9H66a9,9,0,0,0-9,9v97.79L36,213h0v4l8,4H244l8-4v-4ZM65,76a1,1,0,0,1,1-1H222a1,1,0,0,1,1,1v94H65ZM45.08,213l18.79-35H225l18,35Z"/></svg>