<?xml version="1.0" encoding="utf-8"?>
<!-- Generator: Adobe Illustrator 24.0.3, SVG Export Plug-In . SVG Version: 6.00 Build 0)  -->
<svg version="1.1" id="Layer_1" xmlns="http://www.w3.org/2000/svg" xmlns:xlink="http://www.w3.org/1999/xlink" x="0px" y="0px"
	 viewBox="0 0 288 288" style="enable-background:new 0 0 288 288;" xml:space="preserve">
<style type="text/css">
	.st0{display:none;}
	.st1{display:inline;}
	.st2{fill:#00AEEF;}
	.st3{display:inline;fill:none;stroke:#00AEEF;stroke-miterlimit:10;}
	.st4{fill:#FCFBFA;}
</style>
<g id="Guides">
</g>
<g id="Drawing" class="st0">
	<g class="st1">
		<path class="st2" d="M144,97.1c25.9,0,47,21.1,47,46.9s-21.1,46.9-47,46.9S97,169.9,97,144S118.1,97.1,144,97.1 M144,96.1
			c-26.5,0-48,21.5-48,47.9s21.5,47.9,48,47.9s48-21.5,48-47.9S170.5,96.1,144,96.1L144,96.1z"/>
	</g>
	<g class="st1">
		<path class="st2" d="M287,1v286H1V1H287 M288,0H0v288h288V0L288,0z"/>
	</g>
	<line class="st3" x1="96" y1="0" x2="96" y2="288"/>
	<line class="st3" x1="192" y1="0" x2="192" y2="288"/>
	<line class="st3" x1="0" y1="192" x2="288" y2="192"/>
	<line class="st3" x1="0" y1="96" x2="288" y2="96"/>
	<g class="st1">
		<path class="st2" d="M144,13.1c35,0,67.9,13.6,92.6,38.4s38.4,57.6,38.4,92.6s-13.6,67.9-38.4,92.6S179,275.1,144,275.1
			s-67.9-13.6-92.6-38.4S13,179.1,13,144.1s13.6-67.9,38.4-92.6S109,13.1,144,13.1 M144,12.1c-72.9,0-132,59.1-132,132
			s59.1,132,132,132s132-59.1,132-132S216.9,12.1,144,12.1L144,12.1z"/>
	</g>
	<g class="st1">
		<path class="st2" d="M240,13c6.1,0,11,4.9,11,11v240c0,6.1-4.9,11-11,11H48c-6.1,0-11-4.9-11-11V24c0-6.1,4.9-11,11-11H240
			 M240,12H48c-6.6,0-12,5.4-12,12v240c0,6.6,5.4,12,12,12h192c6.6,0,12-5.4,12-12V24C252,17.4,246.6,12,240,12L240,12z"/>
	</g>
	<g class="st1">
		<path class="st2" d="M264,37c6.1,0,11,4.9,11,11v192c0,6.1-4.9,11-11,11H24c-6.1,0-11-4.9-11-11V48c0-6.1,4.9-11,11-11H264
			 M264,36H24c-6.6,0-12,5.4-12,12v192c0,6.6,5.4,12,12,12h240c6.6,0,12-5.4,12-12V48C276,41.4,270.6,36,264,36L264,36z"/>
	</g>
	<g class="st1">
		<path class="st2" d="M247.8,25c8.4,0,15.2,6.8,15.2,15.2v207.6c0,8.4-6.8,15.2-15.2,15.2H40.2c-8.4,0-15.2-6.8-15.2-15.2V40.2
			C25,31.8,31.8,25,40.2,25H247.8 M247.8,24H40.2C31.3,24,24,31.3,24,40.2v207.6c0,8.9,7.3,16.2,16.2,16.2h207.6
			c8.9,0,16.2-7.3,16.2-16.2V40.2C264,31.3,256.7,24,247.8,24L247.8,24z"/>
	</g>
</g>
<g>
	<path class="st4" d="M250,133.7c-3.4-51.1-44.6-92.3-95.7-95.7l-4.3,0v100h100L250,133.7z M158,130V46.4
		c43.8,4.9,78.7,39.9,83.6,83.6H158z"/>
	<path class="st4" d="M144,46h-4C83.8,46,38,91.8,38,148s45.8,102,102,102s102-45.8,102-102v-4h-98V46z M46,148
		c0-50.5,40-91.8,90-93.9v92.3l-65.2,65.2C55.4,194.8,46,172.5,46,148z M233.9,152c-1,22.9-10.2,43.7-24.7,59.5L149.7,152H233.9z
		 M203.6,217.2C186.8,232.6,164.5,242,140,242c-24.5,0-46.8-9.4-63.5-24.8l63.6-63.6L203.6,217.2z"/>
</g>
</svg>
