<?xml version="1.0" encoding="utf-8"?>
<!-- Generator: Adobe Illustrator 28.0.0, SVG Export Plug-In . SVG Version: 6.00 Build 0)  -->
<svg version="1.1" id="ART" xmlns="http://www.w3.org/2000/svg" xmlns:xlink="http://www.w3.org/1999/xlink" x="0px" y="0px"
	 viewBox="0 0 288 288" style="enable-background:new 0 0 288 288;" xml:space="preserve">
<style type="text/css">
	.st0{fill:#FCFBFA;}
</style>
<g>
	<polygon class="st0" points="165.4,53.8 159.7,48.2 147.8,60.2 147.8,24 139.8,24 139.8,60.2 127.8,48.2 122.1,53.8 143.8,75.5 	
		"/>
	<polygon class="st0" points="122.1,234.2 127.8,239.8 139.8,227.8 139.8,264 147.8,264 147.8,227.8 159.7,239.8 165.4,234.2 
		143.8,212.5 	"/>
	<polygon class="st0" points="51.5,129.1 45.9,123.4 24.2,145.1 45.9,166.7 51.5,161.1 39.6,149.1 78.6,149.1 78.6,141.1 
		39.6,141.1 	"/>
	<polygon class="st0" points="242.1,123.4 236.5,129.1 248.4,141.1 209.4,141.1 209.4,149.1 248.4,149.1 236.5,161.1 242.1,166.7 
		263.8,145.1 	"/>
	<path class="st0" d="M162.7,169.6L126,132.9l14.4-14.4l-31.7-31.7l-13,13c-8.2,8.2-9.5,21.1-3,30.8c8.6,13,19.9,26.7,32.8,39.5
		s26.5,24.1,39.5,32.8c4.1,2.7,8.8,4.1,13.5,4.1c6.3,0,12.6-2.4,17.3-7.1l13-13l-31.7-31.7L162.7,169.6z M190.2,194.2
		c-5.5,5.5-14.2,6.4-20.8,2c-12.6-8.3-25.8-19.3-38.3-31.7c-12.4-12.4-23.4-25.7-31.7-38.3c-4.3-6.5-3.5-15.3,2-20.8l7.3-7.3
		l20.3,20.3l-9.2,9.2c-2.9,2.9-2.9,7.6,0,10.5l37.6,37.6c1.4,1.4,3.3,2.2,5.2,2.2c2,0,3.8-0.8,5.2-2.2l9.2-9.2l20.3,20.3
		L190.2,194.2z"/>
</g>
</svg>
