<?xml version="1.0" encoding="utf-8"?>
<!-- Generator: Adobe Illustrator 27.1.0, SVG Export Plug-In . SVG Version: 6.00 Build 0)  -->
<svg version="1.1" id="Layer_1" xmlns="http://www.w3.org/2000/svg" xmlns:xlink="http://www.w3.org/1999/xlink" x="0px" y="0px"
	 viewBox="0 0 288 288" style="enable-background:new 0 0 288 288;" xml:space="preserve">
<style type="text/css">
	.st0{display:none;}
	.st1{display:inline;}
	.st2{fill:#56A5D8;}
	.st3{fill:none;stroke:#56A5D8;stroke-width:0.25;stroke-miterlimit:10;}
	.st4{fill:#FCFBFA;}
</style>
<g id="GUIDES" class="st0">
	<g class="st1">
		<g>
			<path class="st2" d="M144,96.3c26.3,0,47.8,21.4,47.8,47.7s-21.4,47.7-47.8,47.7c-26.3,0-47.8-21.4-47.8-47.7
				S117.7,96.3,144,96.3 M144,96.1c-26.5,0-48,21.5-48,47.9c0,26.5,21.5,47.9,48,47.9s48-21.5,48-47.9
				C192,117.5,170.5,96.1,144,96.1L144,96.1z"/>
		</g>
		<line class="st3" x1="96" y1="0" x2="96" y2="288"/>
		<line class="st3" x1="192" y1="0" x2="192" y2="288"/>
		<line class="st3" x1="0" y1="192" x2="288" y2="192"/>
		<line class="st3" x1="0" y1="96" x2="288" y2="96"/>
		<g>
			<path class="st2" d="M144,12.4c35.2,0,68.3,13.7,93.2,38.6s38.6,58,38.6,93.2s-13.7,68.3-38.6,93.2S179.2,276,144,276
				s-68.3-13.7-93.2-38.6s-38.6-58-38.6-93.2S26,75.9,50.8,51S108.8,12.4,144,12.4 M144,12.1c-72.9,0-132,59.1-132,132
				s59.1,132,132,132s132-59.1,132-132S216.9,12.1,144,12.1L144,12.1z"/>
		</g>
		<g>
			<path class="st2" d="M240,12.2c6.5,0,11.8,5.3,11.8,11.8v240c0,6.5-5.3,11.8-11.8,11.8H48c-6.5,0-11.8-5.3-11.8-11.8V24
				c0-6.5,5.3-11.8,11.8-11.8H240 M240,12H48c-6.6,0-12,5.4-12,12v240c0,6.6,5.4,12,12,12h192c6.6,0,12-5.4,12-12V24
				C252,17.4,246.6,12,240,12L240,12z"/>
		</g>
		<g>
			<path class="st2" d="M264,36.2c6.5,0,11.8,5.3,11.8,11.8v192c0,6.5-5.3,11.8-11.8,11.8H24c-6.5,0-11.8-5.3-11.8-11.8V48
				c0-6.5,5.3-11.8,11.8-11.8H264 M264,36H24c-6.6,0-12,5.4-12,12v192c0,6.6,5.4,12,12,12h240c6.6,0,12-5.4,12-12V48
				C276,41.4,270.6,36,264,36L264,36z"/>
		</g>
		<g>
			<path class="st2" d="M247.8,24.2c8.8,0,16,7.2,16,16v207.6c0,8.8-7.2,16-16,16H40.2c-8.8,0-16-7.2-16-16V40.2c0-8.8,7.2-16,16-16
				H247.8 M247.8,24H40.2C31.3,24,24,31.3,24,40.2v207.6c0,8.9,7.3,16.2,16.2,16.2h207.6c8.9,0,16.2-7.3,16.2-16.2V40.2
				C264,31.3,256.7,24,247.8,24L247.8,24z"/>
		</g>
	</g>
</g>
<g id="ART">
	<g>
		<g>
			<rect x="103.7" y="154.4" class="st4" width="39.7" height="8"/>
			<rect x="103.7" y="167.6" class="st4" width="20" height="8"/>
		</g>
		<g>
			<path class="st4" d="M141.3,225.6c-1.7-1.7-3.2-3.6-4.4-5.6H96.6c-1.3,0-2.7-1.9-2.7-4.5v-10.9h39c0.1-2.7,0.5-5.4,1.4-8H93.9
				v-63.1h72v27.2l8-8v-20.2c0-2,0-5-2.2-7.5c-0.1-0.1-0.1-0.1-0.2-0.2l-21.3-21.5c-0.8-0.9-1.3-2.3-1.3-3.7v-4.9h4.7
				c3.3,0,6-2.7,6-6V66c0-3.3-2.7-6-6-6h-47.4c-3.3,0-6,2.7-6,6v22.7c0,3.3,2.7,6,6,6h4.7v4.9c0,1.5-0.5,2.8-1.3,3.7l-21.3,21.5
				c-0.1,0.1-0.2,0.2-0.3,0.3c-2.1,2.5-2.1,5.3-2.1,7.4v83.1c0,6.9,4.8,12.5,10.7,12.5H144C143,227.3,142.1,226.5,141.3,225.6z
				 M108.2,86.7V68h43.4v18.7H108.2z M115.3,108.9C115.4,108.8,115.4,108.8,115.3,108.9c2.3-2.4,3.5-5.8,3.5-9.3v-3.7H141v3.7
				c0,3.5,1.3,6.9,3.4,9.2l0.1,0.1l16.5,16.6H98.8L115.3,108.9z"/>
			<g>
				<path class="st4" d="M212.5,154.4c-8.8-8.8-23.1-8.8-31.9,0l-35.1,35.1c-8.8,8.8-8.8,23.1,0,31.9c4.4,4.4,10.2,6.6,16,6.6
					s11.6-2.2,16-6.6l35.1-35.1C221.3,177.5,221.3,163.2,212.5,154.4z M171.8,215.7c-5.7,5.7-14.9,5.7-20.6,0
					c-5.7-5.7-5.7-14.9,0-20.6l14.7-14.7l20.6,20.6L171.8,215.7z M206.9,180.7l-14.7,14.7l-20.6-20.6l14.7-14.7
					c2.8-2.8,6.6-4.3,10.3-4.3s7.5,1.4,10.3,4.3C212.5,165.7,212.5,175,206.9,180.7z"/>
			</g>
		</g>
	</g>
</g>
</svg>
