<svg id="ART" xmlns="http://www.w3.org/2000/svg" viewBox="0 0 288 288"><defs><style>.cls-1{fill:#fcfbfa;}</style></defs><path class="cls-1" d="M174.07,143.11a28.45,28.45,0,1,0-28.44-28.44A28.48,28.48,0,0,0,174.07,143.11Zm0-48.89a20.45,20.45,0,1,1-20.44,20.45A20.47,20.47,0,0,1,174.07,94.22Zm0,14v-8a14.46,14.46,0,0,1,14.45,14.45h-8A6.45,6.45,0,0,0,174.07,108.22Zm-63,13.4,6.59-4.54a105.23,105.23,0,0,1,16.07,38.8,58.16,58.16,0,0,1,14.43-18.59,34.6,34.6,0,0,0,6,5.42A49.52,49.52,0,0,0,138.94,164H127C124.79,148.26,119.32,133.6,111.05,121.62ZM100.19,109l5.43-5.88a82.34,82.34,0,0,1,8.76,9.52l-6.29,4.94A73.8,73.8,0,0,0,100.19,109Zm-3.74-3.21a58.86,58.86,0,0,0-5-3.6l4.32-6.74c1.93,1.24,3.85,2.61,5.69,4.07Zm-9-6c-1.49-.79-3-1.51-4.54-2.15L86,90.31c1.75.73,3.5,1.57,5.21,2.47ZM228,198V70H60V198h60.66l-1.78,13H111l-8,4v4h83v-4l-8-4h-7.88l-1.78-13ZM220,78v92H68V78ZM68,178H220v12H68Zm94,33H127l1.77-13h31.54Z"/></svg>