<?xml version="1.0" encoding="utf-8"?>
<!-- Generator: Adobe Illustrator 24.0.3, SVG Export Plug-In . SVG Version: 6.00 Build 0)  -->
<svg version="1.1" id="ART" xmlns="http://www.w3.org/2000/svg" xmlns:xlink="http://www.w3.org/1999/xlink" x="0px" y="0px"
	 viewBox="0 0 288 288" style="enable-background:new 0 0 288 288;" xml:space="preserve">
<style type="text/css">
	.st0{fill:#FCFBFA;}
</style>
<path class="st0" d="M68,78h152v17h8V70H60v25h8V78z M108,101H37v52h71V101z M92.7,109l-19.6,15.9L52.7,109H92.7z M45,145v-31.8
	l28.2,21.9l26.8-21.7V145H45z M220,170h-44.1c-1.4,3.4-3.8,6.2-7,8H220v12H68v-12h52.1c-3.2-1.8-5.6-4.6-7-8H68v-11h-8v39h60.7
	l-1.8,13H111l-8,4v4h83v-4l-8-4h-7.9l-1.8-13H228v-41h-8V170z M162,211h-35l1.8-13h31.5L162,211z M127.8,92c-5.4,0-9.8,4.4-9.8,9.8
	v62.3c0,5.4,4.3,9.9,9.8,9.9h33.5c5.4,0,9.8-4.5,9.8-9.9v-62.3c0-5.4-4.4-9.8-9.8-9.8H127.8z M161.2,166h-33.5
	c-1-0.1-1.8-0.9-1.8-1.9V160h37v4.1C163,165.1,162.2,165.9,161.2,166z M163,101.8V152h-37v-50.2c0-1,0.8-1.8,1.8-1.8h33.5
	C162.2,100,163,100.8,163,101.8L163,101.8z M181,101v63h11l10-13h49v-50H181z M243,143h-45l-9,11.7V109h54V143z M195,115h42v8h-42
	V115z M195,129h42v8h-42V129z"/>
</svg>
