<svg id="ART" xmlns="http://www.w3.org/2000/svg" viewBox="0 0 288 288"><defs><style>.cls-1{fill:#312d2a;}</style></defs><path class="cls-1" d="M46,244h89V151H46Zm44.84-60.79a17.79,17.79,0,0,0,10,3.1c.39,0,.78,0,1.15,0v3.17C102,196.25,96.8,202,90.68,202c-6,0-11-5.75-11-12.56v-3.17A17.62,17.62,0,0,0,90.84,183.21Zm-3.67,26.42a16.74,16.74,0,0,0,7,0V218a3.23,3.23,0,0,1-3.49,3c-1.7,0-3.51-1.05-3.51-3Zm21.75-3.51a13.23,13.23,0,0,1-6.75,5.44V205.8a21,21,0,0,0,5.14-6.15Zm-7-27.85a10.61,10.61,0,0,1-8.36-3.09l-2.7-2.46-2.69,2.46a10.61,10.61,0,0,1-8.4,3.09s0-.08,0-.11l.49-2h0c1.1-3,3.7-5.2,6.57-5.2h8C98.33,171,101.43,174.29,101.9,178.27ZM79.17,205.75v5.66a13.14,13.14,0,0,1-6.36-5.29l1.55-6.22A20.13,20.13,0,0,0,79.17,205.75Zm-2,14.16h2.2A11.6,11.6,0,0,0,102,220l.25-.07H105c6.39,0,11.21,5.33,11.21,12.4V236h-51v-3.69A12.2,12.2,0,0,1,77.15,219.91ZM54,159h73v77h-2.83v-3.69A20.27,20.27,0,0,0,113,213.76a26.18,26.18,0,0,0,3.64-5l.79-1.39-8.24-33.1h0c-2-6.47-7.77-11.28-14.36-11.28h-8c-7.33,0-13.62,5.95-14.89,13.51l-7.68,30.86.8,1.39a26.2,26.2,0,0,0,3.7,5.07,20.43,20.43,0,0,0-11.58,18.48V236H54Zm61-94.93A11.19,11.19,0,0,1,126,53h1V47.15h8V53h10v8H126a3.12,3.12,0,0,0-3,3.07A3,3,0,0,0,126,67h10a11,11,0,0,1,0,22h-1v6h-8V89H117V81h19a3,3,0,0,0,0-6H126A11,11,0,0,1,115,64.07ZM131,109A38,38,0,1,0,93,71,38,38,0,0,0,131,109Zm0-68a30,30,0,1,1-30,30A30,30,0,0,1,131,41Zm56,81v64h64V122Zm56,8v13.09l-16.75,16.75-16-16L195,159.09V130Zm-48,48v-7.59l15.25-15.25,16,16L243,154.41V178ZM175,71a44.58,44.58,0,0,0-.64-7.45A86.39,86.39,0,0,1,225.29,116h-8.51A78.36,78.36,0,0,0,175,72.43C175,72,175,71.48,175,71ZM58,145c0-.33,0-.66,0-1A85.82,85.82,0,0,1,87.75,79a43.65,43.65,0,0,0,2.5,8.53A77.77,77.77,0,0,0,66,144c0,.34,0,.67,0,1Zm147.38,47h9.91A86,86,0,0,1,144,230c-1,0-2,0-3-.08v-8c1,0,2,.08,3,.08A77.88,77.88,0,0,0,205.41,192Z"/></svg>