<svg id="ART" xmlns="http://www.w3.org/2000/svg" viewBox="0 0 288 288"><defs><style>.cls-1{fill:#fcfbfa;}</style></defs><path class="cls-1" d="M77.94,166H65V82l95,.09V121h-8V90H73v68h1.06l15-19H109v8H92.94ZM232,127H115v76h85.05l18,23H232ZM204,195H123V135H224v83H222ZM95,110a5,5,0,1,0,5,5A5,5,0,0,0,95,110Zm17.67,0a5,5,0,1,0,5,5A5,5,0,0,0,112.67,110ZM130,110a5,5,0,1,0,5,5A5,5,0,0,0,130,110Zm26,55a11,11,0,1,0-11,11A11,11,0,0,0,156,165Zm-8,0a3,3,0,1,1-3-3A3,3,0,0,1,148,165Zm36,0a11,11,0,1,0-11,11A11,11,0,0,0,184,165Zm-8,0a3,3,0,1,1-3-3A3,3,0,0,1,176,165Zm36,0a11,11,0,1,0-11,11A11,11,0,0,0,212,165Zm-8,0a3,3,0,1,1-3-3A3,3,0,0,1,204,165Z"/></svg>