<?xml version="1.0" encoding="utf-8"?>
<!-- Generator: Adobe Illustrator 27.1.0, SVG Export Plug-In . SVG Version: 6.00 Build 0)  -->
<svg version="1.1" id="Layer_1" xmlns="http://www.w3.org/2000/svg" xmlns:xlink="http://www.w3.org/1999/xlink" x="0px" y="0px"
	 viewBox="0 0 288 288" style="enable-background:new 0 0 288 288;" xml:space="preserve">
<style type="text/css">
	.st0{display:none;}
	.st1{display:inline;}
	.st2{fill:#56A5D8;}
	.st3{fill:none;stroke:#56A5D8;stroke-width:0.25;stroke-miterlimit:10;}
	.st4{fill:#FCFBFA;}
</style>
<g id="GUIDES" class="st0">
	<g class="st1">
		<g>
			<path class="st2" d="M144,96.3c26.3,0,47.8,21.4,47.8,47.7s-21.4,47.7-47.8,47.7S96.2,170.3,96.2,144S117.7,96.3,144,96.3
				 M144,96.1c-26.5,0-48,21.5-48,47.9c0,26.5,21.5,47.9,48,47.9s48-21.5,48-47.9C192,117.5,170.5,96.1,144,96.1L144,96.1z"/>
		</g>
		<line class="st3" x1="96" y1="0" x2="96" y2="288"/>
		<line class="st3" x1="192" y1="0" x2="192" y2="288"/>
		<line class="st3" x1="0" y1="192" x2="288" y2="192"/>
		<line class="st3" x1="0" y1="96" x2="288" y2="96"/>
		<g>
			<path class="st2" d="M144,12.4c35.2,0,68.3,13.7,93.2,38.6s38.6,58,38.6,93.2s-13.7,68.3-38.6,93.2S179.2,276,144,276
				s-68.3-13.7-93.2-38.6s-38.6-58-38.6-93.2S26,75.9,50.8,51S108.8,12.4,144,12.4 M144,12.1c-72.9,0-132,59.1-132,132
				s59.1,132,132,132s132-59.1,132-132S216.9,12.1,144,12.1L144,12.1z"/>
		</g>
		<g>
			<path class="st2" d="M240,12.2c6.5,0,11.8,5.3,11.8,11.8v240c0,6.5-5.3,11.8-11.8,11.8H48c-6.5,0-11.8-5.3-11.8-11.8V24
				c0-6.5,5.3-11.8,11.8-11.8H240 M240,12H48c-6.6,0-12,5.4-12,12v240c0,6.6,5.4,12,12,12h192c6.6,0,12-5.4,12-12V24
				C252,17.4,246.6,12,240,12L240,12z"/>
		</g>
		<g>
			<path class="st2" d="M264,36.2c6.5,0,11.8,5.3,11.8,11.8v192c0,6.5-5.3,11.8-11.8,11.8H24c-6.5,0-11.8-5.3-11.8-11.8V48
				c0-6.5,5.3-11.8,11.8-11.8H264 M264,36H24c-6.6,0-12,5.4-12,12v192c0,6.6,5.4,12,12,12h240c6.6,0,12-5.4,12-12V48
				C276,41.4,270.6,36,264,36L264,36z"/>
		</g>
		<g>
			<path class="st2" d="M247.8,24.2c8.8,0,16,7.2,16,16v207.6c0,8.8-7.2,16-16,16H40.2c-8.8,0-16-7.2-16-16V40.2c0-8.8,7.2-16,16-16
				H247.8 M247.8,24H40.2C31.3,24,24,31.3,24,40.2v207.6c0,8.9,7.3,16.2,16.2,16.2h207.6c8.9,0,16.2-7.3,16.2-16.2V40.2
				C264,31.3,256.7,24,247.8,24L247.8,24z"/>
		</g>
	</g>
</g>
<g id="ART">
	<g>
		<g>
			<polygon class="st4" points="166.6,113.4 160.5,89.6 153.3,89.6 143.5,124.9 136.7,100.8 129.4,100.8 125,113.4 108.1,113.4 
				115.1,120.4 130,120.4 132.7,112.4 140,137.9 147.2,137.9 156.8,103.2 161.2,120.4 173.5,120.4 180.5,113.4 			"/>
			<path class="st4" d="M144.3,166.3l-48.4-48.4C84,106,84,86.6,95.9,74.6c11.9-11.9,31.3-11.9,43.3,0l5.2,5.2l5.2-5.2
				c11.9-11.9,31.3-11.9,43.3,0l0,0c11.9,11.9,11.9,31.3,0,43.3L144.3,166.3z M117.5,73.6c-5.8,0-11.6,2.2-16,6.6
				c-8.8,8.8-8.8,23.1,0,32l42.8,42.8l42.8-42.8c8.8-8.8,8.8-23.1,0-32l0,0c-8.8-8.8-23.1-8.8-32,0L144.3,91l-10.8-10.8
				C129.1,75.8,123.3,73.6,117.5,73.6z"/>
		</g>
		<g>
			<path class="st4" d="M140.2,222.4H93.9l-1.2-1.4c-13.4-15.4-33.9-38.7-35.8-40.5c-6.4-5.6-6.7-14.4-6.7-15.4h0.1
				c-0.1-3.3-0.1-16.5-0.2-75.4v-3.3l10.5-2.1H61c9.3,0,17.1,7.3,17.7,16.6l1.6,23.9l0.1-0.1l39,38.4c0.8,0.9,20.8,23,20.8,55.3
				V222.4z M97.6,214.4H132c-1.5-26.2-17.5-44.6-18.5-45.8l-33.3-32.8l-0.7,0.7l-2.4,3.2c-0.1,1.8-0.2,3.5-0.3,4.1v0.3
				c0.3,2.3,0.7,5.5,1.8,7l13.5,15l-5.9,5.4l-13.8-15.4c-2.5-3.2-3-7.5-3.5-11l-0.1-0.6c-0.1-0.5-0.1-0.6,0.3-6.6l0.1-1.1l3.5-4.7
				l-2.1-30.8c-0.3-5-4.4-8.9-9.3-9.1l-3.2,0.7c0,24.6,0.1,66,0.1,71.4l0,0v0.7c0,1.7,0.8,6.7,4,9.5l0,0
				C63.7,175.8,75.5,189.2,97.6,214.4z M57.1,180.6L57.1,180.6L57.1,180.6z M57,180.5C57,180.5,57.1,180.5,57,180.5L57,180.5
				L57,180.5z"/>
			<path class="st4" d="M193.4,222.4h-46.2v-4c0-32.3,19.9-54.3,20.8-55.3l0.1-0.1l38.8-38.3l0.1,0.1l1.6-24
				c0.6-9.3,8.3-16.5,17.7-16.6h0.4l10.5,2.1v3.3c0,58.9-0.1,72.1-0.2,75.4h0.1c0,1-0.3,9.8-6.7,15.4c-1.8,1.8-22.3,25.2-35.8,40.5
				L193.4,222.4z M155.3,214.4h34.5c22-25.2,33.9-38.6,35.3-39.9l0,0c3.2-2.8,4-7.8,4-9.5v-0.7c0-5.4,0.1-46.7,0.1-71.4l-3.2-0.7
				c-4.9,0.2-9,4.1-9.3,9.1l-2.1,30.8l3.5,4.7l0.1,1.1c0.4,5.9,0.4,6.1,0.3,6.6l-0.1,0.6c-0.4,3.5-1,7.8-3.5,11l-0.2,0.2L201,171.6
				l-5.9-5.4l13.5-15c1.1-1.5,1.5-4.7,1.8-7v-0.3c0-0.6-0.1-2.4-0.3-4.1l-2.4-3.2l-0.7-0.7l-33.3,32.8
				C172.7,169.8,156.8,188.2,155.3,214.4z M230.2,180.6L230.2,180.6L230.2,180.6z M230.3,180.5L230.3,180.5L230.3,180.5L230.3,180.5
				z"/>
		</g>
	</g>
</g>
</svg>
