<?xml version="1.0" encoding="utf-8"?>
<!-- Generator: Adobe Illustrator 25.0.1, SVG Export Plug-In . SVG Version: 6.00 Build 0)  -->
<svg version="1.1" xmlns="http://www.w3.org/2000/svg" xmlns:xlink="http://www.w3.org/1999/xlink" x="0px" y="0px"
	 viewBox="0 0 288 288" style="enable-background:new 0 0 288 288;" xml:space="preserve">
<style type="text/css">
	.st0{display:none;opacity:0.75;}
	.st1{display:inline;}
	.st2{fill:#00AEEF;}
	.st3{fill:none;stroke:#00AEEF;stroke-width:0.25;stroke-miterlimit:10;}
	.st4{fill:#FCFBFA;}
	.st5{fill:#2F2925;}
</style>
<g id="Guide" class="st0">
	<g class="st1">
		<g>
			<path class="st2" d="M144,155.3c26.3,0,47.8,21.4,47.8,47.7s-21.4,47.7-47.8,47.7s-47.8-21.4-47.8-47.7S117.7,155.3,144,155.3
				 M144,155c-26.5,0-48,21.5-48,47.9s21.5,47.9,48,47.9s48-21.5,48-47.9S170.5,155,144,155L144,155z"/>
		</g>
		<line class="st3" x1="96" y1="58.9" x2="96" y2="346.9"/>
		<line class="st3" x1="192" y1="58.9" x2="192" y2="346.9"/>
		<line class="st3" x1="0" y1="154.9" x2="288" y2="154.9"/>
		<line class="st3" x1="0" y1="250.9" x2="288" y2="250.9"/>
		<g>
			<path class="st2" d="M144,71.3c35.2,0,68.3,13.7,93.2,38.6c24.9,24.9,38.6,58,38.6,93.2s-13.7,68.3-38.6,93.2
				c-24.9,24.9-58,38.6-93.2,38.6s-68.3-13.7-93.2-38.6c-24.9-24.9-38.6-58-38.6-93.2s13.7-68.3,38.6-93.2
				C75.7,85,108.8,71.3,144,71.3 M144,71.1c-72.9,0-132,59.1-132,132s59.1,132,132,132s132-59.1,132-132S216.9,71.1,144,71.1
				L144,71.1z"/>
		</g>
		<g>
			<path class="st2" d="M247.8,83.2c8.8,0,16,7.2,16,16v207.6c0,8.8-7.2,16-16,16H40.2c-8.8,0-16-7.2-16-16V99.1c0-8.8,7.2-16,16-16
				H247.8 M247.8,82.9H40.2c-8.9,0-16.2,7.3-16.2,16.2v207.6c0,8.9,7.3,16.2,16.2,16.2h207.6c8.9,0,16.2-7.3,16.2-16.2V99.1
				C264,90.2,256.7,82.9,247.8,82.9L247.8,82.9z"/>
		</g>
	</g>
</g>
<g id="ART">
	<g>
		<path class="st4" d="M200.7,79.3C189,67.5,173.3,61,156.6,61s-32.3,6.5-44.1,18.3c-20.9,20.9-23.8,53.1-8.8,77.2l-38,38l19.8,19.8
			l38-38c10.1,6.3,21.6,9.5,33.1,9.5c16,0,32-6.1,44.1-18.2C225.1,143.2,225.1,103.6,200.7,79.3z M85.5,203l-8.5-8.5l31.4-31.4
			c1.3,1.5,2.6,3,4,4.5c1.4,1.4,2.9,2.8,4.5,4L85.5,203z M195.1,161.9c-21.2,21.2-55.7,21.2-76.9,0c-21.2-21.2-21.2-55.7,0-76.9
			C128.8,74.3,142.7,69,156.6,69s27.9,5.3,38.5,15.9C216.3,106.1,216.3,140.6,195.1,161.9z"/>
		
			<rect x="63.2" y="197" transform="matrix(0.7071 -0.7071 0.7071 0.7071 -130.7874 109.8435)" class="st4" width="8" height="31.7"/>
		<path class="st4" d="M160.2,75h-6.8l-40.6,67l3,8h82l3-8L160.2,75z M122.1,142l34.6-57.2l34.6,57.2H122.1z"/>
		<rect x="152.8" y="102" class="st4" width="8" height="23"/>
		<circle class="st4" cx="156.8" cy="133" r="4"/>
	</g>
</g>
<g id="Layer_1">
</g>
</svg>
