<?xml version="1.0" encoding="utf-8"?>
<!-- Generator: Adobe Illustrator 24.0.3, SVG Export Plug-In . SVG Version: 6.00 Build 0)  -->
<svg version="1.1" id="ART" xmlns="http://www.w3.org/2000/svg" xmlns:xlink="http://www.w3.org/1999/xlink" x="0px" y="0px"
	 viewBox="0 0 288 288" style="enable-background:new 0 0 288 288;" xml:space="preserve">
<style type="text/css">
	.st0{fill:#FCFBFA;}
</style>
<path class="st0" d="M77.1,147c0-1-0.1-2-0.1-3c0-9.5,2.1-18.9,6-27.6l24.9,27.4l15.3,18l3.8,30.1l14.4,8.6l13-18.9l1.8-8.8l9.5-7.6
	l3.8-19.1l-27.4-9.1l-5.1-9.2h-12.1l-4.1-8.7l13.2-1.4L153,107l6.3-20.2l-13.7-5.7l-3-4.1c0.4,0,0.9,0,1.3,0c7.8,0,15.6,1.4,23,4.1
	v-8.5c-39.4-12.7-81.7,9-94.3,48.5c-2.4,7.4-3.6,15.1-3.6,22.9c0,1,0,2,0.1,3H77.1z M133.4,77.8l7.1,9.8l9,3.8l-3.2,10.1l-14.9,8.3
	l-22.8,2.4l11,23.5h12.5l4.4,7.8l23.7,7.9l-1.9,9.3l-9.5,7.6l-2,10.1l-7.8,11.4l-4.5-2.8l-3.7-28.6l-16.9-19.8L87,108.9
	C97.2,92.3,114.1,81,133.4,77.8z M212,161c1.7,0,3.3,0.1,5,0.3c2.9-12.3,2.7-25.1-0.7-37.3H208c3.8,12,4,24.8,0.9,37H212z M144,211
	c-14,0-27.6-4.4-39-12.6v9.6c16.2,9.9,35.6,13.2,54.2,9.4c-0.1-1.1-0.2-2.3-0.2-3.5c0-1.6,0.1-3.2,0.3-4.8
	C154.3,210.4,149.2,211,144,211z M202,181h-4c-18.2,0-33,14.8-33,33s14.8,33,33,33s33-14.8,33-33v-4h-29V181z M194,189.3v23
	l-16.3,16.3c-8.1-11.2-5.5-26.8,5.7-34.9C186.6,191.4,190.2,189.9,194,189.3z M222.7,218c-2.2,13.6-15.1,22.9-28.7,20.7
	c-3.8-0.6-7.5-2.1-10.6-4.4l16.3-16.3H222.7z M212,167h-4v37h37v-4C245,181.8,230.2,167,212,167z M216,196v-20.7
	c10.6,1.7,18.9,10.1,20.7,20.7H216z M237,54h-64v64h64V54z M229,110h-6V72h-8v38h-6V82h-8v28h-6V92h-8v18h-6V62h48V110z M35,217h64
	v-64H35V217z M43,209v-7.8l15-15l16,16l17-17V209H43z M91,161v12.8l-17,17l-16-16l-15,15V161H91z"/>
</svg>
