<svg id="Icon_art" data-name="Icon art" xmlns="http://www.w3.org/2000/svg" viewBox="0 0 288 288">
  <defs>
    <style>
      .cls-1 {
        fill: #312d2a;
      }
    </style>
  </defs>
  <g id="Data_Catalog_DCAT_" data-name="Data Catalog (DCAT)">
    <g>
      <polygon class="cls-1" points="265 36 137 36 137 60 145 60 145 44 257 44 257 171 206 171 206 179 265 179 265 36"/>
      <polygon class="cls-1" points="249 66 206 66 206 70 206 74 249 74 249 66"/>
      <polygon class="cls-1" points="249 52 153 52 153 60 196 60 206 60 249 60 249 52"/>
      <rect class="cls-1" x="206" y="80" width="43" height="8"/>
      <rect class="cls-1" x="206" y="94" width="43" height="8"/>
      <rect class="cls-1" x="206" y="108" width="26.17" height="8"/>
      <path class="cls-1" d="M200,66H23V252H200ZM31,244V74H192V244Z"/>
      <path class="cls-1" d="M59,149H46.26a27.88,27.88,0,0,1,14.18-18.22,18,18,0,0,0,9.14-12.5,18.89,18.89,0,0,1,20.46-15,17.46,17.46,0,0,0,14.42-5.61,25.15,25.15,0,0,1,40.87,6,18.31,18.31,0,0,0,12.3,9.61A26.09,26.09,0,0,1,175.91,149H165v8h15.81l1.13-2.11a34.21,34.21,0,0,0-11.81-45,33.74,33.74,0,0,0-10.77-4.45,10.24,10.24,0,0,1-6.87-5.38,33.15,33.15,0,0,0-53.86-7.91,9.45,9.45,0,0,1-7.74,3.14,26.88,26.88,0,0,0-29.15,21.35,10,10,0,0,1-5,7,35.92,35.92,0,0,0-19.14,29L37.29,157H59Z"/>
      <path class="cls-1" d="M159,140a9,9,0,0,0-9-9H74a9,9,0,0,0-9,9v88a9,9,0,0,0,9,9h76a9,9,0,0,0,9-9Zm-9,89H74a1,1,0,0,1-1-1V140a1,1,0,0,1,1-1h76a1,1,0,0,1,1,1v88A1,1,0,0,1,150,229Z"/>
      <path class="cls-1" d="M145,171V145H79v36h66ZM87,153h50v20H87Z"/>
      <circle class="cls-1" cx="127" cy="163" r="4"/>
      <path class="cls-1" d="M79,223h66V187H79Zm8-28h50v20H87Z"/>
      <circle class="cls-1" cx="127" cy="205" r="4"/>
      <polygon class="cls-1" points="224.94 148 219.96 156.5 224.8 165 234.61 165 239.59 156.5 234.76 148 224.94 148"/>
      <path class="cls-1" d="M241.44,123.23a9.27,9.27,0,1,0,9.27,9.27A9.22,9.22,0,0,0,241.44,123.23Z"/>
      <polygon class="cls-1" points="215.88 123.91 206 141.75 205.86 142 206 142 225.74 142 215.88 123.91"/>
    </g>
  </g>
</svg>
