<svg id="ART" xmlns="http://www.w3.org/2000/svg" viewBox="0 0 288 288"><defs><style>.cls-1{fill:#312d2a;}</style></defs><path class="cls-1" d="M214.38,111.46A41.74,41.74,0,0,0,201.09,106a13.77,13.77,0,0,1-9.4-7.3A41,41,0,0,0,125,89.11a13,13,0,0,1-10.86,4,33,33,0,0,0-35.47,26.52A13.55,13.55,0,0,1,71.56,129,43.76,43.76,0,0,0,48.13,164.7l-.32,4.3h58.67a37.09,37.09,0,0,1-.48-6c0-.67,0-1.34,0-2H56.69a35.79,35.79,0,0,1,18.59-24.89A21.49,21.49,0,0,0,86.47,121.2a25,25,0,0,1,26.86-20.09,21,21,0,0,0,17.48-6.55,33,33,0,0,1,53.72,7.71,21.75,21.75,0,0,0,14.83,11.53,33.74,33.74,0,0,1,10.76,4.43A34.08,34.08,0,0,1,223,161H182c0,.66.05,1.33.05,2a37.09,37.09,0,0,1-.48,6h46.33l1.13-2.1A42.09,42.09,0,0,0,214.38,111.46Z"/><rect class="cls-1" x="140" y="104" width="8" height="17"/><rect class="cls-1" x="179.29" y="135.9" width="16.57" height="8" transform="translate(-43.91 105.67) rotate(-28.3)"/><rect class="cls-1" x="161" y="116.15" width="16.57" height="8" transform="translate(-23.95 196) rotate(-56.79)"/><rect class="cls-1" x="114.71" y="111.86" width="8" height="16.57" transform="translate(-46.41 84.62) rotate(-33.2)"/><rect class="cls-1" x="96.43" y="131.61" width="8" height="16.57" transform="translate(-70.37 161.97) rotate(-61.69)"/><path class="cls-1" d="M144.41,131.5c-17.36,0-32,14.31-32,31.25,0,11.16,3.68,17.43,6.94,23,2.56,4.37,4.59,7.83,4.59,13.28v13.06l5.68,9.94H158l6.94-9.72V199c0-5.52,1.9-9,4.31-13.39,3-5.51,6.44-11.77,6.44-22.86A31.29,31.29,0,0,0,144.41,131.5Zm12.5,78.22L153.85,214H134.23l-2.32-4.06V203h25Zm5.29-27.95c-2.11,3.86-4.28,7.83-5,13.23H148V179h-8v16h-8.39c-.79-5.46-3.14-9.45-5.42-13.33-3-5.11-5.83-9.94-5.83-18.92,0-12.6,11-23.25,24-23.25,14.36,0,23.25,12.07,23.25,23.25C167.66,171.79,165,176.64,162.2,181.77Z"/></svg>