<svg id="ART" xmlns="http://www.w3.org/2000/svg" viewBox="0 0 288 288"><defs><style>.cls-1{fill:#312d2a;}</style></defs><path class="cls-1" d="M170,112.23v-9.84a49,49,0,0,0-47-2.74v9.06a41,41,0,0,1,47,3.52Z"/><path class="cls-1" d="M129.34,73l2.56-23h24.2l2.56,23,2.71.67A71.9,71.9,0,0,1,181.43,82l2.39,1.45L201.91,69,219,86.09l-7.63,9.54.39.51,4,4.84h1.54l12.39-15.49L202.51,58.26,183.14,73.75A79.63,79.63,0,0,0,166,66.63L163.26,42H124.74L123,57.64v17c1.2-.36,2.41-.7,3.63-1Z"/><path class="cls-1" d="M141.17,193c.94.05,1.88.08,2.83.08s1.89,0,2.83-.08a49.12,49.12,0,0,0,36.75-20H173.06a41.06,41.06,0,0,1-62.73-52.51A57.92,57.92,0,0,1,99.67,123,49.07,49.07,0,0,0,141.17,193Z"/><path class="cls-1" d="M69,201.91l14.47-18.09L82,181.43a71.9,71.9,0,0,1-8.32-20.06L73,158.66,50,156.1V131.9l23-2.56.67-2.71c.24-1,.49-1.91.77-2.85a87.07,87.07,0,0,1-11.64-1.36L42,124.74v38.52L66.63,166a79.63,79.63,0,0,0,7.12,17.14L58.26,202.51l27.23,27.23,7.51-6V213.49L86.09,219Z"/><path class="cls-1" d="M219,173h-8.64a73.35,73.35,0,0,1-4.38,8.44l-1.45,2.39L219,201.91,201.91,219l-18.09-14.47L181.43,206A71.29,71.29,0,0,1,167,212.68v8.39a79.29,79.29,0,0,0,16.14-6.82l19.37,15.49,27.23-27.23-15.49-19.37A78.17,78.17,0,0,0,219,173Z"/><path class="cls-1" d="M98,262h64V198H98Zm8-56h48v48H106Z"/><path class="cls-1" d="M120.69,213.88,111.38,230l9.31,16.12h18.62L148.62,230l-9.31-16.12Zm14,24.24h-9.38L120.62,230l4.69-8.12h9.38l4.69,8.12Z"/><path class="cls-1" d="M253.45,107H211.88l-4-5.68A7.35,7.35,0,0,0,201.91,98H182.34a6.48,6.48,0,0,0-6.3,6.77V167h84V114C260,110.61,257.37,107,253.45,107ZM252,159H184V106h17.33l6.37,9H252Z"/><path class="cls-1" d="M84.5,118c7.62,0,32.5-.79,32.5-11V58.22c0-10.16-24.88-10.95-32.5-10.95S52,48.06,52,58.22V107h8v0H52C52,117.21,76.88,118,84.5,118Zm0-8c-13.68,0-22.34-2.38-24.5-3.83V98.88c8,2.8,19.68,3.12,24.5,3.12a92.94,92.94,0,0,0,21.1-2.15c.79-.19,2-.5,3.4-1v7.28C106.84,107.62,98.18,110,84.5,110ZM60,82.88C68,85.68,79.68,86,84.5,86a92.94,92.94,0,0,0,21.1-2.15c.79-.19,2-.5,3.4-1v7.28C106.85,91.62,98.19,94,84.5,94S62.15,91.62,60,90.17Zm0-16.83c8,2.8,19.68,3.12,24.5,3.12A93.51,93.51,0,0,0,105.6,67c.79-.2,2-.5,3.4-1v8.12C106.85,75.62,98.19,78,84.5,78S62.15,75.62,60,74.17Zm47.13-7.83c-3.68,1.37-11.48,3-22.63,3s-19-1.58-22.63-3c3.68-1.37,11.49-2.95,22.63-2.95S103.45,56.85,107.13,58.22Z"/></svg>