<?xml version="1.0" encoding="utf-8"?>
<!-- Generator: Adobe Illustrator 24.0.3, SVG Export Plug-In . SVG Version: 6.00 Build 0)  -->
<svg version="1.1" id="icon_art" xmlns="http://www.w3.org/2000/svg" xmlns:xlink="http://www.w3.org/1999/xlink" x="0px" y="0px"
	 viewBox="0 0 288 288" style="enable-background:new 0 0 288 288;" xml:space="preserve">
<style type="text/css">
	.st0{fill:#312D2A;}
</style>
<title>RMIL_Business_Incentives_Bark_RGB</title>
<path class="st0" d="M232,80h-48.43c-2.76-15.22-17.33-25.31-32.55-22.55c-2.43,0.44-4.79,1.2-7.02,2.26
	c-13.97-6.64-30.67-0.7-37.31,13.27c-1.06,2.23-1.82,4.59-2.26,7.02H56v33h12v118h152V113h12V80z M175.37,80.14h-15.8
	c-0.98-5.56-3.62-10.7-7.57-14.73c1.32-0.27,2.66-0.4,4-0.41C165.16,65.01,173.14,71.25,175.37,80.14z M212,173h-52v-16h52V173z
	 M152,223h-16V113h16V223z M76,157h52v16H76V157z M136,105V88h16v17H136z M144,69c3.65,2.75,6.25,6.67,7.37,11.1h-14.74
	C137.75,75.67,140.35,71.75,144,69z M132,65c1.34,0.01,2.68,0.14,4,0.41c-3.96,4.03-6.61,9.17-7.6,14.73h-15.8
	C114.83,71.24,122.83,65,132,65z M64,88h64v17H64V88z M128,113v36H76v-36H128z M76,181h52v42H76V181z M160,223v-42h52v42H160z
	 M212,149h-52v-36h52V149z M224,105h-64V88h64V105z"/>
</svg>
