<svg id="ART" xmlns="http://www.w3.org/2000/svg" viewBox="0 0 288 288"><defs><style>.cls-1{fill:#fcfbfa;}</style></defs><path class="cls-1" d="M94.5,113h17.11a6.45,6.45,0,0,0,6.44-6l3.24-46H84.82l3.24,46A6.46,6.46,0,0,0,94.5,113Zm15.68-8H95.94L94.39,83h17.33Zm2.53-36-.42,6H93.83l-.43-6ZM202,113v-4l-5.13-2.57a31.9,31.9,0,0,0-27.82-30.12V72h-8v4.31a31.89,31.89,0,0,0-27.79,29.56L127,109v4ZM165.05,84.05a23.88,23.88,0,0,1,23.67,21H141.37A23.89,23.89,0,0,1,165.05,84.05Zm60.63,43.31a9,9,0,0,0-9-8.36h-145a9,9,0,0,0-9,8.36l-5,70.62H62v12a5,5,0,0,0,5,5H78.87a11.28,11.28,0,0,0-.57,3.55A11.55,11.55,0,1,0,100.83,215h87.73a11.55,11.55,0,1,0,22,0h10.21a5.27,5.27,0,0,0,5.26-5.26V198h4.69ZM89.85,222.09a3.55,3.55,0,1,1,3.54-3.54A3.55,3.55,0,0,1,89.85,222.09Zm109.7,0a3.55,3.55,0,1,1,3.54-3.54A3.55,3.55,0,0,1,199.55,222.09ZM218,207H70v-9H218ZM66,190l4.69-62.07a1,1,0,0,1,1-.93h145a1,1,0,0,1,1,.93L222,190Z"/></svg>