<svg id="ART" xmlns="http://www.w3.org/2000/svg" viewBox="0 0 288 288"><defs><style>.cls-1{fill:#fcfbfa;}</style></defs><path class="cls-1" d="M172,75h-8l0-6.28a20,20,0,0,0-39.92,0L124,75h-8v48l56-.07Zm-40-6.28a12,12,0,0,1,23.92,0L156,75H132ZM164,115l-40.06.06,0-32.13h40ZM138,94.93a6,6,0,1,1,8.88,5.26l1.12,7.74h-8l1.2-7.69A6,6,0,0,1,138,94.93ZM140,157V129h8v28Zm12.1,6.79,24,14.81-4.2,6.8-24-14.8Zm-16.2,0,4.2,6.81-24,14.8-4.2-6.8ZM103,188H95l0-6.28a20,20,0,1,0-39.92,0L55,188H47v48l56-.07Zm-40-6.28a12,12,0,1,1,23.92,0L87,188H63ZM95,228l-40.06.06L55,195.93H95ZM69,207.93a6,6,0,1,1,8.88,5.26L79,220.93H71l1.2-7.69A6,6,0,0,1,69,207.93ZM241,188h-8l0-6.28a20,20,0,0,0-39.92,0l0,6.28h-8v48l56-.07Zm-40-6.28a12,12,0,0,1,23.92,0l0,6.28H201ZM233,228l-40.06.06.05-32.13h40Zm-26-20.07a6,6,0,1,1,8.88,5.26l1.12,7.74h-8l1.2-7.69A6,6,0,0,1,207,207.93Z"/></svg>