<?xml version="1.0" encoding="utf-8"?>
<!-- Generator: Adobe Illustrator 24.0.3, SVG Export Plug-In . SVG Version: 6.00 Build 0)  -->
<svg version="1.1" id="ART" xmlns="http://www.w3.org/2000/svg" xmlns:xlink="http://www.w3.org/1999/xlink" x="0px" y="0px"
	 viewBox="0 0 288 288" style="enable-background:new 0 0 288 288;" xml:space="preserve">
<style type="text/css">
	.st0{fill:#312D2A;}
</style>
<path class="st0" d="M107,139h74v8h-74V139z M107,153h74v8h-74V153z M107,167h47v8h-47V167z M134,207h47v8h-47V207z M87,92v149
	h114.1V121.9L171.7,92H87z M171,102.7l18.9,19.3H171V102.7z M95,233V100h68v30h30.1v103H95z M213,65h-84.1l-8.1-10.5
	c-1.7-2.2-4.3-3.5-7.1-3.5H75c-5,0-9,4-9,9v119h15v-8h-7V60c0-0.6,0.4-1,1-1h38.7c0.3,0,0.6,0.1,0.8,0.4L125,73h88c0.6,0,1,0.4,1,1
	v97h-7v8h15V74C222,69,218,65,213,65z M121.2,199.7l-5.4,5.5l-5.5-5.5l-5.7,5.7l5.4,5.4l-5.4,5.5l5.7,5.6l5.5-5.4l5.4,5.4l5.7-5.6
	l-5.5-5.5l5.5-5.4L121.2,199.7z"/>
</svg>
