<svg id="ART" xmlns="http://www.w3.org/2000/svg" viewBox="0 0 288 288"><defs><style>.cls-1{fill:#312d2a;}</style></defs><path class="cls-1" d="M180.42,180H138.84l-4-5.68a7.37,7.37,0,0,0-5.95-3.32H109.3a6.47,6.47,0,0,0-6.3,6.76V240h84V187C187,183.62,184.33,180,180.42,180ZM179,232H111V179h17.33l6.37,9H179Zm-.2-95.08L167,137V121.47a33,33,0,0,0,10.11-23.54L177,54V50H134c-14.4,0-23,9.34-23,25h0l-.12,23.37A32.3,32.3,0,0,0,121,121.79V137l-11.82-.06A38.23,38.23,0,0,0,71,175.1V199h8V175.1a30.21,30.21,0,0,1,30.16-30.18l15.07.08L144,165.81,163.78,145l15-.07A30.22,30.22,0,0,1,209,175.1V199h8V175.1A38.23,38.23,0,0,0,178.8,136.92ZM134,58h34.8c-1.43,13-9.86,13-12.8,13H119.24C120.35,62.37,125.3,58,134,58ZM118.88,98.37,119,79h37a20.3,20.3,0,0,0,13.06-4.18l.06,23.12A25.41,25.41,0,0,1,144,123C130.17,123,118.88,112,118.88,98.37ZM144,154.19,129,138.4v-11A33.45,33.45,0,0,0,144,131a32.26,32.26,0,0,0,15-3.73V138.4Z"/></svg>