<?xml version="1.0" encoding="utf-8"?>
<!-- Generator: Adobe Illustrator 27.1.0, SVG Export Plug-In . SVG Version: 6.00 Build 0)  -->
<svg version="1.1" id="ART" xmlns="http://www.w3.org/2000/svg" xmlns:xlink="http://www.w3.org/1999/xlink" x="0px" y="0px"
	 viewBox="0 0 288 288" style="enable-background:new 0 0 288 288;" xml:space="preserve">
<style type="text/css">
	.st0{fill:#FCFBFA;}
</style>
<path class="st0" d="M143,125.7c-11.2,0-20.4,9.1-20.4,20.4s9.1,20.4,20.4,20.4s20.4-9.1,20.4-20.4S154.2,125.7,143,125.7z
	 M143,158.5c-6.8,0-12.4-5.6-12.4-12.4s5.6-12.4,12.4-12.4s12.4,5.6,12.4,12.4S149.8,158.5,143,158.5z"/>
<path class="st0" d="M211.6,175.3c19.6-7.4,30.4-17.8,30.4-29.2s-10.8-21.8-30.4-29.2c-3.6-1.4-7.5-2.6-11.5-3.7
	c1.1-4.1,1.9-8,2.5-11.8c3.4-20.7-0.2-35.2-10.1-40.9c-2.6-1.5-5.6-2.3-8.8-2.5c1.3,2.5,2,5.4,2.1,8.4c0.9,0.2,1.8,0.6,2.6,1
	c6.7,3.9,9,15.8,6.2,32.7c-0.6,3.6-1.4,7.3-2.4,11.2c-8.3-1.9-17.3-3.2-26.6-4.1c-5.5-7.8-11.2-14.9-17-21.2
	c2.7-2.7,5.5-5.2,8.2-7.4c2.4,1.8,5.4,2.9,8.7,2.9c7.9,0,14.4-6.5,14.4-14.4s-6.5-14.4-14.4-14.4s-14.4,6.5-14.4,14.4
	c0,1.8,0.3,3.4,0.9,5c-3,2.4-6,5.2-9,8.1c-3-2.9-5.9-5.6-8.9-8c-16.2-13.3-30.6-17.4-40.5-11.7s-13.5,20.2-10.1,40.9
	c0.6,3.8,1.5,7.8,2.5,11.8c-4.1,1.1-8,2.4-11.6,3.8C54.8,124.3,44,134.7,44,146.1c0,3.5,1,6.9,3.1,10.2c1.4-2.5,3.4-4.7,5.7-6.4
	c-0.5-1.3-0.7-2.5-0.7-3.8c0-7.7,9.2-15.7,25.2-21.7c3.4-1.3,7.1-2.5,11-3.6c2.5,8.1,5.8,16.6,9.8,25.2c-4,8.6-7.3,17.2-9.9,25.4
	c-3.2-0.9-6.2-1.8-9-2.9c0.1-0.7,0.2-1.5,0.2-2.3c0-7.9-6.5-14.4-14.4-14.4s-14.4,6.5-14.4,14.4s6.5,14.4,14.4,14.4
	c4.3,0,8.1-1.9,10.8-4.9l0,0c3.2,1.2,6.7,2.3,10.3,3.3c-1.1,4.1-1.9,8-2.5,11.8c-3.4,20.7,0.2,35.2,10.1,40.9
	c2.9,1.7,6.2,2.5,9.8,2.5c8.7,0,19.3-4.8,30.8-14.2c3-2.5,6-5.2,9.1-8.2c3,3,6,5.7,9.1,8.2c11.5,9.4,22.1,14.2,30.8,14.2
	c3.6,0,6.9-0.8,9.8-2.5c3.6-2.1,6.4-5.3,8.3-9.7c-0.1,0-0.2,0-0.3,0c-2.8,0-5.5-0.6-7.9-1.6c-1,1.8-2.4,3.3-4.1,4.3
	c-6.7,3.9-18.2-0.1-31.4-11c-2.9-2.3-5.7-4.9-8.6-7.7c5.8-6.3,11.5-13.4,16.9-21.1c9.5-0.9,18.5-2.2,26.9-4.1
	c0.7,2.7,1.3,5.4,1.8,7.9c-4.7,2.4-8,7.2-8,12.9c0,7.9,6.5,14.4,14.4,14.4s14.4-6.5,14.4-14.4c0-7.4-5.7-13.6-12.9-14.3
	c-0.5-2.8-1.2-5.6-1.9-8.4C204.2,177.9,208,176.7,211.6,175.3L211.6,175.3z M64.9,172.6c-3.5,0-6.4-2.9-6.4-6.4s2.9-6.4,6.4-6.4
	s6.4,2.9,6.4,6.4S68.4,172.6,64.9,172.6z M207,201.8c0,3.5-2.9,6.4-6.4,6.4s-6.4-2.9-6.4-6.4s2.9-6.4,6.4-6.4S207,198.3,207,201.8z
	 M208.8,124.3c16,6.1,25.2,14,25.2,21.7s-9.2,15.7-25.2,21.7c-3.4,1.3-7,2.4-10.8,3.5c-2.6-8.2-5.9-16.8-9.9-25.4
	c3.9-8.6,7.2-17,9.8-25.1C201.7,121.9,205.3,123.1,208.8,124.3L208.8,124.3z M190.1,118.9c-1.8,5.8-4,11.7-6.6,17.7
	c-1.8-3.5-3.7-7-5.7-10.5s-4.1-7-6.3-10.3C178,116.5,184.2,117.6,190.1,118.9L190.1,118.9z M161.1,177.5c-5.9,0.4-12,0.7-18.1,0.7
	s-12.1-0.2-18-0.6c-3.3-4.9-6.6-10-9.6-15.4c-3.1-5.4-6-10.8-8.6-16.2c2.6-5.3,5.4-10.6,8.4-15.9c3.1-5.3,6.3-10.5,9.6-15.3
	c5.9-0.4,12-0.7,18.1-0.7s12.3,0.2,18.3,0.7c3.3,4.9,6.6,10,9.6,15.3s5.9,10.6,8.4,15.9c-2.6,5.4-5.4,10.8-8.6,16.1
	C167.7,167.4,164.5,172.6,161.1,177.5L161.1,177.5z M143,106c-4.1,0-8.1,0.1-12.1,0.3c4-5.3,8.1-10.3,12.2-14.8
	c4.1,4.5,8.2,9.4,12.2,14.8C151.2,106.2,147.1,106.1,143,106L143,106z M165.5,60.6c3.5,0,6.4,2.9,6.4,6.4s-2.9,6.4-6.4,6.4
	s-6.4-2.9-6.4-6.4S162,60.6,165.5,60.6z M91.4,100c-2.8-16.9-0.5-28.9,6.2-32.7c6.7-3.9,18.2,0.1,31.5,11c2.8,2.3,5.6,4.8,8.4,7.6
	c-5.8,6.3-11.6,13.4-17,21.2c-9.4,0.8-18.4,2.2-26.7,4.1C92.8,107.3,92,103.6,91.4,100L91.4,100z M96,118.8
	c5.9-1.3,12.1-2.4,18.7-3.1c-2.2,3.4-4.3,6.8-6.3,10.4c-2,3.5-3.9,7-5.7,10.5C100,130.5,97.8,124.6,96,118.8L96,118.8z M102.6,155.3
	c1.9,3.6,3.8,7.2,5.9,10.8s4.2,7,6.3,10.4c-6.6-0.8-12.9-1.9-18.9-3.2C97.7,167.4,100,161.4,102.6,155.3z M129,213.9
	c-13.3,10.9-24.8,14.9-31.4,11s-9-15.8-6.2-32.7c0.6-3.6,1.4-7.3,2.4-11.2c8.4,1.9,17.5,3.3,26.9,4.1c5.4,7.7,11.1,14.8,16.9,21.1
	C134.7,209,131.8,211.6,129,213.9L129,213.9z M143.1,200.4c-4.1-4.4-8.1-9.3-12.1-14.6c3.9,0.2,7.9,0.3,12,0.3s8.1-0.1,12.1-0.3
	C151.2,191.1,147.2,196,143.1,200.4L143.1,200.4z M171.4,176.5c2.2-3.4,4.3-6.8,6.3-10.4c2.1-3.6,4-7.2,5.9-10.8
	c2.6,6.1,4.9,12.1,6.7,17.9C184.3,174.6,178,175.7,171.4,176.5L171.4,176.5z"/>
</svg>
