<svg id="ART" xmlns="http://www.w3.org/2000/svg" viewBox="0 0 288 288"><defs><style>.cls-1{fill:#312d2a;}</style></defs><path class="cls-1" d="M144,171a27,27,0,1,0-27-27A27,27,0,0,0,144,171Zm0-46a19,19,0,1,1-19,19A19,19,0,0,1,144,125Zm72.23,48.49,7.41,3A86,86,0,0,1,58,145.13l-10.2,10.2-5.66-5.66,19.75-19.75,20.32,19.17-5.48,5.82L66,144.79a78,78,0,0,0,150.21,28.7Zm29.46-35.16L226,158.08l-20.33-19.17,5.49-5.82,10.73,10.12a78,78,0,0,0-150.21-28.7l-7.41-3a86,86,0,0,1,165.62,31.38l10.2-10.2ZM90,132.42v23.16L103,157a43,43,0,0,0,2.8,6.73L97.63,174,114,190.37l10.24-8.19A43,43,0,0,0,131,185l1.45,13h23.16L157,185a43,43,0,0,0,6.73-2.8L174,190.37,190.37,174l-8.19-10.24A43,43,0,0,0,185,157l13-1.45V132.42L185,131a43,43,0,0,0-2.8-6.73L190.37,114,174,97.63l-10.24,8.19A43,43,0,0,0,157,103l-1.45-13H132.42L131,103a43,43,0,0,0-6.73,2.8L114,97.63,97.63,114l8.19,10.24A43,43,0,0,0,103,131Zm18.35-17.82,6.25-6.25,8.93,7.14,2.39-1.45a34.78,34.78,0,0,1,9.69-4l2.71-.67L139.58,98h8.84l1.26,11.35,2.71.67a34.78,34.78,0,0,1,9.69,4l2.39,1.45,8.93-7.14,6.25,6.25-7.14,8.93,1.45,2.39a35,35,0,0,1,4,9.69l.67,2.71L190,139.58v8.84l-11.35,1.26-.67,2.71a35,35,0,0,1-4,9.69l-1.45,2.39,7.14,8.93-6.25,6.25-8.93-7.14L162.08,174a34.78,34.78,0,0,1-9.69,4l-2.71.67L148.42,190h-8.84l-1.26-11.35-2.71-.67a34.78,34.78,0,0,1-9.69-4l-2.39-1.45-8.93,7.14-6.25-6.25,7.14-8.93L114,162.08a35,35,0,0,1-4-9.69l-.67-2.71L98,148.42v-8.84l11.35-1.26.67-2.71a35,35,0,0,1,4-9.69l1.45-2.39Z"/></svg>