<svg id="ART" xmlns="http://www.w3.org/2000/svg" viewBox="0 0 288 288"><defs><style>.cls-1{fill:#fcfbfa;}</style></defs><path class="cls-1" d="M68,168h50V146H68Zm8-14h34v6H76Zm-8,42h50V174H68Zm8-14h34v6H76ZM68,90h50v8H68Zm44,14H74v7H68v8h6v7h38v-7h6v-8h-6Zm-8,14H82v-6h22ZM68,132h50v8H68Zm0,70h50v8H68Zm0,14h50v8H68Zm148-70h-8v84H146V84h20V76H138V230h-6V76H54V230l-8,4v4H224v-4l-8-4ZM62,230V84h62V230Zm140-84H152v22h50Zm-8,14H160v-6h34Zm8,14H152v22h50Zm-8,14H160v-6h34ZM166,98H152V90h14Zm-14,13h6v-7h8v22h-8v-7h-6Zm0,21h14v8H152Zm50,78H152v-8h50Zm-50,6h50v8H152ZM172,48v93h89V48Zm81,8v57.13A19.61,19.61,0,0,0,241,109H231v-5.36a20.59,20.59,0,0,0,6-14.42V60H211c-9.25,0-15,6.13-15,16V90a19.36,19.36,0,0,0,6,14V109h-9a21.11,21.11,0,0,0-13,4.51V56ZM223,80a14.7,14.7,0,0,0,6-1.2V89.24a12.64,12.64,0,0,1-12.36,12.58c-7,0-12.64-5.31-12.64-11.82V80Zm-18.42-8c1.38-4,4.9-4,6.42-4h17.55A5.25,5.25,0,0,1,223,72ZM210,108.74a21,21,0,0,0,6.64,1.08,19.57,19.57,0,0,0,6.36-1.09v2.84l-6.39,7.05L210,111.43ZM253,133H180v-3.59c0-6.59,6.05-12.37,13-12.37h11.32l12.38,13.43L228.86,117H241a12.21,12.21,0,0,1,12,12.4Z"/></svg>