<svg id="ART" xmlns="http://www.w3.org/2000/svg" viewBox="0 0 288 288"><defs><style>.cls-1{fill:#fcfbfa;}</style></defs><path class="cls-1" d="M80.08,115H90V65H32v40H72.08ZM40,73H82v31.6L75.92,97H40ZM76,87H46V79H76ZM228,207V77H96v8H220v94H147v-2.69a20.28,20.28,0,0,0-11.12-18.55,26.83,26.83,0,0,0,3.63-5l.8-1.4-8.24-33.1h0c-2-6.47-7.77-11.28-14.35-11.28h-8c-7.33,0-13.62,6-14.88,13.52l-7.68,30.85.79,1.39a26.62,26.62,0,0,0,3.7,5.07A20.45,20.45,0,0,0,80,176.31V179H68V111H60v96h60.66l-1.78,13H111l-8,4v4h83v-4l-8-4h-7.88l-1.78-13ZM102,155.41a13.18,13.18,0,0,1-6.36-5.29l1.55-6.22a20.29,20.29,0,0,0,4.81,5.85Zm22.79-22c0,6.81-5.16,12.56-11.27,12.56-6,0-11-5.75-11-12.56v-3.17a17.66,17.66,0,0,0,11.16-3.06,17.74,17.74,0,0,0,10,3.1c.4,0,.78,0,1.15,0ZM110,153.63a17.73,17.73,0,0,0,3.52.37,17.49,17.49,0,0,0,3.48-.37V162a3.22,3.22,0,0,1-3.48,3c-1.71,0-3.52-1.05-3.52-3Zm20.14-10,1.61,6.47a13.28,13.28,0,0,1-6.75,5.44V149.8A20.84,20.84,0,0,0,130.14,143.65ZM109.65,115h8c3.5,0,6.59,3.29,7.06,7.27a10.62,10.62,0,0,1-8.36-3.09l-2.69-2.46-2.7,2.46a10.59,10.59,0,0,1-8.39,3.09s0-.07,0-.1l.49-2h0C104.18,117.21,106.78,115,109.65,115ZM88,176.31a12.21,12.21,0,0,1,12-12.4h2.19a11.6,11.6,0,0,0,22.63.07l.25-.07h2.74c6.38,0,11.2,5.33,11.2,12.4V179H88ZM68,187H220v12H68Zm94,33H127l1.77-13h31.54Zm6-113a5,5,0,1,1,5,5A5,5,0,0,1,168,107Zm24-16H154v38h38Zm-8,30h-4v-3.76a3.24,3.24,0,0,0-3.24-3.24h-7.52a3.24,3.24,0,0,0-3.24,3.24V121h-4V99h22Zm-16,30a5,5,0,1,1,5,5A5,5,0,0,1,168,151Zm-14,22h38V135H154Zm8-30h22v22h-4v-3.76a3.24,3.24,0,0,0-3.24-3.24h-7.52a3.24,3.24,0,0,0-3.24,3.24V165h-4Zm46-48v8H196V95Zm-12,12h18v8H196Zm0,32h12v8H196Zm0,12h18v8H196Z"/></svg>