<svg id="ART" xmlns="http://www.w3.org/2000/svg" viewBox="0 0 288 288"><defs><style>.cls-1{fill:#fcfbfa;}</style></defs><path class="cls-1" d="M126,99l-8-4V91H244v4l-8,4H126ZM229.18,210H135v-4l8-4h19v-9.91a30.58,30.58,0,0,1-20.64-17.35l-3.55-8.05L68.8,161a14.05,14.05,0,0,1-10.89-8.29l-.7-1.62-.71,0a26.52,26.52,0,1,1,24-15.28L83,139.05l55.61-.05,11.52-9.44.37-.19a30.67,30.67,0,0,1,9.23-3L161.92,116a5,5,0,0,1,4.89-4H177v-7h8v7h10.19a5,5,0,0,1,4.89,4l2.4,11.2A47,47,0,0,1,239,172.9V179A14,14,0,0,1,226,193V202h3.18a19.58,19.58,0,0,0,14-5.82l5.68,5.64A27.54,27.54,0,0,1,229.18,210Zm-34.25-75.91,6,29.31a2,2,0,0,0,1.95,1.6h27.3A39,39,0,0,0,194.93,134.09ZM169.23,120,168,126s25.4,0,26.06,0l-1.29-6ZM53.64,142.83,42.91,118.07h19.2a10.07,10.07,0,0,1,8,4l4.57,6a18.5,18.5,0,1,0-21,14.75ZM169.34,185H225a6,6,0,0,0,6-6v-6H202.89a10,10,0,0,1-9.79-8l-6.36-31H164.42a22.65,22.65,0,0,0-9.93,2.32L141.43,147H81l-2,.05L63.71,126.87a2,2,0,0,0-1.6-.8h-7l10.16,23.41A6,6,0,0,0,69.82,153l70.75,5.88a5.17,5.17,0,0,1,4.3,4l3.81,8.65A22.57,22.57,0,0,0,169.34,185ZM177,202h41v-9H170v9Zm-12.52-60h-8.17l6.35,31h8.17Zm22.37,31-6.36-31h-8.16l6.35,31Z"/></svg>