<svg id="ART" xmlns="http://www.w3.org/2000/svg" viewBox="0 0 288 288"><defs><style>.cls-1{fill:#fcfbfa;}</style></defs><path class="cls-1" d="M202,50H86a9,9,0,0,0-9,9V228a9,9,0,0,0,9,9H202a9,9,0,0,0,9-9V59A9,9,0,0,0,202,50ZM86,58H202a1,1,0,0,1,1,1v55H85V59A1,1,0,0,1,86,58Zm38,161h40v10H124Zm7-8V146h26v65ZM85,138V122H203v16Zm0,90V146h38v65h-7v18H86A1,1,0,0,1,85,228Zm117,1H172V211h-7V146h38v82A1,1,0,0,1,202,229ZM116,111a23.92,23.92,0,0,0,17-7h0a24,24,0,1,0-17,7Zm-13.77-32.1,4.46,4.46a10.1,10.1,0,0,0,0,7.3l-4.46,4.46A16,16,0,0,1,102.23,78.89Zm27.54,0a16,16,0,0,1,0,16.22l-4.46-4.46a10.1,10.1,0,0,0,0-7.3Zm-21.88,21.88,4.46-4.46a10.1,10.1,0,0,0,7.3,0l4.46,4.46A16,16,0,0,1,107.89,100.77Zm16.22-27.54-4.46,4.46a10.1,10.1,0,0,0-7.3,0l-4.46-4.46a15.92,15.92,0,0,1,16.22,0ZM172,111a24,24,0,1,0-17-7A23.92,23.92,0,0,0,172,111Zm-13.77-32.1,4.46,4.46a10.1,10.1,0,0,0,0,7.3l-4.46,4.46A16,16,0,0,1,158.23,78.89Zm27.54,0a16,16,0,0,1,0,16.22l-4.46-4.46a10.1,10.1,0,0,0,0-7.3Zm-21.88,21.88,4.46-4.46a10.1,10.1,0,0,0,7.3,0l4.46,4.46A16,16,0,0,1,163.89,100.77Zm16.22-27.54-4.46,4.46a10.1,10.1,0,0,0-7.3,0l-4.46-4.46a15.92,15.92,0,0,1,16.22,0ZM148,130a4,4,0,1,1-4-4A4,4,0,0,1,148,130Zm31,0v4H154v-8h17Zm-64-4h19v8H107v-4Z"/></svg>