<svg id="ART" xmlns="http://www.w3.org/2000/svg" viewBox="0 0 288 288">
  <defs>
    <style>
      .cls-1 {
        fill: #312d2a;
      }
    </style>
  </defs>
  <path class="cls-1" d="M230.93,119H150.66A37.29,37.29,0,0,0,158,97.07c0-24.26-24.67-44-55-44s-55,19.74-55,44c0,23.15,22.47,42.17,50.88,43.86v-8C74.89,131.32,56,115.85,56,97.07c0-19.85,21.08-36,47-36s47,16.15,47,36c0,8.25-3.65,15.85-9.76,21.93H113.07a9,9,0,0,0-9.07,8.93V198a9,9,0,0,0,9,9h89.79l21.4,28H240V128a9,9,0,0,0-9-9Zm.07,9v99h-2.8l-21.4-28H113.07a1.05,1.05,0,0,1-1.07-1V128a1.05,1.05,0,0,1,1.07-1H230.93C231.49,127,231,127.45,231,128ZM81,88a8,8,0,1,1-8,8A8,8,0,0,1,81,88Zm22,16a8,8,0,1,1,8-8A8,8,0,0,1,103,104Zm22,0a8,8,0,1,1,8-8A8,8,0,0,1,125,104ZM78,146a16,16,0,1,0,16,16A16,16,0,0,0,78,146Zm0,24a8,8,0,1,1,8-8A8,8,0,0,1,78,170ZM60,180a12,12,0,1,0,12,12A12,12,0,0,0,60,180Zm0,16a4,4,0,1,1,4-4A4,4,0,0,1,60,196Zm64-47h95v8H124Zm0,20h95v8H124Z"/>
</svg>
