<?xml version="1.0" encoding="utf-8"?>
<!-- Generator: Adobe Illustrator 24.0.3, SVG Export Plug-In . SVG Version: 6.00 Build 0)  -->
<svg version="1.1" id="Layer_1" xmlns="http://www.w3.org/2000/svg" xmlns:xlink="http://www.w3.org/1999/xlink" x="0px" y="0px"
	 viewBox="0 0 288 288" style="enable-background:new 0 0 288 288;" xml:space="preserve">
<style type="text/css">
	.st0{display:none;}
	.st1{display:inline;}
	.st2{fill:#00AEEF;}
	.st3{display:inline;fill:none;stroke:#00AEEF;stroke-miterlimit:10;}
	.st4{fill:#FCFBFA;}
</style>
<g id="Drawing" class="st0">
	<g class="st1">
		<path class="st2" d="M144,97.1c25.9,0,47,21.1,47,46.9s-21.1,46.9-47,46.9S97,169.9,97,144S118.1,97.1,144,97.1 M144,96.1
			c-26.5,0-48,21.5-48,47.9s21.5,47.9,48,47.9s48-21.5,48-47.9S170.5,96.1,144,96.1L144,96.1z"/>
	</g>
	<g class="st1">
		<path class="st2" d="M287,1v286H1V1H287 M288,0H0v288h288V0L288,0z"/>
	</g>
	<line class="st3" x1="96" y1="0" x2="96" y2="288"/>
	<line class="st3" x1="192" y1="0" x2="192" y2="288"/>
	<line class="st3" x1="0" y1="192" x2="288" y2="192"/>
	<line class="st3" x1="0" y1="96" x2="288" y2="96"/>
	<g class="st1">
		<path class="st2" d="M144,13.1c35,0,67.9,13.6,92.6,38.4s38.4,57.6,38.4,92.6s-13.6,67.9-38.4,92.6S179,275.1,144,275.1
			s-67.9-13.6-92.6-38.4S13,179.1,13,144.1s13.6-67.9,38.4-92.6S109,13.1,144,13.1 M144,12.1c-72.9,0-132,59.1-132,132
			s59.1,132,132,132s132-59.1,132-132S216.9,12.1,144,12.1L144,12.1z"/>
	</g>
	<g class="st1">
		<path class="st2" d="M240,13c6.1,0,11,4.9,11,11v240c0,6.1-4.9,11-11,11H48c-6.1,0-11-4.9-11-11V24c0-6.1,4.9-11,11-11H240
			 M240,12H48c-6.6,0-12,5.4-12,12v240c0,6.6,5.4,12,12,12h192c6.6,0,12-5.4,12-12V24C252,17.4,246.6,12,240,12L240,12z"/>
	</g>
	<g class="st1">
		<path class="st2" d="M264,37c6.1,0,11,4.9,11,11v192c0,6.1-4.9,11-11,11H24c-6.1,0-11-4.9-11-11V48c0-6.1,4.9-11,11-11H264
			 M264,36H24c-6.6,0-12,5.4-12,12v192c0,6.6,5.4,12,12,12h240c6.6,0,12-5.4,12-12V48C276,41.4,270.6,36,264,36L264,36z"/>
	</g>
	<g class="st1">
		<path class="st2" d="M247.8,25c8.4,0,15.2,6.8,15.2,15.2v207.6c0,8.4-6.8,15.2-15.2,15.2H40.2c-8.4,0-15.2-6.8-15.2-15.2V40.2
			C25,31.8,31.8,25,40.2,25H247.8 M247.8,24H40.2C31.3,24,24,31.3,24,40.2v207.6c0,8.9,7.3,16.2,16.2,16.2h207.6
			c8.9,0,16.2-7.3,16.2-16.2V40.2C264,31.3,256.7,24,247.8,24L247.8,24z"/>
	</g>
</g>
<g>
	<path class="st4" d="M190,86l-18.6-24.3l-0.2-0.2c-1.9-2.2-4.7-3.5-7.6-3.5h-38.3c-2.9,0-5.7,1.3-7.6,3.5L98.1,86H36v144h216V86
		H190z M123.7,66.7c0.4-0.5,1-0.7,1.6-0.7h38.3c0.6,0,1.1,0.2,1.5,0.7L179.9,86h-71.6L123.7,66.7z M244,222H44V94h56h88h56V222z"/>
	<path class="st4" d="M144,116c-23.2,0-42,18.8-42,42c0,23.2,18.8,42,42,42c23.2,0,42-18.8,42-42C186,134.8,167.2,116,144,116z
		 M144,192c-18.8,0-34-15.2-34-34s15.2-34,34-34s34,15.2,34,34S162.8,192,144,192z"/>
	<path class="st4" d="M64,98c-6.6,0-12,5.4-12,12s5.4,12,12,12s12-5.4,12-12S70.6,98,64,98z M64,114c-2.2,0-4-1.8-4-4s1.8-4,4-4
		s4,1.8,4,4S66.2,114,64,114z"/>
	<rect x="126.4" y="72" class="st4" width="35.8" height="8"/>
	<rect x="164" y="154" class="st4" width="8" height="8"/>
	<path class="st4" d="M144,130v8c7.4,0,13.8,3.2,17.3,8h9.1C166.5,136.7,156.2,130,144,130z"/>
	<path class="st4" d="M104.4,118.4c-21.8,21.8-21.8,57.4,0,79.2C115,208.2,129,214,144,214c15,0,29-5.8,39.6-16.4
		c6.7-6.7,11.5-14.8,14.1-23.6h5.1c6.2,0,11.2-4.5,11.2-10v-12c0-5.5-5-10-11.2-10h-5.1c-2.6-8.8-7.4-16.9-14.1-23.6
		C161.8,96.6,126.2,96.6,104.4,118.4z M199.4,150h3.4c1.8,0,3.2,1.1,3.2,2v12c0,0.9-1.4,2-3.2,2h-3.4c0.4-2.6,0.6-5.3,0.6-8
		S199.8,152.6,199.4,150z M177.9,191.9C168.9,201,156.8,206,144,206s-24.9-5-33.9-14.1c-18.7-18.7-18.7-49.2,0-67.9
		c9.4-9.4,21.7-14,33.9-14c12.3,0,24.6,4.7,33.9,14c9.1,9.1,14.1,21.1,14.1,33.9S187,182.9,177.9,191.9z"/>
</g>
</svg>
