<svg id="ART" xmlns="http://www.w3.org/2000/svg" viewBox="0 0 288 288"><defs><style>.cls-1{fill:#fcfbfa;}</style></defs><path class="cls-1" d="M90,204h118.4l17.18-89H107.26Zm49.81-27H168l-3.7,19H136.08Zm1.56-8L145,150h28.27l-3.7,19Zm40.11-19h29.19L207,169H177.74Zm-6.6-8H146.58l3.69-19h28.27Zm-41.66,27H104.91l3.69-19h28.27Zm-29.83,8h28.27l-3.69,19H99.66Zm69.14,19,3.7-19h29.23l-3.66,19Zm39.69-54H183l3.7-19h29.16Zm-70.06-19-3.69,19H110.16l3.69-19Zm95.69,4-17.9,91H98.81L88,214l.77-4H213.31l18.34-95h4.16Zm-127-47a40.07,40.07,0,0,1,38.45,29h-8.4a32,32,0,1,0-46.07,38.69l-1.6,8.21A40,40,0,0,1,110.81,80Zm-44.9,30-17.34-5.48L51,96.92l17.34,5.48A44.57,44.57,0,0,0,65.91,110Zm68.36-29.57a45.52,45.52,0,0,0-7.2-3.48L135,60.59l7.21,3.47ZM78.44,87.35l-11.64-14L73,68.24l11.64,14A47,47,0,0,0,78.44,87.35ZM101.23,75,99,57l7.94-1L109.17,74A46.08,46.08,0,0,0,101.23,75Zm50.7,24.41a46.76,46.76,0,0,0-4.19-6.81l15.5-9.53,4.19,6.82ZM67.64,135.88,50.1,140.65,48,132.93l17.55-4.77A45.29,45.29,0,0,0,67.64,135.88Zm15.45,20.81L70.9,170.2,65,164.84l12.2-13.52A47.21,47.21,0,0,0,83.09,156.69Z"/></svg>