<svg id="ART" xmlns="http://www.w3.org/2000/svg" viewBox="0 0 288 288"><defs><style>.cls-1{fill:#312d2a;}</style></defs><path class="cls-1" d="M183,120h-2.67a42.73,42.73,0,0,1-5.33-.33V233H113V91h18.34l-5.58-5.59L123.34,83H105V233H97v8h94v-8h-8Z"/><path class="cls-1" d="M155.78,195.78a15.21,15.21,0,0,0,1.84-7.68q0-6.89-3.92-10.45c-2.61-2.38-6.31-3.65-11.7-3.65H129v46h9V202l3.19.38L149,220h10l-9.34-19.46A11.13,11.13,0,0,0,155.78,195.78ZM142,196h-4V181h4c4.55,0,6.39,2.85,6.39,7.61S146.55,196,142,196Z"/><path class="cls-1" d="M169,119H119v29h50Zm-8,21H127V127h34Z"/><rect class="cls-1" x="125" y="154" width="38" height="8"/><path class="cls-1" d="M147.73,105H125v8h31.83A43.13,43.13,0,0,1,147.73,105Z"/><path class="cls-1" d="M179.83,106A29,29,0,0,1,151,79.79l7,7,5.66-5.66L146.83,64.34,130,81.17l5.66,5.66,7.27-7.27a37,37,0,0,0,68.31,17l-5.85-5.85A29.09,29.09,0,0,1,179.83,106Z"/><path class="cls-1" d="M224,67.17l-7.27,7.27a37,37,0,0,0-68.31-17l5.85,5.85a29,29,0,0,1,54.42,10.91l-7-7L196,72.83l16.83,16.83,16.83-16.83Z"/><polygon class="cls-1" points="176 59 176 80.66 190.17 94.83 195.83 89.17 184 77.34 184 59 176 59"/></svg>