<?xml version="1.0" encoding="utf-8"?>
<!-- Generator: Adobe Illustrator 24.0.3, SVG Export Plug-In . SVG Version: 6.00 Build 0)  -->
<svg version="1.1" id="ART" xmlns="http://www.w3.org/2000/svg" xmlns:xlink="http://www.w3.org/1999/xlink" x="0px" y="0px"
	 viewBox="0 0 288 288" style="enable-background:new 0 0 288 288;" xml:space="preserve">
<style type="text/css">
	.st0{fill:#FCFBFA;}
</style>
<path class="st0" d="M99,109.3l-22,8v-8.2l-20,8V98H35v61h64V109.3z M91,151H43v-45h6v22.9l20-8v7.8l22-8V151z M49,137h8v8h-8V137z
	 M63,137h8v8h-8V137z M77,137h8v8h-8V137z M163.5,208v-14H106v39h7.1c-0.6,3.3,1.6,6.4,4.8,7c3.3,0.6,6.4-1.6,7-4.8
	c0.1-0.7,0.1-1.5,0-2.2h7.2c-0.6,3.3,1.6,6.4,4.8,7c3.3,0.6,6.4-1.6,7-4.8c0.1-0.7,0.1-1.5,0-2.2h20.2c-0.6,3.3,1.6,6.4,4.8,7
	c3.3,0.6,6.4-1.6,7-4.8c0.1-0.7,0.1-1.5,0-2.2h6.1v-14.3l-8-10.7H163.5z M155.5,224.9H114V202h41.5V224.9L155.5,224.9z M163.5,216
	h6.5l4,5.3v3.7h-10.5V216z M214,117h8v8h-8V117z M186,117h8v8h-8V117z M236,131v-21.3c4.2-2.6,5.6-8.1,3-12.4
	c-0.1-0.2-0.2-0.4-0.3-0.5l-5.6-7.8h-58.1l-5.6,7.8c-2.9,4-2,9.7,2.1,12.6c0.2,0.1,0.3,0.2,0.5,0.3V131l-8,4v4h80v-4L236,131z
	 M175.9,101.4l3.2-4.4h49.9l3.2,4.4c0.2,0.3,0.2,0.7,0.1,1c-0.2,0.3-0.5,0.6-0.9,0.5h-54.6c-0.4,0-0.7-0.2-0.9-0.5
	C175.7,102.1,175.7,101.7,175.9,101.4z M208,131v-14h-8v14h-20v-20h48v20H208z M144,66c17.6,0,34.8,6,48.5,17h12
	C170.9,49.5,116.5,49.7,83,83.4c-6.8,6.8-12.4,14.8-16.6,23.5l11.8-4.7C92.5,79.6,117.3,66,144,66z M68.9,165h-8.3
	c5.6,22.1,19.8,41.1,39.4,52.9v-9.5C84.9,198,73.9,182.6,68.9,165z M183.8,211.1l4.9,6.4c25.3-15.4,41-42.8,41.3-72.4h-8
	C221.6,172.2,207.2,197.2,183.8,211.1z"/>
</svg>
