<svg id="ART" xmlns="http://www.w3.org/2000/svg" viewBox="0 0 288 288"><defs><style>.cls-1{fill:#fcfbfa;}</style></defs><path class="cls-1" d="M74,60a1,1,0,0,1,1-1h38.66a1,1,0,0,1,.79.39L125,73h88a1,1,0,0,1,1,1V95.27l8,8.27V74a9,9,0,0,0-9-9H128.91l-8.13-10.51A9.07,9.07,0,0,0,113.66,51H75a9,9,0,0,0-9,9V179H88v-8H74Z"/><polygon class="cls-1" points="102 96 94 96 94 245 204 245 204 237 102 237 102 96"/><path class="cls-1" d="M192.68,82H108V231H222.07V111.93ZM192,92.73,210.92,112H192ZM116,223V90h68v30h30.07V223Z"/></svg>