<?xml version="1.0" encoding="utf-8"?>
<!-- Generator: Adobe Illustrator 24.0.3, SVG Export Plug-In . SVG Version: 6.00 Build 0)  -->
<svg version="1.1" id="icon_art" xmlns="http://www.w3.org/2000/svg" xmlns:xlink="http://www.w3.org/1999/xlink" x="0px" y="0px"
	 viewBox="0 0 288 288" style="enable-background:new 0 0 288 288;" xml:space="preserve">
<style type="text/css">
	.st0{fill:#FCFBFA;}
</style>
<title>RMIL_Business_Newsletter_Air_RGB</title>
<path class="st0" d="M94,125h100V97H94V125z M102,105h84v12h-84V105z M148,177h46v-40h-46V177z M156,145h30v24h-30V145z M94,137h46
	v8H94V137z M94,169h46v8H94V169z M94,153h46v8H94V153z M94,185h46v8H94V185z M94,201h46v8H94V201z M148,185h46v8h-46V185z M148,201
	h46v8h-46V201z M181.7,48H74v181h140V80.3L181.7,48z M181,58.7L203.3,81H181V58.7z M206,221H82V56h91v33h33V221z M74,239l8,4v0h124
	v0l8-4v-4H74V239z"/>
</svg>
