<svg id="icon_art" data-name="icon art" xmlns="http://www.w3.org/2000/svg" viewBox="0 0 288 288">
  <defs>
    <style>
      .cls-1 {
        fill: #fcfbfa;
      }

      .cls-2, .cls-3, .cls-4 {
        fill: none;
        stroke: #fcfbfa;
      }

      .cls-2, .cls-4 {
        stroke-miterlimit: 10;
      }

      .cls-2 {
        stroke-width: 6px;
      }

      .cls-3 {
        stroke-linejoin: round;
      }

      .cls-3, .cls-4 {
        stroke-width: 8px;
      }
    </style>
  </defs>
  <path class="cls-1" d="M207,145h23.62l1.13-2.09a42,42,0,0,0-29.12-61.62,15.7,15.7,0,0,1-11-9A40.09,40.09,0,0,0,124.73,63a12.3,12.3,0,0,1-10.45,4.38,36.37,36.37,0,0,0-24.44,6.37A36,36,0,0,0,75.37,95.44,15.93,15.93,0,0,1,67,106.08a40.4,40.4,0,0,0-21.9,34.81L45,145H71v-8H53.48a32.4,32.4,0,0,1,17.18-23.8,23.91,23.91,0,0,0,12.51-16,28.1,28.1,0,0,1,30.31-21.82,20.45,20.45,0,0,0,17.31-7.12,32.09,32.09,0,0,1,53.54,7.39,23.77,23.77,0,0,0,16.81,13.51A34,34,0,0,1,225.77,137H207Z"/>
  <line class="cls-2" x1="105.87" y1="128.87" x2="114.9" y2="119.84"/>
  <line class="cls-2" x1="116.73" y1="139.73" x2="125.76" y2="130.7"/>
  <path class="cls-3" d="M178.6,113.15l-73,73a21.67,21.67,0,0,0-4.14,5.81L89.82,215.78l23.55-12.31a21.93,21.93,0,0,0,5.29-3.88l73.19-73.19a9.4,9.4,0,0,0,2.74-6.62h0a9.37,9.37,0,0,0-9.37-9.37h0A9.4,9.4,0,0,0,178.6,113.15Z"/>
  <line class="cls-3" x1="103.31" y1="188.86" x2="116.16" y2="201.73"/>
  <line class="cls-3" x1="170.36" y1="121.81" x2="183.21" y2="134.68"/>
  <line class="cls-2" x1="176.13" y1="199.13" x2="185.16" y2="190.1"/>
  <line class="cls-2" x1="165.27" y1="188.27" x2="174.3" y2="179.24"/>
  <path class="cls-4" d="M134.92,139.86l-30.15-30.15a2.41,2.41,0,0,0-3.41,0L86.71,124.36a2.41,2.41,0,0,0,0,3.41l30.15,30.15"/>
  <path class="cls-4" d="M147.08,188.14l30.15,30.15a2.4,2.4,0,0,0,3.41,0l14.65-14.65a2.41,2.41,0,0,0,0-3.41l-30.15-30.15"/>
</svg>
