<svg id="ART" xmlns="http://www.w3.org/2000/svg" viewBox="0 0 288 288"><defs><style>.cls-1{fill:#fcfbfa;}</style></defs><path class="cls-1" d="M97.32,135.75c.11.06.22.09.33.14L95,159.56l8,.88,2.61-23.54a12.91,12.91,0,0,0,2-.52,13.42,13.42,0,0,0,9-14.21l17.06-35,41.1,20.17a18,18,0,0,0,5,8.43L176.61,188H159.07v30H225V188H207.42l-3.14-72.23A17.87,17.87,0,0,0,192,84.88a17.39,17.39,0,0,0-4.29.55v0l-46-22.13a14.8,14.8,0,0,0-6.27-5.76h0a14.93,14.93,0,0,0-20.77,18l-.53-.25-18,37a13.36,13.36,0,0,0-5,5.55h0A13.47,13.47,0,0,0,97.32,135.75Zm10.8-9.7a5.46,5.46,0,1,1-2.51-7.29A5.45,5.45,0,0,1,108.12,126.05ZM142.37,77.5a15.14,15.14,0,0,0,1.35-4.4l35.57,17.11a18,18,0,0,0-4.61,8.2L139.75,81.26A15.35,15.35,0,0,0,142.37,77.5ZM217,196v14H167V196Zm-17.58-8H184.61l2.95-67.91a17.4,17.4,0,0,0,8.91,0Zm2.49-85.22a9.9,9.9,0,1,1-9.9-9.9A9.91,9.91,0,0,1,201.91,102.78ZM122.69,67.91a6.89,6.89,0,0,1,4-3.53,7.07,7.07,0,0,1,2.27-.38,6.87,6.87,0,0,1,3,.71h0a6.95,6.95,0,1,1-9.28,3.2Zm-3.17,14.64a15,15,0,0,0,2.86,1.83,14.73,14.73,0,0,0,3.16,1.13l-13.61,27.92a13.15,13.15,0,0,0-6-2.94ZM237,228v4H51v-4l8-4H229ZM134,172H64v46h70Zm-8,38H72V180h54Zm-18.83-49.83,12-12,5.66,5.66-12,12Zm-22,5.66-12-12,5.66-5.66,12,12Z"/></svg>