<?xml version="1.0" encoding="utf-8"?>
<!-- Generator: Adobe Illustrator 24.0.3, SVG Export Plug-In . SVG Version: 6.00 Build 0)  -->
<svg version="1.1" id="ART" xmlns="http://www.w3.org/2000/svg" xmlns:xlink="http://www.w3.org/1999/xlink" x="0px" y="0px"
	 viewBox="0 0 288 288" style="enable-background:new 0 0 288 288;" xml:space="preserve">
<style type="text/css">
	.st0{fill:#FCFBFA;}
</style>
<path class="st0" d="M60,186v4h89V97H60V186z M68,178.4c0-6.7,6-12.5,12.8-12.5h11.4l12.5,13.5l12.2-13.4H129
	c6.7,0.1,12.1,5.7,12,12.4v3.6H68V178.4z M111,129c2.1,0,4.1-0.4,6-1.2v10.4c0,6.8-5.5,12.4-12.4,12.6c-7,0-12.6-5.3-12.6-11.8v-10
	H111z M92.6,121c1.4-4,4.9-4,6.4-4h17.6c-0.6,2.5-3,4.2-5.6,4H92.6z M98,157.7c2.1,0.7,4.4,1.1,6.6,1.1c2.2,0,4.3-0.4,6.4-1.1v2.8
	l-6.4,7.1l-6.6-7.2V157.7z M141,105v57.1c-3.4-2.7-7.7-4.1-12-4.1h-10v-5.3c3.8-3.8,6-9,6-14.4V109H99c-9.2,0-15,6.1-15,16v14
	c0,5.3,2.2,10.3,6,14v5h-9.2c-4.6,0-9.2,1.6-12.8,4.4V105H141z M224,196H54V91h122.6c0.5-2.7,1.2-5.4,2.2-8H46v121h186v-67.9
	c-2.6,1-5.3,1.8-8,2.2V196z M176.6,105H157v8h21.9C177.8,110.4,177.1,107.7,176.6,105z M157,146h58v8h-58V146z M157,174h58v8h-58
	V174z M157,160h50v8h-50V160z M157,119h18v8h-18V119z M217,63c-19.3,0-35,15.7-35,35s15.7,35,35,35s35-15.7,35-35S236.3,63,217,63z
	 M217,125c-14.9,0-27-12.1-27-27s12.1-27,27-27s27,12.1,27,27S231.9,125,217,125z M212.2,101.7l-6.4-6.4l-5.7,5.6l12,12l21.6-21.6
	l-5.7-5.7L212.2,101.7z"/>
</svg>
