<svg id="icon_art" data-name="icon art" xmlns="http://www.w3.org/2000/svg" viewBox="0 0 288 288"><defs><style>.cls-1{fill:#fcfbfa;}</style></defs><title>RMIL_Business_Incentives_Air_RGB</title><path class="cls-1" d="M232,80H183.57A28,28,0,0,0,144,59.71,28,28,0,0,0,104.43,80H56v33H68V231H220V113h12Zm-56.63.14h-15.8A28,28,0,0,0,152,65.41a20.55,20.55,0,0,1,4-.41A20,20,0,0,1,175.37,80.14ZM212,173H160V157h52Zm-60,50H136V113h16ZM76,157h52v16H76Zm60-52V88h16v17Zm8-36a20,20,0,0,1,7.37,11.1H136.63A20,20,0,0,1,144,69Zm-12-4a20.55,20.55,0,0,1,4,.41,28,28,0,0,0-7.6,14.73h-15.8A20,20,0,0,1,132,65ZM64,88h64v17H64Zm64,25v36H76V113ZM76,181h52v42H76Zm84,42V181h52v42Zm52-74H160V113h52Zm12-44H160V88h64Z"/></svg>