<svg id="icon_art" data-name="icon art" xmlns="http://www.w3.org/2000/svg" viewBox="0 0 288 288"><defs><style>.cls-1{fill:#fcfbfa;}</style></defs><title>RMIL_Technology</title><path class="cls-1" d="M113.48,110.33a42,42,0,1,1,70.43.29l-5.81-5.81a34,34,0,0,0-25.64-51,35.32,35.32,0,0,0-3.71-.2,34,34,0,0,0-29.45,50.94Zm78,126.92L215.9,184.1a4.28,4.28,0,0,0,.25-.68,19.59,19.59,0,0,0,.46-2.45,17.44,17.44,0,0,0-9.29-17.41l-.29-.14-39.25-16.7-7.27-57.79a11.85,11.85,0,0,0-23.63-1s0,.09,0,.13L131,165.68,124,172.52a120.86,120.86,0,0,0-20.07-18.19C85.68,141,72.32,157,72.19,157.2a4,4,0,0,0-.25,4.71l50,76.59.08.12a9,9,0,0,0,7.35,3.81h53.92A9.06,9.06,0,0,0,191.44,237.25Zm-111-76.95c3.25-2.57,10-5.9,18.73.49,14.24,10.4,21.1,19.87,21.16,20a4,4,0,0,0,6,.56l11.32-10.93a4,4,0,0,0,1.22-2.58l5.93-79a3.85,3.85,0,0,1,7.68.46,4.15,4.15,0,0,0,0,.49L160.13,150a4,4,0,0,0,2.41,3.19l41.2,17.52a9.47,9.47,0,0,1,4.91,9.39,9.67,9.67,0,0,1-.17,1l-24.29,52.75a1,1,0,0,1-.9.57H129.37a1,1,0,0,1-.79-.39ZM129.86,94a20,20,0,0,1,18.88-26.39,20.46,20.46,0,0,1,2.21.12,20,20,0,0,1,17.71,22,19.69,19.69,0,0,1-1.07,4.56l6.08,6.08a28,28,0,1,0-49.92-.31Z"/></svg>