<?xml version="1.0" encoding="utf-8"?>
<!-- Generator: Adobe Illustrator 28.0.0, SVG Export Plug-In . SVG Version: 6.00 Build 0)  -->
<svg version="1.1" id="ART" xmlns="http://www.w3.org/2000/svg" xmlns:xlink="http://www.w3.org/1999/xlink" x="0px" y="0px"
	 viewBox="0 0 288 288" style="enable-background:new 0 0 288 288;" xml:space="preserve">
<style type="text/css">
	.st0{fill:#312D2A;}
</style>
<g>
	<path class="st0" d="M245.7,133.5l-23.2,10.6c-3.2,3.7-6.4,7.6-9.4,11.4c-2.7,3.4-5.4,6.9-8.1,10.4c0.5,1.1,0.8,2.3,0.8,3.6
		c0.2,4.6-1.3,8.9-4.1,11.6c-2.7,2.6-6.2,3.9-10.5,3.9c-0.8,0-1.6,0-2.4-0.1c-0.2,0.8-0.5,1.7-0.9,2.6c-0.2,0.5-2.5,5.3-7,7.9
		c-1,0.6-2.1,1.1-3.2,1.4c-0.3,0.1-2.3,0.7-5,0.7c-0.6,0-1.3,0-2-0.1c0,0,0,0-0.1,0c0,0,0,0,0,0h0c0,0,0,0,0,0c-1-0.1-2,0.3-2.5,1
		c-1.9,2.9-4.7,5.1-8,6.1c-0.5,0.2-2,0.6-4,0.6c-1,0-2.2-0.1-3.5-0.4c-0.4-0.1-0.8-0.2-1.2-0.4c-0.2,0.1-0.3,0.3-0.5,0.4
		c-0.1,0.1-0.2,0.1-0.3,0.2c0,0-0.2,0.1-0.3,0.2c-1.4,1.2-9.5,4.2-12.1,4.5c-0.5,0.1-1.1,0.1-1.6,0.1c-8,0-18.9-6.2-33.1-19
		C97.1,185,91.2,179,87.4,175c-3.9-4.1-5.8-6.2-6.8-7.5l0,0c-4.9-5.7-9.8-11.6-14.3-17.6l-24-11.3l3.4-7.2l24.9,11.8
		c0.6,0.3,1.1,0.7,1.5,1.2c4.7,6.1,9.6,12.2,14.6,18c0,0,0,0,0,0c0.2,0.3,9.3,10.7,20.4,20.9c19.2,17.6,27.6,18.8,30.2,18.5
		c1-0.1,4.3-1.3,6.5-2.2c-8.4-7.1-17.5-19.2-20.8-23.8l6.5-4.7c12.8,17.7,22,25.3,24.7,25.9c2,0.4,3.4,0,3.4,0c0,0,0.1,0,0.1,0
		c0,0,0,0,0.1,0c1.5-0.4,2.7-1.4,3.6-2.8c0.3-0.5,0.8-1,1.2-1.5c-9.8-8.3-22.5-24.6-23.2-25.5l6.3-4.9
		c13.4,17.1,23.7,26.3,26.2,27.3c1.9,0.2,3.5-0.3,3.5-0.3c0.5-0.2,1.1-0.4,1.6-0.7c2-1.1,3.4-3.6,3.7-4.2c0.3-0.6,0.5-1.2,0.6-1.8
		c-3.2-1.8-6.3-4.7-10.3-8.8c-5.8-6-11.4-12.4-16.5-19.1l6.3-4.9c5,6.5,10.4,12.7,15.9,18.4c5.2,5.3,8,7.6,10.8,8.4
		c0.5,0.2,1,0.3,1.6,0.3c0.1,0,0.1,0,0.2,0c1.2,0.2,4.8,0.6,6.9-1.5c1.2-1.1,1.8-3.2,1.7-5.5c0-0.6-0.3-1.1-0.7-1.5l-43.2-44.4
		c-0.9-0.9-2.2-1-3.2-0.3c-3.3,2.1-6.8,3.7-10.5,4.8c-3.3,1-6.8,1.5-10.2,1.5c-0.8,0-1.5,0.3-1.9,0.9c-6.2,8-16,12-24.7,10.2
		c-3-0.7-5.9-2-8.5-3.9c-4.4-3.3-5.5-9.5-2.5-14.1c5.4-8.3,11.8-15.9,19.2-22.5c0.2-0.2,0.4-0.3,0.6-0.5H85.9L60.4,88.6l3.2-7.3
		l24,10.5h34.6c3.9-2.7,7.9-5.2,12.1-7.4c1.8-0.9,3.7-1.3,5.6-1.2c8.1,0.6,14.3,1.2,18,2.6c14.2,5.2,21.4,7.8,27.7,7.1
		c2.4-0.3,6.2-1.9,12.9-4.7c7.1-3,14-6.3,20.7-9.8l3.8,7c-6.9,3.7-14,7.1-21.3,10.2c-7.7,3.2-11.6,4.9-15.1,5.3
		c-8.1,1-15.9-1.9-31.4-7.5c-3-1.1-9.7-1.7-15.8-2.1c-0.4,0-0.9,0.1-1.3,0.3c-7.7,4-14.8,9-21.2,14.8c-6.8,6.1-12.8,13.2-17.8,20.9
		c-0.7,1.1-0.5,2.6,0.6,3.4c1.7,1.3,3.5,2.1,5.4,2.5c5.8,1.2,12.4-1.6,16.8-7.3c1.9-2.5,4.9-3.9,8.1-4c2.8,0,5.5-0.4,8.2-1.2
		c3-0.9,5.8-2.1,8.4-3.8c4.2-2.7,9.8-2.1,13.3,1.5l40.2,41.2c2.3-3,4.7-6.1,7-9c3.3-4.1,6.7-8.2,10.2-12.2c0.4-0.4,0.8-0.8,1.4-1
		l24-11L245.7,133.5z"/>
</g>
<g id="Annotations_00000122681919041100526550000008728122085437856441_">
</g>
<g id="Annotations">
</g>
</svg>
