<?xml version="1.0" encoding="utf-8"?>
<!-- Generator: Adobe Illustrator 24.0.3, SVG Export Plug-In . SVG Version: 6.00 Build 0)  -->
<svg version="1.1" id="icon_art" xmlns="http://www.w3.org/2000/svg" xmlns:xlink="http://www.w3.org/1999/xlink" x="0px" y="0px"
	 viewBox="0 0 288 288" style="enable-background:new 0 0 288 288;" xml:space="preserve">
<style type="text/css">
	.st0{fill:#312D2A;}
</style>
<title>RMIL_Business_Editorial_Guidelines_Bark_RGB</title>
<path class="st0" d="M128,178h40v8h-40V178z M206,221H82V56h91v33h33v63l8-8V80.3L181.7,48H74v181h140v-37l-8,8V221z M203.3,81H181
	V58.7L203.3,81z M74,235v4l8,4l0,0h124l0,0l8-4v-4H74z M256.5,141.3l10.1-10.1L251,115.6L176.7,190l-3.3,18.9l18.9-3.3l58.6-58.6
	l3.8,3.8c0.4,0.4,0.4,1,0,1.4L229.9,177l5.7,5.7l24.8-24.8c3.5-3.5,3.5-9.2,0-12.7l0,0L256.5,141.3z M255.3,131.2l-4.5,4.5l-4.2-4.2
	l4.5-4.5L255.3,131.2z M188.3,198.2l-5.1,0.9l0.9-5.1l56.9-56.9l4.2,4.2L188.3,198.2z M128,158h60v8h-60V158z M128,101h60v8h-60V101
	z M128,121h51v8h-51V121z M116.2,102.4l-16,16l-6.4-6.4l-5.7,5.7l12,12l21.6-21.6L116.2,102.4z M113.2,158l-8.2,8.2l-8.2-8.2
	l-5.7,5.7l8.2,8.2l-8.2,8.2l5.7,5.7l8.2-8.2l8.2,8.2l5.7-5.7l-8.2-8.2l8.2-8.2L113.2,158z"/>
</svg>
