<?xml version="1.0" encoding="UTF-8"?>
<svg id="ART" xmlns="http://www.w3.org/2000/svg" viewBox="0 0 288 288">
  <defs>
    <style>
      .cls-1 {
        fill: #312d2a;
      }
    </style>
  </defs>
  <g>
    <path class="cls-1" d="M153.69,147.52c-7.15,1.36-16.83,2.39-28.59,2.39-6.53,0-12.41-.32-17.58-.83-.38-.04-.75-.08-1.12-.12-8.54-.92-15.02-2.38-19.09-3.81-.25-.09-.49-.18-.72-.27-.8-.3-1.49-.6-2.07-.9-.19-.09-.37-.19-.54-.29-.49-.27-.87-.54-1.14-.8-.1-.09-.18-.17-.24-.26v-18.61c.12.05.23.1.35.15.24.1.48.2.72.29.22.09.45.18.68.26.3.12.61.23.92.34.44.15.89.3,1.35.44.52.17,1.04.32,1.57.47.45.13.92.25,1.39.37.51.14,1.02.26,1.54.38.42.1.83.19,1.26.29,1.8.39,3.66.73,5.53,1.02.75.12,1.5.23,2.25.34,1.9.26,3.79.48,5.64.68,1.08.1,2.14.2,3.18.29,3.2.26,6.18.42,8.71.53.38.02.76.03,1.12.04.36.01.72.02,1.05.03.73.02,1.4.04,2.01.05.15.01.3.01.44.01.29.01.56.01.81.01.89.02,1.56.02,1.98.02.79,0,1.58,0,2.37-.02.37,0,.73-.01,1.1-.02.3,0,.61,0,.91-.02.95-.03,2.03-.06,3.19-.11h.1c-1.43-2.47-2.6-5.11-3.48-7.88-.26,0-.52.02-.78.02-.52.01-1.05.02-1.58.02-.61.01-1.22.01-1.83.01-1.53,0-3.03-.02-4.48-.05-.35,0-.7-.01-1.04-.02-1.09-.03-2.16-.07-3.2-.11-.69-.03-1.37-.07-2.04-.1-.46-.03-.91-.05-1.36-.08-1.52-.1-2.98-.21-4.39-.33-.59-.05-1.18-.11-1.75-.17-.55-.05-1.08-.11-1.61-.17-.08-.01-.16-.02-.24-.02-.52-.06-1.04-.13-1.54-.19-1.63-.21-3.17-.43-4.61-.67-.48-.07-.96-.15-1.42-.24-4.33-.77-7.74-1.67-10.22-2.55-.27-.09-.52-.19-.77-.29-.51-.19-.98-.39-1.4-.59-.18-.07-.34-.15-.5-.24-.22-.1-.42-.21-.6-.32-.16-.09-.31-.18-.45-.27-.17-.11-.32-.22-.45-.32,0,0,.01,0,.01,0,2.73-2.15,13.6-5.6,32.69-6.51.07-2.74.42-5.44,1.04-8.06-10.54.43-20.26,1.69-27.49,3.58-9.18,2.4-13.84,5.54-14.57,9.84-.03.17-.05.34-.05.34-.04.32-.06.6-.06.81v81.94c0,14.51,45.33,14.93,50.5,14.93s50.5-.42,50.5-14.93v-48.06c-2.61.54-5.3.82-8.06.82-4.86,0-9.53-.87-13.85-2.47ZM167.61,196.87c-2.13,2.7-17.64,7.29-42.5,7.29s-40.37-4.59-42.5-7.29v-17.92c.83.37,1.7.71,2.62,1.04,1.83.64,3.82,1.21,5.9,1.7.42.1.83.2,1.26.29,1.08.23,2.18.45,3.29.66.75.13,1.49.26,2.24.38,1.87.3,3.76.55,5.62.77.37.04.75.09,1.12.13.74.08,1.47.15,2.2.22.54.05,1.08.11,1.62.15.43.04.86.07,1.28.11.11,0,.21.01.31.02.35.03.69.05,1.03.08.31.02.62.04.93.07.65.04,1.28.08,1.91.12.23.01.47.02.7.04.07,0,.13,0,.2,0,.11,0,.21.01.32.02.37.01.73.03,1.08.05.27.01.53.02.79.04.38.01.75.03,1.11.04.55.02,1.07.04,1.56.06h.25c.31.01.61.02.89.03.37,0,.71,0,1.04.02.15.01.3.01.44.01,1.3.03,2.26.03,2.79.03s1.49,0,2.79-.03c.15,0,.29,0,.45-.01.32-.01.66-.01,1.02-.02.29-.01.6-.02.92-.03h.21c.5-.02,1.03-.04,1.58-.06.36-.01.73-.03,1.11-.04.26-.02.52-.03.79-.04.36-.02.73-.04,1.11-.06.09,0,.18-.01.27-.01.04,0,.07,0,.11,0,.26-.01.53-.03.8-.04.3-.02.61-.04.93-.06.31-.02.63-.04.95-.06.01-.01.02-.01.04,0,.3-.03.62-.05.93-.07.34-.03.68-.05,1.03-.08.1-.01.2-.02.31-.02.42-.04.85-.07,1.28-.11.54-.04,1.08-.1,1.62-.15.73-.07,1.46-.14,2.2-.22.37-.04.75-.09,1.12-.13,1.86-.22,3.75-.47,5.62-.77.75-.12,1.49-.25,2.24-.38,1.11-.21,2.21-.43,3.29-.66.43-.09.84-.19,1.26-.29,2.08-.49,4.07-1.06,5.9-1.7.92-.33,1.79-.67,2.62-1.04v17.92ZM167.61,169.75c-.06.09-.14.17-.24.26-.13.12-.3.26-.49.39-.09.07-.19.13-.3.2-.11.07-.23.14-.35.21-.17.1-.35.2-.54.29-.09.05-.18.09-.27.14-.13.06-.26.12-.4.18-.21.1-.43.2-.67.29-.23.1-.47.2-.73.29-.23.09-.47.18-.72.27-.06.02-.12.04-.18.06-.56.2-1.17.4-1.83.59-.25.08-.52.15-.78.23-.26.07-.53.15-.8.22-.36.1-.73.19-1.11.28-.22.06-.44.12-.67.17-.41.1-.83.19-1.26.29-.8.18-1.62.35-2.49.51-.12.03-.25.05-.37.07-.16.03-.31.06-.47.09-.77.14-1.56.28-2.38.41-.36.06-.73.12-1.11.17-.26.04-.53.08-.8.12-.65.09-1.32.19-2,.27-.47.06-.94.12-1.42.18s-.97.11-1.46.16c-.68.07-1.37.14-2.07.21-.7.07-1.41.13-2.13.19h-.07c-.71.06-1.44.11-2.17.16-.87.06-1.76.11-2.67.16-.66.03-1.33.06-2,.08-.81.04-1.62.06-2.45.08-.82.03-1.66.04-2.51.05-.85.01-1.72.02-2.59.02s-1.74-.01-2.59-.02c-.85-.01-1.69-.02-2.52-.05-.85-.02-1.69-.04-2.51-.08-.61-.02-1.21-.05-1.81-.08-.4-.02-.8-.04-1.2-.06-2.86-.16-5.56-.39-8.07-.66-.97-.1-1.91-.22-2.83-.33-.34-.05-.68-.09-1.01-.14-.66-.09-1.29-.18-1.91-.27-.34-.06-.67-.11-1-.16-.73-.11-1.43-.24-2.11-.36-.17-.04-.34-.07-.51-.1-.77-.14-1.51-.28-2.22-.44-2.14-.45-4.02-.92-5.63-1.41-.29-.09-.57-.18-.84-.27-.36-.11-.71-.23-1.03-.34-.25-.09-.49-.18-.72-.27-.53-.2-1.02-.4-1.45-.6-.22-.1-.43-.2-.62-.3-.2-.09-.37-.19-.54-.29-.12-.07-.24-.14-.35-.21-.11-.07-.21-.13-.3-.2-.19-.13-.36-.27-.49-.39-.1-.09-.18-.17-.24-.26v-17.92c.12.05.23.1.35.15.27.12.54.23.82.33,1.97.8,4.18,1.47,6.52,2.05.34.09.68.17,1.02.25,1.42.33,2.88.63,4.36.9.75.13,1.49.26,2.24.38,1.87.3,3.76.56,5.62.77.37.05.75.09,1.12.13,2.22.24,4.39.43,6.44.58.57.04,1.13.08,1.67.12.24.01.48.03.72.04.48.03.95.06,1.41.08.98.05,1.92.1,2.8.14.55.02,1.08.03,1.58.05.96.03,1.83.06,2.6.07.15.01.3.01.44.01.29.01.56.01.81.01.89.02,1.57.02,1.98.02.53,0,1.5,0,2.79-.03.15,0,.29,0,.45-.01.91-.02,1.97-.04,3.14-.09.33-.01.68-.02,1.03-.03.88-.04,1.82-.09,2.81-.14.45-.02.92-.05,1.4-.08.24-.01.48-.03.72-.04.55-.04,1.11-.08,1.67-.12,2.06-.15,4.23-.34,6.44-.58.37-.04.75-.08,1.12-.13,1.87-.21,3.75-.47,5.62-.77.75-.12,1.49-.25,2.24-.38,1.48-.27,2.94-.57,4.36-.9.34-.08.68-.16,1.02-.25,2.34-.58,4.55-1.25,6.52-2.05.28-.1.55-.21.82-.33.12-.05.23-.1.35-.15v17.92ZM196.35,91.62l-1.42,1.48-1.44,1.5-2.89,3.01c-4.38-8.19-13.02-13.77-22.94-13.77-12.9,0-23.64,9.44-25.65,21.78l4.87-4.72,1.06,1.1,4.5,4.65-9.97,9.66-3.23,3.13-1.58,1.53-.39.38-2.31-2.18-.31-.3-1.84-1.74-.5-.47-1.47-1.39-3.1-2.93-.24-.23-5.59-5.28,5.5-5.81.85.8h0s.17.17.17.17l2.44,2.31,1.07,1.01,1.64,1.54.2.19c1.42-17.45,16.07-31.2,33.88-31.2,6.4,0,12.39,1.78,17.51,4.86.3.19.6.37.9.56.29.19.58.39.87.59.29.19.57.39.85.6,1.16.86,2.27,1.8,3.32,2.8.22.21.44.42.65.64.35.35.7.71,1.03,1.08.18.2.37.4.54.61.42.47.82.96,1.2,1.46.21.27.42.54.62.82.42.57.82,1.16,1.2,1.76ZM213.39,112.94l-5.57,5.75-.95-.92h-.01s-2.6-2.53-2.6-2.53l-.89-.87-1.83-1.78c-.04.55-.1,1.09-.17,1.63-.06.47-.14.95-.22,1.41,0,.05-.01.09-.02.14-.05.27-.09.53-.14.79-.06.25-.11.5-.17.75-.11.51-.24,1.01-.37,1.5-3.26,11.89-12.82,21.2-24.85,24.09-2.55.62-5.21.94-7.95.94-.54,0-1.08-.01-1.61-.04-10.79-.5-20.28-6.06-26.14-14.36-.35-.48-.68-.96-.99-1.46l5.84-5.84c1.26,2.33,2.87,4.46,4.75,6.29h0c4.67,4.58,11.06,7.4,18.09,7.41h.05c2.77,0,5.45-.44,7.95-1.24,9.23-2.97,16.22-10.97,17.74-20.75l-4.99,4.72-.62-.66-4.87-5.15,9.97-9.43,3.25-3.07,1.59-1.51.54-.51,2.05,1.98h.01s2.29,2.23,2.29,2.23l.41.4,1.22,1.18,3.37,3.26h0s5.82,5.65,5.82,5.65Z"/>
    <path class="cls-1" d="M132.68,129.86v.03c-1.05.04-2.12.07-3.19.08.95-.03,2.03-.06,3.19-.11Z"/>
  </g>
  <g>
    <path class="cls-1" d="M150.03,121.79l8.07-21.81h5.88l8.13,21.81h-6.66l-1.11-3.78h-6.81l-1.08,3.78h-6.42ZM158.85,113.39h4.14l-2.1-7.17-2.04,7.17Z"/>
    <path class="cls-1" d="M174.12,121.79v-21.81h6v21.81h-6Z"/>
  </g>
</svg>