<svg id="ART" xmlns="http://www.w3.org/2000/svg" viewBox="0 0 288 288">
  <defs>
    <style>
      .cls-1 {
        fill: #fcfbfa;
      }
    </style>
  </defs>
  <path class="cls-1" d="M162.07,182.5a1,1,0,0,1-1.41,0h0L105.5,127.35a1,1,0,0,1,0-1.41h0l20.5-20.5L82.17,61.58,64.41,79.35a34.18,34.18,0,0,0-4.25,42.91c12.59,19,29.15,39,47.88,57.7s38.68,35.29,57.7,47.88a34.19,34.19,0,0,0,42.91-4.25l17.77-17.76L182.57,162ZM203,217.94a26.16,26.16,0,0,1-32.84,3.22c-18.59-12.29-38.11-28.5-56.47-46.85s-34.56-37.88-46.85-56.47A26.16,26.16,0,0,1,70.06,85L82.17,72.9l32.52,32.53L99.84,120.27a9,9,0,0,0,0,12.73h0L155,188.16a9,9,0,0,0,12.73,0h0l14.84-14.85,32.53,32.52Zm-1.56-89.15a57.47,57.47,0,0,0-41.5-43.11l2-7.74a65.48,65.48,0,0,1,47.29,49.13l-7.81,1.72Zm-17.58,3.88A39.46,39.46,0,0,0,155.4,103.1l2-7.74A47.42,47.42,0,0,1,191.65,131l-7.81,1.72ZM164.5,68.27l2-7.75a83.5,83.5,0,0,1,60.32,62.67L219,124.92A75.4,75.4,0,0,0,164.5,68.27ZM86.4,57.33l2.82-2.83,8.5,2.84,32.53,32.53,2.84,8.5-2.83,2.82ZM233.5,198.78l-2.83,2.82-43.86-43.86,2.82-2.83,8.5,2.84,32.53,32.53Z"/>
</svg>
