<?xml version="1.0" encoding="utf-8"?>
<!-- Generator: Adobe Illustrator 27.1.0, SVG Export Plug-In . SVG Version: 6.00 Build 0)  -->
<svg version="1.1" id="ART" xmlns="http://www.w3.org/2000/svg" xmlns:xlink="http://www.w3.org/1999/xlink" x="0px" y="0px"
	 viewBox="0 0 288 288" style="enable-background:new 0 0 288 288;" xml:space="preserve">
<style type="text/css">
	.st0{fill:#312D2A;}
</style>
<path class="st0" d="M219,49.5h-32.1c-0.5-4.5-4.3-8-8.9-8h-15.4c-1.8-8.6-9.5-15-18.6-15s-16.7,6.4-18.6,15H110
	c-4.6,0-8.4,3.5-8.9,8H69c-5,0-9,4-9,9v188c0,5,4,9,9,9h150c5,0,9-4,9-9v-188C228,53.5,224,49.5,219,49.5z M107,230.8l-22.3-22.3
	H107V230.8z M82,200.5v-129h19v8h86v-8h19v162h-91v-33H82z M109,50.5c0-0.5,0.4-1,1-1h23v-4c0-6.1,4.9-11,11-11s11,4.9,11,11v4h23
	c0.6,0,1,0.5,1,1v21h-70V50.5z M220,246.5c0,0.6-0.4,1-1,1H69c-0.6,0-1-0.4-1-1v-188c0-0.5,0.4-1,1-1h32v6H74v145.7l32.3,32.3H214
	v-178h-27v-6h32c0.6,0,1,0.5,1,1V246.5z"/>
<circle class="st0" cx="144" cy="45.5" r="5"/>
<rect x="90" y="168.5" class="st0" width="108" height="8"/>
<rect x="90" y="184.5" class="st0" width="76" height="8"/>
<polygon class="st0" points="140,142.5 148,142.5 148,127.5 163,127.5 163,119.5 148,119.5 148,104.5 140,104.5 140,119.5 
	125,119.5 125,127.5 140,127.5 "/>
<path class="st0" d="M144,157.5c18.8,0,34-15.2,34-34s-15.2-34-34-34s-34,15.2-34,34S125.2,157.5,144,157.5z M144,97.5
	c14.3,0,26,11.7,26,26s-11.7,26-26,26s-26-11.7-26-26S129.7,97.5,144,97.5z"/>
</svg>
