<svg id="ART" xmlns="http://www.w3.org/2000/svg" viewBox="0 0 288 288"><defs><style>.cls-1{fill:#312d2a;}</style></defs><path class="cls-1" d="M55,95h8v70H55Zm20,70h8V95H75Zm20,0h8V95H95Zm20,0h8V95h-8Zm28-70h-8v70h8Zm20,0h-8v70h8Zm89,99H233.89a17,17,0,0,1-31.78,0H127.89a17,17,0,0,1-31.78,0H87.89a17,17,0,0,1-31.78,0H35V81H183v90h6V108h25A24,24,0,0,1,232,116l14,15.62a24,24,0,0,1,6.1,16ZM81,188a9,9,0,1,0-9,9A9,9,0,0,0,81,188Zm40,0a9,9,0,1,0-9,9A9,9,0,0,0,121,188Zm68-2v-7H133.16a23.1,23.1,0,0,0-5.68-8H175V89H43v82H56.52a23.1,23.1,0,0,0-5.68,8H43v7H55.13a17,17,0,0,1,33.74,0h6.26a17,17,0,0,1,33.74,0Zm38,2a9,9,0,1,0-9,9A9,9,0,0,0,227,188Zm17-2V176h-7V161h7V147.63A16,16,0,0,0,239.93,137l-14-15.63A16,16,0,0,0,214,116H197v70h4.13a17,17,0,0,1,33.74,0Zm-6-38a5,5,0,0,1-5,5H203V122h15.79l17.94,20.05a5,5,0,0,1,1.27,3.33Zm-9.37-3-13.42-15H211v15Z"/></svg>