<?xml version="1.0" encoding="utf-8"?>
<!-- Generator: Adobe Illustrator 24.0.3, SVG Export Plug-In . SVG Version: 6.00 Build 0)  -->
<svg version="1.1" id="ART" xmlns="http://www.w3.org/2000/svg" xmlns:xlink="http://www.w3.org/1999/xlink" x="0px" y="0px"
	 viewBox="0 0 288 288" style="enable-background:new 0 0 288 288;" xml:space="preserve">
<style type="text/css">
	.st0{fill:#312D2A;}
</style>
<path class="st0" d="M133.4,86.3h8v12h-8V86.3z M167.4,124.3h12v8h-12V124.3z M95.4,124.3h12v8h-12V124.3z M104.9,101.4l5.7-5.7
	l8.5,8.5l-5.7,5.7L104.9,101.4z M155.8,104.2l8.5-8.5l5.7,5.7l-8.5,8.5L155.8,104.2z M113.4,128c0,8.3,2.7,13.2,4.9,17.1
	c1.7,3,3.1,5.4,3.1,9.1v13l16,8.4l16-8.4v-13c0-3.7,1.4-6.1,3.1-9.1c2.2-3.9,5-8.8,5-17.1c0-13.1-10.7-23.7-23.8-23.7
	C124.6,104.3,113.4,115.1,113.4,128z M145.4,162.4l-8,4.2l-8-4.2v-4.2h16V162.4z M137.7,112.3c8.7,0,15.7,7.1,15.7,15.7
	c0,6.2-1.9,9.6-3.9,13.2c-1.8,2.8-3,5.8-3.7,9.1h-4.3v-13h-8v13h-4.4c-0.7-3.2-2-6.3-3.7-9.1c-2-3.6-3.9-7-3.9-13.2
	C121.7,119.2,128.9,112.2,137.7,112.3z M87.4,186.3h76v8h-76V186.3z M87.4,200.3h54v8h-54V200.3z M207.4,192.3l-8,8v20h-124v-165h91
	v33h33v64l8-8V79.6l-32.3-32.3H67.4v181h140V192.3z M196.8,80.3h-22.3V57.9L196.8,80.3z M199.4,234.3h-124l0,0h-8v4l8,4l0,0h124l0,0
	l8-4v-4H199.4L199.4,234.3z M250.9,140.3l9.9-9.9l-15.6-15.6l-74.4,74.4l-3.3,18.9l18.9-3.3l58.9-58.9l3.5,3.5c0.4,0.4,0.4,1,0,1.4
	l-24.8,24.8l5.7,5.7l24.7-24.8c3.5-3.5,3.5-9.2,0-12.7c0,0,0,0,0,0L250.9,140.3z M249.5,130.4l-4.2,4.2l-4.2-4.2l4.2-4.2
	L249.5,130.4z M182.5,197.4l-5.1,0.9l0.9-5.1l57.1-57.1l4.2,4.2L182.5,197.4z"/>
</svg>
