<?xml version="1.0" encoding="utf-8"?>
<!-- Generator: Adobe Illustrator 24.0.3, SVG Export Plug-In . SVG Version: 6.00 Build 0)  -->
<svg version="1.1" id="ART" xmlns="http://www.w3.org/2000/svg" xmlns:xlink="http://www.w3.org/1999/xlink" x="0px" y="0px"
	 viewBox="0 0 288 288" style="enable-background:new 0 0 288 288;" xml:space="preserve">
<style type="text/css">
	.st0{fill:#312D2A;}
</style>
<path class="st0" d="M231,85.9H124.8L114,71.6c-1.7-2.3-4.3-3.6-7.2-3.6H57c-5,0-9,4-9,9v134c0,5,4,9,9,9h174c5,0,9-4,9-9V94.9
	C240,89.9,236,85.9,231,85.9z M57,76h49.8c0.3,0,0.6,0.2,0.8,0.4l10.2,13.5l-10.2,13.6c-0.2,0.2-0.5,0.4-0.8,0.4H56V77
	C56,76.4,56.4,76,57,76z M105.5,190.9l13.3,14.1l13.3-14.2h8.3c7.5,0,13.5,6,13.5,13.5l0,0v7.7H84v-7.7c0-7.4,6-13.5,13.5-13.5h8
	V190.9z M126.4,151.2c2.2,0,4.4-0.4,6.4-1.4v11.3c-0.1,7.6-6.2,13.8-13.8,13.9c-7.6,0.1-13.8-6-13.9-13.6v-10.2H126.4z M105.6,143.2
	c1.4-5.2,5.6-5.2,7.2-5.2h19.7c-1.1,5.2-4.6,5.2-6,5.2H105.6z M111.3,181.7c2.5,0.9,5.1,1.4,7.7,1.4s5.2-0.5,7.6-1.4v3.5l-7.7,8.2
	l-7.6-8.1V181.7z M160.2,143.8c4.4,0.4,8.8-0.8,12.4-3.4c3.2,2.2,6.9,3.4,10.8,3.4c0.5,0,1.1,0,1.6-0.1v3.8
	c0,7.4-5.5,13.5-12.3,13.5s-12.3-6-12.3-13.5v-3.7H160.2z M168.6,168.6c2.6,0.5,5.3,0.5,7.9,0v9.2c-0.3,2.2-2.3,3.7-4.5,3.4
	c-1.8-0.3-3.1-1.6-3.4-3.4V168.6z M192.4,165.6c-1.8,3-4.6,5.2-7.9,6.3v-7c2.5-1.9,4.5-4.4,5.9-7.2L192.4,165.6z M184.8,135.8
	c-2.4,0.3-5.9,0-9.6-3.4l-2.7-2.4l-2.7,2.4c-3.7,3.4-7.2,3.7-9.6,3.4c0-0.2,0-0.3,0-0.5l0.5-2.1l0,0c1.1-3.2,4-5.3,7.4-5.4h8.6
	C181,127.7,184.4,131.3,184.8,135.8z M160.6,164.9v7c-3.3-1.1-6-3.3-7.8-6.2l1.9-7.8C156.1,160.6,158.1,163,160.6,164.9z M158,180.3
	h2.8c1.5,6.5,8,10.4,14.4,8.9c4.4-1,7.9-4.5,8.9-8.9h3.3c7.4,0,13.5,6,13.5,13.5v4.2h-40c-1.9-6.2-6.6-11.2-12.6-13.6
	C150.9,181.8,154.4,180.3,158,180.3z M232,211c0,0.6-0.4,1-1,1h-69v-6h64v-4l-8-4h-9v-4.2c0-8.6-5.2-16.4-13.2-19.8
	c1.7-1.7,3.1-3.7,4.3-5.8l0.8-1.4l-8.9-35.6h0c-2-6.7-8.2-11.4-15.2-11.5h-8.6c-7.9,0-14.4,6-15.8,13.9l-8.3,33.2l0.8,1.4
	c1.2,2.2,2.7,4.2,4.4,5.9c-4.1,1.8-7.6,4.9-9.9,8.7h-4.9v-6.5c4-4,6.2-9.5,6.2-15.1V130h-28.1c-9.6,0-15.6,6.5-15.7,17.1l0,0v14.4
	c0,5.6,2.2,11,6.2,15v6.4h-5.8c-9.4,0-17.7,6.2-20.5,15.1h-7l-8,4v4h14v6H57c-0.6,0-1-0.4-1-1v-99.1h50.8c2.8,0,5.5-1.3,7.2-3.6
	l10.8-14.4H231c0.6,0,1,0.4,1,1V211z M65,85.9h37v8H65V85.9z"/>
</svg>
