<svg id="ART" xmlns="http://www.w3.org/2000/svg" viewBox="0 0 288 288"><defs><style>.cls-1{fill:#312d2a;}</style></defs><path class="cls-1" d="M190,230V92H98V230H90v8H198v-8Zm-84,0V100h76V230Z"/><path class="cls-1" d="M190,50H98V86h92Zm-8,28H106V58h76Z"/><rect class="cls-1" x="168" y="64" width="8" height="8"/><rect class="cls-1" x="154" y="64" width="8" height="8"/><rect class="cls-1" x="140" y="64" width="8" height="8"/><rect class="cls-1" x="112" y="64" width="22" height="8"/><path class="cls-1" d="M115,155h58V126H115Zm8-21h42v13H123Z"/><rect class="cls-1" x="122.01" y="161" width="43.97" height="8"/><path class="cls-1" d="M115,204h58V175H115Zm8-21h42v13H123Z"/><rect class="cls-1" x="122.01" y="210" width="43.97" height="8"/><rect class="cls-1" x="122.01" y="112" width="43.97" height="8"/></svg>