<svg id="ART" xmlns="http://www.w3.org/2000/svg" viewBox="0 0 288 288"><defs><style>.cls-1{fill:#312d2a;}</style></defs><path class="cls-1" d="M232,106h-63a9,9,0,0,0-8.94,9V227a9,9,0,0,0,8.94,9h63a9,9,0,0,0,9-9V115A9,9,0,0,0,232,106Zm-63,8h63a1,1,0,0,1,1,1v97H167.92V115A1,1,0,0,1,168.94,114Zm63,114h-63a1,1,0,0,1-1-1v-7H233v7A1,1,0,0,1,232,228ZM55,195V86H209v14h8V69a9,9,0,0,0-9-9H56a9,9,0,0,0-9,9V195a9,9,0,0,0,9,9h98v-8H56A1,1,0,0,1,55,195ZM56,68H208a1,1,0,0,1,1,1v9H55V69A1,1,0,0,1,56,68Zm13,48h85v8H66a5,5,0,0,1-5-5V97a5,5,0,0,1,5-5H198a5,5,0,0,1,5,5v3H69Zm-3,74h50a5,5,0,0,0,5-5V135a5,5,0,0,0-5-5H66a5,5,0,0,0-5,5v50A5,5,0,0,0,66,190Zm3-52h44v44H69Zm63,25h22v8H135v11h19v8H132a5,5,0,0,1-5-5V168A5,5,0,0,1,132,163Zm0-33h22v8H135v11h19v8H132a5,5,0,0,1-5-5V135A5,5,0,0,1,132,130Zm47,76h43a5,5,0,0,0,5-5V159a5,5,0,0,0-5-5H179a5,5,0,0,0-5,5v42A5,5,0,0,0,179,206Zm3-44h37v36H182Zm-3-14h43a5,5,0,0,0,5-5V125a5,5,0,0,0-5-5H179a5,5,0,0,0-5,5v18A5,5,0,0,0,179,148Zm3-20h37v12H182Z"/></svg>