<svg id="ART" xmlns="http://www.w3.org/2000/svg" viewBox="0 0 288 288"><defs><style>.cls-1{fill:#2f2925;}</style></defs><path class="cls-1" d="M233,72H55A14,14,0,0,0,41,86V202a14,14,0,0,0,14,14H233a14,14,0,0,0,14-14V86A14,14,0,0,0,233,72Zm6,130a6,6,0,0,1-6,6H55a6,6,0,0,1-6-6V86a6,6,0,0,1,6-6H233a6,6,0,0,1,6,6Z"/><path class="cls-1" d="M55,202H219V86H55ZM63,94H211V194H63Z"/><polygon class="cls-1" points="165 114 185.66 114 163.9 136.81 142.03 115.43 122.65 134 134.22 134 141.97 126.57 164.1 148.19 191 119.99 191 140 199 140 199 106 165 106 165 114"/><rect class="cls-1" x="225" y="132" width="8" height="24"/><path class="cls-1" d="M69,188h67V140H69Zm8-8V152.43l25.54,20.84,25.46-23V180Zm7.23-32H118.6l-16.32,14.73Z"/></svg>