<?xml version="1.0" encoding="UTF-8"?>
<svg id="ART" xmlns="http://www.w3.org/2000/svg" version="1.1" viewBox="0 0 288 288">
  <!-- Generator: Adobe Illustrator 29.0.1, SVG Export Plug-In . SVG Version: 2.1.0 Build 192)  -->
  <defs>
    <style>
      .st0 {
        fill: #312d2a;
      }
    </style>
  </defs>
  <path class="st0" d="M81.279733,168.722783c5.92657-6.491009,10.674624-12.137974,14.251993-16.933058,3.574757-4.797696,6.185272-9.122427,7.831544-12.982008,1.643661-3.856979,2.469404-7.619878,2.469404-11.288705,0-9.030968-2.892727-16.015856-8.678191-20.954664s-13.89922-7.408211-24.341269-7.408211c-4.891772,0-9.924655.684642-15.098644,2.04608-5.173989,1.36405-9.786158,3.221989-13.828665,5.573797v15.098644c9.5954-5.270672,18.53229-7.90209,26.810678-7.90209,11.944604,0,17.920821,4.985848,17.920821,14.957533,0,2.4485-.65851,5.059015-1.975525,7.831544-1.317015,2.775141-3.504202,6.093813-6.56156,9.950782-3.057358,3.859591-7.175646,8.607635-12.347023,14.251988l-26.951787,29.34803v11.85315h65.333387v-14.393109h-42.33265s17.497492-19.049694,17.497487-19.049704Z"/>
  <path class="st0" d="M175.961143,138.172727c-4.515484-2.775141-9.830584-4.162707-15.945301-4.162707-5.929187,0-11.197246,1.552202-15.80419,4.656595,1.881454-3.010323,4.280302-6.538039,7.196554-10.58316l19.614128-27.092895h-18.767472l-17.638604,24.552936c-11.103176,15.430508-16.650846,29.350632-16.650846,41.768216,0,11.479469,3.195853,20.460775,9.595403,26.949172,6.396928,6.491009,15.190103,9.739115,26.38735,9.739115,7.340267,0,13.711079-1.505151,19.12025-4.518086,5.406559-3.007711,9.618918-7.217458,12.629241-12.629241,3.007711-5.406559,4.515474-11.688513,4.515474-18.838028,0-6.958761-1.249066-12.982008-3.739383-18.061927-2.492929-5.077307-5.99712-9.004832-10.512605-11.782584v.002592ZM168.411821,183.962528c-3.527717,3.859581-8.348938,5.785454-14.463654,5.785454s-10.912413-1.904959-14.393099-5.71753c-3.480686-3.809939-5.22103-9.145943-5.22103-16.015856,0-2.539959.141111-4.889155.423323-7.052832,4.609555-9.313181,11.662387-13.972387,21.16632-13.972387,5.364752,0,9.665958,1.954621,12.911463,5.856019,3.245505,3.90401,4.868252,9.054484,4.868252,15.451412,0,6.587692-1.76647,11.808721-5.291585,15.663089l.00001.002632Z"/>
  <path class="st0" d="M212.362005,98.432294c-2.41715,0-4.889165.248245-7.405599.736901-2.516434.499112-4.766336,1.165452-6.741871,2.001652v7.03454c4.980614-1.823967,9.417698-2.738557,13.321718-2.738557,2.613126,0,4.437084.444227,5.477115,1.33269s1.554813,2.568708,1.554813,5.032878v1.850094h-7.324597c-5.132172,0-9.177303,1.155005-12.137964,3.475463-2.952826,2.320458-4.437084,5.505853-4.437084,9.550974,0,3.804715,1.173287,6.809805,3.519882,9.03358,2.349206,2.223775,5.521533,3.334352,9.51439,3.334352,2.615738,0,5.006751-.585338,7.175651-1.742955,2.171511-1.165452,3.974575-2.801268,5.406559-4.925739l1.254309,5.769784h5.991897v-26.426545c0-8.882012-5.059005-13.319106-15.16922-13.319111ZM218.719739,126.779494c-1.029564,1.73512-2.364876,3.075655-3.992857,4.037276-1.625369.959019-3.350022,1.439829-5.181834,1.439829-1.975515,0-3.504211-.551366-4.588641-1.661953-1.08445-1.113188-1.627981-2.64971-1.627981-4.625235,0-4.348246,2.978963-6.517136,8.955189-6.517136h6.436124v7.327219Z"/>
  <rect class="st0" x="236.852211" y="84" width="10.28787" height="7.397759"/>
  <polygon class="st0" points="234.26261 99.258042 234.26261 102.950395 238.184911 105.837899 238.184911 138.188407 247.218491 138.188407 247.218491 99.258042 234.26261 99.258042"/>
</svg>