<svg id="ART" xmlns="http://www.w3.org/2000/svg" viewBox="0 0 288 288"><defs><style>.cls-1{fill:#312d2a;}</style></defs><path class="cls-1" d="M115,200V157a8,8,0,0,0-8-8H64a8,8,0,0,0-8,8v43a8,8,0,0,0,8,8h43A8,8,0,0,0,115,200ZM64,157h43v43H64Zm10,8,24.16,13.5L74,192Zm150-42H181a8,8,0,0,0-8,8v43a8,8,0,0,0,8,8h43a8,8,0,0,0,8-8V131A8,8,0,0,0,224,123Zm-43,51V131h43v43Zm37-14a3.91,3.91,0,0,1,0,.49,6.51,6.51,0,1,1-8-6.33v-8.48l-11,1.72v14.72c0,.12,0,.24,0,.37s0,.25,0,.37V163h0a6.5,6.5,0,1,1-8-6.84v-15.6l27-4.24V160ZM115,87a4,4,0,0,1-4,4H99a4,4,0,0,1-4-4V75a4,4,0,0,1,4-4h12a4,4,0,0,1,4,4Zm6,0V75a4,4,0,0,1,4-4h12a4,4,0,0,1,4,4V87a4,4,0,0,1-4,4H125A4,4,0,0,1,121,87Zm46,0a4,4,0,0,1-4,4H151a4,4,0,0,1-4-4V75a4,4,0,0,1,4-4h12a4,4,0,0,1,4,4Zm26,0a4,4,0,0,1-4,4H177a4,4,0,0,1-4-4V75a4,4,0,0,1,4-4h12a4,4,0,0,1,4,4Zm-78,26a4,4,0,0,1-4,4H99a4,4,0,0,1-4-4V101a4,4,0,0,1,4-4h12a4,4,0,0,1,4,4Zm6-12a4,4,0,0,1,4-4h12a4,4,0,0,1,4,4v12a4,4,0,0,1-4,4H125a4,4,0,0,1-4-4Zm46,12a4,4,0,0,1-4,4H151a4,4,0,0,1-4-4V101a4,4,0,0,1,4-4h12a4,4,0,0,1,4,4Zm26-12v12a4,4,0,0,1-4,4H177a4,4,0,0,1-4-4V101a4,4,0,0,1,4-4h12A4,4,0,0,1,193,101Zm-78,26v12a4,4,0,0,1-4,4H99a4,4,0,0,1-4-4V127a4,4,0,0,1,4-4h12A4,4,0,0,1,115,127Zm6,0a4,4,0,0,1,4-4h12a4,4,0,0,1,4,4v12a4,4,0,0,1-4,4H125a4,4,0,0,1-4-4Zm46,12a4,4,0,0,1-4,4H151a4,4,0,0,1-4-4V127a4,4,0,0,1,4-4h12a4,4,0,0,1,4,4Zm-46,14a4,4,0,0,1,4-4h12a4,4,0,0,1,4,4v12a4,4,0,0,1-4,4H125a4,4,0,0,1-4-4Zm42,16H151a4,4,0,0,1-4-4V153a4,4,0,0,1,4-4h12a4,4,0,0,1,4,4v12A4,4,0,0,1,163,169ZM87,143H79V64a9,9,0,0,1,9-9H200a9,9,0,0,1,9,9v53h-8V64a1,1,0,0,0-1-1H88a1,1,0,0,0-1,1Zm114,45h8v36a9,9,0,0,1-9,9H88a9,9,0,0,1-9-9V214h8v10a1,1,0,0,0,1,1H200a1,1,0,0,0,1-1Zm-47,31H134v-8h20Z"/></svg>