<?xml version="1.0" encoding="utf-8"?>
<!-- Generator: Adobe Illustrator 24.0.3, SVG Export Plug-In . SVG Version: 6.00 Build 0)  -->
<svg version="1.1" id="ART" xmlns="http://www.w3.org/2000/svg" xmlns:xlink="http://www.w3.org/1999/xlink" x="0px" y="0px"
	 viewBox="0 0 288 288" style="enable-background:new 0 0 288 288;" xml:space="preserve">
<style type="text/css">
	.st0{fill:#FCFBFA;}
</style>
<path class="st0" d="M214,79.3L181.7,47H74v181h140V79.3z M181,57.7L203.3,80H181V57.7z M82,220V55h91v33h33v132H82z M206,234
	L206,234H82l0,0h-8v4l8,4l0,0h124l0,0l8-4v-4H206z M94,100h100v8H94V100z M94,120h100v8H94V120z M94,140h100v8H94V140z M94,160h100
	v8H94V160z M94,180h82v8H94V180z"/>
</svg>
