<?xml version="1.0" encoding="UTF-8"?>
<svg id="Icons" xmlns="http://www.w3.org/2000/svg" viewBox="0 0 288 288">
  <defs>
    <style>
      .cls-1 {
        fill: #fcfbfa;
      }
    </style>
  </defs>
  <path class="cls-1" d="M186.533,151.867c10.734,0,19.467-8.733,19.467-19.467s-8.732-19.466-19.467-19.466c-5.777,0-10.958,2.543-14.527,6.553l-21.089-12.039c.611-1.886.949-3.893.949-5.98,0-10.734-8.732-19.467-19.467-19.467s-19.467,8.733-19.467,19.467c0,6.899,3.618,12.956,9.045,16.414l-7.079,18.858c-1.839-.394-3.745-.606-5.7-.606-14.998,0-27.2,12.202-27.2,27.2s12.202,27.2,27.2,27.2c10.215,0,19.13-5.664,23.779-14.013l18.867,7.082c-.146.959-.245,1.932-.245,2.931,0,10.734,8.732,19.466,19.466,19.466s19.467-8.732,19.467-19.466-8.732-19.467-19.467-19.467c-6.898,0-12.955,3.618-16.413,9.045l-18.858-7.079c.394-1.839.606-3.745.606-5.7,0-2.294-.288-4.521-.826-6.65l34.283-14.29c3.408,5.664,9.597,9.474,16.675,9.474ZM171.066,175.067c6.323,0,11.467,5.144,11.467,11.467s-5.144,11.466-11.467,11.466-11.466-5.144-11.466-11.466,5.144-11.467,11.466-11.467ZM186.533,120.934c6.323,0,11.467,5.144,11.467,11.466s-5.144,11.467-11.467,11.467-11.467-5.144-11.467-11.467,5.144-11.466,11.467-11.466ZM132.4,90c6.323,0,11.467,5.144,11.467,11.467s-5.144,11.467-11.467,11.467-11.467-5.144-11.467-11.467,5.144-11.467,11.467-11.467ZM109.2,182.534c-10.587,0-19.2-8.613-19.2-19.2s8.613-19.2,19.2-19.2,19.2,8.613,19.2,19.2-8.613,19.2-19.2,19.2ZM132.492,149.301c-2.457-4.063-5.949-7.432-10.105-9.746l7.082-18.867c.959.146,1.932.245,2.931.245,5.777,0,10.959-2.544,14.527-6.553l21.089,12.039c-.611,1.886-.949,3.893-.949,5.98,0,.821.068,1.625.167,2.42l-34.741,14.481Z"/>
</svg>