<svg id="ART" xmlns="http://www.w3.org/2000/svg" viewBox="0 0 288 288"><defs><style>.cls-1{fill:#312d2a;}</style></defs><path class="cls-1" d="M99.5,87.91V105H97l-8,4v4h29v-4l-8-4h-2.5V87.91a15.41,15.41,0,0,0,13.4-17L118.66,51H88.34L86.09,70.87a15.52,15.52,0,0,0,.57,6.21A15.36,15.36,0,0,0,99.5,87.91ZM95.49,59h16l.79,7H94.69Zm17.38,15a7.38,7.38,0,0,1-.19.78,7.49,7.49,0,0,1-7.28,5.27h-3.8a7.48,7.48,0,0,1-7.28-5.27,7.38,7.38,0,0,1-.19-.78Zm112.81,53.36a9,9,0,0,0-9-8.36h-145a9,9,0,0,0-9,8.36l-5,70.62H62v12a5,5,0,0,0,5,5H78.87a11.28,11.28,0,0,0-.57,3.55A11.56,11.56,0,1,0,101,215h88a12,12,0,0,0-1,3.55A11.55,11.55,0,1,0,210.53,215h10.21a5.27,5.27,0,0,0,5.26-5.26V198h4.69ZM89.85,222.09a3.55,3.55,0,1,1,3.54-3.54A3.55,3.55,0,0,1,89.85,222.09Zm109.7,0a3.55,3.55,0,1,1,3.54-3.54A3.55,3.55,0,0,1,199.55,222.09ZM218,207H70v-9H218ZM66,190l4.69-62.07a1,1,0,0,1,1-.93h145a1,1,0,0,1,1,.93L222,190Zm136-77v-4l-5.13-2.57a31.9,31.9,0,0,0-27.82-30.12V72h-8v4.31a31.89,31.89,0,0,0-27.79,29.56L127,109v4ZM165.05,84.05a23.88,23.88,0,0,1,23.67,21H141.37A23.89,23.89,0,0,1,165.05,84.05Z"/></svg>