<?xml version="1.0" encoding="utf-8"?>
<!-- Generator: Adobe Illustrator 27.1.0, SVG Export Plug-In . SVG Version: 6.00 Build 0)  -->
<svg version="1.1" id="ART" xmlns="http://www.w3.org/2000/svg" xmlns:xlink="http://www.w3.org/1999/xlink" x="0px" y="0px"
	 viewBox="0 0 288 288" style="enable-background:new 0 0 288 288;" xml:space="preserve">
<style type="text/css">
	.st0{fill:#FCFBFA;}
</style>
<path class="st0" d="M129.5,196.4c-17.2,0-31.2-14-31.2-31.2c0-11.2,5.9-21.1,14.8-26.5l-0.8-9C99.1,136.1,90,149.6,90,165.2
	c0,21.8,17.7,39.5,39.5,39.5c16.6,0,30.9-10.3,36.7-24.9l-5.7-11.9C159.2,183.8,145.8,196.4,129.5,196.4L129.5,196.4z"/>
<path class="st0" d="M182.6,181.4L165,144.3h-37l-0.9-9.6H152v-8.3h-25.7l-2.2-23.4c0.2,0,0.4,0,0.7,0c6,0,10.8-4.8,10.8-10.8
	s-4.9-10.8-10.8-10.8S114,86.2,114,92.2c0,1.8,0.4,3.5,1.2,5l5.2,55.5h39.4l18.6,39.2l17.5-6.5l-2.9-7.8L182.6,181.4L182.6,181.4z"
	/>
<path class="st0" d="M217.1,60.2h-150c-5.1,0-9.2,4.1-9.2,9.2v150c0,5.1,4.1,9.2,9.2,9.2h150c5.1,0,9.2-4.1,9.2-9.2v-150
	C226.3,64.3,222.2,60.2,217.1,60.2z M218,219.3c0,0.5-0.4,0.8-0.8,0.8h-150c-0.5,0-0.8-0.4-0.8-0.8v-150c0-0.5,0.4-0.8,0.8-0.8h150
	c0.5,0,0.8,0.4,0.8,0.8V219.3z"/>
</svg>
