<?xml version="1.0" encoding="utf-8"?>
<!-- Generator: Adobe Illustrator 24.0.3, SVG Export Plug-In . SVG Version: 6.00 Build 0)  -->
<svg version="1.1" xmlns="http://www.w3.org/2000/svg" xmlns:xlink="http://www.w3.org/1999/xlink" x="0px" y="0px"
	 viewBox="0 0 288 288" style="enable-background:new 0 0 288 288;" xml:space="preserve">
<style type="text/css">
	.st0{fill:#312D2A;}
</style>
<g id="Layer_1">
	<path class="st0" d="M179.2,240h-67.1c-4.6,0-8.4-3.4-8.9-8l-8.9-85c-0.3-2.5,0.5-5.1,2.2-7s4.2-3,6.7-3H188c2.6,0,5,1.1,6.7,3
		s2.5,4.4,2.2,6.9l-0.6,9.2c7.2,0.7,13.9,3.9,18.9,9.2c5.7,6,8.6,13.9,8.3,22.2c-0.7,14-11.2,25.9-25,28.1c-2.9,0.5-5.8,0.5-8.6,0.2
		l-1.8,16.2C187.7,236.6,183.8,240,179.2,240z M103.3,145c-0.4,0-0.6,0.3-0.7,0.4c-0.1,0.2-0.3,0.4-0.2,0.8l8.9,85
		c0.1,0.5,0.5,0.9,1,0.9h67.1c0.5,0,0.9-0.4,1-0.9l2.8-25.3l4.5,1.3c3.2,0.9,6.4,1.1,9.7,0.6c10.1-1.7,17.8-10.3,18.3-20.6
		c0.3-6.1-1.9-11.9-6.1-16.3c-4.2-4.4-9.8-6.8-15.9-6.8c-0.4,0-0.8,0-1.2,0l-4.5,0.2l1.1-18.1c0-0.4-0.1-0.6-0.2-0.8
		c-0.1-0.2-0.4-0.4-0.7-0.4L103.3,145L103.3,145z M194.7,202c-2.6,0-5.2-0.6-7.4-1.8l-2.4-1.3l3.1-27.6l2.6-0.7
		c1.4-0.4,2.8-0.5,4.1-0.5c8.8,0,16,7.2,16,16S203.5,202,194.7,202z M193.5,193.9c0.4,0.1,0.8,0.1,1.2,0.1c4.4,0,8-3.6,8-8
		c0-4.2-3.3-7.7-7.5-8L193.5,193.9z M141.3,121c1.5-4.7,2.7-10.5,2.7-16.8c0-7.9-4.2-14.6-8.3-21.2c-4.3-6.9-8.7-14-8.7-22.6
		c0-1.5,0.1-3,0.2-4.5h-8c-0.1,1.4-0.2,2.9-0.2,4.5c0,10.9,5.5,19.7,9.9,26.8c3.8,6.1,7,11.3,7,16.9c0,6.4-1.6,12.3-3.2,16.8h8.6
		V121z M143.1,60.5c0-5.2,1.2-9.5,2.5-12.5H137c-1.1,3.4-1.9,7.6-1.9,12.5c0,6.3,3.6,12.2,7.5,18.4c4.6,7.5,9.5,15.2,9.5,25.4
		c0,11.1-3.3,20.8-6,26.8h8.6c2.7-6.8,5.3-16.2,5.3-26.8c0-12.4-5.9-22-10.7-29.6C146,69.2,143.1,64.5,143.1,60.5z"/>
</g>
<g id="icon_art_1_">
</g>
</svg>
