<svg id="icon_art" data-name="icon art" xmlns="http://www.w3.org/2000/svg" viewBox="0 0 288 288"><defs><style>.cls-1{fill:#fcfbfa;}</style></defs><title>RMIL_Technology</title><path class="cls-1" d="M215.68,113a34.58,34.58,0,0,0,9.27-1.26l.31-.08c.55-.16,1.11-.33,1.66-.52l.31-.11c.62-.21,1.22-.44,1.82-.69l0,0A35,35,0,1,0,182.46,67h0a34.24,34.24,0,0,0-1.64,8h0c-.09,1-.14,2-.14,3A35,35,0,0,0,215.68,113Zm0-62a27,27,0,1,1-27,27A27,27,0,0,1,215.68,51ZM112,198h64v8H112ZM78,183H210v9H78Zm174,30-21-40.68V116a40.64,40.64,0,0,1-8,2.31V170H65V76a1,1,0,0,1,1-1H174.8a40.56,40.56,0,0,1,1.39-8H66a9,9,0,0,0-9,9v97.79L36,213h0v4l8,4H244l8-4v-4ZM45.08,213l18.79-35H225l18,35ZM231,70h-4.32V67.93a11,11,0,0,0-22,0V70H200V94h31Zm-18.32-2.07a3,3,0,0,1,6,0v2.32h-6ZM223,86H208V78h15Z"/></svg>