<?xml version="1.0" encoding="utf-8"?>
<!-- Generator: Adobe Illustrator 24.0.3, SVG Export Plug-In . SVG Version: 6.00 Build 0)  -->
<svg version="1.1" id="ART" xmlns="http://www.w3.org/2000/svg" xmlns:xlink="http://www.w3.org/1999/xlink" x="0px" y="0px"
	 viewBox="0 0 288 288" style="enable-background:new 0 0 288 288;" xml:space="preserve">
<style type="text/css">
	.st0{fill:#312D2A;}
</style>
<path class="st0" d="M160,153h-18.1c1.4-2.4,2.2-5.2,2.1-8v-6h8v-8h-8v-5c0-2.8,2.2-5,5-5c1.5,0,2.9,0.7,3.9,1.9l6.2-5
	c-4.5-5.6-12.7-6.5-18.3-1.9c-3,2.5-4.8,6.2-4.8,10.1v5h-6v8h6v6c0,4.4-3.6,8-8,8v8h32L160,153L160,153z M226,167h-28v-60h28v-8h-36
	v76h36V167z M100,99H62v8h30v60H62v8h38V99z M240,85H48v104h192V85z M232,181H56V93h176V181z M48,195v4l8,4l0,0h176l0,0l8-4v-4H48z"
	/>
</svg>
