<?xml version="1.0" encoding="utf-8"?>
<!-- Generator: Adobe Illustrator 24.0.3, SVG Export Plug-In . SVG Version: 6.00 Build 0)  -->
<svg version="1.1" id="ART" xmlns="http://www.w3.org/2000/svg" xmlns:xlink="http://www.w3.org/1999/xlink" x="0px" y="0px"
	 viewBox="0 0 288 288" style="enable-background:new 0 0 288 288;" xml:space="preserve">
<style type="text/css">
	.st0{fill:#312D2A;}
</style>
<path class="st0" d="M142,190h11V97H64v93H142z M83,182v-3.6c0-6.5,6.1-12.2,13-12.2h1.2c1.1,6,6.9,9.9,12.9,8.7
	c4.4-0.8,7.9-4.3,8.7-8.7h3c6.7,0,12.2,5.5,12.2,12.2v3.6H83z M108.2,129.3c2.9,2,6.4,3.1,10,3.1c0.4,0,0.8,0,1.2,0v3.2
	c0,6.8-5.2,12.6-11.3,12.6s-11-5.8-11-12.6v-3.2C101,132.7,104.9,131.6,108.2,129.3z M105,155.8c1,0.2,2,0.3,3,0.3c1,0,2-0.1,3-0.3
	v8.3c0,1.7-1.3,3-3,3s-3-1.3-3-3V155.8z M126.2,152.2c-1.7,2.7-4.2,4.7-7.2,5.6v-5.6c2.3-1.8,4.2-4,5.6-6.5L126.2,152.2z
	 M119.2,124.4c-3.1,0.2-6.2-0.9-8.4-3.1l-2.7-2.5l-2.7,2.5c-2.2,2.2-5.3,3.3-8.4,3.1c0,0,0-0.1,0-0.1l0.5-2l0,0
	c1.1-3,3.7-5.2,6.6-5.2h8C115.7,117.1,118.8,120.4,119.2,124.4L119.2,124.4z M97,152.3v5.4c-2.8-1-5.3-2.9-6.9-5.5l1.6-6.2
	C93,148.4,94.8,150.6,97,152.3z M72,182v-77h73v77h-3v-3.6c0-7.9-4.6-15.1-11.8-18.4c1.5-1.6,2.8-3.3,3.8-5.2l0.8-1.4l-8.2-33.1l0,0
	c-2-6.5-7.8-11.3-14.4-11.3h-8c-7.3,0-13.6,6-14.9,13.5l-7.7,30.9l0.8,1.4c1.1,2,2.6,3.9,4.2,5.6c-6.8,3.4-11.6,10.2-11.6,18v3.6H72
	z M50,83v121h186V83H50z M228,196H58V91h170V196z M161,105h44v8h-44V105z M161,119h18v8h-18V119z M185,119h34v8h-34V119z M144,211
	c-6.1,0-11,4.9-11,11s4.9,11,11,11s11-4.9,11-11S150.1,211,144,211z M144,225c-1.7,0-3-1.3-3-3s1.3-3,3-3s3,1.3,3,3l0,0
	C147,223.7,145.7,225,144,225z M167.5,215.5c-3.6,0-6.5,2.9-6.5,6.5s2.9,6.5,6.5,6.5s6.5-2.9,6.5-6.5
	C174,218.4,171.1,215.5,167.5,215.5z M167.5,223.5c-0.8,0-1.5-0.7-1.5-1.5s0.7-1.5,1.5-1.5s1.5,0.7,1.5,1.5l0,0
	C169,222.8,168.3,223.5,167.5,223.5z M186.5,215.5c-3.6,0-6.5,2.9-6.5,6.5s2.9,6.5,6.5,6.5s6.5-2.9,6.5-6.5
	C193,218.4,190.1,215.5,186.5,215.5z M186.5,223.5c-0.8,0-1.5-0.7-1.5-1.5s0.7-1.5,1.5-1.5s1.5,0.7,1.5,1.5l0,0
	C188,222.8,187.3,223.5,186.5,223.5z M120.5,215.5c-3.6,0-6.5,2.9-6.5,6.5s2.9,6.5,6.5,6.5s6.5-2.9,6.5-6.5
	C127,218.4,124.1,215.5,120.5,215.5z M120.5,223.5c-0.8,0-1.5-0.7-1.5-1.5s0.7-1.5,1.5-1.5s1.5,0.7,1.5,1.5l0,0
	C122,222.8,121.3,223.5,120.5,223.5z M101.5,215.5c-3.6,0-6.5,2.9-6.5,6.5s2.9,6.5,6.5,6.5s6.5-2.9,6.5-6.5
	C108,218.4,105.1,215.5,101.5,215.5z M101.5,223.5c-0.8,0-1.5-0.7-1.5-1.5s0.7-1.5,1.5-1.5s1.5,0.7,1.5,1.5l0,0
	C103,222.8,102.3,223.5,101.5,223.5z M161,146h58v8h-58V146z M161,174h58v8h-58V174z M161,160h50v8h-50V160z"/>
</svg>
