<svg id="ART" xmlns="http://www.w3.org/2000/svg" viewBox="0 0 288 288"><defs><style>.cls-1{fill:#312d2a;}</style></defs><path class="cls-1" d="M61,61V227H227V61Zm69,81a4.5,4.5,0,1,1-4.5,4.5A4.51,4.51,0,0,1,130,142Zm-26-40a4.5,4.5,0,1,1-4.5,4.5A4.51,4.51,0,0,1,104,102Zm96,64a4.5,4.5,0,1,1,4.5-4.5A4.51,4.51,0,0,1,200,166Zm19,53H204V173.33a12.5,12.5,0,1,0-8,0V219H69V207h82.66L180,178.66v-30l23-23V98.32a12.25,12.25,0,1,0-8,0v24l-23,23v30L148.34,199H69V187h73.66L160,169.66V117.82a12.25,12.25,0,1,0-8,0v48.52L139.34,179H69V124H81.34L94,136.66v12a12.5,12.5,0,1,0,8,0V133.34L84.66,116H69V69h31V94.67a12.5,12.5,0,1,0,8,0V69h18v65.67a12.5,12.5,0,1,0,8,0V69h85ZM199,91a4.25,4.25,0,1,1,4.25-4.25A4.26,4.26,0,0,1,199,91Zm-43,19.5a4.25,4.25,0,1,1,4.25-4.25A4.26,4.26,0,0,1,156,110.5ZM98,156a4.5,4.5,0,1,1-4.5,4.5A4.51,4.51,0,0,1,98,156Z"/></svg>