<svg id="ART" xmlns="http://www.w3.org/2000/svg" viewBox="0 0 288 288"><defs><style>.cls-1{fill:#312d2a;}</style></defs><path class="cls-1" d="M145,201v-5a4,4,0,0,0-4-4h-5a4,4,0,0,0-4,4v5a4,4,0,0,0,4,4h5A4,4,0,0,0,145,201Zm-23-9h-5a4,4,0,0,0-4,4v5a4,4,0,0,0,4,4h5a4,4,0,0,0,4-4v-5A4,4,0,0,0,122,192Zm38,0h-5a4,4,0,0,0-4,4v5a4,4,0,0,0,4,4h5a4,4,0,0,0,4-4v-5A4,4,0,0,0,160,192Zm19,0h-5a4,4,0,0,0-4,4v5a4,4,0,0,0,4,4h5a4,4,0,0,0,4-4v-5A4,4,0,0,0,179,192Zm4-68v57a5,5,0,0,1-5,5H118a5,5,0,0,1-5-5V124a5,5,0,0,1,5-5h60A5,5,0,0,1,183,124Zm-8,3H121v51h54Zm22-13V229a9,9,0,0,1-9,9H108a9,9,0,0,1-9-9V114a9,9,0,0,1,9-9h80A9,9,0,0,1,197,114Zm-8,0a1,1,0,0,0-1-1H108a1,1,0,0,0-1,1V229a1,1,0,0,0,1,1h80a1,1,0,0,0,1-1ZM141,224h14l0-8H141ZM226.52,95.9A39.16,39.16,0,0,0,198,83.5a.42.42,0,0,1-.41-.29,41,41,0,0,0-73.81-11.73.28.28,0,0,1-.28,0,33.51,33.51,0,0,0-43.46,32,.32.32,0,0,1-.19.32,41,41,0,0,0-28.75,41.36l.08,1.53L53.4,149H93v-8H59.06a33,33,0,0,1,23.13-29.51,8.29,8.29,0,0,0,5.81-8,25.51,25.51,0,0,1,33.08-24.35,8.26,8.26,0,0,0,9.34-3.27,33,33,0,0,1,59.41,9.43A8.46,8.46,0,0,0,198,91.5a31,31,0,0,1,25.12,49.12,1,1,0,0,1-.8.38H203v8h19.32a9,9,0,0,0,7.27-3.68,38.93,38.93,0,0,0-3.07-49.42Z"/></svg>