<svg id="icon_art" data-name="icon art" xmlns="http://www.w3.org/2000/svg" viewBox="0 0 288 288"><defs><style>.cls-1{fill:#312d2a;}</style></defs><title>RMIL_Technology</title><polygon class="cls-1" points="164.94 59.21 159.06 53.78 148 65.77 148 35 140 35 140 65.77 128.94 53.78 123.06 59.21 144 81.9 164.94 59.21"/><polygon class="cls-1" points="258 154 227.23 154 239.22 142.94 233.79 137.06 211.1 158 233.79 178.94 239.22 173.06 227.23 162 258 162 258 154"/><polygon class="cls-1" points="48.78 142.94 60.77 154 30 154 30 162 60.77 162 48.78 173.06 54.21 178.94 76.9 158 54.21 137.06 48.78 142.94"/><path class="cls-1" d="M144,90c-21.91,0-59,3.71-59,17.63a4.93,4.93,0,0,0,0,.54,3.41,3.41,0,0,0,0,.46v96.2C85,218.38,122.09,222,144,222s59-3.62,59-17.17v-96.2a3.41,3.41,0,0,0-.05-.46,4.93,4.93,0,0,0,.05-.54C203,93.71,165.91,90,144,90Zm51,82.61c-1.17,2.16-15.62,9.31-51,9.31s-49.83-7.15-51-9.31V150.14c12.13,6,35.4,7.78,51,7.78s38.87-1.83,51-7.78Zm0-32c-1.17,2.16-15.62,9.31-51,9.31s-49.83-7.15-51-9.31V117.26c12.13,6.11,35.4,8,51,8s38.87-1.88,51-8ZM144,98c30.85,0,49.35,6.19,51,9.63-1.61,3.43-20.11,9.62-51,9.62s-49.35-6.19-51-9.62C94.65,104.19,113.15,98,144,98Zm0,116c-35.38,0-49.83-7.15-51-9.31V182.14c12.13,6,35.4,7.78,51,7.78s38.87-1.83,51-7.78v22.55C193.83,206.85,179.38,214,144,214Z"/><path class="cls-1" d="M144,141.92c14.76,0,28.91-1.49,39.85-4.2,1.86-.46,3.57-.94,5.15-1.45v-8.4c-8.1,3-23.79,6-45,6Z"/><path class="cls-1" d="M144,174c14.76,0,28.91-1.49,39.85-4.2,1.86-.46,3.57-.94,5.15-1.45v-8.4c-8.1,3-23.79,6.05-45,6.05Z"/><path class="cls-1" d="M144,205.92c14.76,0,28.91-1.49,39.85-4.19,1.86-.46,3.57-.94,5.15-1.45v-8.4c-8.1,3-23.79,6-45,6Z"/></svg>