<?xml version="1.0" encoding="utf-8"?>
<!-- Generator: Adobe Illustrator 27.1.0, SVG Export Plug-In . SVG Version: 6.00 Build 0)  -->
<svg version="1.1" id="ART" xmlns="http://www.w3.org/2000/svg" xmlns:xlink="http://www.w3.org/1999/xlink" x="0px" y="0px"
	 viewBox="0 0 288 288" style="enable-background:new 0 0 288 288;" xml:space="preserve">
<style type="text/css">
	.st0{fill:#312D2A;}
</style>
<path class="st0" d="M170.9,163.6c-1.6,2.2-3.2,4.4-4.9,6.6l33.4,41.3l-11.2,18.1L153,186.2l-5.1,6.4l41.1,50.8l20.2-32.4
	L170.9,163.6L170.9,163.6z"/>
<path class="st0" d="M191,95.4v-0.6c-0.2-21.3-14.4-39.4-33.8-45.2c-0.2-0.1-0.3-0.1-0.4-0.2l0,0c-4-1.2-8.2-1.8-12.6-1.9l0,0
	c-0.1,0-0.2,0-0.3,0s-0.2,0-0.3,0l0,0c-4.4,0.1-8.6,0.7-12.6,1.9l0,0c-0.1,0-0.2,0.1-0.4,0.2C111.4,55.4,97.2,73.5,97,94.8v0.6
	c-0.1,8.8-0.3,27.1,20.5,58.2l5.3-6.5c-18-27.8-17.8-43.8-17.8-51.6v-0.7c0.1-10.7,4.5-20.5,11.5-27.6c-4.3,15.8,2.1,36.9,19.1,63
	c1.8-2.5,3.4-4.9,4.9-7.2c-6-9.5-10.1-17.7-12.8-24.7h0.1c0-9,7.2-16.3,16.2-16.5c9,0.2,16.2,7.5,16.2,16.5h0.1
	c-4.8,12.5-14,28.7-30.4,49.4l-51.1,63.1L99,243.2l52.8-65.3C191.4,131.8,191.1,106.3,191,95.4L191,95.4z M144.3,73.9L144.3,73.9
	c-0.1,0-0.2,0-0.3,0s-0.2,0-0.3,0l0,0c-8.3,0.2-15.6,4.5-19.9,11c-1.1-6.4-0.7-11.4,0.3-15.2c2.2-8.4,7.8-11.8,9.5-12.5
	c3.3-1,6.8-1.5,10.4-1.5c3.6,0,7.1,0.5,10.4,1.5c1.5,0.8,7.1,4.1,9.4,12.3c1.1,3.9,1.4,8.9,0.3,15.5
	C159.9,78.4,152.6,74.1,144.3,73.9L144.3,73.9z M99.9,229.5l-11.2-18.1l47.5-58.8c28.9-36.6,40.8-65.4,35.3-85.4
	c7,7.1,11.4,16.8,11.5,27.6v0.7c0.1,10,0.4,33.3-37.2,77.4L99.9,229.5L99.9,229.5z"/>
</svg>
