<?xml version="1.0" encoding="UTF-8"?>
<svg id="ART" xmlns="http://www.w3.org/2000/svg" version="1.1" viewBox="0 0 288 288">
  <defs>
    <style>
      .cls-1 {
        fill: #fcfbfa;
        stroke-width: 0px;
      }
    </style>
  </defs>
  <path class="cls-1" d="M182.1,126.8h-36.1v50.5c0,3.9-3.2,7.1-7.1,7.1h-28c.2,1,.5,2.1.8,3.1.4,1.2.8,2.4,1.3,3.6.5,1.2,1.1,2.4,1.7,3.6,6.6,12.3,19.4,20.7,34.3,21.1,15.9-.4,29.5-10.1,35.6-23.7.1-.2.2-.5.3-.7,2.2-5.1,3.3-10.7,3.2-16.6v-41.5c0-3.5-2.7-6.3-6.1-6.4ZM151,72.2c-12.9,0-23.4,10.5-23.4,23.4s.3,4.3.9,6.3c0,0,0,0,0,0,0,.3.2.5.2.8.2.4.3.9.5,1.3h9.8c1.6,0,3.2.6,4.5,1.6.3.3.7.6,1,1,1,1.3,1.6,2.9,1.6,4.5v7.3s.1,0,.2,0c0,0,0,0,.2,0,.4,0,.8.2,1.1.2.3,0,.7.1,1,.1,0,0,.1,0,.2,0,.1,0,.4,0,.4,0,0,0,.2,0,.3,0,.2,0,.4,0,.5,0,.3,0,.7,0,1,0s.7,0,1,0c.2,0,.4,0,.5,0,0,0,.2,0,.3,0h0c12.1-.9,21.6-11,21.6-23.3s-10.5-23.4-23.4-23.4ZM143.7,107.4c-.3-.3-.5-.6-.8-.8-1.1-.9-2.5-1.4-3.9-1.4h-66c-3.4,0-6.1,2.7-6.1,6.1v66c0,3.4,2.7,6.1,6.1,6.1h66c3.4,0,6.1-2.7,6.1-6.1v-66c0-1.4-.5-2.8-1.4-3.9ZM123.3,129.8h-13.2v2.3c0,.3,0,.7,0,1v32.5h-8.3v-35.9h-13.1v-7h34.7v7ZM201.3,86.6c-8.9,0-16.2,7.2-16.2,16.2s7.2,16.2,16.2,16.2,16.2-7.2,16.2-16.2-7.2-16.2-16.2-16.2ZM214.3,126.2h-29.7c2.8,1.1,4.7,3.8,4.6,6.9v41.5c.2,6.3-1.2,12.3-3.6,17.8,3.1,1.4,6.6,2.2,10.2,2.2h.1c13.9,0,25.1-11.3,25.1-25.1v-36.4c0-3.8-3.1-6.8-6.8-6.8Z"/>
</svg>