<?xml version="1.0" encoding="utf-8"?>
<!-- Generator: Adobe Illustrator 27.1.0, SVG Export Plug-In . SVG Version: 6.00 Build 0)  -->
<svg version="1.1" id="Layer_1" xmlns="http://www.w3.org/2000/svg" xmlns:xlink="http://www.w3.org/1999/xlink" x="0px" y="0px"
	 viewBox="0 0 288 288" style="enable-background:new 0 0 288 288;" xml:space="preserve">
<style type="text/css">
	.st0{display:none;}
	.st1{display:inline;}
	.st2{fill:#56A5D8;}
	.st3{fill:none;stroke:#56A5D8;stroke-width:0.25;stroke-miterlimit:10;}
	.st4{fill:#FCFBFA;}
</style>
<g id="GUIDES" class="st0">
	<g class="st1">
		<g>
			<path class="st2" d="M144,96.3c26.3,0,47.8,21.4,47.8,47.7s-21.4,47.7-47.8,47.7S96.2,170.3,96.2,144S117.7,96.3,144,96.3
				 M144,96.1c-26.5,0-48,21.5-48,47.9c0,26.5,21.5,47.9,48,47.9s48-21.5,48-47.9C192,117.5,170.5,96.1,144,96.1L144,96.1z"/>
		</g>
		<line class="st3" x1="96" y1="0" x2="96" y2="288"/>
		<line class="st3" x1="192" y1="0" x2="192" y2="288"/>
		<line class="st3" x1="0" y1="192" x2="288" y2="192"/>
		<line class="st3" x1="0" y1="96" x2="288" y2="96"/>
		<g>
			<path class="st2" d="M144,12.4c35.2,0,68.3,13.7,93.2,38.6s38.6,58,38.6,93.2s-13.7,68.3-38.6,93.2S179.2,276,144,276
				s-68.3-13.7-93.2-38.6s-38.6-58-38.6-93.2S26,75.9,50.8,51S108.8,12.4,144,12.4 M144,12.1c-72.9,0-132,59.1-132,132
				s59.1,132,132,132s132-59.1,132-132S216.9,12.1,144,12.1L144,12.1z"/>
		</g>
		<g>
			<path class="st2" d="M240,12.2c6.5,0,11.8,5.3,11.8,11.8v240c0,6.5-5.3,11.8-11.8,11.8H48c-6.5,0-11.8-5.3-11.8-11.8V24
				c0-6.5,5.3-11.8,11.8-11.8H240 M240,12H48c-6.6,0-12,5.4-12,12v240c0,6.6,5.4,12,12,12h192c6.6,0,12-5.4,12-12V24
				C252,17.4,246.6,12,240,12L240,12z"/>
		</g>
		<g>
			<path class="st2" d="M264,36.2c6.5,0,11.8,5.3,11.8,11.8v192c0,6.5-5.3,11.8-11.8,11.8H24c-6.5,0-11.8-5.3-11.8-11.8V48
				c0-6.5,5.3-11.8,11.8-11.8H264 M264,36H24c-6.6,0-12,5.4-12,12v192c0,6.6,5.4,12,12,12h240c6.6,0,12-5.4,12-12V48
				C276,41.4,270.6,36,264,36L264,36z"/>
		</g>
		<g>
			<path class="st2" d="M247.8,24.2c8.8,0,16,7.2,16,16v207.6c0,8.8-7.2,16-16,16H40.2c-8.8,0-16-7.2-16-16V40.2c0-8.8,7.2-16,16-16
				H247.8 M247.8,24H40.2C31.3,24,24,31.3,24,40.2v207.6c0,8.9,7.3,16.2,16.2,16.2h207.6c8.9,0,16.2-7.3,16.2-16.2V40.2
				C264,31.3,256.7,24,247.8,24L247.8,24z"/>
		</g>
	</g>
</g>
<g id="ART">
	<path class="st4" d="M228.2,74.5c-19.9-19.9-52.2-19.9-72.1,0l-11.3,11.3l-11.3-11.3c-19.9-19.9-52.2-19.9-72.1,0
		s-19.9,52.2,0,72.1l83.4,83.4l83.4-83.4C248.1,126.8,248.1,94.4,228.2,74.5z M132.7,123.5c2.4,0,4.4,2,4.4,4.4s-2,4.4-4.4,4.4
		s-4.4-2-4.4-4.4S130.3,123.5,132.7,123.5z M98.7,90.4c2.4,0,4.4,2,4.4,4.4s-2,4.4-4.4,4.4s-4.4-2-4.4-4.4S96.3,90.4,98.7,90.4z
		 M222.5,141l-77.8,77.8l-19.4-19.4h25.4l38.3-38.3c1.1,0.4,2.4,0.5,3.6,0.5c6.8,0,12.4-5.6,12.4-12.4s-5.6-12.4-12.4-12.4
		c-6.8,0-12.4,5.6-12.4,12.4c0,2.6,0.8,5.1,2.2,7.1l-35.1,35.1h-30.1L106,180.2h34.9l30.6-30.6v-27.1c4.9-1.7,8.4-6.3,8.4-11.7
		c0-6.8-5.6-12.4-12.4-12.4s-12.4,5.6-12.4,12.4c0,5.4,3.5,10,8.4,11.7v23.7l-25.9,25.9H98.1L67,141c-6.1-6.1-10-13.7-11.7-21.6H87
		l15.5,15.5v7.6c-4.9,1.7-8.4,6.3-8.4,11.7c0,6.8,5.6,12.4,12.4,12.4s12.4-5.6,12.4-12.4c0-5.4-3.5-10-8.4-11.7v-10.9l-20.2-20.2
		H54.4c-0.2-11.3,4-22.6,12.6-31.2c7.7-7.7,17.7-11.9,27.8-12.5V83c-4.9,1.7-8.4,6.3-8.4,11.7c0,6.8,5.6,12.4,12.4,12.4
		s12.4-5.6,12.4-12.4c0-5.4-3.5-10-8.4-11.7V67.9c9.2,1.1,18,5.2,25,12.2l1,1v35c-4.9,1.7-8.4,6.3-8.4,11.7
		c0,6.8,5.6,12.4,12.4,12.4s12.4-5.6,12.4-12.4c0-5.4-3.5-10-8.4-11.7v-27l8,8l17-17c16.8-16.8,44-16.8,60.8,0
		c11.4,11.4,15,27.7,10.9,42.2h-18.9L203.1,111v-7.6c4.9-1.7,8.4-6.3,8.4-11.7c0-6.8-5.6-12.4-12.4-12.4c-6.8,0-12.4,5.6-12.4,12.4
		c0,5.4,3.5,10,8.4,11.7v10.9l16.1,16.1h19C228.3,134.2,225.7,137.8,222.5,141z M188.4,149.2c0-2.4,2-4.4,4.4-4.4s4.4,2,4.4,4.4
		s-2,4.4-4.4,4.4S188.4,151.6,188.4,149.2z M167.7,115.1c-2.4,0-4.4-2-4.4-4.4s2-4.4,4.4-4.4s4.4,2,4.4,4.4S170.1,115.1,167.7,115.1
		z M106.5,149.8c2.4,0,4.4,2,4.4,4.4s-2,4.4-4.4,4.4s-4.4-2-4.4-4.4S104.1,149.8,106.5,149.8z M199.1,96c-2.4,0-4.4-2-4.4-4.4
		s2-4.4,4.4-4.4s4.4,2,4.4,4.4S201.5,96,199.1,96z"/>
</g>
</svg>
