<svg id="ART" xmlns="http://www.w3.org/2000/svg" viewBox="0 0 288 288"><defs><style>.cls-1{fill:#fcfbfa;}</style></defs><path class="cls-1" d="M178,205H84V66a3,3,0,0,1,3-3h88a3,3,0,0,1,3,3v94l8-8V66a11,11,0,0,0-11-11H87A11,11,0,0,0,76,66V222a11,11,0,0,0,11,11h88a11,11,0,0,0,11-11V180l-8,8Zm-3,20H87a3,3,0,0,1-3-3v-9h94v9A3,3,0,0,1,175,225Z"/><path class="cls-1" d="M166,99H154a4,4,0,0,0-4,4v12a4,4,0,0,0,4,4h12a4,4,0,0,0,4-4V103A4,4,0,0,0,166,99Z"/><path class="cls-1" d="M170,75a4,4,0,0,0-4-4H154a4,4,0,0,0-4,4V87a4,4,0,0,0,4,4h12a4,4,0,0,0,4-4Z"/><polygon class="cls-1" points="193 122 193 130 215.38 130 175.89 170.37 152.95 148.41 107.18 193.14 112.78 198.86 153.01 159.54 176.07 181.63 220.98 135.72 220.98 158 228.98 158 228.98 122 193 122"/><path class="cls-1" d="M141,103a4,4,0,0,0-4-4H125a4,4,0,0,0-4,4v12a4,4,0,0,0,4,4h12a4,4,0,0,0,4-4Z"/><path class="cls-1" d="M141,75a4,4,0,0,0-4-4H125a4,4,0,0,0-4,4V87a4,4,0,0,0,4,4h12a4,4,0,0,0,4-4Z"/><path class="cls-1" d="M112,103a4,4,0,0,0-4-4H96a4,4,0,0,0-4,4v12a4,4,0,0,0,4,4h12a4,4,0,0,0,4-4Z"/><path class="cls-1" d="M112,75a4,4,0,0,0-4-4H96a4,4,0,0,0-4,4V87a4,4,0,0,0,4,4h12a4,4,0,0,0,4-4Z"/><path class="cls-1" d="M137,127H125a4,4,0,0,0-4,4v12a4,4,0,0,0,4,4h12a4,4,0,0,0,4-4V131A4,4,0,0,0,137,127Z"/><path class="cls-1" d="M108,127H96a4,4,0,0,0-4,4v12a4,4,0,0,0,4,4h12a4,4,0,0,0,4-4V131A4,4,0,0,0,108,127Z"/></svg>