<svg id="ART" xmlns="http://www.w3.org/2000/svg" viewBox="0 0 288 288"><defs><style>.cls-1{fill:#fcfbfa;}</style></defs><path class="cls-1" d="M144,75a5.92,5.92,0,0,0-6.07-5.58,6,6,0,0,0-6,6v20L132,132h-8V95c0-3.32-2.76-5.58-6.07-5.58a6,6,0,0,0-6,6v41.79A23.64,23.64,0,0,0,104,129V117h-.07V95.42a14,14,0,0,1,14-14,13.87,13.87,0,0,1,6,1.37V75.42a14,14,0,0,1,27.32-4.3,13.81,13.81,0,0,1,6.68-1.7,14,14,0,0,1,14,14V92.9a13.11,13.11,0,0,1,6-1.48,14,14,0,0,1,14,14v56.43A40.32,40.32,0,0,0,184,160V105c0-3.31-2.76-5.58-6.07-5.58a6,6,0,0,0-6,6V133H164V83a5.92,5.92,0,0,0-6.07-5.58,6,6,0,0,0-6,5.8L152,132h-8ZM103.93,186.94,85.12,139.75l1-.39a11,11,0,0,1,14.31,6.07l6.54,16.11,7.41-3-6.53-16.11A19,19,0,0,0,83.08,132l-8.34,3.37L96.5,189.91a49.23,49.23,0,0,0,45.92,31h.9a40.52,40.52,0,0,1-3.5-8.07A41.23,41.23,0,0,1,103.93,186.94Zm77.61,5-2.32,2.32L176.91,192a7.68,7.68,0,0,0-10.86,10.87L179.22,216l13.18-13.18A7.68,7.68,0,1,0,181.54,192Zm32.46,8.8a35,35,0,1,1-35-35A35,35,0,0,1,214,200.75Zm-8,0a27,27,0,1,0-27,27A27,27,0,0,0,206,200.75Z"/></svg>