<svg id="ART" xmlns="http://www.w3.org/2000/svg" viewBox="0 0 288 288"><defs><style>.cls-1{fill:#fcfbfa;}</style></defs><path class="cls-1" d="M227.44,85.52a51,51,0,0,0-72.13,0L144,96.83,132.69,85.52a51,51,0,1,0-72.13,72.12L144,241.08l83.44-83.44A51.06,51.06,0,0,0,227.44,85.52ZM221.78,152,144,229.76,66.22,152A43,43,0,0,1,127,91.17l17,17,17-17A43,43,0,1,1,221.78,152Zm-46.68,1h37.18l-8,8H168.9l-7-27.43L147.15,187h-8.31l-11.23-39.7L122.84,161H83.72l-8-8h41.44l6.61-19h8.39L143,172.12,157.85,118h8.28Z"/></svg>