<svg id="ART" xmlns="http://www.w3.org/2000/svg" viewBox="0 0 288 288"><defs><style>.cls-1{fill:#312d2a;}</style></defs><path class="cls-1" d="M232.13,62.58C207.64,68,176.25,71,143.75,71c-32.26,0-63.47-3-87.89-8.32L51,61.62V226.5l4.87-1.08C80.36,220,111.75,217,144.25,217c32.26,0,63.47,2.95,87.89,8.32l4.86,1.06V61.5ZM229,139H192.5V111.78c14.51-.59,28.44-1.39,36.5-2.37Zm0-37.64c-7.26,1-21.46,1.81-36.5,2.42V76.7A365.61,365.61,0,0,0,229,71.42ZM95.5,76.75v27.06c-15-.61-29.23-1.43-36.5-2.4V71.52A367,367,0,0,0,95.5,76.75Zm.5,134.5V195.47a18.67,18.67,0,0,1,18.45-18.39h13.24l17.11,17.71,17.11-17.71h12.47a18.67,18.67,0,0,1,18.45,18.39v15.81C177.41,209.79,161,209,144.25,209S111.32,209.78,96,211.25Zm22.56-65.43A26.25,26.25,0,0,0,125.87,159v10.11H114.45a26.26,26.26,0,0,0-9.45,1.75V144a8,8,0,0,1,8-8h1v2A9,9,0,0,0,118.56,145.82ZM122,138V127a1,1,0,0,1,1-1h44a1,1,0,0,1,1,1v11a1,1,0,0,1-1,1H123A1,1,0,0,1,122,138Zm11.87,26.4a27.38,27.38,0,0,0,11.07,2.33,26.44,26.44,0,0,0,10.92-2.36v7.46L144.8,183.28,133.87,172Zm11.07-5.67A19,19,0,0,1,127.28,147h35.1A19.4,19.4,0,0,1,144.94,158.73ZM163.88,118h-37.6c1.57-9,8.32-9,10.65-9h26.95Zm37,94.13V195.47a26.45,26.45,0,0,0-26.45-26.39H163.86V158.85A27,27,0,0,0,171.15,146a9,9,0,0,0,4.85-8V127a9,9,0,0,0-4.12-7.55V101H136.93c-11,0-18,6.9-18.88,18.45a9,9,0,0,0-4,7.51v1h-1a16,16,0,0,0-16,16v31.66a26.32,26.32,0,0,0-9,19.81v16.62c-10.29,1.18-20,2.68-29,4.49v-30.7c5.41-.73,14.67-1.38,25.25-1.91a33,33,0,0,1,4.62-8.22c-12,.55-23.05,1.25-29.87,2.08V147H91v-3a22.28,22.28,0,0,1,.59-5H59V109.46c8.07,1,22,1.76,36.5,2.34v18.91a22.21,22.21,0,0,1,8-6.54V112.1c3.27.12,6.53.22,9.7.32l.79-2.13a24.56,24.56,0,0,1,3.08-5.76c-4.38-.12-9-.26-13.57-.42V77.45c11.78.93,24,1.44,36.5,1.53V95h8V79c12.46-.1,24.73-.63,36.5-1.57v26.68l-6.5.21v8l6.5-.22V139H182a14.94,14.94,0,0,1-3,8h5.53v17.6a31.86,31.86,0,0,1,8,3.94V147H229v30.78c-6.63-.79-17.23-1.47-28.85-2a33,33,0,0,1,4.61,8.22c10.16.52,19,1.14,24.24,1.84v30.65C220.28,214.74,210.81,213.28,200.83,212.13Z"/></svg>