<?xml version="1.0" encoding="utf-8"?>
<!-- Generator: Adobe Illustrator 28.0.0, SVG Export Plug-In . SVG Version: 6.00 Build 0)  -->
<svg version="1.1" id="Layer_1" xmlns="http://www.w3.org/2000/svg" xmlns:xlink="http://www.w3.org/1999/xlink" x="0px" y="0px"
	 viewBox="0 0 288 288" style="enable-background:new 0 0 288 288;" xml:space="preserve">
<style type="text/css">
	.st0{display:none;}
	.st1{display:inline;}
	.st2{fill:#4DAAE8;}
	.st3{fill:none;stroke:#4DAAE8;stroke-width:0.25;stroke-miterlimit:10;}
	.st4{fill:#FCFBFA;}
</style>
<g id="GUIDES" class="st0">
	<g class="st1">
		<g>
			<path class="st2" d="M144,96.3c26.3,0,47.8,21.4,47.8,47.7s-21.4,47.7-47.8,47.7S96.2,170.3,96.2,144S117.7,96.3,144,96.3
				 M144,96.1c-26.5,0-48,21.5-48,47.9s21.5,47.9,48,47.9s48-21.5,48-47.9S170.5,96.1,144,96.1L144,96.1z"/>
		</g>
		<line class="st3" x1="192" y1="0" x2="192" y2="288"/>
		<line class="st3" x1="0" y1="96" x2="288" y2="96"/>
		<g>
			<path class="st2" d="M144,12.4c35.2,0,68.3,13.7,93.2,38.6s38.6,58,38.6,93.2s-13.7,68.3-38.6,93.2S179.2,276,144,276
				s-68.3-13.7-93.2-38.6s-38.6-58-38.6-93.2S26,75.9,50.8,51C75.7,26.1,108.8,12.4,144,12.4 M144,12.1c-72.9,0-132,59.1-132,132
				s59.1,132,132,132s132-59.1,132-132S216.9,12.1,144,12.1L144,12.1z"/>
		</g>
		<g>
			<path class="st2" d="M247.8,24.2c8.8,0,16,7.2,16,16v207.6c0,8.8-7.2,16-16,16H40.2c-8.8,0-16-7.2-16-16V40.2c0-8.8,7.2-16,16-16
				H247.8 M247.8,24H40.2C31.3,24,24,31.3,24,40.2v207.6c0,8.9,7.3,16.2,16.2,16.2h207.6c8.9,0,16.2-7.3,16.2-16.2V40.2
				C264,31.3,256.7,24,247.8,24L247.8,24z"/>
		</g>
		<g>
			<path class="st2" d="M240,12.2c6.5,0,11.8,5.3,11.8,11.8v240c0,6.5-5.3,11.8-11.8,11.8H48c-6.5,0-11.8-5.3-11.8-11.8V24
				c0-6.5,5.3-11.8,11.8-11.8H240 M240,12H48c-6.6,0-12,5.4-12,12v240c0,6.6,5.4,12,12,12h192c6.6,0,12-5.4,12-12V24
				C252,17.4,246.6,12,240,12L240,12z"/>
		</g>
		<g>
			<path class="st2" d="M264,36.2c6.5,0,11.8,5.3,11.8,11.8v192c0,6.5-5.3,11.8-11.8,11.8H24c-6.5,0-11.8-5.3-11.8-11.8V48
				c0-6.5,5.3-11.8,11.8-11.8H264 M264,36H24c-6.6,0-12,5.4-12,12v192c0,6.6,5.4,12,12,12h240c6.6,0,12-5.4,12-12V48
				C276,41.4,270.6,36,264,36L264,36z"/>
		</g>
		<line class="st3" x1="96" y1="0" x2="96" y2="288"/>
		<line class="st3" x1="0" y1="192" x2="288" y2="192"/>
	</g>
</g>
<g id="ART">
	<g>
		<path class="st4" d="M72,219.5v-165h91v33h33v69.6c2.8,0.8,5.5,1.7,8,3V78.8l-32.3-32.3H64v181h82.1c-1.7-2.5-3.2-5.2-4.4-8H72z
			 M193.3,79.5H171V57.2L193.3,79.5z"/>
		<path class="st4" d="M151,233.5H72l0,0h-8v4l8,4l0,0h89.3C157.5,239.3,154,236.6,151,233.5z"/>
		<rect x="84" y="99.5" class="st4" width="100" height="8"/>
		<rect x="84" y="119.5" class="st4" width="100" height="8"/>
		<rect x="84" y="139.5" class="st4" width="100" height="8"/>
		<path class="st4" d="M84,167.5h69c3.6-3.3,7.7-6,12.2-8H84V167.5z"/>
		<path class="st4" d="M84,187.5h56.2c0.9-2.8,2-5.5,3.4-8H84V187.5z"/>
		<path class="st4" d="M184,161.5c-22.1,0-40,17.9-40,40s17.9,40,40,40s40-17.9,40-40S206.1,161.5,184,161.5z M184,233.5
			c-17.6,0-32-14.4-32-32s14.4-32,32-32s32,14.4,32,32S201.6,233.5,184,233.5z"/>
		<path class="st4" d="M205.8,206.8l-5.1-2.9c0.1-0.8,0.2-1.5,0.2-2.3c0-0.9-0.1-1.7-0.2-2.5l5.1-2.9l-6.5-11.3L194,188
			c-1.2-0.9-2.6-1.6-4-2.2v-6.3h-13v6.6c-1.2,0.6-2.4,1.2-3.4,2.1l-5.9-3.4l-6.5,11.3l6,3.4c-0.1,0.7-0.1,1.4-0.1,2s0,1.2,0.1,1.8
			l-5.9,3.4l6.5,11.3l5.7-3.3c1.1,0.9,2.3,1.6,3.6,2.2v6.6h13v-6.2c1.5-0.6,2.9-1.3,4.2-2.3l5.2,3L205.8,206.8z M184,210.6
			c-5,0-9-4.1-9-9.1s4.1-9.1,9-9.1s9,4.1,9,9.1S189,210.6,184,210.6z"/>
	</g>
</g>
</svg>
