<?xml version="1.0" encoding="utf-8"?>
<!-- Generator: Adobe Illustrator 27.7.0, SVG Export Plug-In . SVG Version: 6.00 Build 0)  -->
<svg version="1.1" id="Layer_1" xmlns="http://www.w3.org/2000/svg" xmlns:xlink="http://www.w3.org/1999/xlink" x="0px" y="0px"
	 viewBox="0 0 288 288" style="enable-background:new 0 0 288 288;" xml:space="preserve">
<style type="text/css">
	.st0{display:none;}
	.st1{display:inline;}
	.st2{fill:#2BA6DE;}
	.st3{fill:none;stroke:#2BA6DE;stroke-width:0.25;stroke-miterlimit:10;}
	.st4{fill:#312D2A;}
</style>
<g id="GUIDES" class="st0">
	<g id="Guides" class="st1">
		<g>
			<path class="st2" d="M144,96.3c26.3,0,47.8,21.4,47.8,47.7s-21.4,47.7-47.8,47.7S96.2,170.3,96.2,144S117.7,96.3,144,96.3
				 M144,96.1c-26.5,0-48,21.5-48,47.9s21.5,47.9,48,47.9s48-21.5,48-47.9S170.5,96.1,144,96.1L144,96.1z"/>
		</g>
		<line class="st3" x1="96" y1="0" x2="96" y2="288"/>
		<line class="st3" x1="192" y1="0" x2="192" y2="288"/>
		<line class="st3" x1="0" y1="192" x2="288" y2="192"/>
		<line class="st3" x1="0" y1="96" x2="288" y2="96"/>
		<g>
			<path class="st2" d="M144,12.4c35.2,0,68.3,13.7,93.2,38.6s38.6,58,38.6,93.2s-13.7,68.3-38.6,93.2S179.2,276,144,276
				s-68.3-13.7-93.2-38.6s-38.6-58-38.6-93.2S26,75.9,50.8,51C75.7,26.1,108.8,12.4,144,12.4 M144,12.1c-72.9,0-132,59.1-132,132
				s59.1,132,132,132s132-59.1,132-132S216.9,12.1,144,12.1L144,12.1z"/>
		</g>
		<g>
			<path class="st2" d="M240,12.2c6.5,0,11.8,5.3,11.8,11.8v240c0,6.5-5.3,11.8-11.8,11.8H48c-6.5,0-11.8-5.3-11.8-11.8V24
				c0-6.5,5.3-11.8,11.8-11.8H240 M240,12H48c-6.6,0-12,5.4-12,12v240c0,6.6,5.4,12,12,12h192c6.6,0,12-5.4,12-12V24
				C252,17.4,246.6,12,240,12L240,12z"/>
		</g>
		<g>
			<path class="st2" d="M264,36.2c6.5,0,11.8,5.3,11.8,11.8v192c0,6.5-5.3,11.8-11.8,11.8H24c-6.5,0-11.8-5.3-11.8-11.8V48
				c0-6.5,5.3-11.8,11.8-11.8H264 M264,36H24c-6.6,0-12,5.4-12,12v192c0,6.6,5.4,12,12,12h240c6.6,0,12-5.4,12-12V48
				C276,41.4,270.6,36,264,36L264,36z"/>
		</g>
		<g>
			<path class="st2" d="M247.8,24.2c8.8,0,16,7.2,16,16v207.6c0,8.8-7.2,16-16,16H40.2c-8.8,0-16-7.2-16-16V40.2c0-8.8,7.2-16,16-16
				H247.8 M247.8,24H40.2C31.3,24,24,31.3,24,40.2v207.6c0,8.9,7.3,16.2,16.2,16.2h207.6c8.9,0,16.2-7.3,16.2-16.2V40.2
				C264,31.3,256.7,24,247.8,24L247.8,24z"/>
		</g>
		<g>
			<path class="st2" d="M239.8,48.2v191.5H48.2V48.2H239.8 M240,48H48v192h192V48L240,48z"/>
		</g>
	</g>
</g>
<g id="ART">
	<g id="Extras">
		<path class="st4" d="M239.1,82.3c-5.2-3.3-10.9-5.6-16.9-7s-10.5-5-13.1-10.1c-8.9-17.8-26.8-28.9-46.7-28.9
			c-14.5,0-28.4,6.1-38.3,16.7c-3.8,4.1-9.4,6.2-15.2,5.6c-7-0.7-14.2,0.5-20.7,3.4C75.7,67.5,66.7,78.8,64,92.2
			c-1.1,5.6-4.7,10.4-9.8,13.1c-17.3,9.1-28.4,26.1-29.9,45.5L24,155h52.9v-8H32.8c2.4-14.9,11.6-27.7,25.1-34.7
			c7.3-3.8,12.4-10.6,13.9-18.6c2.2-10.9,9.5-20,19.6-24.5c5.3-2.3,11-3.2,16.7-2.7c8.3,0.8,16.2-2.2,21.8-8.2
			c8.3-9,20.2-14.2,32.4-14.2c16.9,0,32,9.4,39.6,24.5c3.7,7.4,10.4,12.6,18.5,14.4c5.1,1.1,10,3.1,14.4,5.9
			c19.5,12.3,26.6,37.4,16.9,58h-39.9v8h44.7l1.1-2.1C270.9,128.3,262.8,97.3,239.1,82.3L239.1,82.3L239.1,82.3z"/>
		<path class="st4" d="M82.9,116.2v57.5c1.8,30.8,23.5,58.9,59.5,77l1.8,0.9l1.8-0.9c36.1-18.1,57.8-46.1,59.5-77v-57.5l-61.3-26.3
			L82.9,116.2L82.9,116.2z M197.5,173.4c-1.6,27.4-21,52.6-53.3,69.3c-32.3-16.7-51.7-41.9-53.3-69.3v-52l53.3-22.9l53.3,22.9V173.4
			L197.5,173.4z"/>
		<g>
			<path class="st4" d="M172,130.8h-55.6c-4.9,0-8.9,4-8.9,8.9v55.6c0,4.9,4,8.9,8.9,8.9H172c4.9,0,8.9-4,8.9-8.9v-55.6
				C180.9,134.8,176.9,130.8,172,130.8L172,130.8z M173,195.4c0,0.5-0.5,1-1,1h-55.6c-0.5,0-1-0.5-1-1v-55.6c0-0.5,0.5-1,1-1H172
				c0.5,0,1,0.5,1,1V195.4z"/>
			<polygon class="st4" points="121.3,178.3 120.9,178.3 120.9,190.9 167.8,190.9 167.8,178.3 167,178.3 			"/>
			<polygon class="st4" points="133.5,156.8 133.5,144.7 133.5,144.2 120.9,144.2 120.9,156.8 121.3,156.8 			"/>
			<polygon class="st4" points="150.5,144.7 150.5,144.2 137.9,144.2 137.9,144.7 137.9,156.8 150.5,156.8 			"/>
			<polygon class="st4" points="133.5,173.9 133.5,161.3 121.3,161.3 120.9,161.3 120.9,173.9 121.3,173.9 			"/>
			<rect x="137.9" y="161.3" class="st4" width="12.6" height="12.6"/>
			<polygon class="st4" points="167.5,156.8 167.5,144.2 154.9,144.2 154.9,144.7 154.9,156.8 167,156.8 			"/>
			<polygon class="st4" points="167.5,173.9 167.5,161.3 167,161.3 154.9,161.3 154.9,173.9 167,173.9 			"/>
		</g>
	</g>
</g>
</svg>
