<?xml version="1.0" encoding="UTF-8"?>
<svg id="ART" xmlns="http://www.w3.org/2000/svg" viewBox="0 0 288 288">
  <defs>
    <style>
      .cls-1 {
        fill: #fcfbfa;
      }
    </style>
  </defs>
  <path class="cls-1" d="M216.12,80.32c6.6,0,11.96-5.36,11.96-11.95s-5.37-11.95-11.96-11.95c-5.31,0-9.82,3.48-11.38,8.27-17.93,1.86-33.55,5.55-47.17,10.47v8.47c14.34-5.44,30.2-9.08,47.42-10.9,1.75,4.44,6.07,7.6,11.13,7.6ZM216.12,64.41c2.19,0,3.96,1.77,3.96,3.95s-1.78,3.95-3.96,3.95-3.96-1.77-3.96-3.95,1.78-3.95,3.96-3.95Z"/>
  <path class="cls-1" d="M233.15,133.48c0-5.53-5.87-9.62-17.94-12.53-9.89-2.38-22.98-3.69-36.85-3.69-7.26,0-14.3.36-20.79,1.05v8.03c5.91-.66,12.82-1.07,20.79-1.07,29.16,0,44.37,5.55,46.63,8.22-2.26,2.66-17.48,8.22-46.63,8.22-7.97,0-14.89-.42-20.79-1.07v8.03c6.49.68,13.53,1.05,20.79,1.05,13.87,0,26.96-1.31,36.85-3.69,3.99-.96,7.29-2.05,9.94-3.28v21.28c-1.53,2.59-16.73,8.52-46.79,8.52s-45.26-5.93-46.79-8.52v-1.39h-8v61.46c0,5.55,5.87,9.67,17.93,12.6,9.89,2.4,22.98,3.72,36.86,3.72s26.96-1.32,36.86-3.72c12.07-2.93,17.93-7.05,17.93-12.6v-89.95c0-.09-.02-.17-.03-.26,0-.13.03-.25.03-.39ZM225.15,223.87c-1.53,2.59-16.73,8.52-46.79,8.52s-45.26-5.93-46.79-8.52v-20.69c2.65,1.24,5.94,2.34,9.93,3.31,9.89,2.4,22.98,3.72,36.86,3.72s26.96-1.32,36.86-3.72c3.99-.97,7.29-2.07,9.93-3.31v20.69ZM225.15,193.7c-1.53,2.59-16.73,8.52-46.79,8.52s-45.26-5.93-46.79-8.52v-20.22c2.65,1.24,5.94,2.34,9.93,3.31,9.89,2.4,22.98,3.72,36.86,3.72s26.96-1.32,36.86-3.72c3.99-.97,7.29-2.07,9.93-3.31v20.22Z"/>
  <path class="cls-1" d="M151.57,47.61h-58v109h58V47.61ZM143.57,148.61h-42V55.61h42v93Z"/>
  <rect class="cls-1" x="107.57" y="65.61" width="30" height="8"/>
  <circle class="cls-1" cx="122.57" cy="131.61" r="4"/>
  <rect class="cls-1" x="107.57" y="81.61" width="30" height="8"/>
  <rect class="cls-1" x="107.57" y="97.61" width="30" height="8"/>
  <path class="cls-1" d="M63.22,186.21c-4.85,1.53-8.38,6.06-8.38,11.4,0,6.59,5.37,11.95,11.96,11.95s11.96-5.36,11.96-11.95c0-5.01-3.1-9.3-7.48-11.08,1.22-7.28,5.13-25.06,16.28-44.39v-14.83c-.94,1.33-1.85,2.65-2.71,3.96-15.76,24.02-20.41,46.82-21.64,54.93ZM66.81,201.57c-2.19,0-3.96-1.77-3.96-3.95s1.78-3.95,3.96-3.95,3.96,1.77,3.96,3.95-1.78,3.95-3.96,3.95Z"/>
</svg>