<?xml version="1.0" encoding="UTF-8"?>
<svg id="ART" xmlns="http://www.w3.org/2000/svg" viewBox="0 0 288 288">
  <defs>
    <style>
      .cls-1 {
        fill: #fcfbfa;
      }
    </style>
  </defs>
  <path class="cls-1" d="M232.05,150.36c0,48.55-39.5,88.05-88.05,88.05s-88.05-39.5-88.05-88.05,37.13-85.63,83.64-87.94l-6.24,6.24,5.66,5.66,16.37-16.37-16.37-16.37-5.66,5.66,7.14,7.13c-51.34,1.86-92.53,44.19-92.53,95.98s43.09,96.05,96.05,96.05,96.05-43.09,96.05-96.05h-8Z"/>
  <path class="cls-1" d="M88.81,105.38c0,.24.04.46.06.69-.03.19-.06.38-.06.57v88.78c0,5.54,5.91,9.65,18.06,12.55,9.96,2.38,23.15,3.7,37.13,3.7s27.17-1.31,37.13-3.7c12.16-2.91,18.06-7.02,18.06-12.55v-88.78c0-.2-.03-.38-.06-.57.02-.23.06-.46.06-.69,0-13.14-34.69-16.64-55.19-16.64s-55.19,3.5-55.19,16.64ZM191.19,136.33c-.95,1.53-6.76,4.23-17.67,6.17v8.11c2.69-.44,5.24-.94,7.6-1.51,4.05-.97,7.39-2.07,10.06-3.32v19.76c-.95,1.53-6.76,4.23-17.67,6.17v8.11c2.69-.44,5.24-.94,7.6-1.51,4.05-.97,7.39-2.07,10.06-3.32v20.2c-1.6,2.58-16.97,8.47-47.19,8.47s-45.59-5.89-47.19-8.47v-20.2c2.67,1.24,6.01,2.35,10.06,3.32,2.37.57,4.92,1.07,7.61,1.51v-8.1c-10.9-1.94-16.72-4.64-17.68-6.18v-19.76c2.67,1.24,6.01,2.35,10.06,3.32,2.38.57,4.95,1.08,7.66,1.52v-8.1c-10.93-1.94-16.77-4.65-17.72-6.19v-21.6c11.48,5.56,32.82,7.29,47.19,7.29s35.72-1.73,47.19-7.29v21.6ZM191.09,105.38c-1.71,2.21-15.31,8.64-47.09,8.64s-45.38-6.43-47.09-8.64c1.7-2.22,15.31-8.64,47.09-8.64s45.38,6.43,47.09,8.64Z"/>
  <path class="cls-1" d="M140.14,129.62c-7.89,1.6-13.61,8.79-13.61,17.1v3.42h-5.99l-.07,41h47.06v-41h-7v-3.86c0-5.09-2.3-9.88-6.3-13.15-3.96-3.24-9.1-4.52-14.08-3.5ZM159.53,158.14v25h-31.05l.04-25h31.01ZM152.53,146.28v3.86h-18v-3.42c0-4.51,3.03-8.41,7.2-9.26,2.66-.54,5.3.12,7.43,1.86,2.14,1.75,3.37,4.28,3.37,6.96Z"/>
  <path class="cls-1" d="M140.85,171.83l-.98,6.31h6.56l-.92-6.34c1.52-.84,2.56-2.45,2.56-4.31,0-2.72-2.2-4.92-4.92-4.92-.35,0-.7.04-1.06.11-1.89.39-3.41,1.95-3.77,3.84-.43,2.28.71,4.35,2.53,5.31Z"/>
</svg>