<svg id="ART" xmlns="http://www.w3.org/2000/svg" viewBox="0 0 288 288"><defs><style>.cls-1{fill:#fcfbfa;}</style></defs><path class="cls-1" d="M81,135H80v-5.34a20.59,20.59,0,0,0,6-14.42V86H60c-9.25,0-15,6.13-15,16v14A19.36,19.36,0,0,0,51,130V135H50c-11.36,0-21,9.33-21,20.37V179h8V155.41c0-6.59,6-12.37,13-12.37H53.4a18.14,18.14,0,0,0,12.15,4.71h.07A18.14,18.14,0,0,0,77.75,143H81a12.77,12.77,0,0,1,3.36.5,38,38,0,0,1,4.74-6.81A20.8,20.8,0,0,0,81,135ZM60,94H77.55A5.25,5.25,0,0,1,72,98H53.58C55,94,58.48,94,60,94Zm12,12a14.7,14.7,0,0,0,6-1.2v10.44a12.64,12.64,0,0,1-12.36,12.58c-7,0-12.64-5.31-12.64-11.82V106Zm0,31.43a10,10,0,0,1-6.41,2.32h0A9.93,9.93,0,0,1,59,137.33v-2.59a21,21,0,0,0,6.64,1.08A19.57,19.57,0,0,0,72,134.73Z"/><path class="cls-1" d="M239.05,135H238V130A19.36,19.36,0,0,0,244,116V102c0-9.87-5.75-16-15-16H203v29.24a20.59,20.59,0,0,0,6,14.42V135h-1a21.21,21.21,0,0,0-8.1,1.69,38,38,0,0,1,4.74,6.81A12.77,12.77,0,0,1,208,143h3.25a18.14,18.14,0,0,0,12.13,4.75h.07A18.14,18.14,0,0,0,235.6,143H239c6.91,0,13,5.78,13,12.37V179h8V155.41C260,144.37,250.4,135,239.05,135ZM229,94c1.52,0,5,0,6.42,4H217a5.08,5.08,0,0,1-5.51-4Zm-12,12h19v10c0,6.51-5.67,11.82-12.64,11.82A12.64,12.64,0,0,1,211,115.24V104.8A14.7,14.7,0,0,0,217,106Zm13,31.33a9.93,9.93,0,0,1-6.55,2.42h0a10,10,0,0,1-6.41-2.32v-2.7a19.57,19.57,0,0,0,6.36,1.09,21,21,0,0,0,6.64-1.08Z"/><path class="cls-1" d="M86,161v18h8V161a23,23,0,0,1,23-23h12.25a15.12,15.12,0,0,0,29.5,0H172a23,23,0,0,1,23,23v18h8V161a31,31,0,0,0-30-31,33.74,33.74,0,0,0,5.52-7.33l.8-1.4L168,75.93,168,76c-2.61-8.1-9.87-14-18.42-14H138.41c-9.59,0-17.56,7.36-19.15,17l-10.53,42.3.8,1.4a33.56,33.56,0,0,0,5.55,7.36A31,31,0,0,0,86,161Zm41-70.48a23.17,23.17,0,0,0,17-4.44,22.87,22.87,0,0,0,17,4.44v6.1c0,10.2-7.64,18.49-17,18.49s-17-8.29-17-18.49Zm24,45c0,3.27-3.35,6.24-7,6.24s-7-3-7-6.24V122.06a23.64,23.64,0,0,0,14,0Zm19.78-15.48A20.32,20.32,0,0,1,159,129.26V117.79a26.45,26.45,0,0,0,8.31-11.63ZM138.41,70h11.13c6.28,0,11.39,5.56,11.45,12.41-3.28.66-8.74.62-14.3-4.44L144,75.52,141.31,78c-5.58,5.08-11.07,5.1-14.35,4.44a12.67,12.67,0,0,1,.14-1.76l.69-2.79h0A11.52,11.52,0,0,1,138.41,70ZM120.7,106.33a26.54,26.54,0,0,0,8.3,11.5v11.41a20.3,20.3,0,0,1-11.72-9.17Z"/><path class="cls-1" d="M195,220h-6V169a9,9,0,0,0-9-9H109a9,9,0,0,0-9,9v51H86v4l8,4H195l8-4v-4Zm-87,0V169a1,1,0,0,1,1-1h71a1,1,0,0,1,1,1v51Z"/><polygon class="cls-1" points="131.88 182.11 115.88 192.11 115.88 198.89 131.88 208.89 136.12 202.11 125.55 195.5 136.12 188.89 131.88 182.11"/><polygon class="cls-1" points="152.88 188.89 163.45 195.5 152.88 202.11 157.12 208.89 173.12 198.89 173.12 192.11 157.12 182.11 152.88 188.89"/><polygon class="cls-1" points="137.55 209 145.73 209 151.45 182 143.27 182 137.55 209"/></svg>