<svg id="ART" xmlns="http://www.w3.org/2000/svg" viewBox="0 0 288 288">
  <defs>
    <style>
      .cls-1 {
        fill: #fcfbfa;
      }
    </style>
  </defs>
  <path class="cls-1" d="M241.34,81.45,192.55,32.66,198.2,27l54.46,54.46L198.2,135.9l-5.65-5.66Zm-57,40.3,34.71-34.69H89.74A8.89,8.89,0,0,0,81,96v21h7.94V96A1.24,1.24,0,0,1,90,95H199.74l-21,21.1ZM68.94,95.86A21.1,21.1,0,0,1,90,75H218.27L184.35,41.14,178.7,46.8,199,67.06H89.74A28.78,28.78,0,0,0,61,95.86V117h7.94Zm26.51,62L89.8,152.2,35.34,206.67,89.8,261.12l5.65-5.65-48.79-48.8ZM198,201a9.17,9.17,0,0,0,9-9V171h-7.94v21c0,.44-.36,1.06-.8,1.06h-110l21-21-5.65-5.66L68.94,201Zm21.06-9A21.27,21.27,0,0,1,198,213.06H69.73L103.65,247l5.65-5.66L89,221H198a29.18,29.18,0,0,0,29-29V171h-7.94Z"/>
</svg>
