<?xml version="1.0" encoding="utf-8"?>
<!-- Generator: Adobe Illustrator 24.0.3, SVG Export Plug-In . SVG Version: 6.00 Build 0)  -->
<svg version="1.1" id="ART" xmlns="http://www.w3.org/2000/svg" xmlns:xlink="http://www.w3.org/1999/xlink" x="0px" y="0px"
	 viewBox="0 0 288 288" style="enable-background:new 0 0 288 288;" xml:space="preserve">
<style type="text/css">
	.st0{fill:#312D2A;}
</style>
<path class="st0" d="M240,85H48v104h192V85z M232,181H56V93h176V181z M139,141h10c1.7,0,3,1.3,3,3s-1.3,3-3,3h-19v8h10v6h8v-6h1
	c6.1,0,11-4.9,11-11s-4.9-11-11-11h-10c-1.6,0-3-1.3-3-2.9c0-1.7,1.3-3,3-3.1h19v-8h-10v-5.8h-8v5.8h-1c-6.1,0.1-10.9,5-11,11.1
	C128,136.1,133,141,139,141z M144,175c21,0,38-17,38-38s-17-38-38-38s-38,17-38,38S123,175,144,175L144,175z M144,107
	c16.6,0,30,13.4,30,30s-13.4,30-30,30s-30-13.4-30-30S127.4,107,144,107z M48,195v4l8,4l0,0h176l0,0l8-4v-4H48z M83,175h8
	c0-12.9-8.6-24.3-21-27.9v-20.3c12.4-3.6,21-14.9,21-27.9h-8c0,11.6-9.4,21-21,21l0,0v34C73.6,154,83,163.4,83,175z M197,175h8
	c0-11.6,9.4-21,21-21v-34c-11.6,0-21-9.4-21-21l0,0h-8c0,12.9,8.6,24.3,21,27.9v20.3C205.6,150.7,197,162.1,197,175z"/>
</svg>
