<svg id="ART" xmlns="http://www.w3.org/2000/svg" viewBox="0 0 288 288"><defs><style>.cls-1{fill:#fcfbfa;}</style></defs><path class="cls-1" d="M136.12,200.89l-10.57,6.61,10.57,6.61-4.24,6.78-16-10v-6.78l16-10Zm16.76,0,10.57,6.61-10.57,6.61,4.24,6.78,16-10v-6.78l-16-10ZM137.55,221h8.18l5.72-27h-8.18ZM195,232h8v4l-8,4H94l-8-4v-4h14V181a9,9,0,0,1,9-9h71a9,9,0,0,1,9,9v51Zm-14,0V181a1,1,0,0,0-1-1H109a1,1,0,0,0-1,1v51Zm30-57.26v24.14h-8V174.74A25.59,25.59,0,0,0,177,149H162.86c-1.12,8.75-9.46,16-18.89,16s-17.71-7.29-18.83-16H111a25.59,25.59,0,0,0-26,25.74v24.14H77V174.74a33.45,33.45,0,0,1,31.56-33.65A41.28,41.28,0,0,1,99,129.38L98.18,128l15-60.34.06,0C116.45,57.3,125.52,50,136.51,50h14.92c10.8,0,20,7.42,23.28,17.7l.18,0,15,60.34-.8,1.39a41.47,41.47,0,0,1-9.59,11.72A33.44,33.44,0,0,1,211,174.74ZM144,121c13.23,0,24-11.66,24-26V85.32a29.23,29.23,0,0,1-5.38.5A30.25,30.25,0,0,1,144,79.24c-9.12,7-18,7.19-24,6.09V95C120,109.34,130.77,121,144,121Zm37.35,5.77-6.09-24.5A34.34,34.34,0,0,1,163,122.34v18.27C171.31,138.33,176.77,134.22,181.35,126.77ZM120,76v1.16c4.57,1.13,12.88,1.59,21.3-6.09l2.7-2.46,2.7,2.46c8.43,7.69,16.74,7.22,21.3,6.08V76c0-10.09-7.28-18-16.57-18H136.51C127.25,58,120,65.91,120,76Zm-13.28,50.77c4.57,7.43,10,11.54,18.28,13.82V122.34a34.36,34.36,0,0,1-12.22-19.91ZM155,147V126.93a30.26,30.26,0,0,1-22,0V147c0,5.16,5.33,10,11,10S155,152.16,155,147Z"/></svg>