<svg id="ART" xmlns="http://www.w3.org/2000/svg" viewBox="0 0 288 288"><defs><style>.cls-1{fill:#fcfbfa;}</style></defs><path class="cls-1" d="M200,170.34V170h-.34l-15.1-15.09-5.65,5.65,9.43,9.44H183c-17.71,0-28.56,4.31-35,13.9V119.66l9.44,9.43,5.65-5.65L144,104.34l-19.09,19.1,5.65,5.65,9.44-9.43V183.9c-6.44-9.59-17.29-13.9-35-13.9H93.66l9.43-9.44-5.65-5.65L78.34,174l19.1,19.09,5.65-5.65L93.66,178H105c30.17,0,35,12.11,35,51v5h8v-5c0-38.89,4.83-51,35-51h5.34l-9.43,9.44,5.65,5.65L199.66,178H200v-.34l3.66-3.66Z"/><path class="cls-1" d="M214.38,91.46A41.74,41.74,0,0,0,201.09,86a13.77,13.77,0,0,1-9.4-7.3A41,41,0,0,0,125,69.11a13,13,0,0,1-10.86,4A33,33,0,0,0,78.62,99.66,13.55,13.55,0,0,1,71.56,109,43.76,43.76,0,0,0,48.13,144.7l-.32,4.3H134v-8H56.69a35.79,35.79,0,0,1,18.59-24.89A21.49,21.49,0,0,0,86.47,101.2a25,25,0,0,1,26.86-20.09,21,21,0,0,0,17.48-6.55,33,33,0,0,1,53.72,7.71A21.75,21.75,0,0,0,199.36,93.8a33.74,33.74,0,0,1,10.76,4.43A34.08,34.08,0,0,1,223,141H154v8h73.85l1.13-2.1A42.09,42.09,0,0,0,214.38,91.46Z"/></svg>