<svg id="ART" xmlns="http://www.w3.org/2000/svg" viewBox="0 0 288 288"><defs><style>.cls-1{fill:#312d2a;}</style></defs><path class="cls-1" d="M187,140H101a9,9,0,0,0-9,9v74H196V149A9,9,0,0,0,187,140Zm-87,9a1,1,0,0,1,1-1h86a1,1,0,0,1,1,1v5H100Zm0,13h12v53H100Zm20,53V162h68v53Zm25.13-33.11-10.57,6.61,10.57,6.61-4.24,6.78-16-10v-6.78l16-10Zm21-6.78,16,10v6.78l-16,10-4.24-6.78,10.58-6.61-10.58-6.61ZM152.29,175h8.18l-5.73,27h-8.18ZM253,208H202v-8h35V78H165v56h-8V70h88V200l8,4ZM231,92H171V84h60Zm-60,21h6v7h48v-7h6v-8h-6V98H177v7h-6Zm14-7h32v6H185Zm46,67h-6v7H202v-8h15v-6H202v-8h23v7h6Zm-60-47h60v26H202v-8h21V134H171Zm31,60h29v8H202ZM100.42,108.21a16.15,16.15,0,0,1-13.48,5.06,16.83,16.83,0,0,0-18.07,13.51,16.52,16.52,0,0,1-8.6,11.49A24.6,24.6,0,0,0,47.8,154H86v8H38.81l.32-4.3a32.51,32.51,0,0,1,17.41-26.51,8.56,8.56,0,0,0,4.48-6A24.83,24.83,0,0,1,87.7,105.31a8.18,8.18,0,0,0,6.85-2.54,30.56,30.56,0,0,1,49.74,7.14,8.74,8.74,0,0,0,6,4.64c.24,0,.48.12.73.19v8.32a23.71,23.71,0,0,0-2.46-.7,16.75,16.75,0,0,1-11.41-8.87,22.55,22.55,0,0,0-36.71-5.28Z"/></svg>