<?xml version="1.0" encoding="utf-8"?>
<!-- Generator: Adobe Illustrator 24.0.3, SVG Export Plug-In . SVG Version: 6.00 Build 0)  -->
<svg version="1.1" id="Layer_1" xmlns="http://www.w3.org/2000/svg" xmlns:xlink="http://www.w3.org/1999/xlink" x="0px" y="0px"
	 viewBox="0 0 288 288" style="enable-background:new 0 0 288 288;" xml:space="preserve">
<style type="text/css">
	.st0{display:none;}
	.st1{display:inline;}
	.st2{fill:#00AEEF;}
	.st3{display:inline;fill:none;stroke:#00AEEF;stroke-miterlimit:10;}
	.st4{fill:#FCFBFA;}
</style>
<g id="Drawing" class="st0">
	<g class="st1">
		<path class="st2" d="M144.4,97.1c25.9,0,47,21.1,47,46.9s-21.1,46.9-47,46.9s-47-21.1-47-46.9S118.4,97.1,144.4,97.1 M144.4,96.1
			c-26.5,0-48,21.5-48,47.9s21.5,47.9,48,47.9s48-21.5,48-47.9S170.9,96.1,144.4,96.1L144.4,96.1z"/>
	</g>
	<g class="st1">
		<path class="st2" d="M287.4,1v286H1.4V1H287.4 M288.4,0H0.4v288h288V0L288.4,0z"/>
	</g>
	<line class="st3" x1="96.4" y1="0" x2="96.4" y2="288"/>
	<line class="st3" x1="192.4" y1="0" x2="192.4" y2="288"/>
	<line class="st3" x1="0.4" y1="192" x2="288.4" y2="192"/>
	<line class="st3" x1="0.4" y1="96" x2="288.4" y2="96"/>
	<g class="st1">
		<path class="st2" d="M144.4,13.1c35,0,67.9,13.6,92.6,38.4s38.4,57.6,38.4,92.6S261.7,212,237,236.8s-57.6,38.4-92.6,38.4
			s-67.9-13.6-92.6-38.4s-38.4-57.6-38.4-92.6S27,76.3,51.7,51.5C76.5,26.8,109.4,13.1,144.4,13.1 M144.4,12.1
			c-72.9,0-132,59.1-132,132s59.1,132,132,132s132-59.1,132-132S217.3,12.1,144.4,12.1L144.4,12.1z"/>
	</g>
	<g class="st1">
		<path class="st2" d="M240.4,13c6.1,0,11,4.9,11,11v240c0,6.1-4.9,11-11,11h-192c-6.1,0-11-4.9-11-11V24c0-6.1,4.9-11,11-11H240.4
			 M240.4,12h-192c-6.6,0-12,5.4-12,12v240c0,6.6,5.4,12,12,12h192c6.6,0,12-5.4,12-12V24C252.4,17.4,247,12,240.4,12L240.4,12z"/>
	</g>
	<g class="st1">
		<path class="st2" d="M264.4,37c6.1,0,11,4.9,11,11v192c0,6.1-4.9,11-11,11h-240c-6.1,0-11-4.9-11-11V48c0-6.1,4.9-11,11-11H264.4
			 M264.4,36h-240c-6.6,0-12,5.4-12,12v192c0,6.6,5.4,12,12,12h240c6.6,0,12-5.4,12-12V48C276.4,41.4,271,36,264.4,36L264.4,36z"/>
	</g>
	<g class="st1">
		<path class="st2" d="M248.1,25c8.4,0,15.2,6.8,15.2,15.2v207.6c0,8.4-6.8,15.2-15.2,15.2H40.6c-8.4,0-15.2-6.8-15.2-15.2V40.2
			c0-8.4,6.8-15.2,15.2-15.2H248.1 M248.1,24H40.6c-8.9,0-16.2,7.3-16.2,16.2v207.6c0,8.9,7.3,16.2,16.2,16.2h207.6
			c8.9,0,16.2-7.3,16.2-16.2V40.2C264.4,31.3,257.1,24,248.1,24L248.1,24z"/>
	</g>
</g>
<g>
	<path class="st4" d="M78.4,202h44v28h-67l35.2-61l18.5,10.7l-15.6-60.1L33.6,136L52.5,147L23,198l23.3,40h84v-44h-47L78.4,202z
		 M32.3,198L63.4,144l-9.1-5.2l33.5-9.4l8.6,33.7l-8.7-5l-39.2,68L32.3,198z"/>
	<path class="st4" d="M222.4,125.2l-38.1,22l24.1,40.8h9l-22.2-37.8l24.2-14l33.5,58h-70.6v-21.4l-44.2,43.6l44.2,43.6v-22h59l23-40
		L222.4,125.2z M236.7,230.2h-62.3v10.5l-24.9-24.3l24.9-24.3v9.9h78.5L236.7,230.2z"/>
	<path class="st4" d="M141.3,84.2l-4.4-8.3l-22,38.1l-24.2-14l33.5-58l35.2,61l-18.5,10.7l59.9,16.5l15.6-60.1L197.5,81L168,30
		l-46.3,0.2l-42,72.8l38.1,22L141.3,84.2z M163.4,38l31.1,53.9l9.1-5.2l-8.6,33.7l-33.5-9.4l8.7-5L131,38L163.4,38z"/>
</g>
</svg>
