<?xml version="1.0" encoding="UTF-8"?>
<svg id="ART" xmlns="http://www.w3.org/2000/svg" viewBox="0 0 288 288">
  <defs>
    <style>
      .cls-1 {
        fill: #312d2a;
      }
    </style>
  </defs>
  <path class="cls-1" d="M70.81,173.48c-2.96-8.1-4.63-16.82-4.72-25.92l10.74,10.12,5.49-5.82-20.33-19.17-19.75,19.75,5.66,5.66,10.2-10.2c.14,10.82,2.31,21.15,6.11,30.67,1.97-1.96,4.19-3.67,6.6-5.09Z"/>
  <path class="cls-1" d="M144.07,224.77c-9.76,0-19.1-1.82-27.72-5.11-1.46,2.4-3.22,4.59-5.21,6.55,10.15,4.22,21.27,6.56,32.93,6.56,35.1,0,66.36-21,79.64-53.49l-7.41-3.03c-12.04,29.47-40.4,48.51-72.23,48.51Z"/>
  <path class="cls-1" d="M87.75,174.86c-15.14,0-27.46,12.32-27.46,27.46s12.32,27.46,27.46,27.46,27.46-12.32,27.46-27.46-12.32-27.46-27.46-27.46ZM87.75,221.77c-10.73,0-19.46-8.73-19.46-19.46s8.73-19.46,19.46-19.46,19.46,8.73,19.46,19.46-8.73,19.46-19.46,19.46Z"/>
  <polygon class="cls-1" points="93.38 192.03 88.21 197.2 83.04 192.03 77.38 197.69 82.55 202.86 77.38 208.03 83.04 213.69 88.21 208.51 93.38 213.69 99.04 208.03 93.87 202.86 99.04 197.69 93.38 192.03"/>
  <polygon class="cls-1" points="182.29 73.8 169.22 86.87 182.29 99.94 187.94 94.29 184.53 90.87 196.86 90.87 196.86 103.2 193.44 99.79 187.79 105.44 200.86 118.52 213.93 105.44 208.28 99.79 204.86 103.2 204.86 90.87 217.19 90.87 213.78 94.29 219.43 99.94 232.51 86.87 219.43 73.8 213.78 79.46 217.19 82.87 204.86 82.87 204.86 70.54 208.28 73.95 213.93 68.3 200.86 55.23 187.79 68.3 193.44 73.96 196.86 70.54 196.86 82.87 184.53 82.87 187.94 79.45 182.29 73.8"/>
  <rect class="cls-1" x="98.77" y="118.71" width="8.46" height="12.68"/>
  <rect class="cls-1" x="98.77" y="135.84" width="8.46" height="12.68"/>
  <path class="cls-1" d="M240.1,135.45l-10.2,10.2c-.18-13.73-3.61-26.69-9.53-38.16l-5.96,5.96c4.69,9.89,7.38,20.91,7.5,32.54l-10.74-10.12-5.49,5.82,20.33,19.17,19.75-19.75-5.66-5.66Z"/>
  <path class="cls-1" d="M143.93,68.77c10.32,0,20.18,2.03,29.2,5.69l6.09-6.09c-10.77-4.87-22.71-7.61-35.29-7.61-35.1,0-66.36,21-79.64,53.49l7.41,3.03c12.04-29.47,40.4-48.51,72.23-48.51Z"/>
  <path class="cls-1" d="M169.78,105.38c0-2.01-.97-4.87-5.59-7.11l-2.87,8.07v5.61h8.46v-6.56Z"/>
  <path class="cls-1" d="M98.77,161.24c0,1.95.91,4.74,5.27,6.95l3.19-7.91v-6h-8.46v6.95Z"/>
  <path class="cls-1" d="M107.23,106.34l-2.83-8.09c-4.65,2.25-5.63,5.12-5.63,7.13v6.53h8.46v-5.57Z"/>
  <path class="cls-1" d="M134.27,118.12c1.98,0,3.95-.04,5.87-.13l-.37-8.45c-3.61.16-7.44.16-11.04,0l-.37,8.45c1.93.08,3.92.13,5.91.13Z"/>
  <path class="cls-1" d="M122.46,117.59l.79-8.42c-4.01-.38-7.69-.97-10.62-1.71l-2.07,8.21c3.4.86,7.4,1.5,11.9,1.93Z"/>
  <path class="cls-1" d="M146.05,117.59c4.5-.42,8.5-1.07,11.9-1.92l-2.06-8.21c-2.94.74-6.61,1.33-10.63,1.7l.79,8.42Z"/>
  <path class="cls-1" d="M139.81,102.25l.37-8.45c-1.93-.08-3.92-.13-5.91-.13-1.98,0-3.95.04-5.87.13l.37,8.45c3.61-.16,7.44-.16,11.04,0Z"/>
  <path class="cls-1" d="M157.99,96.13c-3.4-.86-7.4-1.5-11.9-1.93l-.79,8.42c4.01.38,7.69.97,10.62,1.71l2.07-8.21Z"/>
  <path class="cls-1" d="M123.29,102.62l-.79-8.42c-4.5.42-8.5,1.07-11.9,1.92l2.06,8.21c2.94-.74,6.61-1.33,10.63-1.7Z"/>
  <path class="cls-1" d="M168.59,122.24c.39.03.79.07,1.19.11v-3.61h-8.46v3.06s0,0,0,0c-1.61-.05-2.91-.06-3.74-.06-5.3,0-29.5.47-34.56,8.7l.23-2.41c-4.01-.38-7.69-.97-10.62-1.71l-2.07,8.21c3.3.83,7.17,1.46,11.52,1.89v9.35c-3.73-.4-7.11-.97-9.83-1.69l-2.15,8.19c3.39.89,7.42,1.56,11.97,2.01v9.61c-3.64-.39-6.96-.95-9.65-1.64l-2.11,8.2c3.34.86,7.3,1.51,11.75,1.95v16.32c0,10.87,27.18,11.72,35.5,11.72s35.5-.84,35.5-11.72v-54.24c0-.12-.03-.23-.03-.35,0-.14.03-.28.03-.43,0-7.79-13.85-10.51-24.5-11.46ZM122.15,132.76c-.05.31-.08.62-.08.94,0-.32.03-.63.08-.94ZM122.65,131.14s-.04.09-.06.14c.02-.05.04-.09.06-.14ZM122.36,131.91c-.04.12-.06.24-.09.36.03-.12.05-.24.09-.36ZM162.22,121.84s0,0,0,0c0,0,0,0,0,0ZM167.84,122.18c-.18-.01-.36-.03-.53-.04.18.01.36.03.53.04ZM166.55,122.08c-.16-.01-.32-.02-.48-.03.16.01.32.02.48.03ZM165.31,121.99c-.13,0-.25-.01-.38-.02.13,0,.25.01.38.02ZM157.58,130.21c12.82,0,21.59,1.91,25.41,3.49-3.81,1.58-12.59,3.49-25.41,3.49s-21.59-1.91-25.41-3.49c3.81-1.58,12.59-3.49,25.41-3.49ZM184.63,187.77c-2.34,1.58-11.89,4.19-27.04,4.19s-24.7-2.6-27.04-4.19v-8.91c8.71,3.09,21.72,3.44,27.04,3.44s18.34-.35,27.04-3.44v8.91ZM184.63,169.66c-2.34,1.58-11.89,4.19-27.04,4.19s-24.7-2.6-27.04-4.19v-8.64c8.71,3.09,21.72,3.44,27.04,3.44s18.34-.35,27.04-3.44v8.64ZM184.63,151.81c-2.34,1.58-11.89,4.19-27.04,4.19s-24.7-2.6-27.04-4.19v-9.75c9.22,3.34,23.17,3.59,27.04,3.59s17.83-.25,27.04-3.59v9.75Z"/>
</svg>