<?xml version="1.0" encoding="utf-8"?>
<!-- Generator: Adobe Illustrator 24.0.3, SVG Export Plug-In . SVG Version: 6.00 Build 0)  -->
<svg version="1.1" id="ART" xmlns="http://www.w3.org/2000/svg" xmlns:xlink="http://www.w3.org/1999/xlink" x="0px" y="0px"
	 viewBox="0 0 288 288" style="enable-background:new 0 0 288 288;" xml:space="preserve">
<style type="text/css">
	.st0{fill:#312D2A;}
</style>
<path class="st0" d="M231,86H124.8L114,71.52c-1.7-2.28-4.37-3.63-7.22-3.63H57c-4.97,0-9,4.03-9,9v143.22h192V95
	C240,90.03,235.97,86,231,86z M57,75.89h49.82c0.32,0,0.61,0.15,0.8,0.41L117.83,90l-10.2,13.57c-0.19,0.25-0.48,0.4-0.79,0.4H56
	V76.89C56,76.34,56.45,75.89,57,75.89z M232,212.11H56V112h50.84c2.83,0,5.49-1.33,7.19-3.59L124.86,94H231c0.55,0,1,0.45,1,1
	V212.11z M65,86h37v8H65V86z M144,117c-20.99,0-38,17.01-38,38s17.01,38,38,38s38-17.01,38-38S164.99,117,144,117z M144,185
	c-16.57,0-30-13.43-30-30s13.43-30,30-30s30,13.43,30,30S160.57,185,144,185L144,185z M140,150h8v25h-8V150z M144,133
	c3.04,0,5.5,2.46,5.5,5.5s-2.46,5.5-5.5,5.5s-5.5-2.46-5.5-5.5S140.96,133,144,133z"/>
</svg>
