<?xml version="1.0" encoding="utf-8"?>
<!-- Generator: Adobe Illustrator 24.0.3, SVG Export Plug-In . SVG Version: 6.00 Build 0)  -->
<svg version="1.1" id="icon_art" xmlns="http://www.w3.org/2000/svg" xmlns:xlink="http://www.w3.org/1999/xlink" x="0px" y="0px"
	 viewBox="0 0 288 288" style="enable-background:new 0 0 288 288;" xml:space="preserve">
<style type="text/css">
	.st0{fill:#312D2A;}
</style>
<title>RMIL_Business_Contract_Bark_RGB</title>
<path class="st0" d="M92,106h102v8H92V106z M92,126h102v8H92V126z M92,146h102v8H92V146z M92,166h75v8H92V166z M206,226H82V61h91v33
	h33v63l8-8V85.3L181.7,53H74v181h140v-37l-8,8V226z M203.3,86H181V63.7L203.3,86z M256.5,146.3l10.1-10.1L251,120.6L176.7,195
	l-3.3,18.9l18.9-3.3l58.6-58.6l3.8,3.8c0.4,0.4,0.4,1,0,1.4L229.9,182l5.7,5.7l24.8-24.8c3.5-3.5,3.5-9.2,0-12.7l0,0L256.5,146.3z
	 M255.3,136.2l-4.5,4.5l-4.2-4.2l4.5-4.5L255.3,136.2z M188.3,203.2l-5.1,0.9l0.9-5.1l56.9-56.9l4.2,4.2L188.3,203.2z M131,207h36v8
	h-36V207z M114.2,188.2l-8.2,8.2l-8.2-8.2l-5.7,5.7l8.2,8.2l-8.2,8.2l5.7,5.7l8.2-8.2l8.2,8.2l5.7-5.7l-8.2-8.2l8.2-8.2L114.2,188.2
	z"/>
</svg>
