<?xml version="1.0" encoding="utf-8"?>
<!-- Generator: Adobe Illustrator 27.1.0, SVG Export Plug-In . SVG Version: 6.00 Build 0)  -->
<svg version="1.1" id="ART" xmlns="http://www.w3.org/2000/svg" xmlns:xlink="http://www.w3.org/1999/xlink" x="0px" y="0px"
	 viewBox="0 0 288 288" style="enable-background:new 0 0 288 288;" xml:space="preserve">
<style type="text/css">
	.st0{fill:#FCFBFA;}
</style>
<path class="st0" d="M198,132.1V105c0-7.7-6.3-14-14-14h-4.2L172,69c-1.3-3.6-4.7-6-8.5-6h-38.9c-3.8,0-7.2,2.4-8.5,6l-7.9,22H103
	c-7.7,0-14,6.3-14,14v81c0,7.7,6.3,14,14,14h5.2l7.9,22c1.3,3.6,4.7,6,8.5,6h38.9c3.8,0,7.2-2.4,8.5-6l7.9-22h4.2
	c7.7,0,14-6.3,14-14v-27.1c3.9-0.5,7-3.9,7-7.9v-11C205,135.9,201.9,132.6,198,132.1z M123.6,71.7c0.1-0.4,0.5-0.7,0.9-0.7h38.9
	c0.4,0,0.8,0.3,0.9,0.7l6.9,19.3h-54.7L123.6,71.7z M164.4,219.3c-0.1,0.4-0.5,0.7-0.9,0.7h-38.9c-0.4,0-0.8-0.3-0.9-0.7l-6.9-19.3
	h54.6L164.4,219.3L164.4,219.3z M190,186c0,3.3-2.7,6-6,6h-81c-3.3,0-6-2.7-6-6v-81c0-3.3,2.7-6,6-6h81c3.3,0,6,2.7,6,6V186L190,186
	z"/>
<polygon class="st0" points="159.9,118.6 152,118.6 142,155.1 134.6,129.9 127.1,129.9 122.3,144.1 103,144.1 103,152.1 
	128.1,152.1 130.6,144.6 138.3,171.2 145.8,171.2 155.9,134.7 160.5,152.1 184,152.1 184,144.1 166.6,144.1 "/>
</svg>
