<svg id="ART" xmlns="http://www.w3.org/2000/svg" viewBox="0 0 288 288"><defs><style>.cls-1{fill:#fcfbfa;}</style></defs><path class="cls-1" d="M127.15,128.26c-28.3,6.73-43.44,23.45-44.07,24.16l-3.87,4.35,5.44,2c.64.25,11.53,4.27,27.8,4.27a98.88,98.88,0,0,0,22.93-2.7l21.82-5.19L174.06,170c21.84,19.16,44.62,22.21,45.58,22.33l5.77.72L224,187.39c-.23-.92-5.79-22.78-27.66-42l-16.14-14.16,5.08-20.46c7-28.23-.9-49.36-1.24-50.24L182,55.14,177.65,59c-.72.64-17.68,16.14-24.68,44.35L148,123.29Zm6.38,24.35a90.41,90.41,0,0,1-39.46.52A87.27,87.27,0,0,1,129,136l16.86-4-.25,1a16.44,16.44,0,0,0,1.89,12.55,16.9,16.9,0,0,0,2.44,3.12Zm25.75-23.81a8.52,8.52,0,0,1,2.41-.36,8.71,8.71,0,0,1,2.08.26,8.52,8.52,0,0,1,3.92,2.19v0l.31.28a8.72,8.72,0,0,1,1.07,1.41,8.65,8.65,0,1,1-10-3.71l.27-.06Zm31.8,22.64A87.56,87.56,0,0,1,214,182.87,90.45,90.45,0,0,1,179.33,164l-12.67-11.12a16.79,16.79,0,0,0,3.6-1.62A16.48,16.48,0,0,0,177.8,141l.25-1ZM160.73,105.3A90.4,90.4,0,0,1,178.38,70a87.24,87.24,0,0,1-.85,38.88l-4.08,16.45-.06-.06a16.53,16.53,0,0,0-16.52-4.1l-.08,0ZM236.78,228v4H52v-4l8-4h85.39l4-60.76,6.22-1.48,1.79,1.57-4,60.67h16.46l-3.43-52.72,3.67,3.22c1.6,1.41,3.21,2.72,4.81,4l3,45.53h50.88ZM106.13,90h-46V82h46a8,8,0,0,0,0-16V58a16,16,0,0,1,0,32Zm14,9a8,8,0,0,0,8-8h8a16,16,0,0,1-16,16h-42V99Z"/></svg>