<?xml version="1.0" encoding="utf-8"?>
<!-- Generator: Adobe Illustrator 27.1.0, SVG Export Plug-In . SVG Version: 6.00 Build 0)  -->
<svg version="1.1" id="Layer_1" xmlns="http://www.w3.org/2000/svg" xmlns:xlink="http://www.w3.org/1999/xlink" x="0px" y="0px"
	 viewBox="0 0 288 288" style="enable-background:new 0 0 288 288;" xml:space="preserve">
<style type="text/css">
	.st0{display:none;}
	.st1{display:inline;}
	.st2{fill:#4EA8E6;}
	.st3{fill:none;stroke:#4EA8E6;stroke-width:0.25;stroke-miterlimit:10;}
	.st4{fill:#312D2A;}
</style>
<g id="GUIDES" class="st0">
	<g class="st1">
		<g>
			<path class="st2" d="M144,96.3c26.3,0,47.8,21.4,47.8,47.7s-21.4,47.7-47.8,47.7S96.2,170.3,96.2,144S117.7,96.3,144,96.3
				 M144,96.1c-26.5,0-48,21.5-48,47.9c0,26.5,21.5,47.9,48,47.9s48-21.5,48-47.9C192,117.5,170.5,96.1,144,96.1L144,96.1z"/>
		</g>
		<line class="st3" x1="96" y1="0" x2="96" y2="288"/>
		<line class="st3" x1="192" y1="0" x2="192" y2="288"/>
		<line class="st3" x1="0" y1="192" x2="288" y2="192"/>
		<line class="st3" x1="0" y1="96" x2="288" y2="96"/>
		<g>
			<path class="st2" d="M144,12.4c35.2,0,68.3,13.7,93.2,38.6s38.6,58,38.6,93.2s-13.7,68.3-38.6,93.2S179.2,276,144,276
				s-68.3-13.7-93.2-38.6s-38.6-58-38.6-93.2S26,75.9,50.8,51C75.7,26.1,108.8,12.4,144,12.4 M144,12.1c-72.9,0-132,59.1-132,132
				s59.1,132,132,132s132-59.1,132-132S216.9,12.1,144,12.1L144,12.1z"/>
		</g>
		<g>
			<path class="st2" d="M240,12.2c6.5,0,11.8,5.3,11.8,11.8v240c0,6.5-5.3,11.8-11.8,11.8H48c-6.5,0-11.8-5.3-11.8-11.8V24
				c0-6.5,5.3-11.8,11.8-11.8H240 M240,12H48c-6.6,0-12,5.4-12,12v240c0,6.6,5.4,12,12,12h192c6.6,0,12-5.4,12-12V24
				C252,17.4,246.6,12,240,12L240,12z"/>
		</g>
		<g>
			<path class="st2" d="M264,36.2c6.5,0,11.8,5.3,11.8,11.8v192c0,6.5-5.3,11.8-11.8,11.8H24c-6.5,0-11.8-5.3-11.8-11.8V48
				c0-6.5,5.3-11.8,11.8-11.8H264 M264,36H24c-6.6,0-12,5.4-12,12v192c0,6.6,5.4,12,12,12h240c6.6,0,12-5.4,12-12V48
				C276,41.4,270.6,36,264,36L264,36z"/>
		</g>
		<g>
			<path class="st2" d="M247.8,24.2c8.8,0,16,7.2,16,16v207.6c0,8.8-7.2,16-16,16H40.2c-8.8,0-16-7.2-16-16V40.2c0-8.8,7.2-16,16-16
				H247.8 M247.8,24H40.2C31.3,24,24,31.3,24,40.2v207.6c0,8.9,7.3,16.2,16.2,16.2h207.6c8.9,0,16.2-7.3,16.2-16.2V40.2
				C264,31.3,256.7,24,247.8,24L247.8,24z"/>
		</g>
	</g>
</g>
<g id="ART">
	<g>
		<path class="st4" d="M227,85.7L202.3,61c-3.5-3.5-9.2-3.5-12.7,0l-81.7,81.7c-0.3,0.3-7.4,7.6-10.9,24.3
			c-1.2,6-5.2,12.4-11.7,18.9l-10.6,10.6L62,209.1l0,0c-2.3,2.3-3.5,5.3-3.5,8.5s1.3,6.2,3.5,8.5c2.3,2.3,5.3,3.5,8.4,3.5h0.1
			c3.2,0,6.1-1.2,8.4-3.5l12.5-12.6l10.7-10.7c6.5-6.5,12.9-10.5,18.9-11.7c16.7-3.5,24-10.6,24.3-10.9L227,98.5
			C230.5,95,230.5,89.2,227,85.7z M73.2,220.5c-0.7,0.7-1.7,1.1-2.8,1.1c-1.1,0-2.1-0.4-2.9-1.2s-1.2-1.8-1.2-2.9c0-1,0.4-2,1.1-2.8
			l9.9-9.8l2.8,2.8l2.8,2.8L73.2,220.5z M139.7,174.5c-0.1,0.1-6.2,5.8-20.3,8.8c-7.6,1.6-15.3,6.2-23,13.9l-7.8,7.8l-2.8-2.8
			l-2.8-2.8l7.8-7.8c7.7-7.7,12.3-15.4,13.9-23c2.9-14.2,8.7-20.3,8.7-20.3l70.4-70.4l26.2,26.2L139.7,174.5z M221.4,92.8l-5.6,5.6
			l-26.2-26.2l5.6-5.6c0.4-0.4,1-0.4,1.4,0l24.7,24.7C221.7,91.8,221.7,92.4,221.4,92.8z"/>
		<path class="st4" d="M117,153.4l17.6,17.6l46-46L163,107.4L117,153.4z M134.6,159.7l-6.3-6.3l34.6-34.6l6.3,6.3L134.6,159.7z"/>
		<path class="st4" d="M190.1,97.9c-3.1-3.1-8.2-3.2-11.3-0.1s-3.1,8.1,0.1,11.3c3.1,3.1,8.2,3.2,11.3,0.1
			C193.3,106.1,193.2,101,190.1,97.9z"/>
	</g>
</g>
</svg>
