<?xml version="1.0" encoding="UTF-8"?>
<svg id="ART" xmlns="http://www.w3.org/2000/svg" version="1.1" viewBox="0 0 288 288">
  <defs>
    <style>
      .cls-1 {
        fill: #312d2a;
        fill-rule: evenodd;
        stroke-width: 0px;
      }
    </style>
  </defs>
  <path class="cls-1" d="M190.5,97.2c-12.3-12.4-28.8-19.2-46.3-19.2-36.1,0-65.4,29.3-65.4,65.4,0,11.5,3,22.8,8.7,32.7l-9.3,33.9,34.7-9.1c9.6,5.2,20.3,8,31.3,8h0c36,0,65.4-29.3,65.4-65.4,0-17.5-6.8-33.9-19.1-46.3h0ZM144.3,197.8h0c-9.8,0-19.3-2.6-27.7-7.6l-2-1.2-20.6,5.4,5.5-20.1-1.3-2.1c-5.4-8.7-8.3-18.7-8.3-28.9,0-30,24.4-54.4,54.4-54.4,14.5,0,28.2,5.7,38.4,15.9,10.3,10.3,15.9,23.9,15.9,38.5,0,30-24.4,54.4-54.4,54.4h0ZM174.1,157.1c-1.6-.8-9.7-4.8-11.2-5.3-1.5-.5-2.6-.8-3.7.8-1.1,1.6-4.2,5.3-5.2,6.4-1,1.1-1.9,1.2-3.5.4-1.6-.8-6.9-2.5-13.1-8.1-4.9-4.3-8.1-9.7-9.1-11.3-1-1.6-.1-2.5.7-3.3.7-.7,1.6-1.9,2.5-2.9.8-1,1.1-1.6,1.6-2.7.5-1.1.3-2-.1-2.9-.4-.8-3.7-8.9-5-12.1-1.3-3.2-2.7-2.8-3.7-2.8-1,0-2,0-3.1,0s-2.9.4-4.4,2c-1.5,1.6-5.7,5.6-5.7,13.6s5.9,15.8,6.7,16.9c.8,1.1,11.5,17.6,27.9,24.7,3.9,1.7,6.9,2.7,9.3,3.4,3.9,1.2,7.5,1.1,10.3.6,3.1-.5,9.7-4,11-7.8,1.4-3.8,1.4-7.1,1-7.8s-1.5-1.1-3.1-1.9h0Z"/>
</svg>