<?xml version="1.0" encoding="utf-8"?>
<!-- Generator: Adobe Illustrator 24.0.3, SVG Export Plug-In . SVG Version: 6.00 Build 0)  -->
<svg version="1.1" id="ART" xmlns="http://www.w3.org/2000/svg" xmlns:xlink="http://www.w3.org/1999/xlink" x="0px" y="0px"
	 viewBox="0 0 288 288" style="enable-background:new 0 0 288 288;" xml:space="preserve">
<style type="text/css">
	.st0{fill:#312D2A;}
</style>
<path class="st0" d="M82,95l-1-12.6c-0.5-4.8-4.5-8.4-9.3-8.4H51v4l7.6,3.8V82h13.1c0.7,0,1.2,0.5,1.3,1.1l8.1,101.4
	c0.4,4.8,4.5,8.4,9.3,8.4h3.3c-3.7,7.2-0.9,16,6.3,19.7c7.2,3.7,16,0.9,19.7-6.3c2.2-4.2,2.2-9.2,0-13.4h48.5
	c-1.1,2.1-1.6,4.3-1.6,6.6c0,8.1,6.5,14.7,14.6,14.7c8.1,0,14.7-6.5,14.7-14.6c0-2.3-0.5-4.7-1.6-6.7h5.1v-0.2l7.6-3.8v-4H90.4
	c-0.7,0-1.2-0.5-1.3-1.1l-1-12.9h111.8c5.2,0,9.7-3.9,10.3-9.1l8.4-66.9H82z M113.3,199.6c0,3.7-3,6.7-6.6,6.7s-6.7-3-6.7-6.6
	c0-3.7,3-6.7,6.6-6.7c0,0,0,0,0,0C110.4,193,113.4,196,113.3,199.6L113.3,199.6z M187.9,199.6c0,3.7-3,6.7-6.6,6.7
	c-3.7,0-6.7-3-6.7-6.6c0-3.7,3-6.7,6.6-6.7c0,0,0,0,0,0C184.9,193,187.9,196,187.9,199.6L187.9,199.6L187.9,199.6z M207.7,117h-24.6
	l0.9-14h25.5L207.7,117z M84.4,125h25.1l0.6,15H85.6L84.4,125z M117.5,125H142v15h-23.9L117.5,125z M142,117h-24.8l-0.6-14H142V117z
	 M150,103h25.9l-0.9,14H150V103z M142,148v15h-23l-0.6-15H142z M150,148h23.1l-0.9,15H150V148z M150,140v-15h24.6l-0.9,15H150z
	 M182.6,125h24.1l-1.9,15h-23.2L182.6,125z M108.7,103l0.5,14H83.8l-1.1-14H108.7z M86.2,148h24.2l0.6,15H87.4L86.2,148z M199.8,163
	h-19.6l0.9-15h22.7l-1.6,12.9C202.1,162.1,201,163,199.8,163z"/>
</svg>
