<svg id="ART" xmlns="http://www.w3.org/2000/svg" viewBox="0 0 288 288"><defs><style>.cls-1{fill:#312d2a;}</style></defs><path class="cls-1" d="M172.72,148.3a33.27,33.27,0,0,0,5.81-7.62l.8-1.39L168,93.92l-.07,0c-2.61-8.1-9.87-14-18.42-14H138.41c-9.59,0-17.56,7.36-19.15,17l-10.53,42.3.8,1.39a33.37,33.37,0,0,0,5.79,7.61A25.83,25.83,0,0,0,93,174v32h8V174a17.79,17.79,0,0,1,11.73-16.78L129,179.63V206h8V166.07a15.14,15.14,0,0,0,14,0V206h8V179.63l16.27-22.43A17.79,17.79,0,0,1,187,174v32h8V174A25.83,25.83,0,0,0,172.72,148.3ZM127,114.61V108.5a23.13,23.13,0,0,0,17-4.44,23.34,23.34,0,0,0,13.87,4.66,23.59,23.59,0,0,0,3.13-.21v6.1c0,10.19-7.64,18.48-17,18.48S127,124.8,127,114.61ZM159,147.24V135.77a26.42,26.42,0,0,0,8.31-11.62l3.47,13.91A20.34,20.34,0,0,1,159,147.24ZM138.41,88h11.13c6.28,0,11.39,5.56,11.45,12.42-3.28.66-8.74.62-14.3-4.44L144,93.5,141.31,96c-5.58,5.08-11.07,5.1-14.35,4.43a12.79,12.79,0,0,1,.14-1.76l.69-2.78h0A11.51,11.51,0,0,1,138.41,88ZM120.7,124.32a26.51,26.51,0,0,0,8.3,11.49v11.41a20.29,20.29,0,0,1-11.72-9.16Zm1,31.66H129v10Zm22.25,3.8c-3.65,0-7-3-7-6.25V140a23.75,23.75,0,0,0,14,0v13.5C151,156.8,147.65,159.78,144,159.78Zm15-3.8h7.27L159,166Zm76-4.8V134.91A28.94,28.94,0,0,0,245,113V94a16,16,0,0,0-16-16H191v30.26l-4.42,12.36a5,5,0,0,0,3.34,6.47L193,128v6a9,9,0,0,0,8,9v63h8V178.54l7-7.6v35h8V167a8,8,0,0,1,8-8,16,16,0,0,1,16,16v31h8V175A24,24,0,0,0,235,151.18ZM229,85c2.14,0,4.14,1.85,5.66,3.36A8,8,0,0,1,237,94v1H207a8,8,0,0,1-8-8V85Zm-33.81,35.31L199,109.68l0-8.88a15.85,15.85,0,0,0,8,2.18h30v10a20.83,20.83,0,0,1-8.37,16.78L227,131v20H209v-8h1l8-4v-4H202a1,1,0,0,1-1-1V122ZM209,166v-7h7.13L209,166.73ZM95,128l3.08-.88a5,5,0,0,0,3.34-6.47L97,108.29V78H59A16,16,0,0,0,43,94v19a28.94,28.94,0,0,0,10,21.93v16.27A24,24,0,0,0,32,175v31h8V175a16,16,0,0,1,16-16,8,8,0,0,1,8,8v39h8v-35l7,7.6V206h8v-63a9,9,0,0,0,8-9ZM53.34,88.36A8,8,0,0,1,59,86H89v1a8,8,0,0,1-8,8H51V94A8,8,0,0,1,53.34,88.36ZM79,166.73,71.87,159H79v7.75ZM87,122v12a1,1,0,0,1-1,1H70v4l8,4h1v8H61V131l-1.63-1.2A20.83,20.83,0,0,1,51,113V103H81a15.8,15.8,0,0,0,8-2.17l0,8.87,3.76,10.63Z"/></svg>