<svg id="ART" xmlns="http://www.w3.org/2000/svg" viewBox="0 0 288 288"><defs><style>.cls-1{fill:#fcfbfa;}</style></defs><path class="cls-1" d="M170.9,126.63l-5.23,6.05A34.69,34.69,0,0,0,144,124.27l.22-8A42.68,42.68,0,0,1,170.9,126.63ZM211,182.68V199H73V182.68l7-4V171h60v-6H78v-4l7.58-4h.23A57,57,0,0,1,140,102l.09-7H127.72V91l8-4h16.72l8,4v4H148v7a57.29,57.29,0,0,1,52.3,55.94L206,161v4H148v6h56v7.68ZM192.28,157a49.27,49.27,0,0,0-98.47,0ZM203,187.32l-7-4V179H88v4.32l-7,4V191H203ZM175,131.5a5,5,0,1,0,5,5A5,5,0,0,0,175,131.5Z"/></svg>