<svg id="ART" xmlns="http://www.w3.org/2000/svg" viewBox="0 0 288 288"><defs><style>.cls-1{fill:#312d2a;}</style></defs><title>RMIL_Personas</title><path class="cls-1" d="M188,159H172V137.63A41,41,0,0,0,185,108V48H131.25C113.56,48,103,59.59,103,79v29a40.9,40.9,0,0,0,13,29.91V159H99c-25.92,0-47,21.46-47,47.84V236h8V206.84c0-22,17.5-39.84,39-39.84h20.17L144,193.9,168.83,167H188a40,40,0,0,1,40,39.84V236h8V206.84A48,48,0,0,0,188,159ZM131,56h46c-1,12.61-7.16,19-18,19H111.18C112.08,65.58,116.36,56,131,56Zm-20,52V83h48c7.55,0,13.63-2.37,18-6.82V108c0,17.89-15.11,33-33,33A33,33,0,0,1,111,108Zm33,74.1-20-21.66V143.77A40.66,40.66,0,0,0,144,149a40,40,0,0,0,20-5.41v16.85Z"/></svg>