<svg id="ART" xmlns="http://www.w3.org/2000/svg" viewBox="0 0 288 288"><defs><style>.cls-1{fill:#fcfbfa;}</style></defs><rect class="cls-1" x="46" y="140" width="60" height="8"/><path class="cls-1" d="M71,131h36.47a57.93,57.93,0,0,1,2.46-8H71Z"/><path class="cls-1" d="M71,157v8h38.93a57.93,57.93,0,0,1-2.46-8Z"/><path class="cls-1" d="M180.73,126.11l-10,7.79a12.07,12.07,0,1,0,2.48,17.86A11.93,11.93,0,0,0,176,143a12.12,12.12,0,0,0-.53-2.68l10.13-7.86ZM167.1,146.57a4.07,4.07,0,1,1,1-3A4.08,4.08,0,0,1,167.1,146.57Z"/><polygon class="cls-1" points="185 186 143 186 143 186 134.98 186 134.98 190 143 194 143 194 185 194 185 194 193.02 190 193.02 186 185 186 185 186"/><path class="cls-1" d="M164,92a52,52,0,0,0-38.75,86.67l1.19,1.33h75.12l1.19-1.33A52,52,0,0,0,164,92Zm33.93,80H130.07a43.77,43.77,0,0,1-6.5-10.66L133.85,158l-2.47-7.61-10.29,3.35a43.82,43.82,0,0,1,0-19.47l10.28,3.34,2.47-7.61-10.28-3.34A44.18,44.18,0,0,1,135,110.93l6.34,8.73,6.47-4.7-6.35-8.75a43.75,43.75,0,0,1,18.51-6V111h8V100.19a43.75,43.75,0,0,1,18.51,6L180.16,115l6.47,4.7,6.34-8.73a44.18,44.18,0,0,1,11.46,15.73L194.15,130l2.47,7.61,10.28-3.34a43.82,43.82,0,0,1,0,19.47l-10.29-3.35L194.15,158l10.28,3.34A43.77,43.77,0,0,1,197.93,172Z"/></svg>