<?xml version="1.0" encoding="utf-8"?>
<!-- Generator: Adobe Illustrator 24.0.3, SVG Export Plug-In . SVG Version: 6.00 Build 0)  -->
<svg version="1.1" id="ART" xmlns="http://www.w3.org/2000/svg" xmlns:xlink="http://www.w3.org/1999/xlink" x="0px" y="0px"
	 viewBox="0 0 288 288" style="enable-background:new 0 0 288 288;" xml:space="preserve">
<style type="text/css">
	.st0{fill:#312D2A;}
</style>
<path class="st0" d="M171,209h-54l0,0h-8v4l8,4l0,0h54l0,0l8-4v-4H171L171,209z M144,71.9c-40.5,0.1-73.3,33-73.3,73.5
	c0,22,9.9,42.8,27,56.7l1.1,0.9H189l1.1-0.9c31.5-25.5,36.3-71.6,10.9-103.1C187.1,81.8,166.1,71.9,144,71.9z M192.4,188.9
	l-12.4-12.4l-5.7,5.7l12.3,12.3c-0.2,0.2-0.4,0.3-0.6,0.5h-84.5c-0.3-0.2-0.5-0.5-0.8-0.7l12.1-12.1l-5.7-5.7l-12.1,12.1
	c-3.9-4.3-7.1-9.2-9.7-14.4l15.9-6.6l-3.1-7.4l-16,6.6c-1.9-5.5-3.1-11.2-3.5-17.1h17.4v-8H78.8c0.3-5.9,1.4-11.7,3.2-17.2l16.4,6.8
	l3.1-7.4L85,117.2c2.5-5.3,5.8-10.3,9.7-14.8l12.7,12.7l5.7-5.7l-12.8-12.8c4.4-4,9.3-7.3,14.7-10l7,16.9l7.4-3.1l-7-16.9
	c5.4-1.9,11-3.1,16.7-3.5v18.4h8V79.9c6.2,0.3,12.4,1.5,18.2,3.5l-7.1,17.1l7.4,3.1l7.1-17.1c5.4,2.6,10.4,6,14.8,10l-13,13l5.7,5.7
	l13-13c3.9,4.5,7.2,9.5,9.8,14.9l-16.9,7l3.1,7.4l16.9-7c1.9,5.6,3,11.5,3.3,17.4h-18.1v8h18c-0.4,5.9-1.6,11.7-3.6,17.2l-16.5-6.8
	l-3,7.4l16.4,6.8C199.7,179.7,196.4,184.6,192.4,188.9z M167.9,117l-17.6,17.4c-6.9-3.5-15.3-0.7-18.8,6.2
	c-3.5,6.9-0.7,15.3,6.2,18.8c6.9,3.5,15.3,0.7,18.8-6.2c2.1-4.2,2-9.2-0.4-13.3l17.4-17.2L167.9,117z M148.6,150.7
	c-2.1,2.5-5.9,2.8-8.5,0.7c-2.5-2.1-2.8-5.9-0.7-8.5c1-1.2,2.5-2,4.1-2.1c0.2,0,0.3,0,0.5,0c3.3,0,6,2.7,6,6
	C150,148.3,149.5,149.7,148.6,150.7L148.6,150.7z"/>
</svg>
