<svg id="icon_art" data-name="icon art" xmlns="http://www.w3.org/2000/svg" viewBox="0 0 288 288"><defs><style>.cls-1{fill:#fcfbfa;}</style></defs><title>RMIL_Technology</title><path class="cls-1" d="M144,83H80V75h64ZM80,223h64v-8H80Zm64-22H80v8h64Zm18,34h-4V201h-8v34H74V63h76V83h8V55H66V235H62l-8,4v4H170v-4l-8-4ZM106,119H80v8h26ZM88,97H80v8h8v8h18v-8H96V97h10.11a15.58,15.58,0,0,1,3.31-8H88Zm-8,64h26v-8H88V141h18v-8H80ZM254,98.77v86.46a9.78,9.78,0,0,1-9.77,9.77H121.77a9.78,9.78,0,0,1-9.77-9.77V98.77A9.78,9.78,0,0,1,121.77,89H244.23A9.78,9.78,0,0,1,254,98.77Zm-8,0A1.77,1.77,0,0,0,244.23,97H121.77A1.77,1.77,0,0,0,120,98.77v86.46a1.77,1.77,0,0,0,1.77,1.77H244.23a1.77,1.77,0,0,0,1.77-1.77ZM232,150h8V134h-8Zm-82,11h8V124.13h-8Zm17-29h12v29h8V132h12v-8H167ZM80,195h29.42a15.58,15.58,0,0,1-3.31-8H88V175h18v-8H80Z"/></svg>