<?xml version="1.0" encoding="utf-8"?>
<!-- Generator: Adobe Illustrator 27.1.0, SVG Export Plug-In . SVG Version: 6.00 Build 0)  -->
<svg version="1.1" id="Layer_1" xmlns="http://www.w3.org/2000/svg" xmlns:xlink="http://www.w3.org/1999/xlink" x="0px" y="0px"
	 viewBox="0 0 288 288" style="enable-background:new 0 0 288 288;" xml:space="preserve">
<style type="text/css">
	.st0{display:none;}
	.st1{display:inline;}
	.st2{fill:#4EA8E6;}
	.st3{fill:none;stroke:#4EA8E6;stroke-width:0.25;stroke-miterlimit:10;}
	.st4{fill:#312D2A;}
</style>
<g id="GUIDES" class="st0">
	<g class="st1">
		<g>
			<path class="st2" d="M144,96.3c26.3,0,47.8,21.4,47.8,47.7s-21.4,47.7-47.8,47.7S96.2,170.3,96.2,144S117.7,96.3,144,96.3
				 M144,96.1c-26.5,0-48,21.5-48,47.9c0,26.5,21.5,47.9,48,47.9s48-21.5,48-47.9C192,117.5,170.5,96.1,144,96.1L144,96.1z"/>
		</g>
		<line class="st3" x1="96" y1="0" x2="96" y2="288"/>
		<line class="st3" x1="192" y1="0" x2="192" y2="288"/>
		<line class="st3" x1="0" y1="192" x2="288" y2="192"/>
		<line class="st3" x1="0" y1="96" x2="288" y2="96"/>
		<g>
			<path class="st2" d="M144,12.4c35.2,0,68.3,13.7,93.2,38.6s38.6,58,38.6,93.2s-13.7,68.3-38.6,93.2S179.2,276,144,276
				s-68.3-13.7-93.2-38.6s-38.6-58-38.6-93.2S26,75.9,50.8,51S108.8,12.4,144,12.4 M144,12.1c-72.9,0-132,59.1-132,132
				s59.1,132,132,132s132-59.1,132-132S216.9,12.1,144,12.1L144,12.1z"/>
		</g>
		<g>
			<path class="st2" d="M240,12.2c6.5,0,11.8,5.3,11.8,11.8v240c0,6.5-5.3,11.8-11.8,11.8H48c-6.5,0-11.8-5.3-11.8-11.8V24
				c0-6.5,5.3-11.8,11.8-11.8H240 M240,12H48c-6.6,0-12,5.4-12,12v240c0,6.6,5.4,12,12,12h192c6.6,0,12-5.4,12-12V24
				C252,17.4,246.6,12,240,12L240,12z"/>
		</g>
		<g>
			<path class="st2" d="M264,36.2c6.5,0,11.8,5.3,11.8,11.8v192c0,6.5-5.3,11.8-11.8,11.8H24c-6.5,0-11.8-5.3-11.8-11.8V48
				c0-6.5,5.3-11.8,11.8-11.8H264 M264,36H24c-6.6,0-12,5.4-12,12v192c0,6.6,5.4,12,12,12h240c6.6,0,12-5.4,12-12V48
				C276,41.4,270.6,36,264,36L264,36z"/>
		</g>
		<g>
			<path class="st2" d="M247.8,24.2c8.8,0,16,7.2,16,16v207.6c0,8.8-7.2,16-16,16H40.2c-8.8,0-16-7.2-16-16V40.2c0-8.8,7.2-16,16-16
				H247.8 M247.8,24H40.2C31.3,24,24,31.3,24,40.2v207.6c0,8.9,7.3,16.2,16.2,16.2h207.6c8.9,0,16.2-7.3,16.2-16.2V40.2
				C264,31.3,256.7,24,247.8,24L247.8,24z"/>
		</g>
	</g>
</g>
<g id="ART">
	<g>
		<path class="st4" d="M204,188.9v-30.6c0-13.2-10.8-24-24-24s-24,10.8-24,24v24.1c0,11-9,20-20,20s-20-9-20-20v-30.2
			c21.3-2,38-20,38-41.8v-4h-6v-31c0-2.4-0.9-4.7-2.6-6.4s-4-2.6-6.4-2.6h-5.4c-1.2-1.7-3.3-2.9-5.6-2.9c-3.8,0-6.9,3.1-6.9,6.9
			s3.1,6.9,6.9,6.9c2.3,0,4.3-1.1,5.6-2.9h5.4c0.3,0,0.6,0.2,0.7,0.3s0.3,0.4,0.3,0.7v31h-6v4c0,12.1-9.9,22-22,22s-22-9.9-22-22v-4
			h-6v-31c0-0.3,0.2-0.6,0.3-0.7s0.4-0.3,0.7-0.3h5.5c1.2,1.7,3.3,2.9,5.6,2.9c3.8,0,6.9-3.1,6.9-6.9s-3.1-6.9-6.9-6.9
			c-2.3,0-4.3,1.1-5.6,2.9H85c-2.4,0-4.7,0.9-6.4,2.6c-1.7,1.7-2.6,4-2.6,6.4v31h-6v4c0,21.8,16.7,39.8,38,41.8v30.2
			c0,15.4,12.6,28,28,28s28-12.6,28-28v-24.1c0-8.8,7.2-16,16-16s16,7.2,16,16v30.6c-8,1.8-14,9-14,17.5c0,9.9,8.1,18,18,18
			s18-8.1,18-18C218,197.9,212,190.7,204,188.9z M78.3,114.4h4c2,14.6,14.5,26,29.7,26s27.7-11.4,29.7-26h4c-2,16.8-16.4,30-33.7,30
			l0,0C94.6,144.4,80.2,131.3,78.3,114.4z M200,216.4c-5.5,0-10-4.5-10-10s4.5-10,10-10s10,4.5,10,10S205.5,216.4,200,216.4z"/>
		<circle class="st4" cx="200" cy="206.4" r="6"/>
	</g>
</g>
</svg>
