<?xml version="1.0" encoding="utf-8"?>
<!-- Generator: Adobe Illustrator 24.0.3, SVG Export Plug-In . SVG Version: 6.00 Build 0)  -->
<svg version="1.1" id="icon_art" xmlns="http://www.w3.org/2000/svg" xmlns:xlink="http://www.w3.org/1999/xlink" x="0px" y="0px"
	 viewBox="0 0 288 288" style="enable-background:new 0 0 288 288;" xml:space="preserve">
<style type="text/css">
	.st0{fill:#312D2A;}
</style>
<title>RMIL_Business_Reports_Bark_RGB</title>
<path class="st0" d="M156.3,99H152v47h46l-0.3-4.1C196.2,119.8,178.4,100.5,156.3,99z M160,138.1V109c14.8,2.8,26.4,14.4,29.2,29.2
	L160,138.1z M147,111h-4.1c-24.9,0.1-44.9,20.3-44.9,45.1s20.3,44.9,45.1,44.9c24.9-0.1,44.9-20.3,44.9-45.1V152h-41V111z
	 M105.7,155.9c0.1-19,14.4-34.9,33.3-36.9v35.1l-25.1,25.1C108.6,172.5,105.7,164.3,105.7,155.9z M119.6,184.8l23.3-23.3l23.3,23.3
	C152.6,195.8,133.2,195.8,119.6,184.8L119.6,184.8z M171.8,179.1l-19.2-19.2h27.2C179,166.9,176.2,173.6,171.8,179.1L171.8,179.1z
	 M94,66h55.4v8H94V66z M94,80h40v8H94V80z M181.7,46H74v182h140V79.4L181.7,46z M181,56.8L203.5,80H181V56.8z M82,220V54h91v34h33
	v132H82z M74,234v4l8,4h124l0,0l8-4v-4H74z"/>
</svg>
