<?xml version="1.0" encoding="utf-8"?>
<!-- Generator: Adobe Illustrator 24.0.3, SVG Export Plug-In . SVG Version: 6.00 Build 0)  -->
<svg version="1.1" xmlns="http://www.w3.org/2000/svg" xmlns:xlink="http://www.w3.org/1999/xlink" x="0px" y="0px"
	 viewBox="0 0 288 288" style="enable-background:new 0 0 288 288;" xml:space="preserve">
<style type="text/css">
	.st0{display:none;}
	.st1{display:inline;}
	.st2{fill:#00AEEF;}
	.st3{display:inline;fill:none;stroke:#00AEEF;stroke-width:0.25;stroke-miterlimit:10;}
	.st4{fill:#FCFBFA;}
</style>
<g id="Guides">
</g>
<g id="Drawing" class="st0">
	<g class="st1">
		<path class="st2" d="M144,96.34c26.33,0,47.75,21.39,47.75,47.67s-21.42,47.67-47.75,47.67s-47.75-21.39-47.75-47.67
			S117.67,96.34,144,96.34 M144,96.09c-26.51,0-48,21.46-48,47.92s21.49,47.92,48,47.92s48-21.46,48-47.92S170.51,96.09,144,96.09
			L144,96.09z"/>
	</g>
	<g class="st1">
		<path class="st2" d="M287.75,0.25v287.5H0.25V0.25H287.75 M288,0H0v288h288V0L288,0z"/>
	</g>
	<line class="st3" x1="96" y1="0" x2="96" y2="288"/>
	<line class="st3" x1="192" y1="0" x2="192" y2="288"/>
	<line class="st3" x1="0" y1="192" x2="288" y2="192"/>
	<line class="st3" x1="0" y1="96" x2="288" y2="96"/>
	<g class="st1">
		<path class="st2" d="M144,12.4c35.19,0,68.28,13.7,93.16,38.59c24.88,24.88,38.59,57.97,38.59,93.16s-13.7,68.28-38.59,93.16
			S179.19,275.9,144,275.9s-68.28-13.7-93.16-38.59c-24.88-24.88-38.59-57.97-38.59-93.16s13.7-68.28,38.59-93.16
			C75.72,26.1,108.81,12.4,144,12.4 M144,12.15c-72.9,0-132,59.1-132,132s59.1,132,132,132s132-59.1,132-132S216.9,12.15,144,12.15
			L144,12.15z"/>
	</g>
	<g class="st1">
		<path class="st2" d="M240,12.25c6.48,0,11.75,5.27,11.75,11.75v240c0,6.48-5.27,11.75-11.75,11.75H48
			c-6.48,0-11.75-5.27-11.75-11.75V24c0-6.48,5.27-11.75,11.75-11.75H240 M240,12H48c-6.6,0-12,5.4-12,12v240c0,6.6,5.4,12,12,12
			h192c6.6,0,12-5.4,12-12V24C252,17.4,246.6,12,240,12L240,12z"/>
	</g>
	<g class="st1">
		<path class="st2" d="M264,36.25c6.48,0,11.75,5.27,11.75,11.75v192c0,6.48-5.27,11.75-11.75,11.75H24
			c-6.48,0-11.75-5.27-11.75-11.75V48c0-6.48,5.27-11.75,11.75-11.75H264 M264,36H24c-6.6,0-12,5.4-12,12v192c0,6.6,5.4,12,12,12
			h240c6.6,0,12-5.4,12-12V48C276,41.4,270.6,36,264,36L264,36z"/>
	</g>
	<g class="st1">
		<path class="st2" d="M247.78,24.25c8.81,0,15.97,7.16,15.97,15.97v207.56c0,8.81-7.16,15.97-15.97,15.97H40.22
			c-8.81,0-15.97-7.16-15.97-15.97V40.22c0-8.81,7.16-15.97,15.97-15.97H247.78 M247.78,24H40.22C31.3,24,24,31.3,24,40.22v207.56
			C24,256.7,31.3,264,40.22,264h207.56c8.92,0,16.22-7.3,16.22-16.22V40.22C264,31.3,256.7,24,247.78,24L247.78,24z"/>
	</g>
</g>
<g id="icon_art">
	<g>
		<path class="st4" d="M52,52v184h184V52H52z M60,87h61v12H60V87z M228,167H124v-12h104V167z M116,147v28h112v53H60V107h69V79H60V60
			h168v87H116z"/>
		<path class="st4" d="M92,113v28h100v-28H92z M184,133h-84v-12h84V133z"/>
		<path class="st4" d="M78,209h92v-28H78V209z M86,189h77v12H86V189z"/>
	</g>
</g>
</svg>
