<?xml version="1.0" encoding="utf-8"?>
<!-- Generator: Adobe Illustrator 28.0.0, SVG Export Plug-In . SVG Version: 6.00 Build 0)  -->
<svg version="1.1" id="ART" xmlns="http://www.w3.org/2000/svg" xmlns:xlink="http://www.w3.org/1999/xlink" x="0px" y="0px"
	 viewBox="0 0 288 288" style="enable-background:new 0 0 288 288;" xml:space="preserve">
<style type="text/css">
	.st0{fill:#FCFBFA;}
</style>
<g>
	<g>
		<g>
			<path class="st0" d="M217.8,117H70.2c-5.8,0-10.4,4.7-10.4,10.4v90.2h168.6v-90.2C228.3,121.6,223.6,117,217.8,117z M220.3,209.6
				H67.7v-82.2c0-1.3,1.1-2.4,2.4-2.4h147.7c1.3,0,2.4,1.1,2.4,2.4V209.6z"/>
		</g>
	</g>
	<g>
		<g>
			<path class="st0" d="M236.4,36.9h-12l-2.1-9.8c-0.4-1.8-2-3.2-3.9-3.2h0l-10.1,0.1c-2.2,0-4,1.8-4,4c0,2.2,1.8,4,4,4c0,0,0,0,0,0
				l6.9,0l1.1,5h-19.3v-6.7c0-2.2-1.8-4-4-4s-4,1.8-4,4v6.7h-19.3l1-4.7l7.1,0c2.2,0,4-1.8,4-4c0-2.2-1.8-4-4-4h0l-10.3,0.1
				c-1.9,0-3.5,1.3-3.9,3.1l-2.1,9.5h-34.6l-2.1-9.8c-0.4-1.8-2-3.2-3.9-3.2h0l-10.2,0.1c-2.2,0-4,1.8-4,4c0,2.2,1.8,4,4,4
				c0,0,0,0,0,0l6.9,0l1,5H99.3v-6.7c0-2.2-1.8-4-4-4c-2.2,0-4,1.8-4,4v6.7H72l1-4.7l7.1,0c2.2,0,4-1.8,4-4c0-2.2-1.8-4-4-4h0
				l-10.3,0.1c-1.9,0-3.5,1.3-3.9,3.1l-2.1,9.5H51.6c-7.1,0-12.9,5.8-12.9,12.9v214.4h210.6V49.8C249.3,42.7,243.5,36.9,236.4,36.9z
				 M241.3,256.1H46.7v-19.5h194.6V256.1z M241.3,228.6H46.7V98.8h194.6V228.6z M241.3,90.8H46.7v-41c0-2.7,2.2-4.9,4.9-4.9h184.8
				c2.7,0,4.9,2.2,4.9,4.9V90.8z"/>
			<path class="st0" d="M76,57.3c-6.3,0-11.5,5.2-11.5,11.5c0,6.3,5.2,11.5,11.5,11.5c6.3,0,11.5-5.2,11.5-11.5
				C87.5,62.5,82.3,57.3,76,57.3z M76,72.4c-1.9,0-3.5-1.6-3.5-3.5c0-1.9,1.6-3.5,3.5-3.5c1.9,0,3.5,1.6,3.5,3.5
				C79.5,70.8,77.9,72.4,76,72.4z"/>
			<path class="st0" d="M121.4,57.3c-6.4,0-11.5,5.2-11.5,11.5c0,6.3,5.2,11.5,11.5,11.5c6.3,0,11.5-5.2,11.5-11.5
				C132.9,62.5,127.7,57.3,121.4,57.3z M121.4,72.4c-1.9,0-3.5-1.6-3.5-3.5c0-1.9,1.6-3.5,3.5-3.5c1.9,0,3.5,1.6,3.5,3.5
				C124.9,70.8,123.3,72.4,121.4,72.4z"/>
			<path class="st0" d="M212.1,57.3c-6.3,0-11.5,5.2-11.5,11.5c0,6.3,5.2,11.5,11.5,11.5c6.4,0,11.5-5.2,11.5-11.5
				C223.7,62.5,218.5,57.3,212.1,57.3z M212.1,72.4c-1.9,0-3.5-1.6-3.5-3.5c0-1.9,1.6-3.5,3.5-3.5c1.9,0,3.5,1.6,3.5,3.5
				C215.7,70.8,214.1,72.4,212.1,72.4z"/>
			<path class="st0" d="M166.8,57.3c-6.4,0-11.5,5.2-11.5,11.5c0,6.3,5.2,11.5,11.5,11.5c6.3,0,11.5-5.2,11.5-11.5
				C178.3,62.5,173.1,57.3,166.8,57.3z M166.8,72.4c-1.9,0-3.5-1.6-3.5-3.5c0-1.9,1.6-3.5,3.5-3.5c1.9,0,3.5,1.6,3.5,3.5
				C170.3,70.8,168.7,72.4,166.8,72.4z"/>
			<rect x="95.8" y="184.3" class="st0" width="96.6" height="8"/>
		</g>
	</g>
</g>
</svg>
