<svg id="ART" xmlns="http://www.w3.org/2000/svg" viewBox="0 0 288 288"><defs><style>.cls-1{fill:#fcfbfa;}</style></defs><path class="cls-1" d="M172,209h36V174a9,9,0,0,0-9-9h-8v-2a9,9,0,0,0-5-8.05V94a16,16,0,0,0-16-16H160V69.27A19.83,19.83,0,0,0,166,55V33H135a9,9,0,0,0-9,9V54.55a20.66,20.66,0,0,0,6,14.61V78H122a16,16,0,0,0-16,16v68h14v87h0l-8,4v4h68v-4l-8-4h0Zm0-61h6v6h-6Zm28,26v27H172V173h27A1,1,0,0,1,200,174Zm-28-9v-3h10a1,1,0,0,1,1,1v2Zm6-71v46h-6V105h-8v46.28a24.47,24.47,0,0,1-5.15-1.95C152.9,146.22,150,141.2,150,134V103.66L167.66,86H170A8,8,0,0,1,178,94ZM134,54.55V54h16a15.86,15.86,0,0,0,8-2.17V55a11.87,11.87,0,0,1-3.72,8.68A12,12,0,0,1,145.42,67C139.12,66.69,134,61.11,134,54.55ZM150,86h6.34L150,92.34Zm-8,6.34L135.66,86H142ZM135,41h22.41A8,8,0,0,1,150,46H134V42A1,1,0,0,1,135,41Zm10,34,1,0a20,20,0,0,0,6-.92V78H140v-4A19.89,19.89,0,0,0,145,75ZM122,86h2.34L142,103.66V134c0,7.12-2.83,12.09-8.64,15.22a24.72,24.72,0,0,1-5.36,2.06V105h-8v35h-6V94A8,8,0,0,1,122,86Zm-8,68v-6h6v6Zm38,95h-2V166h-8v83H128V159.54c6-1.12,13.48-4.36,18-11.19,4.52,6.83,12,10.07,18,11.19V249Z"/></svg>