<svg id="Icon_art" data-name="Icon art" xmlns="http://www.w3.org/2000/svg" viewBox="0 0 288 288">
  <defs>
    <style>
      .cls-1 {
        fill: #312d2a;
      }
    </style>
  </defs>
  <g id="HYPSQL">
    <g>
      <path class="cls-1" d="M243,36H45a9,9,0,0,0-9,9V147.75a25.66,25.66,0,0,1,4.19-2.61A37,37,0,0,1,44,143.51V45a1,1,0,0,1,1-1H243a1,1,0,0,1,1,1V243a1,1,0,0,1-1,1H137.28c-1.46,2.54-4.05,5.12-8.52,7.31q-.72.36-1.5.69H243a9,9,0,0,0,9-9V45A9,9,0,0,0,243,36Z"/>
      <polygon class="cls-1" points="223 174 139 174 139 182 215 182 215 214 139 214 139 222 223 222 223 174"/>
      <circle class="cls-1" cx="197" cy="198" r="6"/>
      <path class="cls-1" d="M114,66H66v48h48Zm-8,40H74V74h32Z"/>
      <path class="cls-1" d="M168,66H120v48h48Zm-8,40H128V74h32Z"/>
      <path class="cls-1" d="M66,120v19c2.83-.29,5.55-.49,8-.64V128h32v11.31c1.86.23,3.74.49,5.6.81.82.13,1.62.28,2.4.43V120Z"/>
      <path class="cls-1" d="M168,120H120v21.92a50.21,50.21,0,0,1,8,2.84V128h32v32H139v8h29Z"/>
      <path class="cls-1" d="M222,66H174v48h48Zm-8,40H182V74h32Z"/>
      <path class="cls-1" d="M222,120H174v48h48Zm-8,40H182V128h32Z"/>
      <path class="cls-1" d="M130.65,242.85a8.57,8.57,0,0,0,1.59-2.13,6.35,6.35,0,0,0,.48-1.18,6.68,6.68,0,0,0,.28-1.91V159a7,7,0,0,0-.28-2,6.53,6.53,0,0,0-.48-1.2,8.85,8.85,0,0,0-1.59-2.19c-9-9.17-40.7-9.64-45.89-9.65h-.52c-5.19,0-36.92.48-45.89,9.65a8.85,8.85,0,0,0-1.59,2.19,6.53,6.53,0,0,0-.48,1.2,7,7,0,0,0-.28,2v78.63a6.68,6.68,0,0,0,.28,1.91,6.35,6.35,0,0,0,.48,1.18,8.57,8.57,0,0,0,1.59,2.13c9,9,40.7,9.42,45.89,9.43h.52C90,252.27,121.68,251.81,130.65,242.85ZM125,237.26c-2.1,2.61-16.91,7-40.5,7s-38.4-4.41-40.5-7V220c12.82,5.62,36.88,5.84,40.5,5.84s27.68-.22,40.5-5.84ZM44,193.81c12.82,5.62,36.88,5.84,40.5,5.84s27.68-.22,40.5-5.84v17c-2.1,2.61-16.91,7-40.5,7s-38.4-4.41-40.5-7Zm81-9.18c-2.1,2.6-16.91,7-40.5,7s-38.4-4.42-40.5-7V168c12.82,5.75,36.88,6,40.5,6s27.68-.23,40.5-6ZM124.74,159c-2.73,2.72-17.27,7-40.24,7S47,161.72,44.26,159c2.73-2.72,17.27-7,40.24-7S122,156.28,124.74,159Z"/>
    </g>
  </g>
</svg>
