<svg id="ART" xmlns="http://www.w3.org/2000/svg" viewBox="0 0 288 288">
  <defs>
    <style>
      .cls-1 {
        fill: #fcfbfa;
      }
    </style>
  </defs>
  <path class="cls-1" d="M119.92,57.75A62,62,0,1,0,182,119.83,62,62,0,0,0,119.92,57.75Zm0,116.15A54.08,54.08,0,1,1,174,119.82h0A54.14,54.14,0,0,1,119.92,173.9Zm100.85,18.49a161.77,161.77,0,0,0-17.15-14.87l-20.48-15.35a76,76,0,1,0-20.89,20.89l15.36,20.47a161.77,161.77,0,0,0,14.87,17.15l16.43,16.42,28.28-28.28ZM119.92,187.9A68.08,68.08,0,1,1,168.05,168,68.08,68.08,0,0,1,119.92,187.9ZM198.14,215A151.94,151.94,0,0,1,184,198.73l-15.37-20.49q2.63-2.19,5.07-4.62c1.63-1.62,3.16-3.32,4.62-5.07l20.49,15.37a152.06,152.06,0,0,1,16.29,14.13l10.77,10.77-17,17Zm43.18,9.38h0l-17,17h0l-8.5,2.84L213,241.38l28.31-28.3,2.83,2.82ZM153.76,116A34.07,34.07,0,0,0,124,86.24V78h-8v8.24A34.07,34.07,0,0,0,86.24,116H78v8h8.24A34.07,34.07,0,0,0,116,153.76V162h8v-8.24A34.07,34.07,0,0,0,153.76,124H162v-8ZM124,145.69V138h-8v7.69A26.06,26.06,0,0,1,94.31,124H102v-8H94.31A26.06,26.06,0,0,1,116,94.31V102h8V94.31A26.06,26.06,0,0,1,145.69,116H138v8h7.69A26.06,26.06,0,0,1,124,145.69Z"/>
</svg>
