<svg id="ART" xmlns="http://www.w3.org/2000/svg" viewBox="0 0 288 288"><defs><style>.cls-1{fill:#fcfbfa;}</style></defs><path class="cls-1" d="M140,149V121.19h8V149Zm12.1,7-4.2,6.8,24,14.81,4.2-6.81Zm-40.2,14.8,4.2,6.81,24-14.81-4.2-6.8ZM181,113H108V101.41c0-11,9.6-20.37,21-20.37h1V76a19.36,19.36,0,0,1-6-14V48c0-9.87,5.75-16,15-16h26V61.24a20.59,20.59,0,0,1-6,14.42V81h2a20.22,20.22,0,0,1,20,20.4ZM138,83.33a9.93,9.93,0,0,0,6.55,2.42h0A10,10,0,0,0,151,83.43v-2.7a19.57,19.57,0,0,1-6.36,1.09A21,21,0,0,1,138,80.74ZM132.58,44H151a5.25,5.25,0,0,0,5.55-4H139C137.48,40,134,40,132.58,44ZM132,52V62c0,6.51,5.67,11.82,12.64,11.82A12.64,12.64,0,0,0,157,61.24V50.8a14.7,14.7,0,0,1-6,1.2Zm41,49.41A12.21,12.21,0,0,0,161,89h-4.28a18.12,18.12,0,0,1-12.11,4.73h-.07A18.14,18.14,0,0,1,132.4,89H129c-6.91,0-13,5.78-13,12.37V105h57Zm-54.11,142.7.17,11.89H52V244.41a20.2,20.2,0,0,1,11.48-18.19,25.72,25.72,0,0,1-4-5.35l-.8-1.4,8.24-33.1h0c2-6.47,7.77-11.28,14.35-11.28h8c7.33,0,13.62,6,14.88,13.52l7.68,30.85-.79,1.39a26.15,26.15,0,0,1-3.61,5A19.94,19.94,0,0,1,118.89,244.11ZM74,217.9a21.1,21.1,0,0,1-5.14-6.15l-1.61,6.47A13.28,13.28,0,0,0,74,223.66Zm22.48-19.53a17.66,17.66,0,0,1-11.16-3.06,17.74,17.74,0,0,1-10,3.1c-.4,0-.78,0-1.15,0v3.17c0,6.81,5.16,12.56,11.27,12.56,6,0,11-5.75,11-12.56ZM82,230.09a3.22,3.22,0,0,0,3.48,3c1.71,0,3.52-1,3.52-3v-8.37a17.73,17.73,0,0,1-3.52.37,17.49,17.49,0,0,1-3.48-.37Zm15-12.24v5.66a13.18,13.18,0,0,0,6.36-5.29L101.81,212A20.29,20.29,0,0,1,97,217.85ZM74.27,190.37a10.58,10.58,0,0,0,8.36-3.09l2.69-2.46,2.7,2.46a10.56,10.56,0,0,0,8.39,3.08s0-.06,0-.1l-.49-2h0c-1.1-3-3.7-5.2-6.57-5.2h-8C77.83,183.1,74.74,186.39,74.27,190.37ZM110.94,248l0-3.84A11.92,11.92,0,0,0,99,231.92l-2.06,0-.11,0a11.6,11.6,0,0,1-22.62.22l-2,0A12.22,12.22,0,0,0,60,244.41V248Zm128.12,8H172V244.41a20.2,20.2,0,0,1,11.48-18.19,25.72,25.72,0,0,1-4-5.35l-.8-1.4,8.24-33.1h0c2-6.47,7.77-11.28,14.35-11.28h8c7.33,0,13.62,6,14.88,13.52l7.68,30.85-.79,1.39a26.15,26.15,0,0,1-3.61,5,19.94,19.94,0,0,1,11.38,18.28ZM194,217.9a21.1,21.1,0,0,1-5.14-6.15l-1.61,6.47a13.28,13.28,0,0,0,6.75,5.44Zm22.48-19.53a17.66,17.66,0,0,1-11.16-3.06,17.74,17.74,0,0,1-10,3.1c-.4,0-.78,0-1.15,0v3.17c0,6.81,5.16,12.56,11.27,12.56s11-5.75,11-12.56ZM202,230.09a3.22,3.22,0,0,0,3.48,3c1.71,0,3.52-1,3.52-3v-8.37a17.73,17.73,0,0,1-3.52.37,17.49,17.49,0,0,1-3.48-.37Zm15-12.24v5.66a13.18,13.18,0,0,0,6.36-5.29L221.81,212A20.29,20.29,0,0,1,217,217.85Zm-22.73-27.48a10.58,10.58,0,0,0,8.36-3.09l2.69-2.46,2.7,2.46a10.56,10.56,0,0,0,8.39,3.08s0-.06,0-.1l-.49-2h0c-1.1-3-3.7-5.2-6.57-5.2h-8C197.83,183.1,194.74,186.39,194.27,190.37ZM230.94,248l-.05-3.84A11.92,11.92,0,0,0,219,231.92l-2.06,0-.11,0a11.6,11.6,0,0,1-22.62.22l-2,0A12.22,12.22,0,0,0,180,244.41V248Z"/></svg>