<?xml version="1.0" encoding="utf-8"?>
<!-- Generator: Adobe Illustrator 27.1.0, SVG Export Plug-In . SVG Version: 6.00 Build 0)  -->
<svg version="1.1" id="Layer_1" xmlns="http://www.w3.org/2000/svg" xmlns:xlink="http://www.w3.org/1999/xlink" x="0px" y="0px"
	 viewBox="0 0 288 288" style="enable-background:new 0 0 288 288;" xml:space="preserve">
<style type="text/css">
	.st0{display:none;}
	.st1{display:inline;}
	.st2{fill:#56A6DA;}
	.st3{display:inline;fill:none;stroke:#56A6DA;stroke-width:0.25;stroke-miterlimit:10;}
	.st4{fill:#FCFBFA;}
</style>
<g id="GUIDES" class="st0">
	<g class="st1">
		<path class="st2" d="M144,96.3c26.3,0,47.8,21.4,47.8,47.7s-21.4,47.7-47.8,47.7S96.2,170.3,96.2,144S117.7,96.3,144,96.3
			 M144,96.1c-26.5,0-48,21.5-48,47.9c0,26.5,21.5,47.9,48,47.9s48-21.5,48-47.9C192,117.5,170.5,96.1,144,96.1L144,96.1z"/>
	</g>
	<line class="st3" x1="96" y1="0" x2="96" y2="288"/>
	<line class="st3" x1="192" y1="0" x2="192" y2="288"/>
	<line class="st3" x1="0" y1="192" x2="288" y2="192"/>
	<line class="st3" x1="0" y1="96" x2="288" y2="96"/>
	<g class="st1">
		<path class="st2" d="M144,12.4c35.2,0,68.3,13.7,93.2,38.6s38.6,58,38.6,93.2s-13.7,68.3-38.6,93.2S179.2,276,144,276
			s-68.3-13.7-93.2-38.6s-38.6-58-38.6-93.2C12.2,109,26,75.9,50.8,51C75.7,26.1,108.8,12.4,144,12.4 M144,12.1
			c-72.9,0-132,59.1-132,132s59.1,132,132,132s132-59.1,132-132S216.9,12.1,144,12.1L144,12.1z"/>
	</g>
	<g class="st1">
		<path class="st2" d="M240,12.2c6.5,0,11.8,5.3,11.8,11.8v240c0,6.5-5.3,11.8-11.8,11.8H48c-6.5,0-11.8-5.3-11.8-11.8V24
			c0-6.5,5.3-11.8,11.8-11.8H240 M240,12H48c-6.6,0-12,5.4-12,12v240c0,6.6,5.4,12,12,12h192c6.6,0,12-5.4,12-12V24
			C252,17.4,246.6,12,240,12L240,12z"/>
	</g>
	<g class="st1">
		<path class="st2" d="M264,36.2c6.5,0,11.8,5.3,11.8,11.8v192c0,6.5-5.3,11.8-11.8,11.8H24c-6.5,0-11.8-5.3-11.8-11.8V48
			c0-6.5,5.3-11.8,11.8-11.8H264 M264,36H24c-6.6,0-12,5.4-12,12v192c0,6.6,5.4,12,12,12h240c6.6,0,12-5.4,12-12V48
			C276,41.4,270.6,36,264,36L264,36z"/>
	</g>
	<g class="st1">
		<path class="st2" d="M247.8,24.2c8.8,0,16,7.2,16,16v207.6c0,8.8-7.2,16-16,16H40.2c-8.8,0-16-7.2-16-16V40.2c0-8.8,7.2-16,16-16
			H247.8 M247.8,24H40.2C31.3,24,24,31.3,24,40.2v207.6c0,8.9,7.3,16.2,16.2,16.2h207.6c8.9,0,16.2-7.3,16.2-16.2V40.2
			C264,31.3,256.7,24,247.8,24L247.8,24z"/>
	</g>
</g>
<g id="ART">
	<g>
		<g>
			<path class="st4" d="M95.9,225.1c4.6,2.8,9.5,5.1,14.6,7.1l2.8-7.5c-4.6-1.8-9.1-3.9-13.3-6.4L95.9,225.1z"/>
			<path class="st4" d="M76.9,210.1c3.8,3.9,7.9,7.4,12.2,10.6l4.7-6.5c-4-2.9-7.7-6.1-11.2-9.7L76.9,210.1z"/>
			<path class="st4" d="M69.4,186.7l-7,3.9c2.6,4.7,5.7,9.2,9.1,13.4l6.2-5.1C74.6,195.1,71.8,191,69.4,186.7z"/>
			<path class="st4" d="M164.2,227.8l1.9,7.8c5.2-1.3,10.4-3.1,15.3-5.3l-3.3-7.3C173.7,224.9,169,226.6,164.2,227.8z"/>
			<path class="st4" d="M142.3,230.3l-0.1,8c0.5,0,1.1,0,1.6,0c4.9,0,9.7-0.4,14.5-1.2l-1.3-7.9C152.1,230,147.2,230.4,142.3,230.3z
				"/>
			<path class="st4" d="M120.3,227l-2.2,7.7c2.6,0.7,5.2,1.4,7.8,1.9c2.7,0.5,5.4,0.9,8,1.2l0.8-8c-2.4-0.3-4.9-0.6-7.3-1.1
				C125.1,228.3,122.7,227.7,120.3,227z"/>
			<path class="st4" d="M62.9,171.9c-0.3-0.8-0.5-1.6-0.8-2.4c-0.2-0.6-0.3-1.1-0.5-1.7c-1.7-6.3-2.7-12.7-3-19.2l11.5,11.5l5.7-5.7
				L55,133.7l-20.8,20.8l5.7,5.7l10.9-10.9c0.3,6.4,1.2,12.7,2.8,18.9l0,0c0.2,0.6,0.3,1.2,0.5,1.8s0.3,1.2,0.5,1.8
				c0.3,0.9,0.5,1.7,0.8,2.5c0.1,0.4,0.3,0.9,0.4,1.3l0,0c0.9,2.6,1.9,5.2,3.1,7.8l7.3-3.3C64.9,177.4,63.8,174.7,62.9,171.9z"/>
			<path class="st4" d="M195.6,212.5c-3.4,2.6-7,5-10.7,7.1l3.9,7c4.3-2.4,8.4-5.2,12.3-8.2C199,216.7,197.2,214.7,195.6,212.5z"/>
		</g>
		<path class="st4" d="M90.4,76.9c15.1-12.4,34.1-19.1,53.7-19.1c45.5,0,82.8,36,84.9,81c-0.1-0.1-0.2-0.2-0.3-0.4l-10.9-10.9
			l-5.7,5.7L233,154l20.8-20.8l-5.7-5.7L237,138.6c-2.1-49.4-43-88.9-92.9-88.9c-21.7,0-42.6,7.6-59.3,21.3
			C86.9,72.8,88.7,74.7,90.4,76.9z"/>
		<g>
			<path class="st4" d="M143.1,130.7c14.3,0,26-11.7,26-26s-11.7-26-26-26s-26,11.7-26,26S128.8,130.7,143.1,130.7z M143.1,86.7
				c9.9,0,18,8.1,18,18s-8.1,18-18,18s-18-8.1-18-18S133.2,86.7,143.1,86.7z"/>
			<path class="st4" d="M185.1,194.7v-44c0-4.2-1.5-7.9-4.4-10.6c-6.2-5.9-16.7-5.5-17.9-5.4l-1.7,0.1l-1.1,1.3
				c-0.2,0.2-5.2,5.6-17,5.6s-16.8-5.4-17-5.6l-1.1-1.3l-1.7-0.1c-1.2-0.1-11.6-0.5-17.9,5.4c-2.9,2.7-4.4,6.4-4.4,10.6v44h8v-44
				c0-2,0.6-3.5,1.9-4.7c2.7-2.5,7.7-3.2,10.6-3.3c2.8,2.4,9.7,7,21.6,7s18.8-4.6,21.6-7c2.9,0.1,7.9,0.7,10.6,3.3
				c1.3,1.2,1.9,2.7,1.9,4.7v44H185.1z"/>
		</g>
		<g>
			<polygon class="st4" points="227.1,182.7 219.1,182.7 219.1,189.7 212.1,189.7 212.1,197.7 219.1,197.7 219.1,204.7 227.1,204.7 
				227.1,197.7 234.1,197.7 234.1,189.7 227.1,189.7 			"/>
			<path class="st4" d="M223.1,166.7c-14.9,0-27,12.1-27,27s12.1,27,27,27s27-12.1,27-27S238,166.7,223.1,166.7z M223.1,212.7
				c-10.5,0-19-8.5-19-19s8.5-19,19-19s19,8.5,19,19S233.6,212.7,223.1,212.7z"/>
		</g>
		<g>
			<polygon class="st4" points="76,93.9 70.4,88.2 61.1,97.4 56.7,93 51.1,98.7 61.1,108.7 			"/>
			<path class="st4" d="M64.1,124.7c14.9,0,27-12.1,27-27s-12.1-27-27-27s-27,12.1-27,27S49.2,124.7,64.1,124.7z M64.1,78.7
				c10.5,0,19,8.5,19,19s-8.5,19-19,19s-19-8.5-19-19S53.6,78.7,64.1,78.7z"/>
		</g>
	</g>
</g>
</svg>
