<svg id="ART" xmlns="http://www.w3.org/2000/svg" viewBox="0 0 288 288"><defs><style>.cls-1{fill:#fcfbfa;}</style></defs><path class="cls-1" d="M109,84H61v8H53v8h8v8h48v-8h8V92h-8Zm-8,16H69V92h32ZM53,70h64v8H53Zm0,44h64v8H53Zm0,96h64v8H53Zm0-14h64v8H53Zm0-6h64V162H53Zm8-20h48v12H61Zm-8-14h64V128H53Zm8-20h48v12H61Zm74,94h-4V50H39V230H35l-8,4v4H143v-4l-8-4Zm-88,0V58h76V230ZM137,90V195H253V90Zm108,97H145V98H245Zm-6-83H151v36h88Zm-8,28H159V112h72Zm-50-6H165v-8h16Zm-5,56H151v-8h25Zm0-14H151v-8h25Zm6,6h26v8H182Zm32,0h25v8H214Zm-32-14h26v8H182Zm32,0h25v8H214Zm-32-14h26v8H182Zm32,0h25v8H214Zm-11-20H187v-8h16Zm22,0H209v-8h16Z"/></svg>