<?xml version="1.0" encoding="utf-8"?>
<!-- Generator: Adobe Illustrator 24.0.3, SVG Export Plug-In . SVG Version: 6.00 Build 0)  -->
<svg version="1.1" id="ART" xmlns="http://www.w3.org/2000/svg" xmlns:xlink="http://www.w3.org/1999/xlink" x="0px" y="0px"
	 viewBox="0 0 288 288" style="enable-background:new 0 0 288 288;" xml:space="preserve">
<style type="text/css">
	.st0{fill:#FCFBFA;}
</style>
<path class="st0" d="M152,190h1V97H64v93H152z M73,182v-3.6c0-6.7,6-12.5,12.8-12.5h10.4l12.5,13.5l12.2-13.4H132
	c6.7,0.1,12.1,5.7,12,12.4v3.6H73z M115,129c2.1,0,4.1-0.4,6-1.2v10.4c0,6.8-5.5,12.4-12.4,12.6c-7,0-12.6-5.3-12.6-11.8v-10H115z
	 M96.6,121c1.4-4,4.9-4,6.4-4h17.6c-0.6,2.5-3,4.2-5.6,4H96.6z M102,157.7c2.1,0.7,4.4,1.1,6.6,1.1c2.2,0,4.3-0.4,6.4-1.1v2.8
	l-6.4,7.1l-6.6-7.2V157.7z M145,105v57.9c-3.6-3.2-8.2-4.9-13-4.9h-9v-5.3c3.8-3.8,6-9,6-14.4V109h-26c-9.2,0-15,6.1-15,16v14
	c0,5.3,2.2,10.3,6,14v5h-8.2c-5.1,0-10,1.9-13.8,5.3V105H145z M50,83v121h186V83H50z M228,196H58V91h170V196z M161,105h44v8h-44V105
	z M161,146h58v8h-58V146z M161,174h58v8h-58V174z M161,160h50v8h-50V160z M161,119h18v8h-18V119z M185,119h34v8h-34V119z M144,211
	c-6.1,0-11,4.9-11,11s4.9,11,11,11s11-4.9,11-11S150.1,211,144,211z M144,225c-1.7,0-3-1.3-3-3s1.3-3,3-3s3,1.3,3,3l0,0
	C147,223.7,145.7,225,144,225z M167.5,215.5c-3.6,0-6.5,2.9-6.5,6.5s2.9,6.5,6.5,6.5s6.5-2.9,6.5-6.5
	C174,218.4,171.1,215.5,167.5,215.5z M167.5,223.5c-0.8,0-1.5-0.7-1.5-1.5s0.7-1.5,1.5-1.5s1.5,0.7,1.5,1.5l0,0
	C169,222.8,168.3,223.5,167.5,223.5z M186.5,215.5c-3.6,0-6.5,2.9-6.5,6.5s2.9,6.5,6.5,6.5s6.5-2.9,6.5-6.5
	C193,218.4,190.1,215.5,186.5,215.5z M186.5,223.5c-0.8,0-1.5-0.7-1.5-1.5s0.7-1.5,1.5-1.5s1.5,0.7,1.5,1.5l0,0
	C188,222.8,187.3,223.5,186.5,223.5z M120.5,215.5c-3.6,0-6.5,2.9-6.5,6.5s2.9,6.5,6.5,6.5s6.5-2.9,6.5-6.5
	C127,218.4,124.1,215.5,120.5,215.5z M120.5,223.5c-0.8,0-1.5-0.7-1.5-1.5s0.7-1.5,1.5-1.5s1.5,0.7,1.5,1.5l0,0
	C122,222.8,121.3,223.5,120.5,223.5z M101.5,215.5c-3.6,0-6.5,2.9-6.5,6.5s2.9,6.5,6.5,6.5s6.5-2.9,6.5-6.5
	C108,218.4,105.1,215.5,101.5,215.5z M101.5,223.5c-0.8,0-1.5-0.7-1.5-1.5s0.7-1.5,1.5-1.5s1.5,0.7,1.5,1.5l0,0
	C103,222.8,102.3,223.5,101.5,223.5z"/>
</svg>
