<svg id="Icon_Art" data-name="Icon Art" xmlns="http://www.w3.org/2000/svg" viewBox="0 0 28.8 28.8">
  <defs>
    <style>
      .cls-1 {
        fill: #312d2a;
      }
    </style>
  </defs>
  <path class="cls-1" d="M19.36,14.34v1.5h-1.8v-1.5h-4.5V18H15v1.8h-1.9v3.7h4.5v-3.7h-1.8V18h1.8v-1.4h1.8V18h4.5v-3.7Zm-2.6,6.3v2.1h-2.9v-2.1Zm0-3.4h-2.9v-2.1h2.9Zm6.3,0h-2.9v-2.1h2.9Z"/>
  <path class="cls-1" d="M12.16,5.94c-2.34,0-6.3.38-6.3,1.8v10.2c0,1.42,4,1.8,6.3,1.8h.3v-.8h-.3c-3.37,0-5.37-.66-5.5-1V15.49a14.75,14.75,0,0,0,5.5.85h.3v-.8h-.3c-3.37,0-5.37-.66-5.5-1V12.09a14.75,14.75,0,0,0,5.5.85,14.75,14.75,0,0,0,5.5-.85v1.65h.8v-6C18.46,6.32,14.5,5.94,12.16,5.94ZM6.66,7.75c.14-.35,2.14-1,5.5-1s5.32.64,5.5,1c-.18.36-2.18,1-5.5,1s-5.36-.66-5.5-1Zm5.5,4.39c-3.37,0-5.37-.66-5.5-1V8.69a14.75,14.75,0,0,0,5.5.85,14.75,14.75,0,0,0,5.5-.85v2.44C17.53,11.48,15.52,12.14,12.16,12.14Z"/>
</svg>
