<?xml version="1.0" encoding="utf-8"?>
<!-- Generator: Adobe Illustrator 28.0.0, SVG Export Plug-In . SVG Version: 6.00 Build 0)  -->
<svg version="1.1" xmlns="http://www.w3.org/2000/svg" xmlns:xlink="http://www.w3.org/1999/xlink" x="0px" y="0px"
	 viewBox="0 0 288 288" style="enable-background:new 0 0 288 288;" xml:space="preserve">
<style type="text/css">
	.st0{display:none;}
	.st1{display:inline;}
	.st2{fill:none;stroke:#2AA5DD;stroke-width:0.25;stroke-miterlimit:10;}
	.st3{fill:#2AA5DD;}
	.st4{fill:none;}
	.st5{fill:#312D2A;}
</style>
<g id="GUIDES" class="st0">
	<g class="st1">
		<line class="st2" x1="96" y1="0" x2="96" y2="288"/>
		<line class="st2" x1="192" y1="0" x2="192" y2="288"/>
		<g>
			<path class="st3" d="M144,12.4c35.2,0,68.3,13.7,93.2,38.6c24.9,24.9,38.6,58,38.6,93.2s-13.7,68.3-38.6,93.2
				c-24.9,24.9-58,38.6-93.2,38.6c-35.2,0-68.3-13.7-93.2-38.6c-24.9-24.9-38.6-58-38.6-93.2C12.2,109,26,75.9,50.8,51
				C75.7,26.1,108.8,12.4,144,12.4 M144,12.1c-72.9,0-132,59.1-132,132s59.1,132,132,132c72.9,0,132-59.1,132-132
				S216.9,12.1,144,12.1L144,12.1z"/>
		</g>
		<g>
			<path class="st3" d="M240,12.2c6.5,0,11.8,5.3,11.8,11.8v240c0,6.5-5.3,11.8-11.8,11.8H48c-6.5,0-11.8-5.3-11.8-11.8V24
				c0-6.5,5.3-11.8,11.8-11.8H240 M240,12H48c-6.6,0-12,5.4-12,12v240c0,6.6,5.4,12,12,12h192c6.6,0,12-5.4,12-12V24
				C252,17.4,246.6,12,240,12L240,12z"/>
		</g>
		<g>
			<path class="st3" d="M264,36.2c6.5,0,11.8,5.3,11.8,11.8v192c0,6.5-5.3,11.8-11.8,11.8H24c-6.5,0-11.8-5.3-11.8-11.8V48
				c0-6.5,5.3-11.8,11.8-11.8H264 M264,36H24c-6.6,0-12,5.4-12,12v192c0,6.6,5.4,12,12,12h240c6.6,0,12-5.4,12-12V48
				C276,41.4,270.6,36,264,36L264,36z"/>
		</g>
		<g>
			<path class="st3" d="M247.8,24.2c8.8,0,16,7.2,16,16v207.6c0,8.8-7.2,16-16,16H40.2c-8.8,0-16-7.2-16-16V40.2c0-8.8,7.2-16,16-16
				H247.8 M247.8,24H40.2C31.3,24,24,31.3,24,40.2v207.6c0,8.9,7.3,16.2,16.2,16.2h207.6c8.9,0,16.2-7.3,16.2-16.2V40.2
				C264,31.3,256.7,24,247.8,24L247.8,24z"/>
		</g>
		<g>
			<path class="st3" d="M239.8,48.2v191.5H48.2V48.2H239.8 M240,48H48v192h192V48L240,48z"/>
		</g>
		<line class="st2" x1="0" y1="192" x2="288" y2="192"/>
		<line class="st2" x1="0" y1="96" x2="288" y2="96"/>
		<g>
			<path class="st3" d="M144,96.3c26.3,0,47.8,21.4,47.8,47.7c0,26.3-21.4,47.7-47.8,47.7c-26.3,0-47.8-21.4-47.8-47.7
				C96.2,117.7,117.7,96.3,144,96.3 M144,96.1c-26.5,0-48,21.5-48,47.9c0,26.5,21.5,47.9,48,47.9c26.5,0,48-21.5,48-47.9
				C192,117.5,170.5,96.1,144,96.1L144,96.1z"/>
		</g>
	</g>
</g>
<g id="ART">
	<g>
		<circle class="st4" cx="208.4" cy="96.5" r="6"/>
		<circle class="st4" cx="162.7" cy="70" r="6"/>
		<circle class="st4" cx="208.8" cy="191" r="6"/>
		<path class="st4" d="M105.7,171l-2.2,2.2c0.8,1.8,1.3,3.7,1.3,5.8c0,7.7-6.3,14-14,14s-14-6.3-14-14s6.3-14,14-14
			c2.7,0,5.3,0.8,7.4,2.1l4.1-4.1h28.4v-15H93.3c-1.7,5.8-7.1,10-13.4,10c-7.7,0-14-6.3-14-14s6.3-14,14-14c6.3,0,11.7,4.2,13.4,10
			h37.6v-15h-28.4l-4.8-4.8c-2,1.1-4.3,1.8-6.8,1.8c-7.7,0-14-6.3-14-14s6.3-14,14-14s14,6.3,14,14c0,2.3-0.6,4.6-1.6,6.5l2.5,2.5
			h25.1V68.6c0-2.4-2-4.5-4.3-4.6c-0.3,0-0.6,0-1,0c-3.5,0-7,0.6-10.4,1.9c-7.3,2.7-13.3,8-17,14.9l-1,1.9l-2.2,0.2
			c-16.1,1.2-28.7,14.8-28.7,30.9c0,1.4,0.1,2.9,0.4,4.7l0.3,2l-1.5,1.4c-6,5.9-9.3,13.7-9.3,22.1c0,8.4,3.3,16.2,9.3,22.1l1.5,1.4
			l-0.3,2c-0.3,1.7-0.4,3.2-0.4,4.6c0,16.1,12.5,29.6,28.5,30.9l2.2,0.2l1,2c5.4,10.4,15.9,16.8,27.5,16.8c0.3,0,0.5,0,0.8,0
			c2.5-0.1,4.5-2.1,4.5-4.6V171H105.7z"/>
		<circle class="st4" cx="162.7" cy="218" r="6"/>
		<circle class="st4" cx="90.8" cy="108" r="6"/>
		<circle class="st4" cx="90.8" cy="179" r="6"/>
		<circle class="st4" cx="79.8" cy="144" r="6"/>
		<circle class="st4" cx="225.8" cy="144" r="6"/>
		<path class="st5" d="M156,82.2c2,1.1,4.3,1.7,6.7,1.7c7.7,0,14-6.3,14-14s-6.3-14-14-14s-14,6.3-14,14c0,2.4,0.6,4.6,1.6,6.6
			l-5.5,5.5v11.3L156,82.2z M162.7,64c3.3,0,6,2.7,6,6s-2.7,6-6,6s-6-2.7-6-6S159.4,64,162.7,64z"/>
		<path class="st5" d="M150.4,211.4c-1,2-1.6,4.2-1.6,6.6c0,7.7,6.3,14,14,14s14-6.3,14-14s-6.3-14-14-14c-2.4,0-4.7,0.6-6.7,1.7
			l-11.2-11.2v11.3L150.4,211.4z M162.7,212c3.3,0,6,2.7,6,6s-2.7,6-6,6s-6-2.7-6-6S159.4,212,162.7,212z"/>
		<path class="st5" d="M138.8,68.6c0-6.8-5.3-12.4-12.1-12.6c-4.9-0.2-9.7,0.6-14.4,2.4c-8.4,3.1-15.5,9-20.2,16.7
			c-19.2,2.5-33.9,19.1-33.9,38.6c0,1.2,0.1,2.5,0.2,3.9c-6.6,7.2-10.3,16.5-10.3,26.4c0,9.9,3.6,19.1,10.3,26.4
			c-0.1,1.3-0.2,2.6-0.2,3.8c0,19.5,14.6,36,33.7,38.6c7,11.9,19.7,19.3,33.6,19.3c0.3,0,0.7,0,1,0c6.8-0.2,12.3-5.8,12.3-12.6V68.6
			z M126.3,224c-0.3,0-0.5,0-0.8,0c-11.6,0-22.2-6.5-27.5-16.8l-1-2l-2.2-0.2c-16-1.3-28.5-14.8-28.5-30.9c0-1.4,0.1-2.8,0.4-4.6
			l0.3-2l-1.5-1.4c-6-5.9-9.3-13.7-9.3-22.1c0-8.4,3.3-16.2,9.3-22.1l1.5-1.4l-0.3-2c-0.3-1.8-0.4-3.3-0.4-4.7
			c0-16.1,12.6-29.7,28.7-30.9l2.2-0.2l1-1.9c3.7-6.9,9.7-12.2,17-14.9c3.4-1.3,6.9-1.9,10.4-1.9c0.3,0,0.6,0,1,0
			c2.4,0.1,4.3,2.1,4.3,4.6V117h-25.1l-2.5-2.5c1-1.9,1.6-4.2,1.6-6.5c0-7.7-6.3-14-14-14s-14,6.3-14,14s6.3,14,14,14
			c2.5,0,4.8-0.6,6.8-1.8l4.8,4.8h28.4v15H93.3c-1.7-5.8-7.1-10-13.4-10c-7.7,0-14,6.3-14,14s6.3,14,14,14c6.3,0,11.7-4.2,13.4-10
			h37.6v15h-28.4l-4.1,4.1c-2.2-1.4-4.7-2.1-7.4-2.1c-7.7,0-14,6.3-14,14s6.3,14,14,14s14-6.3,14-14c0-2.1-0.5-4.1-1.3-5.8l2.2-2.2
			h25.1v48.4C130.8,221.9,128.8,224,126.3,224z M90.8,114c-3.3,0-6-2.7-6-6s2.7-6,6-6s6,2.7,6,6S94.2,114,90.8,114z M85.8,144
			c0,3.3-2.7,6-6,6s-6-2.7-6-6s2.7-6,6-6S85.8,140.7,85.8,144z M96.8,179c0,3.3-2.7,6-6,6s-6-2.7-6-6s2.7-6,6-6S96.8,175.7,96.8,179
			z"/>
		<path class="st5" d="M144.8,125L144.8,125h40.5l16.3-16.3c2,1.1,4.3,1.7,6.7,1.7c7.7,0,14-6.3,14-14s-6.3-14-14-14s-14,6.3-14,14
			c0,2.4,0.6,4.6,1.6,6.6l-14,14h-37.2l0,0V125z M208.4,90.5c3.3,0,6,2.7,6,6s-2.7,6-6,6s-6-2.7-6-6S205.1,90.5,208.4,90.5z"/>
		<path class="st5" d="M144.8,171L144.8,171h37.2l14.1,14.1c-0.8,1.8-1.3,3.8-1.3,5.9c0,7.7,6.3,14,14,14s14-6.3,14-14
			s-6.3-14-14-14c-2.7,0-5.2,0.8-7.4,2.1L185.4,163h-40.5l0,0V171z M208.8,185c3.3,0,6,2.7,6,6s-2.7,6-6,6s-6-2.7-6-6
			S205.5,185,208.8,185z"/>
		<path class="st5" d="M225.8,130c-6.3,0-11.7,4.2-13.4,10h-67.6l0,0v8l0,0h67.6c1.7,5.8,7.1,10,13.4,10c7.7,0,14-6.3,14-14
			S233.6,130,225.8,130z M225.8,150c-3.3,0-6-2.7-6-6s2.7-6,6-6s6,2.7,6,6S229.2,150,225.8,150z"/>
	</g>
</g>
</svg>
