<svg id="ART" xmlns="http://www.w3.org/2000/svg" viewBox="0 0 288 288"><defs><style>.cls-1{fill:#312d2a;}</style></defs><path class="cls-1" d="M144,82a33,33,0,0,0-33,33v8h-8v60h82V123h-8v-8A33,33,0,0,0,144,82Zm-25,33A25,25,0,1,1,169,115v8h-6v-8a19,19,0,0,0-38,0v8h-6Zm36.08,8H133v-8a11.05,11.05,0,0,1,22.1,0ZM111,175V165h8v-8h-8v-8h8v-8h-8V131h66v10h-8v8h8v8h-8v8h8v10Zm37.46-23.17,1.07,13.71H138.47l1.07-13.71a6.76,6.76,0,1,1,8.92,0ZM103,189h82v4l-8,4H111l-8-4Zm113.23-15.51,7.41,3A86,86,0,0,1,58,145.13l-10.2,10.2-5.66-5.66,19.75-19.75,20.32,19.17-5.48,5.82L66,144.79a78,78,0,0,0,150.21,28.7Zm29.46-35.16L226,158.08l-20.33-19.17,5.49-5.82,10.73,10.12a78,78,0,0,0-150.21-28.7l-7.41-3a86,86,0,0,1,165.62,31.38l10.2-10.2Z"/></svg>