<svg id="ART" xmlns="http://www.w3.org/2000/svg" viewBox="0 0 288 288"><defs><style>.cls-1{fill:#312d2a;}</style></defs><title>RMIL_Personas</title><path class="cls-1" d="M188,159H172V137.63c7.95-7.53,13.29-18.11,13.29-29.63V48h-54c-17.69,0-29,11.56-29,31v29c0,11.79,5.72,22.42,13.71,29.91V159H99c-25.92,0-46.71,21.65-46.71,48v29h8V206.84C60.29,184.87,77.5,167,99,167h20.17L144,193.9,168.83,167H188c22.06,0,39.29,17.87,39.29,39.84V236h8V206.84C235.29,180.46,214.47,159,188,159ZM131.29,56h46c-1,12.61-7.45,19-18.29,19H111.18C112.08,65.61,116.65,56,131.29,56Zm-18.44,62.87a22.43,22.43,0,0,0,10.05,4.56,7,7,0,1,0,.79-8c-6.42-1.54-13.4-7-13.4-24.45V83H159c7.55,0,13.92-2.37,18.29-6.82V108c0,17.89-15.4,33-33.29,33A33,33,0,0,1,112.85,118.87ZM144,182.1l-20-21.66V143.77A40.66,40.66,0,0,0,144,149a40,40,0,0,0,20-5.41v16.85ZM90.17,129.55a14,14,0,0,1,0-19.8l5.66,5.66a6,6,0,0,0,0,8.49Zm-9.9-29.7,5.66,5.66a20,20,0,0,0,0,28.29l-5.66,5.65A28,28,0,0,1,80.27,99.85Zm-9.9,49.5a42,42,0,0,1,0-59.39L76,95.61a34,34,0,0,0,0,48.09Z"/></svg>