<?xml version="1.0" encoding="utf-8"?>
<!-- Generator: Adobe Illustrator 24.0.3, SVG Export Plug-In . SVG Version: 6.00 Build 0)  -->
<svg version="1.1" id="ART" xmlns="http://www.w3.org/2000/svg" xmlns:xlink="http://www.w3.org/1999/xlink" x="0px" y="0px"
	 viewBox="0 0 288 288" style="enable-background:new 0 0 288 288;" xml:space="preserve">
<style type="text/css">
	.st0{fill:#312D2A;}
</style>
<path class="st0" d="M57.89,76c0-0.55,0.45-1,1-1h37.66c0.31,0,0.6,0.14,0.79,0.39L107.87,89h88c0.55,0,1,0.45,1,1v9h8v-9
	c0-4.97-4.03-9-9-9H111.8l-8.13-10.51c-1.71-2.19-4.34-3.48-7.12-3.49H58.89c-4.97,0-9,4.03-9,9v119H68v-8H57.89V76z M74,105v121
	h165V105H74z M231,218H82V113h149V218z M185,127h23v8h-23V127z M185,168h37v8h-37V168z M185,196h37v8h-37V196z M185,182h29v8h-29
	V182z M166,212h11v-93H88v93H166z M107.05,204l0.06-3.89c-0.16-6.57,5.04-12.03,11.61-12.19c0.09,0,0.19,0,0.28,0h2.1h0.11
	c1.36,6.26,7.54,10.23,13.8,8.87c4.36-0.95,7.79-4.31,8.82-8.65h2c6.74,0.02,12.19,5.51,12.17,12.25c0,0.01,0,0.01,0,0.02V204
	H107.05z M132.68,151.31c2.94,2.02,6.43,3.1,10,3.1c0.4,0,0.78,0,1.15,0v3.17c0,6.81-5.16,12.56-11.27,12.56s-11-5.75-11-12.56
	v-3.17C125.51,154.65,129.43,153.56,132.68,151.31L132.68,151.31z M129,177.73c1.16,0.24,2.34,0.36,3.52,0.37
	c1.17-0.01,2.34-0.13,3.48-0.37v8.36c-0.12,1.77-1.65,3.12-3.42,3c-0.02,0-0.04,0-0.06,0c-1.71,0-3.52-1-3.52-3V177.73z
	 M150.75,174.22c-1.58,2.52-3.95,4.43-6.75,5.44v-5.76c2.09-1.7,3.84-3.79,5.14-6.15L150.75,174.22z M143.75,146.36
	c-3.1,0.25-6.16-0.88-8.36-3.08l-2.69-2.46l-2.7,2.46c-2.2,2.22-5.27,3.35-8.39,3.09c0,0,0-0.07,0-0.11l0.49-2l0,0
	c1.1-3,3.7-5.2,6.57-5.2h8c3.49,0.04,6.59,3.33,7.06,7.3H143.75z M121,173.85v5.66c-2.63-1.04-4.86-2.89-6.36-5.29l1.55-6.22
	C117.41,170.23,119.04,172.22,121,173.85z M96,204v-77h73v77h-3v-3.59c-0.01-7.77-4.47-14.84-11.48-18.2c1.56-1.6,2.9-3.39,4-5.34
	l0.8-1.4l-8.24-33.1l0,0c-2-6.47-7.77-11.28-14.35-11.28h-8c-7.33,0-13.62,6-14.88,13.52l-7.68,30.85l0.79,1.39
	c1,1.8,2.21,3.48,3.6,5c-7.02,3.34-11.46,10.46-11.37,18.23L99.05,204H96z"/>
</svg>
