<svg id="ART" xmlns="http://www.w3.org/2000/svg" viewBox="0 0 288 288"><defs><style>.cls-1{fill:#312d2a;}</style></defs><path class="cls-1" d="M95,162h8v8H95Zm14,8h8v-8h-8Zm14,0h8v-8h-8Zm14,0h8v-8h-8Zm14,0h8v-8h-8Zm14,0h8v-8h-8Zm14,0h8v-8h-8Zm14,0h8v-8h-8Zm22-8h-8v8h8Zm0-24-8-4H63l-8,4v4H215ZM75,148H51l-8,4v4H75Zm126-20H67v-4l8-4H92.19l-5-27H111.6l12,27H193l8,4Zm-86.11-8-8.45-19H96.81l3.52,19ZM174,110l-8-4h-9.25l-5-13H140v8h6.25l1.93,5H144l-8,4v4h38Zm86,79.66A18,18,0,0,1,246.8,195a18.84,18.84,0,0,1-10.2-2.9,19.39,19.39,0,0,1-20.4,0,19.39,19.39,0,0,1-20.4,0,19.39,19.39,0,0,1-20.4,0,19.39,19.39,0,0,1-20.4,0,19.39,19.39,0,0,1-20.4,0,19.39,19.39,0,0,1-20.4,0,19.39,19.39,0,0,1-20.4,0,19.39,19.39,0,0,1-20.4,0,19.39,19.39,0,0,1-20.4,0A18.84,18.84,0,0,1,42.8,195a18,18,0,0,1-13.18-5.34l6-5.32A10.43,10.43,0,0,0,42.8,187a11,11,0,0,0,5.28-1.29L32.62,162H73a8,8,0,0,0,8-8v-6H255.21l-8.68,7.1c-9.3,7.61-21.86,23.64-25.52,30.56A11.11,11.11,0,0,0,226.4,187a10.3,10.3,0,0,0,7.25-2.71l3-3.34,2.94,3.39a11.1,11.1,0,0,0,14.48-.05ZM206,187a10.83,10.83,0,0,0,6.72-2.23c1.38-3.66,4.72-8.92,10-15.72A167,167,0,0,1,234,156H89a16.1,16.1,0,0,1-16,14H47.38l10.09,15.46A11,11,0,0,0,63.2,187a10.3,10.3,0,0,0,7.25-2.71l3-3.34,2.94,3.39A10.43,10.43,0,0,0,83.6,187a10.3,10.3,0,0,0,7.25-2.71l3-3.34,2.94,3.39a11.13,11.13,0,0,0,14.44,0l3-3.35,3,3.35A10.43,10.43,0,0,0,124.4,187a10.3,10.3,0,0,0,7.25-2.71l3-3.34,2.94,3.39a11.1,11.1,0,0,0,14.48-.05l3-3.34,2.94,3.39A10.43,10.43,0,0,0,165.2,187a10.3,10.3,0,0,0,7.25-2.71l3-3.34,2.94,3.39A10.43,10.43,0,0,0,185.6,187a10.3,10.3,0,0,0,7.25-2.71l3-3.34,2.94,3.39A10.43,10.43,0,0,0,206,187Z"/></svg>