<?xml version="1.0" encoding="utf-8"?>
<!-- Generator: Adobe Illustrator 24.0.3, SVG Export Plug-In . SVG Version: 6.00 Build 0)  -->
<svg version="1.1" id="ART" xmlns="http://www.w3.org/2000/svg" xmlns:xlink="http://www.w3.org/1999/xlink" x="0px" y="0px"
	 viewBox="0 0 288 288" style="enable-background:new 0 0 288 288;" xml:space="preserve">
<style type="text/css">
	.st0{fill:#FCFBFA;}
</style>
<path class="st0" d="M166,218c0,0.6-0.4,1-1,1h-44c-0.6,0-1-0.4-1-1v-22h-8v22c0,5,4,9,9,9h44c5,0,9-4,9-9v-22h-8V218z M126,205h34
	v8h-34V205z M213,145.7V71H75v74.7l-22,31V213h53v-8H61v-19h166v19h-47v8h55v-36.3L213,145.7z M81.1,151H103v-8H83V79h122v64h-20v8
	h21.9l19.2,27H61.9L81.1,151z M179,158.6v-47.3L144.5,98l-35.6,13.3v47.3l35.6,13.4L179,158.6z M148.5,161.9v-32.2l22.5-9.5v33
	L148.5,161.9z M164.3,114.3l-19.9,8.4l-20.5-8.4l20.5-7.7L164.3,114.3z M116.9,120.1l23.5,9.6v32.3l-23.5-8.8V120.1z"/>
</svg>
