<svg id="ART" xmlns="http://www.w3.org/2000/svg" viewBox="0 0 288 288"><defs><style>.cls-1{fill:#312d2a;}</style></defs><path class="cls-1" d="M209,163V127a17.9,17.9,0,0,0,8.66-5A17.44,17.44,0,0,0,193,97.29l0,0L161.65,79.24a17.43,17.43,0,1,0-34.07-.7L95.51,97.06A17.43,17.43,0,1,0,79,126.46v36.33A17.42,17.42,0,1,0,95.77,192l.38-.4,31.39,18.12a17.43,17.43,0,1,0,34.15-.7l30.67-17.71c.21.24.42.47.64.69a17.44,17.44,0,1,0,24.66-24.66A16.64,16.64,0,0,0,209,163Zm-50.79,38.75a14.81,14.81,0,0,0-1.18-1.32,17.13,17.13,0,0,0-8-4.43V166a38.64,38.64,0,0,0,15.72-5.52l24,13.87a17.51,17.51,0,0,0-.21,9.89Zm-25.84-1.32a17.84,17.84,0,0,0-1.61,1.87l-30.63-17.68a17.48,17.48,0,0,0-.09-10.28l24.34-14.05A38.21,38.21,0,0,0,141,165.92v29.81A17.26,17.26,0,0,0,132.37,200.43ZM87,126.67A17.4,17.4,0,0,0,95.77,122c.27-.27.52-.55.77-.83l20.93,12.08a38.52,38.52,0,0,0-6.6,8.9l-1,1.9,1,1.9a38.39,38.39,0,0,0,6.66,9l.1.09-21.7,12.53-.16-.18A17.42,17.42,0,0,0,87,162.59Zm43.89-40.8a17,17,0,0,0,1.48,1.7,17.26,17.26,0,0,0,8.64,4.7v29.81a38.27,38.27,0,0,0-16.84,5.76l-23.88-13.79a17.49,17.49,0,0,0-.43-10.27ZM157,87.57c.37-.37.71-.75,1.05-1.15l30.7,17.73a17.18,17.18,0,0,0-.32,9.91l-23.54,13.59A38.54,38.54,0,0,0,149,122V92A17.13,17.13,0,0,0,157,87.57Zm9.18,61.64a30.47,30.47,0,0,1-43,0A30.85,30.85,0,0,1,119,144a30.85,30.85,0,0,1,4.17-5.21A30.4,30.4,0,0,1,170.37,144,30.79,30.79,0,0,1,166.21,149.21ZM193,167.3l-.17.18-21.3-12.3.33-.32a38.12,38.12,0,0,0,6.66-9l1-1.9-1-1.9a38.12,38.12,0,0,0-6.66-9,1.29,1.29,0,0,0-.17-.16l20.54-11.86c.25.28.5.56.77.83a17.24,17.24,0,0,0,8,4.54v36.27A17.24,17.24,0,0,0,193,167.3ZM198.65,103A9.45,9.45,0,0,1,212,103a9.43,9.43,0,0,1-6.89,16.1,9.41,9.41,0,0,1-7.78-14.42l-3.39-2.13,3.39,2.12A9.62,9.62,0,0,1,198.65,103ZM138,68.57a9.43,9.43,0,0,1,15.17,10.76l3.61,1.73-3.61-1.73a9.43,9.43,0,0,1-17.2-.44l-3.69,1.54L136,78.89A9.42,9.42,0,0,1,138,68.57ZM74,109.62A9.44,9.44,0,0,1,90.11,103a9.77,9.77,0,0,1,1.19,1.45h0a9.46,9.46,0,0,1-1.19,11.9A9.44,9.44,0,0,1,74,109.62Zm2.76,76.68a9.44,9.44,0,1,1,14.85-2h0a8.89,8.89,0,0,1-1.5,2A9.45,9.45,0,0,1,76.76,186.3Zm74.61,33.13a9.44,9.44,0,0,1-15.44-10.18h0a9.44,9.44,0,0,1,15.44-3.17,9.36,9.36,0,0,1,1.88,2.73l3.64-1.68-3.64,1.68A9.44,9.44,0,0,1,151.37,219.43ZM212,186.3a9.42,9.42,0,0,1-15-2.2L193.5,186l3.52-1.9a9.42,9.42,0,0,1,8.09-13.9A9.43,9.43,0,0,1,212,186.3ZM155,144a9.91,9.91,0,1,1-9.91-9.91A9.92,9.92,0,0,1,155,144Z"/></svg>