<?xml version="1.0" encoding="utf-8"?>
<!-- Generator: Adobe Illustrator 24.0.3, SVG Export Plug-In . SVG Version: 6.00 Build 0)  -->
<svg version="1.1" id="ART" xmlns="http://www.w3.org/2000/svg" xmlns:xlink="http://www.w3.org/1999/xlink" x="0px" y="0px"
	 viewBox="0 0 288 288" style="enable-background:new 0 0 288 288;" xml:space="preserve">
<style type="text/css">
	.st0{fill:#312D2A;}
</style>
<path class="st0" d="M213,229h-22v-70h2.1c22.5,0.1,40.9-18.1,41-40.6c0-1.6-0.1-3.2-0.3-4.8L226.6,53h-79.1l-7.2,60.7
	c-2.5,22.4,13.6,42.6,36,45.1c1.6,0.2,3.1,0.3,4.7,0.3h2.1v70h-22l-8,4v4h68v-4L213,229z M149.4,127.7c-1.3-4.2-1.7-8.7-1.2-13.1
	l6.4-53.6h64.9l6.4,53.5c2,18-10.9,34.2-28.9,36.3c-1.3,0.1-2.6,0.2-3.9,0.2H181C166.4,151.1,153.5,141.6,149.4,127.7z M127,157.1
	v-40h-8V149h-6v-31.8h-8V149h-6v-31.8h-8v40c0,8.4,5.8,15.7,14,17.5V237h8v-62.3C121.2,172.8,127,165.5,127,157.1z M99,157.1V157h20
	v0.1c0,5.5-4.5,10-10,10S99,162.7,99,157.1z M218.9,125.9c0.9-3,1.2-6,1.1-9.1l-0.2-3.8h-65.7l-0.2,3.8c-0.1,3.1,0.2,6.1,1.1,9.1
	c3.4,11.4,13.9,19.2,25.8,19.1h12.1C205,145.1,215.5,137.3,218.9,125.9z M162.8,123.6c-0.3-0.9-0.4-1.7-0.6-2.6h49.6
	c-0.1,0.9-0.3,1.8-0.6,2.6c-2.4,8-9.8,13.5-18.2,13.4h-12.1C172.6,137.1,165.2,131.6,162.8,123.6z M59,144.1
	c0.1-45.4,35.8-82.8,81.2-84.9l0.3-2.8l0.6-5.3c-51.3,1.6-91.6,44.6-90,95.9c1,32.8,19.2,62.5,47.9,78.4v-9.3
	C74.1,200.7,59,173.5,59,144.1z M197,210.5v10c25-17.4,40-45.9,40-76.4c0-2.8-0.1-5.6-0.4-8.4c-1.9,4.7-4.5,9-7.7,12.9
	C227.6,172.9,216,195.4,197,210.5z M119,225.4v8.3c8.1,2.3,16.5,3.4,25,3.4c1,0,2,0,3-0.1v-8c-1,0-2,0.1-3,0.1
	C135.5,229.2,127.1,227.9,119,225.4z M72.5,144.1c0.1-37.4,28.9-68.4,66.2-71.2l0.9-8.1c-43.8,2.4-77.3,39.9-74.9,83.7
	c1.4,24.6,14,47.2,34.3,61.1v-10C82.3,186.1,72.5,165.7,72.5,144.1z M213.5,160.5c-2.8,11.7-8.5,22.6-16.5,31.5v11.3
	c14.1-12.6,23.2-29.8,25.7-48.6C219.9,157,216.8,158.9,213.5,160.5z M119,219.6c19,6.3,39.8,5.2,58-3.1v-8.9
	c-17.9,9.4-39,10.7-58,3.6V219.6z"/>
</svg>
