<svg id="ART" xmlns="http://www.w3.org/2000/svg" viewBox="0 0 288 288"><defs><style>.cls-1{fill:#fcfbfa;}</style></defs><rect class="cls-1" x="51" y="115" width="8" height="14"/><rect class="cls-1" x="66" y="115" width="8" height="14"/><rect class="cls-1" x="96" y="115" width="8" height="14"/><rect class="cls-1" x="111" y="115" width="8" height="14"/><rect class="cls-1" x="126" y="115" width="8" height="14"/><rect class="cls-1" x="156" y="115" width="8" height="14"/><rect class="cls-1" x="51" y="149" width="8" height="14"/><rect class="cls-1" x="66" y="149" width="8" height="14"/><rect class="cls-1" x="96" y="149" width="8" height="14"/><rect class="cls-1" x="111" y="149" width="8" height="14"/><rect class="cls-1" x="126" y="149" width="8" height="14"/><rect class="cls-1" x="171" y="115" width="8" height="14"/><rect class="cls-1" x="186" y="115" width="8" height="14"/><rect class="cls-1" x="51" y="81" width="8" height="14"/><rect class="cls-1" x="66" y="81" width="8" height="14"/><rect class="cls-1" x="96" y="81" width="8" height="14"/><rect class="cls-1" x="111" y="81" width="8" height="14"/><rect class="cls-1" x="126" y="81" width="8" height="14"/><rect class="cls-1" x="156" y="81" width="8" height="14"/><rect class="cls-1" x="171" y="81" width="8" height="14"/><rect class="cls-1" x="186" y="81" width="8" height="14"/><path class="cls-1" d="M198,168a11,11,0,1,0-11,11A11,11,0,0,0,198,168Zm-14,0a3,3,0,1,1,3,3A3,3,0,0,1,184,168Z"/><path class="cls-1" d="M242.74,206.69a22.13,22.13,0,0,1-9.74,7.08v-6.49a23.87,23.87,0,0,0-7-17,16,16,0,0,1,0-22.62,23.87,23.87,0,0,0,7-17V135h-9V109h0l-4-9h-4v35h-7V67H50v8H81v26H50v8H81v26H50v8H81v24H50v8h92.73l30-32H225v7.72A15.86,15.86,0,0,1,220.31,162a24,24,0,0,0,0,33.94A15.86,15.86,0,0,1,225,207.28V215a21.7,21.7,0,0,1-15.72-8.24L206,202.1l-3.29,4.59a21,21,0,0,1-33.46,0L166,202.1l-3.29,4.59a21,21,0,0,1-33.46,0L126,202.1l-3.29,4.59a21,21,0,0,1-33.46,0L86,202l-3.28,4.69a21,21,0,0,1-33.44,0l-6.56,4.58C43.06,211.77,51.09,223,66,223a29.17,29.17,0,0,0,20-8.07,28.82,28.82,0,0,0,40,0,28.82,28.82,0,0,0,40,0,28.82,28.82,0,0,0,40,0A29.17,29.17,0,0,0,226,223c14.91,0,22.94-11.23,23.28-11.71ZM149,75h52v26H149Zm12.77,68L149,156.62V143ZM89,75h52v26H89Zm52,34v26H89V109ZM89,167V143h52v22h.14l-1.87,2Zm81-32H149V109h52v26Z"/></svg>