<svg id="ART" xmlns="http://www.w3.org/2000/svg" viewBox="0 0 288 288"><defs><style>.cls-1{fill:#312d2a;}</style></defs><path class="cls-1" d="M186.49,189h-.15a41.45,41.45,0,0,0,0-67h.15a41.18,41.18,0,0,0-4.49-2.87v.09a41.28,41.28,0,0,0-18-5.17c-.7,0-1.41,0-2.13,0s-1.35,0-2,0A41.22,41.22,0,0,0,138,121.58a42.14,42.14,0,0,0-4.23,3.42,41.48,41.48,0,0,0-3,58h11.73l-1-.85-.2-.17a33.5,33.5,0,1,1,20.52,7H114v8h47.88c.72,0,1.43,0,2.13-.05l1-.06a41.29,41.29,0,0,0,14-3.59v.07A40.51,40.51,0,0,0,186.49,189Z"/><path class="cls-1" d="M229.83,175.17l-5.66,5.66,8.17,8.17h-36.7a47.18,47.18,0,0,1-10.56,8h47.26l-8.17,8.17,5.66,5.66L247.66,193Z"/><path class="cls-1" d="M60,125h65.62a47.29,47.29,0,0,1,8.6-8H60V105a1,1,0,0,1,1-1H181a1,1,0,0,1,1,1v7.42a47.2,47.2,0,0,1,8,4.74V105a9,9,0,0,0-9-9H149V81a9,9,0,0,0-9-9H102a9,9,0,0,0-9,9V96H61a9,9,0,0,0-9,9v92h56v-8H60Zm41-44a1,1,0,0,1,1-1h38a1,1,0,0,1,1,1V96H101Z"/></svg>