<?xml version="1.0" encoding="UTF-8"?>
<svg id="ART" xmlns="http://www.w3.org/2000/svg" version="1.1" viewBox="0 0 288 288">
  <!-- Generator: Adobe Illustrator 29.0.1, SVG Export Plug-In . SVG Version: 2.1.0 Build 192)  -->
  <defs>
    <style>
      .st0 {
        fill: #312d2a;
      }
    </style>
  </defs>
  <path class="st0" d="M64.195903,139.791221c16.410124,3.927557,38.166358,6.089749,61.253645,6.089749s44.843521-2.162192,61.25678-6.089749c8.520635-2.04033,15.107188-4.446233,19.775274-7.198962v37.325851c0,.062492-.009368.134353-.028129.209349h8.448786v-100.760425c0-7.970725-9.476746-14.354174-28.167801-18.96913-16.422627-4.052542-38.185107-6.286594-61.284885-6.286594s-44.862264,2.234053-61.281768,6.286594c-18.691049,4.614956-28.167804,10.998411-28.167804,18.96913v149.931452c0,7.814494,9.486129,14.044853,28.195927,18.522327,15.41027,3.690091,35.532356,5.82103,57.044878,6.067877v-8.417534c-20.862615-.243724-40.287929-2.293422-55.085784-5.836668-17.744306-4.246265-21.737479-9.00496-21.737479-10.332879v-38.056999c4.671202,2.749606,11.25775,5.158632,19.77839,7.195839,15.410276,3.690091,35.532362,5.82103,57.044872,6.067877v-8.417534c-20.862615-.243712-40.287929-2.293422-55.085784-5.836656-17.744306-4.246265-21.737479-9.001825-21.737479-10.332879v-37.325851c4.671202,2.749606,11.25775,5.158632,19.778361,7.195815ZM66.183115,58.57172c15.782095-3.896311,36.829053-6.042876,59.266433-6.042876s43.487461,2.146566,59.266439,6.042876c17.856806,4.408735,21.765614,9.289281,21.765614,10.795314s-3.908808,6.386579-21.765602,10.798437c-15.778966,3.896311-36.825924,6.039754-59.266427,6.039754s-43.484338-2.143443-59.266433-6.039754c-17.853671-4.408735-21.765602-9.289281-21.765602-10.798437s3.911937-6.386579,21.765578-10.795314ZM44.417513,80.949731c4.664951,2.818344,11.242123,5.286734,19.750273,7.386433,16.419505,4.055665,38.181984,6.289717,61.281762,6.289717s44.865393-2.234053,61.284885-6.289717c8.508144-2.099699,15.082205-4.568089,19.747144-7.386433v40.319175c0,1.331053-3.993172,6.086614-21.734362,10.336002-15.788347,3.777578-36.847796,5.858528-59.29768,5.858528s-43.50621-2.08095-59.294551-5.858528c-17.744306-4.249388-21.737479-9.004948-21.737479-10.336002,0,0,0-40.319169.000006-40.319175Z"/>
  <g>
    <path class="st0" d="M158.863469,223.12293c3.32764-3.643224,5.992881-6.811516,7.998848-9.504875,2.005955-2.693359,3.471373-5.121134,4.396244-7.286449.921736-2.165314,1.3873-4.277517,1.3873-6.336584,0-5.068022-1.624767-8.989322-4.871165-11.7608-3.24641-2.771478-7.802002-4.158778-13.663653-4.158778-2.746483,0-5.571073.384323-8.473769,1.149834-2.905831.765511-5.492954,1.809109-7.761382,3.127671v8.473781c5.386718-2.958943,10.401617-4.436853,15.04783-4.436853,6.70528,0,10.057926,2.799607,10.057926,8.39565,0,1.374809-.368697,2.840204-1.109213,4.396232-.740516,1.559151-1.968469,3.421384-3.683845,5.583576-1.715376,2.165314-4.027547,4.830544-6.930243,7.998836l-15.125937,16.472629v6.652156h36.669699v-8.076954h-23.759066l9.82046-10.692195-.000036.003123Z"/>
    <path class="st0" d="M212.005796,205.975413c-2.533999-1.556028-5.517949-2.337166-8.948701-2.337166-3.327652,0-6.283472.871747-8.870583,2.615241,1.056089-1.690382,2.402769-3.668231,4.040039-5.939769l11.007792-15.207178h-10.532859l-9.898567,13.779257c-6.230348,8.661258-9.345527,16.475751-9.345527,23.443481,0,6.442808,1.793495,11.482725,5.386718,15.125949,3.590101,3.643224,8.526893,5.464837,14.810364,5.464837,4.118157,0,7.695754-.843618,10.732816-2.533999,3.033938-1.687259,5.39921-4.049407,7.089591-7.089591,1.687259-3.033938,2.533999-6.558424,2.533999-10.57348,0-3.905685-.699896-7.286449-2.099687-10.139168-1.399792-2.849596-3.365149-5.055507-5.902272-6.611536l-.003123.003123ZM207.7689,231.674817c-1.980972,2.165314-4.686822,3.24641-8.117575,3.24641s-6.124112-1.068604-8.076954-3.208912c-1.952843-2.137185-2.930837-5.133626-2.930837-8.989322,0-1.424798.078118-2.743348.237454-3.958797,2.587135-5.227358,6.545932-7.842623,11.879539-7.842623,3.012055,0,5.424216,1.09671,7.248951,3.287031,1.821612,2.190297,2.73398,5.080514,2.73398,8.673749,0,3.696336-.990486,6.627174-2.971434,8.792488l-.003123-.000024Z"/>
    <path class="st0" d="M232.437198,183.669262c-1.356048,0-2.743348.140599-4.155655.41244-1.412307.28121-2.674622.653029-3.783823,1.124839v3.949429c2.79646-1.024849,5.28674-1.53728,7.477037-1.53728,1.465419,0,2.490256.24997,3.074559.746762.584279.499927.871747,1.440412.871747,2.82459v1.037352h-4.111911c-2.880824,0-5.152387.646784-6.811516,1.94972-1.656007,1.302936-2.490256,3.090173-2.490256,5.361736,0,2.134062.659275,3.821321,1.974726,5.071145,1.31855,1.246701,3.099542,1.871601,5.339852,1.871601,1.468542,0,2.808975-.328088,4.027547-.977995,1.218572-.653029,2.230918-1.571643,3.033938-2.765232l.703019,3.237042h3.362003v-14.832236c0-4.983658-2.840204-7.477049-8.514389-7.477049l.003123.003135ZM236.005451,199.579447c-.578034.974848-1.327943,1.724757-2.24031,2.265293-.912368.537413-1.88097.809266-2.908954.809266-1.109225,0-1.965334-.309327-2.57462-.934251-.609286-.6249-.912368-1.487279-.912368-2.596504,0-2.440267,1.671645-3.658839,5.027402-3.658839h3.611972v4.111911l-.003123.003123Z"/>
    <rect class="st0" x="246.182093" y="175.570424" width="5.774164" height="4.15252"/>
    <polygon class="st0" points="244.729189 184.134815 244.729189 186.206397 246.928855 187.828028 246.928855 205.984781 252 205.984781 252 184.134815 244.729189 184.134815"/>
  </g>
</svg>