<?xml version="1.0" encoding="utf-8"?>
<!-- Generator: Adobe Illustrator 24.0.3, SVG Export Plug-In . SVG Version: 6.00 Build 0)  -->
<svg version="1.1" id="ART" xmlns="http://www.w3.org/2000/svg" xmlns:xlink="http://www.w3.org/1999/xlink" x="0px" y="0px"
	 viewBox="0 0 288 288" style="enable-background:new 0 0 288 288;" xml:space="preserve">
<style type="text/css">
	.st0{fill:#FCFBFA;}
</style>
<path class="st0" d="M214,80.3L181.7,48H74v177h140V80.3z M181,58.7L203.3,81H181V58.7z M82,217V56h91v33h33v128H82z M206,231
	L206,231H82l0,0h-8v4l8,4l0,0h124l0,0l8-4v-4H206z M88,211h112V96H88V211z M96,191h18v12H96V191z M122,161v-13h70v13H122z M192,169
	v14h-70v-14H192z M122,140v-14h70v14H122z M114,140H96v-14h18V140z M114,148v13H96v-13H114z M114,169v14H96v-14H114z M122,203v-12
	h70v12H122z M192,118h-70v-14h70V118z M114,104v14H96v-14H114z"/>
</svg>
