<svg id="ART" xmlns="http://www.w3.org/2000/svg" viewBox="0 0 288 288"><defs><style>.cls-1{fill:#312d2a;}</style></defs><path class="cls-1" d="M36,192H238V93H36Zm8-91H230v83H44Zm21,23h38v8H65Zm60,0h38v8H125Zm60,0h38v8H185ZM65,139h38v8H65Zm60,0h38v8H125Zm60,0h38v8H185ZM65,154h38v8H65Zm60,0h38v8H125Zm60,0h38v8H185ZM65,169h38v8H65Zm60,0h38v8H125Zm60,0h38v8H185Zm67-68v83l-4,8h-4V93h4ZM51,124h8v8H51Zm0,15h8v8H51Zm0,15h8v8H51Zm0,15h8v8H51Zm60-45h8v8h-8Zm0,15h8v8h-8Zm0,15h8v8h-8Zm0,15h8v8h-8Zm60-45h8v8h-8ZM65,109h38v8H65Zm60,0h38v8H125Zm60,0h38v8H185ZM51,109h8v8H51Zm60,0h8v8h-8Zm60,0h8v8h-8Zm0,30h8v8h-8Zm0,15h8v8h-8Zm0,15h8v8h-8Z"/></svg>