<svg id="ART" xmlns="http://www.w3.org/2000/svg" viewBox="0 0 288 288"><defs><style>.cls-1{fill:#fcfbfa;}</style></defs><path class="cls-1" d="M36,192H238V93H36Zm8-91H230v83H44Zm141,23h38v8H185Zm0,15h38v8H185Zm0,15h38v8H185Zm0,15h38v8H185Zm67-68v83l-4,8h-4V93h4Zm-81,23h8v8h-8Zm14-15h38v8H185Zm-14,0h8v8h-8Zm0,30h8v8h-8Zm0,15h8v8h-8Zm0,15h8v8h-8ZM51,177H163V109H51Zm64.13-8H98.79l7.95-18.4ZM99.52,117H114.7l-7.45,17.09ZM155,169H126.82l-13.1-26.4L126.31,117H155ZM59,117H87.84l12.51,25.24L87.18,169H59Z"/></svg>