<?xml version="1.0" encoding="UTF-8"?>
<svg xmlns="http://www.w3.org/2000/svg" version="1.1" viewBox="0 0 288 288">
  <!-- Generator: Adobe Illustrator 29.5.0, SVG Export Plug-In . SVG Version: 2.1.0 Build 137)  -->
  <defs>
    <style>
      .st0 {
        fill: none;
        stroke: #54a6db;
        stroke-miterlimit: 10;
        stroke-width: .2px;
      }

      .st1 {
        fill: #312d2a;
      }

      .st2 {
        fill: #54a6db;
      }

      .st3 {
        display: none;
      }
    </style>
  </defs>
  <g id="GUIDES" class="st3">
    <g>
      <path class="st2" d="M144,96.3c26.3,0,47.8,21.4,47.8,47.7s-21.4,47.7-47.8,47.7-47.8-21.4-47.8-47.7,21.4-47.7,47.8-47.7M144,96.1c-26.5,0-48,21.5-48,47.9s21.5,47.9,48,47.9,48-21.5,48-47.9-21.5-47.9-48-47.9h0Z"/>
      <line class="st0" x1="96" y1="0" x2="96" y2="288"/>
      <line class="st0" x1="192" y1="0" x2="192" y2="288"/>
      <line class="st0" x1="0" y1="192" x2="288" y2="192"/>
      <line class="st0" y1="96" x2="288" y2="96"/>
      <path class="st2" d="M144,12.4c35.2,0,68.3,13.7,93.2,38.6,24.9,24.9,38.6,58,38.6,93.2s-13.7,68.3-38.6,93.2c-24.9,24.9-58,38.6-93.2,38.6s-68.3-13.7-93.2-38.6S12.2,179.3,12.2,144.1s13.7-68.3,38.6-93.2S108.8,12.4,144,12.4M144,12.1C71.1,12.1,12,71.2,12,144.1s59.1,132,132,132,132-59.1,132-132S216.9,12.1,144,12.1h0Z"/>
      <path class="st2" d="M240,12.3c6.5,0,11.8,5.3,11.8,11.8v240c0,6.5-5.3,11.8-11.8,11.8H48c-6.5,0-11.8-5.3-11.8-11.8V24c0-6.5,5.3-11.8,11.8-11.8h192M240,12H48c-6.6,0-12,5.4-12,12v240c0,6.6,5.4,12,12,12h192c6.6,0,12-5.4,12-12V24c0-6.6-5.4-12-12-12h0Z"/>
      <path class="st2" d="M264,36.3c6.5,0,11.8,5.3,11.8,11.8v192c0,6.5-5.3,11.8-11.8,11.8H24c-6.5,0-11.8-5.3-11.8-11.8V48c0-6.5,5.3-11.8,11.8-11.8h240M264,36H24c-6.6,0-12,5.4-12,12v192c0,6.6,5.4,12,12,12h240c6.6,0,12-5.4,12-12V48c0-6.6-5.4-12-12-12h0Z"/>
      <path class="st2" d="M247.8,24.3c8.8,0,16,7.2,16,16v207.6c0,8.8-7.2,16-16,16H40.2c-8.8,0-16-7.2-16-16V40.2c0-8.8,7.2-16,16-16h207.6M247.8,24H40.2c-8.9,0-16.2,7.3-16.2,16.2v207.6c0,8.9,7.3,16.2,16.2,16.2h207.6c8.9,0,16.2-7.3,16.2-16.2V40.2c0-8.9-7.3-16.2-16.2-16.2h0Z"/>
    </g>
  </g>
  <g id="ART">
    <g>
      <path class="st1" d="M147.8,82.5"/>
      <path class="st1" d="M139.9,82.8"/>
      <g>
        <rect class="st1" x="51.4" y="218.2" width="8" height="22.7"/>
        <rect class="st1" x="68.4" y="206" width="8" height="34.9"/>
        <rect class="st1" x="85.4" y="193.8" width="8" height="47.1"/>
        <path class="st1" d="M110.4,248.9H34.3v-76.1h76.1v76.1ZM42.3,240.9h60.1v-60.1h-60.1v60.1Z"/>
      </g>
      <path class="st1" d="M218.1,112v17.1c0,.2,0,.4-.2.7-1,1.8-5.8,5.6-20.4,9.1-15,3.6-35,5.6-56.3,5.6s-41.3-2-56.4-5.6c-14.6-3.5-19.4-7.3-20.4-9.1-.2-.3-.2-.5-.2-.7v-38.3c4.4,2.7,10.7,5,18.8,7,15.6,3.8,36.3,6,58.2,6s26.7-.8,38.4-2.3c-2.2-2.2-4.1-4.7-5.8-7.4-10.1,1.1-21.1,1.7-32.6,1.7-21.3,0-41.3-2-56.3-5.7-5.7-1.4-10-2.9-13-4.3-6-2.7-7.6-5-7.6-6s.3-1.1,1.2-2c2.1-2.1,7.5-5.3,19.5-8.3,15-3.7,35-5.7,56.3-5.7s14.9.3,21.9.8c.7-2.7,1.7-5.3,2.9-7.8-7.9-.6-16.3-.9-24.8-.9-22,0-42.6,2.1-58.2,6-17.8,4.4-26.8,10.4-26.8,18s0,.8,0,1.2c0,.3,0,.5,0,.8v81h8v-22.9c4.4,2.6,10.7,4.9,18.8,6.8,15.6,3.7,36.3,5.8,58.2,5.8s42.6-2.1,58.2-5.8c8.1-1.9,14.4-4.2,18.8-6.8v35.5c0,.5-.5,1.3-1.9,2.5-2.5,2-7.9,4.8-18.8,7.4-15,3.6-35,5.6-56.3,5.6s-14-.2-20.7-.6v8c6.7.4,13.6.6,20.7.6,21.9,0,42.6-2.1,58.2-5.8,8.1-1.9,14.4-4.2,18.8-6.8v36.2c0,1.3-3.8,5.8-20.7,9.8-15,3.6-35,5.6-56.3,5.6s-14-.2-20.7-.6v8c6.7.4,13.6.6,20.7.6,21.9,0,42.6-2.1,58.2-5.8,17.8-4.2,26.8-10.2,26.8-17.6v-113.3c-2.5,1.3-5.2,2.3-8,3.1Z"/>
      <path class="st1" d="M236.7,54.9l-1.4,1.5-1.4,1.5-2.9,3c-4.4-8.2-13-13.8-22.9-13.8s-23.6,9.4-25.7,21.8l4.9-4.7,1.1,1.1,4.5,4.7-10,9.7-3.2,3.1-1.6,1.5-.4.4-2.3-2.2-2.2-2-.5-.5-4.6-4.3-5.8-5.5,5.5-5.8,1,1,3.5,3.3,1.8,1.7c1.4-17.5,16.1-31.2,33.9-31.2s22.6,6.3,28.7,15.8Z"/>
      <path class="st1" d="M253.7,76.2l-5.6,5.8-1-.9-3.5-3.4-1.8-1.8c-1.4,17.5-16.1,31.2-33.9,31.2s-22.7-6.3-28.7-15.9l5.8-5.8c4.4,8.2,13,13.7,22.9,13.7s23.8-9.5,25.7-22l-5,4.7-.6-.7-4.9-5.2,10-9.4,3.2-3.1,1.6-1.5.5-.5,2.1,2,2.3,2.2.4.4,4.6,4.4,5.8,5.6Z"/>
      <g>
        <path class="st1" d="M190.3,85.1l8.1-21.8h5.9l8.1,21.8h-6.7l-1.1-3.8h-6.8l-1.1,3.8h-6.4ZM199.2,76.7h4.1l-2.1-7.2-2,7.2Z"/>
        <path class="st1" d="M214.4,85.1v-21.8h6v21.8h-6Z"/>
      </g>
    </g>
  </g>
</svg>