<?xml version="1.0" encoding="utf-8"?>
<!-- Generator: Adobe Illustrator 27.1.0, SVG Export Plug-In . SVG Version: 6.00 Build 0)  -->
<svg version="1.1" id="ART" xmlns="http://www.w3.org/2000/svg" xmlns:xlink="http://www.w3.org/1999/xlink" x="0px" y="0px"
	 viewBox="0 0 288 288" style="enable-background:new 0 0 288 288;" xml:space="preserve">
<style type="text/css">
	.st0{fill:#312D2A;}
</style>
<path class="st0" d="M239.7,144.6c0.8-3.1,0.1-6.2-1.8-8.7c-1.9-2.5-4.9-4-8.1-4h-4.9c-1.8-19.6-18.3-35.1-38.3-35.1
	c-10,0-19.1,3.8-25.9,10.1c-0.2-6.4-1.6-13.1-4.2-19.8c-1.6-4.2-6.2-6.8-10.6-6.1c-16.7,2.5-29.9,10.8-37.2,23.5
	c-1,1.8-1.9,3.6-2.7,5.5C94.6,98.9,79.9,92,64.4,90.6c-2.9-0.3-5.8,0.8-7.8,2.8c-2.1,2.1-3.1,4.9-2.8,7.8c1,10.9,4.7,21.3,10.6,30.6
	h-6.1c-3.2,0-6.1,1.4-8.1,4c-1.9,2.5-2.6,5.7-1.8,8.7c5.7,21.9,18.8,41.1,36.8,54.5H83l-8,4v4h138v-4l-8-4l0,0h-2.1
	C220.9,185.7,234,166.5,239.7,144.6L239.7,144.6z M186.6,104.8c15.6,0,28.6,11.8,30.3,27.1h-8.2c-1.7-10.7-11-18.9-22.1-18.9
	s-20.5,8.2-22.1,18.9h-8.2C158,116.7,170.9,104.8,186.6,104.8z M200.5,131.9h-27.9c1.6-6.3,7.2-10.9,14-10.9S199,125.6,200.5,131.9
	L200.5,131.9z M112.1,116.8c0.8-2.9,2-5.7,3.5-8.3c6-10.5,17.2-17.5,31.4-19.6c0.1,0,0.1,0,0.2,0c0.7,0,1.6,0.6,1.8,1.2
	c5.3,13.4,4.8,26.6-1.2,37.1c-1,1.7-2.1,3.3-3.3,4.8h-16.3l12.4-21.4c1.1-1.9,0.4-4.4-1.5-5.5s-4.4-0.4-5.5,1.5L118.9,132h-8
	c-0.1-1-0.2-1.9-0.2-2.9C110.6,124.8,111,120.7,112.1,116.8L112.1,116.8z M61.7,100.6c-0.1-0.7,0.3-1.2,0.5-1.4
	c0.2-0.2,0.6-0.5,1.3-0.5c0.1,0,0.1,0,0.2,0c13.9,1.2,27.1,7.5,37.2,17.6c0.9,0.9,1.7,1.8,2.5,2.7c-0.7,4.2-0.9,8.5-0.5,12.9h-2.3
	l-16.8-16.8c-1.6-1.6-4.1-1.6-5.7,0s-1.6,4.1,0,5.7L89.3,132H74.1C67.1,122.8,62.7,111.9,61.7,100.6L61.7,100.6z M56.5,140.8
	c0.4-0.6,1.1-0.9,1.8-0.9h171.5c0.7,0,1.3,0.3,1.8,0.9c0.2,0.3,0.6,1,0.4,1.8c-1.1,4.2-2.5,8.4-4.2,12.4H60.3
	c-1.7-4-3.1-8.2-4.2-12.4C55.8,141.7,56.2,141.1,56.5,140.8L56.5,140.8z M188.2,199.1H99.8C84.6,190.7,72.3,178,64.1,163h159.8
	C215.7,178,203.4,190.7,188.2,199.1L188.2,199.1z"/>
</svg>
