<svg xmlns="http://www.w3.org/2000/svg" viewBox="0 0 288 288"><defs><style>.cls-1{fill:#312d2a;}</style></defs><g id="ART"><path class="cls-1" d="M115,185V53h48v81.47a42.22,42.22,0,0,1,8-.76V45H107v56H65v84h0l-8,4v4h73.74a43,43,0,0,1-2.3-8Zm-42,0V109h34v76ZM129,81h-8V73h8Zm14,0h-8V73h8Zm14,0h-8V73h8ZM129,67h-8V59h8Zm14,0h-8V59h8Zm14,0h-8V59h8ZM129,95h-8V87h8Zm14,0h-8V87h8Zm14,0h-8V87h8Zm-28,14h-8v-8h8Zm14,0h-8v-8h8Zm14,0h-8v-8h8Zm-28,14h-8v-8h8Zm14,0h-8v-8h8Zm14,0h-8v-8h8Zm-28,14h-8v-8h8Zm14,0h-8v-8h8Zm6-8h8v7.05c-.85.29-1.69.61-2.51.95H149Zm-20,22h-8v-8h8Zm6-8h8v1a44.56,44.56,0,0,0-6.56,7H135Zm-6,22h-8v-8h8Zm-.86,6a41.77,41.77,0,0,0-.43,6.06c0,.65,0,1.3.05,1.94H121v-8ZM79,115h8v8H79Zm14,0h8v8H93ZM79,129h8v8H79Zm14,0h8v8H93ZM79,143h8v8H79Zm14,0h8v8H93ZM79,157h8v8H79Zm14,0h8v8H93ZM79,171h8v8H79Zm14,0h8v8H93Zm89.77-8.26,5.66,5.66-24.84,24.84L150,179.64l5.66-5.66,8,8Zm45.87,50.85a109.4,109.4,0,0,0-11.8-10.23l-12-9a37.94,37.94,0,1,0-16.48,16.48l9.6,12.79a68.4,68.4,0,0,0,7.62,9l10.06,10.06,21-21Zm-87.5-36.53A29.92,29.92,0,1,1,171.06,207,30,30,0,0,1,141.14,177.06Zm74.47,54.28-4.4-4.4a60.57,60.57,0,0,1-6.88-8.13L195,206.42a38,38,0,0,0,5.38-5.38L212,209.76A100.84,100.84,0,0,1,223,219.25l2.36,2.36Z"/></g></svg>