<?xml version="1.0" encoding="utf-8"?>
<!-- Generator: Adobe Illustrator 24.0.3, SVG Export Plug-In . SVG Version: 6.00 Build 0)  -->
<svg version="1.1" id="icon_art" xmlns="http://www.w3.org/2000/svg" xmlns:xlink="http://www.w3.org/1999/xlink" x="0px" y="0px"
	 viewBox="0 0 288 288" style="enable-background:new 0 0 288 288;" xml:space="preserve">
<style type="text/css">
	.st0{fill:#FCFBFA;}
</style>
<path class="st0" d="M233.1,75.8c-17.9-23.7-45.4-38.2-75-39.8H154v90.4l81.8-47L233.1,75.8z M161.8,112.9v-69
	c24.2,2.5,46.5,14.4,62,33.1L161.8,112.9z M232,97.7L232,97.7c-0.6-1-1.2-2-1.8-3l-2-3.2L148,136.1V47h-4
	C87.9,47,42.4,92.5,42.4,148.7c0,56.1,45.5,101.6,101.7,101.6s101.6-45.5,101.6-101.7C245.7,130.7,241,113.2,232,97.7z M140,242.4
	c-50.1-2.2-89.6-43.4-89.7-93.6h0c0-50,40.3-91.1,89.7-93.7V242.4z M148,242.4v-90.9l77,44.4C208.9,223.5,179.9,241,148,242.4z
	 M228.7,188.8l-78.1-45.1l74.8-41.4c8.1,14.2,12.3,30.2,12.3,46.5h0C237.7,162.6,234.6,176.3,228.7,188.8z M84.1,141.1
	c0.1-7.2,5.8-13,13-13.1h2.9v-8h8v8h12v8H97.1c-2.8,0.1-5,2.3-5,5.1c0.1,2.7,2.3,4.9,5,4.9H110c7.2,0,13,5.8,13,13s-5.8,13-13,13h-2
	v8h-8v-8H85v-8h25c2.8,0,5-2.2,5-5s-2.2-5-5-5H97.1C90,154,84.2,148.2,84.1,141.1z"/>
</svg>
