<?xml version="1.0" encoding="UTF-8"?>
<svg id="ART" xmlns="http://www.w3.org/2000/svg" version="1.1" viewBox="0 0 288 288">
  <defs>
    <style>
      .cls-1 {
        fill: #fcfbfa;
        stroke-width: 0px;
      }
    </style>
  </defs>
  <path class="cls-1" d="M216,144c0,3.7-.3,7.4-.8,11-.4,2.4-.8,4.7-1.4,7h0c-.3,1.1-.6,2.3-1,3.4h0c-.7,2.2-1.5,4.4-2.4,6.6-.7,1.6-1.4,3.2-2.2,4.8s-1.1,2.1-1.7,3.1c-12.4,21.6-35.7,36.1-62.4,36.1s-6.8-.2-9.9-.6c-.4,0-.9-.1-1.3-.2-3.5-.6-6.9-1.4-10.2-2.4,4.8-7,7.7-14.3,9.7-22l3.7-14.9c4.5,5.7,11,8.8,18.4,8.8,18.6,0,35.9-18.4,35.9-42.8s-17.7-44-46-44-46.1,19.1-46.1,43,6.8,24,14,24,3.9-.4,5.3-2.9c-4.4-4.7-6.7-11.5-6.7-18.9,0-18.3,12.8-31.4,32.9-31.4s30.3,12,30.3,30.7-8.9,29.8-21.4,29.8-12.5-4-12.5-11.2.3-3.5.9-5.5l3.2-10.4c.9-2.9,1.3-5.4,1.3-7.6,0-7.1-3.9-10.8-9.2-10.8-7.7,0-12.5,7.2-12.5,17.3s.9,8.6,2.1,12.4l-7.2,31c-1.8,7.6-2.4,15.4-1.5,23.6-15.5-6.2-28.2-17.5-36.1-31.8l-.6-1.2-1.2-2.4-.6-1.2c-.2-.4-.4-.8-.5-1.2-.4-.8-.7-1.6-1-2.5-.2-.4-.3-.8-.5-1.2s-.3-.8-.5-1.2c-.3-.8-.6-1.7-.9-2.5,0-.4-.3-.9-.4-1.3s-.2-.9-.4-1.3c0-.4-.2-.9-.3-1.3-.4-1.8-.8-3.5-1.1-5.3,0-.5-.2-.9-.2-1.3s0-.7-.2-1c-.3-2-.5-3.9-.6-5.9v-4.2c0-3.7.3-7.4.8-10.9,5.2-34.6,35.1-61.1,71.2-61.1s65.9,26.5,71.2,61.1c.5,3.6.8,7.2.8,10.9l-.2-.2Z"/>
</svg>