<?xml version="1.0" encoding="utf-8"?>
<!-- Generator: Adobe Illustrator 27.0.0, SVG Export Plug-In . SVG Version: 6.00 Build 0)  -->
<svg version="1.1" id="ART" xmlns="http://www.w3.org/2000/svg" xmlns:xlink="http://www.w3.org/1999/xlink" x="0px" y="0px"
	 viewBox="0 0 288 288" style="enable-background:new 0 0 288 288;" xml:space="preserve">
<style type="text/css">
	.st0{fill:#FCFBFA;}
</style>
<path class="st0" d="M177.4,168.3c0-18.3-14.9-33.1-33.1-33.1s-33.2,14.9-33.2,33.1c0,11.7,6.1,21.9,15.2,27.9v51l18-12.2l18,12.1
	v-51C171.4,190.2,177.4,180,177.4,168.3 M119.1,168.4c0-13.9,11.3-25.1,25.1-25.1s25.1,11.3,25.1,25.1s-11.3,25.1-25.1,25.1
	S119.1,182.2,119.1,168.4 M140.3,228.1l-6,4.1V200c1.9,0.6,3.9,1,6,1.3V228.1z M154.3,232.1l-5.9-4v-26.9c2.1-0.2,4-0.7,6-1.3
	L154.3,232.1L154.3,232.1z"/>
<g>
	<path class="st0" d="M84.3,48.3v152h36v-1c-2.7-2.1-5-4.4-7-7h-21v-136h76.1v27.6h27.8v108.3h-20.8c-2,2.6-4.4,5-7,7.1v1h35.8V75.6
		L177,48.3C176.9,48.3,84.3,48.3,84.3,48.3z M176.3,75.8V59.1L193,75.8H176.3z"/>
	<rect x="108.3" y="120.2" class="st0" width="72" height="8"/>
	<rect x="108.3" y="97.1" transform="matrix(1 -1.047195e-03 1.047195e-03 1 -0.1058 0.1512)" class="st0" width="72" height="8"/>
	<polygon class="st0" points="162.1,162.8 156.4,157.1 138.8,174.8 130.9,166.9 125.2,172.5 138.8,186.1 	"/>
</g>
</svg>
