<?xml version="1.0" encoding="utf-8"?>
<!-- Generator: Adobe Illustrator 25.0.1, SVG Export Plug-In . SVG Version: 6.00 Build 0)  -->
<svg version="1.1" xmlns="http://www.w3.org/2000/svg" xmlns:xlink="http://www.w3.org/1999/xlink" x="0px" y="0px"
	 viewBox="0 0 288 288" style="enable-background:new 0 0 288 288;" xml:space="preserve">
<style type="text/css">
	.st0{display:none;opacity:0.75;}
	.st1{display:inline;}
	.st2{fill:#00AEEF;}
	.st3{fill:none;stroke:#00AEEF;stroke-width:0.25;stroke-miterlimit:10;}
	.st4{fill:#FCFBFA;}
	.st5{fill:#312D2A;}
</style>
<g id="Guide" class="st0">
</g>
<g id="ART">
	<g>
		<path class="st5" d="M200.7,79.3C189,67.5,173.3,61,156.6,61s-32.3,6.5-44.1,18.3c-20.9,20.9-23.8,53.1-8.8,77.2l-38,38l19.8,19.8
			l38-38c10.1,6.3,21.6,9.5,33.1,9.5c16,0,32-6.1,44.1-18.2C225.1,143.2,225.1,103.6,200.7,79.3z M85.5,203l-8.5-8.5l31.4-31.4
			c1.3,1.5,2.6,3,4,4.5c1.4,1.4,2.9,2.8,4.5,4L85.5,203z M195.1,161.9c-21.2,21.2-55.7,21.2-76.9,0c-21.2-21.2-21.2-55.7,0-76.9
			C128.8,74.3,142.7,69,156.6,69s27.9,5.3,38.5,15.9C216.3,106.1,216.3,140.6,195.1,161.9z"/>
		
			<rect x="63.2" y="197" transform="matrix(0.7071 -0.7071 0.7071 0.7071 -130.7874 109.8435)" class="st5" width="8" height="31.7"/>
		<path class="st5" d="M160.2,75h-6.8l-40.6,67l3,8h82l3-8L160.2,75z M122.1,142l34.6-57.2l34.6,57.2H122.1z"/>
		<rect x="152.8" y="102" class="st5" width="8" height="23"/>
		<circle class="st5" cx="156.8" cy="133" r="4"/>
	</g>
</g>
<g id="Layer_1">
</g>
</svg>
