<svg id="ART" xmlns="http://www.w3.org/2000/svg" viewBox="0 0 288 288"><defs><style>.cls-1{fill:#fcfbfa;}</style></defs><path class="cls-1" d="M80.08,115H90V65H32v40H72.08ZM40,73H82v31.6L75.92,97H40ZM76,87H46V79H76ZM228,207V77H96v8H220v94H155v-2.59A20.21,20.21,0,0,0,135,156h-4v-5.36a20.63,20.63,0,0,0,6-14.42V107H111c-9.26,0-15,6.13-15,16v14A19.44,19.44,0,0,0,102,151V156l-4,0c-11.38,0-21,9.35-21,20.41V179H68V111H60v96h60.66l-1.78,13H111l-8,4v4h83v-4l-8-4h-7.88l-1.78-13ZM110,155.74a21.14,21.14,0,0,0,6.64,1.08,19.68,19.68,0,0,0,6.37-1.09v2.84l-6.39,7.05L110,158.43ZM111,115h18c-.62,2.06-2.58,4-6,4H104.53C105.92,115,109.44,115,111,115Zm12,12a14.9,14.9,0,0,0,6-1.2v10.44a12.68,12.68,0,0,1-12.41,12.58c-7,0-12.63-5.31-12.63-11.82V127ZM85,176.41C85,169.8,91.08,164,98,164l6.25,0,12.38,13.44L128.81,164H135a12.2,12.2,0,0,1,12,12.4V179H85ZM68,187H220v12H68Zm94,33H127l1.77-13h31.54Zm6-113a5,5,0,1,1,5,5A5,5,0,0,1,168,107Zm24-16H154v38h38Zm-8,30h-4v-3.76a3.24,3.24,0,0,0-3.24-3.24h-7.52a3.24,3.24,0,0,0-3.24,3.24V121h-4V99h22Zm-16,30a5,5,0,1,1,5,5A5,5,0,0,1,168,151Zm-14,7.45A26.52,26.52,0,0,1,160.73,173H192V135H154ZM162,143h22v22h-4v-3.76a3.24,3.24,0,0,0-3.24-3.24h-7.52a3.24,3.24,0,0,0-3.24,3.24V165h-4Zm46-48v8H196V95Zm-12,12h18v8H196Zm0,32h12v8H196Zm0,12h18v8H196Z"/></svg>