<svg id="ART" xmlns="http://www.w3.org/2000/svg" viewBox="0 0 288 288"><defs><style>.cls-1{fill:#fcfbfa;}</style></defs><path class="cls-1" d="M236.9,136.26a38.56,38.56,0,0,1-7.31,20.06,9,9,0,0,1-7.27,3.68H216v-8h6.32a1,1,0,0,0,.8-.38A31,31,0,0,0,198,102.5a8.46,8.46,0,0,1-8.17-6.19,33,33,0,0,0-59.41-9.43,8.27,8.27,0,0,1-9.34,3.27A25.51,25.51,0,0,0,88,114.5a8.29,8.29,0,0,1-5.81,8A33,33,0,0,0,59.06,152H72v8H53.4l-2.26-2.26-.08-1.53a41,41,0,0,1,28.75-41.36.32.32,0,0,0,.19-.32,33.51,33.51,0,0,1,43.46-32,.28.28,0,0,0,.28,0,41,41,0,0,1,73.81,11.73.42.42,0,0,0,.41.29,39.16,39.16,0,0,1,28.56,12.4A38.66,38.66,0,0,1,236.9,136.26ZM182,151v74H78V151a9,9,0,0,1,9-9h86A9,9,0,0,1,182,151Zm-96,0v5h88v-5a1,1,0,0,0-1-1H87A1,1,0,0,0,86,151Zm0,66H98V164H86Zm88,0V164H106v53Zm-47.12-39.89-16,10v6.78l16,10,4.24-6.78-10.57-6.61,10.57-6.61Zm21,6.78,10.57,6.61-10.57,6.61,4.24,6.78,16-10v-6.78l-16-10ZM132.55,204h8.18l5.72-27h-8.18ZM210,123v74H188v-8h14V136H106V123a9,9,0,0,1,9-9h86A9,9,0,0,1,210,123Zm-8,5v-5a1,1,0,0,0-1-1H115a1,1,0,0,0-1,1v5Z"/></svg>