<svg id="ART" xmlns="http://www.w3.org/2000/svg" viewBox="0 0 288 288"><defs><style>.cls-1{fill:#312d2a;}</style></defs><path class="cls-1" d="M145,184c-18.08,0-19,8.33-19,10v25c0,6.21,11.11,9,19,9s19-2.79,19-9V194C164,190.27,161.53,184,145,184Zm0,8c5.88,0,9.24,1,10.51,1.72C154,194.67,150.26,196,145,196a22,22,0,0,1-10.3-2.16C136.42,193,140.39,192,145,192Zm11,14a31.85,31.85,0,0,1-22,0v-3.81a35.07,35.07,0,0,0,22,0Zm-11,14a24.22,24.22,0,0,1-11-2.32v-3.12a42.73,42.73,0,0,0,22,0v3.12A24.22,24.22,0,0,1,145,220Zm34-83H167V121a31.65,31.65,0,0,0,10-23V50H134c-14.4,0-23,9.34-23,25h0V98a33.49,33.49,0,0,0,10,24v15H109a38,38,0,0,0-38,38.1V199h8V175.1a30.21,30.21,0,0,1,30.16-30.18l15.07.08L144,165.81,163.78,145l15-.07A30.22,30.22,0,0,1,209,175.1V199h8V175.1A38,38,0,0,0,179,137ZM134,58h34.8c-1.43,13-9.86,13-12.8,13H119.24C120.35,62.37,125.3,58,134,58ZM118.88,98.37,119,79h37a20.3,20.3,0,0,0,13.06-4.18l.06,23.12A25.41,25.41,0,0,1,144,123C130.17,123,118.88,112,118.88,98.37ZM144,154.19,129,138.4v-11A33.45,33.45,0,0,0,144,131a32.26,32.26,0,0,0,15-3.73V138.4ZM195,232h-6V181a9,9,0,0,0-9-9H109a9,9,0,0,0-9,9v51H86v4l8,4H195l8-4v-4Zm-87,0V181a1,1,0,0,1,1-1h71a1,1,0,0,1,1,1v51Z"/></svg>