<?xml version="1.0" encoding="utf-8"?>
<!-- Generator: Adobe Illustrator 24.0.3, SVG Export Plug-In . SVG Version: 6.00 Build 0)  -->
<svg version="1.1" id="ART" xmlns="http://www.w3.org/2000/svg" xmlns:xlink="http://www.w3.org/1999/xlink" x="0px" y="0px"
	 viewBox="0 0 288 288" style="enable-background:new 0 0 288 288;" xml:space="preserve">
<style type="text/css">
	.st0{fill:#312D2A;}
</style>
<path class="st0" d="M231,86H124.8L114,71.52c-1.7-2.28-4.37-3.63-7.22-3.63H57c-4.97,0-9,4.03-9,9v143.22h192V95
	C240,90.03,235.97,86,231,86z M57,75.89h49.82c0.32,0,0.61,0.15,0.8,0.41L117.83,90l-10.2,13.57c-0.19,0.25-0.48,0.4-0.79,0.4H56
	V76.89C56,76.34,56.45,75.89,57,75.89z M232,212.11H56V112h50.84c2.83,0,5.49-1.33,7.19-3.59L124.86,94H231c0.55,0,1,0.45,1,1
	V212.11z M65,86h37v8H65V86z M85,189h60v-60H85V189z M123,181h-16v-5c0-0.55,0.45-1,1-1h14c0.55,0,1,0.45,1,1V181z M93,137h44v44h-6
	v-5c0-4.97-4.03-9-9-9h-14c-4.97,0-9,4.03-9,9v5h-6V137z M115,164c6.35,0,11.5-5.15,11.5-11.5S121.35,141,115,141
	s-11.5,5.15-11.5,11.5C103.51,158.85,108.65,163.99,115,164z M115,149c1.93,0,3.5,1.57,3.5,3.5s-1.57,3.5-3.5,3.5s-3.5-1.57-3.5-3.5
	S113.07,149,115,149z M151,141h27v8h-27V141z M151,169h12v8h-12V169z M169,169h18v8h-18V169z M151,155h50v8h-50V155z"/>
</svg>
