<?xml version="1.0" encoding="UTF-8"?>
<svg id="ART" xmlns="http://www.w3.org/2000/svg" version="1.1" viewBox="0 0 288 288">
  <!-- Generator: Adobe Illustrator 29.5.0, SVG Export Plug-In . SVG Version: 2.1.0 Build 137)  -->
  <defs>
    <style>
      .st0 {
        fill: #fcfbfa;
      }
    </style>
  </defs>
  <path class="st0" d="M157,236.2l1.3,7.9c-4.8.8-9.7,1.2-14.5,1.2s-1.1,0-1.6,0v-8c5.1,0,10-.3,14.9-1ZM76.9,217c3.8,3.9,7.9,7.4,12.2,10.6l4.7-6.5c-4-2.9-7.7-6.1-11.2-9.7l-5.7,5.6ZM95.9,232c4.6,2.8,9.5,5.1,14.6,7.1l2.8-7.5c-4.6-1.8-9.1-3.9-13.3-6.4l-4.1,6.9ZM120.3,234l-2.2,7.7c2.6.7,5.2,1.4,7.8,1.9,2.7.5,5.4.9,8,1.2l.8-8c-2.4-.3-4.9-.6-7.3-1.1-2.4-.5-4.8-1-7.2-1.7ZM164.2,234.7l1.9,7.8c5.2-1.3,10.4-3.1,15.3-5.3l-3.3-7.3c-4.5,2-9.2,3.6-14,4.8ZM69.4,193.7l-7,3.9c2.6,4.7,5.7,9.2,9.1,13.4l6.2-5.1c-3.1-3.8-5.9-7.9-8.3-12.2ZM62.9,178.8c-.3-.8-.5-1.6-.8-2.4-.2-.6-.3-1.1-.5-1.7-1.7-6.3-2.7-12.7-3-19.2l11.5,11.5,5.7-5.7-20.8-20.8-20.8,20.8,5.7,5.7,10.9-10.9c.3,6.4,1.2,12.7,2.8,18.9h0c.2.6.3,1.2.5,1.8.2.6.3,1.2.5,1.8.3.8.5,1.7.8,2.5.1.4.3.9.4,1.3h0c.9,2.6,1.9,5.2,3.1,7.8l7.3-3.3c-1.2-2.7-2.3-5.5-3.2-8.3ZM36.1,103.8c0-15.1,12.3-27.5,27.5-27.5s27.5,12.3,27.5,27.5-12.3,27.5-27.5,27.5-27.5-12.3-27.5-27.5ZM44.1,103.8c0,10.7,8.7,19.5,19.5,19.5s19.5-8.7,19.5-19.5-8.7-19.5-19.5-19.5-19.5,8.7-19.5,19.5ZM91.5,85.5c13.4-10.5,29.9-17.1,48-18.1.8-2.8,1.8-5.5,3.1-8.1-21.2.3-40.7,7.8-56.3,20.1,2,1.8,3.7,3.9,5.2,6.1ZM219.4,97.9c-1.3,2.6-2.9,5-4.7,7.3,7.8,11.7,12.7,25.3,13.9,40.1l-10.9-10.9-5.7,5.7,20.8,20.8,20.8-20.8-5.7-5.7-11.4,11.4c-1.2-17.8-7.5-34.2-17.3-47.9ZM250,199.7c0,15.1-12.3,27.5-27.5,27.5s-27.5-12.3-27.5-27.5,12.3-27.5,27.5-27.5,27.5,12.3,27.5,27.5ZM242,199.7c0-10.7-8.7-19.5-19.5-19.5s-19.5,8.7-19.5,19.5,8.7,19.5,19.5,19.5,19.5-8.7,19.5-19.5ZM76,100.8l-5.6-5.7-9.3,9.2-4.4-4.4-5.6,5.7,10.1,10,14.9-14.8ZM186,179.2c0,10.7-27,13.6-41.3,13.6s-40.7-2.8-40.7-13.6v-63.1c0-12.2,33.9-12.8,40.7-12.8s.7,0,1.1,0c2.2,3.1,4.7,5.8,7.6,8.2-2.7-.2-5.6-.2-8.7-.2-18,0-29.1,3-32.2,5,3.4,2,14.5,4.9,32.2,4.9s16.9-.8,22.4-1.9c4.3,1.5,9,2.3,13.9,2.3s3.4-.1,5-.3v57.9ZM177.8,157.5c0,0-.2.4-.2.8h.4v-13.5c-10.5,4.3-28.5,4.6-33.3,4.6s-22.1-.3-32.7-4.4v12.8c2.6,2,13.9,5.2,32.7,5.2s31.7-3.7,33.1-5.6ZM112,124.8v11.4c2.6,2,13.9,5.2,32.7,5.2s31.7-3.7,33.1-5.6c0,0-.2.4-.2.8h.4v-12.1c-10.5,4.3-28.5,4.6-33.3,4.6s-22.1-.3-32.7-4.4ZM178,178.7v-12.1c-10.5,4.3-28.5,4.6-33.3,4.6s-22.1-.3-32.7-4.4v11.9c2,2,13.2,6.1,32.7,6.1s31-3.9,33.3-6.1ZM228.2,189.4l-5.2,5.2-5.2-5.2-5.7,5.7,5.2,5.2-5.2,5.2,5.7,5.7,5.2-5.2,5.2,5.2,5.7-5.7-5.2-5.2,5.2-5.2-5.7-5.7ZM195.6,219.5c-3.4,2.6-7,5-10.7,7.1l3.9,7c4.3-2.4,8.4-5.2,12.3-8.2-2.1-1.7-3.9-3.7-5.5-5.9Z"/>
  <g>
    <path class="st0" d="M229.8,82.2l-5.9,6.1-1-1-3.7-3.6-1.9-1.9c-1.5,18.6-17.1,33.2-36,33.2s-24.1-6.7-30.5-16.8l6.2-6.2c4.7,8.7,13.8,14.6,24.3,14.6s25.2-10.1,27.3-23.4l-5.3,5-.7-.7-5.2-5.5,10.6-10,3.5-3.3,1.7-1.6.6-.5,2.2,2.1,2.4,2.4.4.4,4.9,4.7,6.2,6Z"/>
    <path class="st0" d="M211.7,59.5l-1.5,1.6-1.5,1.6-3.1,3.2c-4.7-8.7-13.8-14.6-24.4-14.6s-25.1,10-27.2,23.1l5.2-5,1.1,1.2,4.8,4.9-10.6,10.3-3.4,3.3-1.7,1.6-.4.4-2.5-2.3-2.3-2.2-.5-.5-4.9-4.6-6.2-5.9,5.8-6.2,1.1,1,3.7,3.5,2,1.8c1.5-18.5,17.1-33.1,36-33.1s24.1,6.7,30.5,16.8Z"/>
    <g>
      <path class="st0" d="M162.8,91.1l8.6-23.2h6.2l8.6,23.2h-7.1l-1.2-4h-7.2l-1.1,4h-6.8ZM172.2,82.2h4.4l-2.2-7.6-2.2,7.6Z"/>
      <path class="st0" d="M188.4,91.1v-23.2h6.4v23.2h-6.4Z"/>
    </g>
  </g>
</svg>