<?xml version="1.0" encoding="utf-8"?>
<!-- Generator: Adobe Illustrator 24.0.3, SVG Export Plug-In . SVG Version: 6.00 Build 0)  -->
<svg version="1.1" id="ART" xmlns="http://www.w3.org/2000/svg" xmlns:xlink="http://www.w3.org/1999/xlink" x="0px" y="0px"
	 viewBox="0 0 288 288" style="enable-background:new 0 0 288 288;" xml:space="preserve">
<style type="text/css">
	.st0{fill:#FCFBFA;}
</style>
<path class="st0" d="M217,192H75v-10h-8v18h158v-18h-8V192z M75,84.1c0-0.6,0.5-1.1,1.1-1.1h39.2c0.3,0,0.7,0.2,0.9,0.4L126.8,97
	h89.2c0.6,0,1.1,0.5,1.1,1.1v0v7.9h8v-7.9c0-5-4.1-9.1-9.1-9.1h-85.3l-8.2-10.5c-1.7-2.2-4.4-3.5-7.2-3.5H76.1c-5,0-9.1,4.1-9.1,9.1
	V106h8V84.1z M144.8,110h-4v0.2c-18.6,2.2-32,19.1-29.8,37.8s19.1,32,37.8,29.8c15.6-1.8,27.9-14.2,29.8-29.8h0.2v-8h-0.2
	c-1.9-15.6-14.2-27.9-29.8-29.8V110H144.8z M140.8,118.3v24l-17,17c-8.5-11.6-5.9-27.9,5.7-36.3
	C132.8,120.6,136.7,118.9,140.8,118.3z M144.8,170c-5.5,0-10.9-1.7-15.3-5l17-17h24C168.4,160.7,157.6,170,144.8,170z M170.4,140
	h-21.7v-21.7C159.9,120.1,168.7,128.8,170.4,140z M101,112H37v64h64V112z M93,168h-6v-38h-8v38h-6v-28h-8v28h-6v-18h-8v18h-6v-48h48
	V168z M187,112v64h64v-64H187z M243,120v13.1l-16.8,16.8l-16-16L195,149.1V120H243z M195,168v-7.6l15.2-15.2l16,16l16.8-16.8V168
	H195z"/>
</svg>
