<svg id="ART" xmlns="http://www.w3.org/2000/svg" viewBox="0 0 288 288"><defs><style>.cls-1{fill:#fcfbfa;}</style></defs><path class="cls-1" d="M239.83,144.19l-18.15-2.82L206,109.12a9,9,0,0,0-8.08-5.05H178V97.93A7,7,0,0,0,171,91H52a7,7,0,0,0-7,6.93V183a7,7,0,0,0,7,7H78.53a16,16,0,0,0,30.94,0h84.06a16,16,0,0,0,30.94,0H240a7,7,0,0,0,7-7V153A9,9,0,0,0,239.83,144.19ZM94,194a8,8,0,1,1,8-8A8,8,0,0,1,94,194Zm115,0a8,8,0,1,1,8-8A8,8,0,0,1,209,194Zm15.47-12a16,16,0,0,0-30.94,0H109.47a16,16,0,0,0-30.94,0H53V165H228v-8H53V98.93H170V112h27.88a1.07,1.07,0,0,1,.89.63l17.55,36,22,3.41a1,1,0,0,1,.73,1v4h-5v12h5v13Zm-30-63.93H170V150h32.38a5,5,0,0,0,4.48-7.24ZM178,142V126h11.57l8,16Zm-67-18h6.83v8H111v6.83h-8V132H96.17v-8H103v-6.83h8Zm-4-20a24,24,0,1,0,24,24A24,24,0,0,0,107,104Zm0,40a16,16,0,1,1,16-16A16,16,0,0,1,107,144Zm49-41h8v8h-8Zm-14,0h8v8h-8Zm-83,0h8v8H59Z"/></svg>