<?xml version="1.0" encoding="utf-8"?>
<!-- Generator: Adobe Illustrator 24.0.3, SVG Export Plug-In . SVG Version: 6.00 Build 0)  -->
<svg version="1.1" id="icon_art" xmlns="http://www.w3.org/2000/svg" xmlns:xlink="http://www.w3.org/1999/xlink" x="0px" y="0px"
	 viewBox="0 0 288 288" style="enable-background:new 0 0 288 288;" xml:space="preserve">
<style type="text/css">
	.st0{fill:#FCFBFA;}
</style>
<title>RMIL_Business_Billing_Pound_Air_RGB-01-01</title>
<path class="st0" d="M141.7,166v-9H153v-8h-11.3v-6.8c0-4,3.3-7.2,7.3-7.2c2.2,0,4.3,1,5.6,2.7l6.2-5c-5.3-6.6-14.9-7.6-21.4-2.3
	c-3.6,2.9-5.7,7.3-5.7,11.9v6.7H125v8h8.7v9c0.1,6-4.6,10.9-10.6,11c-0.1,0-0.1,0-0.2,0v8h40v-8h-24.8
	C140.5,173.8,141.7,169.9,141.7,166z M93,101h47v8H93V101z M93,81h69v8H93V81z M181.7,48H74v181h140V80.3L181.7,48z M181,58.7
	L203.3,81H181V58.7z M82,221V56h91v33h33v132H82z M74,235v4l8,4h124l8-4v-4H74z"/>
</svg>
