<?xml version="1.0" encoding="utf-8"?>
<!-- Generator: Adobe Illustrator 24.0.3, SVG Export Plug-In . SVG Version: 6.00 Build 0)  -->
<svg version="1.1" id="ART" xmlns="http://www.w3.org/2000/svg" xmlns:xlink="http://www.w3.org/1999/xlink" x="0px" y="0px"
	 viewBox="0 0 288 288" style="enable-background:new 0 0 288 288;" xml:space="preserve">
<style type="text/css">
	.st0{fill:#312D2A;}
</style>
<path class="st0" d="M49,68v152h190V68H49z M231,212H57v-49.3l23.1-23.1l13.8,12.9l28.1-27.7V145h8v-34H96.1v8h20.2l-22.7,22.3
	l-13.8-12.9L57,151.3V76h174V212z M161,181h-25v25h25V181z M153,198h-9v-9h9V198z M168,206h25v-25h-25V206z M176,189h9v9h-9V189z
	 M200,206h25v-25h-25V206z M208,189h9v9h-9V189z M225,163.4V82h-89v93h89V163.4z M217,90v57.1c-3.4-2.7-7.7-4.1-12-4.1h-10v-5.4
	c3.8-3.8,6-9,6-14.4V94h-26c-9.2,0-15,6.1-15,16v14c0,5.3,2.2,10.3,6,14v5h-9c-4.7,0-9.3,1.6-13,4.5V90H217z M187,114
	c2.1,0,4.1-0.4,6-1.2v10.4c0,6.8-5.5,12.4-12.4,12.6c-7,0-12.6-5.3-12.6-11.8v-10H187z M168.6,106c1.4-4,4.9-4,6.4-4h17.6
	c-0.6,2.5-3,4.2-5.6,4H168.6z M174,142.7c2.1,0.7,4.4,1.1,6.6,1.1c2.2,0,4.3-0.4,6.4-1.1v2.8l-6.4,7.1l-6.6-7.2V142.7z M217,167h-73
	v-3.6c0-6.6,6.1-12.4,13-12.4h11.3l12.4,13.4l12.2-13.5H205c6.7,0.1,12.1,5.7,12,12.4V167z"/>
</svg>
