<?xml version="1.0" encoding="utf-8"?>
<!-- Generator: Adobe Illustrator 24.0.3, SVG Export Plug-In . SVG Version: 6.00 Build 0)  -->
<svg version="1.1" id="ART" xmlns="http://www.w3.org/2000/svg" xmlns:xlink="http://www.w3.org/1999/xlink" x="0px" y="0px"
	 viewBox="0 0 288 288" style="enable-background:new 0 0 288 288;" xml:space="preserve">
<style type="text/css">
	.st0{fill:#312D2A;}
</style>
<path class="st0" d="M51,71.1c0-0.6,0.5-1.1,1.1-1.1h39.2c0.3,0,0.7,0.2,0.9,0.4L102.8,84h81c2.2-3,4.7-5.7,7.6-8h-84.7l-8.2-10.5
	c-1.7-2.2-4.4-3.5-7.2-3.5H52.1c-5,0-9.1,4.1-9.1,9.1V190h18v-8H51V71.1z M225,148.2V213H75V108h101c0-1.3,0.1-2.7,0.2-4
	s0.3-2.7,0.6-4H67v121h166v-75.3c-1.3,0.6-2.6,1.1-4,1.5C227.7,147.6,226.4,148,225,148.2z M94,180.9l29.6,11.2l30.4-11.2v-40
	l-30.4-11.2L94,141V180.9z M102,149.7l17,7v25.1l-17-6.4V149.7z M127,182.4v-25.1l19-7.9v26L127,182.4z M123.7,138.3l14.9,5.5
	l-15,6.2l-14.8-6.1L123.7,138.3z M239,135.2L239,135.2l-0.4,0.3L239,135.2z M217,73c-19.3,0-35,15.7-35,35s15.7,35,35,35
	s35-15.7,35-35S236.3,73,217,73z M217,135c-14.9,0-27-12.1-27-27s12.1-27,27-27s27,12.1,27,27S231.9,135,217,135z M212.2,111.7
	l-6.4-6.4l-5.7,5.6l12,12l21.6-21.6l-5.7-5.7L212.2,111.7z M165,142h16v8h-16V142z M165,156h48v8h-48V156z M165,170h36v8h-36V170z"
	/>
</svg>
