<?xml version="1.0" encoding="utf-8"?>
<!-- Generator: Adobe Illustrator 24.0.3, SVG Export Plug-In . SVG Version: 6.00 Build 0)  -->
<svg version="1.1" id="ART" xmlns="http://www.w3.org/2000/svg" xmlns:xlink="http://www.w3.org/1999/xlink" x="0px" y="0px"
	 viewBox="0 0 288 288" style="enable-background:new 0 0 288 288;" xml:space="preserve">
<style type="text/css">
	.st0{fill:#FCFBFA;}
</style>
<path class="st0" d="M224,173H85v-17.8l11.3-11.3c6.3,2.9,13.7,0.1,16.5-6.2c2.9-6.3,0.1-13.7-6.2-16.5c-6.3-2.9-13.7-0.1-16.5,6.2
	c-1.6,3.5-1.5,7.6,0.3,11.1L77,151.8V173H64l-8,4v4h14v32h148v-32h14v-4L224,173z M101.5,128c2.5,0,4.5,2,4.5,4.5s-2,4.5-4.5,4.5
	s-4.5-2-4.5-4.5C97,130,99,128,101.5,128z M210,205H78v-24h132V205z M131.5,140.5c-14.6,0-26.5,11.9-26.5,26.5h8
	c0-10.2,8.3-18.5,18.5-18.5h13.7l16.7,17.7l16.7-17.7h12.9c10.2,0,18.5,8.3,18.5,18.5h8c0-14.6-11.9-26.5-26.5-26.5H181V130
	c5.1-5,8-11.9,8-19V72h-35c-11.8,0-18.9,7.8-19,20.8l0,0v18.5c0,7.1,2.9,13.9,7.9,18.8v10.3L131.5,140.5z M154,80h26.7
	c-1.3,9-7.1,9-9.1,9h-28.3C144.4,83.1,147.9,80,154,80z M171.6,97c3.3,0.1,6.6-0.8,9.4-2.5v16.6c-0.1,10.4-8.6,18.9-19,19
	c-10.4,0.1-18.9-8.2-19-18.6V97H171.6z M162,138c3.8,0,7.5-0.8,11-2.4v7.2l-11.1,11.8L151,142.9v-7.3C154.4,137.2,158.2,138,162,138
	z"/>
</svg>
