<?xml version="1.0" encoding="utf-8"?>
<!-- Generator: Adobe Illustrator 24.0.3, SVG Export Plug-In . SVG Version: 6.00 Build 0)  -->
<svg version="1.1" id="ART" xmlns="http://www.w3.org/2000/svg" xmlns:xlink="http://www.w3.org/1999/xlink" x="0px" y="0px"
	 viewBox="0 0 288 288" style="enable-background:new 0 0 288 288;" xml:space="preserve">
<style type="text/css">
	.st0{fill:#FCFBFA;}
</style>
<path class="st0" d="M186.6,55H98v79h8V63h71v31h31v102h-65v8h73V84.4L186.6,55z M185,64.7L206.3,86H185V64.7z M127,140H81
	c-5,0-9,4-9,9v80c0,5,4,9,9,9h46c5,0,9-4,9-9v-80C136,144,132,140,127,140z M128,229c0,0.6-0.4,1-1,1H81c-0.6,0-1-0.4-1-1v-80
	c0-0.6,0.4-1,1-1h46c0.6,0,1,0.4,1,1V229z M86,154h36v14H86V154z M166,134v5.9h-1c-6.1,0.1-10.9,5-11,11.1c0,6,5,10.9,11,10.9h10
	c1.7,0,3,1.3,3,3s-1.3,3-3,3h-19v8h10v6h8v-6h1c6.1,0,11-4.9,11-11s-4.9-11-11-11l0,0h-10c-1.6,0-3-1.3-3-2.9c0-1.7,1.3-3,3-3.1h19
	v-8h-10V134H166z M118,107h48v8h-48V107z M118,93h38v8h-38V93z M86,174h8v8h-8V174z M100,174h8v8h-8V174z M114,174h8v8h-8V174z
	 M86,188h8v8h-8V188z M100,188h8v8h-8V188z M114,188h8v8h-8V188z M86,202h8v8h-8V202z M100,202h8v8h-8V202z M86,216h8v8h-8V216z
	 M100,216h8v8h-8V216z M114,202h8v22h-8V202z"/>
</svg>
