<?xml version="1.0" encoding="utf-8"?>
<!-- Generator: Adobe Illustrator 24.0.3, SVG Export Plug-In . SVG Version: 6.00 Build 0)  -->
<svg version="1.1" id="ART" xmlns="http://www.w3.org/2000/svg" xmlns:xlink="http://www.w3.org/1999/xlink" x="0px" y="0px"
	 viewBox="0 0 288 288" style="enable-background:new 0 0 288 288;" xml:space="preserve">
<style type="text/css">
	.st0{fill:#FCFBFA;}
</style>
<path class="st0" d="M212,48v23.85h-8V56H84v15.85h-8V48H212z M204,232H84v-16h-8v24h136v-24h-8V232z M139.88,143.93
	c0.01-5.44-2.15-10.66-6-14.51l-18.22-18.12c-0.81-0.8-1.26-1.89-1.26-3.02c0-2.36,1.9-4.27,4.26-4.28h50.66
	c1.15,0,2.26,0.46,3.06,1.28c1.65,1.68,1.62,4.39-0.06,6.04l-18.42,18.12c-3.84,3.84-6,9.06-6,14.49H139.88z M139.51,123.76
	c1.69,1.69,3.17,3.58,4.39,5.63c1.22-2.05,2.69-3.94,4.38-5.62L160.23,112h-32.54L139.51,123.76z M124.37,148.69
	c2.58-2.58,2.57-6.77-0.01-9.35l-21.53-21.52c-8.24-8.21-12.86-19.37-12.83-31V62h108v24.77c0.03,11.63-4.59,22.79-12.83,31
	l-21.53,21.52c0,0-0.01,0.01-0.01,0.01c-2.58,2.58-2.57,6.77,0.01,9.35l21.53,21.53c8.25,8.2,12.87,19.37,12.83,31V226H90v-24.79
	c-0.04-11.63,4.58-22.8,12.83-31l21.53-21.51C124.36,148.7,124.37,148.69,124.37,148.69z M130,154.33l-21.51,21.53
	c-6.74,6.7-10.52,15.82-10.49,25.32V218h92v-16.82c0.03-9.5-3.74-18.62-10.48-25.32L158,154.33c-0.01-0.01-0.03-0.03-0.04-0.04
	c-5.68-5.71-5.66-14.94,0.04-20.62l21.51-21.53c6.74-6.7,10.52-15.82,10.49-25.32V70H98v16.82c-0.03,9.5,3.74,18.62,10.48,25.32
	L130,133.67c0.01,0.01,0.03,0.03,0.04,0.04C135.72,139.42,135.71,148.65,130,154.33z M104,212h8c0-7.19,3.9-13.81,10.18-17.3
	L144,182.58l21.82,12.12C172.1,198.19,176,204.81,176,212h8c0-10.1-5.48-19.4-14.3-24.3l-22.11-12.28c-2.23-1.25-4.95-1.25-7.18,0
	L118.3,187.7C109.48,192.6,104,201.9,104,212z M140,158h8v-8h-8V158z"/>
</svg>
