<svg id="icon_art" data-name="icon art" xmlns="http://www.w3.org/2000/svg" viewBox="0 0 288 288"><defs><style>.cls-1{fill:#fcfbfa;}</style></defs><title>RMIL_Technology</title><path class="cls-1" d="M171.48,175l.05,8H97a9,9,0,0,1-9-9V80a9,9,0,0,1,9-9h94a9,9,0,0,1,9,9v80.45l-5.67-5.29a13.46,13.46,0,0,0-2.33-1.74V80a1,1,0,0,0-1-1H97a1,1,0,0,0-1,1v94a1,1,0,0,0,1,1Zm57.07,26.27a9.11,9.11,0,0,1-8.53,5.84h-.1l-3,0L226,228l-22.52,10L194.35,217l-2.18,2.43a9.09,9.09,0,0,1-10.1,2.44,9.2,9.2,0,0,1-5.92-8.59l-.28-48a9.13,9.13,0,0,1,5.49-8.52,9,9,0,0,1,9.95,1.68l34.95,32.63A9.21,9.21,0,0,1,228.55,201.27ZM220.81,197l-34.95-32.63a1.17,1.17,0,0,0-2,.87l.29,48a1.1,1.1,0,0,0,.75,1.1,1.09,1.09,0,0,0,1.28-.31l10.49-11.69,10.9,24.93,7.84-3.47-10.91-25L220,199a1.18,1.18,0,0,0,.81-2ZM180,103H108v8h72Zm0,20H108v8h72Zm-72,28h72v-8H108Z"/></svg>