<svg id="ART" xmlns="http://www.w3.org/2000/svg" viewBox="0 0 288 288"><defs><style>.cls-1{fill:#fcfbfa;}</style></defs><path class="cls-1" d="M144,233a89,89,0,1,1,89-89A89.09,89.09,0,0,1,144,233Zm0-170a81,81,0,1,0,81,81A81.1,81.1,0,0,0,144,63Zm1.25,156.1-4.34-.18a75,75,0,1,1,78-78l.18,4.34-4.34-.18c-.91,0-1.83-.07-2.76-.07a67.08,67.08,0,0,0-67,67c0,.93,0,1.85.07,2.76ZM144,77a67,67,0,0,0-7,133.62A75.1,75.1,0,0,1,210.62,137,67.1,67.1,0,0,0,144,77Zm39,58H105V99h78Zm-70-8h62V107H113Zm14-14h-8v8h8Zm14,0h-8v8h8Zm46,64h-8v8h8Zm-32-64h-8v8h8Zm14,0h-8v8h8Zm27.76,84H169.59l-1.2-1.36a19.68,19.68,0,1,1,29.57,0Zm-23.38-8H193a11.68,11.68,0,1,0-19.6,0Z"/></svg>