<?xml version="1.0" encoding="utf-8"?>
<!-- Generator: Adobe Illustrator 24.0.3, SVG Export Plug-In . SVG Version: 6.00 Build 0)  -->
<svg version="1.1" id="ART" xmlns="http://www.w3.org/2000/svg" xmlns:xlink="http://www.w3.org/1999/xlink" x="0px" y="0px"
	 viewBox="0 0 288 288" style="enable-background:new 0 0 288 288;" xml:space="preserve">
<style type="text/css">
	.st0{fill:#312D2A;}
</style>
<path class="st0" d="M231,85.9H124.8L114,71.6c-1.7-2.3-4.3-3.6-7.2-3.6H57c-5,0-9,4-9,9v134c0,5,4,9,9,9h174c5,0,9-4,9-9V94.9
	C240,89.9,236,85.9,231,85.9z M57,76h49.8c0.3,0,0.6,0.2,0.8,0.4l10.2,13.5l-10.2,13.6c-0.2,0.2-0.5,0.4-0.8,0.4H56V77
	C56,76.4,56.4,76,57,76z M160.2,143.8c4.4,0.4,8.8-0.8,12.4-3.4c3.2,2.2,6.9,3.4,10.8,3.4c0.5,0,1.1,0,1.6-0.1v3.8
	c0,7.4-5.5,13.5-12.3,13.5s-12.3-6-12.3-13.5v-3.7H160.2z M168.6,168.6c2.6,0.5,5.3,0.5,7.9,0v9.2c-0.3,2.2-2.3,3.7-4.5,3.4
	c-1.8-0.3-3.1-1.6-3.4-3.4V168.6z M192.4,165.6c-1.8,3-4.6,5.2-7.9,6.3v-7c2.5-1.9,4.5-4.4,5.9-7.2L192.4,165.6z M184.8,135.8
	c-2.4,0.3-5.9,0-9.6-3.4l-2.7-2.4l-2.7,2.4c-3.7,3.4-7.2,3.7-9.6,3.4c0-0.2,0-0.3,0-0.5l0.5-2.1l0,0c1.1-3.2,4-5.3,7.4-5.4h8.6
	C181,127.7,184.4,131.3,184.8,135.8z M160.6,164.9v7c-3.3-1.1-6-3.3-7.8-6.2l1.9-7.8C156.1,160.6,158.1,163,160.6,164.9z M158,180.3
	h2.8c1.5,6.5,8,10.4,14.4,8.9c4.4-1,7.9-4.5,8.9-8.9h3.3c7.4,0,13.5,6,13.5,13.5v4.2h-45.8c-1.4-4.7-4.4-8.8-8.4-11.6
	C149.2,182.6,153.5,180.3,158,180.3z M103.2,154c4.4,0.4,8.8-0.8,12.4-3.4c3.2,2.2,6.9,3.4,10.8,3.4c0.5,0,1.1,0,1.6-0.1v3.8
	c0,7.4-5.5,13.5-12.3,13.5s-12.3-6.1-12.3-13.5V154H103.2z M111.5,178.8c2.6,0.6,5.3,0.6,7.9,0v9.2c0.3,2.2-1.2,4.2-3.4,4.5
	c-2.2,0.3-4.2-1.2-4.5-3.4c-0.1-0.4-0.1-0.8,0-1.1V178.8z M135.4,175.8c-1.8,3-4.6,5.2-7.9,6.2v-7c2.5-1.9,4.5-4.4,5.9-7.1
	L135.4,175.8z M127.8,146c-2.4,0.3-5.9,0-9.6-3.4l-2.7-2.5l-2.7,2.5c-3.7,3.4-7.2,3.7-9.6,3.4c0-0.2,0-0.3,0.1-0.5l0.5-2.1l0,0
	c1.1-3.2,4-5.3,7.4-5.4h8.7C124,138,127.4,141.5,127.8,146z M103.5,175.1v7c-3.3-1.1-6-3.3-7.8-6.2l1.9-7.8
	C99.1,170.8,101.1,173.2,103.5,175.1L103.5,175.1z M96.5,190.6h7.3c1.5,6.5,8,10.4,14.4,8.9c4.4-1,7.9-4.5,8.9-8.9h7.4
	c7.4,0,13.5,6,13.5,13.5v7.9H83v-7.9C83,196.6,89,190.6,96.5,190.6z M232,211c0,0.6-0.4,1-1,1h-74.9v-6h70v-4l-8-4h-9v-4.2
	c0-8.7-5.2-16.5-13.2-19.8c1.7-1.7,3.1-3.7,4.3-5.8l0.8-1.4l-8.9-35.6H192c-2-6.7-8.2-11.4-15.2-11.5h-8.6c-7.9,0-14.4,6-15.8,13.9
	l-8.3,33.2l0.8,1.4c1.2,2.2,2.7,4.2,4.4,5.9c-2.2,1-4.2,2.3-6,4l0.6-1l-8.9-35.6l0,0c-2-6.8-8.2-11.4-15.2-11.5h-8.7
	c-7.9,0-14.4,6-15.8,13.9L87,177.1l0.8,1.4c1,1.7,2.1,3.3,3.4,4.7c-7.4,1.8-13.3,7.5-15.4,14.8H70l-8,4v4h13v6H57c-0.6,0-1-0.4-1-1
	v-99.1h50.8c2.8,0,5.5-1.3,7.2-3.6l10.8-14.4H231c0.6,0,1,0.4,1,1V211z M65,85.9h37v8H65V85.9z"/>
</svg>
