<?xml version="1.0" encoding="utf-8"?>
<!-- Generator: Adobe Illustrator 24.0.3, SVG Export Plug-In . SVG Version: 6.00 Build 0)  -->
<svg version="1.1" id="ART" xmlns="http://www.w3.org/2000/svg" xmlns:xlink="http://www.w3.org/1999/xlink" x="0px" y="0px"
	 viewBox="0 0 288 288" style="enable-background:new 0 0 288 288;" xml:space="preserve">
<style type="text/css">
	.st0{fill:#312D2A;}
</style>
<path class="st0" d="M150.5,155c19.4,0,36.2-12.3,41.7-30.5c1.7-5.6,2.2-11.5,1.6-17.3L187.1,48H101l-6.7,59.2
	c-0.7,5.8-0.1,11.7,1.6,17.3c5.5,18.3,22.2,30.5,41.7,30.5h2.4v77h-28l-8,4v4h80v-4l-8-4h-28v-77H150.5z M103.5,122.2
	c-1.4-4.6-1.8-9.4-1.3-14.2l5.9-52h71.8l5.9,52c0.5,4.7,0.1,9.6-1.3,14.1c-4.5,14.9-18.1,24.9-34,24.9h-13
	C121.6,147,108,137,103.5,122.2L103.5,122.2z M178.8,120.4c1.1-3.8,1.5-7.9,1.1-11.9l-0.4-3.6h-70.9l-0.4,3.6c-0.4,4-0.1,8,1.1,11.9
	c3.7,12.3,15.1,20.6,28.3,20.6h13C163.7,141,175.1,132.7,178.8,120.4z M116.9,118.1c-0.5-1.7-0.8-3.4-0.9-5.1h56
	c-0.1,1.7-0.4,3.5-0.9,5.1c-2.7,9-10.8,14.9-20.6,14.9h-13C127.7,133,119.6,127.2,116.9,118.1z"/>
</svg>
