<?xml version="1.0" encoding="utf-8"?>
<!-- Generator: Adobe Illustrator 24.0.3, SVG Export Plug-In . SVG Version: 6.00 Build 0)  -->
<svg version="1.1" id="ART" xmlns="http://www.w3.org/2000/svg" xmlns:xlink="http://www.w3.org/1999/xlink" x="0px" y="0px"
	 viewBox="0 0 288 288" style="enable-background:new 0 0 288 288;" xml:space="preserve">
<style type="text/css">
	.st0{fill:#FCFBFA;}
</style>
<path class="st0" d="M233,72H55c-7.7,0-14,6.3-14,14v116c0,7.7,6.3,14,14,14h178c7.7,0,14-6.3,14-14V86C247,78.3,240.7,72,233,72z
	 M239,202c0,3.3-2.7,6-6,6H55c-3.3,0-6-2.7-6-6V86c0-3.3,2.7-6,6-6h178c3.3,0,6,2.7,6,6V202z M55,202h164V86H55V202z M63,94h148v100
	H63V94z M225,132h8v24h-8V132z M101,120v48l36,13.5l35-13.5v-47.9l-35-13.5L101,120z M157.5,123l-20.5,8.5l-20.8-8.6l20.8-7.8
	L157.5,123z M109,128.6l24,9.9v32.9l-24-9V128.6z M141,171.3v-32.8l23-9.5v33.5L141,171.3z"/>
</svg>
