<?xml version="1.0" encoding="utf-8"?>
<!-- Generator: Adobe Illustrator 24.0.3, SVG Export Plug-In . SVG Version: 6.00 Build 0)  -->
<svg version="1.1" id="ART" xmlns="http://www.w3.org/2000/svg" xmlns:xlink="http://www.w3.org/1999/xlink" x="0px" y="0px"
	 viewBox="0 0 288 288" style="enable-background:new 0 0 288 288;" xml:space="preserve">
<style type="text/css">
	.st0{fill:#FCFBFA;}
</style>
<path class="st0" d="M105,86v64h78v-50h-28V86H105z M147,142h-34V94h34V142z M175,108v34h-20v-34H175z M119,100h8v8h-8V100z
	 M133,100h8v8h-8V100z M119,114h8v8h-8V114z M133,114h8v8h-8V114z M119,128h8v8h-8V128z M161,114h8v8h-8V114z M161,128h8v8h-8V128z
	 M133,128h8v8h-8V128z M89,176c-19.3,0-35,15.7-35,35s15.7,35,35,35s35-15.7,35-35l0,0C124,191.7,108.3,176,89,176z M89,238
	c-14.9,0-27-12.1-27-27s12.1-27,27-27s27,12.1,27,27l0,0C116,225.9,103.9,238,89,238z M181.7,47H74v125.8c2.6-1,5.3-1.8,8-2.2V55h91
	v33h33v132h-77c-0.6,2.8-1.5,5.4-2.7,8H214V79.3L181.7,47z M181,57.7L203.3,80H181V57.7z M114.6,179H189v-8H98
	C104.1,172.4,109.7,175.1,114.6,179z M159,185h-38.3c2,2.5,3.7,5.1,5.1,8H159V185z M105.8,204.4l-5.7-5.6l0,0l0,0l-12.9,12.9l-3,3
	l-6.4-6.4l0,0l0,0l-5.7,5.7l0,0l0,0l8.2,8.2l3.8,3.8l0,0l0,0L105.8,204.4L105.8,204.4L105.8,204.4z"/>
</svg>
