<svg id="ART" xmlns="http://www.w3.org/2000/svg" viewBox="0 0 288 288"><defs><style>.cls-1{fill:#312d2a;}</style></defs><path class="cls-1" d="M179.51,141.1a41.47,41.47,0,0,0,9.59-11.72l.8-1.39-15-60.34-.18,0C171.43,57.42,162.23,50,151.43,50H136.51c-11,0-20.06,7.3-23.26,17.67l-.06,0L98.18,128l.79,1.39a41.28,41.28,0,0,0,9.59,11.71A33.45,33.45,0,0,0,77,174.74v24.14h8V174.74A25.59,25.59,0,0,1,111,149h14.14c1.12,8.75,9.43,16,18.83,16s17.77-7.29,18.89-16H177a25.59,25.59,0,0,1,26,25.74v24.14h8V174.74A33.44,33.44,0,0,0,179.51,141.1ZM120,95V85.33c6,1.1,14.88.87,24-6.09a30.25,30.25,0,0,0,18.62,6.58,29.23,29.23,0,0,0,5.38-.5V95c0,14.34-10.77,26-24,26S120,109.34,120,95Zm43,45.61V122.34a34.34,34.34,0,0,0,12.26-20.07l6.09,24.5C176.77,134.22,171.31,138.33,163,140.61ZM136.51,58h14.92C160.72,58,168,65.91,168,76v1.15c-4.56,1.14-12.87,1.61-21.3-6.08L144,68.61l-2.7,2.46c-8.42,7.68-16.73,7.22-21.3,6.09V76C120,65.91,127.25,58,136.51,58Zm-23.73,44.43A34.36,34.36,0,0,0,125,122.34v18.25c-8.26-2.28-13.71-6.39-18.28-13.82ZM144,157c-5.64,0-11-4.88-11-10V126.93a30.26,30.26,0,0,0,22,0V147C155,152.16,149.64,157,144,157Zm1,27c-18.08,0-19,8.33-19,10v25c0,6.21,11.11,9,19,9s19-2.79,19-9V194C164,190.27,161.53,184,145,184Zm0,8c5.88,0,9.24,1,10.51,1.72C154,194.67,150.26,196,145,196a22,22,0,0,1-10.3-2.16C136.42,193,140.39,192,145,192Zm11,14a31.85,31.85,0,0,1-22,0v-3.81a35.07,35.07,0,0,0,22,0Zm-11,14a24.22,24.22,0,0,1-11-2.32v-3.12a42.73,42.73,0,0,0,22,0v3.12A24.22,24.22,0,0,1,145,220Zm50,12h-6V181a9,9,0,0,0-9-9H109a9,9,0,0,0-9,9v51H86v4l8,4H195l8-4v-4Zm-87,0V181a1,1,0,0,1,1-1h71a1,1,0,0,1,1,1v51Z"/></svg>