<svg id="ART" xmlns="http://www.w3.org/2000/svg" viewBox="0 0 288 288"><defs><style>.cls-1{fill:#fdfcfb;}</style></defs><title>RMIL_Personas</title><path class="cls-1" d="M179.51,135.1a41.47,41.47,0,0,0,9.59-11.72l.8-1.39-15-60.34-.18.05C171.43,51.42,162.23,44,151.43,44H136.51c-11,0-20.06,7.3-23.26,17.67l-.06,0L98.18,122l.79,1.39a41.28,41.28,0,0,0,9.59,11.71A33.45,33.45,0,0,0,77,168.74V192h8V168.74A25.59,25.59,0,0,1,111,143h14v23h8V151.45a20,20,0,0,0,7,3.1V166h8V154.55a19.41,19.41,0,0,0,7-3.12V166h8V143h14a25.59,25.59,0,0,1,26,25.74V192h8V168.74A33.44,33.44,0,0,0,179.51,135.1ZM120,89V79.33c6,1.09,14.88.86,24-6.09a30.25,30.25,0,0,0,18.62,6.58,29.23,29.23,0,0,0,5.38-.5V89c0,14.34-10.77,26-24,26S120,103.34,120,89Zm43,45.61V116.34a34.34,34.34,0,0,0,12.26-20.07l6.09,24.5C176.77,128.22,171.31,132.33,163,134.61ZM136.51,52h14.92C160.72,52,168,59.91,168,70v1.15c-4.56,1.14-12.87,1.61-21.3-6.08L144,62.61l-2.7,2.46c-8.42,7.68-16.73,7.22-21.3,6.09V70C120,59.91,127.25,52,136.51,52ZM112.78,96.43A34.36,34.36,0,0,0,125,116.34v18.25c-8.26-2.28-13.71-6.39-18.28-13.82ZM144,147c-5.64,0-11-4.88-11-10v-16a30.26,30.26,0,0,0,22,0v16C155,142.12,149.64,147,144,147Zm15.17,65.5a10.51,10.51,0,0,1-10.5,10.5H148v4h-8v-4h-9v-8h17.64a2.5,2.5,0,0,0,0-5h-9.28a10.5,10.5,0,1,1,0-21H140v-4h8v4h9v8H139.36a2.61,2.61,0,0,0-2.5,2.57,2.49,2.49,0,0,0,2.5,2.43h9.28A10.51,10.51,0,0,1,159.14,212.5ZM188,232V181a9,9,0,0,0-9-9H109a9,9,0,0,0-9,9v51H86v4l8,4H194l8-4v-4Zm-80,0V181a1,1,0,0,1,1-1h70a1,1,0,0,1,1,1v51Z"/></svg>