<svg id="icon_art" data-name="icon art" xmlns="http://www.w3.org/2000/svg" viewBox="0 0 288 288"><defs><style>.cls-1{fill:#fcfbfa;}</style></defs><title>RMIL_Technology</title><path class="cls-1" d="M164,144l-31,18V126Zm54,12h8V132h-8Zm22-70V202a14,14,0,0,1-14,14H62a14,14,0,0,1-14-14V86A14,14,0,0,1,62,72H226A14,14,0,0,1,240,86Zm-8,0a6,6,0,0,0-6-6H62a6,6,0,0,0-6,6V202a6,6,0,0,0,6,6H226a6,6,0,0,0,6-6Zm-42,58a46,46,0,1,1-46-46A46.06,46.06,0,0,1,190,144Zm-8,0a38,38,0,1,0-38,38A38,38,0,0,0,182,144Z"/></svg>