<?xml version="1.0" encoding="utf-8"?>
<!-- Generator: Adobe Illustrator 24.0.3, SVG Export Plug-In . SVG Version: 6.00 Build 0)  -->
<svg version="1.1" id="ART" xmlns="http://www.w3.org/2000/svg" xmlns:xlink="http://www.w3.org/1999/xlink" x="0px" y="0px"
	 viewBox="0 0 288 288" style="enable-background:new 0 0 288 288;" xml:space="preserve">
<style type="text/css">
	.st0{fill:#312D2A;}
</style>
<path class="st0" d="M166,132.3l-22,8v-8.2l-20,8V121h-22v61h64V132.3z M158,174h-48v-45h6v22.9l20-8v7.8l22-8V174z M116,160h8v8h-8
	V160z M130,160h8v8h-8V160z M144,160h8v8h-8V160z M212.5,208v-14H155v39h7.1c-0.6,3.3,1.6,6.4,4.8,7c3.3,0.6,6.4-1.6,7-4.8
	c0.1-0.7,0.1-1.5,0-2.2h7.2c-0.6,3.3,1.6,6.4,4.8,7c3.3,0.6,6.4-1.6,7-4.8c0.1-0.7,0.1-1.5,0-2.2h20.2c-0.6,3.3,1.6,6.4,4.8,7
	c3.3,0.6,6.4-1.6,7-4.8c0.1-0.7,0.1-1.5,0-2.2h6.1v-14.3l-8-10.7H212.5z M204.5,224.9H163V202h41.5V224.9L204.5,224.9z M212.5,216
	h6.5l4,5.3v3.7h-10.5V216z M233,146h8v8h-8V146z M205,146h8v8h-8V146z M255,160v-21.3c4.2-2.6,5.6-8.1,3-12.4
	c-0.1-0.2-0.2-0.4-0.3-0.5l-5.5-7.8h-58.1l-5.6,7.8c-2.9,4-2,9.7,2.1,12.6c0.2,0.1,0.3,0.2,0.5,0.3V160l-8,4v4h80v-4L255,160z
	 M194.9,130.4l3.2-4.4h49.9l3.2,4.4c0.2,0.3,0.2,0.7,0.1,1c-0.2,0.3-0.5,0.6-0.9,0.5h-54.6c-0.4,0-0.7-0.2-0.9-0.5
	C194.7,131.1,194.7,130.7,194.9,130.4z M227,160v-14h-8v14h-20v-20h48v20H227z M147.5,126.4c10.8-5.9,23.6-7.1,35.4-3.2
	c0.2-0.3,0.4-0.6,0.6-0.9l4.2-5.9c-14.2-5.4-30.1-4.4-43.5,2.8L147.5,126.4z M221.4,174h-8.1c-0.9,4.9-2.6,9.6-5,14h9
	C219.3,183.5,220.7,178.8,221.4,174z M129.8,188h-9c5.6,12.3,15.7,21.9,28.2,27.1v-8.8C140.9,202.3,134.2,195.9,129.8,188z M51,68.1
	c0-0.6,0.5-1.1,1.1-1.1h39.2c0.3,0,0.7,0.2,0.9,0.4L102.8,81h89.2c0.6,0,1.1,0.5,1.1,1.1v0V112h8V82.1c0-5-4.1-9.1-9.1-9.1h-85.3
	l-8.2-10.5c-1.7-2.2-4.4-3.5-7.2-3.5H52.1c-5,0-9.1,4.1-9.1,9.1V182h53v-8H51V68.1z"/>
</svg>
