<?xml version="1.0" encoding="utf-8"?>
<!-- Generator: Adobe Illustrator 24.0.3, SVG Export Plug-In . SVG Version: 6.00 Build 0)  -->
<svg version="1.1" id="ART" xmlns="http://www.w3.org/2000/svg" xmlns:xlink="http://www.w3.org/1999/xlink" x="0px" y="0px"
	 viewBox="0 0 288 288" style="enable-background:new 0 0 288 288;" xml:space="preserve">
<style type="text/css">
	.st0{fill:#312D2A;}
</style>
<path class="st0" d="M88,100h100v8H88V100z M88,120h100v8H88V120z M88,140h100v8H88V140z M189,160H88v8h93L189,160z M116.9,188H165
	v-8h-55.2C112.5,182.3,114.9,185,116.9,188z M83,176c-19.3,0-35,15.7-35,35s15.7,35,35,35s35-15.7,35-35l0,0
	C118,191.7,102.3,176,83,176z M83,238c-14.9,0-27-12.1-27-27s12.1-27,27-27s27,12.1,27,27l0,0C110,225.9,97.9,238,83,238z
	 M78.2,214.7l-6.4-6.4l-5.7,5.7l12,12l21.6-21.6l-5.7-5.6L78.2,214.7z M76,55h91v33h33v64l8-8V79.3L175.7,47H68v125.9
	c2.6-1,5.3-1.8,8-2.2V55z M197.3,80H175V57.7L197.3,80z M200,220h-77c-0.6,2.8-1.5,5.4-2.7,8H208v-36l-8,8V220z M251.5,140.1
	l9.9-9.9l-15.6-15.6l-9.9,9.9l0,0l-3.3,3.3L171.4,189l-3.3,18.9l18.9-3.3l58.9-58.9l3.5,3.5c0.4,0.4,0.4,1,0,1.4l-24.8,24.8l5.7,5.7
	l24.7-24.8c3.5-3.5,3.5-9.2,0-12.7l0,0L251.5,140.1z M245.8,125.9l4.2,4.2l-4.2,4.2l-4.2-4.2L245.8,125.9z M183.1,197.2l-5.1,0.9
	l0.9-5.1l57.1-57.1l4.2,4.2L183.1,197.2z"/>
</svg>
