<svg id="ART" xmlns="http://www.w3.org/2000/svg" viewBox="0 0 288 288"><defs><style>.cls-1{fill:#312d2a;}</style></defs><path class="cls-1" d="M69.08,147c0-1-.08-2-.08-3a75,75,0,0,1,98-71.38v8.45A67,67,0,0,0,77,144c0,1,0,2,.08,3ZM212,161a38.74,38.74,0,0,1,5,.33,74.63,74.63,0,0,0-.69-37.33H208a67.09,67.09,0,0,1,.86,37Zm-68,50a66.61,66.61,0,0,1-39-12.57V208a75,75,0,0,0,54.16,9.42c-.1-1.14-.16-2.29-.16-3.46a39.7,39.7,0,0,1,.3-4.78A67.08,67.08,0,0,1,144,211Zm58-1h29v4a33,33,0,1,1-33-33h4Zm-29,4a24.87,24.87,0,0,0,4.73,14.61L194,212.34v-23A25,25,0,0,0,173,214Zm26.66,4-16.27,16.27A25,25,0,0,0,222.68,218ZM245,200v4H208V167h4A33,33,0,0,1,245,200Zm-8.32-4A25.06,25.06,0,0,0,216,175.32V196Zm.32-78H173V54h64Zm-8-56H181v48h6V92h8v18h6V82h8v28h6V72h8v38h6ZM35,153H99v64H35Zm56,56V185.16l-17,17-16-16-15,15V209ZM43,161v28.84l15-15,16,16,17-17V161Zm111.38-2.52a12.82,12.82,0,0,1,11.54-12.74c.05-.58.08-1.15.08-1.74a21.91,21.91,0,0,0-6.48-15.57,18.6,18.6,0,0,0,2.95-8A29.94,29.94,0,0,1,174,144a29,29,0,0,1-.24,3.51,12.8,12.8,0,1,1-19.38,11Zm8,0a4.81,4.81,0,1,0,4.81-4.81A4.81,4.81,0,0,0,162.38,158.48Zm-5.76-40.37A12.79,12.79,0,0,1,133,125a22.09,22.09,0,0,0-10.59,14.79c-.53,0-1.07-.08-1.61-.08a18.62,18.62,0,0,0-6.65,1.24,30,30,0,0,1,16.9-24,12.81,12.81,0,0,1,25.56,1.16Zm-8,0a4.81,4.81,0,1,0-4.81,4.81A4.81,4.81,0,0,0,148.62,118.11Zm-15,40.37a12.85,12.85,0,0,1-.8,4.44A21.76,21.76,0,0,0,144,166a22,22,0,0,0,5.66-.74,19,19,0,0,0,4.66,6.91,29.87,29.87,0,0,1-26.52-3,12.81,12.81,0,1,1,5.82-10.73Zm-8,0a4.81,4.81,0,1,0-4.81,4.81A4.81,4.81,0,0,0,125.62,158.48Z"/></svg>