<?xml version="1.0" encoding="utf-8"?>
<!-- Generator: Adobe Illustrator 24.0.3, SVG Export Plug-In . SVG Version: 6.00 Build 0)  -->
<svg version="1.1" id="ART" xmlns="http://www.w3.org/2000/svg" xmlns:xlink="http://www.w3.org/1999/xlink" x="0px" y="0px"
	 viewBox="0 0 288 288" style="enable-background:new 0 0 288 288;" xml:space="preserve">
<style type="text/css">
	.st0{fill:#FCFBFA;}
</style>
<path class="st0" d="M233,72H55c-7.7,0-14,6.3-14,14v116c0,7.7,6.3,14,14,14h178c7.7,0,14-6.3,14-14V86C247,78.3,240.7,72,233,72z
	 M239,202c0,3.3-2.7,6-6,6H55c-3.3,0-6-2.7-6-6V86c0-3.3,2.7-6,6-6h178c3.3,0,6,2.7,6,6V202z M55,202h164V86H55V202z M63,94h148v100
	H63V94z M165,114h20.7l-21.8,22.8L142,115.4L122.7,134h11.6l7.8-7.4l22.1,21.6L191,120v20h8v-34h-34V114z M225,132h8v24h-8V132z
	 M69,188h67v-48H69V188z M77,180v-27.6l25.5,20.8l25.5-23V180H77z M84.2,148h34.4l-16.3,14.7L84.2,148z"/>
</svg>
