<?xml version="1.0" encoding="utf-8"?>
<!-- Generator: Adobe Illustrator 24.0.3, SVG Export Plug-In . SVG Version: 6.00 Build 0)  -->
<svg version="1.1" id="ART" xmlns="http://www.w3.org/2000/svg" xmlns:xlink="http://www.w3.org/1999/xlink" x="0px" y="0px"
	 viewBox="0 0 288 288" style="enable-background:new 0 0 288 288;" xml:space="preserve">
<style type="text/css">
	.st0{fill:#312D2A;}
</style>
<path class="st0" d="M88,100h100v8H88V100z M88,120h100v8H88V120z M88,140h100v8H88V140z M88,160h82v8H88V160z M151,194.8
	c-2.4-3-5.3-6.8-11-6.8c-6.1,0-9.1,4.5-11.3,7.8c-2,3-3,4.2-4.7,4.2c-2,0-2.8-0.7-4.4-2.1c-2-1.7-4.6-4.1-9.6-4.1s-7.7,2.4-9.7,4.1
	c-1.6,1.4-2.3,2.1-4.3,2.1h-8v8h8c5,0,7.7-2.4,9.6-4.1c1.6-1.4,2.4-2.1,4.4-2.1s2.8,0.7,4.3,2.1c2,1.7,4.7,4.1,9.7,4.1
	c6.1,0,9.1-4.5,11.3-7.8c2-3,3-4.2,4.7-4.2s2.5,1,4.7,3.8c2.7,3.5,6.5,8.2,14.4,8.2h2v-8h-2C155.2,200,153.6,198.1,151,194.8z
	 M208,192l-8,8v20H76V55h91v33h33v64l8-8V79.3L175.7,47H68v181h140V192z M197.3,80H175V57.7L197.3,80z M200,234H76l0,0h-8v4l8,4l0,0
	h124l0,0l8-4v-4H200L200,234z M251.5,140.1l9.9-9.9l-15.6-15.6L171.4,189l-3.3,18.9l18.9-3.3l58.9-58.9l3.5,3.5c0.4,0.4,0.4,1,0,1.4
	l-24.8,24.8l5.7,5.7l24.7-24.8c3.5-3.5,3.5-9.2,0-12.7c0,0,0,0,0,0L251.5,140.1z M250.1,130.2l-4.2,4.2l-4.2-4.2l4.2-4.2
	L250.1,130.2z M183.1,197.2l-5.1,0.9l0.9-5.1l57.1-57.1l4.2,4.2L183.1,197.2z"/>
</svg>
