<?xml version="1.0" encoding="UTF-8"?>
<svg id="ART" xmlns="http://www.w3.org/2000/svg" viewBox="0 0 288 288">
  <defs>
    <style>
      .cls-1 {
        fill: #312d2a;
      }
    </style>
  </defs>
  <path class="cls-1" d="M160.88,126.59c0-13.91-37.09-17.62-59-17.62s-59,3.71-59,17.62c0,.19.03.36.05.55-.02.15-.05.3-.05.45v96.21c0,13.55,37.09,17.17,59,17.17s59-3.62,59-17.17v-96.21c0-.16-.03-.3-.05-.45.01-.18.05-.36.05-.55ZM152.88,191.57c-1.17,2.16-15.62,9.31-51,9.31s-49.83-7.15-51-9.31v-22.47c12.13,5.94,35.4,7.78,51,7.78s38.87-1.84,51-7.78v22.47ZM152.88,159.57c-1.17,2.16-15.62,9.31-51,9.31s-49.83-7.15-51-9.31v-23.35c12.13,6.1,35.4,7.99,51,7.99s38.87-1.88,51-7.99v23.35ZM101.88,116.96c30.85,0,49.35,6.19,50.96,9.62-1.61,3.43-20.12,9.62-50.96,9.62s-49.35-6.19-50.96-9.62c1.61-3.43,20.12-9.62,50.96-9.62ZM101.88,232.96c-35.38,0-49.84-7.15-51-9.31v-22.54c12.13,5.94,35.4,7.78,51,7.78s38.87-1.84,51-7.78v22.54c-1.16,2.16-15.62,9.31-51,9.31Z"/>
  <g>
    <rect class="cls-1" x="230.12" y="88.04" width="15" height="8"/>
    <rect class="cls-1" x="155.12" y="88.04" width="15" height="8"/>
    <rect class="cls-1" x="219.14" y="61.52" width="15" height="8" transform="translate(20.05 179.45) rotate(-45)"/>
    <rect class="cls-1" x="196.12" y="47.04" width="8" height="15"/>
    <rect class="cls-1" x="169.61" y="58.02" width="8" height="15" transform="translate(4.52 141.95) rotate(-45)"/>
    <path class="cls-1" d="M200.42,68.04c-13.17,0-24.3,10.87-24.3,23.73,0,8.34,2.74,13.22,4.94,17.14,1.71,3.04,3.06,5.44,3.06,9.13v13.01l16,8.4,16-8.4v-13.01c0-3.69,1.35-6.09,3.07-9.13,2.21-3.92,4.96-8.8,4.96-17.14,0-13.08-10.64-23.73-23.73-23.73ZM208.12,126.21l-8,4.2-8-4.2v-4.17h16v4.17ZM212.22,104.98c-1.44,2.56-3.03,5.37-3.73,9.06h-4.37v-13h-8v13h-4.37c-.7-3.69-2.28-6.5-3.71-9.05-2.01-3.59-3.92-6.97-3.92-13.22,0-7.6,6.55-15.73,16.3-15.73s15.73,8.16,15.73,15.73c0,6.24-1.91,9.63-3.93,13.21Z"/>
    <rect class="cls-1" x="196.12" y="203.04" width="8" height="8"/>
    <rect class="cls-1" x="182.12" y="203.04" width="8" height="8"/>
    <rect class="cls-1" x="168.12" y="203.04" width="8" height="8"/>
    <rect class="cls-1" x="196.12" y="189.04" width="8" height="8"/>
    <rect class="cls-1" x="196.12" y="175.04" width="8" height="8"/>
    <rect class="cls-1" x="196.12" y="161.04" width="8" height="8"/>
    <rect class="cls-1" x="196.12" y="147.04" width="8" height="8"/>
  </g>
</svg>