<svg id="ART" xmlns="http://www.w3.org/2000/svg" viewBox="0 0 288 288"><defs><style>.cls-1{fill:#fcfbfa;}</style></defs><path class="cls-1" d="M153.85,172H134a9,9,0,0,0-9,9v39a9,9,0,0,0,9,9h19.64a9.2,9.2,0,0,0,9.36-9V181A9.08,9.08,0,0,0,153.85,172ZM134,180h19.85a1.15,1.15,0,0,1,1.15,1v26H133V181A1,1,0,0,1,134,180Zm19.64,41H134a1,1,0,0,1-1-1v-5h22v5C155,220.6,154.3,221,153.64,221Zm25.16-84.08L167,137v-15.5a33,33,0,0,0,10.11-23.54L177,54V50H134c-14.4,0-23,9.34-23,25h0l-.12,23.37A32.3,32.3,0,0,0,121,121.79V137l-11.82-.06A38.22,38.22,0,0,0,71,175.1V199h8V175.1a30.21,30.21,0,0,1,30.16-30.18l15.07.08L144,165.81,163.78,145l15-.07A30.22,30.22,0,0,1,209,175.1V199h8V175.1A38.22,38.22,0,0,0,178.8,136.92ZM134,58h34.8c-1.43,13-9.86,13-12.8,13H119.24C120.35,62.37,125.3,58,134,58ZM118.88,98.37,119,79h37a20.3,20.3,0,0,0,13.06-4.18l.06,23.12A25.41,25.41,0,0,1,144,123C130.17,123,118.88,112,118.88,98.37ZM144,154.19,129,138.4v-11A33.45,33.45,0,0,0,144,131a32.26,32.26,0,0,0,15-3.73V138.4Z"/></svg>