<?xml version="1.0" encoding="utf-8"?>
<!-- Generator: Adobe Illustrator 24.0.3, SVG Export Plug-In . SVG Version: 6.00 Build 0)  -->
<svg version="1.1" id="ART" xmlns="http://www.w3.org/2000/svg" xmlns:xlink="http://www.w3.org/1999/xlink" x="0px" y="0px"
	 viewBox="0 0 288 288" style="enable-background:new 0 0 288 288;" xml:space="preserve">
<style type="text/css">
	.st0{fill:#FCFBFA;}
</style>
<path class="st0" d="M231,86H124.8L114,71.5c-1.7-2.3-4.4-3.6-7.2-3.6H57c-5,0-9,4-9,9v143.2h192V95C240,90,236,86,231,86z M57,75.9
	h49.8c0.3,0,0.6,0.2,0.8,0.4L117.8,90l-10.2,13.6c-0.2,0.3-0.5,0.4-0.8,0.4H56V76.9C56,76.3,56.4,75.9,57,75.9z M232,212.1H56v-17.4
	l33.3-33.1l12.8,12.1l29.9-30.8V156h8v-27h-27v8h13.5l-24.7,25.4l-12.7-12l-33.2,33V112h50.8c2.8,0,5.5-1.3,7.2-3.6L124.9,94H231
	c0.6,0,1,0.4,1,1V212.1z M65,86h37v8H65V86z M218,198h-6v-3.7c0-9.1-6.1-17-14.8-19.4c1.1-1.3,2-2.6,2.8-4.1l0.8-1.4l-8.2-33.1l0,0
	c-2-6.5-7.8-11.3-14.4-11.3h-8c-7.3,0-13.6,6-14.9,13.5l-7.7,30.9l0.8,1.4c0.8,1.4,1.7,2.8,2.8,4c-8.9,2.3-15.2,10.3-15.2,19.6v3.7
	H70l-8,4v4h164v-4L218,198z M163,173.6c-2.8-1-5.3-2.9-6.9-5.5l1.6-6.2c1.3,2.4,3.1,4.6,5.3,6.3L163,173.6z M174,164
	c-6,0-11-5.8-11-12.6v-3.2c4,0.3,7.9-0.8,11.2-3.1c2.9,2,6.4,3.1,10,3.1c0.4,0,0.8,0,1.2,0v3.2C185.3,158.2,180.1,164,174,164z
	 M171,171.7c1,0.2,2,0.3,3,0.3c1,0,2-0.1,3-0.3v8.3c0,1.7-1.3,3-3,3s-3-1.3-3-3V171.7z M190.6,161.6l1.6,6.5
	c-1.7,2.7-4.2,4.7-7.2,5.6v-5.6C187.3,166.4,189.2,164.2,190.6,161.6z M170.1,133h8c3.5,0,6.6,3.3,7.1,7.3c-3.1,0.2-6.2-0.9-8.4-3.1
	l-2.7-2.5l-2.7,2.5c-2.2,2.2-5.3,3.3-8.4,3.1c0,0,0-0.1,0-0.1l0.5-2l0,0C164.7,135.2,167.3,133,170.1,133z M144,194.3
	c0-6.7,5.5-12.2,12.2-12.2h7c1.1,6,6.9,9.9,12.9,8.7c4.4-0.8,7.9-4.3,8.7-8.7h7c6.7,0,12.2,5.5,12.2,12.2v3.7h-60V194.3z"/>
</svg>
