<?xml version="1.0" encoding="UTF-8"?>
<svg id="ART" xmlns="http://www.w3.org/2000/svg" viewBox="0 0 288 288">
  <defs>
    <style>
      .cls-1 {
        fill: #312d2a;
      }
    </style>
  </defs>
  <path class="cls-1" d="M79.09,162.83h44.17l-21.92-40.19-22.25,40.19ZM92.67,154.83l8.63-15.58,8.5,15.58h-17.12Z"/>
  <path class="cls-1" d="M168.56,126.21l-10.71,18.28,10.43,18.34h21.14l10.71-18.28-10.43-18.34h-21.14ZM184.84,154.83h-11.91l-5.85-10.28,6.06-10.34h11.91l5.85,10.28-6.06,10.34Z"/>
  <path class="cls-1" d="M129.13,186.39h-55.11c-4.41,0-8,3.59-8,8v55.11c0,4.41,3.59,8,8,8h55.11c4.41,0,8-3.59,8-8v-55.11c0-4.41-3.59-8-8-8ZM74.01,249.5v-55.11h55.11v55.11s-55.11,0-55.11,0Z"/>
  <path class="cls-1" d="M206.92,186.39h-55.11c-4.41,0-8,3.59-8,8v55.11c0,4.41,3.59,8,8,8h55.11c4.41,0,8-3.59,8-8v-55.11c0-4.41-3.59-8-8-8ZM151.8,249.5v-55.11h55.11v55.11s-55.11,0-55.11,0Z"/>
  <path class="cls-1" d="M163.62,238.42h32.22v-32.22h-32.22v32.22ZM171.62,214.2h16.22v16.22h-16.22v-16.22Z"/>
  <path class="cls-1" d="M101.2,204c-10.1,0-18.31,8.21-18.31,18.31s8.21,18.31,18.31,18.31,18.31-8.21,18.31-18.31-8.21-18.31-18.31-18.31ZM101.2,232.62c-5.69,0-10.31-4.62-10.31-10.31s4.63-10.31,10.31-10.31,10.31,4.62,10.31,10.31-4.63,10.31-10.31,10.31Z"/>
  <path class="cls-1" d="M223.68,102.61c2.01,7.42,1.54,15.52-1.8,22.89h-6.97v-8.9c0-4.41-3.59-8-8-8h-55.11c-4.41,0-8,3.59-8,8v8.9h-6.68v-8.9c0-4.41-3.59-8-8-8h-55.11c-4.41,0-8,3.59-8,8v8.9h-10.42c2.08-10.63,8.81-19.74,18.6-24.89,5.85-3.07,9.92-8.51,11.18-14.91,1.58-8.04,6.99-14.8,14.48-18.09,3.9-1.71,8.18-2.41,12.39-2.01,6.66.64,13.03-1.75,17.48-6.55,6.23-6.71,15.04-10.55,24.19-10.55,4.89,0,9.58,1.07,13.83,3.02.92-2.53,2.08-4.95,3.46-7.22-5.31-2.46-11.17-3.81-17.29-3.81-11.37,0-22.32,4.78-30.05,13.11-2.75,2.96-6.7,4.43-10.86,4.03-5.56-.53-11.22.39-16.37,2.65-9.88,4.34-17.02,13.26-19.11,23.87-.79,4.02-3.36,7.43-7.06,9.38-13.54,7.12-22.3,20.45-23.43,35.67l-.32,4.3h19.3v38.21c0,4.41,3.59,8,8,8h55.11c4.41,0,8-3.59,8-8v-38.21h6.68v38.21c0,4.41,3.59,8,8,8h55.11c4.41,0,8-3.59,8-8v-38.21h11.83l1.13-2.1c5.65-10.48,6.36-22.41,2.87-33.02-2.2,1.64-4.57,3.06-7.07,4.24ZM74.01,171.71v-55.11h55.11v55.11s-55.11,0-55.11,0ZM151.8,171.71v-55.11h55.11v55.11s-55.11,0-55.11,0Z"/>
  <path class="cls-1" d="M206.28,100.5c19.3,0,35-15.7,35-35s-15.7-35-35-35-35,15.7-35,35,15.7,35,35,35ZM206.28,38.5c14.89,0,27,12.11,27,27s-12.11,27-27,27-27-12.11-27-27,12.11-27,27-27Z"/>
  <path class="cls-1" d="M191.49,73.16l-3.17,3.97,6.35,6.35,3.97-3.17c.84.43,1.71.8,2.61,1.08l.56,5.05h8.97l.56-5.05c.9-.29,1.77-.65,2.61-1.08l3.97,3.17,6.35-6.34-3.17-3.97c.43-.84.8-1.71,1.08-2.61l5.05-.56v-8.97l-5.05-.56c-.29-.9-.65-1.77-1.08-2.61l3.17-3.97-6.35-6.34-3.97,3.17c-.84-.43-1.71-.8-2.61-1.08l-.56-5.05h-8.97l-.56,5.05c-.9.29-1.77.65-2.61,1.08l-3.97-3.17-6.35,6.35,3.17,3.97c-.43.84-.8,1.71-1.08,2.61l-5.05.56v8.97l5.05.56c.29.9.65,1.77,1.08,2.61ZM206.28,56.4c5.02,0,9.1,4.07,9.1,9.1s-4.07,9.1-9.1,9.1-9.1-4.07-9.1-9.1,4.07-9.1,9.1-9.1Z"/>
</svg>