<?xml version="1.0" encoding="UTF-8"?>
<svg id="ART" xmlns="http://www.w3.org/2000/svg" version="1.1" viewBox="0 0 288 288">
  <defs>
    <style>
      .cls-1 {
        fill: #fcfbfa;
        stroke-width: 0px;
      }
    </style>
  </defs>
  <path class="cls-1" d="M114.2,72.5c-7.7.4-12.9,1.6-17.5,3.4-4.7,1.8-8.7,4.3-12.7,8.3-4,4-6.5,8-8.3,12.8-1.8,4.6-3,9.8-3.3,17.5-.3,7.7-.4,10.1-.4,29.7,0,19.5.1,22,.5,29.7.4,7.7,1.6,12.9,3.4,17.5,1.8,4.7,4.3,8.7,8.3,12.7,4,4,8,6.4,12.8,8.3,4.6,1.8,9.8,3,17.5,3.3,7.7.3,10.1.4,29.7.4,19.6,0,22-.1,29.7-.5,7.7-.4,12.9-1.6,17.5-3.4,4.7-1.9,8.7-4.3,12.7-8.3,4-4,6.4-8,8.3-12.8,1.8-4.6,3-9.8,3.3-17.5.3-7.7.4-10.1.4-29.7,0-19.6-.1-22-.5-29.7-.4-7.7-1.6-12.9-3.4-17.5-1.8-4.7-4.3-8.7-8.3-12.7-4-4-8-6.5-12.8-8.3-4.6-1.8-9.8-3-17.5-3.3-7.7-.3-10.1-.4-29.7-.4-19.5,0-22,.1-29.7.5M115,202.7c-7-.3-10.8-1.5-13.4-2.4-3.4-1.3-5.8-2.9-8.3-5.4-2.5-2.5-4.1-4.9-5.4-8.3-1-2.5-2.2-6.3-2.5-13.4-.4-7.6-.4-9.9-.5-29.1,0-19.2,0-21.5.4-29.1.3-7,1.5-10.8,2.4-13.4,1.3-3.4,2.9-5.8,5.4-8.3,2.5-2.5,4.9-4.1,8.3-5.4,2.5-1,6.3-2.2,13.4-2.5,7.6-.4,9.9-.4,29.1-.5,19.2,0,21.5,0,29.1.4,7,.3,10.8,1.5,13.4,2.4,3.4,1.3,5.8,2.9,8.3,5.4,2.5,2.5,4.1,4.9,5.4,8.3,1,2.5,2.2,6.3,2.5,13.4.4,7.6.4,9.9.5,29.1,0,19.2,0,21.5-.4,29.1-.3,7-1.5,10.8-2.4,13.4-1.3,3.4-2.9,5.8-5.4,8.3-2.5,2.5-4.9,4.1-8.3,5.4-2.5,1-6.3,2.2-13.4,2.5-7.6.4-9.9.4-29.1.5-19.2,0-21.5,0-29.1-.4M173.7,105.5c0,4.8,3.9,8.6,8.7,8.6,4.8,0,8.6-3.9,8.6-8.7,0-4.8-3.9-8.6-8.7-8.6-4.8,0-8.6,3.9-8.6,8.7M107,144.1c0,20.4,16.6,36.9,37,36.9,20.4,0,36.9-16.6,36.9-37,0-20.4-16.6-36.9-37-36.9-20.4,0-36.9,16.6-36.9,37M120,144c0-13.3,10.7-24,24-24,13.3,0,24,10.7,24,24,0,13.3-10.7,24-24,24-13.3,0-24-10.7-24-24"/>
</svg>