<svg id="ART" xmlns="http://www.w3.org/2000/svg" viewBox="0 0 288 288"><defs><style>.cls-1{fill:#312d2a;}</style></defs><path class="cls-1" d="M59.68,178a35.8,35.8,0,0,1,18.6-24.89A21.48,21.48,0,0,0,89.46,138.2a25,25,0,0,1,26.87-20.09,21,21,0,0,0,17.48-6.55,33,33,0,0,1,53.72,7.71c.28.55.57,1.09.9,1.61a42.67,42.67,0,0,1,8.74-1.71,13.76,13.76,0,0,1-2.48-3.48A41,41,0,0,0,128,106.11a13,13,0,0,1-10.86,4,33,33,0,0,0-35.48,26.52,13.54,13.54,0,0,1-7,9.37A43.76,43.76,0,0,0,51.13,181.7l-.32,4.3H165.34a41.94,41.94,0,0,1-4.25-8Z"/><path class="cls-1" d="M185.9,179.3h8.27l1.85-8.11h9.59l1.86,8.11H216l-11.08-38.53H197Zm14.94-29.09,3.29,14.41H197.5Z"/><path class="cls-1" d="M179.17,152.17l-7,7a29,29,0,0,1,54.42-10.91l5.85-5.85a37,37,0,0,0-68.31,17l-7.27-7.27-5.66,5.66L168,174.66l16.83-16.83Z"/><path class="cls-1" d="M250.83,166.17,234,149.34l-16.83,16.83,5.66,5.66,7-7a29,29,0,0,1-54.42,10.91l-5.85,5.85a37,37,0,0,0,68.31-17l7.27,7.27Z"/></svg>