<?xml version="1.0" encoding="utf-8"?>
<!-- Generator: Adobe Illustrator 28.0.0, SVG Export Plug-In . SVG Version: 6.00 Build 0)  -->
<svg version="1.1" id="ART" xmlns="http://www.w3.org/2000/svg" xmlns:xlink="http://www.w3.org/1999/xlink" x="0px" y="0px"
	 viewBox="0 0 288 288" style="enable-background:new 0 0 288 288;" xml:space="preserve">
<style type="text/css">
	.st0{fill:#312D2A;}
</style>
<g>
	<path class="st0" d="M226,236c0,0.6-0.4,1-1,1H51c-0.6,0-1-0.4-1-1V93h89c0-2.7,0.2-5.4,0.6-8H50V62c0-0.6,0.4-1,1-1h98.3
		c2-2.9,4.3-5.6,6.8-8H51c-5,0-9,4-9,9v174c0,5,4,9,9,9h174c5,0,9-4,9-9V134.8c-2.5,2.3-5.2,4.4-8,6.2V236z"/>
	<ellipse class="st0" cx="63.5" cy="73.7" rx="5" ry="5"/>
	<ellipse class="st0" cx="81.2" cy="73.7" rx="5" ry="5"/>
	<ellipse class="st0" cx="98.5" cy="73.7" rx="5" ry="5"/>
	<polygon class="st0" points="137.7,156.7 96.2,140.4 96.2,153 121.8,161.5 96.2,170.3 96.2,183 137.7,166.6 	"/>
	<rect x="142.7" y="197.2" class="st0" width="42.1" height="10.4"/>
	<path class="st0" d="M237,122.3c7.7-11.1,10.6-24.5,8.2-37.8c-2.4-13.3-9.8-24.8-20.9-32.5c-11.1-7.7-24.5-10.6-37.8-8.2
		c-13.3,2.4-24.8,9.8-32.5,20.9s-10.6,24.5-8.2,37.8c2.4,13.3,9.8,24.8,20.9,32.5c8.6,5.9,18.5,9,28.7,9c3,0,6-0.3,9.1-0.8
		C217.7,140.8,229.3,133.4,237,122.3z M171.3,128.4c-9.3-6.5-15.6-16.2-17.6-27.4s0.4-22.5,6.9-31.8s16.2-15.6,27.4-17.6
		c2.5-0.5,5.1-0.7,7.6-0.7c8.6,0,17,2.6,24.1,7.6c9.3,6.5,15.6,16.2,17.6,27.4s-0.4,22.5-6.9,31.8s-16.2,15.6-27.4,17.6
		C191.9,137.3,180.6,134.9,171.3,128.4z"/>
	<path class="st0" d="M221.1,114.8l4.8-6.9L211,97.5l-4.7,6.7c-0.5,0.8-1.6,1-2.3,0.4l-21.5-14.9c-0.8-0.5-1-1.6-0.4-2.3l4.6-6.7
		l-14.9-10.4l-4.8,6.9c-2.2,3.2-2,7.6,0.7,10.5c5.2,5.6,12.1,11.6,20.1,17.2s16,10,23.1,12.9C214.6,119.3,218.8,118,221.1,114.8z"/>
</g>
</svg>
