<?xml version="1.0" encoding="utf-8"?>
<!-- Generator: Adobe Illustrator 24.0.3, SVG Export Plug-In . SVG Version: 6.00 Build 0)  -->
<svg version="1.1" id="icon_art" xmlns="http://www.w3.org/2000/svg" xmlns:xlink="http://www.w3.org/1999/xlink" x="0px" y="0px"
	 viewBox="0 0 288 288" style="enable-background:new 0 0 288 288;" xml:space="preserve">
<style type="text/css">
	.st0{fill:#312D2A;}
</style>
<path class="st0" d="M241.71,207.48L158.65,63.61c-4.66-8.09-15-10.87-23.1-6.2c-2.58,1.49-4.72,3.63-6.2,6.2L46.29,207.48
	c-4.67,8.1-1.89,18.44,6.21,23.11c2.56,1.48,5.47,2.26,8.43,2.26h166.14c9.34-0.01,16.91-7.59,16.9-16.94
	C243.97,212.95,243.19,210.04,241.71,207.48z M234.79,220.39c-1.57,2.8-4.51,4.56-7.72,4.61H60.93c-3.21-0.05-6.15-1.81-7.72-4.61
	c-1.61-2.75-1.61-6.16,0-8.91l83.07-143.87c2.46-4.26,7.9-5.73,12.17-3.27c1.36,0.78,2.49,1.91,3.27,3.27l83.07,143.87
	C236.44,214.26,236.53,217.66,234.79,220.39L234.79,220.39z M147.7,73.39c-1.18-2.04-3.79-2.75-5.83-1.57
	c-0.65,0.38-1.19,0.92-1.57,1.57l-80,138.52c-0.76,1.32-0.76,2.94,0,4.26c0.8,1.25,2.22,1.95,3.7,1.83h160
	c1.48,0.12,2.9-0.58,3.7-1.83c0.76-1.32,0.76-2.95,0-4.27L147.7,73.39z M70.49,210.31L144,83l73.51,127.33L70.49,210.31z M138,120
	h12v55.85h-12V120z M152,192c0,4.42-3.58,8-8,8s-8-3.58-8-8s3.58-8,8-8S152,187.58,152,192z"/>
</svg>
