<?xml version="1.0" encoding="utf-8"?>
<!-- Generator: Adobe Illustrator 24.0.3, SVG Export Plug-In . SVG Version: 6.00 Build 0)  -->
<svg version="1.1" id="icon_art" xmlns="http://www.w3.org/2000/svg" xmlns:xlink="http://www.w3.org/1999/xlink" x="0px" y="0px"
	 viewBox="0 0 288 288" style="enable-background:new 0 0 288 288;" xml:space="preserve">
<style type="text/css">
	.st0{fill:#FCFBFA;}
</style>
<title>RMIL_Business_Graduation_Degree_Air_RGB</title>
<path class="st0" d="M96,143h96v8H96V143z M78,163h132v8H78V163z M211,134v-28c0,0-19-13-67-13s-67,12-67,12v28c0,0,22.3-12,67-12
	S211,134,211,134z M85,110c3.5-1.4,7.1-2.6,10.7-3.6c9.2-2.4,25.1-5.4,48.3-5.4s38.9,3.2,48.1,5.8c3.7,1.1,7.3,2.4,10.9,4v11.1
	c-11.5-4-31.2-8.9-59-8.9s-47.6,4.5-59,8.2L85,110z M244,223V59H44v164h68.5c1.3,4.2,3.4,8.1,6.3,11.4l-11.3,27.2l17.1-2.8
	l10.7,14.1l8.1-19.5l8.1,19.5l10.6-14.1l17.1,2.8L167.8,234c2.7-3.2,4.7-6.9,5.9-11H244z M52,215V67h184v148h-60.9
	c0-0.4,0-0.9,0-1.4c0-1.5-0.1-3.1-0.3-4.6H230V73H58v136h53.5c-0.2,1.5-0.3,3.1-0.3,4.6c0,0.5,0,0.9,0,1.4H52z M143.1,237.6
	c-13.3,0-24-10.7-24-24s10.7-24,24-24s24,10.7,24,24S156.4,237.6,143.1,237.6z M143.1,181.6c-12.8,0-24.3,7.6-29.4,19.4H66V81h156
	v120h-49.5C167.5,189.3,155.9,181.6,143.1,181.6z M133.3,257l-5.1-6.8l-7.7,1.3l4.7-11.4c3.9,2.7,8.3,4.4,13,5.1L133.3,257z
	 M158.7,250.2l-5.1,6.8l-4.9-11.9c4.7-0.8,9.1-2.7,12.9-5.4l4.9,11.7L158.7,250.2z M143.1,195.6c-9.9,0-18,8.1-18,18s8.1,18,18,18
	s18-8.1,18-18S153.1,195.6,143.1,195.6z M143.1,223.6c-5.5,0-10-4.5-10-10s4.5-10,10-10s10,4.5,10,10S148.6,223.6,143.1,223.6z"/>
</svg>
