<svg id="ART" xmlns="http://www.w3.org/2000/svg" viewBox="0 0 288 288"><defs><style>.cls-1{fill:#312d2a;}</style></defs><path class="cls-1" d="M83,213H214V47H83a9,9,0,0,0-9,9V232a9,9,0,0,0,9,9h20v13.44l19.5-18.87L142,254.44V241h64l8-4v-4H142v-6h72v-8H134v16.56l-11.5-11.13L111,235.56V219H88v8h15v6H83a1,1,0,0,1-1-1V214A1,1,0,0,1,83,213Zm82-90a4,4,0,1,1-4-4A4,4,0,0,1,165,123ZM141,91a4,4,0,1,1-4-4A4,4,0,0,1,141,91ZM82,56a1,1,0,0,1,1-1h50V79.7a12,12,0,1,0,8,0V55h16v56.7a12,12,0,1,0,8,0V55h41V205H83a8.26,8.26,0,0,0-1,.06ZM96,189h76.7a12,12,0,1,0,0-8H96V167h75.16L190,148.16V102.3a12,12,0,1,0-8,0v42.54L167.84,159H96V105h15.34L127,120.66v7a12,12,0,1,0,8,0V117.34L114.66,97H96V61H88V199h8Zm88-8a4,4,0,1,1-4,4A4,4,0,0,1,184,181Zm2-94a4,4,0,1,1-4,4A4,4,0,0,1,186,87Zm-55,56a4,4,0,1,1,4-4A4,4,0,0,1,131,143Z"/></svg>