<?xml version="1.0" encoding="utf-8"?>
<!-- Generator: Adobe Illustrator 24.0.3, SVG Export Plug-In . SVG Version: 6.00 Build 0)  -->
<svg version="1.1" id="ART" xmlns="http://www.w3.org/2000/svg" xmlns:xlink="http://www.w3.org/1999/xlink" x="0px" y="0px"
	 viewBox="0 0 288 288" style="enable-background:new 0 0 288 288;" xml:space="preserve">
<style type="text/css">
	.st0{fill:#FCFBFA;}
</style>
<path class="st0" d="M148,165.8V123h-8v42.8l-16.1-17.4l-5.9,5.4l25.9,28.1l25.9-28.1l-5.9-5.4L148,165.8z M231,86H124.8L114,71.5
	c-1.7-2.3-4.4-3.6-7.2-3.6H57c-5,0-9,4-9,9v143.2h192V95C240,90,236,86,231,86z M57,75.9h49.8c0.3,0,0.6,0.2,0.8,0.4L117.8,90
	l-10.2,13.6c-0.2,0.2-0.5,0.4-0.8,0.4H56V76.9C56,76.3,56.4,75.9,57,75.9z M232,212.1H56V112h50.8c2.8,0,5.5-1.3,7.2-3.6L124.9,94
	H231c0.6,0,1,0.4,1,1V212.1z M65,86h37v8H65V86z"/>
</svg>
