<?xml version="1.0" encoding="utf-8"?>
<!-- Generator: Adobe Illustrator 27.1.0, SVG Export Plug-In . SVG Version: 6.00 Build 0)  -->
<svg version="1.1" id="Layer_1" xmlns="http://www.w3.org/2000/svg" xmlns:xlink="http://www.w3.org/1999/xlink" x="0px" y="0px"
	 viewBox="0 0 288 288" style="enable-background:new 0 0 288 288;" xml:space="preserve">
<style type="text/css">
	.st0{display:none;}
	.st1{display:inline;}
	.st2{fill:#56A6DA;}
	.st3{display:inline;fill:none;stroke:#56A6DA;stroke-width:0.25;stroke-miterlimit:10;}
	.st4{fill:#FCFBFA;}
</style>
<g id="GUIDES" class="st0">
	<g class="st1">
		<path class="st2" d="M144,96.3c26.3,0,47.8,21.4,47.8,47.7s-21.4,47.7-47.8,47.7S96.2,170.3,96.2,144S117.7,96.3,144,96.3
			 M144,96.1c-26.5,0-48,21.5-48,47.9c0,26.5,21.5,47.9,48,47.9s48-21.5,48-47.9C192,117.5,170.5,96.1,144,96.1L144,96.1z"/>
	</g>
	<line class="st3" x1="96" y1="0" x2="96" y2="288"/>
	<line class="st3" x1="192" y1="0" x2="192" y2="288"/>
	<line class="st3" x1="0" y1="192" x2="288" y2="192"/>
	<line class="st3" x1="0" y1="96" x2="288" y2="96"/>
	<g class="st1">
		<path class="st2" d="M144,12.4c35.2,0,68.3,13.7,93.2,38.6s38.6,58,38.6,93.2s-13.7,68.3-38.6,93.2S179.2,276,144,276
			s-68.3-13.7-93.2-38.6s-38.6-58-38.6-93.2C12.2,109,26,75.9,50.8,51C75.7,26.1,108.8,12.4,144,12.4 M144,12.1
			c-72.9,0-132,59.1-132,132s59.1,132,132,132s132-59.1,132-132S216.9,12.1,144,12.1L144,12.1z"/>
	</g>
	<g class="st1">
		<path class="st2" d="M240,12.2c6.5,0,11.8,5.3,11.8,11.8v240c0,6.5-5.3,11.8-11.8,11.8H48c-6.5,0-11.8-5.3-11.8-11.8V24
			c0-6.5,5.3-11.8,11.8-11.8H240 M240,12H48c-6.6,0-12,5.4-12,12v240c0,6.6,5.4,12,12,12h192c6.6,0,12-5.4,12-12V24
			C252,17.4,246.6,12,240,12L240,12z"/>
	</g>
	<g class="st1">
		<path class="st2" d="M264,36.2c6.5,0,11.8,5.3,11.8,11.8v192c0,6.5-5.3,11.8-11.8,11.8H24c-6.5,0-11.8-5.3-11.8-11.8V48
			c0-6.5,5.3-11.8,11.8-11.8H264 M264,36H24c-6.6,0-12,5.4-12,12v192c0,6.6,5.4,12,12,12h240c6.6,0,12-5.4,12-12V48
			C276,41.4,270.6,36,264,36L264,36z"/>
	</g>
	<g class="st1">
		<path class="st2" d="M247.8,24.2c8.8,0,16,7.2,16,16v207.6c0,8.8-7.2,16-16,16H40.2c-8.8,0-16-7.2-16-16V40.2c0-8.8,7.2-16,16-16
			H247.8 M247.8,24H40.2C31.3,24,24,31.3,24,40.2v207.6c0,8.9,7.3,16.2,16.2,16.2h207.6c8.9,0,16.2-7.3,16.2-16.2V40.2
			C264,31.3,256.7,24,247.8,24L247.8,24z"/>
	</g>
</g>
<g id="ART">
	<path class="st4" d="M107,241.8V252h8v-10.4c-1.5,0.3-3,0.4-4.5,0.4C109.3,242,108.1,241.9,107,241.8"/>
	<g>
		<path class="st4" d="M144,89c-18.2,0-33-14.6-33-32.6c0-17.9,14.8-32.4,33-32.4c17.9,0,32,14.2,32,32.4C176,74.7,161.9,89,144,89
			 M144,32c-13.8,0-25,11-25,24.4C119,70,130.2,81,144,81c13.5,0,24-10.8,24-24.6C168,42.7,157.5,32,144,32"/>
		<path class="st4" d="M215.7,184.7l-17-71.8c0-0.1,0-0.1-0.1-0.2C194.4,98.3,186.8,91,176,91h-7c-1.2,0-2.4,0.6-3.2,1.6
			c-4.2,5.5-13.7,9.6-22,9.6c-8.5,0-18.5-4.2-22.6-9.6c-0.8-1-1.9-1.6-3.2-1.6h-7.3c-3.6,0-7,0.9-10.2,2.5c2.2,1.8,4,4,5.4,6.4
			c1.5-0.6,3.1-0.9,4.8-0.9h5.5c6.8,7.3,18.7,11.2,27.6,11.2c10.2,0,21-4.5,27.1-11.2h5.1c2.5,0,10.2,0,14.9,15.8l17,71.8
			c0,0.1,0,0.1,0,0.2c1,3.4-0.3,5.7-1.5,6.9c-1.8,1.8-4.6,2.6-6.9,2c-2.4-0.7-4.1-2.7-4.9-5.9c-1.5-6-5.2-21.9-8.3-35.8
			c-3.5,3.6-8.1,6.1-13.4,6.9V252h8v-85.6c2.4,10.7,4.8,20.8,5.9,25.3c1.5,6,5.3,10.3,10.5,11.7c5.1,1.4,10.9-0.2,14.7-4.1
			C215.9,195.5,217.2,190.2,215.7,184.7"/>
		<path class="st4" d="M82,134.8l-10.9,50.1c-1.5,7.4,2,15.9,11.5,18c9.7,2.2,16.6-4.1,18.3-11.3c0.8-3.2,3.4-14.3,6.1-26.1v29.7
			c1.1-0.2,2.3-0.3,3.5-0.3c1.5,0,3,0.2,4.5,0.4v-64.8c0-2-1.5-3.7-3.5-4c-2-0.2-3.9,1.1-4.4,3.1c-0.1,0.5-12.1,52.3-14,60
			c-1.3,5.5-6.2,6-8.8,5.4c-3.3-0.7-6.4-3.4-5.4-8.6l11.3-52c-1.5,0.3-3.1,0.5-4.7,0.5C84.3,135,83.1,134.9,82,134.8"/>
		<path class="st4" d="M187,137.5c0-9.6-7.9-17.5-17.5-17.5s-17.5,7.9-17.5,17.5s7.9,17.5,17.5,17.5S187,147.2,187,137.5 M169.5,147
			c-5.2,0-9.5-4.3-9.5-9.5s4.3-9.5,9.5-9.5s9.5,4.3,9.5,9.5C179,142.8,174.7,147,169.5,147"/>
		<path class="st4" d="M93,218.5c0,9.6,7.9,17.5,17.5,17.5s17.5-7.9,17.5-17.5s-7.9-17.5-17.5-17.5S93,208.9,93,218.5 M120,218.5
			c0,5.2-4.3,9.5-9.5,9.5s-9.5-4.3-9.5-9.5s4.3-9.5,9.5-9.5S120,213.3,120,218.5"/>
		<path class="st4" d="M85.5,94c-9.6,0-17.5,7.9-17.5,17.5S75.9,129,85.5,129s17.5-7.9,17.5-17.5S95.1,94,85.5,94 M85.5,121
			c-5.2,0-9.5-4.3-9.5-9.5s4.3-9.5,9.5-9.5s9.5,4.3,9.5,9.5C95,116.8,90.7,121,85.5,121"/>
		<rect x="140" y="213" class="st4" width="8" height="39"/>
	</g>
</g>
</svg>
