<?xml version="1.0" encoding="utf-8"?>
<!-- Generator: Adobe Illustrator 24.0.3, SVG Export Plug-In . SVG Version: 6.00 Build 0)  -->
<svg version="1.1" id="ART" xmlns="http://www.w3.org/2000/svg" xmlns:xlink="http://www.w3.org/1999/xlink" x="0px" y="0px"
	 viewBox="0 0 288 288" style="enable-background:new 0 0 288 288;" xml:space="preserve">
<style type="text/css">
	.st0{fill:#312D2A;}
</style>
<path class="st0" d="M231,85.9H124.8L114,71.6c-1.7-2.3-4.3-3.6-7.2-3.6H57c-5,0-9,4-9,9v134c0,5,4,9,9,9h174c5,0,9-4,9-9V94.9
	C240,89.9,236,85.9,231,85.9z M57,76h49.8c0.3,0,0.6,0.2,0.8,0.4l10.2,13.5l-10.2,13.6c-0.2,0.2-0.5,0.4-0.8,0.4H56V77
	C56,76.4,56.4,76,57,76z M156.5,180.3l13.4,14.2l13.4-14.2h5.3c7.4,0,13.5,6,13.5,13.5v4.2h-46.8c-1.9-6.4-6.7-11.6-13-14
	c2.5-2.4,5.8-3.7,9.3-3.7H156.5z M177.4,140.1c2.2,0,4.4-0.4,6.4-1.3v11.9c-0.1,7.6-6.2,13.8-13.8,13.8c-7.6,0.1-13.8-6-13.9-13.6
	V140h21.3V140.1z M156.6,132.1c1.4-5.1,5.4-5.1,7.2-5.1h19.7c-1.1,5.1-4.4,5.1-6,5.1H156.6z M162.3,171.1c2.5,0.9,5.1,1.4,7.7,1.4
	c2.6,0,5.2-0.5,7.6-1.4v3.5l-7.7,8.2l-7.6-8.1V171.1z M103.2,154c4.4,0.4,8.8-0.8,12.4-3.4c3.2,2.2,6.9,3.4,10.8,3.4
	c0.5,0,1.1,0,1.6-0.1v3.8c0,7.4-5.5,13.5-12.3,13.5s-12.3-6.1-12.3-13.5V154H103.2z M111.5,178.8c2.6,0.6,5.3,0.6,7.9,0v9.2
	c0.3,2.2-1.2,4.2-3.4,4.5c-2.2,0.3-4.2-1.2-4.5-3.4c-0.1-0.4-0.1-0.8,0-1.1V178.8z M135.4,175.8c-1.8,3-4.6,5.2-7.9,6.2v-7
	c2.5-1.9,4.5-4.4,5.9-7.1L135.4,175.8z M127.8,146c-2.4,0.3-5.9,0-9.6-3.4l-2.7-2.5l-2.7,2.5c-3.7,3.4-7.2,3.7-9.6,3.4
	c0-0.2,0-0.3,0.1-0.5l0.5-2.1l0,0c1.1-3.2,4-5.3,7.4-5.4h8.7C124,138,127.4,141.5,127.8,146z M103.5,175.1v7c-3.3-1.1-6-3.3-7.8-6.2
	l1.9-7.8C99.1,170.8,101.1,173.2,103.5,175.1L103.5,175.1z M96.5,190.6h7.3c1.5,6.5,8,10.4,14.4,8.9c4.4-1,7.9-4.5,8.9-8.9h7.4
	c7.4,0,13.5,6,13.5,13.5v7.9H83v-7.9C83,196.6,89,190.6,96.5,190.6z M232,211c0,0.6-0.4,1-1,1h-74.9v-6h70v-4l-8-4h-8v-4.2
	c0-11.9-9.6-21.5-21.5-21.5h-3v-6.5c4-4,6.2-9.5,6.2-15.1V119h-28.1c-9.6,0-15.6,6.5-15.6,17l0,0v15c0,5.6,2.2,11,6.2,15v6.4h-2.8
	c-2.9,0-5.7,0.6-8.3,1.7l-8.1-32.5H135c-2-6.7-8.2-11.4-15.2-11.5h-8.7c-7.9,0-14.4,6-15.8,13.9L87,177.2l0.8,1.4
	c1,1.7,2.1,3.3,3.4,4.7c-7.4,1.8-13.3,7.5-15.4,14.8H70l-8,4v4h13v6H57c-0.6,0-1-0.4-1-1V112h50.8c2.8,0,5.5-1.3,7.2-3.6L124.8,94
	H231c0.6,0,1,0.4,1,1V211z M65,85.9h37v8H65V85.9z"/>
</svg>
