<?xml version="1.0" encoding="utf-8"?>
<!-- Generator: Adobe Illustrator 24.0.3, SVG Export Plug-In . SVG Version: 6.00 Build 0)  -->
<svg version="1.1" id="icon_art" xmlns="http://www.w3.org/2000/svg" xmlns:xlink="http://www.w3.org/1999/xlink" x="0px" y="0px"
	 viewBox="0 0 288 288" style="enable-background:new 0 0 288 288;" xml:space="preserve">
<style type="text/css">
	.st0{fill:#312D2A;}
</style>
<title>RMIL_Business_Risk_and_Performance_Analysis_Bark_RGB-01</title>
<g>
	<path class="st0" d="M153.2,57.5c-19.9,0-36,16.1-36,36c0,19.9,16.1,36,36,36c19.9,0,36-16.1,36-36S173.1,57.5,153.2,57.5z
		 M163.8,119.5c-6.7,2.7-14.1,2.7-20.8,0.1V90.3h20.8V119.5z M174.5,111.8c-0.8,1-1.7,1.9-2.7,2.7V82.3H135v32.5
		c-11.7-10.1-13-27.8-2.9-39.5c10.1-11.7,27.8-13,39.5-2.9C183.3,82.4,184.6,100.1,174.5,111.8z"/>
	<path class="st0" d="M73.3,173.8V221h-3l-8,2v6h118v-6.1l-8-1.9h-3v-74.4c-2.6,0.8-5.3,1.4-8,1.8V221h-12v-72.1
		c-2.7-0.2-5.4-0.6-8-1.2V221h-6v-74h-28v74h-6v-47.2H73.3z M115.3,155h12v66h-12V155z M93.3,221h-12v-39.2h12V221z"/>
	<path class="st0" d="M218,139.2c-3.2-3.2-6.5-6.1-10-8.9l-12-10.2c14.4-23.6,7-54.3-16.6-68.7c-23.6-14.4-54.3-7-68.7,16.6
		c-14.4,23.6-7,54.3,16.6,68.7c15.9,9.8,36,9.8,52,0.1l10.2,12.1c2.8,3.5,5.8,6.8,8.9,10l14.5,14.5l19.6-19.6L218,139.2z M153.3,136
		c-23.2,0-42-18.8-42-42s18.8-42,42-42c23.2,0,42,18.8,42,42S176.5,136,153.3,136z M212.9,162l-8.8-8.9c-3-3-5.8-6.1-8.4-9.3
		l-10-11.8c1-0.9,2-1.8,2.9-2.7s1.8-1.8,2.6-2.8l11.6,9.8l0.1,0.1c3.3,2.6,6.4,5.4,9.4,8.4l8.9,8.9L212.9,162z"/>
	<polygon class="st0" points="239.7,161.4 235.4,157.1 230.3,162.2 230.3,162.2 221.4,171.1 221.4,171.1 216.3,176.2 220.6,180.5 
		227.1,176.8 236,167.9 236,167.9 	"/>
	<path class="st0" d="M185.3,236h-129V70h47.5c1.4-2.8,2.9-5.5,4.7-8H48.3v182h145v-81.8c-2.8-2.9-5.4-5.8-8-8.8V236z"/>
</g>
</svg>
