<svg id="ART" xmlns="http://www.w3.org/2000/svg" viewBox="0 0 288 288"><defs><style>.cls-1{fill:#312d2a;}</style></defs><path class="cls-1" d="M63,200h96v8H63Zm91.31-73.84A6.07,6.07,0,0,1,155,129v4a6,6,0,0,1-6,6H95V80h31.35a6,6,0,0,1,5.31,3.2ZM147,129.45,125.14,88H103v43h44Zm95-41V166h-.28a30.37,30.37,0,0,1-30.22,26c-16.82,0-30.5-13.46-30.5-30v-1h0v-3h0l4-8h4v8h30.94l-.87-53.49-35,4.26L169,127.42V171a9,9,0,0,1-9,9H140v6h17.5a18,18,0,0,1,0,36h-93a18,18,0,0,1,0-36H82v-6H62a9,9,0,0,1-9-9V127a9,9,0,0,1,9-9h3V102.92a8,8,0,1,1,8,0V118h8V75a9,9,0,0,1,9-9h43a9,9,0,0,1,8,4.8l14.22,27L169,86.19a10,10,0,0,1,5.67-2.33l57.69-4.43a9,9,0,0,1,9.69,9ZM159,105l7,13.34,11.2-13.83-5.45-10.29Zm-1.49,89h-93a10,10,0,0,0,0,20h93a10,10,0,0,0,0-20ZM132,180H90v6h42Zm29-53.76a1,1,0,0,0-.12-.47l-27-51.24A1,1,0,0,0,133,74H90a1,1,0,0,0-1,1v51H62a1,1,0,0,0-1,1v44a1,1,0,0,0,1,1h98a1,1,0,0,0,1-1Zm60-30,7.47-8.47-49.09,3.78,4.86,9.18ZM233.63,166H189.37a22.6,22.6,0,0,0,44.26,0Zm.37-8V93.58l-7,7.9.92,56.52ZM95,153h20v-8H95Z"/></svg>