<svg id="ART" xmlns="http://www.w3.org/2000/svg" viewBox="0 0 288 288"><defs><style>.cls-1{fill:#fcfbfa;}</style></defs><path class="cls-1" d="M221,221h-6V170a9,9,0,0,0-9-9H135a9,9,0,0,0-9,9v51H112v4l8,4H221l8-4v-4Zm-87,0V170a1,1,0,0,1,1-1h71a1,1,0,0,1,1,1v51Z"/><path class="cls-1" d="M120,189H104V146h32v9h8V138H96v51H64V128.46l56-58.67,56,58.67V155h8V125.25l-64-67L93,86.49V76H65v39.83l-9,9.42V197h64ZM73,84H85V94.87L73,107.44Z"/><circle class="cls-1" cx="114" cy="168" r="4"/><path class="cls-1" d="M177,199H163a9,9,0,0,0-9,9v9h8v-9a1,1,0,0,1,1-1h14a1,1,0,0,1,1,1v9h8v-9A9,9,0,0,0,177,199Z"/><path class="cls-1" d="M170,196a11.5,11.5,0,1,0-11.5-11.5A11.51,11.51,0,0,0,170,196Zm0-15a3.5,3.5,0,1,1-3.5,3.5A3.5,3.5,0,0,1,170,181Z"/></svg>