<svg id="ART" xmlns="http://www.w3.org/2000/svg" viewBox="0 0 288 288"><defs><style>.cls-1{fill:#312d2a;}</style></defs><path class="cls-1" d="M93.69,135H102a18.21,18.21,0,0,1,17.45-12h10a15.16,15.16,0,0,0,29,0h10A18.21,18.21,0,0,1,186,135h8.35a25.86,25.86,0,0,0-21.6-19.67,33.3,33.3,0,0,0,5.82-7.63l.8-1.4L168,60.93,168,61c-2.61-8.1-9.87-14-18.42-14H138.41c-9.59,0-17.56,7.36-19.15,17l-10.53,42.3.8,1.4a33.49,33.49,0,0,0,5.81,7.62A25.87,25.87,0,0,0,93.69,135ZM127,75.52a23.17,23.17,0,0,0,17-4.44,22.87,22.87,0,0,0,17,4.44v6.1c0,10.2-7.64,18.49-17,18.49s-17-8.29-17-18.49Zm17,50.27c-3.65,0-7-3-7-6.24V107.06a23.64,23.64,0,0,0,14,0v12.51C151,122.82,147.65,125.79,144,125.79Zm15-11.53V102.79a26.45,26.45,0,0,0,8.31-11.63l3.47,13.91A20.32,20.32,0,0,1,159,114.26ZM138.41,55h11.13c6.28,0,11.39,5.56,11.45,12.41-3.28.66-8.74.62-14.3-4.44L144,60.52,141.31,63c-5.58,5.08-11.07,5.1-14.35,4.44a12.67,12.67,0,0,1,.14-1.76l.69-2.79h0A11.52,11.52,0,0,1,138.41,55ZM120.7,91.33a26.54,26.54,0,0,0,8.3,11.5v11.41a20.3,20.3,0,0,1-11.72-9.17ZM229.05,126H228V121a19.36,19.36,0,0,0,6-14V93c0-9.87-5.75-16-15-16H193v29.24a20.59,20.59,0,0,0,6,14.42v11.12l1.11,1.1a18.13,18.13,0,0,0,13.26,5.87h.08A18.14,18.14,0,0,0,225.6,134H229c6.91,0,13,5.78,13,12.37V167h8V146.41C250,135.37,240.4,126,229.05,126ZM226,107c0,6.51-5.67,11.82-12.64,11.82A12.64,12.64,0,0,1,201,106.24V95.8a14.7,14.7,0,0,0,6,1.2h19Zm-7-22c1.52,0,5,0,6.42,4H207a5.08,5.08,0,0,1-5.51-4Zm-5.55,45.75h0a10,10,0,0,1-6.41-2.32v-2.7a19.57,19.57,0,0,0,6.36,1.09,21,21,0,0,0,6.64-1.08v2.59A9.93,9.93,0,0,1,213.45,130.75ZM89,120.66a20.59,20.59,0,0,0,6-14.42V77H69c-9.25,0-15,6.13-15,16v14a19.36,19.36,0,0,0,6,14V126H59c-11.36,0-21,9.33-21,20.37V167h8V146.41c0-6.59,6-12.37,13-12.37H62.4a18.14,18.14,0,0,0,12.15,4.71h.07a18.14,18.14,0,0,0,13.27-5.87L89,131.77ZM69,85H86.55A5.25,5.25,0,0,1,81,89H62.58C64,85,67.48,85,69,85ZM81,97a14.7,14.7,0,0,0,6-1.2v10.44a12.64,12.64,0,0,1-12.36,12.58c-7,0-12.64-5.31-12.64-11.82V97Zm-6.41,33.75h0A9.93,9.93,0,0,1,68,128.33v-2.59a21,21,0,0,0,6.64,1.08A19.57,19.57,0,0,0,81,125.73v2.7A10,10,0,0,1,74.59,130.75ZM89,245H200V141H89Zm8-96h95v88H97Zm23,52a15,15,0,1,0,15,15A15,15,0,0,0,120,201Zm0,22a7,7,0,1,1,7-7A7,7,0,0,1,120,223Zm-14.83-43.68,8.17-8.17L105.17,163l5.66-5.66L119,165.5l8.17-8.18,5.66,5.66-8.17,8.17,8.17,8.17L127.17,185,119,176.81,110.83,185ZM177.83,209l-8.17,8.17,8.17,8.17L172.17,231,164,222.81,155.83,231l-5.66-5.66,8.17-8.17L150.17,209l5.66-5.66L164,211.5l8.17-8.18ZM157,157h27v27h-8V170.84c-6.25,3.38-18.33,11.43-29.86,27.74a21,21,0,0,0-6.21-5.08c11.15-15.63,22.72-24.19,30.07-28.5H157Z"/></svg>