<?xml version="1.0" encoding="utf-8"?>
<!-- Generator: Adobe Illustrator 24.0.3, SVG Export Plug-In . SVG Version: 6.00 Build 0)  -->
<svg version="1.1" id="icon_art" xmlns="http://www.w3.org/2000/svg" xmlns:xlink="http://www.w3.org/1999/xlink" x="0px" y="0px"
	 viewBox="0 0 288 288" style="enable-background:new 0 0 288 288;" xml:space="preserve">
<style type="text/css">
	.st0{fill:#FCFBFA;}
</style>
<title>RMIL_Business_Billing_Air_RGB</title>
<path class="st0" d="M161.7,164c0,6.6-5.4,12-12,12H148v7h-8v-7h-12v-8h21.7c2.2,0,4-1.8,4-4c0-2.2-1.8-4-4-4h-11.4
	c-6.6,0-12-5.3-12-11.9c0.1-6.6,5.4-12,12-12.1h1.7v-7h8v7h12v8h-21.7c-2.2,0.1-4,1.9-4,4.1c0,2.2,1.8,3.9,4,3.9h11.4
	C156.3,152,161.7,157.4,161.7,164z M140,101H93v8h47V101z M93,89h69v-8H93V89z M214,80.3V229H74V48h107.7L214,80.3z M181,81h22.3
	L181,58.7V81z M206,89h-33V56H82v165h124V89z M74,239l8,4h124l8-4v-4H74V239z"/>
</svg>
