<svg xmlns="http://www.w3.org/2000/svg" viewBox="0 0 288 288"><defs><style>.cls-1{fill:#fcfbfa;}</style></defs><g id="ART"><path class="cls-1" d="M179.82,138.42H171.4a38.76,38.76,0,0,0-72.6,0H90.37a46.73,46.73,0,0,1,89.45,0ZM235,171H107.4L79.74,198.66l-16-16L75.45,171H55V154.89a9,9,0,0,1,9-9h3.92c4.54-33.6,33.81-59.42,68.22-59.42A69.12,69.12,0,0,1,165.39,93H195a9,9,0,0,1,9,9v36l31,13.43Zm-56.42-70A69.5,69.5,0,0,1,196,120.63V102a1,1,0,0,0-1-1ZM96.09,171H86.76L75.08,182.68l4.66,4.66ZM142,149H126v14h16Zm85,7.69-30.72-13.31-.45-2c-6.28-27.2-31.38-46.94-59.69-46.94C104.63,94.47,78,119,75.5,150.21l-.3,3.68H64a1,1,0,0,0-1,1V163h55V141h32v22h77Z"/></g></svg>