<?xml version="1.0" encoding="UTF-8"?>
<svg id="ART" xmlns="http://www.w3.org/2000/svg" viewBox="0 0 288 288">
  <defs>
    <style>
      .cls-1 {
        fill: #312d2a;
      }
    </style>
  </defs>
  <rect class="cls-1" x="70.99" y="114.15" width="100" height="8"/>
  <path class="cls-1" d="M113.46,214.15h-54.46V49.15h89.16c1.32-2.85,2.94-5.53,4.83-8H50.99v181h76.37c-4.58-2-8.85-4.68-12.71-8h-1.2Z"/>
  <path class="cls-1" d="M190.99,109.97c-1.26.11-2.53.18-3.82.18-1.4,0-2.8-.09-4.18-.23v29.69c.13.12.26.24.38.37,2.96,2.96,5.51,6.23,7.62,9.72v-39.72Z"/>
  <path class="cls-1" d="M204.73,210.14l-18.19-13.1c9.2-16.85,6.68-38.43-7.56-52.67-17.31-17.31-45.47-17.31-62.78,0-8.38,8.38-13,19.53-13,31.39s4.62,23.01,13,31.39c8.38,8.38,19.53,13,31.39,13,7.57,0,14.84-1.89,21.3-5.43l13.13,18.23c4.65,6.2,9.55,11.88,14.57,16.9l8,8,25.1-25.1-8-8c-5.02-5.02-10.71-9.92-16.96-14.61ZM147.6,212.14c-9.72,0-18.86-3.79-25.73-10.66-6.87-6.87-10.66-16.01-10.66-25.73s3.79-18.86,10.66-25.73c7.09-7.09,16.41-10.64,25.73-10.64s18.64,3.55,25.73,10.64c14.19,14.19,14.19,37.28,0,51.47-6.87,6.87-16.01,10.66-25.73,10.66ZM204.6,246.54l-2.34-2.34c-4.75-4.75-9.4-10.15-13.78-15.98l-12.94-17.96c1.19-.97,2.35-2,3.45-3.11,1.11-1.11,2.14-2.26,3.11-3.45l17.9,12.89c5.89,4.42,11.29,9.07,16.05,13.82l2.34,2.34-13.79,13.79Z"/>
  <path class="cls-1" d="M160.19,150.07h-25.19v13.09h-13.09v25.19h13.09v13.09h25.19v-13.09h13.09v-25.19h-13.09v-13.09ZM165.28,171.16v9.19h-13.09v13.09h-9.19v-13.09h-13.09v-9.19h13.09v-13.09h9.19v13.09h13.09Z"/>
  <path class="cls-1" d="M153.74,94.15h-82.75v8h91.32c-3.19-2.26-6.08-4.94-8.57-8Z"/>
  <path class="cls-1" d="M172.07,84.45h8.27l1.85-8.11h9.59l1.86,8.11h8.53l-11.08-38.53h-7.9l-11.13,38.53ZM187.02,55.36l3.29,14.42h-6.62l3.34-14.42Z"/>
  <path class="cls-1" d="M143.01,57.32l-5.66,5.66,16.83,16.83,16.83-16.83-5.66-5.66-7.03,7.03c1.41-14.68,13.82-26.21,28.86-26.21,10.89,0,20.62,6.1,25.56,15.3l5.85-5.85c-6.61-10.58-18.36-17.45-31.41-17.45-19.54,0-35.58,15.23-36.9,34.44l-7.27-7.27Z"/>
  <path class="cls-1" d="M220.18,54.49l-16.83,16.83,5.66,5.66,7.03-7.03c-1.41,14.68-13.82,26.21-28.86,26.21-10.89,0-20.62-6.1-25.56-15.3l-5.85,5.85c6.61,10.58,18.35,17.45,31.41,17.45,19.54,0,35.58-15.23,36.9-34.44l7.27,7.27,5.66-5.66-16.83-16.83Z"/>
  <polygon class="cls-1" points="70.99 74.29 70.99 82.29 148.18 82.29 140.18 74.29 70.99 74.29"/>
  <path class="cls-1" d="M70.99,174.15v8h26.41c-.26-2.11-.41-4.24-.41-6.4,0-.54.02-1.07.04-1.6h-26.04Z"/>
  <path class="cls-1" d="M101.81,154.15h-30.81v8h27.85c.76-2.75,1.74-5.43,2.96-8Z"/>
  <path class="cls-1" d="M111.82,139.97c2.17-2.17,4.51-4.11,6.98-5.82h-47.8v8h38.78c.66-.74,1.34-1.47,2.04-2.18Z"/>
</svg>