<svg id="ART" xmlns="http://www.w3.org/2000/svg" viewBox="0 0 288 288"><defs><style>.cls-1{fill:#fcfbfa;}</style></defs><path class="cls-1" d="M251,85v8H236V85Zm-75,0H161v8h15Zm59-30.65L224.38,65,230,70.62,240.65,60ZM210,44h-8V59h8ZM187.62,65,177,54.35,171.35,60,182,70.62ZM230,88.73c0,8.34-2.75,13.22-5,17.14-1.72,3-3.07,5.44-3.07,9.13v13l-16,8.4L190,128V115c0-3.69-1.35-6.09-3.06-9.13-2.2-3.92-4.94-8.8-4.94-17.14C182,75.87,193.13,65,206.3,65A23.76,23.76,0,0,1,230,88.73ZM214,119H198v4.17l8,4.21,8-4.21Zm8-30.27A15.77,15.77,0,0,0,206.3,73,16.24,16.24,0,0,0,190,88.73c0,6.24,1.9,9.63,3.92,13.22a28.89,28.89,0,0,1,3.71,9H202V98h8v13h4.37a28.82,28.82,0,0,1,3.73-9.06C220.12,98.36,222,95,222,88.73ZM106.09,165.21a9.91,9.91,0,1,0,9.91,9.9A9.91,9.91,0,0,0,106.09,165.21ZM158,161.39v27.5a14.56,14.56,0,0,1,6.68,3.82,14.75,14.75,0,0,1-20.86,20.86l-.2-.21-23.4,13.51a14.73,14.73,0,1,1-29,.26L67.38,213.36l-.2.21A14.75,14.75,0,1,1,53,188.89v-27.5a14.52,14.52,0,0,1-6.68-3.82,14.74,14.74,0,0,1,20.54-21.14l24.41-14.09a14.74,14.74,0,1,1,28.92.26l23.95,13.83a14.74,14.74,0,1,1,13.86,25Zm-8.52-19a6.84,6.84,0,0,0-1,1.28,6.73,6.73,0,0,0,5.61,10.23l-.09,4,.09-4a6.74,6.74,0,1,0-4.61-11.51ZM150,189V161.26a14.63,14.63,0,0,1-6.18-3.69l-.2-.22-11.21,6.47.45.43a38.17,38.17,0,0,1,6.66,9l1,1.89-1,1.9a38.28,38.28,0,0,1-6.62,8.93l11.23,6.49A14.68,14.68,0,0,1,150,189ZM139.84,206.3a14.7,14.7,0,0,1,.17-7l-13.83-8A38.2,38.2,0,0,1,110,197v18.56a14.73,14.73,0,0,1,6.18,3.69c.16.16.3.33.45.49ZM102,215.4V197a38.25,38.25,0,0,1-17-5.85l-14,8.11a14.7,14.7,0,0,1,.17,7L94.7,219.89c.2-.23.4-.46.62-.68A14.64,14.64,0,0,1,102,215.4ZM61,189a14.68,14.68,0,0,1,5.87,3.4l11.49-6.64A38.19,38.19,0,0,1,71.87,177l-1-1.9,1-1.89a38.73,38.73,0,0,1,6.66-9h0l.3-.29-11.45-6.61-.2.22A14.63,14.63,0,0,1,61,161.26Zm10-45.74a14.73,14.73,0,0,1,.19,7l14.47,8.35A38,38,0,0,1,102,153.18V133.89a14.57,14.57,0,0,1-6.68-3.82,6.52,6.52,0,0,1-.5-.55Zm39-9.53v19.49a37.93,37.93,0,0,1,15.58,5.28l14.26-8.23a14.73,14.73,0,0,1,.19-7l-23.52-13.58c-.11.12-.21.25-.33.36A14.52,14.52,0,0,1,110,133.76Zm21.37,41.35a30.41,30.41,0,0,0-47.18-5.2h0a30.39,30.39,0,0,0-4.17,5.2,30.38,30.38,0,0,0,51.35,0Zm-31.72-52.6a6.74,6.74,0,0,0,12.14.14h0a6.75,6.75,0,1,0-12.14-.14ZM52,151.92a6.81,6.81,0,0,0,4.93,2l.09,4-.09-4a6.73,6.73,0,0,0,5.61-10.23,6.84,6.84,0,0,0-1-1.28A6.75,6.75,0,1,0,52,151.92Zm10.76,54.34,3.55,1.85-3.55-1.85a6.74,6.74,0,0,0-5.83-9.85l.09-4-.09,4a6.74,6.74,0,1,0,5.83,9.85Zm49.09,20.47a6.86,6.86,0,0,0-1.31-1.86,6.73,6.73,0,0,0-10.92,2h0a6.75,6.75,0,1,0,12.23-.15ZM159,198.37a6.73,6.73,0,0,0-4.93-2l-.09-4,.09,4a6.74,6.74,0,0,0-5.83,9.85l-3.55,1.85,3.55-1.85a6.84,6.84,0,0,0,1.22,1.66,6.75,6.75,0,0,0,9.54-9.55ZM202,208h8v-8h-8Zm-14,0h8v-8h-8Zm-14,0h8v-8h-8Zm28-14h8v-8h-8Zm0-14h8v-8h-8Zm0-14h8v-8h-8Zm0-14h8v-8h-8Z"/></svg>