<svg id="ART" xmlns="http://www.w3.org/2000/svg" viewBox="0 0 288 288"><defs><style>.cls-1{fill:#312d2a;}</style></defs><path class="cls-1" d="M218,88v8H69V88ZM203.69,196H218v-8H195.06ZM69,196h82v-8H69Zm51-94.36,31,80H139.67l-7-19.69H96.88l-7,19.69h-11l30.91-80Zm9.46,51.48L114.7,112.31l-14.63,40.81Zm51.42-7.26q-11.12,0-17.33,5t-6.21,14a22.12,22.12,0,0,0,.28,3.52,14.8,14.8,0,0,1,8-2.41,16,16,0,0,1,1.71.11,15.71,15.71,0,0,1-.13-2q0-5.61,3.57-8.31t11.06-2.69h12.32V164a21,21,0,0,1-7,8,17.1,17.1,0,0,1-6.49,2.65l6.24,5.78a23.63,23.63,0,0,0,8.72-8l1.65,9.24H204V142.23Q204,123,182.29,123a53.83,53.83,0,0,0-10.12,1,44,44,0,0,0-9.57,2.92v8a80.18,80.18,0,0,1,10.67-3,46.23,46.23,0,0,1,8.91-.93q6.49,0,9.18,2.53c1.8,1.69,2.7,4.58,2.7,8.69v3.63Zm21.73,57.3a8.61,8.61,0,0,1-5.85,14.93h-.09l-2,0,8,18.27-20.83,9.17-8.05-18.28-1.5,1.66a8.72,8.72,0,0,1-9.65,2.25,8.57,8.57,0,0,1-5.61-8V180.65a8.61,8.61,0,0,1,14.47-6.34ZM197.16,209,166,180.17a.62.62,0,0,0-1,.46v42.51c0,.07,0,.35.46.53a.75.75,0,0,0,.86-.14l9.79-10.83,9.8,22.26,6.19-2.72L182.29,210l14.44.13a.55.55,0,0,0,.58-.38A.57.57,0,0,0,197.16,209Z"/></svg>