<?xml version="1.0" encoding="utf-8"?>
<!-- Generator: Adobe Illustrator 24.0.3, SVG Export Plug-In . SVG Version: 6.00 Build 0)  -->
<svg version="1.1" id="ART" xmlns="http://www.w3.org/2000/svg" xmlns:xlink="http://www.w3.org/1999/xlink" x="0px" y="0px"
	 viewBox="0 0 288 288" style="enable-background:new 0 0 288 288;" xml:space="preserve">
<style type="text/css">
	.st0{fill:#FCFBFA;}
</style>
<path class="st0" d="M235,67H53c-5,0-9,4-9,9v107c0,5,4,9,9,9l0,0h68.7l-2.9,21H109l-8,4v4h86v-4l-8-4h-9.8l-2.9-21H235c5,0,9-4,9-9
	l0,0V76C244,71,240,67,235,67z M53,75h182c0.6,0,1,0.4,1,1v92H52V76C52,75.4,52.4,75,53,75z M161.1,213h-34.2l2.9-21h28.5L161.1,213
	z M235,184H53c-0.6,0-1-0.4-1-1v-7h184v7C236,183.6,235.6,184,235,184z M73.6,101h0.2l3.3,38.3c0.3,3.2,3,5.7,6.2,5.7h2.5
	c-0.5,0.7-0.7,1.5-0.7,2.4c-0.1,2.5,1.8,4.6,4.3,4.7c2.5,0.1,4.6-1.8,4.7-4.3c0-0.1,0-0.3,0-0.4c0-0.8-0.2-1.7-0.7-2.4h19.6
	c-0.5,0.7-0.7,1.5-0.7,2.4c0,2.5,2,4.6,4.5,4.6c2.5,0,4.6-2,4.6-4.5c0-1-0.3-2-0.9-2.8l7.4-3.7v-4H84.9l-0.5-6H125
	c3.3,0,6.2-2.5,6.6-5.8l4.2-23.2H81.9l-0.3-3.4c-0.3-3.2-3-5.7-6.2-5.7H66v4l7.6,3.8V101z M126.2,110l-2.3,13H83.7l-1.1-13H126.2z
	 M150,106h68v8h-68V106z M150,120h68v8h-68V120z M150,134h51v8h-51V134z"/>
</svg>
