<svg id="ART" xmlns="http://www.w3.org/2000/svg" viewBox="0 0 288 288"><defs><style>.cls-1{fill:#312d2a;}</style></defs><path class="cls-1" d="M195,232h-6V181a9,9,0,0,0-9-9H109a9,9,0,0,0-9,9v51H86v4l8,4H195l8-4v-4Zm-87,0v-.34l16.1-16.1,13.8,12.87L166,200.7V221h8V187H140.14v8h20.25l-22.65,22.34-13.84-12.9L108,220.34V181a1,1,0,0,1,1-1h71a1,1,0,0,1,1,1v51Zm71-95H167V121a31.65,31.65,0,0,0,10-23V50H134c-14.4,0-23,9.34-23,25h0l-.12,23.37A32.79,32.79,0,0,0,121,122v15H109a38,38,0,0,0-38,38.1V199h8V175.1a30.21,30.21,0,0,1,30.16-30.18l15.07.08L144,165.81,163.78,145l15-.07A30.22,30.22,0,0,1,209,175.1V199h8V175.1A38,38,0,0,0,179,137ZM134,58h34.8c-1.43,13-9.86,13-12.8,13H119.24C120.35,62.37,125.3,58,134,58ZM118.88,98.37,119,79h37a20.3,20.3,0,0,0,13.06-4.18l.06,23.12A25.41,25.41,0,0,1,144,123C130.17,123,118.88,112,118.88,98.37ZM144,154.19,129,138.4v-11A33.45,33.45,0,0,0,144,131a32.26,32.26,0,0,0,15-3.73V138.4Z"/></svg>