<?xml version="1.0" encoding="UTF-8"?>
<svg id="ART" xmlns="http://www.w3.org/2000/svg" viewBox="0 0 288 288">
  <defs>
    <style>
      .cls-1 {
        fill: #fcfbfa;
      }
    </style>
  </defs>
  <rect class="cls-1" x="61.6" y="78.57" width="37" height="8"/>
  <path class="cls-1" d="M242.38,188.82c-3.08-5.73-6.95-10.94-11.5-15.49-25.87-25.87-67.96-25.87-93.83,0-4.55,4.55-8.42,9.76-11.5,15.49l-1.02,1.9,1.02,1.9c3.08,5.73,6.95,10.94,11.5,15.49,12.53,12.53,29.19,19.43,46.92,19.43s34.38-6.9,46.92-19.43c4.55-4.55,8.42-9.76,11.5-15.49l1.02-1.9-1.02-1.9ZM225.22,202.45c-11.02,11.02-25.67,17.09-41.26,17.09s-30.24-6.07-41.26-17.09c-3.49-3.49-6.53-7.43-9.05-11.73,2.52-4.3,5.56-8.23,9.05-11.73,22.75-22.75,59.77-22.75,82.52,0,3.49,3.49,6.53,7.43,9.05,11.73-2.52,4.3-5.56,8.23-9.05,11.73Z"/>
  <path class="cls-1" d="M184.68,170.41c-11.2,0-20.31,9.11-20.31,20.31s9.11,20.31,20.31,20.31,20.31-9.11,20.31-20.31-9.11-20.31-20.31-20.31Z"/>
  <path class="cls-1" d="M52.6,204.68v-100.11h50.84c2.81,0,5.5-1.34,7.19-3.59l10.83-14.41h106.14c.55,0,1,.45,1,1v72.93c2.33,1.82,4.58,3.78,6.71,5.91.44.44.87.89,1.29,1.34v-80.18c0-4.96-4.04-9-9-9h-106.2l-10.76-14.48c-1.69-2.27-4.39-3.63-7.22-3.63h-49.82c-4.96,0-9,4.04-9,9v143.22h86.49c-2.36-2.51-4.53-5.18-6.51-8H52.6ZM52.6,69.46c0-.55.45-1,1-1h49.82c.31,0,.61.15.8.4l10.21,13.74-10.2,13.57c-.19.25-.49.4-.8.4h-50.84v-27.11Z"/>
</svg>