<svg id="icon_art" data-name="icon art" xmlns="http://www.w3.org/2000/svg" viewBox="0 0 288 288"><defs><style>.cls-1{fill:#fcfbfa;}</style></defs><title>RMIL_Technology</title><path class="cls-1" d="M101.91,223c17.29,0,30.45-2.28,38.09-4.71v8.28c-.83.24-1.68.47-2.59.69-9.75,2.41-22.35,3.73-35.5,3.73Zm52-78.91a3.8,3.8,0,0,1,.06.59v84.64c0,5.39-5.7,9.37-17.42,12.18C127,243.74,114.39,245,101,245s-26-1.26-35.58-3.54C53.7,238.65,48,234.67,48,229.28V144.64a3.8,3.8,0,0,1,.06-.59.71.71,0,0,0,0-.14l0-.15c.79-4.85,6.46-8.5,17.3-11.15C75,130.28,87.6,129,101,129s26,1.28,35.6,3.61c10.84,2.65,16.51,6.3,17.3,11.15l0,.15A.71.71,0,0,0,153.94,144.05Zm-97.77.9c2.27,2.59,16.94,7.94,44.83,7.94s42.56-5.35,44.83-7.94c-2.27-2.6-16.94-7.95-44.83-7.95S58.44,142.35,56.17,145ZM146,210.35a52.63,52.63,0,0,1-9.42,3.07C127,215.7,114.39,217,101,217s-26-1.26-35.58-3.54A52.63,52.63,0,0,1,56,210.35V229c2,2.93,18.26,8,45,8s43.05-5.05,45-8Zm0-28a52.63,52.63,0,0,1-9.42,3.07C127,187.72,114.39,189,101,189s-26-1.26-35.58-3.55A52.63,52.63,0,0,1,56,182.36V201c2,2.93,18.26,8,45,8s43.05-5.05,45-8Zm0-28.2a51.59,51.59,0,0,1-9.4,3.12c-9.56,2.33-22.2,3.61-35.6,3.61s-26-1.28-35.6-3.61a51.59,51.59,0,0,1-9.4-3.12V173c2,2.93,18.26,8,45,8s43.05-5.06,45-8Zm94-95.52v84.64c0,5.39-5.7,9.37-17.42,12.18A128.79,128.79,0,0,1,204,158.29v-8c16.59-1.51,26.51-5,28-7.24V124.35a52.63,52.63,0,0,1-9.42,3.07A130.11,130.11,0,0,1,204,130.26v-8c16.59-1.51,26.51-5,28-7.24V96.36a52.63,52.63,0,0,1-9.42,3.07A127.79,127.79,0,0,1,204,102.27v-1l-.06-.77a14,14,0,0,0-2.12-6.09C219.7,93,230.44,89.33,232,87V68.16a51.59,51.59,0,0,1-9.4,3.12c-9.56,2.33-22.2,3.61-35.6,3.61s-26-1.28-35.6-3.61a51.59,51.59,0,0,1-9.4-3.12V79h-8V58.64a3.8,3.8,0,0,1,.06-.59.71.71,0,0,0,0-.14l0-.15c.79-4.85,6.46-8.5,17.3-11.15C161,44.28,173.6,43,187,43s26,1.28,35.6,3.61c10.84,2.65,16.51,6.3,17.3,11.15l0,.15a.71.71,0,0,0,0,.14A3.8,3.8,0,0,1,240,58.64Zm-8.17.31c-2.27-2.6-16.94-8-44.83-8s-42.56,5.35-44.83,8c2.27,2.59,16.94,7.94,44.83,7.94S229.56,61.54,231.83,59ZM101.91,175c13.15,0,25.75-1.33,35.5-3.73.91-.23,1.76-.46,2.59-.69v-8.28c-7.64,2.42-20.8,4.7-38.09,4.7Zm95-73.93a3.8,3.8,0,0,1,.06.59v84.64c0,5.39-5.7,9.37-17.42,12.18a131,131,0,0,1-19.58,2.9v-8c17.18-1.45,27.48-5,29-7.32V167.35a52.63,52.63,0,0,1-9.42,3.07A130.11,130.11,0,0,1,161,173.26v-8c16.59-1.51,26.51-5,28-7.24V139.36a52.63,52.63,0,0,1-9.42,3.07A127.79,127.79,0,0,1,161,145.27v-1l-.06-.77a14,14,0,0,0-2.12-6.09C176.7,136,187.44,132.33,189,130V111.16a51.59,51.59,0,0,1-9.4,3.12c-9.56,2.33-22.2,3.61-35.6,3.61s-26-1.28-35.6-3.61a51.59,51.59,0,0,1-9.4-3.12V122H91V101.64a3.8,3.8,0,0,1,.06-.59.71.71,0,0,0,0-.14l0-.15c.79-4.85,6.46-8.5,17.3-11.15C118,87.28,130.6,86,144,86s26,1.28,35.6,3.61c10.84,2.65,16.51,6.3,17.3,11.15l0,.15A.71.71,0,0,0,196.94,101.05Zm-8.11.9c-2.27-2.6-16.94-8-44.83-8s-42.56,5.35-44.83,8c2.27,2.59,16.94,7.94,44.83,7.94S186.56,104.54,188.83,102ZM101.91,203c13.15,0,25.75-1.33,35.5-3.74.91-.22,1.76-.45,2.59-.69v-8.28c-7.64,2.43-20.8,4.71-38.09,4.71Z"/></svg>