<?xml version="1.0" encoding="UTF-8"?>
<svg id="ART" xmlns="http://www.w3.org/2000/svg" version="1.1" viewBox="0 0 288 288">
  <defs>
    <style>
      .cls-1 {
        fill: #fcfbfa;
        stroke-width: 0px;
      }
    </style>
  </defs>
  <path class="cls-1" d="M215.5,112.1c0-1.4,0-2.9,0-4.3,0-3.1-.3-6.3-.8-9.4-.6-3.1-1.5-6.1-2.9-8.9-1.4-2.8-3.3-5.4-5.5-7.6-2.2-2.2-4.8-4.1-7.6-5.5-2.9-1.5-5.8-2.4-8.9-2.9-3.1-.6-6.3-.7-9.4-.8-1.4,0-2.9,0-4.3,0-1.7,0-3.4,0-5.1,0h-53.5c-1.7,0-3.4,0-5.1,0-1.4,0-2.9,0-4.3,0-3.1,0-6.3.3-9.4.8-3.1.6-6.1,1.5-8.9,2.9-2.8,1.4-5.4,3.3-7.6,5.5-2.2,2.2-4.1,4.8-5.5,7.6-1.5,2.9-2.4,5.8-2.9,8.9-.6,3.1-.7,6.3-.8,9.4,0,1.4,0,2.9,0,4.3,0,1.7,0,3.4,0,5.1v53.5c0,1.7,0,3.4,0,5.1,0,1.4,0,2.9,0,4.3,0,3.1.3,6.3.8,9.4.6,3.1,1.5,6.1,2.9,8.9,1.4,2.8,3.3,5.4,5.5,7.6,2.2,2.2,4.8,4.1,7.6,5.5,2.9,1.5,5.8,2.4,8.9,2.9,3.1.6,6.3.7,9.4.8,1.4,0,2.9,0,4.3,0,1.7,0,3.4,0,5.1,0h53.5c1.7,0,3.4,0,5.1,0,1.4,0,2.9,0,4.3,0,3.1,0,6.3-.3,9.4-.8,3.1-.6,6.1-1.5,8.9-2.9,2.8-1.4,5.4-3.3,7.6-5.5,2.2-2.2,4.1-4.8,5.5-7.6,1.5-2.9,2.4-5.8,2.9-8.9.6-3.1.7-6.3.8-9.4,0-1.4,0-2.9,0-4.3,0-1.7,0-3.4,0-5.1v-53.5c0-1.7,0-3.4,0-5.1ZM155,167.3c-.3,4-1,9.3-1.8,14.8-.6,3.9-1.1,6-1.5,7.5-.7,2.4-3.4,4.5-7.6,4.5s-6.9-2.1-7.6-4.5c-.4-1.5-.9-3.6-1.5-7.5-.8-5.4-1.5-10.8-1.8-14.8-.4-4.2-.5-6.8-.2-9.9.2-1.6.7-2.7,1.7-3.8,2-2.1,5.4-3.4,9.5-3.4s7.5,1.3,9.5,3.4c1,1.1,1.6,2.2,1.7,3.8.3,3.1.1,5.7-.2,9.9ZM126.9,157.1c.4.4.6.9.6,1.5,0,1.7,0,3.4,0,5.3,0,.5-.5.8-.9.5-8.2-5.6-13.6-15.1-13.5-25.8.2-16.3,13.3-29.7,29.6-30.4,17.5-.7,32,13.4,32,30.8s-5.3,19.9-13.5,25.4c-.4.3-1,0-.9-.5.1-1.9.1-3.5,0-5.2,0-.6.2-1.1.6-1.5,4.8-4.5,7.9-11,7.9-18.2,0-14.1-11.7-25.4-25.9-24.9-13.1.5-23.6,11.2-23.9,24.2-.2,7.4,2.9,14.1,7.9,18.8ZM154.7,135.2c0,5.9-4.8,10.7-10.7,10.7s-10.7-4.8-10.7-10.7,4.8-10.7,10.7-10.7,10.7,4.8,10.7,10.7ZM159.2,182.3c-.4.2-.9-.2-.8-.7.2-1.6.5-3.2.7-4.7,0-.5.4-1,.9-1.2,14.2-6.2,24.1-20.3,24.1-36.8s-18.2-40.3-40.4-40.1c-21.8.2-39.6,17.9-39.8,39.7-.2,16.6,9.8,30.9,24.1,37.1.5.2.9.7.9,1.2.2,1.6.4,3.1.7,4.7,0,.5-.4.8-.8.7-18.1-6.4-31-23.7-30.8-44,.3-25,20.8-45.3,45.8-45.4,25.4,0,46.1,20.6,46.1,46s-12.9,37.1-30.8,43.4Z"/>
</svg>