<svg id="ART" xmlns="http://www.w3.org/2000/svg" viewBox="0 0 288 288"><defs><style>.cls-1{fill:#312d2a;}</style></defs><path class="cls-1" d="M117,188.2h8V208h-8Zm68-14.12v48a8.91,8.91,0,0,1-9,8.88H112a8.91,8.91,0,0,1-9-8.88v-48a9,9,0,0,1,9-9h64A9,9,0,0,1,185,174.08Zm-8,0a1.07,1.07,0,0,0-1-1.08H112a1.07,1.07,0,0,0-1,1.08v48a1,1,0,0,0,1,1h64a1,1,0,0,0,1-1Zm34-5.34v24.14h-8V168.74A25.59,25.59,0,0,0,177,143H162.86c-1.12,8.75-9.46,16-18.89,16s-17.71-7.29-18.83-16H111a25.59,25.59,0,0,0-26,25.74v24.14H77V168.74a33.45,33.45,0,0,1,31.56-33.65A41.28,41.28,0,0,1,99,123.38L98.18,122l15-60.34.06,0C116.45,51.3,125.52,44,136.51,44h14.92c10.8,0,20,7.42,23.28,17.7l.18-.05,15,60.34-.8,1.39a41.47,41.47,0,0,1-9.59,11.72A33.44,33.44,0,0,1,211,168.74ZM144,115c13.23,0,24-11.66,24-26V79.32a29.23,29.23,0,0,1-5.38.5A30.25,30.25,0,0,1,144,73.24c-9.12,7-18,7.19-24,6.09V89C120,103.34,130.77,115,144,115Zm37.35,5.77-6.09-24.5A34.34,34.34,0,0,1,163,116.34v18.27C171.31,132.33,176.77,128.22,181.35,120.77ZM120,70v1.16c4.57,1.13,12.88,1.59,21.3-6.09l2.7-2.46,2.7,2.46c8.43,7.69,16.74,7.22,21.3,6.08V70c0-10.09-7.28-18-16.57-18H136.51C127.25,52,120,59.91,120,70Zm-13.28,50.77c4.57,7.43,10,11.54,18.28,13.82V116.34a34.36,34.36,0,0,1-12.22-19.91ZM155,141V120.93a30.26,30.26,0,0,1-22,0V141c0,5.16,5.33,10,11,10S155,146.16,155,141Z"/></svg>