<svg id="icon_art" data-name="icon art" xmlns="http://www.w3.org/2000/svg" viewBox="0 0 288 288"><defs><style>.cls-1{fill:#fcfbfa;}</style></defs><title>RMIL_Technology</title><polygon class="cls-1" points="233.21 137.06 227.78 142.94 239.77 154 209 154 209 162 239.77 162 227.78 173.06 233.21 178.94 255.9 158 233.21 137.06"/><polygon class="cls-1" points="60.22 141.94 54.79 136.06 32.1 157 54.79 177.94 60.22 172.06 48.23 161 79 161 79 153 48.23 153 60.22 141.94"/><polygon class="cls-1" points="140 53.23 140 84 148 84 148 53.23 159.06 65.22 164.94 59.79 144 37.1 123.06 59.79 128.94 65.22 140 53.23"/><path class="cls-1" d="M144,90c-21.91,0-59,3.71-59,17.63a4.93,4.93,0,0,0,0,.54,3.41,3.41,0,0,0,0,.46v96.2C85,218.38,122.09,222,144,222s59-3.62,59-17.17v-96.2a3.41,3.41,0,0,0-.05-.46,4.93,4.93,0,0,0,.05-.54C203,93.71,165.91,90,144,90Zm51,82.61c-1.17,2.16-15.62,9.31-51,9.31s-49.83-7.15-51-9.31V150.14c12.13,6,35.4,7.78,51,7.78s38.87-1.83,51-7.78Zm0-32c-1.17,2.16-15.62,9.31-51,9.31s-49.83-7.15-51-9.31V117.26c12.13,6.11,35.4,8,51,8s38.87-1.88,51-8ZM144,98c30.85,0,49.35,6.19,51,9.63-1.61,3.43-20.11,9.62-51,9.62s-49.35-6.19-51-9.62C94.65,104.19,113.15,98,144,98Zm0,116c-35.38,0-49.83-7.15-51-9.31V182.14c12.13,6,35.4,7.78,51,7.78s38.87-1.83,51-7.78v22.55C193.83,206.85,179.38,214,144,214Z"/><path class="cls-1" d="M144,141.92c14.76,0,28.91-1.49,39.85-4.2,1.86-.46,3.57-.94,5.15-1.45v-8.4c-8.1,3-23.79,6-45,6Z"/><path class="cls-1" d="M144,174c14.76,0,28.91-1.49,39.85-4.2,1.86-.46,3.57-.94,5.15-1.45v-8.4c-8.1,3-23.79,6.05-45,6.05Z"/><path class="cls-1" d="M144,205.92c14.76,0,28.91-1.49,39.85-4.19,1.86-.46,3.57-.94,5.15-1.45v-8.4c-8.1,3-23.79,6-45,6Z"/></svg>