<?xml version="1.0" encoding="utf-8"?>
<!-- Generator: Adobe Illustrator 24.0.3, SVG Export Plug-In . SVG Version: 6.00 Build 0)  -->
<svg version="1.1" id="ART" xmlns="http://www.w3.org/2000/svg" xmlns:xlink="http://www.w3.org/1999/xlink" x="0px" y="0px"
	 viewBox="0 0 288 288" style="enable-background:new 0 0 288 288;" xml:space="preserve">
<style type="text/css">
	.st0{fill:#FCFBFA;}
</style>
<path class="st0" d="M229.2,131.8l-1.8-23.6l-19.5,19.5l1.4,18.4l-4.9,4.9l0,0l-30.6,30.6c-4.7-1.6-9.8,0.9-11.4,5.7
	s0.9,9.8,5.7,11.4s9.8-0.9,11.4-5.7c0.6-1.9,0.6-3.9,0-5.7l30.6-30.6l0,0l4.9-4.9l18.4,1.4l19.5-19.5L229.2,131.8z M216.8,138.6
	l-0.6-7.9l4.6-4.6l0.6,7.9l-0.8,0.8L216.8,138.6z M230.3,144.8l-7.9-0.6l3.8-3.8l0.8-0.8l7.9,0.6L230.3,144.8z M85.8,85l8.2-8.2
	l8.2,8.2l5.7-5.7l-8.2-8.2l8.2-8.2l-5.7-5.7L94,65.5l-8.2-8.2L80.2,63l8.2,8.2l-8.2,8.2L85.8,85z M147.2,103.3l-8.2,8.2l-8.2-8.2
	l-5.7,5.7l8.2,8.2l-8.2,8.2l5.7,5.7l8.2-8.2l8.2,8.2l5.7-5.7l-8.2-8.2l8.2-8.2L147.2,103.3z M94,132.4c8.4,0,15.2-6.8,15.2-15.2
	s-6.8-15.2-15.2-15.2s-15.2,6.8-15.2,15.2C78.8,125.6,85.6,132.4,94,132.4z M94,109.9c4,0,7.2,3.2,7.2,7.2s-3.2,7.2-7.2,7.2
	s-7.2-3.2-7.2-7.2l0,0C86.8,113.1,90,109.9,94,109.9z M153,57h-27v8h11.8c-20.8,12.6-27.3,34.8-27.6,35.9l7.7,2.2
	c0.1-0.2,6.7-22.4,27.2-33V84h8V57z M118.6,155.1H74V51h85v77.2c2.6-0.5,5.3-0.8,8-1v-84H66V163h48
	C115.3,160.3,116.8,157.7,118.6,155.1z M171,173c0.9,0,1.8,0.1,2.6,0.2l6.5-6.5c-12.9-5-27.4,1.3-32.4,14.1s1.3,27.4,14.1,32.4
	c12.9,5,27.4-1.3,32.4-14.1c2.3-5.9,2.3-12.4,0-18.3l-6.5,6.5c0.1,0.9,0.2,1.7,0.2,2.6c0,9.4-7.6,17-17,17s-17-7.6-17-17
	S161.6,173,171,173z M214.1,161l-2.1,2.2c14.8,22.7,8.5,53.1-14.2,67.9c-22.7,14.8-53.1,8.5-67.9-14.2
	c-14.8-22.7-8.5-53.1,14.2-67.9c16.3-10.7,37.4-10.7,53.8,0l2.2-2.2l3.6-3.6c-25.8-18-61.4-11.7-79.5,14.1s-11.7,61.4,14.1,79.5
	s61.4,11.7,79.5-14.1c13.7-19.6,13.7-45.7,0-65.3L214.1,161z M189,157.9l3-3c-19.5-11.6-44.6-5.2-56.2,14.2s-5.2,44.6,14.2,56.2
	s44.6,5.2,56.2-14.2c7.7-13,7.7-29.1-0.1-42.1l-3,3l-2.8,2.8c8.4,16.2,2,36.1-14.1,44.5c-16.2,8.4-36.1,2-44.5-14.1
	c-8.4-16.2-2-36.1,14.1-44.5c9.5-4.9,20.8-4.9,30.3,0L189,157.9z"/>
</svg>
