<svg id="ART" xmlns="http://www.w3.org/2000/svg" viewBox="0 0 288 288"><defs><style>.cls-1{fill:#312d2a;}</style></defs><path class="cls-1" d="M133.42,121.17l8.17-8.17-8.17-8.17,5.66-5.66,8.17,8.17,8.17-8.17,5.66,5.66L152.91,113l8.17,8.17-5.66,5.66-8.17-8.17-8.17,8.17Zm67,24-8.17,8.17-8.17-8.17-5.66,5.66,8.17,8.17-8.17,8.17,5.66,5.66,8.17-8.17,8.17,8.17,5.66-5.66L197.91,159l8.17-8.17ZM132,159a15.25,15.25,0,1,1,15.25,15.25A15.27,15.27,0,0,1,132,159Zm8,0a7.25,7.25,0,1,0,7.25-7.25A7.26,7.26,0,0,0,140,159Zm23.43-16.34,7.64,2.38c.08-.25,7.23-22.37,26.93-33.37V126h8V99H179v8h11.27C170.7,120,163.76,141.59,163.43,142.66ZM247,86V202a14,14,0,0,1-14,14H55a14,14,0,0,1-14-14V86A14,14,0,0,1,55,72H233A14,14,0,0,1,247,86Zm-8,0a6,6,0,0,0-6-6H55a6,6,0,0,0-6,6V202a6,6,0,0,0,6,6H233a6,6,0,0,0,6-6ZM55,86H219V202H55Zm21.81,91.91C70,177.91,64,183.75,64,190.41V194h71v-3.59A12.22,12.22,0,0,0,123,178H111.79L99.66,191.47,87.21,178ZM87,141v10c0,6.51,5.67,11.82,12.64,11.82A12.64,12.64,0,0,0,112,150.24V139.8a14.7,14.7,0,0,1-6,1.2Zm19-8a5.25,5.25,0,0,0,5.55-4H94c-1.52,0-5,0-6.42,4ZM93,172.43l6.61,7.19,6.39-7.05v-2.84a19.57,19.57,0,0,1-6.36,1.09A21,21,0,0,1,93,169.74ZM63,94v81.31A20.89,20.89,0,0,1,76.82,170H85V165A19.36,19.36,0,0,1,79,151V137c0-9.87,5.75-16,15-16h26v29.24a20.59,20.59,0,0,1-6,14.42v5.42l9-.07a20.23,20.23,0,0,1,20,20.4V194h68V94Zm162,62h8V132h-8Z"/></svg>