<svg id="ART" xmlns="http://www.w3.org/2000/svg" viewBox="0 0 288 288"><defs><style>.cls-1{fill:#312d2a;}</style></defs><path class="cls-1" d="M207,29.35h-4V74h44.65V70A40.69,40.69,0,0,0,207,29.35ZM211,66V37.59A32.74,32.74,0,0,1,239.41,66ZM197,44h-4a41.24,41.24,0,0,0-23,7V61.18a33.19,33.19,0,0,1,19-8.94v30.1l-20.53,20.54a38.32,38.32,0,0,1-4.78,10,40.53,40.53,0,0,0,29,12.16C214.9,125,233,106.61,233,84V80H197Zm27.76,44c-1.94,16.32-15.6,29-32.11,29a32.44,32.44,0,0,1-20.07-6.93L194.66,88Zm-59,42.92L154,131v-15.5A32.71,32.71,0,0,0,164,92V44H121c-14.4,0-23,9.34-23,25h0l-.12,23.37A32.3,32.3,0,0,0,108,115.79V131l-11.82-.06A38.22,38.22,0,0,0,58,169.1V193h8V169.1a30.21,30.21,0,0,1,30.16-30.18l15.07.08L131,159.81,150.78,139l15-.07A30.22,30.22,0,0,1,196,169.1V193h8V169.1A38.22,38.22,0,0,0,165.8,130.92ZM121,52h34.8c-1.43,13-9.86,13-12.8,13H106.24C107.35,56.37,112.3,52,121,52ZM105.88,92.37,106,73h37a20.3,20.3,0,0,0,13.06-4.18l.06,23.12A25.41,25.41,0,0,1,131,117C117.17,117,105.88,106,105.88,92.37ZM131,148.19,116,132.4v-11A33.45,33.45,0,0,0,131,125a32.26,32.26,0,0,0,15-3.73V132.4ZM111,211a32.94,32.94,0,0,1,12,2.22v8.89a24.71,24.71,0,0,0-24,0v-8.89A32.94,32.94,0,0,1,111,211Zm40-28a32.94,32.94,0,0,1,12,2.22v8.89a24.71,24.71,0,0,0-24,0v-8.88A32.74,32.74,0,0,1,151,183Zm-40,0a32.74,32.74,0,0,1,12,2.23v8.88a24.71,24.71,0,0,0-24,0v-8.89A32.94,32.94,0,0,1,111,183Zm40,14a32.94,32.94,0,0,1,12,2.22v8.89a24.71,24.71,0,0,0-24,0v-8.88A32.74,32.74,0,0,1,151,197Zm-40,0a32.74,32.74,0,0,1,12,2.23v8.88a24.71,24.71,0,0,0-24,0v-8.89A32.94,32.94,0,0,1,111,197Zm40-28c-7.91,0-15.54,2.8-20,6.71-4.46-3.91-12.09-6.71-20-6.71-12.34,0-24,6.8-24,14v57h8c0-2.79,6.38-7,16-7s16,4.21,16,7h8c0-2.79,6.38-7,16-7s16,4.21,16,7h8V182h-.08C173.91,175.19,162.76,169,151,169Zm-40,56a33.47,33.47,0,0,0-16,3.73V183.19c.64-1.65,6.92-6.19,16-6.19s15.36,4.54,16,6.19v45.54A33.47,33.47,0,0,0,111,225Zm40,0a33.47,33.47,0,0,0-16,3.73V183.19c.64-1.65,6.92-6.19,16-6.19s15.36,4.54,16,6.19v45.54A33.47,33.47,0,0,0,151,225Z"/></svg>