<svg id="Icon_Art" data-name="Icon Art" xmlns="http://www.w3.org/2000/svg" viewBox="0 0 28.8 28.8">
  <defs>
    <style>
      .cls-1 {
        fill: #312d2a;
      }
    </style>
  </defs>
  <g>
    <path class="cls-1" d="M14.8,20.75V16.4h1.26a3.91,3.91,0,0,1,.38-.8H14.8V10.8h3a14.21,14.21,0,0,1,.2,2.4c0,.32,0,.64,0,1a4.6,4.6,0,0,1,.82-.35c0-.2,0-.39,0-.6a15.38,15.38,0,0,0-.18-2.4h3A7.64,7.64,0,0,1,22,13.2a8.66,8.66,0,0,1-.07.89,5.15,5.15,0,0,1,.75.5,9.09,9.09,0,0,0,.12-1.39,8.4,8.4,0,1,0-5.78,8,10.19,10.19,0,0,1-.78-1.5A2.75,2.75,0,0,1,14.8,20.75ZM21.28,10h-2.8a8.72,8.72,0,0,0-1.85-4.06A7.59,7.59,0,0,1,21.28,10ZM14.8,5.65c1.25.31,2.32,2,2.85,4.35H14.8Zm-2.63.29A8.72,8.72,0,0,0,10.32,10H7.52A7.59,7.59,0,0,1,12.17,5.94ZM6.8,13.2a7.64,7.64,0,0,1,.39-2.4h3a16.09,16.09,0,0,0,0,4.8h-3A7.64,7.64,0,0,1,6.8,13.2Zm.72,3.2h2.8a8.72,8.72,0,0,0,1.85,4.06A7.59,7.59,0,0,1,7.52,16.4ZM14,20.75c-1.25-.31-2.32-2-2.85-4.35H14Zm0-5.15H11a15.25,15.25,0,0,1,0-4.8h3ZM14,10H11.15c.53-2.33,1.6-4,2.85-4.35Z"/>
    <path class="cls-1" d="M20,14.2a3.6,3.6,0,0,0-3.6,3.6c0,2.38,3.18,5.73,3.31,5.88L20,24l.29-.3c.13-.15,3.31-3.5,3.31-5.88A3.6,3.6,0,0,0,20,14.2Zm0,8.6c-.77-.86-2.8-3.32-2.8-5a2.8,2.8,0,1,1,5.6,0C22.8,19.48,20.77,21.94,20,22.8Z"/>
    <path class="cls-1" d="M20,16.3a1.5,1.5,0,1,0,1.5,1.5A1.5,1.5,0,0,0,20,16.3Zm0,2.2a.7.7,0,1,1,.7-.7A.7.7,0,0,1,20,18.5Z"/>
  </g>
</svg>
