<svg id="ART" xmlns="http://www.w3.org/2000/svg" viewBox="0 0 288 288"><defs><style>.cls-1{fill:#312d2a;}</style></defs><path class="cls-1" d="M174.51,186H164V176a26.9,26.9,0,0,0,8-19V118H137c-11.84,0-18.93,7.78-19,20.82h0v18.52a26.34,26.34,0,0,0,7.94,18.83V186H114.49C99.88,186,88,198.11,88,213v18h8V213c0-10.3,8.47-19,18.49-19h13.24l17.15,18.22L162.05,194h12.46c10,0,18.49,8.7,18.49,19v18h8V213C201,198.11,189.12,186,174.51,186ZM137,126h26.74c-1.3,9-7.06,9-9.11,9H126.32C127.35,129.06,130.93,126,137,126Zm17.63,17a16.94,16.94,0,0,0,9.37-2.57v16.58a19.22,19.22,0,0,1-19,19,18.85,18.85,0,0,1-19-18.63V143Zm-9.75,57.51-10.94-11.62v-7.27A27.14,27.14,0,0,0,145,184,26.26,26.26,0,0,0,156,181.6v7.19ZM201.22,98.72,207,93a79.73,79.73,0,0,1,14.35,31.6,25.84,25.84,0,0,0-2.8-.16,25.11,25.11,0,0,0-5.31.57A71.75,71.75,0,0,0,201.22,98.72ZM125.37,71.19,121.24,64a79.77,79.77,0,0,1,46,.75L161,71h0l-.24.24a71.83,71.83,0,0,0-35.4,0ZM72.58,126H64.43A79.75,79.75,0,0,1,81.06,90.44l4.3,7.46A71.8,71.8,0,0,0,72.58,126Zm145.92,4.43a19.07,19.07,0,1,0,19.07,19.07A19.09,19.09,0,0,0,218.5,130.43Zm0,30.14a11.07,11.07,0,1,1,11.07-11.07A11.09,11.09,0,0,1,218.5,160.57ZM50,168H86V132H50Zm8-28H78v20H58Zm54.56-43L123,79,112.56,61H91.77L81.38,79,91.77,97ZM96.39,69h11.55l5.77,10-5.77,10H96.39L90.62,79Zm98.07,28L205,86.46V71.54L194.46,61H179.54L169,71.54V86.46L179.54,97ZM177,74.86,182.86,69h8.28L197,74.86v8.28L191.14,89h-8.28L177,83.14Z"/></svg>