<svg id="ART" xmlns="http://www.w3.org/2000/svg" viewBox="0 0 288 288"><defs><style>.cls-1{fill:#fcfbfa;}</style></defs><path class="cls-1" d="M58,168h50V146H58Zm8-14h34v6H66Zm-8,42h50V174H58Zm8-14h34v6H66ZM58,90h50v8H58Zm44,14H64v7H58v8h6v7h38v-7h6v-8h-6Zm-8,14H72v-6H94ZM58,132h50v8H58Zm0,70h50v8H58Zm0,14h50v8H58Zm148-70h-8v84H136V84h20V76H128V230h-6V76H44V230l-8,4v4H214v-4l-8-4ZM52,230V84h62V230Zm140-84H142v22h50Zm-8,14H150v-6h34Zm8,14H142v22h50Zm-8,14H150v-6h34ZM156,98H142V90h14Zm-14,13h6v-7h8v22h-8v-7h-6Zm0,21h14v8H142Zm50,78H142v-8h50Zm-50,6h50v8H142ZM162,47v93h89V47Zm44.84,32.21a17.79,17.79,0,0,0,10,3.1c.39,0,.78,0,1.15,0v3.17C218,92.25,212.8,98,206.68,98c-6,0-11-5.75-11-12.56V82.27A17.62,17.62,0,0,0,206.84,79.21Zm-3.67,26.42a16.74,16.74,0,0,0,7,0V114a3.23,3.23,0,0,1-3.49,3c-1.7,0-3.51-1-3.51-3Zm21.75-3.51a13.23,13.23,0,0,1-6.75,5.44V101.8a21,21,0,0,0,5.14-6.15Zm-7-27.85a10.61,10.61,0,0,1-8.36-3.09l-2.7-2.46-2.69,2.46a10.61,10.61,0,0,1-8.4,3.09s0-.08,0-.11l.49-2h0c1.1-3,3.7-5.2,6.57-5.2h8C214.33,67,217.43,70.29,217.9,74.27Zm-22.73,27.48v5.66a13.14,13.14,0,0,1-6.36-5.29l1.55-6.22A20.13,20.13,0,0,0,195.17,101.75Zm-2,14.16h2.2A11.6,11.6,0,0,0,218,116l.25-.07H221c6.39,0,11.21,5.33,11.21,12.4V132h-51v-3.69A12.2,12.2,0,0,1,193.15,115.91ZM243,132h-2.83v-3.69A20.27,20.27,0,0,0,229,109.76a26.18,26.18,0,0,0,3.64-5l.79-1.39-8.24-33.1h0c-2-6.47-7.77-11.28-14.36-11.28h-8c-7.33,0-13.62,6-14.89,13.51l-7.68,30.86.8,1.39a26.2,26.2,0,0,0,3.7,5.07,20.43,20.43,0,0,0-11.58,18.48V132H170V55h73Z"/></svg>