<svg id="ART" xmlns="http://www.w3.org/2000/svg" viewBox="0 0 288 288"><defs><style>.cls-1{fill:#312d2a;}</style></defs><title>RMIL_Personas</title><path class="cls-1" d="M179.51,135.1a41.47,41.47,0,0,0,9.59-11.72l.8-1.39-15-60.34-.18.05C171.43,51.42,162.23,44,151.43,44H136.51c-11,0-20.06,7.3-23.26,17.67l-.06,0L98.18,122l.79,1.39a41.28,41.28,0,0,0,9.59,11.71A33.45,33.45,0,0,0,77,168.74V192h8V168.74A25.59,25.59,0,0,1,111,143h14.14c1.12,8.75,9.43,16,18.83,16s17.77-7.29,18.89-16H177a25.59,25.59,0,0,1,26,25.74V192h8V168.74A33.44,33.44,0,0,0,179.51,135.1Zm-56.9-34.33A21.82,21.82,0,0,0,131,104.4a7,7,0,1,0,.86-8c-5.12-1.33-10.09-5.42-11.49-17,6,1,14.68.64,23.6-6.16a30.25,30.25,0,0,0,18.62,6.58,29.23,29.23,0,0,0,5.38-.5V89c0,14.34-10.77,26-24,26C134.68,115,126.58,109.2,122.61,100.77ZM163,134.61V116.34a34.34,34.34,0,0,0,12.26-20.07l6.09,24.5C176.77,128.22,171.31,132.33,163,134.61ZM136.51,52h14.92C160.72,52,168,59.91,168,70v1.15c-4.56,1.14-12.87,1.61-21.3-6.08L144,62.61l-2.7,2.46c-8.42,7.68-16.73,7.22-21.3,6.09V70C120,59.91,127.25,52,136.51,52ZM112.78,96.43A34.36,34.36,0,0,0,125,116.34v18.25c-8.26-2.28-13.71-6.39-18.28-13.82ZM144,151c-5.64,0-11-4.88-11-10V120.93a30.26,30.26,0,0,0,22,0V141C155,146.16,149.64,151,144,151Zm-54.8-40.13a14,14,0,0,1,0-19.8l5.66,5.65a6,6,0,0,0,0,8.49Zm-9.9-29.7,5.66,5.65a20,20,0,0,0,0,28.29l-5.66,5.66A28,28,0,0,1,79.27,81.21ZM75,125.05l-5.66,5.66a42.06,42.06,0,0,1,0-59.4L75,77A34,34,0,0,0,75,125.05Z"/><path class="cls-1" d="M188,232V181a9,9,0,0,0-9-9H109a9,9,0,0,0-9,9v51H86v4l8,4H194l8-4v-4Zm-50.1,0,5-5-2.12-2.12,3.74-3.74L155.34,232Zm42.1,0H166.66l-16.5-16.5,5.45-5.45,6.83-1.74,6.27-13.44-3.58-3.58-13.44,6.27L150,204.39l-5.45,5.45-3.57-3.57a11,11,0,0,0-1-10.64l-4.11-4.38h0l-8.5-2.84-2.83,2.83,7.79,7.79L128,203.27l-7.79-7.79-2.83,2.83,2.84,8.5,2.83,2.83a11,11,0,0,0,12.19,2.29l3.57,3.57-3.74,3.74L133,217.12,118.13,232l0,0H108V181a1,1,0,0,1,1-1h70a1,1,0,0,1,1,1Z"/></svg>