<svg id="icon_art" data-name="icon art" xmlns="http://www.w3.org/2000/svg" viewBox="0 0 288 288"><defs><style>.cls-1{fill:#fcfbfa;}</style></defs><title>RMIL_Technology</title><path class="cls-1" d="M86.34,71.08a92.95,92.95,0,0,1,150.43,66.49l11.4-11.4,5.66,5.66L233,152.66l-20.83-20.83,5.66-5.66L228.69,137A84.91,84.91,0,0,0,91.51,77.21,33.67,33.67,0,0,0,86.34,71.08ZM36.08,95.54A27.46,27.46,0,1,1,63.54,123,27.49,27.49,0,0,1,36.08,95.54Zm8,0A19.46,19.46,0,1,0,63.54,76.08,19.48,19.48,0,0,0,44.08,95.54Zm25.34,89.88-7,3.91a94,94,0,0,0,9.09,13.38l6.21-5.05A85.29,85.29,0,0,1,69.42,185.42Zm7.48,23.34a93.44,93.44,0,0,0,12.24,10.6l4.69-6.48a84.46,84.46,0,0,1-11.18-9.69Zm118.66,2.46a84.52,84.52,0,0,1-10.72,7.08l3.88,7a94.85,94.85,0,0,0,12.34-8.22A33.58,33.58,0,0,1,195.56,211.22Zm-31.32,15.23,1.95,7.76a93.41,93.41,0,0,0,15.29-5.29l-3.26-7.31A85.94,85.94,0,0,1,164.24,226.45Zm-43.91-.73-2.18,7.69c2.57.73,5.21,1.36,7.85,1.87s5.35.91,8,1.19l.83-7.95c-2.44-.26-4.92-.63-7.34-1.1S122.69,226.38,120.33,225.72ZM95.9,223.81a93.09,93.09,0,0,0,14.56,7.06l2.85-7.48A85.47,85.47,0,0,1,100,217ZM142.25,229l-.13,8h1.6a93.06,93.06,0,0,0,14.54-1.15l-1.26-7.9A85.55,85.55,0,0,1,142.25,229ZM250,191.46A27.46,27.46,0,1,1,222.54,164,27.49,27.49,0,0,1,250,191.46Zm-8,0a19.46,19.46,0,1,0-19.46,19.46A19.48,19.48,0,0,0,242,191.46ZM76,92.56l-5.64-5.67-9.26,9.2L56.7,91.7l-5.64,5.67,10,10Zm109.6,79.22c0,12.17-34.08,12.78-40.91,12.78s-40.9-.61-40.9-12.78V109.26a3.39,3.39,0,0,1,.07-.64,5.82,5.82,0,0,1-.07-.73c0-12.17,34.07-12.79,40.9-12.79s40.91.62,40.91,12.79a5.82,5.82,0,0,1-.07.73,4.48,4.48,0,0,1,.07.64v62.52ZM111.81,116.2v11.69c2.19,2,13.62,5.39,32.9,5.39s30.72-3.44,32.91-5.39V116.2c-10.52,4.18-28.19,4.47-32.91,4.47S122.32,120.38,111.81,116.2Zm0,33.33c2.19,1.95,13.62,5.39,32.9,5.39s30.72-3.44,32.91-5.39V136.81c-10.52,4.18-28.19,4.47-32.91,4.47s-22.39-.29-32.9-4.47Zm.9-41.64c3.58,2,14.6,4.78,32,4.78s28.42-2.8,32-4.78c-3.59-2-14.6-4.79-32-4.79S116.29,105.9,112.71,107.89Zm64.91,63.28V158.45c-10.52,4.18-28.19,4.47-32.91,4.47s-22.39-.29-32.9-4.47v12.72c2.19,2,13.62,5.39,32.9,5.39S175.43,173.12,177.62,171.17ZM52.34,126.35h0v0Zm9.91,42.23c-.12-.38-.22-.76-.32-1.14-.2-.69-.4-1.37-.58-2.06a84.61,84.61,0,0,1-2.66-18l11.48,11.49,5.66-5.66L59,136.32c0-.06,0-.11,0-.16l-4-4-4,4.05c0,.06,0,.12,0,.18L34.17,153.17l5.66,5.66L50.69,148A95.21,95.21,0,0,0,51.8,158.9h0c.44,2.66,1,5.31,1.64,7.93h0l.18.63c.19.73.4,1.46.61,2.19.12.42.23.84.36,1.26.34,1.14.71,2.27,1.1,3.4h0c.92,2.64,1.94,5.24,3.09,7.79l7.3-3.29A85.1,85.1,0,0,1,62.25,168.58Zm165.92,12.59L223,186.34l-5.17-5.17-5.66,5.66,5.17,5.17-5.17,5.17,5.66,5.66,5.17-5.17,5.17,5.17,5.66-5.66L228.66,192l5.17-5.17Z"/></svg>