<svg id="icon_art" data-name="icon art" xmlns="http://www.w3.org/2000/svg" viewBox="0 0 288 288"><defs><style>.cls-1{fill:#fcfbfa;}</style></defs><title>RMIL_Technology</title><path class="cls-1" d="M124,152h40V128H124Zm8-16h24v8H132Z"/><path class="cls-1" d="M124,182h40V158H124Zm8-16h24v8H132Z"/><path class="cls-1" d="M156,98H132v8h-8v8h8v8h24v-8h8v-8h-8Zm-8,16h-8v-8h8Z"/><rect class="cls-1" x="124" y="84" width="40" height="8"/><rect class="cls-1" x="124" y="188" width="40" height="8"/><rect class="cls-1" x="124" y="202" width="40" height="8"/><path class="cls-1" d="M264,226l-8-4h-4V64H184V222h-6V64H110V222h-6V64H36V222H32l-8,4v4H264ZM44,222V72H96V222Zm74,0V72h52V222Zm74,0V72h52V222Z"/><path class="cls-1" d="M50,152H90V128H50Zm8-16H82v8H58Z"/><path class="cls-1" d="M50,182H90V158H50Zm8-16H82v8H58Z"/><path class="cls-1" d="M82,98H58v8H50v8h8v8H82v-8h8v-8H82Zm-8,16H66v-8h8Z"/><rect class="cls-1" x="50" y="84" width="40" height="8"/><rect class="cls-1" x="50" y="188" width="40" height="8"/><rect class="cls-1" x="50" y="202" width="40" height="8"/><path class="cls-1" d="M198,152h40V128H198Zm8-16h24v8H206Z"/><path class="cls-1" d="M198,182h40V158H198Zm8-16h24v8H206Z"/><path class="cls-1" d="M230,98H206v8h-8v8h8v8h24v-8h8v-8h-8Zm-8,16h-8v-8h8Z"/><rect class="cls-1" x="198" y="84" width="40" height="8"/><rect class="cls-1" x="198" y="188" width="40" height="8"/><rect class="cls-1" x="198" y="202" width="40" height="8"/></svg>