<svg id="ART" xmlns="http://www.w3.org/2000/svg" viewBox="0 0 288 288"><defs><style>.cls-1{fill:#fcfbfa;}</style></defs><path class="cls-1" d="M179.5,144.12c-9.26-2-21.87-3.12-35.5-3.12s-26.24,1.11-35.5,3.12C96.73,146.67,91,150.56,91,156v85.28c0,5.39,5.7,9.37,17.42,12.18C118,255.74,130.61,257,144,257s26-1.26,35.58-3.54c11.72-2.81,17.42-6.79,17.42-12.18V156C197,150.56,191.27,146.67,179.5,144.12ZM144,149c28.48,0,43.17,4.66,45,7.26v.47c-1.9,2.92-18.21,8-45,8s-43.1-5.07-45-8v-.47C100.83,153.66,115.52,149,144,149Zm45,35.73c-1.9,2.92-18.21,8-45,8s-43.1-5.07-45-8V166.11a52.63,52.63,0,0,0,9.42,3.07c9.55,2.28,22.19,3.54,35.58,3.54s26-1.26,35.58-3.54a52.63,52.63,0,0,0,9.42-3.07ZM189,213c-1.9,2.93-18.21,8-45,8s-43.1-5.07-45-8V194.11a52.63,52.63,0,0,0,9.42,3.07c9.55,2.28,22.19,3.54,35.58,3.54s26-1.26,35.58-3.54a52.63,52.63,0,0,0,9.42-3.07Zm-45,36c-28.53,0-43.31-5.54-45-8V222.35a52.63,52.63,0,0,0,9.42,3.07C118,227.7,130.61,229,144,229s26-1.26,35.58-3.54a52.63,52.63,0,0,0,9.42-3.07V241C187.31,243.46,172.53,249,144,249Z"/><path class="cls-1" d="M108.09,80a31.57,31.57,0,0,1,20.71,8.7c6.91,6.78,10.65,17.07,11.14,30.58l-9.3-9.3L125,115.64l19.21,19.21,19.21-19.21L157.74,110l-9.7,9.7c.43-13.71,4.18-24.13,11.16-31A31.7,31.7,0,0,1,179.89,80h.54a18.82,18.82,0,0,1,0-8H180a39.26,39.26,0,0,0-26.33,10.88,38.65,38.65,0,0,0-5.71,7V60.57a18.82,18.82,0,0,1-8,0V89.92a38.65,38.65,0,0,0-5.71-7A39.2,39.2,0,0,0,108,72h-.39a18.82,18.82,0,0,1,0,8Z"/><path class="cls-1" d="M199,63a13,13,0,1,0,13,13A13,13,0,0,0,199,63Zm0,18a5,5,0,1,1,5-5A5,5,0,0,1,199,81Z"/><path class="cls-1" d="M102,76A13,13,0,1,0,89,89,13,13,0,0,0,102,76ZM89,81a5,5,0,1,1,5-5A5,5,0,0,1,89,81Z"/><path class="cls-1" d="M144,55a13,13,0,1,0-13-13A13,13,0,0,0,144,55Zm0-18a5,5,0,1,1-5,5A5,5,0,0,1,144,37Z"/></svg>