<svg id="ART" xmlns="http://www.w3.org/2000/svg" viewBox="0 0 288 288"><defs><style>.cls-1{fill:#2f2925;}</style></defs><path class="cls-1" d="M99,109.29l-22,8v-8.2l-20,8V98H35v61H99ZM91,151H43V106h6v22.91l20-8v7.8l22-8Z"/><rect class="cls-1" x="49" y="137" width="8" height="8"/><rect class="cls-1" x="63" y="137" width="8" height="8"/><rect class="cls-1" x="77" y="137" width="8" height="8"/><path class="cls-1" d="M163.49,208V194H106V233h7.1a6,6,0,1,0,11.8,0h7.2a6,6,0,1,0,11.8,0h20.2a6,6,0,1,0,11.8,0H182V218.67L174,208Zm-8,16.95H114V202h41.49V225Zm8-8.95H170l4,5.33V225H163.49Z"/><rect class="cls-1" x="214" y="117" width="8" height="8"/><rect class="cls-1" x="186" y="117" width="8" height="8"/><path class="cls-1" d="M236,131V109.67a9,9,0,0,0,2.61-12.9L233.06,89H174.94l-5.55,7.77a9,9,0,0,0,2.61,12.9V131l-8,4v4h80v-4Zm-60.1-29.58L179.06,97h49.88l3.16,4.42a1,1,0,0,1,.07,1,.93.93,0,0,1-.89.54H176.72a.93.93,0,0,1-.89-.54A1,1,0,0,1,175.9,101.42ZM208,131V117h-8v14H180V111h48v20Z"/><path class="cls-1" d="M144,66a77.6,77.6,0,0,1,48.53,17h12A85.93,85.93,0,0,0,66.45,106.85l11.79-4.72A78,78,0,0,1,144,66Z"/><path class="cls-1" d="M68.9,165H60.6A86.35,86.35,0,0,0,100,217.85v-9.5A78.3,78.3,0,0,1,68.9,165Z"/><path class="cls-1" d="M183.8,211.05l4.87,6.39A86,86,0,0,0,230,145h-8A78,78,0,0,1,183.8,211.05Z"/></svg>