<svg id="ART" xmlns="http://www.w3.org/2000/svg" viewBox="0 0 288 288"><defs><style>.cls-1{fill:#312d2a;}</style></defs><path class="cls-1" d="M107.23,206l-1.37-5a197.4,197.4,0,0,1-5.58-29.38l3.72-13V149a12,12,0,0,0-9-11.61V135h4V118a13.24,13.24,0,0,0-13.44-13H84.44A13.24,13.24,0,0,0,71,118v17h4v2.39A12,12,0,0,0,66,149v9.51l3.62,14A199.08,199.08,0,0,1,64.14,201l-1.37,5H74v27.5L67,237v4h36v-4l-7-3.5V206ZM83,134a15.61,15.61,0,0,0,2.06.15h.15A15.07,15.07,0,0,0,87,134v5.67a9.2,9.2,0,0,1-4,0Zm-4-16a5.24,5.24,0,0,1,5.44-5h1.12A5.24,5.24,0,0,1,91,118v2.32a5.9,5.9,0,0,1-5.87,5.83,6.29,6.29,0,0,1-4.51-1.71,5.61,5.61,0,0,1-1.62-4V118Zm0,31.06v-2.31a16.31,16.31,0,0,0,12,0v2.31A205.79,205.79,0,0,0,96.84,198H73.16A205.79,205.79,0,0,0,79,149.06ZM88,233H82V206h6Zm143-72V100c0-7.85-6.59-14-15-14h-8V78.28A17.9,17.9,0,0,0,213,66V54a7.73,7.73,0,0,0-8-8H177V66a18,18,0,0,0,5,12.68V86h-8a16.51,16.51,0,0,0-4.55.63A16.22,16.22,0,0,0,165,86h-8V78.68A18,18,0,0,0,162,66V46H134a7.73,7.73,0,0,0-8,8V66a17.9,17.9,0,0,0,5,12.28V86h-8c-8.41,0-15,6.15-15,14v61h13v72.5l-7,3.5v4H225.86v-4L218,233.08V161Zm-13-8v-5h5v5ZM190,83.33a19,19,0,0,0,5,.67,17.34,17.34,0,0,0,5-.75v5.21L195,94l-5-5.56Zm-5-18.81A13,13,0,0,0,191,66h14a10.26,10.26,0,0,1-10,10,9.57,9.57,0,0,1-10-10ZM205,58H191a5.91,5.91,0,0,1-5.37-4H205ZM184.22,94,195,106l10.78-12H216c3.44,0,7,2.24,7,6v40h-5V110h-8v27H180V110h-8v30h-5V100c0-3.76,3.56-6,7-6ZM172,233h0l-2.56,1.28-2.41-1.2V161h5v72Zm-5-85h5v5h-5ZM139,83.25a17.34,17.34,0,0,0,5,.75,19,19,0,0,0,5-.67v5.13l-.54.61a6,6,0,0,1-8.92,0l-.54-.61ZM144,76a10.26,10.26,0,0,1-10-10h14a13,13,0,0,0,6-1.48V66A9.57,9.57,0,0,1,144,76Zm9.37-22A5.91,5.91,0,0,1,148,58H134V54ZM123,94h10.22l.37.42a14,14,0,0,0,20.82,0l.37-.42h5.64a13.43,13.43,0,0,0-1.42,6v37H129V110h-8v30h-5V100C116,96.24,119.56,94,123,94Zm-7,59v-5h5v5Zm24,6v74H129V145h30v88H148V159Zm51,0v74H180V145h30v88H199V159Z"/></svg>