<svg id="ART" xmlns="http://www.w3.org/2000/svg" viewBox="0 0 288 288"><defs><style>.cls-1{fill:#fcfbfa;}</style></defs><path class="cls-1" d="M211,90.27V66c0-8.27-7.18-15-16-15h-4c-8.82,0-16,6.73-16,15V89.54A15.82,15.82,0,0,0,165,86h-8V78.28A17.9,17.9,0,0,0,162,66V54a7.73,7.73,0,0,0-8-8H126V66a18,18,0,0,0,5,12.68V86h-8c-8.41,0-15,6.15-15,14v61h13v72.5l-7,3.5v4h60v-4l-7-3.5V164h5v28h5v49h32V192h5V164h13V109A19.29,19.29,0,0,0,211,90.27ZM219,109v34h-5V114h-8v25H180V114h-8v29h-5V109a11.15,11.15,0,0,1,11-11h5.93a12,12,0,0,0,18.26,0H208A11.15,11.15,0,0,1,219,109Zm-26,75H180V147h26v37Zm-3-95.65a19.31,19.31,0,0,0,3.05.26l.87,0a20.63,20.63,0,0,0,2.11-.23v4.58a4,4,0,0,1-3,1.29A4.16,4.16,0,0,1,190,92.94Zm3.55-7.75a10.4,10.4,0,0,1-7.63-2.78,9.36,9.36,0,0,1-2.84-5.64A15.14,15.14,0,0,0,193,70a14.82,14.82,0,0,0,8,2.34,15.27,15.27,0,0,0,2-.13A9.53,9.53,0,0,1,193.55,80.6ZM191,59h4c3.26,0,6.7,2,7.7,5.14a7.56,7.56,0,0,1-7-2.1L193,59.59,190.31,62a7.44,7.44,0,0,1-7,2.08C184.32,61,187.75,59,191,59ZM139,83.33a19,19,0,0,0,5,.67,17.34,17.34,0,0,0,5-.75v5.21L144,94l-5-5.56Zm-5-18.81A13,13,0,0,0,140,66h14a10.26,10.26,0,0,1-10,10,9.57,9.57,0,0,1-10-10ZM154,58H140a5.91,5.91,0,0,1-5.37-4H154ZM123,94h10.22L144,106l10.78-12H165a7.84,7.84,0,0,1,1.37.12A19.06,19.06,0,0,0,159,109v28H129V110h-8v30h-5V100C116,96.24,119.56,94,123,94Zm-7,59v-5h5v5Zm43,80H148V159h-8v74H129V145h30v88Zm8-77v-5h5v5Zm22.06,36v29H185V192ZM185,229h4.06v4H185Zm12,4v-4h4v4Zm4-12h-4V192h4Zm13-65v-5h5v5ZM107.23,206l-1.37-5a197.4,197.4,0,0,1-5.58-29.38l3.72-13V149a12,12,0,0,0-9-11.61V135h4V118a13.24,13.24,0,0,0-13.44-13H84.44A13.24,13.24,0,0,0,71,118v17h4v2.39A12,12,0,0,0,66,149v9.51l3.62,14A199.08,199.08,0,0,1,64.14,201l-1.37,5H74v27.5L67,237v4h36v-4l-7-3.5V206ZM83,134a15.61,15.61,0,0,0,2.06.15h.15A15.07,15.07,0,0,0,87,134v5.67a9.2,9.2,0,0,1-4,0Zm-4-16a5.24,5.24,0,0,1,5.44-5h1.12A5.24,5.24,0,0,1,91,118v2.32a5.9,5.9,0,0,1-5.87,5.83h-.07a6.25,6.25,0,0,1-4.44-1.71,5.61,5.61,0,0,1-1.62-4V118Zm0,31.06v-2.31a16.31,16.31,0,0,0,12,0v2.31A205.79,205.79,0,0,0,96.84,198H73.16A205.79,205.79,0,0,0,79,149.06ZM88,233H82V206h6Z"/></svg>