<svg id="ART" xmlns="http://www.w3.org/2000/svg" viewBox="0 0 288 288"><defs><style>.cls-1{fill:#312d2a;}</style></defs><path class="cls-1" d="M237,241V138.86l-48,21.2V139l-47.67,20.28L134.55,103h-23L103,164.45l0,.28V198H90a30,30,0,0,0-30,30v13H51l-8,4v4H245v-4Zm-134,0H97V226H89v15H82V228a8,8,0,0,1,8-8h13Zm8-75.73L118.49,111h9l7.22,59.77L181,151.05v21.29l48-21.2V241h-6V226H193v15h-6V226H157v15h-6V226H121v15H111V165.27ZM201,241v-7h14v7Zm-36,0v-7h14v7Zm-36,0v-7h14v7ZM68,228a22,22,0,0,1,22-22h13v6H90a16,16,0,0,0-16,16v13H68Zm74-8H121v-8h21Zm27,0H148v-8h21Zm27,0H175v-8h21Zm0-14H175v-8h21Zm-27,0H148v-8h21Zm-27,0H121v-8h21Zm81,14H202v-8h21Zm0-14H202v-8h21ZM120,97h-8V92a30,30,0,0,1,30-30h17.72A18,18,0,0,1,177,39v8a10,10,0,0,0-7.66,16.43A4,4,0,0,1,166.28,70H142a22,22,0,0,0-22,22Zm67.55-26H180V63h7.55A15.47,15.47,0,0,0,203,47.55V39h8v8.55a23.44,23.44,0,0,1-9.39,18.76A14.5,14.5,0,0,1,188.5,87H140a6,6,0,0,0-6,6v4h-8V93a14,14,0,0,1,14-14h48.5a6.51,6.51,0,0,0,6.5-6.5,6.42,6.42,0,0,0-.53-2.54A23.55,23.55,0,0,1,187.55,71Z"/></svg>