<svg id="ART" xmlns="http://www.w3.org/2000/svg" viewBox="0 0 288 288"><defs><style>.cls-1{fill:#fcfbfa;}</style></defs><path class="cls-1" d="M211,90.27V66c0-8.27-7.18-15-16-15h-4c-8.82,0-16,6.73-16,15V90.27a18.76,18.76,0,0,0-5.46,1.81A18.69,18.69,0,0,0,161,90h-4V85l0,0H164V66c0-8.27-7.18-15-16-15h-4c-8.82,0-16,6.73-16,15V85h7.1v5H131a19.25,19.25,0,0,0-19,19v55h13v65h5v12h32V229h5V164h5v28h5v49h32V192h5V164h13V109A19.29,19.29,0,0,0,211,90.27ZM219,109v34h-5V114h-8v25H180V114h-8v29h-5V109a11.15,11.15,0,0,1,11-11h5.93a12,12,0,0,0,18.26,0H208A11.15,11.15,0,0,1,219,109Zm-26,75H180V147h26v37Zm-2.9-95.65a18.07,18.07,0,0,0,3,.26l.87,0a20.63,20.63,0,0,0,2.11-.23v4.58a4.05,4.05,0,0,1-5.93,0Zm3.45-7.75a10.45,10.45,0,0,1-7.63-2.78,9.36,9.36,0,0,1-2.84-5.64A15.14,15.14,0,0,0,193,70a14.82,14.82,0,0,0,8,2.34,15.27,15.27,0,0,0,2-.13A9.53,9.53,0,0,1,193.55,80.6ZM191,59h4c3.26,0,6.7,2,7.7,5.14a7.56,7.56,0,0,1-7-2.1L193,59.59,190.31,62a7.44,7.44,0,0,1-7,2.08C184.31,61,187.75,59,191,59ZM138.92,77.82a9.36,9.36,0,0,1-2.84-5.64A15.14,15.14,0,0,0,146,70a14.82,14.82,0,0,0,8,2.34,15.27,15.27,0,0,0,2-.13,9.53,9.53,0,0,1-9.37,8.39A10.4,10.4,0,0,1,138.92,77.82ZM144,59h4c3.26,0,6.7,2,7.7,5.14a7.56,7.56,0,0,1-7-2.1L146,59.59,143.31,62a7.44,7.44,0,0,1-7,2.08C137.32,61,140.75,59,144,59Zm2.05,29.61.87,0a20.63,20.63,0,0,0,2.11-.23v4.58a4.05,4.05,0,0,1-5.93,0V88.35A18.07,18.07,0,0,0,146.05,88.61ZM131,98h5.93a12,12,0,0,0,18.26,0H161a10.25,10.25,0,0,1,1.56.12A18.63,18.63,0,0,0,159,109v34H133V114h-8v29h-5V109A11.15,11.15,0,0,1,131,98Zm-11,58v-5h5v5Zm18,73h4.06v4H138Zm12,4v-4h4v4Zm9-12h-9V159h-7.94v62H133V151h26v70Zm8-65v-5h5v5Zm22.06,36v29H185V192ZM185,229h4.06v4H185Zm12,4v-4h4v4Zm4-12h-4V192h4Zm13-65v-5h5v5ZM98,137H96v-6.09a13.77,13.77,0,0,0,5-10.59V118a13.24,13.24,0,0,0-13.44-13H86.44A13.24,13.24,0,0,0,73,118v2.43a13.53,13.53,0,0,0,4,9.69c.33.32.66.62,1,.9v6H76c-6,0-10,6.21-10,12v9.6l4,13V198h0v8h6v27.5L69,237v4h36v-4l-7-3.5V206h6v-8h0V171.62l4-13V149C108,143.21,104,137,98,137Zm-20,8h.18A13.19,13.19,0,0,0,87,147.89,13.19,13.19,0,0,0,95.82,145H96v26H78Zm3-27a5.24,5.24,0,0,1,5.44-5h1.12A5.24,5.24,0,0,1,93,118v2.32a5.89,5.89,0,0,1-5.86,5.83,6.4,6.4,0,0,1-4.52-1.71,5.61,5.61,0,0,1-1.62-4Zm6.06,16.15h.15c.27,0,.53,0,.79-.05v5.73c-.31,0-.64.06-1,.06s-.69,0-1-.06V134.1C86.35,134.12,86.7,134.15,87.06,134.15ZM90,233H84V206h6Zm1-35V185H83v13H78V179H96v19Z"/></svg>