<svg id="ART" xmlns="http://www.w3.org/2000/svg" viewBox="0 0 288 288"><defs><style>.cls-1{fill:#fcfbfa;}</style></defs><path class="cls-1" d="M89.26,129.51c0-.06,0-.13.07-.2.16-.39.34-.78.51-1.17.09-.19.17-.38.26-.56a31.56,31.56,0,0,1,6.15-8.73L89.77,92.79c-.31-8.57-7.09-15.69-15.1-15.69h-8c-7.33,0-13.62,6-14.88,13.52l-7.68,30.85.79,1.39a26.48,26.48,0,0,0,3.6,5,20,20,0,0,0-11.37,18.26L37,165l8,0V146a11.9,11.9,0,0,1,12-12.08l2.1,0,.11,0a11.6,11.6,0,0,0,22.62.22l2,0a12,12,0,0,1,3.85.63,31.34,31.34,0,0,1,1-3.83h0C88.87,130.51,89.06,130,89.26,129.51ZM54.19,114A20.29,20.29,0,0,0,59,119.85v5.66a13.18,13.18,0,0,1-6.36-5.29Zm5.33-10.46v-3.17a17.66,17.66,0,0,0,11.16-3.06,17.66,17.66,0,0,0,10,3.1c.4,0,.78,0,1.15,0v3.17c0,6.81-5.16,12.56-11.27,12.56C64.56,116.1,59.52,110.35,59.52,103.54Zm27.34,10.69,1.49,6A13.21,13.21,0,0,1,82,125.51V119.9A20.74,20.74,0,0,0,86.86,114.23ZM66.65,85.1h8c2.84,0,5.42,2.17,6.54,5.12l-.31.08.52,2.09a10.67,10.67,0,0,1-8-3.11l-2.69-2.46L68,89.28a10.59,10.59,0,0,1-8.39,3.09s0-.07,0-.11l.49-2h0C61.18,87.31,63.78,85.1,66.65,85.1Zm3.87,50c-1.71,0-3.52-1-3.52-3v-8.37a17.73,17.73,0,0,0,3.52.37,17.49,17.49,0,0,0,3.48-.37v8.36A3.22,3.22,0,0,1,70.52,135.1Zm180.37,11a19.94,19.94,0,0,0-11.38-18.28,26.15,26.15,0,0,0,3.61-5l.79-1.39-7.68-30.85C235,83.06,228.68,77.1,221.35,77.1h-8c-8,0-14.79,7.12-15.1,15.69l-6.48,26.06a31.71,31.71,0,0,1,6.15,8.73c.09.18.17.37.25.55.18.39.36.79.52,1.19l.06.15c.2.51.39,1,.57,1.54h0a31,31,0,0,1,1,3.84,12.26,12.26,0,0,1,3.9-.64l2,0a11.6,11.6,0,0,0,22.62-.22l.11,0,2.06,0A11.9,11.9,0,0,1,243,146v19l8,0ZM206,125.51a13.21,13.21,0,0,1-6.35-5.29l1.49-6A20.74,20.74,0,0,0,206,119.9Zm.21-22v-3.17c.37,0,.75,0,1.15,0a17.74,17.74,0,0,0,10-3.1,17.66,17.66,0,0,0,11.16,3.06v3.17c0,6.81-5,12.56-11,12.56S206.21,110.35,206.21,103.54ZM233.81,114l1.55,6.22a13.18,13.18,0,0,1-6.36,5.29v-5.66A20.29,20.29,0,0,0,233.81,114ZM213.33,85.1h8c2.87,0,5.47,2.21,6.57,5.2h0l.49,2s0,.07,0,.1A10.56,10.56,0,0,1,220,89.28l-2.7-2.46-2.69,2.46a10.63,10.63,0,0,1-8,3.11l.52-2.09-.31-.08C207.91,87.27,210.49,85.1,213.33,85.1Zm4.15,50a3.22,3.22,0,0,1-3.48-3v-8.36a17.49,17.49,0,0,0,3.48.37,17.73,17.73,0,0,0,3.52-.37v8.37C221,134.05,219.19,135.1,217.48,135.1Zm-98-20.1a26.63,26.63,0,0,0-25.58,20h8.46a18.77,18.77,0,0,1,17.12-12h7.41l17,13.5,17-13.5h7.67a18.77,18.77,0,0,1,17.12,12h8.46a26.63,26.63,0,0,0-25.58-20H163V105a26.9,26.9,0,0,0,8-19V47H136c-11.84,0-18.93,7.78-19,20.82h0V86.38a26.34,26.34,0,0,0,7.94,18.83V115ZM136,55h26.74c-1.3,9-7.06,9-9.11,9H125.32C126.35,58.06,129.93,55,136,55Zm17.63,17A16.94,16.94,0,0,0,163,69.47V86.05a19.22,19.22,0,0,1-19,19,18.85,18.85,0,0,1-19-18.63V72ZM144,113A26.26,26.26,0,0,0,155,110.6v6.85l-11.09,8.83-10.94-8.7v-6.92A27.14,27.14,0,0,0,144,113ZM89,245H200V141H89Zm8-96h95v88H97Zm23,52a15,15,0,1,0,15,15A15,15,0,0,0,120,201Zm0,22a7,7,0,1,1,7-7A7,7,0,0,1,120,223Zm-14.83-43.68,8.17-8.17L105.17,163l5.66-5.66L119,165.5l8.17-8.18,5.66,5.66-8.17,8.17,8.17,8.17L127.17,185,119,176.81,110.83,185ZM177.83,209l-8.17,8.17,8.17,8.17L172.17,231,164,222.81,155.83,231l-5.66-5.66,8.17-8.17L150.17,209l5.66-5.66L164,211.5l8.17-8.18ZM157,157h27v27h-8V170.84c-6.25,3.38-18.33,11.43-29.86,27.74a21,21,0,0,0-6.21-5.08c11.15-15.63,22.72-24.19,30.07-28.5H157Z"/></svg>