<svg id="ART" xmlns="http://www.w3.org/2000/svg" viewBox="0 0 288 288"><defs><style>.cls-1{fill:#312d2a;}</style></defs><path class="cls-1" d="M146.75,131.62a11.71,11.71,0,0,0-1.45,1.79l-34.16-7.31a17.23,17.23,0,0,1-2,7.76l34.46,7.37a11,11,0,0,0,9.43,9.28l7.66,34.92a17,17,0,0,1,7.76-2l-7.63-34.74a10.58,10.58,0,0,0,1.65-1.35,11.14,11.14,0,0,0,2.22-12.57l22.16-22.15a16.7,16.7,0,0,1-3-2.39,17.3,17.3,0,0,1-2.58-3.33L159,129.25A11.15,11.15,0,0,0,146.75,131.62Zm5.66,5.66a3.15,3.15,0,0,1,4.45,0,3.14,3.14,0,1,1-4.45,0ZM203.87,106a11.15,11.15,0,1,0-7.88,3.26A11.17,11.17,0,0,0,203.87,106Zm-10.11-10.1a3.15,3.15,0,1,1,0,4.45A3.17,3.17,0,0,1,193.76,95.92ZM101.89,118a11.14,11.14,0,1,0,0,15.76A11.15,11.15,0,0,0,101.89,118Zm-5.65,10.1a3.14,3.14,0,0,1-4.45-4.44,3.15,3.15,0,0,1,4.45,0A3.15,3.15,0,0,1,96.24,128.09Zm64.61,64.62a11.14,11.14,0,1,0,15.76,0A11.17,11.17,0,0,0,160.85,192.71ZM171,202.81a3.14,3.14,0,0,1-4.45-4.44,3.15,3.15,0,0,1,4.45,0A3.15,3.15,0,0,1,171,202.81Zm-59.84-77.48a17.07,17.07,0,0,0-2.1-7.72l69.85-19.13a17.14,17.14,0,0,0,2,7.75Zm76.57-12.2a17.06,17.06,0,0,0,7.71,2.12L176.85,185.5a17.07,17.07,0,0,0-7.74-2ZM159.78,186a16.89,16.89,0,0,0-3.17,2.48,16.57,16.57,0,0,0-2.48,3.17L103,140.48a17,17,0,0,0,3.17-2.49,16.63,16.63,0,0,0,2.49-3.17ZM65.09,96H45a9,9,0,0,0-9,9v38a9,9,0,0,0,9,9H65.09A8.93,8.93,0,0,0,74,143V105A8.93,8.93,0,0,0,65.09,96ZM45,104H65.09a1,1,0,0,1,1,1v25H44V105A1,1,0,0,1,45,104Zm20.09,40H45a1,1,0,0,1-1-1v-5H66.09v5A1,1,0,0,1,65.09,144ZM180,222.45V251h22V234h6v17h22V222.45l-25-27.38ZM222,243h-6V226H194v17h-6V225.55l17-18.62,17,18.62ZM253,59.67a8,8,0,0,0-4.92-7.39l-8.81-3.67-9-9A8.94,8.94,0,0,0,223.93,37H199.09A9,9,0,0,0,191,42l-5.87,11.75a9.08,9.08,0,0,0-.81,5.64L186.66,72h9.43a6.64,6.64,0,0,0-.09,1,6,6,0,0,0,12,0,6.64,6.64,0,0,0-.09-1h22.18a6.64,6.64,0,0,0-.09,1,6,6,0,0,0,12,0,6.64,6.64,0,0,0-.09-1H253ZM245,64H193.34l-1.11-6.08a1.1,1.1,0,0,1,.09-.62l5.88-11.75a1,1,0,0,1,.89-.55h24.84a1,1,0,0,1,.71.29l10.09,10.1L245,59.67Z"/></svg>