<?xml version="1.0" encoding="UTF-8"?>
<svg id="ART" xmlns="http://www.w3.org/2000/svg" version="1.1" viewBox="0 0 288 288">
  <!-- Generator: Adobe Illustrator 29.0.1, SVG Export Plug-In . SVG Version: 2.1.0 Build 192)  -->
  <defs>
    <style>
      .st0 {
        fill: #fcfbfa;
      }
    </style>
  </defs>
  <path class="st0" d="M179.702173,227.37338h-.009997c2.583857-2.797217,4.650934-5.227718,6.211242-7.291451,1.556976-2.063758,2.693869-3.927459,3.414012-5.587796.716811-1.660337,1.076889-3.280662,1.076889-4.860976,0-3.887448-1.260247-6.894719-3.780755-9.018482-2.520507-2.127095-6.057886-3.18731-10.60546-3.18731-2.130427,0-4.324204.293396-6.577985.880176-2.253781.586793-4.264186,1.386946-6.024539,2.400486v6.497962c4.180844-2.267122,8.074956-3.400671,11.682349-3.400671,5.20438,0,7.80823,2.147088,7.80823,6.437957,0,1.053551-.286719,2.177103-.860171,3.370681s-1.526974,2.623868-2.857235,4.284205c-1.333606,1.660337-3.127293,3.704076-5.381074,6.134552l-11.742353,12.632539v5.101019h28.469048v-6.194582h-18.447037s7.624859-8.19831,7.624833-8.19831Z"/>
  <path class="st0" d="M220.953785,214.220743h0c-1.967049-1.196911-4.284205-1.7937-6.948059-1.7937-2.583857,0-4.877636.66679-6.884722,2.003728.820172-1.296927,1.863701-2.813904,3.137302-4.554238l8.545059-11.662343h-8.178317l-7.684876,10.56878c-4.837625,6.641321-7.254797,12.635871-7.254797,17.980266,0,4.940999,1.39361,8.808428,4.180831,11.602338,2.787221,2.793911,6.617996,4.190853,11.498965,4.190853,3.197307,0,5.974531-.646797,8.331673-1.943724,2.357142-1.293594,4.190828-3.107287,5.504441-5.437746,1.310255-2.327127,1.967049-5.031018,1.967049-8.10829,0-2.993943-.543449-5.587796-1.630322-7.774895s-2.613846-3.877451-4.580921-5.07103h-.003307ZM217.659794,233.924707h0c-1.53697,1.663669-3.637408,2.493837-6.301262,2.493837s-4.754295-.820172-6.271247-2.46049c-1.516977-1.640318-2.273787-3.937456-2.273787-6.894719,0-1.093562.060005-2.103744.183371-3.037286,2.00706-4.010814,5.081026-6.014543,9.221846-6.014543,2.337123,0,4.210846.840165,5.627807,2.520495,1.413629,1.68033,2.120431,3.897444,2.120431,6.651343,0,2.833897-.770164,5.081026-2.307159,6.741363Z"/>
  <path class="st0" d="M236.810287,197.107325v.006664c-1.053551,0-2.130427.106693-3.227322.316734-1.096895.213373-2.077087.500105-2.937245.860183v3.027264c2.170439-.783493,4.104166-1.180224,5.804489-1.180224,1.140238,0,1.933727.190035,2.387157.573439s.676812,1.106891.676812,2.167106v.796821h-3.190642c-2.237107,0-3.99746.496773-5.287722,1.496959-1.28693,1.000211-1.933727,2.370471-1.933727,4.11083,0,1.636986.510102,2.93058,1.533638,3.887448,1.023536.956867,2.40715,1.433622,4.144177,1.433622,1.140238,0,2.180435-.253372,3.127306-.750145.946845-.500105,1.730338-1.206907,2.357142-2.120431l.546781,2.483841h2.610514v-11.375624c0-3.824111-2.203786-5.734488-6.611357-5.734488ZM237.840513,211.050119c-.706802.413418-1.460305.620114-2.257126.620114-.860183,0-1.526974-.236711-2.000396-.716798s-.710134-1.140238-.710134-1.9904c0-1.870365,1.296927-2.803907,3.900776-2.803907h2.803907v3.153963h0c-.450097.746813-1.0302,1.323609-1.74036,1.737027h.003332Z"/>
  <rect class="st0" x="247.482441" y="190.899415" width="4.484237" height="3.183978"/>
  <polygon class="st0" points="246.355532 197.46739 246.355532 199.057713 248.062544 200.301299 248.062544 214.224075 252 214.224075 252 197.46739 246.355532 197.46739"/>
  <path class="st0" d="M67.216277,112.947111c6.644666-3.450692,11.278927-9.555254,12.709217-16.746688,1.797026-9.025146,7.944931-16.61667,16.449966-20.310737,4.427552-1.923718,9.295192-2.703878,14.079489-2.253787,7.558177.713479,14.806297-1.970394,19.863985-7.358145,7.07809-7.531513,17.096757-11.852378,27.492176-11.852378,14.29954,0,27.15878,7.861576,33.556726,20.514114,3.347343,6.617996,9.488559,11.338938,16.850037,12.945928,4.327523.943519,8.445018,2.617191,12.229117,4.974327,16.373294,10.192042,22.487853,30.859525,14.612942,48.02964h-26.111907v8.981802h31.643005l1.28693-2.360474h0c11.862375-21.734363,4.577588-49.079847-16.586655-62.249151-4.674272-2.907249-9.761963-4.974333-15.113022-6.144567-4.67094-1.020204-8.56172-4.007469-10.678818-8.191646-7.951589-15.71982-23.924794-25.481777-41.691699-25.481777-12.915926,0-25.365081,5.364407-34.153515,14.722954-3.117297,3.320667-7.61153,4.974333-12.339142,4.527574-6.321268-.590119-12.755893.436756-18.600393,2.97393-11.222248,4.874311-19.340548,14.89299-21.711025,26.798709-.896844,4.510907-3.820766,8.348347-8.018277,10.528782-15.389751,7.991601-25.341749,22.964608-26.625341,40.054701l-.360072,4.824296h38.917807v-8.981802h-28.835784c2.357142-11.939066,10.012009-22.167787,21.130903-27.945605h.003351Z"/>
  <path class="st0" d="M202.183337,191.422845v-64.379572c0-6.164567-6.46464-10.745487-19.763969-13.999479h.013341c-10.862177-2.663867-25.235062-4.127491-40.468119-4.127491s-29.60261,1.463624-40.468119,4.124159c-13.299329,3.253992-19.763963,7.831568-19.763963,13.999479v97.24617c0,6.054554,6.47463,10.532101,19.79731,13.682757,10.85218,2.56717,25.211724,3.980799,40.431439,3.980799,4.650934,0,9.221846-.133363,13.636069-.390067v-8.995131c-4.230852.25673-8.781758.403422-13.636069.403422-30.392767,0-48.933142-5.677815-51.14026-8.971806v-21.567665c2.87724,1.290262,6.434625,2.440497,10.705476,3.450704,10.85218,2.56717,25.211724,3.980799,40.431439,3.980799,4.650934,0,9.221846-.133363,13.636069-.390067v-8.995131c-4.230852.25673-8.781758.403422-13.636069.403422-30.449439,0-48.986495-5.697808-51.14026-8.985135v-21.474314c2.87724,1.290262,6.434625,2.440484,10.705476,3.450692,10.85218,2.567183,25.215057,3.980799,40.431439,3.980799s29.579259-1.413616,40.431439-3.980799c4.270851-1.010207,7.831568-2.157097,10.705488-3.450692v21.00421h9.091815l.000025-.000064ZM141.964603,117.901438c30.119376,0,48.426385,5.70114,51.00022,9.138503-2.570515,3.440695-20.880857,9.138503-51.000232,9.138503s-48.426372-5.70114-51.000232-9.138503c2.570515-3.440695,20.880857-9.138503,51.000245-9.138503ZM141.964603,168.861659c-30.449439,0-48.986495-5.697808-51.14026-8.985135v-22.377815c2.867244,1.320265,6.414619,2.500502,10.672141,3.540711,10.865509,2.660535,25.235062,4.124159,40.468119,4.124159s29.602597-1.463624,40.468119-4.124159c4.257522-1.04021,7.801565-2.220447,10.672129-3.540711v22.377815c-2.150433,3.290658-20.690821,8.985135-51.140247,8.985135Z"/>
</svg>