<?xml version="1.0" encoding="utf-8"?>
<!-- Generator: Adobe Illustrator 24.0.3, SVG Export Plug-In . SVG Version: 6.00 Build 0)  -->
<svg version="1.1" id="ART" xmlns="http://www.w3.org/2000/svg" xmlns:xlink="http://www.w3.org/1999/xlink" x="0px" y="0px"
	 viewBox="0 0 288 288" style="enable-background:new 0 0 288 288;" xml:space="preserve">
<style type="text/css">
	.st0{fill:#FCFBFA;}
</style>
<path class="st0" d="M104,220h-6v-5c0-5-4-9-9-9H75c-5,0-9,4-9,9v5h-6v-44h31.2c-1.8-2.5-3.5-5.2-4.9-8H52v60h60v-33.9
	c-2.8-1.5-5.5-3.1-8-5V220z M74,215c0-0.6,0.4-1,1-1h14c0.6,0,1,0.4,1,1v5H74V215z M70.5,191.5c0,6.4,5.1,11.5,11.5,11.5
	s11.5-5.1,11.5-11.5S88.4,180,82,180C75.7,180,70.5,185.2,70.5,191.5z M85.5,191.5c0,1.9-1.6,3.5-3.5,3.5s-3.5-1.6-3.5-3.5
	s1.6-3.5,3.5-3.5S85.5,189.6,85.5,191.5z M97.4,98.3l0.1-0.1C96.3,94.5,92.9,92,89,92H75c-5,0-9,4-9,9l0,0v5h-6V62h44v30.6
	c2.5-1.9,5.2-3.5,8-5V54H52v60h34.2C89,108.2,92.8,102.9,97.4,98.3z M74,101c0-0.6,0.4-1,1-1h14c0.6,0,1,0.4,1,1v5H74V101z
	 M70.5,77.5C70.5,83.9,75.6,89,82,89s11.5-5.1,11.5-11.5S88.4,66,82,66l0,0C75.7,66,70.5,71.2,70.5,77.5z M85.5,77.5
	c0,1.9-1.6,3.5-3.5,3.5s-3.5-1.6-3.5-3.5S80.1,74,82,74S85.5,75.6,85.5,77.5z M208.5,76.5c0-6.4-5.1-11.5-11.5-11.5
	s-11.5,5.1-11.5,11.5S190.6,88,197,88l0,0C203.3,88,208.5,82.8,208.5,76.5z M193.5,76.5c0-1.9,1.6-3.5,3.5-3.5s3.5,1.6,3.5,3.5
	S198.9,80,197,80S193.5,78.4,193.5,76.5z M175,61h44v44h-6v-5c0-5-4-9-9-9h-14c-4,0-7.5,2.6-8.6,6.4c0.3,0.3,0.7,0.6,1,0.9
	c4.3,4.3,7.9,9.3,10.8,14.7H227V53h-60v34.2c2.8,1.4,5.5,3,8,4.9V61z M205,105h-16v-5c0-0.6,0.4-1,1-1h14c0.6,0,1,0.4,1,1V105z
	 M223,195.7c-5.4-5.4-11.1-10.3-17.1-14.9l-18.6-13.9c14.3-26.1,4.8-58.9-21.3-73.2S107,88.9,92.7,115s-4.8,58.9,21.3,73.2
	c16.1,8.9,35.7,8.9,51.9,0l14.8,19.7c3.3,4.6,7,9,11,13l13.4,13.5l28.3-28.3L223,195.7z M107.3,108.2c18-18,47.2-18,65.2,0
	c16.1,16.1,18.1,41.6,4.5,59.9c-2.1-6.4-7.3-11.4-13.8-13.1c1.1-1.3,2-2.6,2.8-4.1l0.8-1.4l-8.2-33.1l0,0c-2-6.5-7.8-11.3-14.4-11.3
	h-8c-7.3,0-13.6,6-14.9,13.5l-7.7,30.9l0.8,1.4c0.8,1.4,1.7,2.8,2.8,4c-6.7,1.7-12.1,6.8-14.2,13.4C89.3,150,91.2,124.4,107.3,108.2
	z M140,144.1c-6,0-11-5.8-11-12.6v-3.2c4,0.3,7.9-0.8,11.1-3.1c2.9,2,6.4,3.1,10,3.1c0.4,0,0.8,0,1.2,0v3.2
	C151.3,138.4,146.1,144.1,140,144.1z M151.2,120.4c-3.1,0.2-6.2-0.9-8.4-3.1l-2.7-2.5l-2.7,2.5c-2.2,2.2-5.3,3.3-8.4,3.1
	c0,0,0-0.1,0-0.1l0.5-2l0,0c1.1-3,3.7-5.2,6.6-5.2h8C147.6,113.1,150.8,116.4,151.2,120.4z M129,153.7c-2.8-1-5.3-2.9-6.9-5.5
	l1.6-6.2c1.3,2.4,3.1,4.6,5.3,6.3V153.7z M137,151.8c1,0.2,2,0.3,3,0.3c1,0,2-0.1,3-0.3v8.3c0,1.7-1.3,3-3,3s-3-1.3-3-3V151.8z
	 M156.6,141.8l1.6,6.5c-1.7,2.7-4.2,4.7-7.2,5.6v-5.6C153.3,146.5,155.2,144.3,156.6,141.8z M110,175.9v-1.4
	c0-6.7,5.5-12.2,12.2-12.2h7c1.1,6,6.9,9.9,12.9,8.7c4.4-0.8,7.9-4.3,8.7-8.7h7c6.7,0,12.2,5.5,12.2,12.2v1.3
	C152.8,190.5,127.3,190.6,110,175.9z M205.2,223.1l-7.8-7.8c-3.8-3.7-7.2-7.8-10.3-12.2l-14.5-19.3c3.9-2.9,7.3-6.4,10.3-10.3
	l18.2,13.6c5.8,4.3,11.2,9,16.3,14.1l4.8,4.8L205.2,223.1z M237.8,221.9l2.8-8.5l-2.8-2.8l-5.7,5.7l0,0l-17,17l0,0l-5.7,5.7l2.8,2.8
	l8.5-2.8l0,0L237.8,221.9L237.8,221.9z"/>
</svg>
