<?xml version="1.0" encoding="utf-8"?>
<!-- Generator: Adobe Illustrator 24.0.3, SVG Export Plug-In . SVG Version: 6.00 Build 0)  -->
<svg version="1.1" id="ART" xmlns="http://www.w3.org/2000/svg" xmlns:xlink="http://www.w3.org/1999/xlink" x="0px" y="0px"
	 viewBox="0 0 288 288" style="enable-background:new 0 0 288 288;" xml:space="preserve">
<style type="text/css">
	.st0{fill:#312D2A;}
</style>
<path class="st0" d="M255,137.6L150.4,33c-3.5-3.5-9.2-3.5-12.7,0L33,137.6c-3.5,3.5-3.5,9.2,0,12.7L137.6,255
	c3.5,3.5,9.2,3.5,12.7,0L255,150.4C258.5,146.8,258.5,141.2,255,137.6z M143.3,38.6c0.4-0.4,1-0.4,1.4,0c0,0,0,0,0,0l49.5,49.5
	L181,101.3c-3.1,3.1-3.1,8.2,0,11.3c1.1,1.1,2.6,1.9,4.2,2.2c2.5,0.4,4.7,1.6,6.5,3.4c4.9,4.9,4.9,12.8,0,17.7
	c-0.1,0.1-0.2,0.1-0.2,0.2c-4.6,4.3-11.7,4.5-16.6,0.6c-2.2-1.8-3.7-4.4-4.2-7.2c-0.8-4.3-4.9-7.2-9.3-6.5c-1.6,0.3-3.1,1.1-4.2,2.2
	L144,138.4l-13.2-13.2c4.1-0.6,7.8-2.6,10.8-5.5c8.1-7.9,8.2-20.9,0.2-29c-7.9-8.1-20.9-8.2-29-0.2c-3,3-5,6.8-5.8,10.9L93.8,88.1
	L143.3,38.6z M38.6,143.3l49.5-49.5l13.2,13.2c2.1,2.1,5.2,2.9,8,2c2.9-0.9,5-3.3,5.5-6.2c0.6-3.1,2.3-5.8,4.8-7.7
	c4.6-3.3,10.8-3.2,15.3,0.4c2.8,2.2,4.5,5.5,4.6,9.1c0.2,3.5-1.1,7-3.6,9.5c-1.7,1.7-4,2.9-6.4,3.3c-4.4,0.7-7.3,4.8-6.6,9.2
	c0.3,1.7,1,3.2,2.2,4.4l13.2,13.2l-13.2,13.2c-0.6-4.1-2.6-7.8-5.5-10.8c-7.9-8.1-20.9-8.2-29-0.2c-8.1,7.9-8.2,20.9-0.2,29
	c3,3,6.8,5,10.9,5.8l-13.2,13.2l-49.5-49.5C38.2,144.3,38.2,143.7,38.6,143.3C38.6,143.3,38.6,143.3,38.6,143.3z M144.7,249.4
	c-0.4,0.4-1,0.4-1.4,0c0,0,0,0,0,0l-49.5-49.5l13.2-13.2c2.1-2.1,2.9-5.2,2-8c-0.9-2.9-3.3-5-6.2-5.5c-3.1-0.6-5.8-2.3-7.7-4.8
	c-3.3-4.6-3.2-10.8,0.4-15.3c4.3-5.4,12.2-6.2,17.6-1.9c0.3,0.3,0.7,0.6,1,0.9c1.7,1.7,2.9,4,3.3,6.4c0.7,4.4,4.8,7.3,9.2,6.6
	c1.7-0.3,3.2-1,4.4-2.2l13.2-13.2l13.1,13.1c-11.1,2.1-18.4,12.9-16.2,24c1.8,9.5,10.1,16.5,19.8,16.6h0.3c5.4,0,10.7-2.1,14.5-6
	c2.9-2.9,4.8-6.6,5.5-10.7l13.2,13.2L144.7,249.4z M249.4,144.7l-49.5,49.5L186.7,181c-3.1-3.1-8.2-3.1-11.3,0
	c-1.1,1.1-1.9,2.6-2.2,4.2c-0.4,2.5-1.6,4.7-3.4,6.5c-2.3,2.4-5.5,3.7-8.8,3.7h-0.2c-3.4,0-6.6-1.4-8.9-3.9
	c-4.3-4.6-4.5-11.7-0.6-16.6c1.8-2.2,4.4-3.7,7.2-4.2c4.3-0.8,7.2-4.9,6.5-9.3c-0.3-1.6-1.1-3.1-2.2-4.2L149.7,144l13.1-13.1
	c2,11.1,12.7,18.5,23.9,16.5c11.1-2,18.5-12.7,16.5-23.9c-1.5-8.4-8.1-14.9-16.5-16.5l13.2-13.2l49.5,49.5
	C249.7,143.7,249.7,144.3,249.4,144.7z"/>
</svg>
