<svg id="ART" xmlns="http://www.w3.org/2000/svg" viewBox="0 0 288 288"><defs><style>.cls-1{fill:#fcfbfa;}</style></defs><path class="cls-1" d="M220,170H68V78H187V70H60V198h60.66l-1.78,13H111l-8,4v4h83v-4l-8-4h-7.88l-1.78-13H228V124h-8Zm-58,41H127l1.77-13h31.54ZM68,190V178H220v12Zm113-38V99H107v53Zm-66-8V111.06l29.7,22.57L173,111.26V144Zm7.88-37h42.61l-20.88,16.51ZM241,70V63.79a20,20,0,0,0-39.92,0V70h-8L193,118h56V70Zm-32-6a12.38,12.38,0,0,1,12-12.17,12.12,12.12,0,0,1,12,12V70H209Zm32,46-40.06,0L201,78h40ZM215,90a6,6,0,1,1,8.88,5.26L225,103h-8l1.2-7.7A6,6,0,0,1,215,90Z"/></svg>