<?xml version="1.0" encoding="UTF-8"?>
<svg id="icon" xmlns="http://www.w3.org/2000/svg" viewBox="0 0 288 288">
  <defs>
    <style>
      .cls-1 {
        fill: #fcfbfa;
      }
    </style>
  </defs>
  <path class="cls-1" d="M144.158,235.923c-40.681-21.332-66.105-55.171-68.158-90.856v-67.259l68-27.872,68,27.872v67.249c-.499,8.712-2.401,17.312-5.568,25.649l6.5,4.682.047.034.046.035c.035.026.068.052.103.079,3.941-9.747,6.297-19.863,6.872-30.141l.006-72.952-76.003-31.151-76.003,31.151v72.74l.006.225c2.197,39.13,29.985,75.984,74.335,98.584l1.815.926,1.816-.925c14.678-7.476,27.528-16.519,38.251-26.682-1.681-2.045-3.34-4.147-4.973-6.303-9.832,9.416-21.62,17.855-35.093,24.917Z"/>
  <path class="cls-1" d="M228.644,197.544c-5.721-5.719-12.198-11.303-19.316-16.641l-21.195-15.266c10.678-19.098,7.922-43.742-8.295-59.959-19.555-19.556-51.378-19.557-70.937,0-19.557,19.557-19.557,51.379,0,70.937,9.779,9.779,22.624,14.668,35.469,14.668,8.457,0,16.909-2.134,24.49-6.372l15.313,21.257c5.296,7.061,10.88,13.538,16.595,19.253l8.739,8.74,27.876-27.877-8.738-8.74ZM114.558,170.959c-16.438-16.438-16.438-43.186,0-59.624,8.22-8.22,19.014-12.329,29.812-12.329s21.593,4.11,29.812,12.329c16.438,16.438,16.438,43.185,0,59.624-16.439,16.437-43.186,16.437-59.624,0ZM209.506,222.847l-3.082-3.083c-5.449-5.448-10.782-11.638-15.806-18.334l-15.107-20.973c1.495-1.187,2.944-2.46,4.326-3.841,1.382-1.382,2.655-2.831,3.841-4.326l20.911,15.06c6.755,5.065,12.944,10.399,18.397,15.852l3.083,3.083-16.563,16.562Z"/>
  <path class="cls-1" d="M173,133c-2.955,0-5.53,1.607-6.915,3.991h-2.574c-.489-2.259-1.385-4.363-2.6-6.245l2.762-2.762c.109.006.216.016.326.016,3.314,0,6-2.686,6-6s-2.686-6-6-6-6,2.686-6,6c0,.11.011.218.016.326l-2.754,2.754c-1.889-1.227-4.004-2.13-6.274-2.623v-5.982c1.231-1.099,2.011-2.693,2.011-4.474,0-3.314-2.686-6-6-6s-6,2.686-6,6c0,1.769.77,3.354,1.988,4.452v5.984c-2.211.471-4.274,1.339-6.13,2.509l-3.01-2.933c.1-.488.152-.994.152-1.512,0-4.142-3.358-7.5-7.5-7.5s-7.5,3.358-7.5,7.5,3.358,7.5,7.5,7.5c.621,0,1.22-.084,1.797-.226l2.824,2.752c-.763,1.148-1.392,2.388-1.893,3.692-1.228-.767-2.674-1.217-4.228-1.217-4.418,0-8,3.582-8,8s3.582,8,8,8c1.551,0,2.993-.448,4.219-1.212.478,1.248,1.077,2.434,1.796,3.54l-4.717,4.717c-2.983.348-5.298,2.88-5.298,5.956,0,3.314,2.686,6,6,6s6-2.686,6-6c0-.418-.043-.825-.124-1.219l3.805-3.805c1.903,1.228,4.031,2.133,6.317,2.619v3.666c-1.81,1.265-2.998,3.362-2.998,5.739,0,3.866,3.134,7,7,7s7-3.134,7-7c0-2.378-1.188-4.476-3.001-5.741v-3.69c1.171-.255,2.305-.612,3.385-1.073,1.44,2.114,3.865,3.504,6.616,3.504,4.418,0,8-3.582,8-8,0-2.98-1.633-5.575-4.05-6.951.226-.672.423-1.356.573-2.059h2.55c1.383,2.395,3.963,4.01,6.927,4.01,4.418,0,8-3.582,8-8s-3.582-8-8-8ZM155.949,141.014c0,6.065-4.935,11-11,11s-11-4.935-11-11,4.935-11,11-11,11,4.935,11,11Z"/>
</svg>