<svg id="ART" xmlns="http://www.w3.org/2000/svg" viewBox="0 0 288 288"><defs><style>.cls-1{fill:#fcfbfa;}</style></defs><path class="cls-1" d="M131,157h26V131H131Zm8-18h10v10H139Zm84.18,37.38a12.93,12.93,0,0,0-2.18-1V113.08a12,12,0,0,0,2.18-1,12,12,0,1,0-12-20.78,11.22,11.22,0,0,0-1.22.81L155.83,60.9A12.24,12.24,0,0,0,156,59a12,12,0,1,0-24,0,12.24,12.24,0,0,0,.17,1.92L78,92.15a11.22,11.22,0,0,0-1.22-.81A12,12,0,1,0,67,113.08v62.31a12.93,12.93,0,0,0-2.18,1,12,12,0,1,0,12,20.78,11.22,11.22,0,0,0,1.22-.81l54.06,31.21A11.8,11.8,0,0,0,132,229a12,12,0,0,0,24,0,11.8,11.8,0,0,0-.1-1.46L210,196.35a11.22,11.22,0,0,0,1.22.81,12,12,0,0,0,12-20.78ZM208.05,179,183,170.2c0-.08,0-.15,0-.22a12,12,0,0,0-8-11.3V129.82a12,12,0,0,0,8-11.3c0-.07,0-.14,0-.22l25.06-8.79A11.76,11.76,0,0,0,213,113v62.56A11.76,11.76,0,0,0,208.05,179ZM144,217c-.3,0-.6,0-.9,0l-17.8-38.44a12.07,12.07,0,0,0,2.59-3.65h32.22a12.07,12.07,0,0,0,2.59,3.65l-17.8,38.44C144.6,217.05,144.3,217,144,217Zm-39-47c0,.07,0,.14,0,.22L80,179a11.76,11.76,0,0,0-5-3.46V113a11.76,11.76,0,0,0,5-3.46L105,118.3c0,.08,0,.15,0,.22a12,12,0,0,0,8,11.3v28.86A12,12,0,0,0,105,170Zm39-99c.23,0,.45,0,.67,0l18,38.93a12.2,12.2,0,0,0-2.34,3.13H127.64a12.2,12.2,0,0,0-2.34-3.13l18-38.93C143.55,71,143.77,71,144,71Zm15.39,96H128.61a12,12,0,0,0-7.61-8.32V129.82a12,12,0,0,0,7.75-8.84h30.5a12,12,0,0,0,7.75,8.84v28.86A12,12,0,0,0,159.39,167ZM171,122.52a4,4,0,1,1,4-4A4,4,0,0,1,171,122.52Zm-54-8a4,4,0,1,1-4,4A4,4,0,0,1,117,114.52ZM117,166a4,4,0,1,1-4,4A4,4,0,0,1,117,166Zm54,8a4,4,0,1,1,4-4A4,4,0,0,1,171,174ZM205.18,102l-25,8.78a12,12,0,0,0-9.18-4.29c-.34,0-.68,0-1,0L152.12,68l53.42,30.84A12.47,12.47,0,0,0,205.18,102ZM118,106.57c-.33,0-.67,0-1,0a12,12,0,0,0-9.18,4.29l-25-8.78a12.47,12.47,0,0,0-.36-3.2L135.88,68Zm-35.19,79.9,25-8.78A12,12,0,0,0,117,182c.34,0,.68,0,1,0l17.77,38.37-.1.09L82.46,189.67A12.47,12.47,0,0,0,82.82,186.47Zm69.4,33.83L170,181.93c.33,0,.67,0,1,0a12,12,0,0,0,9.18-4.29l25,8.78a12.47,12.47,0,0,0,.36,3.2l-53.22,30.72Zm63-122a4,4,0,0,1,5.46,1.47,3.92,3.92,0,0,1,.4,3,4,4,0,0,1-7.33,1A4,4,0,0,1,215.18,98.26ZM144,55a4,4,0,1,1-4,4A4,4,0,0,1,144,55ZM67.36,99.73a4,4,0,1,1,4.5,5.86,4,4,0,0,1-4.5-5.86Zm5.46,90.51a4,4,0,0,1-5.46-1.47,3.92,3.92,0,0,1-.4-3,4,4,0,0,1,7.33-1A4,4,0,0,1,72.82,190.24ZM144,233a4,4,0,1,1,4-4A4,4,0,0,1,144,233Zm76.64-44.25a4,4,0,1,1-4.5-5.86,4.21,4.21,0,0,1,1.05-.14,4,4,0,0,1,3.45,6Z"/></svg>