<?xml version="1.0" encoding="utf-8"?>
<!-- Generator: Adobe Illustrator 24.0.3, SVG Export Plug-In . SVG Version: 6.00 Build 0)  -->
<svg version="1.1" id="ART" xmlns="http://www.w3.org/2000/svg" xmlns:xlink="http://www.w3.org/1999/xlink" x="0px" y="0px"
	 viewBox="0 0 288 288" style="enable-background:new 0 0 288 288;" xml:space="preserve">
<style type="text/css">
	.st0{fill:#312D2A;}
</style>
<path class="st0" d="M144,46.2c-54.1,0-98,43.9-98,98s43.9,98,98,98s98-43.9,98-98l0,0C241.9,90.1,198.1,46.2,144,46.2z M144,234.1
	c-49.7,0-90-40.3-90-90s40.3-90,90-90s90,40.3,90,90C233.9,193.8,193.7,234.1,144,234.1z M140,206h8v8h-8V206z M206,140.1h8v8h-8
	V140.1z M74,140.1h8v8h-8V140.1z M171.5,199.8l6.9-4l4,6.9l-6.9,4L171.5,199.8z M195.7,109.6l6.9-4l4,6.9l-6.9,4L195.7,109.6z
	 M105.5,85.5l6.9-4l4,6.9l-6.9,4L105.5,85.5z M81.4,175.7l6.9-4l4,6.9l-6.9,4L81.4,175.7z M195.8,178.6l4-6.9l6.9,4l-4,6.9
	L195.8,178.6z M171.5,88.5l4-6.9l6.9,4l-4,6.9L171.5,88.5z M81.4,112.7l4-6.9l6.9,4l-4,6.9L81.4,112.7z M105.5,202.8l4-6.9l6.9,4
	l-4,6.9L105.5,202.8z M144,60.2c-46.4,0-84,37.6-84,84s37.6,84,84,84s84-37.6,84-84l0,0C228,97.8,190.4,60.2,144,60.2z M144,220.1
	c-42,0-76-34-76-76s34-76,76-76s76,34,76,76l0,0C220,186.1,186,220.1,144,220.1z M178,132h-16v8h16c2.2,0,4,1.8,4,4s-1.8,4-4,4
	h-22.7c0.4-1.2,0.7-2.5,0.7-3.9v-58c0-6.6-5.4-12-12-12s-12,5.4-12,12v58c0,6.6,5.4,11.9,12,11.9h34c6.6,0,12-5.4,12-12
	S184.6,132,178,132z M140,144.1v-58c0-2.2,1.8-4,4-4s4,1.8,4,4v58c0,2.2-1.8,4-4,4S140,146.4,140,144.1z"/>
</svg>
