<svg id="Icon_art" data-name="Icon art" xmlns="http://www.w3.org/2000/svg" viewBox="0 0 288 288">
  <defs>
    <style>
      .cls-1 {
        fill: #fcfbfa;
      }
    </style>
  </defs>
  <g id="Data_Flow" data-name="Data Flow">
    <g>
      <polygon class="cls-1" points="44 188 44 71 109.38 71 101.18 63 36 63 36 196 141.2 196 132.99 188 44 188"/>
      <path class="cls-1" d="M252.15,186.31l-38.8-5.64L196,145.51l-17.35,35.16-38.8,5.64,28.08,27.36-6.63,38.64L196,234.07l34.7,18.24-6.63-38.64ZM196,225l-24.08,12.66,4.6-26.81-19.48-19L184,188l12-24.39L208,188,235,191.89l-19.48,19,4.6,26.81Z"/>
      <path class="cls-1" d="M126.3,79.11l-4.18,24.36L144,92l21.88,11.5L161.7,79.11l17.71-17.26-24.47-3.56L144,36.12,133.06,58.29l-24.47,3.56Zm-.52-11.67,12.59-1.83L144,54.2l5.63,11.41,12.59,1.83-9.11,8.87,2.15,12.54L144,82.93l-11.26,5.92,2.15-12.54Z"/>
    </g>
  </g>
</svg>
