<svg id="ART" xmlns="http://www.w3.org/2000/svg" viewBox="0 0 288 288"><defs><style>.cls-1{fill:#312d2a;}</style></defs><path class="cls-1" d="M248.34,117.29l-5.65,5.65a139.42,139.42,0,0,0-197.38,0l-5.65-5.65a147.39,147.39,0,0,1,208.68,0ZM48.94,127.43l5.66,5.66a126.29,126.29,0,0,1,178.8,0l5.65-5.66a134.29,134.29,0,0,0-190.11,0ZM66.2,144.17l5.65,5.66a101.9,101.9,0,0,1,144.3,0l5.65-5.66a109.9,109.9,0,0,0-155.6,0Zm9.28,10.25,5.66,5.66a88.79,88.79,0,0,1,125.72,0l5.65-5.66a96.8,96.8,0,0,0-137,0Zm17.69,16.85,5.66,5.65a64.42,64.42,0,0,1,91.21,0l5.66-5.65a72.41,72.41,0,0,0-102.53,0Zm9.67,10.12,5.66,5.66a51.39,51.39,0,0,1,72.67,0l5.66-5.66a59.4,59.4,0,0,0-84,0Zm57.83,23.28A16.67,16.67,0,1,1,144,188,16.69,16.69,0,0,1,160.67,204.67Zm-8,0a8.67,8.67,0,1,0-8.67,8.68A8.68,8.68,0,0,0,152.67,204.67Z"/></svg>