<?xml version="1.0" encoding="utf-8"?>
<!-- Generator: Adobe Illustrator 24.0.3, SVG Export Plug-In . SVG Version: 6.00 Build 0)  -->
<svg version="1.1" id="ART" xmlns="http://www.w3.org/2000/svg" xmlns:xlink="http://www.w3.org/1999/xlink" x="0px" y="0px"
	 viewBox="0 0 288 288" style="enable-background:new 0 0 288 288;" xml:space="preserve">
<style type="text/css">
	.st0{fill:#312D2A;}
</style>
<path class="st0" d="M76,48v23.8h8V56h120v15.8h8V48H76z M204,232H84v-16h-8v24h136v-24h-8V232z M147.9,143.9c0-5.4,2.2-10.6,6-14.5
	l18.4-18.1c1.7-1.7,1.7-4.4,0.1-6c-0.8-0.8-1.9-1.3-3.1-1.3h-50.7c-2.4,0-4.3,1.9-4.3,4.3c0,1.1,0.5,2.2,1.3,3l18.2,18.1
	c3.8,3.8,6,9.1,6,14.5H147.9z M127.7,112h32.5l-11.9,11.8c-1.7,1.7-3.2,3.6-4.4,5.6c-1.2-2.1-2.7-3.9-4.4-5.6L127.7,112z
	 M102.8,170.2c-8.2,8.2-12.9,19.4-12.8,31V226h108v-24.8c0-11.6-4.6-22.8-12.8-31l-21.5-21.5c-2.6-2.6-2.6-6.8,0-9.3l0,0l21.5-21.5
	c8.2-8.2,12.9-19.4,12.8-31V62H90v24.8c0,11.6,4.6,22.8,12.8,31l21.5,21.5c2.6,2.6,2.6,6.8,0,9.3l0,0L102.8,170.2z M130,133.7
	l-21.5-21.5C101.7,105.4,98,96.3,98,86.8V70h92v16.8c0,9.5-3.7,18.6-10.5,25.3L158,133.7c-5.7,5.7-5.7,14.9,0,20.6l0,0l21.5,21.5
	c6.7,6.7,10.5,15.8,10.5,25.3V218H98v-16.8c0-9.5,3.7-18.6,10.5-25.3l21.5-21.5C135.7,148.6,135.7,139.4,130,133.7L130,133.7z
	 M104,212h8c0-7.2,3.9-13.8,10.2-17.3l21.8-12.1l21.8,12.1c6.3,3.5,10.2,10.1,10.2,17.3h8c0-10.1-5.5-19.4-14.3-24.3l-22.1-12.3
	c-2.2-1.3-4.9-1.3-7.2,0l-22.1,12.3C109.5,192.6,104,201.9,104,212z M140,150h8v8h-8V150z"/>
</svg>
