<?xml version="1.0" encoding="UTF-8"?>
<svg xmlns="http://www.w3.org/2000/svg" version="1.1" viewBox="0 0 288 288">
  <defs>
    <style>
      .cls-1 {
        fill: #2ba4dd;
      }

      .cls-1, .cls-2 {
        stroke-width: 0px;
      }

      .cls-3 {
        fill: none;
        stroke: #2ba4dd;
        stroke-miterlimit: 10;
        stroke-width: .2px;
      }

      .cls-2 {
        fill: #fcfbfa;
      }

      .cls-4 {
        display: none;
      }
    </style>
  </defs>
  <g id="GUIDES" class="cls-4">
    <g>
      <path class="cls-1" d="M144,96.3c26.3,0,47.8,21.4,47.8,47.7s-21.4,47.7-47.8,47.7-47.8-21.4-47.8-47.7,21.4-47.7,47.8-47.7M144,96.1c-26.5,0-48,21.5-48,47.9s21.5,47.9,48,47.9,48-21.5,48-47.9-21.5-47.9-48-47.9h0Z"/>
      <line class="cls-3" x1="96" x2="96" y2="288"/>
      <line class="cls-3" x1="0" y1="96" x2="288" y2="96"/>
      <path class="cls-1" d="M144,12.4c35.2,0,68.3,13.7,93.2,38.6,24.9,24.9,38.6,58,38.6,93.2s-13.7,68.3-38.6,93.2c-24.9,24.9-58,38.6-93.2,38.6s-68.3-13.7-93.2-38.6c-24.9-24.9-38.6-58-38.6-93.2s13.7-68.3,38.6-93.2c24.9-24.9,58-38.6,93.2-38.6M144,12.1C71.1,12.1,12,71.2,12,144.1s59.1,132,132,132,132-59.1,132-132S216.9,12.1,144,12.1h0Z"/>
      <path class="cls-1" d="M240,12.2c6.5,0,11.8,5.3,11.8,11.8v240c0,6.5-5.3,11.8-11.8,11.8H48c-6.5,0-11.8-5.3-11.8-11.8V24c0-6.5,5.3-11.8,11.8-11.8h192M240,12H48c-6.6,0-12,5.4-12,12v240c0,6.6,5.4,12,12,12h192c6.6,0,12-5.4,12-12V24c0-6.6-5.4-12-12-12h0Z"/>
      <path class="cls-1" d="M264,36.2c6.5,0,11.8,5.3,11.8,11.8v192c0,6.5-5.3,11.8-11.8,11.8H24c-6.5,0-11.8-5.3-11.8-11.8V48c0-6.5,5.3-11.8,11.8-11.8h240M264,36H24c-6.6,0-12,5.4-12,12v192c0,6.6,5.4,12,12,12h240c6.6,0,12-5.4,12-12V48c0-6.6-5.4-12-12-12h0Z"/>
      <path class="cls-1" d="M247.8,24.2c8.8,0,16,7.2,16,16v207.6c0,8.8-7.2,16-16,16H40.2c-8.8,0-16-7.2-16-16V40.2c0-8.8,7.2-16,16-16h207.6M247.8,24H40.2c-8.9,0-16.2,7.3-16.2,16.2v207.6c0,8.9,7.3,16.2,16.2,16.2h207.6c8.9,0,16.2-7.3,16.2-16.2V40.2c0-8.9-7.3-16.2-16.2-16.2h0Z"/>
      <line class="cls-3" x1="192" x2="192" y2="288"/>
      <line class="cls-3" x1="0" y1="192" x2="288" y2="192"/>
    </g>
  </g>
  <g id="ART">
    <g id="flattened">
      <path class="cls-2" d="M51.9,160.9h7.7c0-.2-.1-.3-.1-.5v-35.5c4.4,2.6,10.7,4.9,18.8,6.8,15.6,3.7,36.3,5.8,58.2,5.8s42.6-2.1,58.2-5.8c6.4-1.5,26.9-7.7,26.8-16.8,0-1.9,0-48.1,0-48.1,0-.3,0-.6,0-.8,0-.4,0-.8,0-1.2,0-7.6-9-13.6-26.8-18-15.6-3.8-36.3-6-58.2-6s-42.6,2.1-58.2,6c-17.8,4.4-26.8,10.5-26.8,18s0,.8,0,1.2c0,.3,0,.5,0,.8v93.5c.2.2.3.3.5.5ZM60.7,62.9c2.1-2.1,7.5-5.3,19.5-8.3,15-3.7,35-5.7,56.3-5.7s41.3,2,56.3,5.7c12,3,17.3,6.1,19.5,8.3.9.9,1.2,1.6,1.2,2,0,1-1.6,3.3-7.7,6-3.1,1.4-7.3,2.8-13,4.3-15,3.7-35,5.7-56.3,5.7s-41.3-2-56.3-5.7c-5.7-1.4-10-2.9-13-4.3-6-2.7-7.7-5-7.7-6s.3-1.1,1.2-2ZM59.5,75.9c4.4,2.7,10.7,5,18.8,7,15.6,3.9,36.3,6,58.2,6s42.6-2.1,58.2-6c8.1-2,14.3-4.3,18.8-7v38.3c0,.2,0,.4-.2.7-1,1.8-5.8,5.6-20.4,9.1-15,3.6-35,5.6-56.3,5.6s-41.3-2-56.3-5.6c-14.6-3.5-19.4-7.4-20.4-9.1-.2-.3-.2-.5-.2-.7v-38.3Z"/>
      <polygon class="cls-2" points="112.1 183.5 106.4 177.9 91.5 192.8 106.4 207.5 112 201.9 106.8 196.7 136.7 196.7 136.7 188.7 106.9 188.7 112.1 183.5"/>
      <polygon class="cls-2" points="116.1 213.3 121.3 218.4 91.5 218.4 91.5 226.4 121.4 226.4 116.2 231.6 121.8 237.3 136.7 222.6 121.8 207.6 116.1 213.3"/>
      <path class="cls-2" d="M55.7,210.1c11.6,0,21-9.4,21-21s-9.4-21-21-21-21,9.4-21,21,9.4,21,21,21ZM55.7,176.1c7.2,0,13,5.8,13,13s-5.8,13-13,13-13-5.8-13-13,5.8-13,13-13Z"/>
      <path class="cls-2" d="M71.5,217.1h-31.8c-7.5,0-13.6,6.1-13.6,13.6v16.4h8v-16.4c0-3.1,2.5-5.6,5.6-5.6h31.8c3.1,0,5.6,2.5,5.6,5.6v16.4h8v-16.4c0-7.5-6.1-13.6-13.6-13.6Z"/>
      <path class="cls-2" d="M222.9,189.2v49.3h-72v-72h42.6l-5.4-5.4-2.6-2.6h-36.6c-3.3,0-6,2.7-6,6v76c0,3.3,2.7,6,6,6h76c3.3,0,6-2.7,6-6v-51.2c-1.2.1-2.5.2-3.8.2s-2.8-.1-4.2-.3Z"/>
      <path class="cls-2" d="M226.9,175.9c-10,0-18.2-7.7-18.9-17.5l4.2,4.2,5.7-5.7-12.7-12.7-12.7,12.7,5.7,5.7,2.1-2.1c1.8,13.2,13.1,23.4,26.8,23.4s15-3.4,19.9-8.8l-5.7-5.7c-3.5,4-8.6,6.5-14.3,6.5Z"/>
      <path class="cls-2" d="M256.2,150.5l-2.5,2.5c-1.9-13.1-13.1-23.2-26.7-23.2s-14.5,3.2-19.4,8.3l5.6,5.7c3.5-3.7,8.4-5.9,13.8-5.9,9.6,0,17.5,7.1,18.8,16.4l-3.7-3.7-5.7,5.7,12.7,12.7,12.7-12.7-5.7-5.7Z"/>
      <path class="cls-2" d="M180.1,175.5v6.9c-2.5.9-4.8,2.3-6.8,4.1l-6.8-4-6.9,11.8,7.1,4.2c-.2,1.2-.3,2.4-.3,3.6s0,2.1.2,3.1l-7,4.1,6.9,11.8,6.5-3.8c2,1.9,4.4,3.4,7.1,4.4v7.7h14.4v-7.7c2.3-.8,4.4-2.1,6.2-3.6l6.5,3.8,6.9-11.8-6.4-3.8c.3-1.4.4-2.8.4-4.3s-.2-3.2-.5-4.7l6.5-3.8-6.9-11.8-6.9,4c-1.8-1.4-3.7-2.5-5.9-3.3v-6.9h-14.4ZM200.2,202.1c0,7.1-5.8,12.9-12.9,12.9s-13-5.8-13-12.9,5.8-13,13-13,12.9,5.8,12.9,13Z"/>
    </g>
  </g>
</svg>