<?xml version="1.0" encoding="UTF-8"?>
<svg id="Art" xmlns="http://www.w3.org/2000/svg" version="1.1" viewBox="0 0 288 288">
  <!-- Generator: Adobe Illustrator 30.1.0, SVG Export Plug-In . SVG Version: 2.1.1 Build 136)  -->
  <defs>
    <style>
      .st0 {
        fill: none;
      }

      .st1 {
        fill: #312d2a;
      }
    </style>
  </defs>
  <path class="st0" d="M140.45,35.85c-.31.92-.64,1.89-.97,2.87l-9.73-1.29-.12-.4c3.55-.57,7.16-.97,10.82-1.18Z"/>
  <path class="st0" d="M129.75,37.43l9.73,1.29c.33-.98.66-1.95.97-2.87-3.66.21-7.27.61-10.82,1.18l.12.4Z"/>
  <path class="st0" d="M129.75,37.43l9.73,1.29c.33-.98.66-1.95.97-2.87-3.66.21-7.27.61-10.82,1.18l.12.4Z"/>
  <path class="st0" d="M140.45,35.85c-.31.92-.64,1.89-.97,2.87l-9.73-1.29-.12-.4c3.55-.57,7.16-.97,10.82-1.18Z"/>
  <path class="st1" d="M239.43,112.05l-2.36,2.36-5.5,5.5c.48,0,.94-.01,1.43-.01,15.65,0,25.79,2.47,29.42,4.3-3.63,1.83-13.77,4.3-29.42,4.3-4.88,0-9.23-.24-13.01-.63-1.58,2.66-3.44,5.13-5.53,7.37,7.87,1.14,15.71,1.25,18.54,1.25,4.37,0,20.56-.28,30.5-4.12v12.04c-2.15,1.83-12.79,5.02-30.5,5.02s-28.35-3.18-30.5-5.02v-.12c-2.54,1.3-5.21,2.35-8,3.13v38.31c0,11.77,32.07,12.37,38.5,12.37s38.5-.6,38.5-12.37v-61.1c0-.07-.02-.13-.02-.2,0-.08.02-.15.02-.24,0-9.38-20.58-11.62-32.07-12.14ZM263.5,185.08c-2.15,1.83-12.79,5.02-30.5,5.02s-28.35-3.18-30.5-5.02v-11.62c9.94,3.87,26.13,4.15,30.5,4.15s20.56-.28,30.5-4.15v11.62ZM263.5,164.59c-2.15,1.83-12.79,5.02-30.5,5.02s-28.35-3.18-30.5-5.02v-11.3c9.94,3.87,26.13,4.15,30.5,4.15s20.56-.28,30.5-4.15v11.3Z"/>
  <path class="st1" d="M158.9,109.75h0l7.93-7.93-5.66-5.66-7.03,7.03c1.41-14.68,13.82-26.21,28.86-26.21,10.88,0,20.62,6.1,25.56,15.3l3.2-3.2,2.65-2.65c-6.61-10.58-18.36-17.45-31.41-17.45-19.54,0-35.58,15.23-36.9,34.44l-7.27-7.27-5.66,5.66,16.83,16.83,3.2-3.2,5.71-5.71Z"/>
  <path class="st1" d="M219.9,108.56l7.27,7.27,5.66-5.66-16.83-16.83-16.83,16.83,5.66,5.66,7.03-7.03c-1.41,14.68-13.82,26.21-28.86,26.21-10.89,0-20.62-6.1-25.56-15.3l-5.85,5.85c6.61,10.58,18.35,17.45,31.41,17.45,19.54,0,35.58-15.23,36.9-34.44Z"/>
  <path class="st1" d="M167.9,123.3h8.27l1.85-8.11h9.59l1.85,8.11h8.53l-11.08-38.53h-7.9l-11.13,38.53ZM182.84,94.21l3.29,14.42h-6.62l3.34-14.42Z"/>
  <path class="st1" d="M248.31,106.69c3.18.35,6.19.8,8.93,1.36-1.58-4.89-3.49-9.63-5.68-14.2-.37-.78-.73-1.55-1.12-2.32-.02-.04-.04-.08-.06-.12-19.15-37.79-58.36-63.75-103.54-63.75-63.96,0-116,52.03-116,116s52.04,116,116,116c35.9,0,68.03-16.4,89.32-42.09h.01c.12-.13.23-.28.35-.42.69-.85,1.38-1.71,2.05-2.58.13-.17.26-.33.39-.5.11-.14.2-.27.3-.41,2.48-3.26,4.79-6.65,6.92-10.17-3.16.3-6.45.49-9.84.56-1.46,2.15-3,4.25-4.61,6.28-.21.27-.41.55-.63.81-.34.43-.7.86-1.05,1.28-19.83,23.95-49.76,39.23-83.2,39.23h-.01c-59.55,0-108-48.44-108-107.99,0-18.84,4.86-36.57,13.37-52h9.63v3l-4.57,11.48c-.45,1.08-.41,2.29.11,3.33l14.54,29.09c.58,1.15,1.67,1.95,2.94,2.16,1.27.21,2.56-.21,3.47-1.12l2.78-2.78,1.02,1.51.88,4.42c.17.87.63,1.66,1.31,2.24l22.85,19.74c.44.38.96.66,1.52.82l11.15,3.1v10c0,.75.61,1.37,1,2l10,15v42c0,.83.13,1.24.61,1.92,0,0,3.39,7.08,9.39,7.08s11-3,11-3c0,0,2-1.41,2-3v-7l6-4c1.17-.73,2-2.62,2-4v-10l18.44-9.93c.85-.47,1.51-1.24,1.84-2.16,0,0,5.72-15.45,5.72-15.91v-18c0-1.33-.96-2.22-2.08-2.97l-9.35-6.23c-.65-.44-1.78-.8-2.57-.8h-7l-7.37-1.63-9.61-8.64c-.84-.75-1.94-1.12-3.07-1.01l-19.03,1.91-8.04-7.15c-.73-.65-1.68-1.01-2.66-1.01h-4.95l-2.11-11.94,1.12-.84h6.28s2.15,5.72,2.15,5.72c.06.16.13.32.21.47.08.15.17.3.27.45.11.14.21.27.33.39.23.25.49.47.78.66.43.27.91.47,1.43.56l11.43,2.08c.12.02.24.04.36.05.68.06,1.35-.06,1.97-.32.39-.17.74-.4,1.06-.68.1-.1.2-.2.29-.3.14-.15.26-.3.37-.47.16-.25.3-.51.4-.78.09-.23.15-.46.19-.7.12-.6.09-1.22-.08-1.83v-.03s-3.91-13.65-3.91-13.65l.61-3.63,2.96-1.98-5.77-5.77-3.07,2.05c-.92.61-1.55,1.58-1.73,2.67l-1.04,6.23c-.09.59-.06,1.19.1,1.76l2.39,8.36-2.86-.52-2.32-6.19c-.59-1.56-2.08-2.6-3.75-2.6h-10.39c-.34,0-.69.05-1.02.14-.18.04-.37.11-.54.18-.3.13-.58.29-.84.48l-4.15,3.12c-.13.1-.25.2-.36.31-.96.92-1.41,2.26-1.18,3.59l3.12,17.66c.33,1.91,1.99,3.3,3.94,3.3h6.79l8.21,7.3c.83.74,1.93,1.1,3.06.99l19.01-1.9,9.08,8.17c.51.46,1.13.78,1.8.93l8.14,2.05h8l7,4v15l-4.75,12.79-19.25,10.21c-1.28.7-2,2.54-2,4v10l-6.7,4.26c-1.17.73-1.3,2.36-1.3,3.74v6s-2,1-4,1-3-2-3-2v-42c0-.75-.6-1.37-1-2l-10-15v-12c0-1.79-1.28-3.51-3-4l-13.11-3.56-21.14-18.26-.78-3.85c-.1-.52-.3-1-.59-1.44l-4.15-6.23c-.67-1-1.75-1.64-2.94-1.76s-2.37.3-3.22,1.15l-2.31,2.31-11.24-22.49,4.48-10.87c.2-.49,0-1.48,0-2v-7c0-2.21-2.79-4-5-4h-7.75c10.97-16.36,26.28-29.56,44.28-37.95l14.42,10.18c.53.38,1.14.61,1.78.7l14.24,1.9,3.99,3.99-.68,1.03-10.65-3.28c-1.49-.46-3.1-.02-4.14,1.13l-10.39,11.43c-.67.73-1.04,1.69-1.04,2.69v6.23c0,2.04,1.53,3.75,3.56,3.98l6.34.7.54,3.25c.32,1.93,1.55,3.02,3.5,3.02h9c1.99,0,3.44-1.14,3.72-3.11l.69-4.82,7-2.34c.18-.06.35-.13.52-.21l4.35-2.18.48.27c1.66-2.21,3.53-4.26,5.58-6.12l-4.02-2.17c-1.15-.64-2.55-.67-3.73-.08l-5.98,2.99-9.06,3.02h-.02c-1.44.49-2.48,1.74-2.69,3.24l-.08.54-.46,3.29h-1.46l-.48-2.89c-.29-1.77-1.72-3.12-3.5-3.32l-5.79-.64v-1.11l7.64-8.4,11.07,3.41c1.69.52,3.53-.14,4.51-1.61l4.15-6.23c1.06-1.59.85-3.7-.5-5.05l-7.27-7.27c-.62-.62-1.43-1.02-2.3-1.14l-14.61-1.94-9.48-6.7c3.79-1.38,7.68-2.54,11.65-3.49l1.01,3.54c.44,1.53,1.74,2.66,3.32,2.87l15.58,2.07c.18.03.36.04.53.04,1.69,0,3.23-1.07,3.78-2.71,1.39-4.07,2.33-6.84,2.96-8.73,0,0,13.03.89,16.89,1.65,15.64,2.79,30.13,8.96,42.68,17.72,0,0,6.32,4.74,6.45,4.86,11.79,9.62,21.52,21.67,28.42,35.39h-.01c1.86,3.68,3.51,7.48,4.93,11.39ZM139.48,38.72l-9.73-1.29-.12-.4c3.55-.57,7.16-.97,10.82-1.18-.31.92-.64,1.89-.97,2.87Z"/>
</svg>