<?xml version="1.0" encoding="utf-8"?>
<!-- Generator: Adobe Illustrator 27.8.1, SVG Export Plug-In . SVG Version: 6.00 Build 0)  -->
<svg version="1.1" id="Layer_1" xmlns="http://www.w3.org/2000/svg" xmlns:xlink="http://www.w3.org/1999/xlink" x="0px" y="0px"
	 viewBox="0 0 288 288" style="enable-background:new 0 0 288 288;" xml:space="preserve">
<style type="text/css">
	.st0{fill:#FCFBFA;}
</style>
<g>
	<path class="st0" d="M194.5,57c-4,0-39.5,0.4-39.5,13v20v0.7V111v0.7v20.5c0,11.9,32.9,12.5,39.5,12.5s39.5-0.6,39.5-12.5v-20.5
		V111V90.7V90V70C234,57.4,198.5,57,194.5,57z M226,131.6c-2.2,1.9-13.2,5.1-31.5,5.1s-29.3-3.3-31.5-5.1V120
		c10.2,4,27,4.3,31.5,4.3s21.3-0.3,31.5-4.3V131.6z M225.4,70c-3.1,2-13.7,5-30.9,5s-27.7-3-30.9-5c3.1-2,13.7-5,30.9-5
		S222.2,68,225.4,70z M194.5,116.2c-18.3,0-29.3-3.3-31.5-5.1V99c10.2,4,27,4.3,31.5,4.3S215.8,103,226,99v12.1
		C223.8,113,212.8,116.2,194.5,116.2z M226,90.1c-2.2,1.9-13.2,5.1-31.5,5.1S165.2,92,163,90.1V78.5c10.7,4.4,28.7,4.5,31.5,4.5
		s20.8-0.2,31.5-4.5V90.1z"/>
	<path class="st0" d="M239.5,47.5c-2.9-1.8-6-3.1-9.3-3.8c-2.2-0.5-4.2-2-5.2-4.1c-4.8-9.7-14.6-15.7-25.4-15.7
		c-7.9,0-15.5,3.3-20.8,9.1c-1.5,1.6-3.6,2.5-5.7,2.3c-4-0.5-8.1,0.2-11.9,1.8c-6.8,3-11.8,9.2-13.3,16.5C147.4,56,146,58,144,59
		c-9.3,4.8-15.6,14.3-16.4,24.7l-0.3,4.3H149v-8h-12.6c1.7-5.9,5.8-11.1,11.3-13.9c4.1-2.1,7-6.1,8-10.9c1-4.8,4.3-8.8,8.7-10.8
		c2.4-1.1,5.1-1.5,7.8-1.2c4.5,0.5,9.2-1.3,12.4-4.8c3.9-4.2,9.3-6.5,15-6.5c7.8,0,14.8,4.3,18.3,11.3c2.1,4.2,6.1,7.3,10.7,8.3
		c2.4,0.5,4.6,1.4,6.7,2.8c8.7,5.5,12.1,16.4,8.3,25.7H240v8h8.5l1.1-2.1C256.8,72.5,252.4,55.6,239.5,47.5z"/>
	<path class="st0" d="M84,135.4v-34.9C84,93.6,89.6,88,96.5,88h9.1L95.5,98l5.6,5.7l20-19.8l-20-19.8l-5.6,5.7L105.8,80h-9.3
		C85.2,80,76,89.2,76,100.5v34.9l4-4L84,135.4z"/>
	<path class="st0" d="M81.1,208.4c7.2,0,13-5.8,13-13s-5.8-13-13-13s-13,5.8-13,13S73.9,208.4,81.1,208.4z M81.1,190.4
		c2.8,0,5,2.2,5,5s-2.2,5-5,5s-5-2.2-5-5S78.3,190.4,81.1,190.4z"/>
	<path class="st0" d="M85.2,257h14.3l1.1-2.1c0-0.1,0.1-0.1,0.1-0.2l-3.6-3l5.1-6.1l2,1.7c2.2-5.2,4-10.6,5.2-16.2l-5.3-5.7l5.9-5.4
		l1,1.1c0.8-8,0.6-16.2-0.6-24.4c-3.2-20.4-12.7-39.1-27.6-53.9l-2.8-2.8l-2.8,2.8c-21,21-30.1,49.9-26.3,78.4l1.3-1.5l5.9,5.4
		l-5.4,5.8c1.3,5.4,3.1,10.8,5.4,16l1.7-1.4l5.1,6.1l-3.3,2.7c0.1,0.2,0.2,0.3,0.3,0.5l1.1,2.1h14.1v6v1h8v-1V257z M63.2,169
		L63.2,169L63.2,169z M90.3,165H69.9c2.9-4.8,6.2-9.4,10.1-13.7C83.9,155.6,87.3,160.2,90.3,165z M65.7,173h28.9
		c11.5,24,12,52.2,0,76h-9.5v-30h-8v30h-9.3C55.4,224.3,55,196.5,65.7,173z"/>
	<path class="st0" d="M116.3,226.8L111,221l-1-1.1l-5.9,5.4l5.3,5.7l4.9,5.3l3,3.2c0.4,0.5,0.7,1.1,0.7,1.8V256h-3.3l-5.7-4.8
		l-4.8-4l-2-1.7l-5.1,6.1l3.6,3l4.7,3.9l6.4,5.4H126v-22.6c0-2.7-1-5.2-2.8-7.2L116.3,226.8z"/>
	<path class="st0" d="M61.7,254.4l3.3-2.7l-5.1-6.1l-1.7,1.4l-4.8,4l-6,5.1H44v-14.6c0-0.7,0.2-1.3,0.7-1.8l3.3-3.5l4.8-5.2l5.4-5.8
		l-5.9-5.4l-1.3,1.5l-5.1,5.5l-7,7.6c-1.8,2-2.8,4.5-2.8,7.2V264h14.2l6.8-5.7L61.7,254.4z"/>
</g>
</svg>
