<svg id="ART" xmlns="http://www.w3.org/2000/svg" viewBox="0 0 288 288"><defs><style>.cls-1{fill:#fcfbfa;}</style></defs><path class="cls-1" d="M225,88.24V60a17,17,0,0,0-17-17h-6a17,17,0,0,0-17,17V79.06A16.91,16.91,0,0,1,189,90v6h5.94a13.23,13.23,0,0,0,20.12,0H222a13,13,0,0,1,13,13v41h-6V115h-8v32H189v8h32v41H189V166h-8v38h6v51h36V204h6V172h14V109A21,21,0,0,0,225,88.24ZM196.72,73.68A11.83,11.83,0,0,1,193.05,66a18.26,18.26,0,0,0,2.55.19,16.94,16.94,0,0,0,9.4-2.88A16.86,16.86,0,0,0,216.91,66a12.32,12.32,0,0,1-11.33,11A11.91,11.91,0,0,1,196.72,73.68ZM202,51h6a9,9,0,0,1,8.74,6.88c-1.87.48-5.38.71-9-2.63L205,52.8l-2.69,2.45c-3.68,3.35-7.19,3.11-9,2.62A9,9,0,0,1,202,51Zm3,41.64a5.15,5.15,0,0,1-4-1.86V84.6a20.3,20.3,0,0,0,4,.4l1,0a19,19,0,0,0,3-.41v6.21A5.15,5.15,0,0,1,205,92.64ZM201,204v29h-6V204Zm-6,37h6v6h-6Zm14,6v-6h6v6Zm6-14h-6V204h6Zm14-69v-6h6v6ZM97,196H65V155H97v-8H86V99.68A13,13,0,0,0,91.06,96H97V89c0-.34,0-.67,0-1H93V83h8V60A17,17,0,0,0,84,43H78A17,17,0,0,0,61,60V83h8v5H64a21,21,0,0,0-21,21v63H57v32h6v51H99V204h6V166H97ZM89.28,73.68A12,12,0,0,1,80.42,77,12.32,12.32,0,0,1,69.09,66,16.86,16.86,0,0,0,81,63.27a16.94,16.94,0,0,0,9.4,2.88A18.26,18.26,0,0,0,93,66,11.83,11.83,0,0,1,89.28,73.68ZM77,84.57A19,19,0,0,0,80,85l1,0a20.3,20.3,0,0,0,4-.4v6.18a5.23,5.23,0,0,1-8,0ZM78,51h6a9,9,0,0,1,8.74,6.87c-1.86.49-5.37.74-9-2.62L81,52.8l-2.7,2.45c-3.68,3.36-7.19,3.11-9,2.63A9,9,0,0,1,78,51ZM64,96h6.94A13,13,0,0,0,78,100.3V147H65V115H57v35H51V109A13,13,0,0,1,64,96ZM51,164v-6h6v6Zm26,40v29H71V204Zm-6,37h6v6H71Zm14,6v-6h6v6Zm6-14H85V204h6Zm78,14V160h14V92a16,16,0,0,0-16-16H157V67.27A19.83,19.83,0,0,0,163,53V31H132a9,9,0,0,0-9,9V52.55a20.66,20.66,0,0,0,6,14.61V76H119a16,16,0,0,0-16,16v68h14v87h0l-8,4v4h68v-4l-8-4Zm0-95v-6h6v6Zm6-60v46h-6V103h-8v46.28a24.47,24.47,0,0,1-5.15-1.95C149.9,144.22,147,139.2,147,132V101.66L164.66,84H167A8,8,0,0,1,175,92ZM131,52.55V52h16a15.86,15.86,0,0,0,8-2.17V53a11.87,11.87,0,0,1-3.72,8.68A12,12,0,0,1,142.42,65C136.12,64.69,131,59.11,131,52.55ZM147,84h6.34L147,90.34Zm-8,6.34L132.66,84H139ZM132,39h22.41A8,8,0,0,1,147,44H131V40A1,1,0,0,1,132,39Zm10,34,1,0a20,20,0,0,0,6-.92V76H137v-4A19.89,19.89,0,0,0,142,73ZM119,84h2.34L139,101.66V132c0,7.12-2.83,12.09-8.64,15.22a24.72,24.72,0,0,1-5.36,2.06V103h-8v35h-6V92A8,8,0,0,1,119,84Zm-8,68v-6h6v6Zm38,95h-2V164h-8v83H125V157.54c6-1.12,13.48-4.36,18-11.19,4.52,6.83,12,10.07,18,11.19V247Z"/></svg>