<?xml version="1.0" encoding="UTF-8"?>
<svg id="ART" xmlns="http://www.w3.org/2000/svg" version="1.1" viewBox="0 0 288 288">
  <!-- Generator: Adobe Illustrator 30.0.0, SVG Export Plug-In . SVG Version: 2.1.1 Build 123)  -->
  <defs>
    <style>
      .st0 {
        fill: #fcfbfa;
      }
    </style>
  </defs>
  <path class="st0" d="M137.843919,181.225473c-12.851997-3.783997-23.614998-12.035004-30.589996-23.356003l-1.583-2.742996c-5.508003-10.218994-7.547997-21.679001-5.954002-32.975998l.582001-3.296997c.306999-1.501999.667-3,1.103996-4.487999,4.07-13.790001,13.260002-25.18,25.889999-32.060005,8.010002-4.370003,16.799995-6.589996,25.689995-6.589996,5.100006,0,10.240005.730003,15.279999,2.209999,9.100006,2.68,16.959991,7.57,23.169998,13.909996h10.610001c-7.899994-10.32-18.820007-17.839996-31.520004-21.580002-15.850006-4.669998-32.559998-2.879997-47.059998,5.019997-2.526001,1.376999-4.923996,2.919998-7.198997,4.598l-4.635002-5.528c1.260002-1.671997,2.244003-3.556999,2.866997-5.620003,1.392998-4.601997.908997-9.471001-1.360001-13.709h0c-2.269997-4.238998-6.054001-7.341-10.654999-8.732002-4.600998-1.391998-9.471001-.91-13.709,1.360001-8.75,4.685001-12.057999,15.613998-7.373001,24.364998,3.240997,6.053001,9.471001,9.500999,15.900002,9.500999,2.776001,0,5.588997-.651001,8.214996-2.004997l4.633003,5.526001c-7.665001,7.361-13.330002,16.608002-16.415001,27.072998-.275002.936996-.525002,1.876999-.754997,2.82l-19.212997-3.389999c.097-4.102997-.875-8.178001-2.892998-11.877998-3.032997-5.565002-8.053001-9.616997-14.132999-11.406998-6.081001-1.792-12.494999-1.105003-18.061001,1.927002-5.564999,3.033997-9.617001,8.054001-11.407,14.134003-3.696001,12.553001,3.509001,25.771004,16.061998,29.467995,2.220001.654007,4.484001.977997,6.735001.977997,3.915001,0,7.791-.979004,11.324001-2.904999,5.044003-2.75,8.826-7.139999,10.826-12.463997l19.373001,3.417999c-1.310997,11.685997.735001,23.461998,6.028,34.161995l-9.570999,5.522995c-6.808998-7.755997-18.556-9.251999-27.132999-3.132004-9.146,6.524002-11.277,19.272003-4.751999,28.417999,3.971001,5.565002,10.245998,8.533005,16.611996,8.533005,4.094002,0,8.225998-1.227997,11.805-3.779999,4.43-3.160004,7.363998-7.856003,8.262001-13.225006.564003-3.367004.280998-6.746002-.786003-9.889999l9.560997-5.516998c8.025002,12.067001,19.903999,20.862,33.966995,24.998993,5.809998,1.710007,11.669998,2.529999,17.440002,2.529999.300003,0,.610001,0,.910004-.009995l.729996-2.029999,1.729996-4.770004.479996-1.330002c-1.270004.089996-2.550003.139999-3.839996.139999-5.020004,0-10.130005-.710007-15.190002-2.199997l.001022-.000977ZM106.839913,66.408472c-.773003,2.556999-2.496002,4.658997-4.850998,5.919998-4.863998,2.602997-10.934998.764-13.537003-4.096001-2.602997-4.861-.764999-10.933998,4.097-13.535999,1.473-.789001,3.082001-1.188999,4.707001-1.188999.973,0,1.950996.144001,2.907997.433998,2.556999.772999,4.658997,2.495998,5.919998,4.850998h0c1.261002,2.355,1.528999,5.061001.755997,7.616997l.000008-.000992ZM65.125916,115.456476c-1.188,4.030998-3.873001,7.358002-7.562,9.369003-3.688999,2.012001-7.939999,2.462997-11.972,1.278-4.029999-1.188004-7.357998-3.873001-9.368999-7.561996s-2.465-7.941002-1.278-11.972c2.015999-6.844002,8.299999-11.289001,15.098-11.289001,1.467999,0,2.959.208,4.437.642998,4.029999,1.188004,7.356998,3.872002,9.368999,7.561996,2.011002,3.689003,2.463997,7.941002,1.277,11.972v-.000999ZM84.95292,177.983469c-.545998,3.259995-2.328003,6.111008-5.018997,8.031006-5.555,3.960999-13.295998,2.666-17.259003-2.886993-3.961998-5.554001-2.667999-13.296997,2.887001-17.259995,2.174004-1.550995,4.682999-2.296005,7.168999-2.296005,3.865997,0,7.679001,1.802994,10.090996,5.184006,1.918999,2.690002,2.676003,5.966995,2.130997,9.227997l.000008-.000015Z"/>
  <path class="st0" d="M144.110917,157.42547c-4.160004-1.378998-8.033005-3.723999-11.199997-6.783005l-5.558998,5.753998c4.025002,3.888,8.950005,6.869995,14.243004,8.623001l2.516006-7.593994h-.000015Z"/>
  <path class="st0" d="M116.330918,134.868479c.810997,5.619995,2.828003,10.848007,5.995003,15.539993l6.631004-4.477005c-2.487-3.684006-4.070999-7.789993-4.708-12.205994,0,0-7.917999,1.143005-7.918007,1.143005Z"/>
  <path class="st0" d="M159.874909,115.057474l21.231995-11.444-11.796997-21.887001-7.042999,3.794998,4.992996,9.264c-5.306-2.139999-11.016006-3.015999-16.761993-2.566002-.115005.009003-.231003.012001-.345993.022003-.039001.002998-.076996.009003-.115997.013-.421997.038002-.843994.087997-1.266006.140999-.242996.029999-.485001.056-.727005.091003-.268997.039001-.537994.085999-.807007.130997-.296997.049004-.598007.088997-.893005.144997l.001999.011002c-.113998.022003-.227005.037003-.341003.059998-2.481003.496002-4.871994,1.243004-7.147003,2.207001l-.009003-.021004c-5.138,2.157997-9.813995,5.517998-13.525002,9.713997l.042.037003c-1.726997,1.950996-3.25,4.079002-4.544998,6.349998l-.039001-.022003c-1.472,2.598-2.615997,5.384003-3.428001,8.261002-.110001.385002-.213997.771004-.310997,1.160004-.047997.195-.096001.389999-.141998.584999-.135002.583-.261002,1.168999-.367996,1.761002-.002998.014999-.005997.029999-.009003.043999-.114998.640999-.210999,1.287003-.292999,1.938004-.014999.120003-.027.239998-.041.361-.031998.275002-.068001.549004-.094002.824997l.016998.001999c-.031998.343002-.073997.684998-.096001,1.028l7.984001.514c.025002-.382004.066002-.761002.105003-1.139999.155998-1.486.414001-2.945999.788002-4.363998v-.000999c2.822998-10.684998,11.609993-19.178001,22.68-21.392998.317001-.063004.634995-.112999.951996-.166.212997-.035004.425003-.073997.639008-.103996.201996-.028999.404999-.051003.606995-.075996.317001-.039001.634003-.078003.951004-.106003.076004-.007004.151001-.011002.227005-.016998,2.507996-.204002,5.011002-.093002,7.451996.331001.028.004997.054993.009003.082993.014.802994.141998,1.598999.318001,2.386002.527,1.651001.439003,3.266998,1.019997,4.830994,1.748001l-9.625,5.188004,3.794998,7.042999.004028-.004005Z"/>
  <path class="st0" d="M161.42392,166.015482c.639999-.139999,1.270004-.289993,1.899994-.470001l3.630005-9.979996c-1.380005.720001-2.820007,1.330002-4.300003,1.820007-.25.089996-.509995.169998-.759995.240005-.520004.160004-1.039993.300003-1.570007.429993-.179993.039993-.360001.089996-.539993.130005-.720001.160004-1.449997.300003-2.190002.410004-.550003.080002-1.100006.139999-1.660004.190002-.169998.020004-.330002.020004-.5.039993-1.789993.119995-3.580002.100006-5.320007-.089996l-.869995,7.949997c1.339996.149994,2.710007.220001,4.059998.220001.570007,0,1.139999-.009995,1.710007-.039993.240005-.009995.479996-.029999.729996-.050003.259995-.009995.529999-.029999.789993-.050003.039993,0,.080002-.009995.110001-.009995.679993-.059998,1.350006-.139999,2.020004-.229996.039993-.009995.080002-.020004.119995-.020004.139999-.020004.279999-.050003.429993-.070007.570007-.089996,1.130005-.199997,1.699997-.309998.169998-.039993.339996-.070007.509995-.110001l.000031-.000015Z"/>
  <path class="st0" d="M232.618912,207.630472h29.080002l-39.854004-109.727997h-27.550995l-34.214996,94.194h20.800003l-16.115005,50.397995h11.231995l40.050003-75.126007h-17.906998l9.929001-27.328003,24.550995,67.589996v.000015ZM202.71692,175.367472l-24.084,47.847c-.145996.289993-.584.102997-.477005-.203003l13.679993-38.916h-20.341003.001007l28.403992-78.195h16.339996l34.044006,93.728004h-12.059006l-30.154007-83.022003-21.348999,58.759995h15.994995l.000031.001007Z"/>
  <polygon class="st0" points="175.995911 242.494471 175.995911 242.494471 175.99492 242.495478 175.995911 242.494471"/>
</svg>