<svg id="icon_art" data-name="icon art" xmlns="http://www.w3.org/2000/svg" viewBox="0 0 288 288"><defs><style>.cls-1{fill:#fcfbfa;}</style></defs><title>RMIL_Technology</title><path class="cls-1" d="M167.62,137.43l5.84,5.84a36.4,36.4,0,0,1-66.11-16.66l-8.62,8.64L93,129.51l19.06-19.09,19.06,19.09-5.73,5.74-10-10.07a28.32,28.32,0,0,0,52.28,12.25ZM180,122.59v-.12a36.42,36.42,0,0,0-67.43-19.18l5.93,5.94a28.33,28.33,0,0,1,53.4,13.24v.11l-9.28-9.29L156.88,119l19.06,19.09L195,119l-5.73-5.74ZM78,192H210v-8H78Zm34,14h64v-8H112Zm140,7h0v4l-8,4H44l-8-4v-4h0l21-39.21V76a9,9,0,0,1,9-9H222a9,9,0,0,1,9,9v96.32L252,213Zm-27-35H63.87L45.08,213H243ZM65,170H223V76a1,1,0,0,0-1-1H66a1,1,0,0,0-1,1Z"/></svg>