<svg id="ART" xmlns="http://www.w3.org/2000/svg" viewBox="0 0 288 288"><defs><style>.cls-1{fill:#fcfbfa;}</style></defs><path class="cls-1" d="M222.15,63.5a14.75,14.75,0,1,0,4.32,10.43A14.64,14.64,0,0,0,222.15,63.5Zm-5.66,15.2A6.75,6.75,0,1,1,207,69.15h0a6.75,6.75,0,1,1,9.54,9.55ZM68.71,105.21a14.75,14.75,0,1,0,0,20.86A14.69,14.69,0,0,0,68.71,105.21Zm-5.66,15.21a6.76,6.76,0,1,1,0-9.55A6.71,6.71,0,0,1,63.05,120.42Zm97.23,97.22a14.76,14.76,0,1,0,20.86,0A14.64,14.64,0,0,0,160.28,217.64Zm15.2,15.21a6.75,6.75,0,1,1-9.54-9.55h0a6.75,6.75,0,1,1,9.54,9.55ZM202.59,92.54a20.9,20.9,0,0,0,7.73,2.06L179.58,209.34a20.75,20.75,0,0,0-7.76-2ZM156,213.4a20.16,20.16,0,0,0-2.55,3.11L69.84,132.87A20.76,20.76,0,0,0,73,130.32a21.28,21.28,0,0,0,2.55-3.11l83.64,83.64A20.69,20.69,0,0,0,156,213.4ZM78.92,113.65A20.6,20.6,0,0,0,76.64,106L191.05,75.32a20.66,20.66,0,0,0,2.06,7.73ZM197.05,88.6a20.76,20.76,0,0,1-2.55-3.11l-37.8,37.8a14.72,14.72,0,0,0-17.63,2.43,15,15,0,0,0-2.59,3.47L79,115.78a20.64,20.64,0,0,1-1.59,7.84L134.79,137a14.69,14.69,0,0,0,14.07,13.86l13.38,58.29a20.59,20.59,0,0,1,7.79-1.79l-13.38-58.32a14.73,14.73,0,0,0,5.71-20.11l37.8-37.79A20.76,20.76,0,0,1,197.05,88.6Zm-54.3,47.55a6.71,6.71,0,0,1,2-4.77h0a6.76,6.76,0,1,1-2,4.77Z"/></svg>