<?xml version="1.0" encoding="UTF-8"?>
<svg id="ART" xmlns="http://www.w3.org/2000/svg" version="1.1" viewBox="0 0 288 288">
  <defs>
    <style>
      .cls-1 {
        fill: #312d2a;
        stroke-width: 0px;
      }
    </style>
  </defs>
  <path class="cls-1" d="M151,55.7v35.3h-7l-5.7-7.1h-28.3v-28.3h41ZM145.3,61.3h-29.7v17h25.4l4.3,5.4v-22.3ZM119.9,67v5.7h21.2v-5.7h-21.2ZM132,215c2.8,0,5-2.2,5-5s-2.2-5-5-5-5,2.2-5,5,2.2,5,5,5ZM151,194v38h-38v-38h38ZM145.1,200.1h-26.1c0,0,0,25.9,0,25.9h6v-5.8c0-1.8,1.4-3.2,3.2-3.2h7.5c1.8,0,3.2,1.5,3.2,3.2v5.8h6.1c0,0,0-25.9,0-25.9ZM132,205c-2.8,0-5,2.2-5,5s2.2,5,5,5,5-2.2,5-5-2.2-5-5-5ZM107.5,147.6h0s21.9,31.3,21.9,31.3h11l-26.8-38.4-3.2-4.6-20.6-29.5h-11l25.6,36.6,3.2,4.6h0ZM117.3,136.1h0l32.9,47.9h-24.2l-22.1-32.2-27.7,32.2h-7.2l31.7-36.9-31.7-46.1h24.2l21,30.5,26.3-30.5h7.2l-30.2,35.1h0ZM162,175.6v40.8c0,2,1.6,3.6,3.6,3.6h40.8c2,0,3.6-1.6,3.6-3.6v-40.8c0-2-1.6-3.6-3.6-3.6h-40.8c-2,0-3.6,1.6-3.6,3.6ZM176.6,212.2h-7.3v-22h7.3v22ZM173,187.2h0c-2.5,0-4-1.7-4-3.8s1.6-3.8,4.1-3.8,4,1.6,4.1,3.8c0,2.1-1.6,3.8-4.1,3.8ZM203,212.2h-7.3v-11.8c0-3-1.1-5-3.7-5s-3.2,1.4-3.8,2.7c-.2.5-.2,1.1-.2,1.8v12.3h-7.3s.1-19.9,0-22h7.3v3.1c1-1.5,2.7-3.6,6.6-3.6s8.4,3.2,8.4,9.9v12.6ZM156.9,130.8c0-16.3,13.2-29.6,29.6-29.6s29.6,13.2,29.6,29.6-10.8,27-24.9,29.2v-20.7h6.9l1.3-8.5h-8.2v-5.5c0-2.3,1.2-4.6,4.8-4.6h3.7v-7.3s-3.4-.6-6.6-.6c-6.8,0-11.2,4.1-11.2,11.5v6.5h-7.5v8.5h7.5v20.7c-14.1-2.2-24.9-14.4-24.9-29.2Z"/>
</svg>