<?xml version="1.0" encoding="utf-8"?>
<!-- Generator: Adobe Illustrator 24.0.3, SVG Export Plug-In . SVG Version: 6.00 Build 0)  -->
<svg version="1.1" id="ART" xmlns="http://www.w3.org/2000/svg" xmlns:xlink="http://www.w3.org/1999/xlink" x="0px" y="0px"
	 viewBox="0 0 288 288" style="enable-background:new 0 0 288 288;" xml:space="preserve">
<style type="text/css">
	.st0{fill:#312D2A;}
</style>
<path class="st0" d="M196,86v64h64V86H196z M252,94v12.8l-17,17l-16-16l-15,15V94H252z M204,142v-7.8l15-15l16,16l17-17V142H204z
	 M29,150h64V86H29V150z M37,94h48v48h-6v-38h-8v38h-6v-28h-8v28h-6v-18h-8v18h-6V94z M143,105c18.2,0,33-14.8,33-33v-4h-29V39h-4
	c-18.2,0-33,14.8-33,33S124.8,105,143,105z M167.7,76c-2.2,13.6-15.1,22.9-28.7,20.7c-3.8-0.6-7.5-2.1-10.6-4.4L144.7,76H167.7z
	 M139,47.3v23l-16.3,16.3c-8.1-11.2-5.5-26.8,5.7-34.9C131.5,49.4,135.2,47.9,139,47.3z M190,58c0-18.2-14.8-33-33-33h-4v37h37V58z
	 M161,54V33.3c10.6,1.7,18.9,10.1,20.7,20.7H161z M183.3,155h-20c-0.2,0-0.4-0.1-0.4-0.3c-0.1-0.2-0.1-0.4,0.1-0.5
	c2.7-3.7,4.1-8.1,4.1-12.7c0.1-12.5-10-22.6-22.5-22.7s-22.6,10-22.7,22.5c0,4.6,1.3,9.1,3.9,12.8c0.1,0.2,0.2,0.4,0.1,0.6
	c-0.1,0.2-0.2,0.3-0.4,0.2h-19.8c-5.3,0-9.6,4.3-9.6,9.6l0,0v77.7c0,5.3,4.3,9.6,9.6,9.6h77.7c5.3,0,9.6-4.3,9.6-9.6v-19.8
	c0-3.1-1.7-6-4.5-7.5s-6.2-1.3-8.9,0.5c-3,2.1-6.7,2.9-10.3,2.4c-8-1.2-13.5-8.6-12.3-16.6c1.1-7.2,7.2-12.5,14.5-12.4
	c2.9,0,5.7,0.9,8,2.6c3.8,2.8,9.1,1.9,11.9-1.9c1.1-1.5,1.6-3.2,1.6-5v-20C193,159.3,188.7,155,183.3,155L183.3,155z M185,184.6
	c0,0.3-0.2,0.5-0.5,0.5c-0.1,0-0.2,0-0.3-0.1c-3.7-2.7-8.1-4.1-12.7-4.1c-12.5,0-22.6,10.1-22.6,22.6c0,11.2,8.2,20.7,19.2,22.4
	c5.6,0.8,11.3-0.5,16-3.7c0.2-0.1,0.4-0.2,0.6-0.1c0.2,0.1,0.3,0.2,0.2,0.4v19.9c0,0.9-0.7,1.6-1.6,1.6l0,0h-77.7
	c-0.9,0-1.6-0.7-1.6-1.6l0,0v-77.7c0-0.9,0.7-1.6,1.6-1.6l0,0h19.8c3.1,0,6-1.7,7.5-4.5s1.3-6.2-0.5-8.9c-2.1-3-2.9-6.7-2.4-10.3
	c1-6.5,6.3-11.6,12.9-12.3c4.1-0.4,8.2,0.9,11.3,3.7c3.1,2.8,4.8,6.7,4.8,10.8c0,2.9-0.9,5.7-2.6,8c-2.7,3.8-1.8,9.1,2,11.9
	c1.4,1,3.1,1.5,4.8,1.6h20c0.9,0,1.6,0.7,1.6,1.6l0,0v19.9H185z"/>
</svg>
