<svg id="ART" xmlns="http://www.w3.org/2000/svg" viewBox="0 0 288 288">
  <defs>
    <style>
      .cls-1 {
        fill: #fcfbfa;
      }
    </style>
  </defs>
  <path class="cls-1" d="M216,36H72v84H216Zm-8,76H80V44H208Zm-33.88,83-30.29-27.39L113.55,195Zm-20.77-8h-19l9.51-8.61Zm-9.52-34.7a29.87,29.87,0,0,0-15.28,4.2l-5.79-5.8a37.91,37.91,0,0,1,42.15,0l-5.79,5.8a29.94,29.94,0,0,0-15.29-4.2ZM175,140.66l-5.73,5.74a43.83,43.83,0,0,0-50.77,0l-5.73-5.74A51.92,51.92,0,0,1,175,140.66Zm73.93,50L223,232.87l2.14,5.31A9,9,0,0,1,217,251H71a9,9,0,0,1-8.15-12.82l2.18-5.4L39.12,190.65a9,9,0,0,1,1-10.75L52,166.74a9,9,0,0,1,12.71-.6,8.83,8.83,0,0,1,1.39,1.6L78,185l-3.61,8.9L59.54,172.22a1,1,0,0,0-1.39-.27.93.93,0,0,0-.18.16L46.05,185.27a1,1,0,0,0-.11,1.2l22.77,37.08,16.07-39.8L68.16,159.16A9,9,0,0,1,69,148.08l6.71-7.42A9,9,0,0,1,88.42,140a8.7,8.7,0,0,1,1.46,1.69L93.35,147l-3.64,9-6.54-9.83a1,1,0,0,0-1.38-.29,1.12,1.12,0,0,0-.2.17l-6.71,7.42a1,1,0,0,0-.09,1.23l13.6,20.13L99.9,146.29h8.63L70.12,241.43l-.07.13a1,1,0,0,0,.46,1.34,1,1,0,0,0,.49.1H217a1,1,0,0,0,.85-1.47l-.12-.27c-1.42-3.52-32-79.19-38.36-95H188l11.54,28.61,13.67-20.22a1,1,0,0,0-.09-1.24L206.41,146a1,1,0,0,0-1.41-.08,1.06,1.06,0,0,0-.17.2l-6.6,9.93-3.61-9,3.55-5.34a9,9,0,0,1,12.48-2.52,9.44,9.44,0,0,1,1.69,1.46l6.71,7.41a9,9,0,0,1,.79,11.09l-16.68,24.69c5.76,14.28,11.79,29.19,16.07,39.8l22.83-37.18a1,1,0,0,0-.11-1.2L230,172.11a1,1,0,0,0-.81-.32,1,1,0,0,0-.76.43L213.54,194l-3.6-8.92,11.92-17.4a9,9,0,0,1,12.5-2.39,9.23,9.23,0,0,1,1.6,1.39l11.92,13.16a9,9,0,0,1,1,10.81Z"/>
</svg>
