<svg id="ART" xmlns="http://www.w3.org/2000/svg" viewBox="0 0 288 288"><defs><style>.cls-1{fill:#fcfbfa;}</style></defs><path class="cls-1" d="M257,157.79a8,8,0,0,0-5.14-7.51l-14.75-5.45-12.18-27.54A24,24,0,0,0,203,103H190.09v58H184V95H32v88H43.23c0,.33,0,.66,0,1a13,13,0,0,0,21.91,9.44A13,13,0,0,0,87,184c0-.34,0-.67,0-1h43.1c0,.33-.05.66-.05,1a13,13,0,0,0,22.05,9.32,13,13,0,0,0,22-9.32c0-.34,0-.67-.05-1h45.19c0,.33,0,.66,0,1a13,13,0,0,0,26,0c0-.34,0-.67-.05-1H257ZM227.55,143H212.09V128h8.82Zm-51.46-40v58H40V103ZM56.18,189a5,5,0,1,1,4.88-6.09c0,.36-.06.72-.06,1.09s0,.73.06,1.09A5,5,0,0,1,56.18,189ZM74,189a5,5,0,0,1-4.87-3.91c0-.36.05-.72.05-1.09s0-.73-.05-1.09A5,5,0,1,1,74,189Zm69,0a5,5,0,0,1-5-5,5.47,5.47,0,0,1,.1-1h.9v-2a5,5,0,1,1,4,8Zm18.09,0a5,5,0,1,1,5-5A5,5,0,0,1,161.09,189Zm9.36-14a12.95,12.95,0,0,0-18.4-.32,13,13,0,0,0-18.41.32H83.36a12.94,12.94,0,0,0-18.27-.44,12.94,12.94,0,0,0-18.27.44H40v-6H190.09v6Zm61.73,14a5,5,0,1,1,5-5A5,5,0,0,1,232.18,189Zm9.36-14a13,13,0,0,0-18.72,0H198V111h5a16,16,0,0,1,14.37,9H204.09v26a5,5,0,0,0,5,5h22l.07.17,17.93,6.62V161H243v8h6.09v6ZM58,155H50V109h8Zm18,0H68V109h8Zm18,0H86V109h8Zm18,0h-8V109h8Zm18,0h-8V109h8Zm18,0h-8V109h8Zm18,0h-8V109h8Z"/></svg>