<svg id="ART" xmlns="http://www.w3.org/2000/svg" viewBox="0 0 288 288"><defs><style>.cls-1{fill:#fcfbfa;}</style></defs><path class="cls-1" d="M82,95,81,82.42A9.3,9.3,0,0,0,71.73,74H51v4l7.62,3.8V82H71.73a1.32,1.32,0,0,1,1.32,1.13l8.06,101.44A9.3,9.3,0,0,0,90.39,193h3.28a14.66,14.66,0,1,0,26.08,0h48.5a14.49,14.49,0,0,0-1.62,6.65,14.66,14.66,0,1,0,27.7-6.65h5.06v-.2L207,189v-4H90.39a1.31,1.31,0,0,1-1.31-1.13l-1-12.87H199.83a10.41,10.41,0,0,0,10.32-9.1L218.53,95Zm31.35,104.65a6.66,6.66,0,1,1-6.66-6.65A6.67,6.67,0,0,1,113.37,199.65Zm74.57,0a6.66,6.66,0,1,1-6.65-6.65A6.66,6.66,0,0,1,187.94,199.65ZM207.71,117H183.07l.88-14h25.52ZM84.4,125h25.13l.58,15H85.59Zm33.13,0H142v15H118.12ZM142,117H117.22l-.55-14H142Zm8-14h25.93l-.87,14H150Zm-8,45v15H119l-.59-15Zm8,0h23.12l-.94,15H150Zm0-8V125h24.56l-.94,15Zm32.57-15h24.14l-1.88,15H181.64Zm-73.9-22,.54,14H83.77l-1.12-14ZM86.23,148h24.2l.58,15H87.42Zm113.6,15H180.2l.94-15h22.69l-1.62,12.91A2.4,2.4,0,0,1,199.83,163Z"/></svg>