<svg id="Icon_art" data-name="Icon art" xmlns="http://www.w3.org/2000/svg" viewBox="0 0 288 288">
  <defs>
    <style>
      .cls-1 {
        fill: #312d2a;
      }
    </style>
  </defs>
  <g id="OKE-Kubernetes">
    <g>
      <path class="cls-1" d="M243,36H45a9,9,0,0,0-9,9V243a9,9,0,0,0,9,9H243a9,9,0,0,0,9-9V45A9,9,0,0,0,243,36Zm1,207a1,1,0,0,1-1,1H45a1,1,0,0,1-1-1V45a1,1,0,0,1,1-1H243a1,1,0,0,1,1,1Z"/>
      <path class="cls-1" d="M140.5,60h-48v48h48Zm-8,40h-32V68h32Z"/>
      <path class="cls-1" d="M194.5,60h-48v48h48Zm-8,40h-32V68h32Z"/>
      <polygon class="cls-1" points="128 122 160 122 160 134.67 168 136.65 168 114 120 114 120 136.65 128 134.67 128 122"/>
      <polygon class="cls-1" points="182 122 214 122 214 148.07 222 150.06 222 114 174 114 174 138.14 182 140.13 182 122"/>
      <polygon class="cls-1" points="74 122 106 122 106 140.13 114 138.14 114 114 66 114 66 150.06 74 148.07 74 122"/>
      <path class="cls-1" d="M144,136.88l-85.42,21.2,1,3.88a87,87,0,0,0,168.92,0l1-3.88Zm-4,9.23v73.78a78.79,78.79,0,0,1-71.63-56Zm8,73.78V146.11l71.63,17.79A78.79,78.79,0,0,1,148,219.89Z"/>
    </g>
  </g>
</svg>
