<?xml version="1.0" encoding="UTF-8"?>
<svg id="ART" xmlns="http://www.w3.org/2000/svg" version="1.1" viewBox="0 0 288 288">
  <defs>
    <style>
      .cls-1 {
        fill: #312d2a;
        stroke-width: 0px;
      }
    </style>
  </defs>
  <path class="cls-1" d="M167.9,215.8h-29.9c0-17.5-6.9-34.2-19.2-46.5-12.3-12.3-29.1-19.2-46.5-19.2v-29.9c25.4,0,49.7,10.1,67.7,28,18,17.9,28,42.3,28,67.7h0ZM114.1,195c0,10-7.2,18.5-17,20.4-9.8,1.9-19.6-3.4-23.3-12.6-3.8-9.2-.5-19.8,7.8-25.4,8.3-5.5,19.4-4.4,26.4,2.6,4,4,6.2,9.3,6.1,14.9h0ZM215.7,215.8h-29.8c0-30.1-11.9-59-33.2-80.3-21.2-21.3-50-33.3-80.1-33.3h-.5v-29.9h.5c37.9,0,74.4,15.1,101.1,42,26.9,26.9,42,63.4,41.9,101.5h0Z"/>
</svg>