<?xml version="1.0" encoding="UTF-8"?>
<svg id="ART" xmlns="http://www.w3.org/2000/svg" viewBox="0 0 288 288">
  <defs>
    <style>
      .cls-1 {
        fill: #fcfbfa;
      }
    </style>
  </defs>
  <path class="cls-1" d="M241.07,78.35l-32.34-32.34h-107.66v52.71c-.47.15-.95.31-1.42.49-6.91,2.56-12.75,7.36-16.63,13.61-15.82,2.25-27.91,15.98-27.91,32.16,0,.93.05,1.88.15,2.89-5.39,5.98-8.33,13.61-8.33,21.72s2.94,15.73,8.32,21.71c-.1.98-.14,1.9-.14,2.81,0,16.09,12.02,29.8,27.74,32.13,5.88,9.76,16.34,15.74,27.81,15.74.37,0,.74,0,1.1-.02,5.88-.21,10.49-5.04,10.49-10.99v-3.97h6.29v3.97c0,5.95,4.61,10.78,10.48,10.99.37.01.74.02,1.11.02,11.16,0,21.37-5.67,27.32-14.98h73.61V78.35ZM208.07,56.67l22.34,22.34h-22.34v-22.34ZM111.48,233.98c-.27,0-.54.01-.81.01-9.19,0-17.53-5.1-21.77-13.31l-1.02-1.98-2.22-.18c-12.64-1-22.55-11.72-22.55-24.41,0-1.08.1-2.23.3-3.61l.3-2.01-1.45-1.43c-4.73-4.65-7.33-10.85-7.33-17.47s2.61-12.83,7.34-17.48l1.46-1.43-.31-2.02c-.21-1.41-.31-2.58-.31-3.69,0-12.74,9.95-23.46,22.66-24.41l2.19-.16,1.04-1.94c2.91-5.45,7.68-9.62,13.43-11.76,2.7-1,5.47-1.51,8.24-1.51.2,0,.4,0,.6,0,1.67.04,2.98,1.36,2.98,2.99v38.61h-19.63l-1.17-1.17c.78-1.6,1.23-3.39,1.23-5.29,0-6.71-5.46-12.17-12.17-12.17s-12.17,5.46-12.17,12.17,5.46,12.17,12.17,12.17c1.9,0,3.68-.45,5.29-1.22l3.52,3.52h22.94v10.79h-29.48c-1.67-4.73-6.17-8.14-11.47-8.14-6.71,0-12.17,5.46-12.17,12.17s5.46,12.17,12.17,12.17c5.32,0,9.83-3.43,11.49-8.19h29.47v10.34h-22.94l-3.52,3.52c-1.6-.78-3.39-1.22-5.29-1.22-6.71,0-12.17,5.46-12.17,12.17s5.46,12.17,12.17,12.17,12.17-5.46,12.17-12.17c0-1.9-.45-3.68-1.22-5.29l1.17-1.17h19.63v39.04c0,1.6-1.24,2.94-2.78,3ZM82.51,144.52c-2.3,0-4.17-1.87-4.17-4.17s1.87-4.17,4.17-4.17,4.17,1.87,4.17,4.17-1.87,4.17-4.17,4.17ZM77.47,169.62c0,2.3-1.87,4.17-4.17,4.17s-4.17-1.87-4.17-4.17,1.87-4.17,4.17-4.17,4.17,1.87,4.17,4.17ZM86.68,198.39c0,2.3-1.87,4.17-4.17,4.17s-4.17-1.87-4.17-4.17,1.87-4.17,4.17-4.17,4.17,1.87,4.17,4.17ZM162.93,218.7l-1.02,1.98c-4.24,8.21-12.58,13.31-21.77,13.31-.27,0-.54,0-.82-.01-1.53-.05-2.77-1.4-2.77-3v-39.04h19.63l1.17,1.17c-.78,1.6-1.23,3.39-1.23,5.29,0,6.71,5.46,12.17,12.17,12.17s12.17-5.46,12.17-12.17-5.46-12.17-12.17-12.17c-1.9,0-3.68.45-5.29,1.22l-3.52-3.52h-22.94v-10.34h29.47c1.65,4.76,6.17,8.19,11.49,8.19,6.71,0,12.17-5.46,12.17-12.17s-5.46-12.17-12.17-12.17c-5.3,0-9.8,3.41-11.47,8.14h-29.49v-10.79h22.94l3.52-3.52c1.6.78,3.39,1.22,5.29,1.22,6.71,0,12.17-5.46,12.17-12.17s-5.46-12.17-12.17-12.17-12.17,5.46-12.17,12.17c0,1.9.45,3.68,1.23,5.29l-1.17,1.17h-19.62v-38.61c0-1.63,1.31-2.95,2.98-2.99,2.96-.08,5.94.43,8.84,1.5,5.75,2.13,10.52,6.31,13.43,11.76l1.04,1.94,2.19.16c12.71.95,22.66,11.67,22.66,24.41,0,1.11-.1,2.28-.31,3.69l-.3,2.02,1.46,1.43c4.73,4.65,7.34,10.86,7.34,17.48s-2.6,12.82-7.33,17.47l-1.45,1.43.3,2.01c.21,1.38.3,2.53.3,3.61,0,12.68-9.9,23.4-22.55,24.41l-2.22.18ZM168.29,194.23c2.3,0,4.17,1.87,4.17,4.17s-1.87,4.17-4.17,4.17-4.17-1.87-4.17-4.17,1.87-4.17,4.17-4.17ZM173.34,169.62c0-2.3,1.87-4.17,4.17-4.17s4.17,1.87,4.17,4.17-1.87,4.17-4.17,4.17-4.17-1.87-4.17-4.17ZM164.12,140.35c0-2.3,1.87-4.17,4.17-4.17s4.17,1.87,4.17,4.17-1.87,4.17-4.17,4.17-4.17-1.87-4.17-4.17ZM183.98,219.01c7.16-6,11.71-15,11.71-24.89,0-.91-.05-1.83-.14-2.81,5.38-5.98,8.32-13.61,8.32-21.71s-2.94-15.74-8.33-21.72c.1-1.01.15-1.96.15-2.89,0-16.18-12.1-29.9-27.91-32.16-3.88-6.26-9.72-11.05-16.63-13.61-3.86-1.43-7.85-2.11-11.84-2-6.04.16-10.76,4.99-10.76,10.99v110.81h-6.29v-110.81c0-6-4.73-10.83-10.76-10.99-.81-.02-1.62,0-2.42.04v-43.24h91v33h33v132h-49.09Z"/>
</svg>