<?xml version="1.0" encoding="utf-8"?>
<!-- Generator: Adobe Illustrator 24.0.3, SVG Export Plug-In . SVG Version: 6.00 Build 0)  -->
<svg version="1.1" id="ART" xmlns="http://www.w3.org/2000/svg" xmlns:xlink="http://www.w3.org/1999/xlink" x="0px" y="0px"
	 viewBox="0 0 288 288" style="enable-background:new 0 0 288 288;" xml:space="preserve">
<style type="text/css">
	.st0{fill:#312D2A;}
</style>
<path class="st0" d="M66,205c-0.6,0-1-0.4-1-1V95h154v57.5c2.8,1,5.5,2.4,8,4V78c0-5-4-9-9-9H66c-5,0-9,4-9,9v126c0,5,4,9,9,9h104.4
	c-1.6-2.5-3-5.2-4-8H66z M66,77h152c0.6,0,1,0.4,1,1v9H65v-9C65,77.4,65.4,77,66,77z M71,145h65v-30H71V145z M79,123h49v14H79V123z
	 M213,115h-65v30h65V115z M205,137h-49v-14h49V137z M71,101h34v8H71V101z M71,199h89v-30H71V199z M79,177h73v14H79V177z M71,155h34
	v8H71V155z M148,101h34v8h-34V101z M205,156c-19.3,0-35,15.7-35,35s15.7,35,35,35s35-15.7,35-35l0,0C240,171.7,224.3,156,205,156z
	 M205,218c-14.9,0-27-12.1-27-27s12.1-27,27-27s27,12.1,27,27l0,0C232,205.9,219.9,218,205,218z M200.2,194.7l-6.4-6.4l-5.7,5.7
	l12,12l21.6-21.6l-5.7-5.6L200.2,194.7z"/>
</svg>
