<svg id="ART" xmlns="http://www.w3.org/2000/svg" viewBox="0 0 288 288"><defs><style>.cls-1{fill:#312d2a;}</style></defs><path class="cls-1" d="M171.4,189.57l-4.48,2.64a12.1,12.1,0,0,0-1.92-1.1V186H155v5.11a11.94,11.94,0,0,0-1.78,1l-4.31-2.54-5.08,8.62,4.25,2.5a10.77,10.77,0,0,0,0,2.62l-4.25,2.5,5.08,8.62,4.31-2.54a11.94,11.94,0,0,0,1.78,1V218h10v-5.11a12.1,12.1,0,0,0,1.92-1.1l4.48,2.64,5.08-8.62-4.54-2.67a10.86,10.86,0,0,0,0-2.28l4.54-2.67ZM160,206a4,4,0,1,1,4-4A4,4,0,0,1,160,206Zm29,26V181a9,9,0,0,0-9-9H109a9,9,0,0,0-9,9v51H86v4l8,4H195l8-4v-4Zm-58,0V215.24a11,11,0,0,0,6.81-8.24H138v-6h0l-4-8h-4v8h0v3h-6v-3h0v-8h-4l-4,8h0v4a11,11,0,0,0,7,10.24V232H108V181a1,1,0,0,1,1-1h71a1,1,0,0,1,1,1v51Zm47.8-95.08L167,137v-15.5a33,33,0,0,0,10.11-23.54L177,54V50H134c-14.4,0-23,9.34-23,25h0l-.12,23.37A32.3,32.3,0,0,0,121,121.79V137l-11.82-.06A38.22,38.22,0,0,0,71,175.1V199h8V175.1a30.21,30.21,0,0,1,30.16-30.18l15.07.08L144,165.81,163.78,145l15-.07A30.22,30.22,0,0,1,209,175.1V199h8V175.1A38.22,38.22,0,0,0,178.8,136.92ZM134,58h34.8c-1.43,13-9.86,13-12.8,13H119.24C120.35,62.37,125.3,58,134,58ZM118.88,98.37,119,79h37a20.3,20.3,0,0,0,13.06-4.18l.06,23.12A25.41,25.41,0,0,1,144,123C130.17,123,118.88,112,118.88,98.37ZM144,154.19,129,138.4v-11A33.45,33.45,0,0,0,144,131a32.26,32.26,0,0,0,15-3.73V138.4Z"/></svg>