<svg id="ART" xmlns="http://www.w3.org/2000/svg" viewBox="0 0 288 288"><defs><style>.cls-1{fill:#fcfbfa;}</style></defs><path class="cls-1" d="M197.51,182.1a41.47,41.47,0,0,0,9.59-11.72l.8-1.39-15-60.34-.18,0C189.43,98.42,180.23,91,169.43,91H154.51c-11,0-20.06,7.3-23.26,17.67l-.06,0-15,60.34.79,1.39a41.28,41.28,0,0,0,9.59,11.71A33.45,33.45,0,0,0,95,215.74v24.14h8V215.74A25.59,25.59,0,0,1,129,190h14.14c1.12,8.75,9.43,16,18.83,16s17.77-7.29,18.89-16H195a25.59,25.59,0,0,1,26,25.74v24.14h8V215.74A33.44,33.44,0,0,0,197.51,182.1ZM138,136v-9.67c6,1.1,14.88.87,24-6.09a30.25,30.25,0,0,0,18.62,6.58,29.23,29.23,0,0,0,5.38-.5V136c0,14.34-10.77,26-24,26S138,150.34,138,136Zm43,45.61V163.34a34.34,34.34,0,0,0,12.26-20.07l6.09,24.5C194.77,175.22,189.31,179.33,181,181.61ZM154.51,99h14.92c9.29,0,16.57,7.91,16.57,18v1.15c-4.56,1.14-12.87,1.61-21.3-6.08l-2.7-2.46-2.7,2.46c-8.42,7.68-16.73,7.22-21.3,6.09V117C138,106.91,145.25,99,154.51,99Zm-23.73,44.43A34.36,34.36,0,0,0,143,163.34v18.25c-8.26-2.28-13.71-6.39-18.28-13.82ZM162,198c-5.64,0-11-4.88-11-10V167.93a30.26,30.26,0,0,0,22,0V188C173,193.16,167.64,198,162,198ZM104,48.11H96v-12h8Zm26,26h12v8H130Zm-72,0H70v8H58Zm23.62-20L76,59.72l-8.49-8.48,5.66-5.66ZM124,59.72l-5.66-5.65,8.49-8.49,5.66,5.66ZM84,117.11l16,8.41,16-8.41v-13c0-3.69,1.35-6.09,3.07-9.13,2.21-3.92,5-8.8,5-17.14A23.76,23.76,0,0,0,100.3,54.11C87.13,54.11,76,65,76,77.84c0,8.33,2.74,13.21,4.94,17.13,1.71,3,3.06,5.45,3.06,9.14v13Zm16.3-55A15.77,15.77,0,0,1,116,77.84c0,6.24-1.91,9.62-3.93,13.21a28.82,28.82,0,0,0-3.73,9.06H104v-13H96v13H91.63a28.89,28.89,0,0,0-3.71-9c-2-3.59-3.92-7-3.92-13.22A16.24,16.24,0,0,1,100.3,62.11Zm7.7,46v4.17l-8,4.2-8-4.2v-4.17Z"/></svg>