<svg id="ART" xmlns="http://www.w3.org/2000/svg" viewBox="0 0 288 288"><defs><style>.cls-1{fill:#312d2a;}</style></defs><path class="cls-1" d="M179.83,177.43,193.26,164l-13.43-13.43-5.66,5.65L178,160H164.12c13.13-15.16,20.17-25,14.53-30.65s-15.49,1.4-30.65,14.53V130.66l3.78,3.77,5.65-5.65L144,115.34l-13.43,13.44,5.65,5.65,3.78-3.77v13.22c-15.16-13.13-25-20.17-30.65-14.53s1.4,15.49,14.53,30.65H109.66l3.77-3.78-5.65-5.65L94.34,164l13.44,13.43,5.65-5.65L109.66,168h14.22c-13.13,15.16-20.17,25-14.53,30.65s15.49-1.4,30.65-14.53V198l-3.78-3.78-5.65,5.66L144,213.26l13.43-13.43-5.65-5.66L148,198V184.12c11.56,10,20,16.49,25.91,16.49a6.43,6.43,0,0,0,4.74-2c5.64-5.65-1.4-15.49-14.53-30.65H178l-3.78,3.78ZM144,170h0a6,6,0,0,1-6-6h0a6,6,0,0,1,6-6h0a6,6,0,0,1,6,6h0A6,6,0,0,1,144,170Zm12.12-13a14.23,14.23,0,0,0-5.14-5.14c6.41-5.6,16.49-14.22,21.22-16.08C170.34,140.53,161.72,150.61,156.12,157ZM137,151.88a14.23,14.23,0,0,0-5.14,5.14c-5.6-6.41-14.22-16.49-16.08-21.22C120.53,137.66,130.61,146.28,137,151.88ZM131.88,171a14.23,14.23,0,0,0,5.14,5.14c-6.41,5.6-16.49,14.22-21.22,16.08C117.66,187.47,126.28,177.39,131.88,171Zm19.1,5.14a14.23,14.23,0,0,0,5.14-5.14c5.6,6.41,14.22,16.49,16.08,21.22C167.47,190.34,157.39,181.72,151,176.12Z"/><rect class="cls-1" x="95" y="102" width="98" height="8"/><rect class="cls-1" x="107" y="74" width="33" height="8"/><rect class="cls-1" x="107" y="88" width="33" height="8"/><rect class="cls-1" x="148" y="74" width="33" height="8"/><rect class="cls-1" x="148" y="88" width="33" height="8"/><path class="cls-1" d="M207,219V60H81V219H74v8H214v-8ZM89,219V68H199V219Z"/></svg>