<?xml version="1.0" encoding="utf-8"?>
<!-- Generator: Adobe Illustrator 24.0.3, SVG Export Plug-In . SVG Version: 6.00 Build 0)  -->
<svg version="1.1" id="icon_art" xmlns="http://www.w3.org/2000/svg" xmlns:xlink="http://www.w3.org/1999/xlink" x="0px" y="0px"
	 viewBox="0 0 288 288" style="enable-background:new 0 0 288 288;" xml:space="preserve">
<style type="text/css">
	.st0{fill:#FCFBFA;}
</style>
<title>RMIL_Business_Billing_Euro_Air_RGB-01</title>
<path class="st0" d="M146,175c-6.1,0-11.9-3-15.5-8H148v-8h-20.8c-0.3-2-0.3-4,0-6H148v-8h-17.5c6.1-8.5,17.9-10.5,26.5-4.5
	c1.7,1.2,3.2,2.7,4.4,4.3l6.5-4.7c-8.7-12.1-25.6-14.8-37.7-6c-3.8,2.8-6.9,6.5-8.8,10.9H111v8h8.1c-0.2,2-0.2,4,0,6H111v8h10.3
	c6.1,13.6,22,19.7,35.7,13.7c4.6-2,8.5-5.3,11.3-9.5l-6.6-4.5C158.2,171.9,152.3,175,146,175z M93,101h47v8H93V101z M93,81h69v8H93
	V81z M181.7,48H74v181h140V80.3L181.7,48z M181,58.7L203.3,81H181V58.7z M82,221V56h91v33h33v132H82z M74,235v4l8,4h124v0l8-4v-4H74
	z"/>
</svg>
