<?xml version="1.0" encoding="utf-8"?>
<!-- Generator: Adobe Illustrator 28.0.0, SVG Export Plug-In . SVG Version: 6.00 Build 0)  -->
<svg version="1.1" id="ART" xmlns="http://www.w3.org/2000/svg" xmlns:xlink="http://www.w3.org/1999/xlink" x="0px" y="0px"
	 viewBox="0 0 288 288" style="enable-background:new 0 0 288 288;" xml:space="preserve">
<style type="text/css">
	.st0{fill:#FCFBFA;}
</style>
<g>
	<g>
		<rect x="85" y="249.5" class="st0" width="45.2" height="0.3"/>
		<g>
			<path class="st0" d="M198.9,99.7c-1.6,0-3.2-1-3.8-2.6L188.8,80c-0.8-2.1,0.3-4.4,2.4-5.1c2.1-0.8,4.4,0.3,5.1,2.4l6.3,17.1
				c0.8,2.1-0.3,4.4-2.4,5.1C199.8,99.6,199.3,99.7,198.9,99.7z"/>
			<path class="st0" d="M216.7,81.6c-0.8,0-1.6-0.2-2.3-0.8L204,73.4c-1.8-1.3-2.2-3.8-0.9-5.6c1.3-1.8,3.8-2.2,5.6-0.9l10.4,7.5
				c1.8,1.3,2.2,3.8,0.9,5.6C219.2,81,218,81.6,216.7,81.6z"/>
			<path class="st0" d="M173.5,97.5c-0.3,0-0.6,0-1-0.1c-2.1-0.5-3.5-2.7-2.9-4.8l3-12.5c0.5-2.1,2.7-3.5,4.8-2.9
				c2.1,0.5,3.5,2.7,2.9,4.8l-3,12.5C177,96.2,175.3,97.5,173.5,97.5z"/>
		</g>
	</g>
	<path class="st0" d="M100.3,238.4L100.3,238.4l13.9,0v0H100.3z M82.4,257.5c0.7,0.2,1.4,0.3,2.1,0.3h46.1c0.7,0,1.4-0.1,2.1-0.3
		H82.4z"/>
	<path class="st0" d="M96.2,246.4c0.1,0,0.1,0,0.2,0h21.7c0.1,0,0.1,0,0.2,0H96.2z"/>
	<path class="st0" d="M201.1,38.4c-0.8-5.2-6-8.8-12-8.2c-0.4,0-0.8,0.1-1.2,0.2l-31.7,9.4c-1.7,0.5-3.1,1.7-3.8,3.3l-0.9,2
		l-48.4,15.7V136h-2.9c-2.3,0-4.1,1.8-4.1,4.1v20.7c-2.2,0.1-3.9,1.9-3.9,4.1v73.5h-7.8c-4.2,0-7.5,3.4-7.5,7.5v3.6h-9.8v8h108.4v-8
		h-37.4v-3.6c0-4.2-3.4-7.5-7.5-7.5h-8.5v-73.5c0-2.2-1.8-4.1-4-4.1v-20.7c0-2.3-1.8-4.1-4.1-4.1h-2.9V66.6l36.3-11.7
		c-0.2,1.5,0.2,3.1,1.3,4.3c1.1,1.3,2.7,2,4.4,2c0.6,0,1.2-0.1,1.7-0.2L165,58c1.5,2.9,3.8,5.3,6.8,7c2.6,1.5,5.5,2.2,8.4,2.2
		c1.5,0,3-0.2,4.5-0.7l0.7-0.2c8.3-2.3,13.4-10.5,12.1-18.8c0.3-0.2,0.5-0.5,0.7-0.7C200.5,44.4,201.6,41.4,201.1,38.4z M104.2,144
		h6v16.2h-6V144z M130.2,246.4v3.5H85v-3.5H130.2z M114.2,168.8v69.6h-13.9v-69.6H114.2z M183.1,58.6l-0.6,0.2
		c-2.3,0.7-4.7,0.4-6.8-0.8c-1-0.6-2-1.4-2.7-2.3l16.6-4.8C189.2,54.4,186.8,57.5,183.1,58.6z M191.2,42.1l-33.8,9.7l2-4.5l30.7-9.1
		c1.8-0.1,3,0.7,3.1,1.4C193.3,40.2,192.7,41.3,191.2,42.1z"/>
</g>
</svg>
