<?xml version="1.0" encoding="utf-8"?>
<!-- Generator: Adobe Illustrator 24.0.3, SVG Export Plug-In . SVG Version: 6.00 Build 0)  -->
<svg version="1.1" xmlns="http://www.w3.org/2000/svg" xmlns:xlink="http://www.w3.org/1999/xlink" x="0px" y="0px"
	 viewBox="0 0 288 288" style="enable-background:new 0 0 288 288;" xml:space="preserve">
<style type="text/css">
	.st0{display:none;}
	.st1{display:inline;}
	.st2{fill:#00ADEE;}
	.st3{display:inline;fill:none;stroke:#00ADEE;stroke-miterlimit:10;}
	.st4{fill:#FCFBFA;}
</style>
<g id="Drawing" class="st0">
	<g class="st1">
		<path class="st2" d="M144,97.09c25.92,0,47,21.05,47,46.92s-21.08,46.92-47,46.92s-47-21.05-47-46.92S118.08,97.09,144,97.09
			 M144,96.09c-26.51,0-48,21.46-48,47.92s21.49,47.92,48,47.92s48-21.46,48-47.92S170.51,96.09,144,96.09L144,96.09z"/>
	</g>
	<g class="st1">
		<path class="st2" d="M287,1v286H1V1H287 M288,0H0v288h288V0L288,0z"/>
	</g>
	<line class="st3" x1="96" y1="0" x2="96" y2="288"/>
	<line class="st3" x1="192" y1="0" x2="192" y2="288"/>
	<line class="st3" x1="0" y1="192" x2="288" y2="192"/>
	<line class="st3" x1="0" y1="96" x2="288" y2="96"/>
	<g class="st1">
		<path class="st2" d="M144,13.15c34.99,0,67.89,13.63,92.63,38.37C261.37,76.26,275,109.16,275,144.15s-13.63,67.89-38.37,92.63
			c-24.74,24.74-57.64,38.37-92.63,38.37s-67.89-13.63-92.63-38.37C26.63,212.04,13,179.14,13,144.15s13.63-67.89,38.37-92.63
			C76.11,26.78,109.01,13.15,144,13.15 M144,12.15c-72.9,0-132,59.1-132,132s59.1,132,132,132s132-59.1,132-132
			S216.9,12.15,144,12.15L144,12.15z"/>
	</g>
	<g class="st1">
		<path class="st2" d="M240,13c6.07,0,11,4.93,11,11v240c0,6.07-4.93,11-11,11H48c-6.07,0-11-4.93-11-11V24c0-6.07,4.93-11,11-11
			H240 M240,12H48c-6.6,0-12,5.4-12,12v240c0,6.6,5.4,12,12,12h192c6.6,0,12-5.4,12-12V24C252,17.4,246.6,12,240,12L240,12z"/>
	</g>
	<g class="st1">
		<path class="st2" d="M264,37c6.07,0,11,4.93,11,11v192c0,6.07-4.93,11-11,11H24c-6.07,0-11-4.93-11-11V48c0-6.07,4.93-11,11-11
			H264 M264,36H24c-6.6,0-12,5.4-12,12v192c0,6.6,5.4,12,12,12h240c6.6,0,12-5.4,12-12V48C276,41.4,270.6,36,264,36L264,36z"/>
	</g>
	<g class="st1">
		<path class="st2" d="M247.78,25c8.39,0,15.22,6.83,15.22,15.22v207.56c0,8.39-6.83,15.22-15.22,15.22H40.22
			C31.83,263,25,256.17,25,247.78V40.22C25,31.83,31.83,25,40.22,25H247.78 M247.78,24H40.22C31.3,24,24,31.3,24,40.22v207.56
			C24,256.7,31.3,264,40.22,264h207.56c8.92,0,16.22-7.3,16.22-16.22V40.22C264,31.3,256.7,24,247.78,24L247.78,24z"/>
	</g>
</g>
<g id="icon_art">
	<path class="st4" d="M247.3,143.25c-3.68-3.68-7.59-7.18-11.62-10.41l-16.85-14.28c5.11-8.37,7.85-18.01,7.85-28.06
		c0-14.42-5.62-27.98-15.82-38.18c-10.2-10.2-23.76-15.82-38.18-15.82s-27.98,5.62-38.18,15.82c-10.2,10.2-15.82,23.76-15.82,38.18
		c0,14.42,5.62,27.98,15.82,38.18c10.2,10.2,23.76,15.82,38.18,15.82c10.06,0,19.69-2.74,28.06-7.85l14.28,16.85
		c3.23,4.04,6.73,7.95,10.41,11.62l16.53,16.53l21.87-21.87L247.3,143.25z M140.15,123.02c-17.94-17.94-17.94-47.12,0-65.05
		c8.69-8.69,20.24-13.47,32.53-13.47s23.84,4.79,32.53,13.47v0c8.69,8.69,13.47,20.24,13.47,32.53c0,12.29-4.78,23.84-13.47,32.53
		c-8.69,8.69-20.24,13.47-32.53,13.47S148.84,131.71,140.15,123.02z M231.09,159.46c-3.48-3.48-6.8-7.19-9.86-11.01l-13.97-16.49
		c1.24-1.04,2.44-2.13,3.6-3.28c1.16-1.16,2.25-2.36,3.28-3.6l16.4,13.9l0.09,0.07c3.82,3.06,7.53,6.37,11.01,9.86l10.88,10.88
		l-10.55,10.55L231.09,159.46z M200.74,62.44c-7.56-7.55-17.6-11.72-28.29-11.72s-20.73,4.16-28.29,11.72
		c-7.55,7.54-11.7,17.59-11.7,28.28s4.16,20.74,11.7,28.28c7.56,7.56,17.6,11.72,28.29,11.72c10.69,0,20.73-4.16,28.29-11.72
		c7.56-7.56,11.72-17.6,11.72-28.28S208.29,70,200.74,62.44z M149.81,68.1c6.05-6.04,14.08-9.37,22.63-9.37s16.59,3.33,22.63,9.37
		c5.89,5.89,9.2,13.68,9.36,21.98l-42.32-16.97l-19.88,28.18c-1.17-3.35-1.78-6.91-1.78-10.57
		C140.46,82.17,143.78,74.13,149.81,68.1z M195.08,113.35c-6.04,6.04-14.08,9.37-22.63,9.37c-8.55,0-16.59-3.33-22.63-9.37
		c-1.27-1.27-2.41-2.63-3.43-4.06l18.63-26.4l38.54,15.45C202.18,103.98,199.29,109.15,195.08,113.35z M218.12,164.09v29.02
		l-50.22-31.91l-51.44,35.61l-17.55-17.56l-48.79,20.92v-4.9l54.95-54.29l24.73,14.22l10.83-13.98c-2.24-1.42-4.4-3-6.46-4.72
		l-6.43,8.3l-23.97-13.78l-53.66,53.02V86h62.77c0.2-2.68,0.58-5.36,1.14-8h-71.9v150h184v-55.47
		C223.39,169.79,220.72,166.97,218.12,164.09z M50.12,220v-11.12l46.96-20.14l18.45,18.44l52.56-36.39l50.03,31.79V220H50.12z
		 M267.74,164.5l4.26,4.26l-4.26,7.05l0,0l-9.9,9.9l0,0l-7.03,4.28l-4.28-4.28l5.66-5.66l9.9-9.9L267.74,164.5z"/>
</g>
</svg>
