<svg id="ART" xmlns="http://www.w3.org/2000/svg" viewBox="0 0 288 288"><defs><style>.cls-1{fill:#fcfbfa;}</style></defs><path class="cls-1" d="M232,186.9l-1.14,2.1H147a26.9,26.9,0,0,1-26.75-27h8A18.89,18.89,0,0,0,147,181h79a34.08,34.08,0,0,0-12.86-42.77,33.74,33.74,0,0,0-10.76-4.43,21.73,21.73,0,0,1-14.83-11.53,33,33,0,0,0-53.72-7.71,21,21,0,0,1-17.48,6.55A25,25,0,0,0,89.46,141.2a21.48,21.48,0,0,1-11.18,14.91A35.8,35.8,0,0,0,59.68,181h60.57a33.37,33.37,0,0,0,7.95,8H50.81l.32-4.3A43.76,43.76,0,0,1,74.56,149a13.54,13.54,0,0,0,7-9.37,33,33,0,0,1,35.48-26.52,13,13,0,0,0,10.86-4,41,41,0,0,1,66.74,9.58,13.75,13.75,0,0,0,9.39,7.3A42,42,0,0,1,232,186.9Z"/></svg>