<?xml version="1.0" encoding="utf-8"?>
<!-- Generator: Adobe Illustrator 24.0.3, SVG Export Plug-In . SVG Version: 6.00 Build 0)  -->
<svg version="1.1" id="icon_art" xmlns="http://www.w3.org/2000/svg" xmlns:xlink="http://www.w3.org/1999/xlink" x="0px" y="0px"
	 viewBox="0 0 288 288" style="enable-background:new 0 0 288 288;" xml:space="preserve">
<style type="text/css">
	.st0{fill:#312D2A;}
</style>
<title>RMIL_Business_World_Globe_Western_Bark_RGB</title>
<path class="st0" d="M144,28C79.93,28,28,79.93,28,144s51.93,116,116,116s116-51.93,116-116C259.93,79.96,208.04,28.07,144,28z
	 M175,63h-6.89l-1.29-11.75c-0.14-1.06-0.7-2.03-1.56-2.67L163,47v-9.33c15.34,2.74,29.9,8.79,42.67,17.72L180.9,81H179V67.36
	C179.03,65.08,177.28,63.17,175,63z M137.61,36.19l-1,2.88l-9.72-1.3l-0.12-0.39C130.34,36.81,133.95,36.42,137.61,36.19z
	 M98.52,46.06L113,56.24c0.53,0.37,1.14,0.61,1.78,0.69l14.22,1.9l4,4l-0.68,1l-10.66-3.28c-1.48-0.45-3.09-0.01-4.13,1.13
	L107.1,73.13c-0.65,0.74-1.01,1.7-1,2.69v6.24c-0.01,2.05,1.52,3.77,3.56,4l6.34,0.71l0.5,3.23c0.15,1.79,1.71,3.12,3.5,3h9
	c1.88,0.13,3.52-1.24,3.72-3.11l0.69-4.82l7-2.34c0.18-0.06,0.36-0.13,0.53-0.21l4.34-2.18L150,83v8l-12.43,5
	c-1.32,0.57-2.24,1.8-2.4,3.23l-0.83,7.5l-7.8,5.2c-0.92,0.61-1.55,1.58-1.73,2.67l-1,6.23c-0.1,0.59-0.07,1.19,0.1,1.76l2.38,8.36
	l-2.86-0.52l-2.32-6.19c-0.59-1.56-2.08-2.59-3.75-2.59h-10.42c-0.87,0-1.71,0.28-2.4,0.8l-4.15,3.11c-1.21,0.91-1.8,2.41-1.54,3.9
	l3.15,17.7c0.34,1.91,2,3.3,3.94,3.3h6.8l8.21,7.3c0.82,0.73,1.91,1.09,3,1l19-1.91l9.07,8.17c0.51,0.46,1.14,0.78,1.81,0.93
	L162,168h8l7,4v15l-4.75,12.79L153,210c-1.29,0.92-2.04,2.42-2,4v10l-6.7,4.26c-1.17,0.73-1.3,2.36-1.3,3.74v6
	c-1.25,0.6-2.61,0.94-4,1c-1.28-0.1-2.41-0.86-3-2v-42c0-0.75-0.6-1.36-1-2l-10-15v-12c-0.03-1.84-1.24-3.45-3-4l-13.11-3.56
	l-21.15-18.26L87,136.33c-0.1-0.51-0.3-1-0.59-1.43l-4.16-6.24c-1.23-1.84-3.71-2.33-5.55-1.1c-0.22,0.14-0.42,0.31-0.6,0.49
	l-2.31,2.31l-11.28-22.48L67,97c0.1-0.66,0.1-1.34,0-2v-7c0-2.21-2.79-4-5-4h-7.76C65.27,67.56,80.58,54.44,98.52,46.06z M144,252
	c-59.65-0.02-107.99-48.38-107.97-108.03c0-18.17,4.59-36.05,13.34-51.97H59v3l-4.58,11.49c-0.45,1.07-0.4,2.29,0.12,3.33
	l14.54,29.08c1,1.97,3.41,2.75,5.38,1.75c0.38-0.19,0.73-0.45,1.03-0.75l2.78-2.78l1,1.52l0.89,4.41c0.17,0.87,0.63,1.67,1.3,2.25
	l22.86,19.73c0.44,0.38,0.95,0.66,1.51,0.82L117,169v10c0,0.75,0.6,1.36,1,2l10,15v42c-0.04,0.69,0.17,1.37,0.6,1.91
	c0,0,3.4,7.09,9.4,7.09c3.86-0.1,7.63-1.13,11-3c0,0,2-1.42,2-3v-7l6-4c1.23-0.97,1.96-2.43,2-4v-10l18.44-9.93
	c0.85-0.47,1.5-1.24,1.83-2.16c0,0,5.73-15.45,5.73-15.91v-18c0-1.34-1-2.23-2.08-3l-9.35-6.23c-0.78-0.47-1.66-0.74-2.57-0.77h-7
	l-7.38-1.63l-9.6-8.65c-0.84-0.75-1.96-1.12-3.08-1l-19,1.9l-8-7.14c-0.73-0.65-1.67-1.01-2.65-1h-5l-2.11-11.93l1.13-0.84h6.28
	l2.14,5.71c0.49,1.31,1.63,2.27,3,2.53l11.43,2.05c2.17,0.39,4.25-1.06,4.64-3.23c0.1-0.59,0.08-1.19-0.08-1.77l-3.91-13.68
	l0.61-3.63l7.91-5.28c0.98-0.66,1.62-1.71,1.75-2.88l0.79-7l12.4-5.31c1.44-0.48,2.49-1.72,2.73-3.22V81c0.16-1.61-0.62-3.16-2-4
	l-8.68-4.67c-1.15-0.64-2.55-0.67-3.73-0.08l-6,3l-9.08,3c-1.44,0.48-2.48,1.73-2.69,3.23l-0.55,3.84h-1.45l-0.49-2.89
	c-0.29-1.76-1.72-3.12-3.5-3.32l-5.79-0.64v-1.1L121.7,69l11.08,3.4c1.69,0.52,3.52-0.13,4.5-1.6l4.16-6.23
	c1.06-1.59,0.85-3.7-0.5-5.05l-7.27-7.27c-0.62-0.62-1.43-1.02-2.3-1.14l-14.61-1.95l-9.49-6.69c3.81-1.38,7.7-2.54,11.65-3.47
	l1,3.54c0.44,1.53,1.74,2.65,3.32,2.86l15.58,2.08c0.18,0.01,0.36,0.01,0.54,0c1.71,0,3.23-1.09,3.78-2.71
	c1.39-4.07,2.32-6.84,2.95-8.73c3,0.05,5.97,0.22,8.9,0.53V49c0,1.26,0,2,1.3,2.86l2.82,2.14L161,67.89c0.3,1.93,2.05,3.29,4,3.11h6
	v14c0,2.21,1.79,4,4,4h8c0.96,0,1.87-0.44,2.47-1.2l26.65-27.54c46.25,37.67,53.2,105.69,15.54,151.94
	C207.17,237.36,176.45,251.98,144,252z"/>
</svg>
