<svg id="icon_art" data-name="icon art" xmlns="http://www.w3.org/2000/svg" viewBox="0 0 288 288"><defs><style>.cls-1{fill:#312d2a;}</style></defs><title>RMIL_Technology</title><path class="cls-1" d="M144,133.92c21.21,0,36.9-3.06,45-6v8.4c-1.58.51-3.29,1-5.15,1.45-10.94,2.71-25.09,4.2-39.85,4.2Zm45,34.4v-8.4c-8.1,3-23.79,6.05-45,6.05v8c14.76,0,28.91-1.49,39.85-4.2C185.71,169.31,187.42,168.83,189,168.32Zm-45,37.6c14.76,0,28.91-1.49,39.85-4.19,1.86-.46,3.57-.94,5.15-1.45v-8.4c-8.1,3-23.79,6-45,6Zm51-73.77a41.18,41.18,0,0,0,8,2.24v70.44c0,13.55-37.09,17.17-59,17.17s-59-3.62-59-17.17v-96.2a3.41,3.41,0,0,1,0-.46,4.93,4.93,0,0,1,0-.54C85,93.71,122.09,90,144,90a213.74,213.74,0,0,1,25.08,1.49c-.05.83-.08,1.67-.08,2.51a40.92,40.92,0,0,0,.39,5.57A193.69,193.69,0,0,0,144,98c-30.85,0-49.35,6.19-51,9.63,1.61,3.43,20.11,9.62,51,9.62a182.17,182.17,0,0,0,30.72-2.39,40.8,40.8,0,0,0,5.37,7.14c-11.7,2.4-25.62,3.25-36.09,3.25-15.6,0-38.87-1.88-51-8v23.35c1.17,2.16,15.62,9.31,51,9.31s49.83-7.15,51-9.31Zm-102,18v22.47c1.17,2.16,15.62,9.31,51,9.31s49.83-7.15,51-9.31V150.14c-12.13,6-35.4,7.78-51,7.78S105.13,156.09,93,150.14Zm102,54.55V182.14c-12.13,6-35.4,7.78-51,7.78s-38.87-1.83-51-7.78v22.55c1.17,2.16,15.62,9.31,51,9.31S193.83,206.85,195,204.69ZM246,94a35,35,0,1,1-35-35A35,35,0,0,1,246,94Zm-8,0a27,27,0,1,0-27,27A27,27,0,0,0,238,94Zm-15-9h5v24H194V85h5a12,12,0,0,1,24,0Zm-16,0h8a4,4,0,1,0-8,0Zm13,8H202v8h18Z"/></svg>