<svg id="icon_art" data-name="icon art" xmlns="http://www.w3.org/2000/svg" viewBox="0 0 288 288"><defs><style>.cls-1{fill:#312d2a;}</style></defs><title>RMIL_Technology</title><path class="cls-1" d="M112,206h64V178H112Zm8-20h48v12H120Zm-4-81a5,5,0,1,1,5-5A5,5,0,0,1,116,105Zm16,0a5,5,0,1,1,5-5A5,5,0,0,1,132,105Zm16,0a5,5,0,1,1,5-5A5,5,0,0,1,148,105Zm28-37v8H112V68ZM112,82h64v8H112Zm0,56h64V110H112Zm8-20h48v12H120Zm-8,54h64V144H112Zm8-20h48v12H120Zm-8,60h64v8H112Zm88,20h-4V48H92V232H88l-8,4v4H208v-4ZM100,56h88V232H100Z"/></svg>