<?xml version="1.0" encoding="utf-8"?>
<!-- Generator: Adobe Illustrator 24.0.3, SVG Export Plug-In . SVG Version: 6.00 Build 0)  -->
<svg version="1.1" id="ART" xmlns="http://www.w3.org/2000/svg" xmlns:xlink="http://www.w3.org/1999/xlink" x="0px" y="0px"
	 viewBox="0 0 288 288" style="enable-background:new 0 0 288 288;" xml:space="preserve">
<style type="text/css">
	.st0{fill:#FCFBFA;}
</style>
<path class="st0" d="M81,250h126v-22H81V250z M89,236h110v6H89V236z M207,157L207,157h-79l0,0h-8v4l8,4l0,0h79l0,0l8-4v-4H207z
	 M120,171c-13.3,0.1-24.1-10.5-24.3-23.7c-0.1-13.3,10.5-24.1,23.7-24.3h27.9l3.9,9.1l-3.9,1.7l3.2,7.3l10.7-4.8l5.3,11.9l20.1-8.9
	l-5.3-11.9l10.7-4.8l-3.2-7.3l-5,2.2V72h-13V52h-33v20h-0.5c-1.4,0-2.7,0-4.1,0.1c-4.1-9.4-15-13.7-24.3-9.6
	c-6.8,2.9-11.1,9.6-11.1,17c0,1.2,0.1,2.3,0.3,3.5C63,104.6,51.9,150.8,73.5,186.1c13.6,22.3,37.9,35.9,64,35.9H159v-43h48v-8H120z
	 M176.2,135.3l-5.5,2.4l-2-4.6l5.5-2.4L176.2,135.3z M146,60h17v12h-17V60z M116.5,69c5.8,0,10.5,4.7,10.5,10.5S122.3,90,116.5,90
	S106,85.3,106,79.5C106,73.7,110.7,69,116.5,69z M151,214h-13.5c-37,0-67-30-67-67c0-22.9,11.7-44.3,31.1-56.6
	c6,8.2,17.6,10.1,25.8,4.1c4.6-3.4,7.4-8.7,7.6-14.5c0.8,0,1.7,0,2.5,0H176v41.2l-17.4,7.7l-5.9-13.9h-33.2
	c-17.7,0.2-31.9,14.6-31.7,32.3s14.6,31.9,32.3,31.7h31V214z M134,209c6.9,0,12.5-5.6,12.5-12.5S140.9,184,134,184
	c-6.9,0-12.5,5.6-12.5,12.5C121.5,203.4,127.1,209,134,209z M134,192c2.5,0,4.5,2,4.5,4.5s-2,4.5-4.5,4.5s-4.5-2-4.5-4.5
	C129.5,194,131.5,192,134,192z M99.5,114.5c3.6,0,6.5-2.9,6.5-6.5s-2.9-6.5-6.5-6.5S93,104.4,93,108C93,111.6,95.9,114.5,99.5,114.5
	z M99.5,106.5c0.8,0,1.5,0.7,1.5,1.5s-0.7,1.5-1.5,1.5S98,108.8,98,108S98.7,106.5,99.5,106.5z M138,46h33l0,0l8-4v-4h-8l0,0h-33
	l0,0h-8v4L138,46L138,46z"/>
</svg>
