<?xml version="1.0" encoding="UTF-8"?>
<svg id="ART" xmlns="http://www.w3.org/2000/svg" viewBox="0 0 288 288">
  <defs>
    <style>
      .cls-1 {
        fill: #312d2a;
      }
    </style>
  </defs>
  <g>
    <g>
      <path class="cls-1" d="M211.52,80.08l-1.42,1.48-1.44,1.5-2.89,3.01c-4.38-8.19-13.02-13.77-22.94-13.77-12.9,0-23.64,9.44-25.65,21.78l4.87-4.72,1.06,1.1,4.5,4.65-9.97,9.66-3.23,3.13-1.58,1.53-.39.38-2.31-2.18-.3-.28h0s-1.85-1.76-1.85-1.76l-.5-.47-1.47-1.39-3.1-2.93-.23-.21h0s-5.6-5.3-5.6-5.3l5.5-5.81.86.81h0s.16.16.16.16l2.44,2.31,1.07,1.01,1.65,1.55.19.18c1.42-17.45,16.07-31.2,33.88-31.2,4.01,0,7.87.69,11.44,1.97.28.1.55.2.82.31.28.1.55.21.81.32.27.12.54.23.8.35.29.13.57.26.85.4.64.31,1.27.64,1.88.98.61.34,1.22.71,1.81,1.09.29.19.58.39.87.59.4.28.79.57,1.18.85.07.05.13.11.2.16.19.15.38.29.57.45.2.16.4.32.6.49.28.23.55.47.82.71.94.84,1.83,1.73,2.67,2.67.12.13.24.26.35.4.28.32.55.64.81.97.79.98,1.53,2,2.21,3.07Z"/>
      <path class="cls-1" d="M228.57,101.4l-5.57,5.75-.95-.92h-.01s-2.6-2.53-2.6-2.53l-.89-.87-1.83-1.78c-.04.46-.08.91-.14,1.36-.02.18-.04.36-.07.54-.06.45-.13.89-.21,1.33-.08.48-.18.96-.29,1.44-.01.05-.02.1-.03.15-.11.45-.22.91-.34,1.35-.02.09-.05.18-.07.27-.14.49-.29.97-.44,1.44-.34,1.01-.71,1.99-1.13,2.95-.26.6-.54,1.2-.84,1.78h0c-.14.29-.29.56-.43.83-.29.53-.59,1.04-.89,1.55-4.67,7.57-12.2,13.18-21.06,15.32-2.55.61-5.21.94-7.95.94-.55,0-1.09,0-1.63-.04h-.01c-10.78-.51-20.25-6.07-26.11-14.36-.35-.48-.68-.96-.99-1.46l5.84-5.84c1.26,2.34,2.87,4.46,4.76,6.3h.01c4.67,4.57,11.05,7.39,18.08,7.4h.05c2.77,0,5.45-.44,7.95-1.24,9.23-2.97,16.22-10.97,17.74-20.75l-4.99,4.72-.62-.66-4.87-5.15,9.97-9.43,3.25-3.07,1.59-1.51.54-.51,2.05,1.98h.01s2.29,2.23,2.29,2.23l.41.4,1.22,1.18,3.37,3.26h0s5.82,5.65,5.82,5.65Z"/>
    </g>
    <path class="cls-1" d="M205.62,214.35c-4.58,5.95-11.4,9.35-18.72,9.35-5.77,0-11.24-2.12-15.54-5.94-4.3,3.82-9.77,5.94-15.54,5.94s-11.25-2.12-15.55-5.94c-4.3,3.82-9.76,5.94-15.54,5.94s-11.24-2.12-15.54-5.94c-4.3,3.82-9.77,5.94-15.55,5.94-7.31,0-14.13-3.4-18.71-9.35l6.34-4.88c3.05,3.96,7.56,6.23,12.37,6.23s9.33-2.27,12.38-6.23l3.17-4.11,3.17,4.11c3.05,3.96,7.56,6.23,12.37,6.23s9.32-2.27,12.37-6.23l3.17-4.11,3.17,4.11c3.05,3.96,7.56,6.23,12.38,6.23s9.32-2.27,12.37-6.23l3.17-4.11,3.17,4.11c3.05,3.96,7.56,6.23,12.37,6.23s9.33-2.27,12.38-6.23l6.34,4.88Z"/>
    <path class="cls-1" d="M214.87,183.63c-3.05,3.96-7.56,6.23-12.37,6.23-4.48,0-8.69-1.97-11.72-5.43v-46.8c-1.41.3-2.85.51-4.31.64-1.24.12-2.49.18-3.75.18-4.86,0-9.53-.87-13.85-2.47-.25.04-.5.09-.75.13-.09.02-.19.03-.29.05-.16.03-.33.06-.49.09-.11.02-.22.04-.33.06l-.18.03s-.03.01-.05.01c-.81.15-1.67.28-2.55.41-.39.05-.78.11-1.19.16-.4.06-.81.11-1.22.16-.93.13-1.89.24-2.88.34-1.2.13-2.45.25-3.73.36-1.39.11-2.83.22-4.32.3-.4.02-.8.04-1.21.06-.42.02-.85.04-1.28.06-.16.01-.32.01-.48.02-.83.03-1.68.06-2.54.08-.41.01-.82.02-1.24.03s-.85.02-1.27.02c-.43.01-.86.01-1.29.01-.43,0-.87,0-1.3,0s-.87,0-1.31,0c-.43,0-.86,0-1.28-.01-.43,0-.86-.01-1.28-.02s-.84-.02-1.25-.03c-.54,0-1.08-.03-1.62-.05-.7-.02-1.38-.05-2.06-.08-.17,0-.35-.01-.52-.02-.49-.03-.98-.05-1.47-.08-.82-.05-1.63-.1-2.43-.16-.57-.04-1.14-.08-1.7-.13-1.3-.11-2.56-.23-3.78-.36-.59-.06-1.16-.12-1.73-.2-.37-.04-.74-.08-1.1-.13-.83-.11-1.63-.22-2.42-.33-1.02-.15-2.01-.31-2.96-.48-.02,0-.04-.01-.06-.01-.49-.08-.96-.17-1.43-.26-.46-.08-.91-.18-1.36-.27-.93-.19-1.81-.39-2.65-.58-.39-.09-.76-.19-1.13-.29-.77-.19-1.5-.39-2.17-.6-.34-.09-.67-.2-.98-.3-.02,0-.05-.01-.07-.02-.61-.19-1.17-.39-1.69-.59-.32-.12-.61-.24-.9-.35-.19-.09-.38-.17-.56-.25-.06-.02-.11-.05-.16-.07-.38-.18-.71-.35-1.01-.52-.34-.19-.62-.38-.86-.56-.09-.06-.17-.13-.25-.21-.07-.05-.13-.11-.17-.16-.05-.05-.1-.11-.14-.16v-18.6c.28.12.56.23.85.35.3.12.59.24.9.35.3.11.61.22.92.33,1.87.66,3.91,1.22,6.04,1.71.71.17,1.43.32,2.16.47,1.46.3,2.94.56,4.44.8.75.12,1.5.23,2.25.34,1.9.26,3.79.48,5.64.68,1.08.1,2.14.2,3.18.29,3.2.26,6.18.42,8.71.53.38.02.76.03,1.12.04.36.01.72.02,1.05.03.73.02,1.4.04,2.01.05.15.01.3.01.44.01.29.01.56.01.81.01.89.02,1.56.02,1.98.02.8,0,1.59,0,2.37-.02.13,0,.27-.01.4-.01,1.32-.02,2.99-.07,4.91-.14-1.43-2.47-2.6-5.11-3.47-7.87-.51.01-1.02.02-1.55.03h-1.32c-.45,0-.89,0-1.34,0-1.53,0-3.03-.02-4.48-.05-.35,0-.7-.01-1.04-.02-1.09-.03-2.15-.07-3.19-.11-.69-.03-1.37-.07-2.03-.1-.5-.03-.99-.06-1.47-.09-1.47-.09-2.89-.2-4.25-.32-1.21-.1-2.38-.22-3.51-.35-.56-.06-1.12-.13-1.66-.2-.54-.06-1.08-.13-1.6-.21-.52-.07-1.04-.14-1.54-.22-.5-.07-.99-.15-1.47-.24-.91-.14-1.79-.3-2.63-.46-.05,0-.09-.02-.14-.03-.88-.17-1.72-.34-2.52-.52-.79-.18-1.54-.36-2.26-.55-.36-.09-.7-.18-1.04-.28-.06-.02-.13-.03-.19-.05-.23-.06-.46-.13-.68-.2-.45-.13-.87-.26-1.27-.39-.2-.07-.4-.13-.59-.2-.27-.09-.54-.19-.79-.28-.37-.14-.72-.27-1.05-.42-.22-.09-.44-.18-.64-.28-.53-.23-.98-.47-1.35-.7-.11-.07-.22-.14-.32-.21-.12-.08-.23-.15-.33-.24,2.53-1.91,12.46-5.6,32.71-6.55-.07-.93-.1-1.86-.1-2.8,0-1.76.11-3.5.34-5.21-12.74.58-39.34,3.04-41.28,13.32-.03.14-.05.27-.07.41-.02.15-.04.28-.04.4-.01.14-.02.27-.02.41v80.78c-3.02,3.4-7.2,5.33-11.63,5.33-4.81,0-9.32-2.27-12.37-6.23l-6.34,4.88c4.58,5.94,11.4,9.35,18.71,9.35,5.78,0,11.25-2.12,15.54-5.94,4.3,3.82,9.77,5.94,15.55,5.94s11.24-2.12,15.54-5.95c4.3,3.83,9.77,5.95,15.54,5.95s11.25-2.12,15.55-5.94c4.3,3.82,9.76,5.94,15.54,5.94s11.25-2.12,15.55-5.94c4.29,3.82,9.76,5.94,15.54,5.94,7.31,0,14.13-3.41,18.71-9.35l-6.34-4.88ZM182.78,184.81c-2.99,3.23-7.06,5.05-11.37,5.05-4.81,0-9.32-2.27-12.37-6.23l-3.17-4.12-3.17,4.12c-3.05,3.96-7.56,6.23-12.38,6.23s-9.32-2.27-12.37-6.23l-3.17-4.11-3.17,4.11c-3.05,3.96-7.56,6.23-12.37,6.23-4.36,0-8.46-1.86-11.46-5.15v-17.3c1.24.55,2.59,1.05,4.02,1.5.96.31,1.94.59,2.96.85.51.14,1.02.26,1.54.39.72.17,1.45.33,2.18.48.87.18,1.75.35,2.63.51.55.1,1.09.19,1.64.28,1.1.18,2.2.34,3.31.49,1.1.15,2.2.29,3.29.41.53.06,1.05.11,1.58.17,1.36.14,2.7.26,4,.36.45.04.9.07,1.34.11.69.05,1.36.1,2.02.13.33.03.65.04.97.06,3.1.18,5.79.27,7.79.31.15.01.3.01.44.01.29.01.56.01.81.01.89.02,1.56.02,1.98.02,3.8,0,29.24-.23,42.5-6.09v17.4ZM182.78,158.21c-.06.08-.14.17-.24.26-.08.08-.18.16-.28.24-.06.05-.12.09-.19.14-.21.15-.44.3-.71.45-.17.09-.35.19-.55.29-.19.1-.39.2-.61.29h-.01c-.33.16-.69.31-1.08.46-1.15.45-2.54.91-4.16,1.36-.23.06-.45.13-.69.19-2.04.54-4.42,1.06-7.11,1.53-.48.08-.98.16-1.48.24-1.55.25-3.21.48-4.95.69-.58.07-1.18.14-1.78.2-5.42.59-11.67.95-18.66.95s-13.27-.36-18.7-.95c-.97-.1-1.91-.22-2.83-.33-1.37-.18-2.67-.37-3.92-.57-.91-.14-1.78-.3-2.62-.46-3.08-.57-5.71-1.2-7.85-1.85-.29-.09-.57-.18-.84-.27-.36-.11-.71-.23-1.03-.34-.25-.09-.49-.18-.72-.27-.8-.3-1.5-.6-2.07-.9-.2-.09-.37-.19-.54-.29-.66-.37-1.12-.73-1.38-1.06v-17.93c.56.25,1.14.49,1.75.72.06.02.12.04.19.07.67.25,1.37.48,2.08.71.96.31,1.94.59,2.96.85.51.14,1.02.26,1.54.39.77.18,1.56.35,2.35.52h.02c.81.17,1.62.32,2.44.47.54.1,1.09.19,1.64.28.41.07.82.13,1.23.19.07.02.15.03.22.04.11.01.21.03.32.05.08.01.16.02.24.03.43.06.87.12,1.3.18.14.02.27.04.41.06.41.05.83.1,1.24.16.55.07,1.1.13,1.64.19.89.1,1.78.19,2.66.28.87.08,1.74.16,2.59.23.56.05,1.12.09,1.67.13.35.02.69.05,1.02.07.47.03.92.06,1.37.09.48.03.95.05,1.41.08.04,0,.09,0,.14.01.41.02.81.04,1.2.06.22.01.44.02.65.03.32,0,.63.02.93.04.3.01.6.02.89.03.19.01.38.01.57.02h.14c.48.02.93.03,1.36.05.12,0,.24.01.35.01.26,0,.51.01.75.01.15.01.3.01.44.01.29.01.56.01.81.01.89.02,1.57.02,1.98.02.53,0,1.5,0,2.79-.03.15,0,.3,0,.45-.01.14,0,.28-.01.42-.01.29-.01.59-.01.9-.02.31,0,.63-.02.96-.03.28-.01.57-.02.86-.03.29,0,.59-.02.9-.03.31-.01.62-.02.94-.04.22-.01.43-.02.65-.03.39-.02.79-.04,1.2-.06.05-.01.1-.01.15-.01.46-.03.93-.05,1.4-.08.48-.03.97-.06,1.46-.1.5-.03,1-.07,1.51-.11.15-.01.3-.02.45-.03,1.38-.11,2.81-.23,4.27-.38.02,0,.03,0,.04,0,.53-.06,1.06-.12,1.59-.18,1.09-.12,2.19-.26,3.29-.41.47-.06.94-.13,1.41-.2.14-.02.29-.04.43-.06.49-.08.98-.15,1.47-.23.55-.09,1.09-.18,1.64-.28.55-.1,1.09-.2,1.63-.31s1.07-.21,1.6-.33c.53-.11,1.05-.23,1.57-.35.52-.13,1.04-.25,1.54-.39.25-.06.51-.13.76-.2.25-.06.5-.14.75-.21.49-.14.98-.29,1.45-.44.71-.23,1.41-.46,2.08-.71.07-.03.13-.05.19-.07.61-.23,1.19-.47,1.75-.72v17.93Z"/>
  </g>
  <g>
    <path class="cls-1" d="M165.54,109.81l8.07-21.81h5.88l8.13,21.81h-6.66l-1.11-3.78h-6.81l-1.08,3.78h-6.42ZM174.36,101.41h4.14l-2.1-7.17-2.04,7.17Z"/>
    <path class="cls-1" d="M189.63,109.81v-21.81h6v21.81h-6Z"/>
  </g>
</svg>