<svg id="ART" xmlns="http://www.w3.org/2000/svg" viewBox="0 0 288 288"><defs><style>.cls-1{fill:#fcfbfa;}</style></defs><path class="cls-1" d="M212,64H76A12,12,0,0,0,64,76v60.43l-.11.09.11.13V212a12,12,0,0,0,12,12H212a12,12,0,0,0,12-12V76A12,12,0,0,0,212,64Zm-87,97.23a104.2,104.2,0,0,1,10.21,6.29c-3.1,5-6.24,10.48-9.2,16.4-3.74-4.92-7.7-9.74-11.72-14.24A109.14,109.14,0,0,1,125,161.23Zm7.85-4.82a103.94,103.94,0,0,0,12.64-4c-1.85,2.48-3.83,5.26-5.88,8.29C137.28,159.15,135,157.71,132.82,156.41Zm-24,7.4q-2.79-2.88-5.54-5.46A59.82,59.82,0,0,0,112,159c.86,0,1.73,0,2.59,0Q111.7,161.24,108.81,163.81Zm-19.57-6.88a121.78,121.78,0,0,1,13.68,12.38c-4.47,4.41-8.83,9.18-12.93,14.13A193.71,193.71,0,0,0,76.23,162,35.71,35.71,0,0,1,89.24,156.93Zm-8.36-6A41.28,41.28,0,0,0,72,155.28v-11a70.62,70.62,0,0,0,9,6.19Zm3.7,39.35A193.55,193.55,0,0,0,72,208.84v-39A204.24,204.24,0,0,1,84.58,190.24Zm4.11,7.91A180.71,180.71,0,0,1,96.48,216H77.12A172.27,172.27,0,0,1,88.69,198.15Zm5.41-7.05a191,191,0,0,1,14.29-15.9c4.71,5.27,9.39,11,13.74,16.94A153.07,153.07,0,0,0,113.86,216H105A186.7,186.7,0,0,0,94.1,191.1Zm33.48,8.79A153.9,153.9,0,0,1,137.15,216h-15A141.76,141.76,0,0,1,127.58,199.89Zm3.78-8.62a191.39,191.39,0,0,1,10.37-19,239.8,239.8,0,0,1,18.6,15.83,254.44,254.44,0,0,0-4.81,27.9H146A165.42,165.42,0,0,0,131.36,191.27Zm35.74,3.43A244.9,244.9,0,0,1,186,216h-22.4C164.48,208.54,165.68,201.44,167.1,194.7Zm-21-29.24c4.19-6.24,8.1-11.37,11.09-15.07a70.78,70.78,0,0,1,13.64,3.49,242.28,242.28,0,0,0-8.33,25.37C157.09,174.25,151.55,169.57,146.14,165.46Zm17.7-21.93a156.33,156.33,0,0,0,15.23-10.21l.05.07a9.81,9.81,0,0,1,1.3-.66c-2.14,4.13-4.34,8.74-6.52,13.8A89.72,89.72,0,0,0,163.84,143.53Zm26.94-13c8.18-.73,18.36-.12,25.22,2.17V171.8c-9.25-8.67-21.94-16.72-34.55-22.26C184.63,142.2,187.84,135.86,190.78,130.56ZM216,124.4a76.93,76.93,0,0,0-20.33-2.13c3.05-4.89,5.44-8.15,6.61-9.69,5.64-5.85,10.26-11.26,13.72-15.58ZM76,72H212a4,4,0,0,1,4,4v7.74a210.34,210.34,0,0,1-19,22.73l0,0-.33.4C177.65,126.49,147,151,112,151c-20.62,0-35-12.48-40-17.48V76A4,4,0,0,1,76,72ZM212,216H196a263.26,263.26,0,0,0-26.82-30.42,238.12,238.12,0,0,1,9.2-28.69c14.51,6.41,29.31,16.46,37.59,26.53V212A4,4,0,0,1,212,216Z"/></svg>