<?xml version="1.0" encoding="utf-8"?>
<!-- Generator: Adobe Illustrator 24.0.3, SVG Export Plug-In . SVG Version: 6.00 Build 0)  -->
<svg version="1.1" id="ART" xmlns="http://www.w3.org/2000/svg" xmlns:xlink="http://www.w3.org/1999/xlink" x="0px" y="0px"
	 viewBox="0 0 288 288" style="enable-background:new 0 0 288 288;" xml:space="preserve">
<style type="text/css">
	.st0{fill:#312D2A;}
</style>
<path class="st0" d="M149,190V97H60v93H149z M104.7,129.3c2.9,2,6.4,3.1,10,3.1c0.4,0,0.8,0,1.2,0v3.2c0,6.8-5.2,12.6-11.3,12.6
	c-6,0-11-5.8-11-12.6v-3.2C97.5,132.7,101.4,131.6,104.7,129.3z M101,155.7c2.3,0.5,4.7,0.5,7,0v8.4c-0.1,1.8-1.6,3.1-3.4,3
	c0,0,0,0-0.1,0c-1.7,0-3.5-1-3.5-3V155.7z M122.8,152.2c-1.6,2.5-4,4.4-6.8,5.4v-5.8c2.1-1.7,3.8-3.8,5.1-6.1L122.8,152.2z
	 M115.8,124.4c-3.1,0.2-6.2-0.9-8.4-3.1l-2.7-2.5l-2.7,2.5c-2.2,2.2-5.3,3.3-8.4,3.1c0,0,0-0.1,0-0.1l0.5-2l0,0
	c1.1-3,3.7-5.2,6.6-5.2h8C112.2,117.1,115.3,120.4,115.8,124.4L115.8,124.4z M93,151.9v5.7c-2.6-1-4.9-2.9-6.4-5.3l1.6-6.2
	C89.4,148.2,91,150.2,93,151.9z M91.2,166.2h2c1.5,6.2,7.8,10.1,14,8.5c4.2-1,7.5-4.3,8.5-8.5h2c6.7,0,12.2,5.4,12.2,12.2
	c0,0,0,0,0,0v3.6H79v-3.6C79,171.7,84.5,166.2,91.2,166.2z M68,105h73v77h-3v-3.6c0-7.8-4.5-14.8-11.5-18.2c1.6-1.6,2.9-3.4,4-5.4
	l0.8-1.4l-8.2-33.1l0,0c-2-6.5-7.8-11.3-14.3-11.3h-8c-7.3,0-13.6,6-14.9,13.5l-7.7,30.9l0.8,1.4c1.1,1.9,2.4,3.7,3.9,5.2
	c-7.2,3.3-11.8,10.4-11.8,18.3v3.6h-3V105z M224,196H54V91h122.6c0.5-2.7,1.2-5.4,2.2-8H46v121h186v-67.9c-2.6,1-5.3,1.8-8,2.2V196z
	 M176.6,105H157v8h21.9C177.8,110.4,177.1,107.7,176.6,105z M157,146h58v8h-58V146z M157,174h58v8h-58V174z M157,160h50v8h-50V160z
	 M157,119h18v8h-18V119z M217,63c-19.3,0-35,15.7-35,35s15.7,35,35,35s35-15.7,35-35S236.3,63,217,63z M217,125
	c-14.9,0-27-12.1-27-27s12.1-27,27-27s27,12.1,27,27S231.9,125,217,125z M212.2,101.7l-6.4-6.4l-5.7,5.6l12,12l21.6-21.6l-5.7-5.7
	L212.2,101.7z"/>
</svg>
