<?xml version="1.0" encoding="UTF-8"?>
<svg id="ART" xmlns="http://www.w3.org/2000/svg" version="1.1" viewBox="0 0 288 288">
  <!-- Generator: Adobe Illustrator 29.5.0, SVG Export Plug-In . SVG Version: 2.1.0 Build 137)  -->
  <defs>
    <style>
      .st0 {
        fill: #fcfbfa;
      }
    </style>
  </defs>
  <path class="st0" d="M239.3,60.1l-1.4,1.5-1.4,1.5-2.9,3c-4.4-8.2-13-13.8-22.9-13.8s-23.6,9.4-25.7,21.8l4.9-4.7,1.1,1.1,4.5,4.7-10,9.7-3.2,3.1-1.6,1.5-.4.4-2.3-2.2-2.2-2-.5-.5-4.6-4.3-5.8-5.5,5.5-5.8,1,1,3.5,3.3,1.8,1.7c1.4-17.5,16.1-31.2,33.9-31.2s22.6,6.3,28.7,15.8Z"/>
  <path class="st0" d="M256.4,81.4l-5.6,5.8-1-.9-3.5-3.4-1.8-1.8c-1.4,17.5-16.1,31.2-33.9,31.2s-22.7-6.3-28.7-15.9l5.8-5.8c4.4,8.2,13,13.7,22.9,13.7s23.8-9.5,25.7-22l-5,4.7-.6-.7-4.9-5.2,10-9.4,3.2-3.1,1.6-1.5.5-.5,2.1,2,2.3,2.2.4.4,4.6,4.4,5.8,5.6Z"/>
  <g>
    <path class="st0" d="M193,90.3l8.1-21.8h5.9l8.1,21.8h-6.7l-1.1-3.8h-6.8l-1.1,3.8h-6.4ZM201.8,81.9h4.1l-2.1-7.2-2,7.2Z"/>
    <path class="st0" d="M217.1,90.3v-21.8h6v21.8h-6Z"/>
  </g>
  <path class="st0" d="M214.6,118.2h0c0,2.8,0,4.1-.2,7-1,1.8-5.8,5.6-20.4,9.1-15,3.6-35,5.6-56.4,5.6s-41.3-2-56.3-5.6c-14.6-3.5-19.4-7.4-20.4-9.1-.2-.3-.2-.5-.2-.7v-38.3c4.4,2.7,10.7,5,18.8,7,15.6,3.9,36.3,6,58.2,6s26-.8,37.5-2.2c-1.3-2.4-2.3-5-3.1-7.7-10.6,1.2-22.3,1.9-34.4,1.9-21.3,0-41.3-2-56.3-5.7-5.7-1.4-9.9-2.9-13-4.3-6-2.7-7.7-5-7.7-6s.3-1.1,1.2-2c2.1-2.1,7.5-5.3,19.5-8.3,15-3.7,35-5.7,56.3-5.7s25.4.8,36.6,2.2c1.2-2.7,2.8-5.2,4.5-7.5-12.4-1.8-26.4-2.7-41.1-2.7-21.9,0-42.6,2.1-58.2,6-17.8,4.4-26.8,10.5-26.8,18s0,.8,0,1.2c0,.3,0,.5,0,.8v90.4h8v-32.4c4.4,2.6,10.7,4.9,18.8,6.8,15.6,3.7,36.3,5.8,58.2,5.8s42.6-2.1,58.2-5.8c8.1-1.9,14.4-4.2,18.8-6.8v35.5c0,.4-.5,1.3-1.9,2.4-2.5,2-7.9,4.8-18.7,7.4-6.6,1.6-14.1,2.8-22.3,3.8v8c8.9-1,17.1-2.3,24.2-4,8.1-1.9,14.4-4.2,18.8-6.8v36.1c0,1.3-3.8,5.8-20.6,9.8-6.6,1.6-14.1,2.8-22.3,3.8v8c8.9-1,17.1-2.3,24.2-4,17.8-4.2,26.8-10.2,26.8-17.6v-101.1c-4.7,1.4-8,1.7-8,1.7Z"/>
  <path class="st0" d="M165.6,243.7H31.6v-70h134v70ZM39.6,235.7h118v-54H39.6v54Z"/>
  <g>
    <path class="st0" d="M50.2,221.8v-5.1c1.1.5,2.1.8,3,1s1.7.3,2.5.3c2.8,0,4.2-1.3,4.2-3.9v-13.6l-5.1-1.6v-3.2h11.1v18.9c0,2.7-.8,4.8-2.4,6.3-1.6,1.5-3.9,2.2-6.8,2.2s-2.3-.1-3.5-.4c-1.1-.2-2.1-.6-3-1.1Z"/>
    <path class="st0" d="M70.1,221.7v-5.1c3,1.1,5.8,1.6,8.5,1.6s2.9-.3,3.8-.8c.9-.5,1.4-1.2,1.4-2.1s-.3-1.2-.9-1.6c-.6-.4-1.7-.9-3.4-1.5l-2.9-1c-2.4-.8-4.1-1.8-5.2-3.1-1.1-1.2-1.6-2.8-1.6-4.8s.4-3.1,1.3-4.3c.9-1.2,2.1-2.1,3.8-2.8,1.6-.7,3.5-1,5.8-1s2.8.1,4.2.4,2.6.6,3.6,1.1v5.1c-1.3-.5-2.6-.9-4-1.1-1.4-.3-2.6-.4-3.8-.4-3.2,0-4.8.9-4.8,2.7s.3,1.3.9,1.7c.6.4,1.7.9,3.4,1.5l2.9,1c2.5.8,4.3,1.9,5.3,3.1s1.6,2.8,1.6,4.9-.9,4.5-2.8,6c-1.9,1.5-4.5,2.2-7.9,2.2s-2.3,0-3.4-.2c-1.2-.1-2.3-.3-3.3-.5-1-.2-1.8-.5-2.4-.8Z"/>
    <path class="st0" d="M106,223.2c-4.2,0-7.4-1.2-9.7-3.6-2.3-2.4-3.4-5.9-3.4-10.3s1.1-7.8,3.4-10.3,5.5-3.7,9.7-3.7,7.4,1.2,9.7,3.7,3.4,5.9,3.4,10.3-1.1,7.9-3.4,10.3c-2.3,2.4-5.5,3.6-9.7,3.6ZM106,218.2c2.3,0,4.1-.8,5.2-2.3,1.1-1.6,1.7-3.8,1.7-6.7s-.6-5.2-1.7-6.7c-1.1-1.5-2.9-2.3-5.2-2.3s-4.1.8-5.2,2.3c-1.1,1.5-1.7,3.8-1.7,6.7s.6,5.2,1.7,6.7c1.1,1.6,2.9,2.3,5.2,2.3Z"/>
    <path class="st0" d="M123.6,222.6v-26.9h5.5l12.1,17.5v-17.5h5.9v26.9h-5.5l-12.1-17.5v17.5h-5.9Z"/>
  </g>
</svg>