<svg id="ART" xmlns="http://www.w3.org/2000/svg" viewBox="0 0 288 288"><defs><style>.cls-1{fill:#312d2a;}</style></defs><path class="cls-1" d="M62,111h8v8H62Zm14,8h8v-8H76Zm22-8H90v8h8Zm-42,4a12,12,0,1,1-12-12A12,12,0,0,1,56,115Zm-8,0a4,4,0,1,0-4,4A4,4,0,0,0,48,115Zm14,33h8v-8H62Zm14,0h8v-8H76Zm22-8H90v8h8Zm-42,4a12,12,0,1,1-12-12A12,12,0,0,1,56,144Zm-8,0a4,4,0,1,0-4,4A4,4,0,0,0,48,144Zm14,33h8v-8H62Zm14,0h8v-8H76Zm22-8H90v8h8Zm-42,4a12,12,0,1,1-12-12A12,12,0,0,1,56,173Zm-8,0a4,4,0,1,0-4,4A4,4,0,0,0,48,173Zm208-43v26H230V130Zm-8,8H238v10h10Zm-60,23h8v-8h-8Zm14,0h8v-8h-8Zm0-14h8v-8h-8Zm14,0h8v-8h-8Zm-28-14h8v-8h-8Zm14,0h8v-8h-8Zm-19,82,8,4v4H97v-4l8-4V65h78Zm-8,0V73H113V215ZM119,86h50V78H119Zm44,13h6v8h-6v7H125v-7h-6V99h6V92h38Zm-8,1H133v6h22Zm-36,28h50v-8H119Zm41.65,27.93h-9.92l-6.51,14.94-6.76-14.94h-10l10.85,21.88L126.92,201h9.92l6.94-16.06L151.1,201h10l-11.35-22.88ZM119,142h50v-8H119Z"/></svg>