<svg id="Icon_art" data-name="Icon art" xmlns="http://www.w3.org/2000/svg" viewBox="0 0 288 288">
  <defs>
    <style>
      .cls-1 {
        fill: #fcfbfa;
      }
    </style>
  </defs>
  <path class="cls-1" d="M233.5,151a20.5,20.5,0,0,0-17.4,9.71l-11-3.93a69.85,69.85,0,0,0-18-69.61L194,79.33a18.42,18.42,0,1,0-5.82-5.5l-7.08,8.06a69.78,69.78,0,0,0-91,4.13l-9.73-9.24a26.1,26.1,0,1,0-5.52,5.8l9.74,9.24a69.83,69.83,0,0,0-12.13,20.6l-12-3.72a12.52,12.52,0,1,0-2.38,7.63l12,3.73a69.85,69.85,0,0,0,7.58,52.36L69.36,178a18.11,18.11,0,1,0,4.44,6.65l8.3-5.52a69.86,69.86,0,0,0,70.78,26.31l3.89,14A17.48,17.48,0,1,0,165.5,217c-.36,0-.71,0-1.06.05l-3.85-13.81a70.36,70.36,0,0,0,41.86-38.93l10.84,3.88a21.22,21.22,0,0,0-.29,3.31A20.5,20.5,0,1,0,233.5,151ZM193,63.5A10.5,10.5,0,1,1,203.5,74,10.51,10.51,0,0,1,193,63.5ZM52.5,109a4.5,4.5,0,1,1-4.5-4.5A4.51,4.51,0,0,1,52.5,109ZM67,191a10,10,0,1,1-10-10A10,10,0,0,1,67,191Zm108,43.5a9.5,9.5,0,1,1-9.5-9.5A9.51,9.51,0,0,1,175,234.5ZM76.14,141h29a96.83,96.83,0,0,0,21.08,56.85A62.12,62.12,0,0,1,76.14,141Zm50-64.85A96.83,96.83,0,0,0,105.09,133H76.14A62.12,62.12,0,0,1,126.17,76.15ZM199.86,133h-29a96.83,96.83,0,0,0-21.08-56.85A62.12,62.12,0,0,1,199.86,133Zm-86.77,0a89,89,0,0,1,24.68-58h.46a89,89,0,0,1,24.68,58Zm0,8h49.82a89,89,0,0,1-24.68,58h-.46A89,89,0,0,1,113.09,141Zm57.82,0h29a62.12,62.12,0,0,1-50,56.85A96.83,96.83,0,0,0,170.91,141ZM59,80A18,18,0,1,1,77,62,18,18,0,0,1,59,80ZM233.5,184A12.5,12.5,0,1,1,246,171.5,12.52,12.52,0,0,1,233.5,184Z"/>
</svg>
