<?xml version="1.0" encoding="utf-8"?>
<!-- Generator: Adobe Illustrator 24.0.3, SVG Export Plug-In . SVG Version: 6.00 Build 0)  -->
<svg version="1.1" id="icon_art" xmlns="http://www.w3.org/2000/svg" xmlns:xlink="http://www.w3.org/1999/xlink" x="0px" y="0px"
	 viewBox="0 0 288 288" style="enable-background:new 0 0 288 288;" xml:space="preserve">
<style type="text/css">
	.st0{fill:#312D2A;}
</style>
<title>RMIL_Business_Expenses_Bark_RGB</title>
<path class="st0" d="M233,133H93c-6.6,0-12,5.4-12,12v82c0,6.6,5.4,12,12,12h140c6.6,0,12-5.4,12-12v-82
	C245,138.4,239.6,133,233,133z M237,227c0,2.2-1.8,4-4,4H93c-2.2,0-4-1.8-4-4v-82c0-2.2,1.8-4,4-4h140c2.2,0,4,1.8,4,4V227z
	 M189.8,84.5l17.5,42.4h8.7l-28-67.6c-2.5-6.1-9.6-9-15.7-6.5l0,0l-122,50.5c-6.1,2.5-9,9.5-6.5,15.7l0,0L75,194v-20.9l-14.5-35
	L189.8,84.5z M51.3,115.9c-0.4-1-0.4-2.1,0-3.1s1.2-1.8,2.2-2.2l122-50.5c2-0.8,4.4,0.1,5.2,2.2l3.1,7.4L54.3,123.3L51.3,115.9z
	 M106,211h26v8h-26V211z M138,211h26v8h-26V211z M170,211h26v8h-26V211z M202,211h26v8h-26V211z M110,178h14c2.8,0,5-2.2,5-5v-3h-8
	v-8h8v-3c0-2.8-2.2-5-5-5h-14c-2.8,0-5,2.2-5,5v3h8v8h-8v3C105,175.8,107.2,178,110,178z"/>
</svg>
