<?xml version="1.0" encoding="utf-8"?>
<!-- Generator: Adobe Illustrator 28.0.0, SVG Export Plug-In . SVG Version: 6.00 Build 0)  -->
<svg version="1.1" xmlns="http://www.w3.org/2000/svg" xmlns:xlink="http://www.w3.org/1999/xlink" x="0px" y="0px"
	 viewBox="0 0 288 288" style="enable-background:new 0 0 288 288;" xml:space="preserve">
<style type="text/css">
	.st0{display:none;}
	.st1{display:inline;}
	.st2{fill:none;stroke:#2AA5DD;stroke-width:0.25;stroke-miterlimit:10;}
	.st3{fill:#2AA5DD;}
	.st4{fill:none;}
	.st5{fill:#312D2A;}
</style>
<g id="GUIDES" class="st0">
	<g class="st1">
		<line class="st2" x1="96" y1="0" x2="96" y2="288"/>
		<line class="st2" x1="192" y1="0" x2="192" y2="288"/>
		<g>
			<path class="st3" d="M144,12.4c35.2,0,68.3,13.7,93.2,38.6c24.9,24.9,38.6,58,38.6,93.2s-13.7,68.3-38.6,93.2
				c-24.9,24.9-58,38.6-93.2,38.6c-35.2,0-68.3-13.7-93.2-38.6c-24.9-24.9-38.6-58-38.6-93.2C12.2,109,26,75.9,50.8,51
				C75.7,26.1,108.8,12.4,144,12.4 M144,12.1c-72.9,0-132,59.1-132,132s59.1,132,132,132c72.9,0,132-59.1,132-132
				S216.9,12.1,144,12.1L144,12.1z"/>
		</g>
		<g>
			<path class="st3" d="M240,12.2c6.5,0,11.8,5.3,11.8,11.8v240c0,6.5-5.3,11.8-11.8,11.8H48c-6.5,0-11.8-5.3-11.8-11.8V24
				c0-6.5,5.3-11.8,11.8-11.8H240 M240,12H48c-6.6,0-12,5.4-12,12v240c0,6.6,5.4,12,12,12h192c6.6,0,12-5.4,12-12V24
				C252,17.4,246.6,12,240,12L240,12z"/>
		</g>
		<g>
			<path class="st3" d="M264,36.2c6.5,0,11.8,5.3,11.8,11.8v192c0,6.5-5.3,11.8-11.8,11.8H24c-6.5,0-11.8-5.3-11.8-11.8V48
				c0-6.5,5.3-11.8,11.8-11.8H264 M264,36H24c-6.6,0-12,5.4-12,12v192c0,6.6,5.4,12,12,12h240c6.6,0,12-5.4,12-12V48
				C276,41.4,270.6,36,264,36L264,36z"/>
		</g>
		<g>
			<path class="st3" d="M247.8,24.2c8.8,0,16,7.2,16,16v207.6c0,8.8-7.2,16-16,16H40.2c-8.8,0-16-7.2-16-16V40.2c0-8.8,7.2-16,16-16
				H247.8 M247.8,24H40.2C31.3,24,24,31.3,24,40.2v207.6c0,8.9,7.3,16.2,16.2,16.2h207.6c8.9,0,16.2-7.3,16.2-16.2V40.2
				C264,31.3,256.7,24,247.8,24L247.8,24z"/>
		</g>
		<g>
			<path class="st3" d="M239.8,48.2v191.5H48.2V48.2H239.8 M240,48H48v192h192V48L240,48z"/>
		</g>
		<line class="st2" x1="0" y1="192" x2="288" y2="192"/>
		<line class="st2" x1="0" y1="96" x2="288" y2="96"/>
		<g>
			<path class="st3" d="M144,96.3c26.3,0,47.8,21.4,47.8,47.7c0,26.3-21.4,47.7-47.8,47.7c-26.3,0-47.8-21.4-47.8-47.7
				C96.2,117.7,117.7,96.3,144,96.3 M144,96.1c-26.5,0-48,21.5-48,47.9c0,26.5,21.5,47.9,48,47.9c26.5,0,48-21.5,48-47.9
				C192,117.5,170.5,96.1,144,96.1L144,96.1z"/>
		</g>
	</g>
</g>
<g id="ART">
	<g>
		<path class="st4" d="M49.8,99.2c-0.6-0.2-1.2-0.3-1.8-0.3c-0.7,0-1.4,0.1-2,0.4c-1.2,0.5-2.2,1.5-2.7,2.8
			c-0.5,1.2-0.5,2.6,0.1,3.8s1.5,2.2,2.8,2.6c1.2,0.5,2.6,0.5,3.8-0.1c1.2-0.5,2.2-1.5,2.7-2.8c0.5-1.2,0.5-2.6-0.1-3.8
			S51.1,99.7,49.8,99.2z"/>
		<path class="st4" d="M243.5,143.5c1.9-2,1.9-5.1,0-7.1c-1-1-2.3-1.5-3.5-1.5s-2.6,0.5-3.5,1.5c-1.9,2-1.9,5.1,0,7.1
			C238.4,145.5,241.6,145.5,243.5,143.5z"/>
		<circle class="st4" cx="83" cy="251" r="5"/>
		<path class="st4" d="M48,170c-1.3,0-2.6,0.5-3.5,1.5c-1.9,2-1.9,5.1,0,7.1c2,1.9,5.1,1.9,7.1,0c1.9-2,1.9-5.1,0-7.1
			C50.6,170.5,49.3,170,48,170z"/>
		<path class="st5" d="M121.6,247H95.4c-1.7-5.2-6.6-9-12.4-9c-7.2,0-13,5.8-13,13s5.8,13,13,13c5.8,0,10.7-3.8,12.4-9h30.3l20.1-28
			H136L121.6,247z M83,256c-2.8,0-5-2.2-5-5s2.2-5,5-5s5,2.2,5,5S85.8,256,83,256z"/>
		<path class="st5" d="M221.4,61l12.5-12.5c1.9,1,4,1.5,6.1,1.5c3.3,0,6.7-1.3,9.2-3.8c5.1-5.1,5.1-13.3,0-18.4
			c-5.1-5.1-13.3-5.1-18.4,0c-4,4-4.8,10.1-2.5,14.9L218.1,53h-30.6l8,8H221.4z M240,32c1.3,0,2.6,0.5,3.5,1.5c1.9,2,1.9,5.1,0,7.1
			c-2,1.9-5.1,1.9-7.1,0c-1.9-2-1.9-5.1,0-7.1C237.4,32.5,238.7,32,240,32z"/>
		<path class="st5" d="M60.4,171c-0.6-1.9-1.7-3.7-3.2-5.2c-5.1-5.1-13.3-5.1-18.4,0c-5.1,5.1-5.1,13.3,0,18.4
			c2.5,2.5,5.9,3.8,9.2,3.8s6.7-1.3,9.2-3.8c1.5-1.5,2.6-3.3,3.2-5.2H77v-8H60.4z M51.5,178.5c-2,1.9-5.1,1.9-7.1,0
			c-1.9-2-1.9-5.1,0-7.1c1-1,2.3-1.5,3.5-1.5s2.6,0.5,3.5,1.5C53.5,173.4,53.5,176.6,51.5,178.5z"/>
		<path class="st5" d="M60.4,100c-0.1-0.5-0.3-0.9-0.5-1.4C57,92.1,49.4,89,42.8,91.9c-3.2,1.4-5.6,3.9-6.9,7.2
			c-1.3,3.2-1.2,6.8,0.2,9.9c2.1,4.9,6.9,7.8,11.9,7.8c1.7,0,3.5-0.4,5.2-1.1c3.2-1.4,5.6-3.9,6.9-7.2c0.1-0.2,0.1-0.4,0.2-0.6H77
			v-8H60.4z M52.7,105.6c-0.5,1.2-1.4,2.2-2.7,2.8c-1.2,0.5-2.6,0.6-3.8,0.1c-1.2-0.5-2.2-1.4-2.8-2.6s-0.6-2.6-0.1-3.8
			c0.5-1.2,1.4-2.2,2.7-2.8c0.6-0.3,1.3-0.4,2-0.4c0.6,0,1.2,0.1,1.8,0.3c1.2,0.5,2.2,1.4,2.8,2.7S53.1,104.4,52.7,105.6z"/>
		<path class="st5" d="M179.1,53H83v161h116.4c-1.7-2-3.3-4.1-5-6.3l0,0l0,0l-1.2-1.6H91V61h80v29h29v30.2c0.4,0.3,0.7,0.7,1.1,1
			c2.7,2.7,5,5.7,6.9,8.9V81.9L179.1,53z M179,64.2L196.8,82H179V64.2z"/>
		<path class="st5" d="M203.8,219H200v0H91v0h-8v1v3l8,4v0h45h9.9H200v0l7.7-3.8C206.4,221.8,205.1,220.4,203.8,219z"/>
		<path class="st5" d="M190,100h-67.9H101v8h24.4h40.1c1.1-0.1,2.2-0.1,3.3-0.1s2.2,0.1,3.3,0.1H190V100z"/>
		<path class="st5" d="M101,126h31.5c1.3-1.7,2.7-3.3,4.2-4.8c1.1-1.1,2.3-2.2,3.5-3.2H101V126z"/>
		<path class="st5" d="M213.4,144h0.6h13.6c0.6,1.9,1.7,3.7,3.2,5.2c2.5,2.5,5.9,3.8,9.2,3.8s6.7-1.3,9.2-3.8
			c5.1-5.1,5.1-13.3,0-18.4c-5.1-5.1-13.3-5.1-18.4,0c-1.5,1.5-2.6,3.3-3.2,5.2H214h-3C212,138.6,212.8,141.3,213.4,144z
			 M236.5,136.5c1-1,2.3-1.5,3.5-1.5s2.6,0.5,3.5,1.5c1.9,2,1.9,5.1,0,7.1c-2,1.9-5.1,1.9-7.1,0
			C234.5,141.6,234.5,138.4,236.5,136.5z"/>
		<path class="st5" d="M101,144h23.4c0.6-2.7,1.4-5.4,2.5-8H101V144z"/>
		<path class="st5" d="M101,161h23c-0.4-2.5-0.6-5.1-0.6-7.6c0-0.1,0-0.2,0-0.4H101V161z"/>
		<path class="st5" d="M101,171v8h24.4h5.9c-1.7-2.5-3.2-5.2-4.4-8h-4.8H101z"/>
		<path class="st5" d="M219.7,183.4l-15.6-11.3c8.3-15.2,6-34.6-6.8-47.5c-15.6-15.6-41-15.6-56.6,0s-15.6,41,0,56.6
			c7.8,7.8,18,11.7,28.3,11.7c6.4,0,12.8-1.5,18.6-4.6l11.4,15.9c4.1,5.5,8.5,10.6,12.9,15l7.4,7.4l22.9-22.9l-7.4-7.4
			C230.4,192,225.3,187.6,219.7,183.4z M205.5,199.5L194.3,184c1-0.8,2-1.8,3-2.7c0.8-0.8,1.6-1.7,2.3-2.5l15.4,11.1
			c5.2,3.9,10,8,14.2,12.2l1.8,1.8l-11.6,11.6l-1.8-1.8C213.4,209.4,209.3,204.7,205.5,199.5z M146.4,175.6
			c-12.5-12.5-12.5-32.8,0-45.3c6.2-6.2,14.4-9.4,22.6-9.4s16.4,3.1,22.6,9.4c12.5,12.5,12.5,32.8,0,45.3
			C179.2,188.1,158.9,188.1,146.4,175.6z"/>
		<path class="st5" d="M186.2,146.6c0.4,1.1,0.7,2.2,0.9,3.3l7.9-1.4c-0.3-1.6-0.7-3.2-1.3-4.8L186.2,146.6z"/>
		<path class="st5" d="M172.2,135.3c3.8,0.6,7.2,2.3,9.9,5c1.2,1.2,2.2,2.5,3,3.9l7-3.9c-1.2-2.1-2.6-4-4.3-5.7
			c-3.9-3.9-8.8-6.4-14.3-7.3L172.2,135.3z"/>
	</g>
</g>
</svg>
