<?xml version="1.0" encoding="utf-8"?>
<!-- Generator: Adobe Illustrator 24.0.3, SVG Export Plug-In . SVG Version: 6.00 Build 0)  -->
<svg version="1.1" id="ART" xmlns="http://www.w3.org/2000/svg" xmlns:xlink="http://www.w3.org/1999/xlink" x="0px" y="0px"
	 viewBox="0 0 288 288" style="enable-background:new 0 0 288 288;" xml:space="preserve">
<style type="text/css">
	.st0{fill:#FCFBFA;}
</style>
<path class="st0" d="M227.1,203.9c-5-5-10.4-9.7-16.1-13.9l-17.1-12.3c11.1-20.5,3.4-46.2-17.1-57.3s-46.2-3.4-57.3,17.1
	s-3.4,46.2,17.1,57.3c12.5,6.8,27.7,6.8,40.2,0l12.4,17.2c4.3,5.7,8.9,11,13.9,16.1l7.7,7.7l24.1-24.1L227.1,203.9z M132.2,181.8
	c-13.4-13.4-13.4-35.2,0-48.6c13.4-13.4,35.2-13.4,48.6,0c13.4,13.4,13.4,35.2,0,48.6c-6.4,6.4-15.2,10.1-24.3,10.1
	C147.4,191.9,138.7,188.3,132.2,181.8z M210.7,224.5l-2.1-2.1c-4.7-4.7-9.1-9.8-13.1-15.2l-12.2-16.9c1.1-0.9,2.1-1.9,3.1-2.9
	s2-2.1,2.9-3.1l16.8,12.1c5.4,4,10.5,8.4,15.2,13.1l2.1,2.1L210.7,224.5z M141.4,85.8l-30.6,30.6c-4.7-1.6-9.8,0.9-11.4,5.6
	c-1.6,4.7,0.9,9.8,5.6,11.4c4.7,1.6,9.8-0.9,11.4-5.6c0.6-1.9,0.6-3.9,0-5.7l31.7-31.7l3.8-3.8l18.4,1.4l19.5-19.5l-23.6-1.8
	l-1.8-23.6l-19.5,19.5l1.4,18.4L141.4,85.8L141.4,85.8z M167.2,79.8l-7.9-0.6l4.6-4.6l7.9,0.6L167.2,79.8z M157.6,61.1l0.6,7.9
	l-4.6,4.6l-0.7-7.9L157.6,61.1z M107.9,141.9c-9.4,0-17-7.6-17-17s7.6-17,17-17c0.9,0,1.8,0.1,2.6,0.2l6.5-6.5
	c-12.9-5-27.4,1.3-32.4,14.1s1.3,27.4,14.1,32.4c2.9,1.1,6,1.7,9.1,1.7c0.3,0,0.6,0,0.9,0c0.4-2.8,1.1-5.6,2-8.2
	C109.8,141.9,108.9,141.9,107.9,141.9z M148.9,98.1c2.3,3.5,4.1,7.2,5.4,11.1c0.8,0,1.5,0,2.2,0c2.1,0,4.2,0.1,6.2,0.4
	c-1.7-6.2-4.5-12-8.2-17.2l-3.6,3.5L148.9,98.1z M107.9,173.9c-27.1,0-49-21.9-49-49c0-27.1,21.9-49,49-49c9.5,0,18.9,2.8,26.8,8
	l2.2-2.2l3.6-3.6c-25.8-18-61.3-11.7-79.4,14.1s-11.7,61.3,14.1,79.4c9.6,6.7,21,10.3,32.7,10.3c2.2,0,4.5-0.1,6.7-0.4
	c-1.4-2.5-2.6-5-3.6-7.7C110,173.9,108.9,173.9,107.9,173.9z M137.2,109.8c0.5,0.9,0.9,1.9,1.3,2.9c2.5-1,5-1.8,7.7-2.4
	c-0.8-2.2-1.9-4.4-3.1-6.4l-3,3L137.2,109.8z M107.9,157.9c-18.2,0-33-14.7-33.1-32.9c0-18.2,14.7-33,32.9-33.1
	c5.3,0,10.5,1.3,15.2,3.7l2.8-2.8l3-3c-19.4-11.6-44.6-5.3-56.2,14.1s-5.3,44.6,14.1,56.2c6.4,3.8,13.7,5.8,21.1,5.8h1.1
	c-0.5-2.6-0.7-5.3-0.7-8L107.9,157.9z M152.8,129.4c-2.9,0.4-5.8,1.2-8.4,2.5c-1.9,9.8-7.7,18.5-16.1,24c-0.2,3,0.1,5.9,0.9,8.8
	C142.4,157.6,151.3,144.4,152.8,129.4z M133.3,173.8c0.9,1.4,2,2.6,3.2,3.8c0.8,0.8,1.6,1.5,2.5,2.2c17.3-9.8,29-27.2,31.5-47
	c-2.4-1.4-5-2.4-7.7-3C161.1,148.6,150,165.1,133.3,173.8z"/>
</svg>
