<?xml version="1.0" encoding="utf-8"?>
<!-- Generator: Adobe Illustrator 24.0.3, SVG Export Plug-In . SVG Version: 6.00 Build 0)  -->
<svg version="1.1" id="ART" xmlns="http://www.w3.org/2000/svg" xmlns:xlink="http://www.w3.org/1999/xlink" x="0px" y="0px"
	 viewBox="0 0 288 288" style="enable-background:new 0 0 288 288;" xml:space="preserve">
<style type="text/css">
	.st0{fill:#312D2A;}
</style>
<path class="st0" d="M231,86H124.8L114,71.5c-1.7-2.3-4.4-3.6-7.2-3.6H57c-5,0-9,4-9,9v143.2h192V95C240,90,236,86,231,86z M57,75.9
	h49.8c0.3,0,0.6,0.2,0.8,0.4L117.8,90l-10.2,13.6c-0.2,0.2-0.5,0.4-0.8,0.4H56V76.9C56,76.3,56.4,75.9,57,75.9z M232,212.1H56V112
	h50.8c2.8,0,5.5-1.3,7.2-3.6L124.9,94H231c0.6,0,1,0.4,1,1V212.1z M65,86h37v8H65V86z M176.8,144.3l2.5-15l-15.1-2.2l-6.8-13.7
	l-13.5,7l-13.5-7.1l-6.8,13.7l-15.1,2.2l2.5,15L100.3,155l10.9,10.7l-2.5,15l15.1,2.2l6.8,13.7l13.5-7.1l13.5,7.1l6.8-13.7l15.1-2.2
	l-2.5-15l10.9-10.7L176.8,144.3z M170.1,174l-11.1,1.6l-5,10.1l-10-5.2l-10,5.2l-5-10.1l-11.1-1.6l1.9-11.1l-8-7.9l8-7.9l-1.9-11.1
	l11.1-1.6l5-10.1l10,5.2l10-5.2l5,10.1l11.1,1.6l-1.9,11.1l8,7.9l-8,7.9L170.1,174z M138.7,158.3l-7.3-7.3l-5.7,5.7l13,13l22.1-22.2
	l-5.7-5.6L138.7,158.3z"/>
</svg>
