<svg id="ART" xmlns="http://www.w3.org/2000/svg" viewBox="0 0 288 288"><defs><style>.cls-1{fill:#312d2a;}</style></defs><path class="cls-1" d="M136.12,200.89l-10.57,6.61,10.57,6.61-4.24,6.78-16-10v-6.78l16-10Zm16.76,0,10.57,6.61-10.57,6.61,4.24,6.78,16-10v-6.78l-16-10ZM137.55,221h8.18l5.72-27h-8.18ZM195,232h8v4l-8,4H94l-8-4v-4h14V181a9,9,0,0,1,9-9h71a9,9,0,0,1,9,9v51Zm-14,0V181a1,1,0,0,0-1-1H109a1,1,0,0,0-1,1v51Zm36-56.9V199h-8V175.1a30.22,30.22,0,0,0-30.18-30.18l-15,.07L144,165.81,124.23,145l-15.07-.08A30.21,30.21,0,0,0,79,175.1V199H71V175.1a38.22,38.22,0,0,1,38.18-38.18L121,137V121.79a32.3,32.3,0,0,1-10.11-23.44L111,75h0c0-15.64,8.6-25,23-25h43V98a32.71,32.71,0,0,1-10,23.47V137l11.8-.05A38.22,38.22,0,0,1,217,175.1ZM119.24,71H156c2.94,0,11.37,0,12.8-13H134C125.3,58,120.35,62.37,119.24,71ZM144,123a25.41,25.41,0,0,0,25.08-25.07l-.06-23.12A20.3,20.3,0,0,1,156,79H119l-.1,19.37C118.88,112,130.17,123,144,123Zm15,15.39V127.28A32.26,32.26,0,0,1,144,131a33.45,33.45,0,0,1-15-3.57v11l15,15.79Z"/></svg>