<svg id="ART" xmlns="http://www.w3.org/2000/svg" viewBox="0 0 288 288"><defs><style>.cls-1{fill:#fcfbfa;}</style></defs><path class="cls-1" d="M154,169.32V106l6-3V99H102v4l6,3v63.32L77.5,233.88A19,19,0,0,0,94.68,261h72.64a19,19,0,0,0,17.18-27.12Zm-38,1.79V163h18v-8H116v-6h8v-8h-8v-6h18v-8H116v-6h8v-8h-8v-6h30v64.11L159.65,200H152.2l-8.52-18.15-3.62,1.7-.23,8.94h0l3.53,7.51h-41Zm60.62,76.78a11,11,0,0,1-9.3,5.11H94.68a11,11,0,0,1-10-15.7L98.57,208h48.55l7.16,15.26h0l7,5.54,3.62-1.7L156,208h7.47l13.84,29.3h0A11,11,0,0,1,176.62,247.89ZM128,93h-8V83a30,30,0,0,1,30-30h17.72A18,18,0,0,1,185,30v8a10,10,0,0,0-7.66,16.43A4,4,0,0,1,174.28,61H150a22,22,0,0,0-22,22Zm91-62v7.55a23.44,23.44,0,0,1-9.39,18.76A14.5,14.5,0,0,1,196.5,78H148a6,6,0,0,0-6,6v9h-8V84a14,14,0,0,1,14-14h48.5a6.51,6.51,0,0,0,6.5-6.5,6.42,6.42,0,0,0-.53-2.54,23.55,23.55,0,0,1-6.92,1H188V54h7.55A15.47,15.47,0,0,0,211,38.55V31Z"/></svg>