<?xml version="1.0" encoding="utf-8"?>
<!-- Generator: Adobe Illustrator 28.0.0, SVG Export Plug-In . SVG Version: 6.00 Build 0)  -->
<svg version="1.1" xmlns="http://www.w3.org/2000/svg" xmlns:xlink="http://www.w3.org/1999/xlink" x="0px" y="0px"
	 viewBox="0 0 288 288" style="enable-background:new 0 0 288 288;" xml:space="preserve">
<style type="text/css">
	.st0{display:none;}
	.st1{display:inline;}
	.st2{fill:none;stroke:#2AA5DD;stroke-width:0.25;stroke-miterlimit:10;}
	.st3{fill:#2AA5DD;}
	.st4{fill:none;}
	.st5{fill:#312D2A;}
</style>
<g id="GUIDES" class="st0">
	<g class="st1">
		<line class="st2" x1="96" y1="0" x2="96" y2="288"/>
		<line class="st2" x1="192" y1="0" x2="192" y2="288"/>
		<g>
			<path class="st3" d="M144,12.4c35.2,0,68.3,13.7,93.2,38.6c24.9,24.9,38.6,58,38.6,93.2s-13.7,68.3-38.6,93.2
				c-24.9,24.9-58,38.6-93.2,38.6c-35.2,0-68.3-13.7-93.2-38.6c-24.9-24.9-38.6-58-38.6-93.2C12.2,109,26,75.9,50.8,51
				C75.7,26.1,108.8,12.4,144,12.4 M144,12.1c-72.9,0-132,59.1-132,132s59.1,132,132,132c72.9,0,132-59.1,132-132
				S216.9,12.1,144,12.1L144,12.1z"/>
		</g>
		<g>
			<path class="st3" d="M240,12.2c6.5,0,11.8,5.3,11.8,11.8v240c0,6.5-5.3,11.8-11.8,11.8H48c-6.5,0-11.8-5.3-11.8-11.8V24
				c0-6.5,5.3-11.8,11.8-11.8H240 M240,12H48c-6.6,0-12,5.4-12,12v240c0,6.6,5.4,12,12,12h192c6.6,0,12-5.4,12-12V24
				C252,17.4,246.6,12,240,12L240,12z"/>
		</g>
		<g>
			<path class="st3" d="M264,36.2c6.5,0,11.8,5.3,11.8,11.8v192c0,6.5-5.3,11.8-11.8,11.8H24c-6.5,0-11.8-5.3-11.8-11.8V48
				c0-6.5,5.3-11.8,11.8-11.8H264 M264,36H24c-6.6,0-12,5.4-12,12v192c0,6.6,5.4,12,12,12h240c6.6,0,12-5.4,12-12V48
				C276,41.4,270.6,36,264,36L264,36z"/>
		</g>
		<g>
			<path class="st3" d="M247.8,24.2c8.8,0,16,7.2,16,16v207.6c0,8.8-7.2,16-16,16H40.2c-8.8,0-16-7.2-16-16V40.2c0-8.8,7.2-16,16-16
				H247.8 M247.8,24H40.2C31.3,24,24,31.3,24,40.2v207.6c0,8.9,7.3,16.2,16.2,16.2h207.6c8.9,0,16.2-7.3,16.2-16.2V40.2
				C264,31.3,256.7,24,247.8,24L247.8,24z"/>
		</g>
		<g>
			<path class="st3" d="M239.8,48.2v191.5H48.2V48.2H239.8 M240,48H48v192h192V48L240,48z"/>
		</g>
		<line class="st2" x1="0" y1="192" x2="288" y2="192"/>
		<line class="st2" x1="0" y1="96" x2="288" y2="96"/>
		<g>
			<path class="st3" d="M144,96.3c26.3,0,47.8,21.4,47.8,47.7c0,26.3-21.4,47.7-47.8,47.7c-26.3,0-47.8-21.4-47.8-47.7
				C96.2,117.7,117.7,96.3,144,96.3 M144,96.1c-26.5,0-48,21.5-48,47.9c0,26.5,21.5,47.9,48,47.9c26.5,0,48-21.5,48-47.9
				C192,117.5,170.5,96.1,144,96.1L144,96.1z"/>
		</g>
	</g>
</g>
<g id="ART">
	<g>
		<path class="st4" d="M216.1,78.5c-4.1,0-6.1,3-6.1,8.9c0,5.9,2,8.9,6.1,8.9s6.1-3,6.1-8.9C222.2,81.5,220.1,78.5,216.1,78.5z"/>
		<path class="st4" d="M216.1,182.5c-4.1,0-6.1,3-6.1,8.9c0,5.9,2,8.9,6.1,8.9s6.1-3,6.1-8.9C222.2,185.5,220.1,182.5,216.1,182.5z"
			/>
		<path class="st4" d="M216.1,130.5c-4.1,0-6.1,3-6.1,8.9c0,5.9,2,8.9,6.1,8.9s6.1-3,6.1-8.9C222.2,133.5,220.1,130.5,216.1,130.5z"
			/>
		<polygon class="st5" points="148,213 69.9,213 39.2,244 32,244 32,66 148,66 148,58 24,58 24,252 42.5,252 73.2,221 148,221 		"/>
		<path class="st5" d="M81.3,163h8v-8v-15.5v-8h-4.7l1.8-4.6l4.3-10.9H78.9h-8.2h-4.3l-2.4,3.6l-10.1,15.6l-1.3,2v2.4V155v8h8H81.3z
			 M60.6,139.6L70.7,124h8.2l-6.1,15.5h8.5V155H60.6V139.6z"/>
		<path class="st5" d="M123.4,163h8v-8v-15.5v-8h-4.7l1.8-4.6l4.3-10.9H121h-8.2h-4.3l-2.4,3.6L96,135.2l-1.3,2v2.4V155v8h8H123.4z
			 M102.7,139.6l10.1-15.6h8.2l-6.1,15.5h8.5V155h-20.7V139.6z"/>
		<rect x="154" y="24" class="st5" width="8" height="240"/>
		<polygon class="st5" points="197.8,124.1 188.5,124.1 183.3,133.4 177.9,124.1 168.6,124.1 177.3,138.7 168.1,154.7 177.8,154.7 
			183.2,144.5 188.9,154.7 198.2,154.7 189,138.9 		"/>
		<path class="st5" d="M224,125.4c-2.2-1.3-4.9-1.9-8-1.9c-3.1,0-5.8,0.6-8,1.9c-2.2,1.3-3.9,3.1-5,5.4c-1.2,2.4-1.7,5.2-1.7,8.6
			c0,5.1,1.3,9,3.8,11.8c2.6,2.8,6.2,4.2,10.9,4.2s8.3-1.4,10.9-4.2c2.6-2.8,3.8-6.7,3.8-11.8c0-3.4-0.6-6.2-1.7-8.6
			C227.9,128.4,226.2,126.6,224,125.4z M216.1,148.3c-4.1,0-6.1-3-6.1-8.9c0-5.9,2-8.9,6.1-8.9s6.1,3,6.1,8.9
			C222.2,145.3,220.1,148.3,216.1,148.3z"/>
		<polygon class="st5" points="263.6,124.1 254.3,124.1 249.1,133.4 243.7,124.1 234.4,124.1 243.1,138.7 233.9,154.7 243.6,154.7 
			249,144.5 254.7,154.7 264,154.7 254.8,138.9 		"/>
		<polygon class="st5" points="197.8,72.1 188.5,72.1 183.3,81.4 177.9,72.1 168.6,72.1 177.3,86.7 168.1,102.7 177.8,102.7 
			183.2,92.5 188.9,102.7 198.2,102.7 189,86.9 		"/>
		<path class="st5" d="M224,73.3c-2.2-1.3-4.9-1.9-8-1.9c-3.1,0-5.8,0.6-8,1.9s-3.9,3.1-5,5.4c-1.2,2.4-1.7,5.2-1.7,8.6
			c0,5.1,1.3,9,3.8,11.8c2.6,2.8,6.2,4.2,10.9,4.2s8.3-1.4,10.9-4.2c2.6-2.8,3.8-6.7,3.8-11.8c0-3.4-0.6-6.2-1.7-8.6
			C227.9,76.4,226.2,74.6,224,73.3z M216.1,96.3c-4.1,0-6.1-3-6.1-8.9c0-5.9,2-8.9,6.1-8.9s6.1,3,6.1,8.9
			C222.2,93.3,220.1,96.3,216.1,96.3z"/>
		<polygon class="st5" points="243.6,102.7 249,92.5 254.7,102.7 264,102.7 254.8,86.9 263.6,72.1 254.3,72.1 249.1,81.4 
			243.7,72.1 234.4,72.1 243.1,86.7 233.9,102.7 		"/>
		<polygon class="st5" points="197.8,176.1 188.5,176.1 183.3,185.4 177.9,176.1 168.6,176.1 177.3,190.7 168.1,206.7 177.8,206.7 
			183.2,196.5 188.9,206.7 198.2,206.7 189,190.9 		"/>
		<path class="st5" d="M224,177.3c-2.2-1.3-4.9-1.9-8-1.9c-3.1,0-5.8,0.6-8,1.9s-3.9,3.1-5,5.4c-1.2,2.4-1.7,5.2-1.7,8.6
			c0,5.1,1.3,9,3.8,11.8c2.6,2.8,6.2,4.2,10.9,4.2s8.3-1.4,10.9-4.2c2.6-2.8,3.8-6.7,3.8-11.8c0-3.4-0.6-6.2-1.7-8.6
			C227.9,180.4,226.2,178.6,224,177.3z M216.1,200.3c-4.1,0-6.1-3-6.1-8.9c0-5.9,2-8.9,6.1-8.9s6.1,3,6.1,8.9
			C222.2,197.3,220.1,200.3,216.1,200.3z"/>
		<polygon class="st5" points="263.6,176.1 254.3,176.1 249.1,185.4 243.7,176.1 234.4,176.1 243.1,190.7 233.9,206.7 243.6,206.7 
			249,196.5 254.7,206.7 264,206.7 254.8,190.9 		"/>
	</g>
</g>
</svg>
