<svg id="ART" xmlns="http://www.w3.org/2000/svg" viewBox="0 0 288 288"><defs><style>.cls-1{fill:#312d2a;}</style></defs><path class="cls-1" d="M263.51,179.29a10.36,10.36,0,0,1-7.26,2.71,11.27,11.27,0,0,1-3.13-.43,40.47,40.47,0,0,0-3.4-15.38c-1-2.46-1.72-4.4-1.72-6.19a10.68,10.68,0,0,1,2.24-6.58A18.58,18.58,0,0,0,254,142v-5h-8V118h0l-4-8h-4v27H225V97H133v29H77v9.38l-.4-.38H71V112H50v-8H46l-4,8h0v5h0v5H31l3,13H26l10.68,45.91A11.13,11.13,0,0,1,31.75,182a10.43,10.43,0,0,1-7.22-2.66l-6,5.32A18,18,0,0,0,31.75,190,18.84,18.84,0,0,0,42,187.1a19.39,19.39,0,0,0,20.4,0,19.39,19.39,0,0,0,20.4,0,19.39,19.39,0,0,0,20.4,0,19.39,19.39,0,0,0,20.4,0,19.39,19.39,0,0,0,20.4,0,19.39,19.39,0,0,0,20.4,0,19.39,19.39,0,0,0,20.4,0,19.39,19.39,0,0,0,20.4,0,19.39,19.39,0,0,0,20.4,0,18.84,18.84,0,0,0,10.2,2.9A19.14,19.14,0,0,0,246,187.09,18.85,18.85,0,0,0,256.25,190a18,18,0,0,0,13.18-5.34ZM105,154H96.6l-6.32-6H105Zm8-6h20v6H113Zm28-14h20v6H141Zm28-15h20v7H169Zm48,21H197v-6h20Zm-48-6h20v6H169Zm-28,14h20v6H141Zm28,0h20v6H169Zm28,0h13.59l-7.06,6H197Zm0-22v-7h20v7Zm0-21h20v6H197Zm-28,0h20v6H169Zm-28,0h20v6H141Zm0,14h20v7H141Zm-28,15h20v6H113Zm-8,0v6H85v-6Zm-64-4h2A6.94,6.94,0,0,0,50,123.06V120H63v15H42.18Zm194.72,52a10.43,10.43,0,0,1-7.22-2.66L225.59,176l-3,3.34a10.3,10.3,0,0,1-7.25,2.71,10.43,10.43,0,0,1-7.22-2.66L205.19,176l-3,3.34a11.1,11.1,0,0,1-14.48.05L184.79,176l-3,3.34a10.3,10.3,0,0,1-7.25,2.71,10.43,10.43,0,0,1-7.22-2.66l-3-3.35-3,3.35a11.13,11.13,0,0,1-14.44,0L144,176l-3,3.34a11.1,11.1,0,0,1-14.48.05L123.59,176l-3,3.34a10.3,10.3,0,0,1-7.25,2.71,10.43,10.43,0,0,1-7.22-2.66l-3-3.35-3,3.35a11.13,11.13,0,0,1-14.44,0L82.79,176l-3,3.34a11.1,11.1,0,0,1-14.48.05L62.39,176l-3,3.34A10.36,10.36,0,0,1,52.15,182a10.43,10.43,0,0,1-7.22-2.66l-.61-.71L36,143H73.4l20,19H206.47l20-17h19.15a19,19,0,0,1-1.72,3.55A18.82,18.82,0,0,0,240,160c0,3.3,1.1,6.12,2.27,9.1a38.88,38.88,0,0,1,2.5,8.38l-1.63,1.78A10.71,10.71,0,0,1,235.75,182ZM55,153a4,4,0,1,1-4-4A4,4,0,0,1,55,153Zm14,0a4,4,0,1,1-4-4A4,4,0,0,1,69,153Zm156,4h8v8h-8Z"/></svg>