<?xml version="1.0" encoding="UTF-8"?>
<svg id="Art" xmlns="http://www.w3.org/2000/svg" version="1.1" viewBox="0 0 288 288">
  <!-- Generator: Adobe Illustrator 30.1.0, SVG Export Plug-In . SVG Version: 2.1.1 Build 136)  -->
  <defs>
    <style>
      .st0 {
        fill: #312d2a;
      }
    </style>
  </defs>
  <path class="st0" d="M79.19,165.37v1.99c1.94,6.15,4.6,12.17,8,18.05v-20.04c0-1.65,1.34-2.98,2.98-2.98h9.52v-2.23c0-2.02.33-3.96.95-5.77h-10.47c-6.05,0-10.98,4.92-10.98,10.98Z"/>
  <path class="st0" d="M112.53,137.39c-3.03-3.64-4.84-8.3-4.84-13.39v-.14c-2.28-1.78-5.14-2.84-8.24-2.84-7.4,0-13.41,6.02-13.41,13.41s6.01,13.41,13.41,13.41c6.37,0,11.73-4.47,13.08-10.45ZM99.45,139.84c-2.98,0-5.41-2.42-5.41-5.41s2.43-5.41,5.41-5.41,5.41,2.43,5.41,5.41-2.43,5.41-5.41,5.41Z"/>
  <path class="st0" d="M113.69,160.16c0-2.3,1.87-4.16,4.16-4.16h22.39c-1.48-2.42-2.56-5.12-3.14-8h-19.25c-4.62,0-8.65,2.59-10.71,6.39-.92,1.72-1.45,3.68-1.45,5.77v49.06c2.52,2.52,5.19,4.98,8,7.38v-56.44Z"/>
  <path class="st0" d="M128.69,139c3.33,0,6.41-1.09,8.9-2.93,1.13-3.94,3.22-7.48,6-10.36.07-.56.1-1.13.1-1.71,0-8.27-6.73-15-15-15-7.42,0-13.6,5.41-14.79,12.5-.14.81-.21,1.65-.21,2.5,0,4.5,1.99,8.54,5.14,11.3,2.63,2.3,6.09,3.7,9.86,3.7ZM128.69,117c3.86,0,7,3.14,7,7s-3.14,7-7,7-7-3.14-7-7,3.14-7,7-7Z"/>
  <path class="st0" d="M190.77,198.65c.59-.74,1.17-1.49,1.73-2.24v-13.59c0-7.71-6.28-13.99-14-13.99h-33.81c-7.72,0-14,6.28-14,13.99v46.39c2.59,1.68,5.26,3.3,8,4.88v-51.27c0-3.3,2.69-5.99,6-5.99h33.81c3.31,0,6,2.69,6,5.99v23.09c2.22-2.37,4.31-4.8,6.27-7.26Z"/>
  <path class="st0" d="M161.6,124.02c-4.76,0-9.11,1.75-12.44,4.65-3.15,2.73-5.39,6.48-6.21,10.72-.17.85-.28,1.73-.33,2.61-.01.34-.02.68-.02,1.02,0,1.72.23,3.39.67,4.98.67,2.51,1.85,4.8,3.42,6.78,3.48,4.41,8.87,7.24,14.91,7.24,10.47,0,19-8.52,19-19s-8.53-19-19-19ZM161.6,154.02c-6.07,0-11-4.93-11-11s4.93-11,11-11,11,4.94,11,11-4.94,11-11,11Z"/>
  <path class="st0" d="M217.5,128.6v19.1c-1.04,17.94-7.61,35.19-19,50.83-1.86,2.57-3.87,5.1-6,7.58-2.49,2.91-5.16,5.75-8,8.52-.82.79-1.65,1.58-2.49,2.37-10.41,9.66-22.93,18.39-37.32,25.89-.06.04-.13.08-.2.11-.33.18-.66.35-1,.52-.34-.17-.67-.34-1-.52-1.29-.67-2.55-1.34-3.8-2.03-2.74-1.5-5.41-3.04-8-4.64-2.05-1.25-4.05-2.53-6-3.84-4.06-2.71-7.92-5.54-11.57-8.47-2.59-2.08-5.06-4.2-7.43-6.38-2.09-1.9-4.09-3.85-6-5.83-4.68-4.84-8.85-9.89-12.5-15.1-3.04-4.37-5.71-8.85-8-13.44-5.67-11.33-8.97-23.29-9.69-35.57v-71.64l74-31.71,29.82,12.78c.94-1.07,1.92-2.1,2.96-3.08,1.08-1.02,2.21-1.99,3.39-2.9l-36.17-15.5-82,35.14v77.25c1.58,27.58,15.04,53.52,38.19,74.95.37.35.74.69,1.12,1.03,7.09,6.45,15.07,12.47,23.88,18,.51.33,1.03.65,1.56.98,4.9,3.01,10.06,5.88,15.45,8.58l1.79.89,1.79-.89c19.23-9.64,35.43-21.36,48.13-34.58,1.77-1.83,3.46-3.69,5.09-5.58,16.28-18.93,25.7-40.59,26.99-63.38v-22.36c-1.3.63-2.63,1.19-3.99,1.68-1.3.48-2.64.89-4,1.24Z"/>
  <path class="st0" d="M206.5,48c-7.49,0-14.47,2.17-20.36,5.92-1.31.84-2.57,1.75-3.76,2.74-1.13.93-2.2,1.92-3.22,2.97-1.45,1.5-2.77,3.12-3.95,4.84-4.23,6.12-6.71,13.54-6.71,21.53,0,20.95,17.05,38,38,38,1.7,0,3.37-.11,5-.33,2.06-.27,4.06-.71,6-1.29,1.37-.42,2.7-.9,4-1.47,1.37-.59,2.71-1.26,3.99-2,11.35-6.58,19.01-18.87,19.01-32.91,0-20.95-17.05-38-38-38ZM225.5,109.2c-1.25,1.03-2.59,1.95-4,2.77-1.27.74-2.61,1.39-4,1.93-1.91.77-3.92,1.33-6,1.67-1.62.29-3.3.43-5,.43-16.54,0-30-13.46-30-30,0-6.88,2.33-13.23,6.25-18.3,1.31-1.7,2.8-3.25,4.44-4.63,1.19-1.01,2.45-1.92,3.79-2.73,1.49-.91,3.07-1.69,4.72-2.32,3.35-1.31,6.99-2.02,10.8-2.02,16.54,0,30,13.46,30,30,0,9.34-4.29,17.69-11,23.2Z"/>
  <polygon class="st0" points="219.09 72.66 216.23 75.52 211.5 80.25 200.91 90.85 193.91 83.85 188.25 89.51 200.91 102.17 211.5 91.58 217.5 85.57 221.5 81.57 224.75 78.32 221.5 75.07 219.09 72.66"/>
</svg>