<?xml version="1.0" encoding="utf-8"?>
<!-- Generator: Adobe Illustrator 24.0.3, SVG Export Plug-In . SVG Version: 6.00 Build 0)  -->
<svg version="1.1" id="ART" xmlns="http://www.w3.org/2000/svg" xmlns:xlink="http://www.w3.org/1999/xlink" x="0px" y="0px"
	 viewBox="0 0 288 288" style="enable-background:new 0 0 288 288;" xml:space="preserve">
<style type="text/css">
	.st0{fill:#312D2A;}
</style>
<path class="st0" d="M57.89,76c0-0.55,0.45-1,1-1h37.66c0.31,0,0.6,0.14,0.79,0.39L107.87,89h88c0.55,0,1,0.45,1,1v9h8v-9
	c0-4.97-4.03-9-9-9H111.8l-8.13-10.5c-1.71-2.2-4.33-3.49-7.12-3.5H58.89c-4.97,0-9,4.03-9,9v119H68v-8H57.89V76z M74,105v121h165
	V105H74z M231,218H82V113h149V218z M185,127h23v8h-23V127z M185,168h37v8h-37V168z M185,196h37v8h-37V196z M185,182h29v8h-29V182z
	 M177,208v-89H88v93h89V208z M169,127v57.13c-3.43-2.67-7.65-4.12-12-4.13h-10v-5.33c3.82-3.83,5.97-9.01,6-14.42V131h-26
	c-9.25,0-15,6.13-15,16v14c0,5.29,2.17,10.35,6,14v5h-9.18c-4.65,0-9.16,1.55-12.82,4.41V127H169z M139,151
	c2.06,0.03,4.11-0.38,6-1.2v10.44c-0.03,6.85-5.51,12.43-12.36,12.58c-7,0-12.64-5.31-12.64-11.82v-10H139z M120.58,143
	c1.38-4,4.9-4,6.42-4h17.55c-0.61,2.52-2.97,4.22-5.55,4H120.58z M126,179.74c2.14,0.71,4.38,1.08,6.64,1.08
	c2.17-0.01,4.31-0.38,6.36-1.09v2.84l-6.39,7.05l-6.61-7.19V179.74z M96,200.41c0-6.66,6-12.5,12.81-12.5h11.38l12.47,13.53
	L144.89,188H157c6.74,0.12,12.11,5.66,12,12.4v3.6H96V200.41z"/>
</svg>
