<svg id="Layer_1" data-name="Layer 1" xmlns="http://www.w3.org/2000/svg" viewBox="0 0 28.8 28.8">
  <defs>
    <style>
      .cls-1, .cls-2 {
        fill: none;
        stroke: #fcfbfa;
        stroke-width: 0.8px;
      }

      .cls-1 {
        stroke-miterlimit: 10;
      }

      .cls-2 {
        stroke-linejoin: round;
      }
    </style>
  </defs>
  <line class="cls-1" x1="8.3" y1="8.4" x2="9.8" y2="6.9"/>
  <line class="cls-1" x1="9.7" y1="9.8" x2="11.2" y2="8.3"/>
  <line class="cls-1" x1="11.1" y1="11.2" x2="12.6" y2="9.7"/>
  <path class="cls-2" d="M20.54,6,8.42,18.08a3.42,3.42,0,0,0-.68,1L5.8,23l3.91-2a3.52,3.52,0,0,0,.88-.65L22.74,8.16a1.54,1.54,0,0,0,.46-1.1h0A1.56,1.56,0,0,0,21.64,5.5h0A1.54,1.54,0,0,0,20.54,6Z"/>
  <line class="cls-1" x1="20.3" y1="20.4" x2="21.8" y2="18.9"/>
  <line class="cls-1" x1="18.9" y1="19" x2="20.4" y2="17.5"/>
  <line class="cls-1" x1="17.5" y1="17.6" x2="19" y2="16.1"/>
  <line class="cls-2" x1="8.04" y1="18.53" x2="10.18" y2="20.67"/>
  <line class="cls-2" x1="18.44" y1="8.13" x2="20.58" y2="10.27"/>
  <line class="cls-2" x1="19.84" y1="6.73" x2="21.98" y2="8.87"/>
  <g>
    <path class="cls-1" d="M14,11.09,8.28,5.38a.4.4,0,0,0-.56,0L5.28,7.82a.4.4,0,0,0,0,.56L11,14.09"/>
    <path class="cls-1" d="M14.61,17.71l5.71,5.71a.4.4,0,0,0,.56,0L23.32,21a.4.4,0,0,0,0-.56l-5.71-5.71"/>
  </g>
</svg>
