<svg id="ART" xmlns="http://www.w3.org/2000/svg" viewBox="0 0 288 288"><defs><style>.cls-1{fill:#fcfbfa;}</style></defs><path class="cls-1" d="M201.22,98.72,207,93a79.73,79.73,0,0,1,14.35,31.6,25.84,25.84,0,0,0-2.8-.16,25.11,25.11,0,0,0-5.31.57A71.75,71.75,0,0,0,201.22,98.72ZM143,69a71.86,71.86,0,0,1,17.77,2.24L161,71h0l6.28-6.22a79.77,79.77,0,0,0-46-.75l4.13,7.16A72.16,72.16,0,0,1,143,69ZM85.36,97.9l-4.3-7.46A79.75,79.75,0,0,0,64.43,126h8.15A71.8,71.8,0,0,1,85.36,97.9ZM195,213v18h-8V213c0-10.09-8.12-18-18.49-18h-9.76a15.12,15.12,0,0,1-29.5,0h-9.76c-10.37,0-18.49,7.91-18.49,18v18H93V213a25.82,25.82,0,0,1,22.32-25.69,33.59,33.59,0,0,1-5.79-7.61l-.8-1.4L119.26,136c1.59-9.65,9.56-17,19.15-17h11.13c8.55,0,15.81,5.85,18.42,13.95l.07,0,11.3,45.37-.8,1.4a33.71,33.71,0,0,1-5.81,7.62A25.81,25.81,0,0,1,195,213Zm-51-40.89c9.38,0,17-8.29,17-18.49v-6.1a22.87,22.87,0,0,1-17-4.44,23.17,23.17,0,0,1-17,4.44v6.1C127,163.82,134.59,172.11,144,172.11Zm26.8,5-3.47-13.91A26.45,26.45,0,0,1,159,174.79v11.47A20.32,20.32,0,0,0,170.78,177.07Zm-43-42.21h0l-.69,2.79a12.79,12.79,0,0,0-.14,1.76c3.28.67,8.77.64,14.35-4.44l2.69-2.45,2.69,2.45c5.56,5.06,11,5.1,14.3,4.44-.06-6.85-5.17-12.41-11.45-12.41H138.41A11.52,11.52,0,0,0,127.79,134.86Zm-10.51,42.21A20.3,20.3,0,0,0,129,186.24V174.83a26.57,26.57,0,0,1-8.3-11.49ZM151,192.55V179a23.64,23.64,0,0,1-14,0v13.49c0,3.27,3.33,6.24,7,6.24S151,195.82,151,192.55Zm86.57-43.05a19.07,19.07,0,1,1-19.07-19.07A19.09,19.09,0,0,1,237.57,149.5Zm-8,0a11.07,11.07,0,1,0-11.07,11.07A11.09,11.09,0,0,0,229.57,149.5ZM50,132H86v36H50Zm8,28H78V140H58Zm54.56-63H91.77L81.38,79,91.77,61h20.79L123,79Zm-4.62-8,5.77-10-5.77-10H96.39L90.62,79l5.77,10Zm71.6,8L169,86.46V71.54L179.54,61h14.92L205,71.54V86.46L194.46,97ZM177,83.14,182.86,89h8.28L197,83.14V74.86L191.14,69h-8.28L177,74.86Z"/></svg>