<?xml version="1.0" encoding="utf-8"?>
<!-- Generator: Adobe Illustrator 25.0.1, SVG Export Plug-In . SVG Version: 6.00 Build 0)  -->
<svg version="1.1" xmlns="http://www.w3.org/2000/svg" xmlns:xlink="http://www.w3.org/1999/xlink" x="0px" y="0px"
	 viewBox="0 0 288 288" style="enable-background:new 0 0 288 288;" xml:space="preserve">
<style type="text/css">
	.st0{display:none;opacity:0.75;}
	.st1{display:inline;}
	.st2{fill:#00AEEF;}
	.st3{fill:none;stroke:#00AEEF;stroke-width:0.25;stroke-miterlimit:10;}
	.st4{fill:#FCFBFA;}
	.st5{fill:#312D2A;}
</style>
<g id="Guide" class="st0">
</g>
<g id="ART">
	<g>
		<path class="st5" d="M220.2,50l-1.2,1.8c-7.3,11.3-19.1,17.1-35,17.1c-15.9,0-27.7-5.7-35-17.1l-1.2-1.8h-7.7l-1.2,1.8
			c-7.3,11.3-19.1,17.1-35,17.1c-15.9,0-27.7-5.7-35-17.1L67.8,50H60v99.1c0,24,7.6,42.7,23.2,57.2c15.8,14.7,38.9,24.2,59.4,31.5
			l0.6,0.2h1.5l0.7-0.2c20.5-7.3,43.5-16.7,59.4-31.5C220.4,191.7,228,173,228,149V50H220.2z M220,149c0,21.9-6.6,38.2-20.7,51.4
			c-14.5,13.5-36,22.4-55.3,29.3c-48.2-17.3-76-36.2-76-80.7V63.3c8.8,8.9,21,13.6,36,13.6c17.4,0,31.1-6.3,40-18.3
			c8.9,12,22.6,18.3,40,18.3c14.9,0,27.2-4.7,36-13.6V149z"/>
		<path class="st5" d="M149.2,115.1c-5.6,2.9-12.5,0.6-15.4-5c-1-2-3.4-2.7-5.4-1.7s-2.7,3.4-1.7,5.4c0.6,1.2,1.3,2.3,2.1,3.2
			c-2.4,5.4-8.7,8.1-14.3,6c-0.1,0-0.1,0-0.2,0c-0.2-1.4-0.5-2.8-1.1-4.2c-0.8-2.1-3.1-3.1-5.2-2.3c-2.1,0.8-3.1,3.1-2.3,5.2
			c2.2,5.9-0.7,12.5-6.6,14.7c-2.1,0.8-3.1,3.1-2.3,5.2c0.6,1.6,2.1,2.6,3.7,2.6c0.5,0,1-0.1,1.4-0.3c4.9-1.8,8.7-5.5,10.8-10.2
			c0.4-0.8,0.7-1.7,0.9-2.5c1.6,0.4,3.1,0.6,4.7,0.6c6.8,0,13.2-3.6,16.7-9.5c2.7,1.4,5.8,2.2,8.9,2.2c3,0,6-0.7,8.8-2.1
			c2-1,2.7-3.4,1.7-5.4C153.6,114.9,151.1,114.1,149.2,115.1z"/>
		<path class="st5" d="M176.2,153.4c-2.4,4.6-2.9,9.9-1.3,14.8c0.5,1.7,2.1,2.8,3.8,2.8c0.4,0,0.8-0.1,1.2-0.2
			c2.1-0.7,3.3-2.9,2.6-5c-0.9-2.9-0.6-6,0.8-8.7c1.4-2.7,3.8-4.7,6.7-5.6c2.1-0.7,3.3-2.9,2.6-5c-0.7-2.1-2.9-3.3-5-2.6
			C182.7,145.4,178.6,148.8,176.2,153.4z"/>
		<path class="st5" d="M176.5,107.1c-2.5-7.9-9.9-13.7-18.6-13.7c-4,0-7.7,1.2-10.9,3.4c-3.6-4.8-9.3-7.8-15.5-7.8
			c-7.8,0-14.7,4.7-17.7,11.5c-1.9-0.6-4-1-6.1-1c-10.7,0-19.4,8.7-19.4,19.4c0,1.5,0.2,2.9,0.5,4.4c-7.9,2.5-13.7,9.9-13.7,18.6
			c0,10.7,8.7,19.4,19.4,19.4h7.4c-0.2,1.1-0.3,2.3-0.3,3.5c0,10.7,8.7,19.4,19.4,19.4h18.4c2.2,3.3,5.3,5.9,9.1,7.4
			c2.3,0.9,4.7,1.4,7.1,1.4c2.6,0,5.3-0.5,7.8-1.6c3.1-1.3,5.7-3.4,7.7-6c3.2,2.1,6.9,3.3,10.8,3.3c10.7,0,19.4-8.7,19.4-19.4
			c0-0.4,0-0.8,0-1.2c6.4-3.3,10.6-10,10.6-17.3c0-8.3-5.2-15.4-12.6-18.2c0.7-2.1,1.1-4.3,1.1-6.5c0-10.7-8.7-19.4-19.4-19.4
			C179.3,106.6,177.9,106.8,176.5,107.1z M192.2,126.1c0,2.5-0.8,4.9-2.3,6.9c-0.9,1.2-1.1,2.8-0.4,4.1c0.6,1.3,1.9,2.2,3.4,2.3
			c6,0.3,10.8,5.3,10.8,11.4c0,5-3.4,9.5-8.2,10.9c-2.1,0.6-3.3,2.7-2.7,4.8c0.2,0.9,0.3,1.8,0.3,2.8c0,6.3-5.1,11.4-11.4,11.4
			c-3.4,0-6.7-1.5-8.8-4.2c-1.1-1.4-3-1.8-4.6-1.2c-1.3,0.5-2.1,1.6-2.4,2.9c-1.2,2.6-3.2,4.6-5.8,5.8c-2.8,1.2-5.9,1.3-8.7,0.2
			c-2.8-1.1-5.1-3.3-6.3-6.1c-1.2-2.8-1.3-5.9-0.2-8.7c0.8-2.1-0.2-4.4-2.3-5.2c-2.1-0.8-4.4,0.2-5.2,2.3c-1.2,3.2-1.6,6.5-1.1,9.8
			h-15.3c-6.3,0-11.4-5.1-11.4-11.4s5.1-11.4,11.4-11.4H146c6.3,0,11.4,5.1,11.4,11.4c0,2.2,1.8,4,4,4s4-1.8,4-4
			c0-4.9-1.8-9.4-4.8-12.8c6.8-2.7,11.8-9.1,12.3-16.8c3.5-0.6,6.9-2.2,9.7-4.8c1.6-1.5,1.7-4,0.2-5.7c-1.5-1.6-4-1.7-5.7-0.2
			c-4.6,4.3-11.9,4-16.1-0.6c-1.5-1.6-4-1.7-5.7-0.2c-1.6,1.5-1.7,4-0.2,5.7c2.7,2.9,6.2,4.8,9.8,5.7c-0.5,5.8-5.4,10.4-11.4,10.4
			c-0.1,0-0.1,0-0.2,0c-0.1,0-0.1,0-0.2,0h-32.2c-6.4,0-12.1,3.1-15.6,7.9H94.4c-6.3,0-11.4-5.1-11.4-11.4c0-6.2,5-11.3,11.2-11.4
			c1.4,0,2.7-0.8,3.4-2s0.7-2.7,0-3.9c-0.9-1.7-1.4-3.6-1.4-5.5c0-6.3,5.1-11.4,11.4-11.4c2.3,0,4.5,0.7,6.3,1.9
			c1.1,0.8,2.6,0.9,3.8,0.3c1.3-0.6,2.1-1.7,2.3-3.1c0.8-5.6,5.7-9.7,11.3-9.7c4.8,0,9.1,3,10.7,7.5c0.5,1.3,1.7,2.3,3.1,2.6
			c1.4,0.2,2.9-0.3,3.8-1.4c2.2-2.7,5.4-4.2,8.9-4.2c6.2,0,11.3,5,11.4,11.2c0,1.4,0.8,2.7,2,3.4c1.2,0.7,2.7,0.7,3.9,0
			c1.7-0.9,3.6-1.4,5.5-1.4C187.1,114.6,192.2,119.8,192.2,126.1z"/>
	</g>
</g>
<g id="Layer_1">
</g>
</svg>
