<?xml version="1.0" encoding="utf-8"?>
<!-- Generator: Adobe Illustrator 24.0.3, SVG Export Plug-In . SVG Version: 6.00 Build 0)  -->
<svg version="1.1" id="ART" xmlns="http://www.w3.org/2000/svg" xmlns:xlink="http://www.w3.org/1999/xlink" x="0px" y="0px"
	 viewBox="0 0 288 288" style="enable-background:new 0 0 288 288;" xml:space="preserve">
<style type="text/css">
	.st0{fill:#FCFBFA;}
</style>
<path class="st0" d="M99,191h89v-63.6c-2.7-0.5-5.4-1.2-8-2.2V183h-3v-2.7c0.2-7.8-4.2-15-11.1-18.6c1.4-1.5,2.6-3.2,3.6-5l0.8-1.4
	l-8.2-33.1l0,0c-2-6.5-7.8-11.3-14.4-11.3h-8c-7.3,0-13.6,6-14.9,13.5l-7.7,30.9l0.8,1.4c1,1.8,2.3,3.5,3.7,5.1
	c-7.1,3.4-11.7,10.6-11.7,18.5v2.7h-3v-77h53.9c-1-2.6-1.8-5.3-2.2-8H99V191z M132,159.4c-2.6-1-4.9-2.9-6.4-5.3l1.6-6.2
	c1.2,2.2,2.9,4.2,4.8,5.9V159.4z M154.8,137.4c0,6.8-5.2,12.6-11.3,12.6s-11-5.8-11-12.6v-3.2c4,0.3,7.9-0.8,11.2-3.1
	c2.9,2,6.4,3.1,10,3.1c0.4,0,0.8,0,1.1,0L154.8,137.4z M140,157.6c1.2,0.2,2.3,0.4,3.5,0.4c1.2,0,2.3-0.1,3.5-0.4v8.4
	c-0.1,1.8-1.6,3.1-3.4,3c0,0,0,0-0.1,0c-1.7,0-3.5-1.1-3.5-3V157.6z M160.1,147.6l1.6,6.5c-1.6,2.5-4,4.4-6.8,5.4v-5.7
	C157.1,152.1,158.8,150,160.1,147.6L160.1,147.6z M139.6,119h8c3.5,0,6.6,3.3,7.1,7.3c-3.1,0.2-6.2-0.9-8.4-3.1l-2.7-2.5l-2.7,2.5
	c-2.2,2.2-5.3,3.3-8.4,3.1c0,0,0-0.1,0-0.1l0.5-2l0,0C134.2,121.2,136.8,119,139.6,119z M118,180.3c-0.1-6.7,5.3-12.3,12-12.4h2.2
	c1.4,6.3,7.6,10.2,13.8,8.8c4.4-1,7.8-4.4,8.8-8.7l0.2-0.1h2.7c6.4,0,11.2,5.3,11.2,12.4v2.7h-51V180.3z M199,122
	c19.3,0,35-15.7,35-35s-15.7-35-35-35s-35,15.7-35,35S179.7,122,199,122z M199,60c14.9,0,27,12.1,27,27s-12.1,27-27,27
	s-27-12.1-27-27S184.1,60,199,60z M215.8,80.4l-5.7-5.7l-16,16l-6.4-6.4l-5.7,5.6l12,12L215.8,80.4z M194,185h28v44h-6v-5
	c0-5-4-9-9-9h-14c-5,0-9,4-9,9v5h-6v-32h-8v40h60v-60h-36V185z M192,224c0-0.6,0.4-1,1-1h14c0.6,0,1,0.4,1,1v5h-16V224z M200,212
	c6.4,0,11.5-5.1,11.5-11.5S206.4,189,200,189s-11.5,5.1-11.5,11.5l0,0C188.5,206.8,193.7,212,200,212z M200,197
	c1.9,0,3.5,1.6,3.5,3.5s-1.6,3.5-3.5,3.5s-3.5-1.6-3.5-3.5C196.5,198.6,198.1,197,200,197z M109,229h-6v-5c0-5-4-9-9-9H80
	c-5,0-9,4-9,9v5h-6v-44h28v-8H57v60h60v-40h-8V229z M79,224c0-0.6,0.4-1,1-1h14c0.6,0,1,0.4,1,1v5H79V224z M87,189
	c-6.4,0-11.5,5.1-11.5,11.5S80.6,212,87,212s11.5-5.1,11.5-11.5l0,0C98.5,194.2,93.3,189,87,189z M87,204c-1.9,0-3.5-1.6-3.5-3.5
	s1.6-3.5,3.5-3.5s3.5,1.6,3.5,3.5S88.9,204,87,204z M93,107H79v-5c0-0.6,0.4-1,1-1h13v-8H80c-5,0-9,4-9,9v5h-6V63h44v29h8V55H57v60
	h36V107z M87,67c-6.4,0-11.5,5.1-11.5,11.5S80.6,90,87,90s11.5-5.1,11.5-11.5l0,0C98.5,72.2,93.3,67,87,67z M87,82
	c-1.9,0-3.5-1.6-3.5-3.5S85.1,75,87,75s3.5,1.6,3.5,3.5S88.9,82,87,82z"/>
</svg>
