<svg id="ART" xmlns="http://www.w3.org/2000/svg" viewBox="0 0 288 288"><defs><style>.cls-1{fill:#312d2a;}</style></defs><path class="cls-1" d="M171.51,147H164V137a26.86,26.86,0,0,0,8-19V79H137c-11.84,0-18.93,7.78-19,20.82h0v18.52a26.41,26.41,0,0,0,8,18.83V147h-8.51C102.88,147,91,159.1,91,174v32h8V174c0-10.29,8.47-19,18.49-19h10.23l17.16,18.23L162.05,155h9.46c10,0,18.49,8.71,18.49,19v32h8V174C198,159.1,186.12,147,171.51,147ZM137,87h26.74c-1.3,9-7.06,9-9.11,9H126.32C127.35,90.05,130.93,87,137,87Zm19,62.77-11.12,11.77-10.94-11.63v-7.27A27.15,27.15,0,0,0,145,145a26.21,26.21,0,0,0,11-2.42ZM145,137a18.86,18.86,0,0,1-19-18.63V105h28.63c3.65,0,6.79-1.88,9.37-3.54V118A19.22,19.22,0,0,1,145,137Zm95.82,14.73a21.26,21.26,0,0,0,9.6-7,20.86,20.86,0,0,0,3.82-17.64,25.26,25.26,0,0,0-2.84-7.14c-3-5.07-3.17-9.48-3.28-13.37,0-.58,0-1.14-.05-1.68a26.74,26.74,0,0,0-6-16A27.81,27.81,0,0,0,220.81,79h-4.4C205.68,79,197,88.21,197,99.55l0,2.82a44.57,44.57,0,0,1-1.58,12l-1,3.85a5,5,0,0,0,2.25,5.61l2.75,1.65.07.45a15.61,15.61,0,0,0,7.26,11.47,17.83,17.83,0,0,0,3.57,1.76l1.23,15.36-.48-.57a16.74,16.74,0,0,0-6,12.85V206h8V166.79a8.84,8.84,0,0,1,.19-1.79h5.95a16.52,16.52,0,0,0-.14,2v39h8V167a8,8,0,0,1,8-8,16,16,0,0,1,16,16v31h8V175A24,24,0,0,0,240.85,151.73ZM228.13,148l-.9,3.46c-1.51,2.82-4.58,5.55-7.23,5.55h-.31l-1.45-18.14L224,136v-4h-8a7.77,7.77,0,0,1-5.09-1.4,7.63,7.63,0,0,1-3.56-5.66l-.69-4.41-4-2.4.45-1.67A52.68,52.68,0,0,0,205,102.33l0-2.8a12.32,12.32,0,0,1,.1-1.61,36.66,36.66,0,0,0,16.64,11.19,33.51,33.51,0,0,0,4.88,18C231.37,135.06,228.16,147.87,228.13,148Zm5.3-25.05c-5-8.39-3.58-15.79-3.53-16.07l.93-4.16-4.21-.66c-6.36-1-12.57-5.23-17.69-12a10.9,10.9,0,0,1,7.48-3h4.4A19.82,19.82,0,0,1,236,94a18.66,18.66,0,0,1,4.16,11.22c0,.5,0,1,0,1.55.12,4.39.29,10.4,4.41,17.27a17.13,17.13,0,0,1,1.91,4.87,12.84,12.84,0,0,1-2.37,10.9,13.17,13.17,0,0,1-7.28,4.77C237.51,139,237.66,130,233.43,122.94ZM94.66,118.22l-1-3.86a44.57,44.57,0,0,1-1.58-12l0-2.84C92.05,88.21,83.32,79,72.59,79h-4.4a27.81,27.81,0,0,0-21.25,9.85,26.74,26.74,0,0,0-6,16c0,.54,0,1.1,0,1.68-.11,3.89-.24,8.3-3.28,13.37a25.26,25.26,0,0,0-2.84,7.14,20.86,20.86,0,0,0,3.82,17.64,21.17,21.17,0,0,0,9.6,7A24,24,0,0,0,30,175v31h8V175a16,16,0,0,1,16-16,8,8,0,0,1,8,8v39h8V167a16.52,16.52,0,0,0-.14-2h6a8.84,8.84,0,0,1,.19,1.79V206h8V166.79a16.74,16.74,0,0,0-6-12.85l-.48.57,1.23-15.36a17.83,17.83,0,0,0,3.57-1.76,15.61,15.61,0,0,0,7.26-11.47l.07-.45,2.75-1.65A5,5,0,0,0,94.66,118.22ZM59.09,106.84c.06.31,1.52,7.71-3.52,16.1-4.23,7.05-4.08,16-3.4,21.66a13.17,13.17,0,0,1-7.28-4.77,12.84,12.84,0,0,1-2.37-10.9,17.13,17.13,0,0,1,1.91-4.87c4.12-6.87,4.29-12.88,4.41-17.27,0-.53,0-1.05,0-1.55A18.66,18.66,0,0,1,53.05,94a19.82,19.82,0,0,1,15.14-7h4.4a10.9,10.9,0,0,1,7.48,3c-5.12,6.78-11.33,11-17.69,12l-4.14.68Zm23.25,13.69-.67,4.23,0,.18a7.63,7.63,0,0,1-3.56,5.66A7.77,7.77,0,0,1,73,132H65v4l5.76,2.88L69.31,157H69c-2.66,0-5.75-2.76-7.25-5.59L60.87,148c0-.13-3.24-12.94,1.56-20.94a33.51,33.51,0,0,0,4.88-18A36.66,36.66,0,0,0,84,97.92a11.91,11.91,0,0,1,.1,1.59l0,2.82a52.8,52.8,0,0,0,1.86,14.14l.45,1.66ZM120,182h0v24h-8V174h4Zm52-8h4v32h-8V182h0Z"/></svg>