<?xml version="1.0" encoding="utf-8"?>
<!-- Generator: Adobe Illustrator 24.0.3, SVG Export Plug-In . SVG Version: 6.00 Build 0)  -->
<svg version="1.1" id="icon_art" xmlns="http://www.w3.org/2000/svg" xmlns:xlink="http://www.w3.org/1999/xlink" x="0px" y="0px"
	 viewBox="0 0 288 288" style="enable-background:new 0 0 288 288;" xml:space="preserve">
<style type="text/css">
	.st0{fill:#FCFBFA;}
</style>
<title>RMIL_Business_Reports_Air_RGB</title>
<g>
	<path class="st0" d="M152,99v47h46l-0.3-4.1c-1.5-22.1-19.3-41.4-41.4-42.9H152z M160,109c14.8,2.8,26.4,14.4,29.2,29.2l-29.2,0
		V109z"/>
	<path class="st0" d="M147,111h-4.1c-24.9,0.1-44.9,20.3-44.9,45.1c0.1,24.9,20.3,44.9,45.1,44.9c24.9-0.1,44.9-20.3,44.9-45.1V152
		h-41V111z M105.7,155.9c0.1-19,14.4-34.9,33.3-36.9v35.1l-25.1,25.1C108.6,172.5,105.7,164.3,105.7,155.9z M179.8,159.9
		c-0.8,7.1-3.5,13.7-8,19.2l-19.2-19.2H179.8z M166.1,184.8c-13.6,11-33,11-46.5,0l23.3-23.3L166.1,184.8z"/>
	<rect x="94" y="66" class="st0" width="55.4" height="8"/>
	<rect x="94" y="80" class="st0" width="40" height="8"/>
	<path class="st0" d="M181.7,46H74v182h140V79.4L181.7,46z M181,56.8L203.5,80H181V56.8z M206,220H82V54h91v34h33V220z"/>
	<polygon class="st0" points="74,238 82,242 206,242 214,238 214,234 74,234 	"/>
</g>
</svg>
