<svg id="ART" xmlns="http://www.w3.org/2000/svg" viewBox="0 0 288 288"><defs><style>.cls-1{fill:#fcfbfa;}</style></defs><path class="cls-1" d="M95.57,144.65c-.27,12.79,8.54,25,20.65,29,11.42,3.83,25.45,1,33-8.81,5.55-6.85,6.81-16,6.21-24.51-9.78-.08-19.55-.05-29.31,0,0,3.48,0,7,0,10.43,5.85.16,11.7.09,17.55.21-1.47,5.06-4.84,9.77-9.95,11.6-9.86,4.34-22.44-1.33-25.54-11.68-3.75-9.9,2.38-21.86,12.51-24.74,6.27-2.21,12.74.28,18.11,3.54,2.72-2.54,5.27-5.26,7.77-8-6.1-5.11-13.94-8.24-22-7.55C108.81,114.24,95,128.85,95.57,144.65Zm78.92-13.17c0,2.91-.06,5.84-.08,8.75l-8.75.06V149q4.38,0,8.75.06c0,2.91,0,5.82.06,8.75,2.9,0,5.81,0,8.72,0,0-2.93,0-5.84.06-8.77l8.75,0v-8.72c-2.91,0-5.84,0-8.75-.06l-.06-8.75ZM212,72a4,4,0,0,1,4,4V212a4,4,0,0,1-4,4H76a4,4,0,0,1-4-4V76a4,4,0,0,1,4-4H212m0-8H76A12,12,0,0,0,64,76V212a12,12,0,0,0,12,12H212a12,12,0,0,0,12-12V76a12,12,0,0,0-12-12Z"/></svg>