<svg id="ART" xmlns="http://www.w3.org/2000/svg" viewBox="0 0 288 288"><defs><style>.cls-1{fill:#fcfbfa;}</style></defs><path class="cls-1" d="M183,95H105V225.5L98,229v4h93v-4l-8-4ZM113,225V103h62V225Zm6-116h50v8H119Zm44,14H125v7h-6v8h6v7h38v-7h6v-8h-6Zm-8,14H133v-6h22Zm8,46H125v7h-6v8h6v7h38v-7h6v-8h-6Zm-8,14H133v-6h22Zm-36-20h50V151H119Zm8-18h34v10H127Zm-8,52h50v8H119Zm113-66.1-1.14,2.1H189v-8h37a34.08,34.08,0,0,0-12.86-42.77,33.74,33.74,0,0,0-10.76-4.43,21.73,21.73,0,0,1-14.83-11.53,33,33,0,0,0-53.72-7.71,21,21,0,0,1-17.48,6.55A25,25,0,0,0,89.46,99.2a21.48,21.48,0,0,1-11.18,14.91A35.8,35.8,0,0,0,59.68,139H99v8H50.81l.32-4.3A43.76,43.76,0,0,1,74.56,107a13.54,13.54,0,0,0,7-9.37,33,33,0,0,1,35.48-26.52,13,13,0,0,0,10.86-4,41,41,0,0,1,66.74,9.58,13.75,13.75,0,0,0,9.39,7.3A42,42,0,0,1,232,144.9Z"/></svg>