<svg id="ART" xmlns="http://www.w3.org/2000/svg" viewBox="0 0 288 288"><defs><style>.cls-1{fill:#312d2a;}</style></defs><path class="cls-1" d="M245.69,138.33,226,158.08l-20.33-19.17,5.49-5.82,10.73,10.12a78,78,0,0,0-150.21-28.7l-7.41-3a86,86,0,0,1,165.62,31.38l10.2-10.2ZM144,222a78.08,78.08,0,0,1-78-77.21l10.74,10.12,5.48-5.82L61.92,129.92,42.17,149.67l5.66,5.66L58,145.13a86,86,0,0,0,165.61,31.38l-7.41-3A77.73,77.73,0,0,1,144,222Zm21.63-89.57-10.13,7.86A12.12,12.12,0,0,1,156,143a11.93,11.93,0,0,1-2.85,8.79,12.07,12.07,0,1,1-2.48-17.86l10-7.79Zm-17.57,11.18a4.06,4.06,0,0,0-1.42-2.78h0a4.07,4.07,0,1,0,.46,5.74A4.09,4.09,0,0,0,148.06,143.61ZM165,194h0l8-4v-4H115v4l8,4h42Zm16.56-14H106.44l-1.19-1.33a52,52,0,1,1,77.5,0Zm-3.63-8a43.77,43.77,0,0,0,6.5-10.66L174.15,158l2.47-7.61,10.29,3.34a43.78,43.78,0,0,0,0-19.46l-10.28,3.34L174.15,130l10.28-3.34A44.18,44.18,0,0,0,173,110.93l-6.34,8.73-6.47-4.7,6.35-8.75a43.75,43.75,0,0,0-18.51-6V111h-8V100.19a43.75,43.75,0,0,0-18.51,6l6.35,8.75-6.47,4.7L115,110.93a44.18,44.18,0,0,0-11.46,15.73L113.85,130l-2.47,7.61-10.28-3.34a43.82,43.82,0,0,0,0,19.47l10.29-3.35,2.47,7.61-10.28,3.34a43.77,43.77,0,0,0,6.5,10.66Z"/></svg>