<svg id="ART" xmlns="http://www.w3.org/2000/svg" viewBox="0 0 288 288"><defs><style>.cls-1{fill:#fcfbfa;}</style></defs><path class="cls-1" d="M243,180h-8v-8a25.79,25.79,0,0,0-20.61-25.38,32.85,32.85,0,0,0,6.14-7.92l.8-1.39L210,91.93,210,92c-2.61-8.1-9.87-14-18.42-14H180.41c-9.59,0-17.56,7.36-19.15,17l-10.53,42.31.8,1.39a32.75,32.75,0,0,0,6.15,7.93,26.21,26.21,0,0,0-18.33,14.57,26.79,26.79,0,0,0-6.63-1.88,33.71,33.71,0,0,0,5.81-7.62l.8-1.39L128,104.93l-.07,0c-2.61-8.1-9.87-14-18.42-14H98.41c-9.59,0-17.56,7.36-19.15,17L68.73,150.31l.8,1.39a33.59,33.59,0,0,0,5.79,7.61A25.84,25.84,0,0,0,53.48,180H45l-8,4v4H53v29h8V185c0-10.09,8.12-18,18.49-18h9.76a15.12,15.12,0,0,0,29.5,0h9.76c10.37,0,18.49,7.91,18.49,18v32h8V188h96v-4ZM169,106.52A23.17,23.17,0,0,0,186,102.08a22.87,22.87,0,0,0,17,4.44v6.1c0,10.2-7.64,18.49-17,18.49s-17-8.29-17-18.49ZM179,138.06a23.64,23.64,0,0,0,14,0v13.51c0,3.27-3.35,6.24-7,6.24s-7-3-7-6.24Zm22,7.2V133.79a26.45,26.45,0,0,0,8.31-11.63l3.47,13.91A20.32,20.32,0,0,1,201,145.26ZM180.41,86h11.13c6.28,0,11.39,5.56,11.45,12.41-3.28.66-8.74.62-14.3-4.44L186,91.52,183.31,94c-5.58,5.08-11.07,5.1-14.35,4.44a12.67,12.67,0,0,1,.14-1.76l.69-2.79h0A11.52,11.52,0,0,1,180.41,86ZM162.7,122.33a26.54,26.54,0,0,0,8.3,11.5v11.41a20.3,20.3,0,0,1-11.72-9.17ZM87,125.62v-6.1a23.13,23.13,0,0,0,17-4.44,22.87,22.87,0,0,0,17,4.44v6.1c0,10.2-7.64,18.49-17,18.49S87,135.82,87,125.62ZM119,158.26V146.79a26.45,26.45,0,0,0,8.31-11.63l3.47,13.91A20.32,20.32,0,0,1,119,158.26ZM98.41,99h11.13c6.28,0,11.39,5.56,11.45,12.41-3.28.66-8.74.62-14.3-4.44L104,104.52,101.31,107c-5.58,5.08-11.07,5.1-14.35,4.44a12.67,12.67,0,0,1,.14-1.76l.69-2.79h0A11.52,11.52,0,0,1,98.41,99ZM80.7,135.33a26.54,26.54,0,0,0,8.3,11.5v11.41a20.3,20.3,0,0,1-11.72-9.17ZM104,170.79c-3.65,0-7-3-7-6.24V151.06a23.64,23.64,0,0,0,14,0v13.51C111,167.82,107.65,170.79,104,170.79Zm42.23-5.28A18.37,18.37,0,0,1,163.49,154h7.76a15.12,15.12,0,0,0,29.5,0h7.76c10.37,0,18.49,7.91,18.49,18v8H154.52A25.48,25.48,0,0,0,146.21,165.51Z"/></svg>