<svg id="ART" xmlns="http://www.w3.org/2000/svg" viewBox="0 0 288 288"><defs><style>.cls-1{fill:#312d2a;}</style></defs><path class="cls-1" d="M227,123v63h-4l-4-8V131l4-8Zm-32,8h18v47H195v7a11.29,11.29,0,0,1-11,11H85.42A10.44,10.44,0,0,1,75,185.48V152H64l-4,8H56V119h4l4,8H75v-3.48A10.44,10.44,0,0,1,85.42,113h15.69l8.61-16.4A11.44,11.44,0,0,1,120,90h13c0-4.79,4.49-9,9.61-9h30.45a9,9,0,0,1,9,9v7a9,9,0,0,1-9,9H142.61a9.67,9.67,0,0,1-9.53-8H120a3.71,3.71,0,0,0-3.16,2.25L110.14,113H195ZM141,97a1.91,1.91,0,0,0,1.61,1h30.45a1,1,0,0,0,1-1V90a1,1,0,0,0-1-1H142.61A1.89,1.89,0,0,0,141,90ZM75,144v-9H64v9Zm112-23H85.42a2.52,2.52,0,0,0-2.53,2.52v62A2.52,2.52,0,0,0,85.42,188H184a3.4,3.4,0,0,0,3-3Zm8,18v31h10V139Zm-20.48,1.05a6.53,6.53,0,1,0-6.52-6.53A6.53,6.53,0,0,0,174.52,140.05ZM142,162H89V127.12h53Zm-8-27H97v19h37Zm38,39H144v8h28Z"/></svg>