<?xml version="1.0" encoding="utf-8"?>
<!-- Generator: Adobe Illustrator 24.0.3, SVG Export Plug-In . SVG Version: 6.00 Build 0)  -->
<svg version="1.1" id="ART" xmlns="http://www.w3.org/2000/svg" xmlns:xlink="http://www.w3.org/1999/xlink" x="0px" y="0px"
	 viewBox="0 0 288 288" style="enable-background:new 0 0 288 288;" xml:space="preserve">
<style type="text/css">
	.st0{fill:#FCFBFA;}
</style>
<path class="st0" d="M140,117.2h8V145h-8V117.2z M147.9,158.8l4.2-6.8l24,14.8l-4.2,6.8L147.9,158.8z M111.9,166.8l24-14.8l4.2,6.8
	l-24,14.8L111.9,166.8z M126,252H44v-60.5c0-3.6,2.9-6.5,6.5-6.5h18.9c2.3,0,4.5,1.2,5.8,3.1l3.9,5.9h40.4c3.6,0,6.5,2.9,6.5,6.5
	L126,252z M52,244h66v-42H74.9l-6-9H52V244z M246,252h-82v-60.5c0-3.6,2.9-6.5,6.5-6.5h18.9c2.3,0,4.5,1.2,5.8,3.1l3.9,5.9h40.4
	c3.6,0,6.5,2.9,6.5,6.5V252z M172,244h66v-42h-43.1l-6-9H172V244z M185,105h-82V44.5c0-3.6,2.9-6.5,6.5-6.5h18.9
	c2.3,0,4.5,1.2,5.8,3.1l3.9,5.9h40.4c3.6,0,6.5,2.9,6.5,6.5V105z M111,97h66V55h-43.1l-6-9H111V97z"/>
</svg>
