<svg id="Icon_Art" data-name="Icon Art" xmlns="http://www.w3.org/2000/svg" viewBox="0 0 28.8 28.8">
  <defs>
    <style>
      .cls-1 {
        fill: #312d2a;
      }

      .cls-2 {
        fill: none;
        stroke: #312d2a;
        stroke-miterlimit: 10;
        stroke-width: 0.8px;
      }
    </style>
  </defs>
  <path class="cls-1" d="M13.7,18.94v-.05c-.47,0-1,.05-1.5.05h0c-3.37,0-5.37-.66-5.5-1V15.49a14.72,14.72,0,0,0,5.5.85h0c.67,0,1.48,0,2.28-.11a5.37,5.37,0,0,1,.68-.89,20.45,20.45,0,0,1-3,.2h0c-3.37,0-5.37-.66-5.5-1V12.09a14.72,14.72,0,0,0,5.5.85,14.75,14.75,0,0,0,5.5-.85v1.8a5.31,5.31,0,0,1,.8-.11v-6c0-1.42-4-1.8-6.3-1.8s-6.3.38-6.3,1.8v10.2c0,1.42,4,1.8,6.3,1.8h0c.47,0,1,0,1.57-.06A6,6,0,0,1,13.7,18.94ZM6.7,7.75c.14-.35,2.14-1,5.5-1s5.31.64,5.49,1c-.18.36-2.17,1-5.49,1s-5.36-.66-5.5-1Zm0,.94a14.72,14.72,0,0,0,5.5.85,14.75,14.75,0,0,0,5.5-.85v2.44c-.14.35-2.14,1-5.5,1s-5.37-.66-5.5-1Z"/>
  <circle class="cls-2" cx="18.9" cy="18.94" r="4.2"/>
  <polygon class="cls-1" points="17.9 17.34 17.9 20.54 20.5 18.94 17.9 17.34"/>
</svg>
