<?xml version="1.0" encoding="UTF-8"?>
<svg id="ART" xmlns="http://www.w3.org/2000/svg" viewBox="0 0 288 288">
  <defs>
    <style>
      .cls-1 {
        fill: #312d2a;
      }
    </style>
  </defs>
  <rect class="cls-1" x="166.78" y="203.95" width="8" height="8"/>
  <g>
    <rect class="cls-1" x="228.78" y="88.95" width="15" height="8"/>
    <rect class="cls-1" x="153.78" y="88.95" width="15" height="8"/>
    <rect class="cls-1" x="217.8" y="62.44" width="15" height="8" transform="translate(19.01 178.77) rotate(-45)"/>
    <rect class="cls-1" x="194.78" y="47.95" width="8" height="15"/>
    <rect class="cls-1" x="168.27" y="58.94" width="8" height="15" transform="translate(3.49 141.28) rotate(-45)"/>
    <path class="cls-1" d="M199.08,68.95c-13.17,0-24.3,10.87-24.3,23.73,0,8.34,2.74,13.22,4.94,17.14,1.71,3.04,3.06,5.44,3.06,9.13v13.01l16,8.4,16-8.4v-13.01c0-3.69,1.35-6.09,3.07-9.13,2.21-3.92,4.96-8.8,4.96-17.14,0-13.08-10.64-23.73-23.73-23.73ZM206.78,127.13l-8,4.2-8-4.2v-4.17h16v4.17ZM210.88,105.9c-1.44,2.56-3.03,5.37-3.73,9.06h-4.37v-13h-8v13h-4.37c-.7-3.69-2.28-6.5-3.71-9.05-2.01-3.59-3.92-6.97-3.92-13.22,0-7.6,6.55-15.73,16.3-15.73s15.73,8.16,15.73,15.73c0,6.24-1.91,9.63-3.93,13.21Z"/>
    <rect class="cls-1" x="194.78" y="203.95" width="8" height="8"/>
    <rect class="cls-1" x="180.78" y="203.95" width="8" height="8"/>
    <rect class="cls-1" x="194.78" y="189.95" width="8" height="8"/>
    <rect class="cls-1" x="194.78" y="175.95" width="8" height="8"/>
    <rect class="cls-1" x="194.78" y="161.95" width="8" height="8"/>
    <rect class="cls-1" x="194.78" y="147.95" width="8" height="8"/>
  </g>
  <path class="cls-1" d="M131.26,192.32l14.42-19.06-2.87-3.13-19.33,14.29-.39-.27c-13.5-9.55-31.92-8.14-43.81,3.35-13.73,13.21-14.15,35.12-.95,48.85.95.99,1.97,1.93,3.05,2.82l1.14.9h41.29l1.11-.91c14.06-11.37,16.9-31.85,6.47-46.62l-.13-.19ZM129.15,216.77c-.69,4.09-2.33,7.93-4.82,11.26l-4.72-4.72-5.78,5.78,2.83,2.83h-27.2l2.85-2.83-5.83-5.77-4.62,4.65c-2.47-3.29-4.11-7.1-4.81-11.16h6.58v-8.26h-6.53c.59-4.2,2.18-8.15,4.66-11.58l4.74,4.77,5.81-5.82-4.82-4.79c3.33-2.49,7.18-4.13,11.28-4.82v7.12h8.19v-7.19c3.34.49,6.57,1.63,9.48,3.35l-12.87,9.51c-.06,0-.12,0-.17,0-3.79,0-7.37,1.64-9.78,4.46-.52.58-.99,1.24-1.32,1.84-3.29,5.47-2.14,12.43,2.74,16.53,2.32,1.99,5.26,3.08,8.27,3.08h.16c2.16,0,4.31-.55,6.21-1.59,4.16-2.28,6.71-6.68,6.67-11.39l9.65-12.76c1.66,2.87,2.77,6.04,3.24,9.32h-7.16v8.19h7.06ZM107.74,212.14c0,2.18-1.77,3.95-3.95,3.95s-3.95-1.77-3.95-3.95,1.77-3.95,3.95-3.95,3.95,1.77,3.95,3.95Z"/>
  <path class="cls-1" d="M112.34,90.87l-4.37-3.62-17.75,48.65-21.31-20.67-2.73,3.58c-12.11,15.88-21.96,46.38-21.96,67.99,0,12.68,4.17,25.11,11.77,35.2l8.75-2.37c-.51-2.55-.79-5.16-.79-7.79,0-21.72,17.67-39.39,39.39-39.39,8.09,0,15.61,2.45,21.87,6.65l7.01-5.56c-8.04-6.08-18.04-9.7-28.88-9.7-24.29,0-44.4,18.13-47.56,41.57-2.33-5.89-3.56-12.21-3.56-18.61,0-18.2,7.88-44.15,17.73-59.43l23.57,22.85,17.98-49.27c15.11,15.1,41.86,52.59,41.86,85.84,0,5.66-.96,11.24-2.79,16.52-1.33-7.41-4.38-14.23-8.7-20.04l-5.56,7.05c4.05,6.19,6.42,13.58,6.42,21.51,0,1.75-.55,5.45-1.2,7.99l8.29,2.25c.05-.2.11-.4.16-.6,7.35-10.01,11.38-22.19,11.38-34.67,0-38.57-32.45-82.19-49-95.93Z"/>
</svg>