<?xml version="1.0" encoding="UTF-8"?>
<svg id="ART" xmlns="http://www.w3.org/2000/svg" version="1.1" viewBox="0 0 288 288">
  <!-- Generator: Adobe Illustrator 29.5.1, SVG Export Plug-In . SVG Version: 2.1.0 Build 141)  -->
  <defs>
    <style>
      .st0 {
        fill: #fcfbfa;
      }
    </style>
  </defs>
  <polygon class="st0" points="122.07 176.97 127.73 182.62 139.99 170.36 139.99 219.98 147.99 219.98 147.99 170.36 160.25 182.62 165.91 176.97 143.99 155.05 122.07 176.97"/>
  <polygon class="st0" points="165.91 111.04 160.25 105.39 147.99 117.65 147.99 68 139.99 68 139.99 117.65 127.73 105.39 122.07 111.04 143.99 132.96 165.91 111.04"/>
  <polygon class="st0" points="198.44 122.08 192.78 127.74 205.04 140 158 140 158 148 205.05 148 192.78 160.27 198.44 165.92 220.36 144 198.44 122.08"/>
  <polygon class="st0" points="129.98 147.99 129.98 139.99 82.95 139.99 95.2 127.74 89.54 122.08 67.62 144 89.54 165.92 95.2 160.27 82.92 147.99 129.98 147.99"/>
  <path class="st0" d="M211.88,76.12c-18.13-18.13-42.24-28.12-67.88-28.12s-49.75,9.99-67.88,28.12c-18.13,18.13-28.12,42.24-28.12,67.88s9.99,49.75,28.12,67.88c18.13,18.13,42.24,28.12,67.88,28.12s49.75-9.99,67.88-28.12c18.13-18.13,28.12-42.24,28.12-67.88s-9.99-49.75-28.12-67.88ZM206.23,206.23c-16.62,16.62-38.72,25.77-62.23,25.77s-45.6-9.15-62.23-25.77c-16.62-16.62-25.77-38.72-25.77-62.23s9.15-45.6,25.77-62.23c16.62-16.62,38.72-25.77,62.23-25.77s45.6,9.15,62.23,25.77c16.62,16.62,25.77,38.72,25.77,62.23s-9.15,45.6-25.77,62.23Z"/>
</svg>