<?xml version="1.0" encoding="utf-8"?>
<!-- Generator: Adobe Illustrator 27.1.0, SVG Export Plug-In . SVG Version: 6.00 Build 0)  -->
<svg version="1.1" id="Layer_1" xmlns="http://www.w3.org/2000/svg" xmlns:xlink="http://www.w3.org/1999/xlink" x="0px" y="0px"
	 viewBox="0 0 288 288" style="enable-background:new 0 0 288 288;" xml:space="preserve">
<style type="text/css">
	.st0{display:none;}
	.st1{display:inline;}
	.st2{fill:#56A6DA;}
	.st3{display:inline;fill:none;stroke:#56A6DA;stroke-width:0.25;stroke-miterlimit:10;}
	.st4{fill:#FCFBFA;}
</style>
<g id="GUIDES" class="st0">
	<g class="st1">
		<path class="st2" d="M144,96.3c26.3,0,47.8,21.4,47.8,47.7s-21.4,47.7-47.8,47.7S96.2,170.3,96.2,144S117.7,96.3,144,96.3
			 M144,96.1c-26.5,0-48,21.5-48,47.9c0,26.5,21.5,47.9,48,47.9s48-21.5,48-47.9C192,117.5,170.5,96.1,144,96.1L144,96.1z"/>
	</g>
	<line class="st3" x1="96" y1="0" x2="96" y2="288"/>
	<line class="st3" x1="192" y1="0" x2="192" y2="288"/>
	<line class="st3" x1="0" y1="192" x2="288" y2="192"/>
	<line class="st3" x1="0" y1="96" x2="288" y2="96"/>
	<g class="st1">
		<path class="st2" d="M144,12.4c35.2,0,68.3,13.7,93.2,38.6s38.6,58,38.6,93.2s-13.7,68.3-38.6,93.2S179.2,276,144,276
			s-68.3-13.7-93.2-38.6s-38.6-58-38.6-93.2C12.2,109,26,75.9,50.8,51C75.7,26.1,108.8,12.4,144,12.4 M144,12.1
			c-72.9,0-132,59.1-132,132s59.1,132,132,132s132-59.1,132-132S216.9,12.1,144,12.1L144,12.1z"/>
	</g>
	<g class="st1">
		<path class="st2" d="M240,12.2c6.5,0,11.8,5.3,11.8,11.8v240c0,6.5-5.3,11.8-11.8,11.8H48c-6.5,0-11.8-5.3-11.8-11.8V24
			c0-6.5,5.3-11.8,11.8-11.8H240 M240,12H48c-6.6,0-12,5.4-12,12v240c0,6.6,5.4,12,12,12h192c6.6,0,12-5.4,12-12V24
			C252,17.4,246.6,12,240,12L240,12z"/>
	</g>
	<g class="st1">
		<path class="st2" d="M264,36.2c6.5,0,11.8,5.3,11.8,11.8v192c0,6.5-5.3,11.8-11.8,11.8H24c-6.5,0-11.8-5.3-11.8-11.8V48
			c0-6.5,5.3-11.8,11.8-11.8H264 M264,36H24c-6.6,0-12,5.4-12,12v192c0,6.6,5.4,12,12,12h240c6.6,0,12-5.4,12-12V48
			C276,41.4,270.6,36,264,36L264,36z"/>
	</g>
	<g class="st1">
		<path class="st2" d="M247.8,24.2c8.8,0,16,7.2,16,16v207.6c0,8.8-7.2,16-16,16H40.2c-8.8,0-16-7.2-16-16V40.2c0-8.8,7.2-16,16-16
			H247.8 M247.8,24H40.2C31.3,24,24,31.3,24,40.2v207.6c0,8.9,7.3,16.2,16.2,16.2h207.6c8.9,0,16.2-7.3,16.2-16.2V40.2
			C264,31.3,256.7,24,247.8,24L247.8,24z"/>
	</g>
</g>
<g id="ART">
	<g>
		<path class="st4" d="M222.8,62.2c-29.7-29.7-77.9-29.7-107.6,0C100.8,76.6,92.9,95.7,92.9,116c0,15.3,4.5,29.9,12.8,42.3
			l-20.5,15.4c-6,4.5-11.8,9.5-17.1,14.9L51.7,205L80,233.3l16.4-16.4c5.3-5.3,10.3-11.1,14.9-17.1l15.4-20.5
			c12.8,8.5,27.5,12.8,42.3,12.8c19.5,0,39-7.4,53.8-22.2c14.4-14.4,22.3-33.5,22.3-53.8C245.1,95.7,237.1,76.6,222.8,62.2z
			 M104.9,194.9c-4.3,5.7-9.1,11.2-14.1,16.3L80,222l-17-17l10.8-10.8c5.1-5.1,10.6-9.8,16.3-14.1l20.5-15.4c1.5,1.7,3,3.4,4.6,5.1
			c1.6,1.6,3.3,3.2,5.1,4.6L104.9,194.9z M217.1,164.2c-13.3,13.3-30.7,19.9-48.1,19.9s-34.9-6.6-48.1-19.9
			c-12.9-12.9-19.9-30-19.9-48.1c0-18.2,7.1-35.3,19.9-48.1c12.8-13,29.9-20,48.1-20s35.3,7.1,48.1,19.9C230,80.8,237,97.9,237,116
			C237.1,134.2,230,151.3,217.1,164.2z"/>
		<polygon class="st4" points="47.4,209.3 44.6,212.1 47.4,220.6 64.4,237.6 72.9,240.4 75.7,237.6 		"/>
		<path class="st4" d="M169,70c-2.2,0-4,1.8-4,4v92c0,2.2,1.8,4,4,4s4-1.8,4-4V74C173,71.8,171.2,70,169,70z"/>
		<path class="st4" d="M211.5,77.9c-1.2-1.9-3.7-2.4-5.5-1.2c-7.8,4.9-18,10.4-27,12v8.1c8.8-1.3,19.3-5.7,31.3-13.4
			C212.2,82.2,212.7,79.7,211.5,77.9z"/>
		<path class="st4" d="M220.9,96.5c-1-2-3.3-2.8-5.2-1.8c-11.8,6-24.1,9.7-36.7,10.9v8c13.8-1.2,27.3-5.2,40.2-11.8
			C221.1,100.9,221.9,98.5,220.9,96.5z"/>
		<path class="st4" d="M221.4,117.2c-0.8-2.1-3.2-3.1-5.3-2.3c-16.6,6.1-29.2,7.4-37.1,7.4v8c8.5-0.1,22.2-1.4,40-7.9
			C221.2,121.6,222.2,119.3,221.4,117.2z"/>
		<path class="st4" d="M125.9,83.3c13.6,9.1,25.1,12.3,33.1,13.3v-8.1c-6.9-1-16.8-4-28.6-11.9c-1.8-1.2-4.3-0.7-5.5,1.1
			C123.6,79.6,124.1,82.1,125.9,83.3z"/>
		<path class="st4" d="M117.4,101.8c8.6,4.8,22.5,10.4,41.6,11.9v-8c-17.4-1.5-30-6.6-37.9-10.9c-1.9-1-4.2-0.3-5.2,1.6
			C114.8,98.3,115.6,100.8,117.4,101.8z"/>
		<path class="st4" d="M159,122.3c-7.9-0.1-20.4-1.3-36.9-7.4c-2.1-0.8-4.5,0.3-5.3,2.3c-0.8,2.1,0.3,4.4,2.4,5.2
			c17.7,6.5,31.3,7.9,39.8,7.9V122.3z"/>
		<path class="st4" d="M212.9,136.2c-11.5,3.5-25,4.5-33.9,4.8v8c9.3-0.3,23.6-1.4,36.1-5.2c2.1-0.6,3.3-2.9,2.7-5
			S215,135.5,212.9,136.2z"/>
		<path class="st4" d="M120.2,138.9c-0.6,2.1,0.6,4.3,2.7,5c12.6,3.8,26.8,4.9,36.2,5.2v-8c-8.9-0.3-22.3-1.3-33.9-4.8
			C123,135.5,120.8,136.7,120.2,138.9z"/>
	</g>
</g>
</svg>
