<svg id="ART" xmlns="http://www.w3.org/2000/svg" viewBox="0 0 288 288"><defs><style>.cls-1{fill:#fcfbfa;}</style></defs><path class="cls-1" d="M193,184a5,5,0,0,1,5,5v10H188V189A5,5,0,0,1,193,184ZM90,189v10h10V189a5,5,0,0,0-10,0Zm150,39v-4l-8-4H56l-8,4v4ZM54,214v-4l8-4V169l-8-4v-4H92v4l-8,4v37h22V169l-8-4v-4h38v4l-8,4v37h6V192a10,10,0,0,1,20,0v14h6V169l-8-4v-4h38v4l-8,4v37h22V169l-8-4v-4h38v4l-8,4v37l8,4v4Zm158-8h6V169h-6Zm-44,0h6V169h-6Zm-26,0h4V192a2,2,0,0,0-4,0Zm-28,0h6V169h-6Zm-44,0h6V169H70ZM54,155V133H90.59L105,130V106l-8-4V98h11.13A36.06,36.06,0,0,1,140,65.23V41h22V54H148V65.23A36.06,36.06,0,0,1,179.87,98H191v4l-8,4v24l14.41,3H234v22Zm172-14H201v6h25Zm-51-35h-6v21.1l6,1.25Zm-48,0v19.44l6-1.24V106Zm14,16.54,3-.62,3,.62V106h-6Zm14,1.66,6,1.24V106h-6ZM116.16,98h55.68a28,28,0,0,0-55.68,0ZM113,128.35l6-1.25V106h-6ZM95,147h98v-6.75l-49-10.17L95,140.25Zm-8,0v-6H62v6Zm151,87H50l-8,4v4H246v-4Z"/></svg>