<svg id="ART" xmlns="http://www.w3.org/2000/svg" viewBox="0 0 288 288"><defs><style>.cls-1{fill:#312d2a;}</style></defs><path class="cls-1" d="M243,180H233V170c0-14.89-11.88-27-26.49-27H200V133a26.9,26.9,0,0,0,8-19V75H173c-11.84,0-18.93,7.78-19,20.82h0v18.52a26.34,26.34,0,0,0,7.94,18.83V143h-7.45a26.43,26.43,0,0,0-23.14,14H131V147a26.9,26.9,0,0,0,8-19V89H104c-11.84,0-18.93,7.78-19,20.82h0v18.52a26.34,26.34,0,0,0,7.94,18.83V157H81.49a26.7,26.7,0,0,0-26.2,23H45l-8,4v4H55v28h8V184c0-10.3,8.47-19,18.49-19H94.72l17.16,18.22L129.05,165h12.46c10,0,18.49,8.7,18.49,19v32h8V188h83v-4ZM173,83h26.74c-1.3,9-7.06,9-9.11,9H162.32C163.35,86.06,166.93,83,173,83Zm17.63,17A16.94,16.94,0,0,0,200,97.47v16.58a19.22,19.22,0,0,1-19,19,18.85,18.85,0,0,1-19-18.63V100ZM181,141A26.26,26.26,0,0,0,192,138.6v7.19l-11.09,11.76-10.94-11.62v-7.27A27.14,27.14,0,0,0,181,141ZM104,97h27c-1.3,9-7.32,9-9.37,9H93.32C94.35,100.06,97.93,97,104,97Zm17.63,17a16.94,16.94,0,0,0,9.37-2.57v16.58a19.22,19.22,0,0,1-19,19,18.85,18.85,0,0,1-19-18.63V114Zm-9.75,57.51-10.94-11.62v-7.27A27.14,27.14,0,0,0,112,155,26.26,26.26,0,0,0,123,152.6v7.19ZM167.71,180a26.7,26.7,0,0,0-26.2-23h-.41a18.17,18.17,0,0,1,13.39-6h9.23l17.16,18.22L198.05,151h8.46c10,0,18.49,8.7,18.49,19v10Z"/></svg>