<?xml version="1.0" encoding="utf-8"?>
<!-- Generator: Adobe Illustrator 24.0.3, SVG Export Plug-In . SVG Version: 6.00 Build 0)  -->
<svg version="1.1" id="ART" xmlns="http://www.w3.org/2000/svg" xmlns:xlink="http://www.w3.org/1999/xlink" x="0px" y="0px"
	 viewBox="0 0 288 288" style="enable-background:new 0 0 288 288;" xml:space="preserve">
<style type="text/css">
	.st0{fill:#FCFBFA;}
</style>
<path class="st0" d="M221,95h-8v9h-9v8h9v9h8v-9h9v-8h-9V95z M176,159h20v8h-20V159z M176,187h29v8h-29V187z M176,173h35v8h-35V173z
	 M51,71.1c0-0.6,0.5-1.1,1.1-1.1h39.2c0.3,0,0.7,0.2,0.9,0.4L102.8,84h81c2.2-3,4.7-5.7,7.6-8h-84.7l-8.2-10.5
	c-1.7-2.2-4.4-3.5-7.2-3.5H52.1c-5,0-9.1,4.1-9.1,9.1V190h18v-8H51V71.1z M225,148.2V213H75V108h101c0-1.3,0.1-2.7,0.2-4
	s0.3-2.7,0.6-4H67v121h166v-75.3c-1.3,0.6-2.6,1.1-4,1.5C227.7,147.6,226.4,148,225,148.2z M217,73c-19.3,0-35,15.7-35,35
	s15.7,35,35,35s35-15.7,35-35S236.3,73,217,73z M217,135c-14.9,0-27-12.1-27-27s12.1-27,27-27s27,12.1,27,27S231.9,135,217,135z
	 M81,207h89v-93H81V207z M162,199H89v-3.6c0-6.6,6-12.4,13-12.4h11.3l12.4,13.4l12.2-13.5H150c6.7,0.1,12.1,5.7,12,12.4V199z
	 M132,146c2.1,0,4.1-0.4,6-1.2v10.4c0,6.8-5.5,12.4-12.4,12.6c-7,0-12.6-5.3-12.6-11.8v-10H132z M113.6,138c1.4-4,4.9-4,6.4-4h17.6
	c-0.6,2.5-3,4.2-5.6,4H113.6z M119,174.7c2.1,0.7,4.4,1.1,6.6,1.1c2.2,0,4.3-0.4,6.4-1.1v2.8l-6.4,7.1l-6.6-7.2V174.7z M162,122
	v57.1c-3.4-2.7-7.7-4.1-12-4.1h-10v-5.4c3.8-3.8,6-9,6-14.4V126h-26c-9.2,0-15,6.1-15,16v14c0,5.3,2.2,10.3,6,14v5h-9
	c-4.7,0-9.3,1.6-13,4.5V122H162z"/>
</svg>
