<?xml version="1.0" encoding="utf-8"?>
<!-- Generator: Adobe Illustrator 24.0.3, SVG Export Plug-In . SVG Version: 6.00 Build 0)  -->
<svg version="1.1" id="ART" xmlns="http://www.w3.org/2000/svg" xmlns:xlink="http://www.w3.org/1999/xlink" x="0px" y="0px"
	 viewBox="0 0 288 288" style="enable-background:new 0 0 288 288;" xml:space="preserve">
<style type="text/css">
	.st0{fill:#312D2A;}
</style>
<path class="st0" d="M233,72H55c-7.7,0-14,6.3-14,14v116c0,7.7,6.3,14,14,14h178c7.7,0,14-6.3,14-14V86C247,78.3,240.7,72,233,72z
	 M239,202c0,3.3-2.7,6-6,6H55c-3.3,0-6-2.7-6-6V86c0-3.3,2.7-6,6-6h178c3.3,0,6,2.7,6,6V202z M55,202h164V86H55V202z M211,94v100H63
	v-14.3l38-38l34,34l56-56V140h8v-34h-34v8h20.3L135,164.3l-34-34l-38,38V94H211z M225,132h8v24h-8V132z"/>
</svg>
