<svg id="ART" xmlns="http://www.w3.org/2000/svg" viewBox="0 0 288 288"><defs><style>.cls-1{fill:#312d2a;}</style></defs><path class="cls-1" d="M244,231V133H217v-6h8v-4l-8-4H179V93.34l-31-31V50h14V37H140V62.34l-31,31V119H71l-8,4v4h8v6H44v98l-8,4v4H252v-4ZM209,127v6H179v-6ZM79,127h30v6H79ZM52,231V141h57v90Zm105-21H131V169a13,13,0,0,1,26,0Zm-26,8h9v13h-9Zm17,13V218h9v13Zm17,0V169a21,21,0,0,0-42,0v62h-6V96.66l27-27,27,27V231Zm14-90h57v90H179ZM144,92a14,14,0,1,0,14,14A14,14,0,0,0,144,92Zm0,20a6,6,0,1,1,6-6A6,6,0,0,1,144,112ZM58,217H69v8H58Zm17,0H86v8H75Zm17,0h11v8H92ZM58,203H69v8H58Zm17,0H86v8H75Zm17,0h11v8H92ZM58,189H69v8H58Zm17,0H86v8H75Zm17,0h11v8H92ZM58,175H69v8H58Zm17,0H86v8H75Zm17,0h11v8H92ZM58,161H69v8H58Zm17,0H86v8H75Zm17,0h11v8H92ZM58,147H69v8H58Zm17,0H86v8H75Zm28,0v8H92v-8Zm82,70h11v8H185Zm17,0h11v8H202Zm17,0h11v8H219Zm-34-14h11v8H185Zm17,0h11v8H202Zm17,0h11v8H219Zm-34-14h11v8H185Zm17,0h11v8H202Zm17,0h11v8H219Zm-34-14h11v8H185Zm17,0h11v8H202Zm17,0h11v8H219Zm-34-14h11v8H185Zm17,0h11v8H202Zm17,0h11v8H219Zm-34-14h11v8H185Zm17,0h11v8H202Zm28,0v8H219v-8Z"/></svg>