<svg id="ART" xmlns="http://www.w3.org/2000/svg" viewBox="0 0 288 288"><defs><style>.cls-1{fill:#312d2a;}</style></defs><path class="cls-1" d="M199.05,62H89A11,11,0,0,0,78,73v61a11,11,0,0,0,11,11h40l1.08-8H101V70h98.05A3,3,0,0,1,202,73v61a3,3,0,0,1-3,3H167l1,8h31.05A11,11,0,0,0,210,134V73A11,11,0,0,0,199.05,62ZM93,137H89a3,3,0,0,1-3-3V73a3,3,0,0,1,3-3h4Z"/><path class="cls-1" d="M192.8,166.08l-.29-.14-29-12.33-5.4-44a9.91,9.91,0,0,0-19.76-.72L132.81,169l-4.34,4.19a94.07,94.07,0,0,0-14.57-13.05c-14.45-10.55-25.1,2.2-25.21,2.33a4,4,0,0,0-.21,4.77l38.43,56.69A9.26,9.26,0,0,0,134.4,228l41,0h0a9,9,0,0,0,8.34-5.63l16-39.69a3,3,0,0,0,.17-.5,15.36,15.36,0,0,0,.37-2A14.09,14.09,0,0,0,192.8,166.08Zm-.44,13.22c0,.19-.06.39-.11.63l-15.92,39.41a1,1,0,0,1-.94.63h0l-41,0a1.28,1.28,0,0,1-.88-.57L97.05,165.62c2.44-1.64,6.68-3,12.13,1,10.56,7.72,15.65,14.72,15.69,14.79a4,4,0,0,0,6,.56l8.52-8.23a4,4,0,0,0,1.21-2.51l5.67-61.47a1.9,1.9,0,0,1,.7-1.28,1.91,1.91,0,0,1,3.11,1.48,3.87,3.87,0,0,0,0,.48l5.71,46.46a4,4,0,0,0,2.4,3.2l31,13.16A6.15,6.15,0,0,1,192.36,179.3Z"/></svg>