<svg id="Icon_art" data-name="Icon art" xmlns="http://www.w3.org/2000/svg" viewBox="0 0 288 288">
  <defs>
    <style>
      .cls-1 {
        fill: #312d2a;
      }
    </style>
  </defs>
  <g id="Autonomous_Data_Warehouse" data-name="Autonomous Data Warehouse">
    <g>
      <path class="cls-1" d="M208.67,144.1c-.53.07-1,.14-1.59.19l-.6.05h-.2l-.24,0-1.06.08c-.66,0-1.28,0-1.74,0h-.6c-.52,0-1.07,0-1.64-.05V219h-8V155H149v64h-8V155H97v64H89V114h0a119.55,119.55,0,0,1,53-14l0,0,4.88-4.88,3.05-3c-23.88-1-47.9,4.95-70.16,18l-.1.06h0l-6.9,4,2,3.45,6.34-.41V219H76l-8,4v4H224v-4l-8-4h-7V144.06l-.23,0ZM81.93,114h-.05l-1.63-2.79ZM185,199H157V186h28Zm0-36v15H157V163Zm-28,44h28v12H157Zm-24-8H105V186h28Zm0-36v15H105V163Zm-28,44h28v12H105Z"/>
      <path class="cls-1" d="M141,118H97v30h44Zm-8,22H105V126h28Z"/>
      <path class="cls-1" d="M149,148h44v-4.67a42.46,42.46,0,0,1-9.26-3.33H157V126h10.52c-.29-.42-.57-.84-.85-1.27l-.29-.45,0,0,0,0a44.49,44.49,0,0,1-3.19-6.22H149Z"/>
      <path class="cls-1" d="M217.77,119,206.56,80h-8L187.3,119h8.54l1.83-8h9.46l1.83,8ZM202.43,89.58,205.71,104h-6.62Z"/>
      <path class="cls-1" d="M169.59,114.16l16.82-16.83-5.65-5.66-6.56,6.56c1.47-12.91,11.19-23.74,24.25-25.77A29.06,29.06,0,0,1,228.56,87.4l5.85-5.85A37.05,37.05,0,0,0,197.8,64.47c-17.57,2.45-30.6,17.35-31.71,34.87l-7.68-7.67-5.65,5.66Z"/>
      <path class="cls-1" d="M246.76,111.33l5.65-5.66L235.59,88.84l-16.83,16.83,5.65,5.66,7.43-7.43c-1.31,13.08-11.1,24.11-24.29,26.16a29,29,0,0,1-30.11-14.94L171.59,121a37.08,37.08,0,0,0,36.61,17.09c17.16-2.4,30-16.67,31.62-33.67Z"/>
    </g>
  </g>
</svg>
