<?xml version="1.0" encoding="utf-8"?>
<!-- Generator: Adobe Illustrator 27.1.0, SVG Export Plug-In . SVG Version: 6.00 Build 0)  -->
<svg version="1.1" id="ART" xmlns="http://www.w3.org/2000/svg" xmlns:xlink="http://www.w3.org/1999/xlink" x="0px" y="0px"
	 viewBox="0 0 288 288" style="enable-background:new 0 0 288 288;" xml:space="preserve">
<style type="text/css">
	.st0{fill:#312D2A;}
</style>
<path class="st0" d="M206.9,146.8c-7,0-13.2,3.4-17,8.7l-14.7-6.9c0.7-2.3,1.1-4.8,1.1-7.3c0-7.8-3.5-14.8-8.9-19.5l17.7-28.2
	c1.4,0.4,2.8,0.6,4.2,0.6c8.2,0,14.9-6.7,14.9-14.9s-6.7-14.9-14.9-14.9s-14.9,6.7-14.9,14.9c0,3.9,1.5,7.4,3.9,10.1l-17.7,28.2
	c-3.1-1.3-6.6-2.1-10.2-2.1c-7.4,0-14,3.1-18.7,8l-22.1-15.4c0.9-2.2,1.4-4.6,1.4-7.1c0-10.2-8.3-18.6-18.6-18.6S73.8,90.7,73.8,101
	s8.3,18.6,18.6,18.6c4.9,0,9.3-1.9,12.6-5l22.2,15.4c-1.7,3.4-2.6,7.3-2.6,11.3c0,3.1,0.5,6,1.5,8.7l-33.3,18.1
	c-3.4-3.9-8.4-6.4-14-6.4c-10.2,0-18.6,8.3-18.6,18.6s8.3,18.6,18.6,18.6s18.6-8.3,18.6-18.6c0-1.8-0.3-3.5-0.8-5.2l33.3-18.1
	c3.5,4.5,8.4,7.9,14.2,9.4l-2.6,27.9c-7,1.3-12.3,7.4-12.3,14.7c0,8.2,6.7,14.9,14.9,14.9S159,217.2,159,209c0-6.4-4-11.8-9.6-13.9
	l2.6-27.9c8.2-0.5,15.4-4.9,19.8-11.3l14.7,6.9c-0.4,1.7-0.7,3.4-0.7,5.2c0,11.7,9.5,21.1,21.1,21.1S228,179.6,228,168
	S218.5,146.8,206.9,146.8L206.9,146.8z M189.1,72.2c3.8,0,6.9,3.1,6.9,6.9s-3.1,6.9-6.9,6.9s-6.9-3.1-6.9-6.9S185.3,72.2,189.1,72.2
	z M92.2,111.5c-5.8,0-10.6-4.8-10.6-10.6s4.8-10.6,10.6-10.6s10.6,4.8,10.6,10.6S98.1,111.5,92.2,111.5z M78.6,190.9
	c-5.8,0-10.6-4.8-10.6-10.6s4.8-10.6,10.6-10.6s10.6,4.8,10.6,10.6S84.4,190.9,78.6,190.9z M143.9,215.8c-3.8,0-6.9-3.1-6.9-6.9
	s3.1-6.9,6.9-6.9s6.9,3.1,6.9,6.9S147.8,215.8,143.9,215.8z M150.2,159.1c-9.9,0-17.9-8-17.9-17.9s8-17.9,17.9-17.9
	s17.9,8,17.9,17.9S160.1,159.1,150.2,159.1z M206.9,181c-7.2,0-13.1-5.9-13.1-13.1s5.9-13.1,13.1-13.1s13.1,5.9,13.1,13.1
	S214.1,181,206.9,181z"/>
</svg>
