<svg id="ART" xmlns="http://www.w3.org/2000/svg" viewBox="0 0 288 288"><defs><style>.cls-1{fill:#fcfbfa;}</style></defs><path class="cls-1" d="M218,229h0V147H186.62l-29.41-28.52A14.49,14.49,0,0,0,149,97.72V93h7.31l6.88-34.38L157.71,45H132.29l-5.45,13.62L133.72,93H141v12h3.53a6.5,6.5,0,0,1,0,13c-3.58,0-6.5-3.42-6.5-7h-8c0,8,6.5,15,14.5,15a14.46,14.46,0,0,0,7.07-1.85L175.13,147H115.87l18.35-17.79a20.56,20.56,0,0,1-6-5.32L104.38,147H70v82h0l-8,4v4H226v-4ZM135.16,59.38,137.71,53h14.58l2.55,6.38L149.72,85h-9.44ZM78,155H210v74H78Zm12,6h8v62H90Zm20,0h8v62h-8Zm20,0h8v62h-8Zm20,0h8v62h-8Zm20,0h8v62h-8Zm28,0v62h-8V161Z"/></svg>