<svg id="ART" xmlns="http://www.w3.org/2000/svg" viewBox="0 0 288 288"><defs><style>.cls-1{fill:#312d2a;}</style></defs><path class="cls-1" d="M142.05,146H136V113.47L172,95h5l8-4V87H175V81h-7.95v6H136V75h41.05l8-4V67H175V59h-7.95v8H136V59h-7.95v8H97V59h-8v8H79v4l8,4h41V87H97V81h-8v6H79v4l8,4H93.9l34.15,18.39V232H136V154h6.05v11H164V135H142.05Zm12.43-51L136,104.48V95Zm-43.71,0h17.28v9.3ZM150,143h6.05v14H150ZM205,150a44.7,44.7,0,0,1-13.19,31.81l-5.66-5.66a36.94,36.94,0,0,0,0-52.3l5.66-5.66A44.7,44.7,0,0,1,205,150Zm-14,0a30.77,30.77,0,0,1-9.08,21.92l-5.65-5.66a23,23,0,0,0,0-32.52l5.65-5.66A30.77,30.77,0,0,1,191,150Z"/></svg>