<svg id="ART" xmlns="http://www.w3.org/2000/svg" viewBox="0 0 288 288"><defs><style>.cls-1{fill:#312d2a;}</style></defs><path class="cls-1" d="M233,144a88.94,88.94,0,0,0-10-41l.09,0-2-3.47-2-3.46-.08,0a89.39,89.39,0,0,0-71-41V55h-8v.1a89.39,89.39,0,0,0-71,41l-.08,0-2,3.46-2,3.47.09,0a88.81,88.81,0,0,0,0,82l-.09.05,2,3.47,2,3.46.08-.05a89.39,89.39,0,0,0,71,41v.1h8v-.1a89.39,89.39,0,0,0,71-41l.08.05,2-3.46,2-3.47L223,185A88.94,88.94,0,0,0,233,144ZM148,63.1a81.35,81.35,0,0,1,64.05,37l-4.57,2.64-.66.38a75.33,75.33,0,0,0-58.82-34Zm-8,0v6a75.33,75.33,0,0,0-58.82,34l-.66-.38L76,100.09A81.35,81.35,0,0,1,140,63.1ZM63,144a81,81,0,0,1,8.94-37l5.23,3a74.71,74.71,0,0,0,0,67.94l-5.23,3A81,81,0,0,1,63,144Zm77,80.9a81.35,81.35,0,0,1-64-37l4.57-2.64.66-.38a75.33,75.33,0,0,0,58.82,34Zm4-13.9a67.08,67.08,0,1,1,58-33.52A67.31,67.31,0,0,1,144,211Zm4,13.9v-6a75.33,75.33,0,0,0,58.82-34l.66.38,4.57,2.64A81.35,81.35,0,0,1,148,224.9ZM216.06,181l-5.23-3a74.71,74.71,0,0,0,0-67.94l5.23-3a81,81,0,0,1,0,74ZM144,95.9l-37,37a23.9,23.9,0,0,0,24.38,39.6L131,190h26l-.39-17.5A24,24,0,0,0,181,166.72a23.9,23.9,0,0,0,0-33.82Zm31.34,65.17a16,16,0,0,1-20.73,1.51l-6.85-5.09,1.33,23.95H138.91l1.33-23.95-6.85,5.09a15.91,15.91,0,0,1-20.73-24L144,107.22l31.34,31.33a15.93,15.93,0,0,1,0,22.52Z"/></svg>