<svg id="icon_art" data-name="icon art" xmlns="http://www.w3.org/2000/svg" viewBox="0 0 288 288"><defs><style>.cls-1{fill:#fcfbfa;}</style></defs><title>RMIL_Technology</title><path class="cls-1" d="M78,184H210v8H78Zm34,22h64v-8H112Zm140,7h0v4l-8,4H44l-8-4v-4h0l21-39.21V76a9,9,0,0,1,9-9H222a9,9,0,0,1,9,9v96.32L252,213ZM65,170H93.22l17.43-17.43a9,9,0,0,1,11.52-1l4.71-4.71-6.21-6.22a24.9,24.9,0,0,1-24.61-6.23c-8.16-8.16-11.27-15.78-11.4-16.1l-1-2.45,11.77-11.77,11.75,11.75L112,115l.82-4.83L101.1,98.42l12-12,2.61,1.39c.39.21,9.65,5.15,15.72,11.22a24.91,24.91,0,0,1,6.23,24.65l6.2,6.19,23.26-23.26.14-6.26L188.74,86l14.55,14.54L188.93,122l-6.26.14-45,45a9,9,0,0,1,1.16,2.82H150l-3.24-3.24,5.65-5.66,8.9,8.9h11.3L158.1,155.45l5.66-5.65L184,170h39V76a1,1,0,0,0-1-1H66a1,1,0,0,0-1,1Zm56.43-62.56-2.49,14.49-14.48,2.48-9-9-2.21,2.22a50.61,50.61,0,0,0,8.49,11.13c4.86,4.86,11.81,6.2,18.61,3.59l2.42-.93,9.79,9.79,5.65-5.65-9.79-9.78.95-2.43a17.18,17.18,0,0,0-3.59-18.63,62.46,62.46,0,0,0-11.26-8.36l-2.09,2.08Zm6.49,49.68,4.25,4.24,47.11-47.11,5.31-.12,8.4-12.57-5.26-5.26-12.57,8.4L175,110Zm-10.2,1.11a1,1,0,0,0-1.41,0L104.54,170h25ZM243,213l-18-35H63.87L45.08,213Z"/></svg>