<svg id="icon_art" data-name="icon art" xmlns="http://www.w3.org/2000/svg" viewBox="0 0 288 288"><defs><style>.cls-1{fill:#fcfbfa;}</style></defs><title>RMIL_Technology</title><path class="cls-1" d="M163,92H125v8h-7v8h7v8h38v-8h7v-8h-7Zm-8,16H133v-8h22ZM118,78h52v8H118Zm0,113h52v8H118Zm0,14h52v8H118Zm0-20h52V157H118Zm8-20h36v12H126Zm-8-14h52V122H118Zm8-21h36v13H126Zm61,93h-3V58H104V223h-3l-8,4v4H195v-4l-8-4Zm-75,0V66h64V223ZM98,100H62V92H98Zm0,16H62v-8H98ZM62,177H98v8H62Zm36-12H62v-8H98Zm0-43H62v29H98Zm-8,21H70V130H90ZM40,199v-4l8-4V78H98v8H56V191H98v8Zm208-4v4H190v-8h42V86H190V78h50V191Zm-22-95H190V92h36Zm0,16H190v-8h36Zm0,69H190v-8h36Zm0-20H190v-8h36Zm0-43H190v29h36Zm-8,21H198V130h20Z"/></svg>