<?xml version="1.0" encoding="UTF-8"?>
<svg id="ART" xmlns="http://www.w3.org/2000/svg" version="1.1" viewBox="0 0 288 288">
  <!-- Generator: Adobe Illustrator 29.0.1, SVG Export Plug-In . SVG Version: 2.1.0 Build 192)  -->
  <defs>
    <style>
      .st0 {
        fill: #fcfbfa;
      }
    </style>
  </defs>
  <path class="st0" d="M81.279732,168.722778c5.926567-6.491013,10.674622-12.13797,14.251991-16.93306,3.57476-4.797699,6.185272-9.122421,7.831543-12.98201,1.643661-3.856979,2.469406-7.619873,2.469406-11.288704,0-9.030968-2.892731-16.015854-8.678192-20.954666s-13.899223-7.408211-24.34127-7.408211c-4.891769,0-9.924656.684639-15.098644,2.046082-5.173988,1.364052-9.78616,3.221992-13.828663,5.573799v15.09864c9.595398-5.270676,18.532288-7.902092,26.810677-7.902092,11.944603,0,17.920822,4.985847,17.920822,14.957527,0,2.448502-.658508,5.059021-1.975525,7.831543-1.317017,2.775146-3.504204,6.093811-6.561562,9.950775-3.057358,3.859589-7.175644,8.607635-12.347023,14.251984l-26.95179,29.348022v11.853149h65.333389v-14.393112h-42.332649s17.49749-19.049698,17.497482-19.049698l.000008.000031Z"/>
  <path class="st0" d="M175.961136,138.172729c-4.515488-2.775146-9.830582-4.162704-15.945297-4.162704-5.929184,0-11.19725,1.5522-15.804184,4.656601,1.881454-3.01033,4.280304-6.53804,7.196548-10.58316l19.614136-27.092896h-18.767471l-17.638596,24.552933c-11.10318,15.430511-16.650848,29.350632-16.650848,41.768219,0,11.479477,3.195854,20.46077,9.595406,26.949173,6.396935,6.491013,15.190102,9.73912,26.387352,9.73912,7.340271,0,13.711075-1.505157,19.120255-4.518082,5.406555-3.007706,9.618912-7.217453,12.629242-12.629242,3.007706-5.406555,4.515472-11.688507,4.515472-18.838028,0-6.958755-1.249069-12.98201-3.73938-18.061935-2.492935-5.077301-5.997116-9.004837-10.512604-11.782578v.002594l-.000031-.000015ZM168.411819,183.962524c-3.52771,3.859589-8.348938,5.785461-14.463654,5.785461s-10.912415-1.904953-14.393097-5.717529c-3.480682-3.809937-5.221024-9.145935-5.221024-16.015854,0-2.539963.141113-4.88916.423325-7.052826,4.609558-9.313187,11.662384-13.972382,21.166321-13.972382,5.364746,0,9.665955,1.95462,12.911469,5.856018,3.245499,3.904007,4.868256,9.054489,4.868256,15.451416,0,6.587692-1.766464,11.808716-5.29158,15.663086l.000015.002625-.000031-.000015Z"/>
  <path class="st0" d="M212.362,98.432297c-2.417145,0-4.88916.248245-7.405594.7369-2.516434.499115-4.766342,1.165451-6.741867,2.001656v7.034538c4.980621-1.823967,9.417694-2.738556,13.321716-2.738556,2.613129,0,4.437088.444229,5.477112,1.332687s1.55481,2.56871,1.55481,5.032875v1.850098h-7.3246c-5.132172,0-9.177307,1.155006-12.13797,3.475464-2.95282,2.320457-4.437088,5.505852-4.437088,9.550972,0,3.80471,1.173294,6.809807,3.519882,9.033577,2.349213,2.22377,5.52153,3.334351,9.514389,3.334351,2.615738,0,5.006744-.585342,7.175644-1.74295,2.171509-1.165451,3.974579-2.80127,5.406555-4.925735l1.254303,5.769791h5.991898v-26.426544c0-8.882011-5.059006-13.319107-15.16922-13.319107l.000031-.000015ZM218.719742,126.779495c-1.029572,1.735123-2.364883,3.075653-3.992859,4.037277-1.625366.959015-3.350021,1.439835-5.181839,1.439835-1.97551,0-3.504211-.551361-4.588638-1.661957-1.084457-1.11319-1.627975-2.649712-1.627975-4.625237,0-4.348244,2.978958-6.517136,8.955185-6.517136h6.436127v7.327217Z"/>
  <rect class="st0" x="236.852219" y="84" width="10.287872" height="7.397758"/>
  <polygon class="st0" points="234.262604 99.258041 234.262604 102.950394 238.184906 105.837898 238.184906 138.1884 247.218491 138.1884 247.218491 99.258041 234.262604 99.258041"/>
</svg>