<?xml version="1.0" encoding="utf-8"?>
<!-- Generator: Adobe Illustrator 27.1.0, SVG Export Plug-In . SVG Version: 6.00 Build 0)  -->
<svg version="1.1" id="ART" xmlns="http://www.w3.org/2000/svg" xmlns:xlink="http://www.w3.org/1999/xlink" x="0px" y="0px"
	 viewBox="0 0 288 288" style="enable-background:new 0 0 288 288;" xml:space="preserve">
<style type="text/css">
	.st0{fill:#312D2A;}
</style>
<path class="st0" d="M229,73.1c0-7.6-9-13.6-26.8-18c-15.6-3.8-36.3-6-58.2-6s-42.6,2.1-58.2,6C68,59.4,59,65.5,59,73.1
	c0,0.4,0,0.8,0.1,1.2C59,74.5,59,74.8,59,75.1v140.5c0,7.4,9,13.3,26.8,17.6c15.6,3.7,36.3,5.8,58.2,5.8s42.6-2.1,58.2-5.8
	C220,228.9,229,223,229,215.5V75.1c0-0.3,0-0.6-0.1-0.8C229,73.8,229,73.5,229,73.1z M67,133.1c4.4,2.6,10.7,4.9,18.8,6.8
	c0.3,0.1,0.6,0.1,0.9,0.2c-0.1,0.8-0.1,1.5-0.1,2.3c0,8.2,3.2,15.9,9,21.6l18.5,18.5c-9.8-0.9-18.7-2.3-26.4-4.2
	c-16.9-4-20.7-8.6-20.7-9.8V133.1L67,133.1z M144,201.3l-42.8-42.8c-4.3-4.3-6.6-9.9-6.6-16s2.3-11.7,6.6-16s9.9-6.6,16-6.6
	s11.7,2.3,16,6.6l10.8,10.8l10.8-10.8c4.3-4.3,9.9-6.6,16-6.6s11.7,2.3,16,6.6c4.3,4.3,6.6,9.9,6.6,16s-2.4,11.7-6.6,16L144,201.3z
	 M221,215.5c0,1.3-3.8,5.8-20.7,9.8c-15,3.6-35,5.6-56.3,5.6s-41.3-2-56.3-5.6c-16.9-4-20.7-8.6-20.7-9.8v-36.2
	c4.4,2.6,10.7,4.9,18.8,6.8c10.4,2.5,23.1,4.2,37,5.1l21.3,21.3l21.3-21.3c13.8-0.9,26.5-2.6,36.9-5.1c8.1-1.9,14.4-4.2,18.8-6.8
	v36.2H221z M221,168.6c0,1.3-3.8,5.8-20.7,9.8c-7.6,1.8-16.6,3.2-26.4,4.2l18.5-18.5c5.8-5.8,9-13.5,9-21.6c0-0.8,0-1.6-0.1-2.3
	c0.3-0.1,0.6-0.1,0.9-0.2c8.1-1.9,14.4-4.2,18.8-6.8V168.6L221,168.6z M221,122.4c0,1.3-3.8,5.8-20.7,9.8c-0.2,0.1-0.4,0.1-0.7,0.1
	c-1.5-4.3-3.9-8.2-7.2-11.5c-5.8-5.8-13.5-9-21.6-9s-15.9,3.2-21.6,9L144,126l-5.2-5.2c-5.8-5.8-13.5-9-21.6-9s-15.9,3.2-21.6,9
	c-3.3,3.3-5.7,7.2-7.2,11.5c-0.2-0.1-0.4-0.1-0.7-0.1c-16.9-4-20.7-8.6-20.7-9.8V84.1c4.4,2.7,10.7,5,18.8,7c15.6,3.8,36.3,6,58.2,6
	s42.6-2.1,58.2-6c8.1-2,14.3-4.3,18.8-7L221,122.4L221,122.4z M200.3,83.3c-15,3.7-35,5.7-56.3,5.7s-41.3-2-56.3-5.7
	C70.7,79.1,67,74.5,67,73.1s3.7-6.1,20.7-10.3c15-3.7,35-5.7,56.3-5.7s41.3,2,56.3,5.7c17,4.2,20.7,8.8,20.7,10.3
	S217.3,79.1,200.3,83.3z"/>
<polygon class="st0" points="164.7,153.2 160.2,135.9 153,135.9 143.2,171.2 136.4,147.1 129.1,147.1 126.3,154.9 126.3,154.9 
	124.7,159.7 110.9,159.7 117.9,166.7 129.7,166.7 132.4,158.7 139.6,184.2 146.9,184.2 156.5,149.5 157.9,154.9 160.9,166.7 
	170.1,166.7 177.1,159.7 166.3,159.7 "/>
</svg>
