<svg id="icon_art" data-name="icon art" xmlns="http://www.w3.org/2000/svg" viewBox="0 0 288 288"><defs><style>.cls-1{fill:#fcfbfa;}</style></defs><title>RMIL_Technology</title><path class="cls-1" d="M109,116a6,6,0,1,1-6-6A6,6,0,0,1,109,116Zm14-6a6,6,0,1,0,6,6A6,6,0,0,0,123,110Zm-20,56a6,6,0,1,0,6,6A6,6,0,0,0,103,166Zm20,0a6,6,0,1,0,6,6A6,6,0,0,0,123,166Zm63-6v24h8V160Zm-14,24h8V160h-8Zm-14,0h8V160h-8Zm72,15.9v4L58,204v-4l8-4h8V84H214V196h8v-.1ZM82,140H206V92H82Zm0,56H206V148H82Zm104-92v24h8V104Zm-14,24h8V104h-8Zm-14,0h8V104h-8Z"/></svg>