<svg id="ART" xmlns="http://www.w3.org/2000/svg" viewBox="0 0 288 288"><defs><style>.cls-1{fill:#312d2a;}</style></defs><path class="cls-1" d="M150,199V127a4,4,0,0,0-4-4H99a4,4,0,0,0-4,4v72a4,4,0,0,0,4,4h47A4,4,0,0,0,150,199Zm-8-4H103V131h39Zm47-29H160a4,4,0,0,0-4,4v29a4,4,0,0,0,4,4h29a4,4,0,0,0,4-4V170A4,4,0,0,0,189,166Zm-4,29H164V174h21Zm4-72H160a4,4,0,0,0-4,4v29a4,4,0,0,0,4,4h29a4,4,0,0,0,4-4V127A4,4,0,0,0,189,123Zm-4,29H164V131h21Zm4-81H99a4,4,0,0,0-4,4v38a4,4,0,0,0,4,4h90a4,4,0,0,0,4-4V75A4,4,0,0,0,189,71Zm-4,38H103V79h82Zm15-54H88a9,9,0,0,0-9,9V224a9,9,0,0,0,9,9H200a9,9,0,0,0,9-9V64A9,9,0,0,0,200,55Zm1,169a1,1,0,0,1-1,1H88a1,1,0,0,1-1-1V64a1,1,0,0,1,1-1H200a1,1,0,0,1,1,1Zm-67-13h20v8H134Z"/></svg>