<svg id="ART" xmlns="http://www.w3.org/2000/svg" viewBox="0 0 288 288"><defs><style>.cls-1{fill:#fcfbfa;}</style></defs><path class="cls-1" d="M223,123H67v4l7.79,3.89,16,72H99a11.27,11.27,0,0,0-.57,3.54,11.55,11.55,0,0,0,23.1,0,11.27,11.27,0,0,0-.57-3.54h48a11.27,11.27,0,0,0-.57,3.54,11.55,11.55,0,0,0,23.1,0,11.27,11.27,0,0,0-.57-3.54h8.23l16-72L223,127ZM113.55,206.45a3.55,3.55,0,1,1-3.55-3.54A3.55,3.55,0,0,1,113.55,206.45Zm70,0a3.55,3.55,0,1,1-3.55-3.54A3.55,3.55,0,0,1,183.55,206.45ZM193,195H97L83,131H207Zm-65.23-94h38.46l3.43,16h-8.18l-1.71-8H134.23l-1.71,8h-8.18Zm-37,16H82.54l6.21-24h18.07l3-13h19.06l3-12h30.24l3,12h19.06l3,13h18.07l6.21,24h-8.18l-4.53-16H180.82l-3-13H163.88l-1.67,7h-8l3.13-13.14L155.88,76H138.12l-1.46,5.86L139.79,95h-8l-1.67-7H116.18l-3,13H95.25Z"/></svg>