<?xml version="1.0" encoding="UTF-8"?>
<svg id="ART" xmlns="http://www.w3.org/2000/svg" version="1.1" viewBox="0 0 288 288">
  <!-- Generator: Adobe Illustrator 29.5.0, SVG Export Plug-In . SVG Version: 2.1.0 Build 137)  -->
  <defs>
    <style>
      .st0 {
        fill: #312d2a;
      }
    </style>
  </defs>
  <circle class="st0" cx="57.4" cy="209" r="4"/>
  <path class="st0" d="M58.6,193.6c-1.6,1.5-1.6,4.1-.1,5.7,1.5,1.6,4.1,1.6,5.7.1,1.6-1.5,1.6-4.1.1-5.7-1.5-1.6-4.1-1.6-5.7-.1Z"/>
  <path class="st0" d="M58.4,218.8c-1.5,1.6-1.4,4.2.2,5.7,1.6,1.5,4.2,1.4,5.7-.2,1.5-1.6,1.4-4.2-.2-5.7-1.6-1.5-4.2-1.4-5.7.2Z"/>
  <path class="st0" d="M121.4,222.2c0-.3,0-.6,0-.9,2.9-3.5,4.5-7.8,4.5-12.4s-1.6-8.9-4.5-12.4c0-.3,0-.6,0-.9,0-9.4-6.8-17.4-15.8-19.1-2.3-3.4-5.6-6-9.5-7.4-2.4-.9-4.8-1.3-7.3-1.2-2.2,0-3.9,1.1-5.6,2.2-.5.3-1.1.7-1.8,1.1-.6-.4-1.2-.7-1.8-1.1-1.8-1.1-3.4-2.1-5.6-2.2-2.5,0-4.9.3-7.3,1.2-3.9,1.4-7.2,4-9.5,7.4-9,1.7-15.8,9.7-15.8,19.1s0,.6,0,.9c-2.9,3.5-4.5,7.8-4.5,12.4s1.6,8.9,4.5,12.4c0,.3,0,.6,0,.9,0,9.3,6.8,17.3,15.7,19.1,3.6,5.4,9.6,8.7,16.2,8.7s.4,0,.6,0c2.3,0,4.1-1.2,6-2.3.5-.3,1-.6,1.6-.9.6.3,1.1.6,1.6.9,1.9,1.1,3.7,2.2,6,2.3.2,0,.4,0,.6,0,6.6,0,12.6-3.3,16.2-8.7,9-1.7,15.7-9.7,15.7-19.1ZM73.6,242c0,0-.2,0-.3,0-4.3,0-8.2-2.4-10.1-6.2l-1-2-2.2-.2c-5.9-.5-10.5-5.5-10.5-11.4s0-1,.1-1.7l.3-2-1.5-1.4c-2.2-2.2-3.4-5.1-3.4-8.1s1.2-6,3.4-8.1l1.5-1.4-.3-2c-.1-.7-.1-1.2-.1-1.7,0-5.9,4.6-10.9,10.6-11.4l2.2-.2,1-1.9c1.4-2.6,3.6-4.5,6.3-5.5,1.3-.5,2.6-.7,3.8-.7s.2,0,.3,0c.3,0,1.1.6,1.8,1,.6.4,1.2.8,2,1.2v61.6c-.6.4-1.2.7-1.7,1-.8.5-1.8,1.1-2.1,1.1ZM113.2,220.5c0,.7.1,1.2.1,1.7,0,5.9-4.6,10.9-10.5,11.4l-2.2.2-1,2c-2,3.8-5.9,6.2-10.1,6.2s-.2,0-.3,0c-.3,0-1.3-.7-2.1-1.1-.5-.3-1.1-.7-1.7-1v-61.6c.8-.4,1.4-.8,2-1.2.7-.4,1.5-.9,1.7-1,1.4,0,2.8.2,4.2.7,2.7,1,4.9,3,6.3,5.5l1,1.9,2.2.2c5.9.4,10.6,5.4,10.6,11.4s0,1.1-.1,1.7l-.3,2,1.5,1.4c2.2,2.2,3.4,5.1,3.4,8.1s-1.2,6-3.4,8.1l-1.4,1.4.3,2Z"/>
  <circle class="st0" cx="105.4" cy="209" r="4"/>
  <path class="st0" d="M104.4,199.2c1.5-1.6,1.5-4.1,0-5.7-1.6-1.5-4.1-1.5-5.7,0-1.5,1.6-1.5,4.1,0,5.7,1.6,1.5,4.1,1.5,5.7,0Z"/>
  <path class="st0" d="M98.9,218.5c-1.7,1.5-1.8,4-.3,5.6,1.5,1.7,4,1.8,5.6.3,1.7-1.5,1.8-4,.3-5.6-1.5-1.7-4-1.8-5.6-.3Z"/>
  <path class="st0" d="M216.6,131.2c0,.2,0,.4-.2.7-1,1.8-5.8,5.6-20.4,9.1-15,3.6-35,5.6-56.3,5.6s-41.3-2-56.3-5.6c-1.5-.4-2.9-.7-4.2-1.1-11.3-3.2-15.3-6.4-16.2-8,0,0,0,0,0-.1-.1-.2-.2-.4-.2-.5v-38.3c4.4,2.7,10.7,5,18.8,7,15.6,3.9,36.3,6,58.2,6s26.7-.8,38.4-2.3c-2.2-2.2-4.1-4.7-5.8-7.4-10.1,1.1-21.1,1.7-32.6,1.7-21.3,0-41.3-2-56.3-5.7-5.7-1.4-10-2.9-13-4.3-6-2.7-7.6-5-7.6-6s.3-1.1,1.2-2c2.1-2.1,7.5-5.3,19.5-8.3,15-3.7,35-5.7,56.3-5.7s14.9.3,21.9.8c.7-2.7,1.7-5.3,2.9-7.8-7.9-.6-16.3-.9-24.8-.9-22,0-42.6,2.1-58.2,6-17.8,4.4-26.8,10.4-26.8,18s0,.8,0,1.2c0,.3,0,.5,0,.8v86.4c2.3-2.5,5-4.5,8-5.9v-22.4c2.3,1.3,5,2.6,8.2,3.7,3.1,1.1,6.6,2.1,10.6,3.1,10.7,2.6,23.8,4.3,38.1,5.2,3.9.2,7.9.4,11.9.5,2.7,0,5.4,0,8.2,0,21.9,0,42.6-2.1,58.2-5.8,8.1-1.9,14.4-4.2,18.8-6.8v35.4c0,.5-.5,1.3-1.9,2.5-2.5,2-7.9,4.8-18.8,7.4-15,3.6-35,5.6-56.4,5.6s-8.3,0-12.4-.2c0,.7.1,1.3.2,2,1.3,1.9,2.3,3.9,3,6.1,3,0,6.1.1,9.2.1,21.9,0,42.6-2.1,58.2-5.8,8.1-1.9,14.4-4.2,18.8-6.8v36.1c0,1.3-3.8,5.8-20.6,9.8-15,3.6-35,5.6-56.4,5.6s-12.7-.2-18.8-.5c-2.9,3.3-6.7,5.8-11.1,7.2,9.4.9,19.5,1.3,29.9,1.3,21.9,0,42.6-2.1,58.2-5.8,17.8-4.2,26.8-10.2,26.8-17.6v-113.3c-2.5,1.3-5.2,2.3-8,3.1v17.1Z"/>
  <path class="st0" d="M166.6,77.8l4.6,4.3.5.5,2.1,2,2.3,2.2.4-.4,1.6-1.5,3.2-3.1,10-9.7-4.5-4.7-1.1-1.1-4.9,4.7c2-12.3,12.8-21.8,25.7-21.8s18.6,5.6,22.9,13.8l2.9-3,1.4-1.5,1.4-1.5c-6-9.5-16.6-15.8-28.7-15.8-17.8,0-32.5,13.8-33.9,31.2l-1.8-1.7-3.5-3.3-1-1-5.5,5.8,5.8,5.5Z"/>
  <path class="st0" d="M246.4,72.7l-4.6-4.4-.4-.4-2.3-2.2-2.1-2-.5.5-1.6,1.5-3.2,3.1-10,9.4,4.9,5.2.6.7,5-4.7c-1.9,12.4-12.7,22-25.7,22s-18.5-5.5-22.9-13.7l-5.8,5.8c6,9.5,16.7,15.9,28.7,15.9,17.8,0,32.5-13.8,33.9-31.2l1.8,1.8,3.5,3.4,1,.9,5.6-5.8-5.8-5.6Z"/>
  <path class="st0" d="M197,65.4l-8.1,21.8h6.4l1.1-3.8h6.8l1.1,3.8h6.7l-8.1-21.8h-5.9ZM197.7,78.8l2-7.2,2.1,7.2h-4.1Z"/>
  <rect class="st0" x="213" y="65.4" width="6" height="21.8"/>
</svg>