<svg id="ART" xmlns="http://www.w3.org/2000/svg" viewBox="0 0 288 288"><defs><style>.cls-1{fill:#312d2a;}</style></defs><path class="cls-1" d="M186,196h52V150H186Zm8-38h14v13h8V158h14v30H194Zm-8-60v46h52V98Zm44,38H194V106h14v13h8V106h14Zm-50,66V65h-8v61H158.28L136.93,89.86A16.08,16.08,0,0,0,123.15,82H62v61H49v67H64.6a18,18,0,0,0,35.07,0H126.6a18,18,0,0,0,35.07,0H230l8-4v-4ZM70,90h53.15A8,8,0,0,1,130,93.93l21.37,36.16-5.48,10.18-13.49-13.48,4.25-4.25L131,116.89,116.89,131l5.65,5.66,4.25-4.25L142,147.62,132.61,165H115l-11-14.48L111,147v-4H87V121h0l-4-8H79v30H70ZM82.14,216a10,10,0,1,1,10-10A10,10,0,0,1,82.14,216Zm62,0a10,10,0,1,1,10-10A10,10,0,0,1,144.14,216Zm0-28a18,18,0,0,0-17.54,14H99.67a18,18,0,0,0-35.07,0H57V151H94.26L111,173h26.37l21-39H172v68H161.67A18,18,0,0,0,144.14,188Z"/></svg>