<?xml version="1.0" encoding="utf-8"?>
<!-- Generator: Adobe Illustrator 24.0.3, SVG Export Plug-In . SVG Version: 6.00 Build 0)  -->
<svg version="1.1" id="ART" xmlns="http://www.w3.org/2000/svg" xmlns:xlink="http://www.w3.org/1999/xlink" x="0px" y="0px"
	 viewBox="0 0 288 288" style="enable-background:new 0 0 288 288;" xml:space="preserve">
<style type="text/css">
	.st0{fill:#FCFBFA;}
</style>
<path class="st0" d="M134,86h8v12h-8V86z M168,124h12v8h-12V124z M96,124h12v8H96V124z M105.5,101.1l5.7-5.7l8.5,8.5l-5.7,5.7
	L105.5,101.1z M156.4,104l8.5-8.5l5.7,5.7l-8.5,8.5L156.4,104z M114,127.7c0,8.3,2.7,13.2,4.9,17.1c1.7,3,3.1,5.4,3.1,9.1v13l16,8.4
	l16-8.4v-13c0-3.7,1.4-6.1,3.1-9.1c2.2-3.9,5-8.8,5-17.1c0-13.1-10.7-23.7-23.8-23.7C125.1,104,114,114.9,114,127.7z M146,162.2
	l-8,4.2l-8-4.2V158h16V162.2z M138.3,112c8.7,0,15.7,7.1,15.7,15.7c0,6.2-1.9,9.6-3.9,13.2c-1.8,2.8-3,5.8-3.7,9.1H142v-13h-8v13
	h-4.4c-0.7-3.2-2-6.3-3.7-9.1c-2-3.6-3.9-7-3.9-13.2C122.3,118.9,129.5,112,138.3,112z M88,186h76v8H88V186z M88,200h54v8H88V200z
	 M208,192l-8,8v20H76V55h91v33h33v64l8-8V79.3L175.7,47H68v181h140V192z M197.3,80H175V57.7L197.3,80z M200,234H76l0,0h-8v4l8,4l0,0
	h124l0,0l8-4v-4H200L200,234z M251.5,140.1l9.9-9.9l-15.6-15.6L171.4,189l-3.3,18.9l18.9-3.3l58.9-58.9l3.5,3.5c0.4,0.4,0.4,1,0,1.4
	l-24.8,24.8l5.7,5.7l24.7-24.8c3.5-3.5,3.5-9.2,0-12.7c0,0,0,0,0,0L251.5,140.1z M250.1,130.2l-4.2,4.2l-4.2-4.2l4.2-4.2
	L250.1,130.2z M183.1,197.2l-5.1,0.9l0.9-5.1l57.1-57.1l4.2,4.2L183.1,197.2z"/>
</svg>
