<?xml version="1.0" encoding="utf-8"?>
<!-- Generator: Adobe Illustrator 24.0.3, SVG Export Plug-In . SVG Version: 6.00 Build 0)  -->
<svg version="1.1" id="ART" xmlns="http://www.w3.org/2000/svg" xmlns:xlink="http://www.w3.org/1999/xlink" x="0px" y="0px"
	 viewBox="0 0 288 288" style="enable-background:new 0 0 288 288;" xml:space="preserve">
<style type="text/css">
	.st0{fill:#FCFBFA;}
</style>
<path class="st0" d="M87,141.2c-16.7,0-30.3,13.5-30.3,30.3s13.5,30.3,30.3,30.3s30.3-13.5,30.3-30.3l0,0
	C117.2,154.7,103.7,141.2,87,141.2z M87,193.7c-12.3,0-22.3-10-22.3-22.3c0-12.3,10-22.3,22.3-22.3s22.3,10,22.3,22.3c0,0,0,0,0,0
	C109.2,183.7,99.3,193.7,87,193.7L87,193.7z M240.3,151.4L240.3,151.4l-34.7-68.2c-5.9-11.9-19.7-15.6-30.3-13.1
	C164,72.8,157,81.5,157,93v13h-26V93c0-11.5-7-20.2-18.3-22.9c-10.6-2.5-24.4,1.2-30.3,13.1l-34.8,68.2h0.1
	c-11.1,21.7-2.5,48.2,19.1,59.3s48.2,2.5,59.3-19.1c1.9-3.7,3.2-7.6,4-11.6h0.4c0-7.4,6-13.4,13.4-13.4s13.4,6,13.4,13.4h0.4
	c4.7,23.9,27.8,39.4,51.7,34.8s39.4-27.8,34.8-51.7C243.5,158.9,242.2,155,240.3,151.4L240.3,151.4z M165,113.4
	c5.4-6.4,13.1-10.5,21.4-11.4c9.2-1.1,18.3,2.5,24.4,9.5l0.1-0.1l10.8,21.2c-19.6-10.5-44-4.7-56.8,13.6L165,113.4z M177.1,77.9
	c7.5-1.8,17.2,0.7,21.3,8.9l4.9,9.7c-5.6-2.3-11.8-3.2-17.8-2.5c-7.5,0.8-14.6,3.7-20.6,8.3V93C165,85.3,169.5,79.7,177.1,77.9
	L177.1,77.9z M157,114v33.5c-8.2-4-17.8-4-26,0V114H157z M77.2,111.4c6.1-7,15.2-10.5,24.4-9.5c8.4,0.8,16.1,4.9,21.4,11.4v32.8
	c-12.8-18.2-37.1-24.1-56.8-13.6L77,111.4L77.2,111.4z M89.6,86.8c4.1-8.2,13.8-10.7,21.3-8.9S123,85.3,123,93v9.3
	c-6-4.6-13.1-7.5-20.6-8.3c-6.1-0.7-12.2,0.1-17.8,2.5L89.6,86.8z M87,207.5c-19.9,0-36.1-16.1-36.1-36s16.1-36.1,36-36.1
	c19.9,0,36.1,16.1,36.1,36c0,0,0,0.1,0,0.1l0,0C123,191.3,106.9,207.4,87,207.5z M144.1,158.5c-4.7,0-9.3,1.6-13,4.4v-6
	c7.7-5.9,18.3-5.9,26,0v6C153.3,160,148.7,158.5,144.1,158.5L144.1,158.5z M201.1,207.5c-19.9,0-36.1-16.1-36.1-36.1l0,0
	c0-19.9,16.1-36.1,36.1-36.1s36.1,16.1,36.1,36.1S221,207.5,201.1,207.5C201.1,207.5,201.1,207.5,201.1,207.5L201.1,207.5z
	 M201.1,141.2c-16.7,0-30.3,13.5-30.3,30.3s13.5,30.3,30.3,30.3s30.3-13.5,30.3-30.3l0,0C231.3,154.7,217.8,141.2,201.1,141.2z
	 M201.1,193.7c-12.3,0-22.3-10-22.3-22.3c0-12.3,10-22.3,22.3-22.3c12.3,0,22.3,10,22.3,22.3c0,0,0,0,0,0
	C223.3,183.7,213.3,193.7,201.1,193.7L201.1,193.7z"/>
</svg>
