<svg id="ART" xmlns="http://www.w3.org/2000/svg" viewBox="0 0 288 288"><defs><style>.cls-1{fill:#312d2a;}</style></defs><path class="cls-1" d="M179,131H167V116a34.22,34.22,0,0,0,10.12-24.07L177,48V44H134c-14.4,0-23,9.34-23,25h0l-.12,23.37A32.79,32.79,0,0,0,121,116v15H109a38,38,0,0,0-38,38.1V193h8V169.1a30.21,30.21,0,0,1,30.16-30.18l15.07.08L144,159.81,163.78,139l15-.07A30.22,30.22,0,0,1,209,169.1V193h8V169.1A38,38,0,0,0,179,131ZM134,52h34.8c-1.43,13-9.86,13-12.8,13H119.24C120.35,56.37,125.3,52,134,52ZM118.88,92.37,119,73h37a20.3,20.3,0,0,0,13.06-4.18l.06,23.12A25.41,25.41,0,0,1,144,117C130.17,117,118.88,106,118.88,92.37ZM144,148.19,129,132.4v-11A33.45,33.45,0,0,0,144,125a32.26,32.26,0,0,0,15-3.73V132.4ZM124,211a32.94,32.94,0,0,1,12,2.22v8.89a24.71,24.71,0,0,0-24,0v-8.89A32.94,32.94,0,0,1,124,211Zm40-28a32.94,32.94,0,0,1,12,2.22v8.89a24.71,24.71,0,0,0-24,0v-8.88A32.74,32.74,0,0,1,164,183Zm-40,0a32.74,32.74,0,0,1,12,2.23v8.88a24.71,24.71,0,0,0-24,0v-8.89A32.94,32.94,0,0,1,124,183Zm40,14a32.94,32.94,0,0,1,12,2.22v8.89a24.71,24.71,0,0,0-24,0v-8.88A32.74,32.74,0,0,1,164,197Zm-40,0a32.74,32.74,0,0,1,12,2.23v8.88a24.71,24.71,0,0,0-24,0v-8.89A32.94,32.94,0,0,1,124,197Zm40-28c-7.91,0-15.54,2.8-20,6.71-4.46-3.91-12.09-6.71-20-6.71-12.34,0-24,6.8-24,14v57h8c0-2.79,6.38-7,16-7s16,4.21,16,7h8c0-2.79,6.38-7,16-7s16,4.21,16,7h8V182h-.08C186.91,175.19,175.76,169,164,169Zm-40,56a33.47,33.47,0,0,0-16,3.73V183.19c.64-1.65,6.92-6.19,16-6.19s15.36,4.54,16,6.19v45.54A33.47,33.47,0,0,0,124,225Zm40,0a33.47,33.47,0,0,0-16,3.73V183.19c.64-1.65,6.92-6.19,16-6.19s15.36,4.54,16,6.19v45.54A33.47,33.47,0,0,0,164,225Z"/></svg>