<?xml version="1.0" encoding="UTF-8"?>
<svg xmlns="http://www.w3.org/2000/svg" version="1.1" viewBox="0 0 288 288">
  <defs>
    <style>
      .cls-1 {
        fill: none;
        stroke: #56a5d8;
        stroke-miterlimit: 10;
        stroke-width: .2px;
      }

      .cls-2 {
        fill: #56a5d8;
      }

      .cls-3 {
        fill: #fcfbfa;
      }

      .cls-4 {
        display: none;
      }
    </style>
  </defs>
  <!-- Generator: Adobe Illustrator 28.7.0, SVG Export Plug-In . SVG Version: 1.2.0 Build 136)  -->
  <g>
    <g id="Layer_1">
      <g id="Layer_1-2" data-name="Layer_1">
        <g id="GUIDES" class="cls-4">
          <g>
            <path class="cls-2" d="M144,96.3c26.3,0,47.8,21.4,47.8,47.7s-21.4,47.7-47.8,47.7-47.8-21.4-47.8-47.7,21.5-47.7,47.8-47.7M144,96.1c-26.5,0-48,21.5-48,47.9s21.5,47.9,48,47.9,48-21.5,48-47.9-21.5-47.9-48-47.9h0Z"/>
            <line class="cls-1" x1="96" x2="96" y2="288"/>
            <line class="cls-1" x1="192" x2="192" y2="288"/>
            <line class="cls-1" y1="192" x2="288" y2="192"/>
            <line class="cls-1" y1="96" x2="288" y2="96"/>
            <path class="cls-2" d="M144,12.4c35.2,0,68.3,13.7,93.2,38.6,24.9,24.9,38.6,58,38.6,93.2s-13.7,68.3-38.6,93.2-58,38.6-93.2,38.6-68.3-13.7-93.2-38.6S12.2,179.4,12.2,144.2s13.8-68.3,38.6-93.2c24.9-24.9,58-38.6,93.2-38.6M144,12.1C71.1,12.1,12,71.2,12,144.1s59.1,132,132,132,132-59.1,132-132S216.9,12.1,144,12.1h0Z"/>
            <path class="cls-2" d="M240,12.2c6.5,0,11.8,5.3,11.8,11.8v240c0,6.5-5.3,11.8-11.8,11.8H48c-6.5,0-11.8-5.3-11.8-11.8V24c0-6.5,5.3-11.8,11.8-11.8h192M240,12H48c-6.6,0-12,5.4-12,12v240c0,6.6,5.4,12,12,12h192c6.6,0,12-5.4,12-12V24c0-6.6-5.4-12-12-12h0Z"/>
            <path class="cls-2" d="M264,36.2c6.5,0,11.8,5.3,11.8,11.8v192c0,6.5-5.3,11.8-11.8,11.8H24c-6.5,0-11.8-5.3-11.8-11.8V48c0-6.5,5.3-11.8,11.8-11.8h240M264,36H24c-6.6,0-12,5.4-12,12v192c0,6.6,5.4,12,12,12h240c6.6,0,12-5.4,12-12V48c0-6.6-5.4-12-12-12h0Z"/>
            <path class="cls-2" d="M247.8,24.2c8.8,0,16,7.2,16,16v207.6c0,8.8-7.2,16-16,16H40.2c-8.8,0-16-7.2-16-16V40.2c0-8.8,7.2-16,16-16h207.6M247.8,24H40.2c-8.9,0-16.2,7.3-16.2,16.2v207.6c0,8.9,7.3,16.2,16.2,16.2h207.6c8.9,0,16.2-7.3,16.2-16.2V40.2c0-8.9-7.3-16.2-16.2-16.2h0Z"/>
          </g>
        </g>
        <g>
          <path class="cls-3" d="M51,117.6c2.1-10.5,8.7-19.4,18.3-24.5,5.8-3,9.8-8.4,11.1-14.8,1.6-7.9,6.9-14.6,14.3-17.8,3.8-1.7,8.1-2.4,12.2-2,6.6.6,12.9-1.7,17.3-6.5,6.1-6.6,14.8-10.4,23.9-10.4s23.6,6.9,29.1,18c2.9,5.8,8.3,10,14.7,11.4,3.8.8,7.3,2.3,10.6,4.4,14.2,8.9,19.5,27.1,12.7,42.2h-20.5c1.2,2.6,2.1,5.3,3,8h22.4l1.1-2.1c10.3-19.1,4-43.2-14.4-54.8-4.1-2.6-8.5-4.4-13.1-5.4-4-.9-7.4-3.5-9.2-7.2-6.9-13.8-20.8-22.4-36.3-22.4s-22.1,4.7-29.7,13c-2.7,2.9-6.6,4.4-10.7,4-5.5-.5-11.1.4-16.2,2.6-9.8,4.3-16.8,13.1-18.9,23.6-.8,4-3.3,7.3-6.9,9.2-13.4,7-22,20.2-23.2,35.3l-.3,4.3h28.7c.8-2.7,1.8-5.4,3-8h-23Z"/>
          <polygon class="cls-3" points="138.8 127.6 124.7 105.6 120.4 105.6 128.9 127.4 130 130.4 115.2 130.4 120.3 138.8 136.5 165.6 140.8 165.6 132.5 140.8 147.3 140.8 138.8 127.6"/>
          <path class="cls-3" d="M160.4,216.3v-16.7c3.1,1.4,6.9,2.6,11,3.4v-1c0-2.4.6-4.7,1.5-6.8-7-1.5-11.3-3.7-12.5-4.9v-19.1c7.4,4.3,18.9,6.7,29.8,6.7s22.4-2.4,29.8-6.7v15.2h8v-26c0-4.5-2.3-11.1-14.4-14.8l-6.7,6.7c7.6,1.5,13.1,4.1,13.1,8.1s-11.6,9.5-29.8,9.5-29.8-6.7-29.8-9.5,5.2-6.1,13.7-7.9l-6.5-6.5c-8.4,2.6-15.2,7.1-15.2,14.4v56.4c0,5.6,8.3,10.3,19,13v-8.3c-6-1.7-9.9-3.9-11-5.2h0Z"/>
          <path class="cls-3" d="M88.1,151.4c10.8,1.1,19.6,4,19.6,9s-11.6,9.5-29.8,9.5-29.8-6.7-29.8-9.5,7.9-7.6,20.1-9v-8c-13.2,1.4-28.1,6-28.1,17v56.4c0,5.7,8.4,10.4,19.2,13v-8.3c-6.1-1.7-10.1-3.9-11.2-5.3v-16.7c3.2,1.5,7,2.6,11.2,3.5v-1c0-2.4.6-4.7,1.5-6.8-7.1-1.5-11.5-3.7-12.7-5v-19.1c7.4,4.3,18.9,6.7,29.8,6.7s22.4-2.4,29.8-6.7v15.2h8v-26c0-5.8-3.9-15-27.5-17.1v8.1h0Z"/>
          <polygon class="cls-3" points="228.7 221.3 220.4 229.5 217 226 211.3 231.7 220.4 240.8 220.4 240.7 234.3 227 228.7 221.3"/>
          <path class="cls-3" d="M238.2,192.8h-50.9c-5.4,0-9.8,4.5-9.8,9.9v41.9c0,5.4,4.4,9.8,9.8,9.8h50.9c5.4,0,9.8-4.4,9.8-9.8v-41.9c0-5.5-4.4-9.9-9.8-9.9h0ZM187.4,246.4c-1,0-1.8-.8-1.8-1.8v-29.8h8v31.6h-6.2ZM240,244.6c0,1-.8,1.8-1.8,1.8h-36.6v-31.6h38.4v29.8ZM240,206.8h-54.4v-4.1c0-1,.8-1.9,1.8-1.9h50.9c.9,0,1.8.9,1.8,1.9v4.1h-.1Z"/>
          <path class="cls-3" d="M75.4,192.8c-5.4,0-9.8,4.5-9.8,9.9v41.9c0,5.4,4.4,9.8,9.8,9.8h50.9c5.4,0,9.8-4.4,9.8-9.8v-41.9c0-5.5-4.4-9.9-9.8-9.9h-50.9ZM75.2,246.4c-1,0-1.8-.8-1.8-1.8v-29.4h8.2v31.2s-6.4,0-6.4,0ZM128,244.6c0,1-.8,1.8-1.8,1.8h-37.1v-31.2h38.9v29.4ZM128,202.7v4.5h-54.6v-4.5c0-1,.8-1.9,1.8-1.9h51.1c.9,0,1.8.9,1.8,1.9h-.1Z"/>
          <path class="cls-3" d="M190.4,160.8l19.8-19.8-5.7-5.7-10.1,10.1c0-33.1-27-60-60.1-60s-60.2,27-60.2,60.2v9.6h8v-9.6c0-28.8,23.4-52.2,52.2-52.2s52.1,23.3,52.1,52l-10.2-10.2-5.7,5.7,19.8,19.8h0Z"/>
        </g>
      </g>
    </g>
  </g>
</svg>