<?xml version="1.0" encoding="utf-8"?>
<!-- Generator: Adobe Illustrator 28.0.0, SVG Export Plug-In . SVG Version: 6.00 Build 0)  -->
<svg version="1.1" id="ART" xmlns="http://www.w3.org/2000/svg" xmlns:xlink="http://www.w3.org/1999/xlink" x="0px" y="0px"
	 viewBox="0 0 288 288" style="enable-background:new 0 0 288 288;" xml:space="preserve">
<style type="text/css">
	.st0{fill:#312D2A;}
</style>
<g>
	<g>
		<g>
			<g>
				<path class="st0" d="M235.2,214.3h-20.9v-45.1l0-31.2l8.3-4.1v-5l-40.3,0v5l8.3,4.1l0,31.2v45.1H97.4v-44.8l0-31.3l8.3-4.1v-5
					l-40.3,0v5l8.3,4.1l0,31.3v44.8H52.8l-8.7,4.3v4.9h199.7v-4.9L235.2,214.3z M89.1,214.8h-1v-0.5h-5.2v-44.8l0-31.1h5.2l0,31.1
					v44.8h1V214.8z M205.1,169.2v45.1h-5.2v-45.1l0-31h5.2L205.1,169.2z"/>
			</g>
		</g>
		<g>
			<g>
				<rect x="88.6" y="214.3" class="st0" width="0.5" height="0.5"/>
				<path class="st0" d="M88.6,214.3v0.5h0.5v-0.5H88.6z M88.1,214.3v0.5h1v-0.5H88.1z M88.6,214.3v0.5h0.5v-0.5H88.6z"/>
			</g>
		</g>
	</g>
	<g>
		<g>
			<path class="st0" d="M88.1,214.3v0.5h0.5v-0.5H88.1z M88.1,214.3v0.5h0.5v-0.5H88.1z M88.1,214.3v0.5h1v-0.5H88.1z M88.1,214.3
				v0.5h0.5v-0.5H88.1z M88.1,214.3v0.5h0.5v-0.5H88.1z M88.1,214.3v0.5h0.5v-0.5H88.1z"/>
		</g>
		<g>
			<polygon class="st0" points="250.1,234.2 250.1,239.1 37.9,239.1 37.9,234.2 46.6,229.8 241.4,229.8 			"/>
		</g>
	</g>
	<g>
		<path class="st0" d="M237.5,101.7V89L144,48.5L50.5,89v12.6h-6.2v22.5h199.4v-22.5H237.5z M59.5,94.9L144,58.3l84.5,36.6v5.7h-169
			V94.9z M234.7,115.1H53.3v-4.5h181.4V115.1z"/>
	</g>
	<g>
		<g>
			<path class="st0" d="M144,137.2c-17.3,0-31.4,14.1-31.4,31.4c0,17.3,14.1,31.4,31.4,31.4c17.3,0,31.4-14.1,31.4-31.4
				C175.4,151.3,161.3,137.2,144,137.2z M144,192.5c-13.2,0-23.9-10.7-23.9-23.9c0-13.2,10.7-23.9,23.9-23.9
				c13.2,0,23.9,10.7,23.9,23.9C167.9,181.8,157.2,192.5,144,192.5z"/>
			<path class="st0" d="M157.5,174.3c0,5.2-4.2,9.4-9.4,9.4h-0.3v4.9h-7.5v-4.9h-8.1v-7.5h15.9c1.1,0,1.9-0.9,1.9-1.9
				s-0.9-1.9-1.9-1.9h-8.1c-5.2,0-9.4-4.2-9.4-9.4c0-5.1,4.3-9.5,9.4-9.5h0.3v-4.8h7.5v4.8h8.1v7.5h-15.9c-1,0-1.9,0.9-1.9,2
				c0,1,0.9,1.9,1.9,1.9h8.1C153.3,164.8,157.5,169.1,157.5,174.3z"/>
		</g>
	</g>
</g>
</svg>
