<svg id="ART" xmlns="http://www.w3.org/2000/svg" viewBox="0 0 288 288"><defs><style>.cls-1{fill:#312d2a;}</style></defs><path class="cls-1" d="M187.15,121h-9.29a33,33,0,0,0-53.05-6.44,21,21,0,0,1-17.48,6.55A25,25,0,0,0,80.46,141.2a21.48,21.48,0,0,1-11.18,14.91A35.8,35.8,0,0,0,50.68,181H97v8H41.81l.32-4.3A43.76,43.76,0,0,1,65.56,149a13.54,13.54,0,0,0,7-9.37,33,33,0,0,1,35.48-26.52,13,13,0,0,0,10.86-4,41,41,0,0,1,66.74,9.58A12.66,12.66,0,0,0,187.15,121Z"/><path class="cls-1" d="M170,155.06H127V127h43Zm-35-8h27V135H135Z"/><path class="cls-1" d="M219,155.06H176V127h43Zm-35-8h27V135H184Z"/><path class="cls-1" d="M146,189H103V161h43Zm-35-8h27V169H111Z"/><path class="cls-1" d="M195,189H152V161h43Zm-35-8h27V169H160Z"/><path class="cls-1" d="M244,189H201V161h43Zm-35-8h27V169H209Z"/></svg>