<svg id="ART" xmlns="http://www.w3.org/2000/svg" viewBox="0 0 288 288">
  <defs>
    <style>
      .cls-1 {
        fill: #fcfbfa;
      }
    </style>
  </defs>
  <path class="cls-1" d="M179.23,240H112.17a9,9,0,0,1-8.94-8l-8.88-84.95a9,9,0,0,1,9-10h84.81a9,9,0,0,1,9,9.89l-.58,9.17a30,30,0,0,1,27.18,31.32A30,30,0,0,1,190,215.77L188.18,232A9,9,0,0,1,179.23,240ZM103.3,145a1,1,0,0,0-.75.41,1,1,0,0,0-.25.77l8.88,85a1,1,0,0,0,1,.86h67.06a1,1,0,0,0,1-.89l2.84-25.28,4.55,1.31a22,22,0,0,0,28.06-20.07,22,22,0,0,0-22-23.07c-.41,0-.83,0-1.24,0l-4.5.24,1.14-18.1a1,1,0,0,0-.24-.77,1,1,0,0,0-.75-.41Zm91.4,57a16,16,0,0,1-7.43-1.84l-2.42-1.27,3.1-27.64,2.65-.7a15.73,15.73,0,0,1,4.1-.55,16,16,0,0,1,0,32Zm-1.24-8.1a7.32,7.32,0,0,0,1.24.1,8,8,0,0,0,.54-16ZM141.28,121A55.93,55.93,0,0,0,144,104.21c0-7.88-4.19-14.64-8.25-21.17-4.26-6.86-8.67-14-8.67-22.58,0-1.55.08-3,.21-4.46h-8c-.12,1.44-.19,2.93-.19,4.46,0,10.91,5.48,19.72,9.87,26.8,3.78,6.09,7.05,11.35,7.05,16.95A49.31,49.31,0,0,1,132.8,121Zm1.8-60.54A32,32,0,0,1,145.58,48H137a40.38,40.38,0,0,0-1.94,12.46c0,6.35,3.63,12.18,7.47,18.36C147.19,86.31,152,94,152,104.21A67,67,0,0,1,146,131h8.65A74.25,74.25,0,0,0,160,104.21c0-12.45-5.91-22-10.66-29.61C146,69.19,143.08,64.52,143.08,60.46Z"/>
</svg>
