<?xml version="1.0" encoding="utf-8"?>
<!-- Generator: Adobe Illustrator 27.1.0, SVG Export Plug-In . SVG Version: 6.00 Build 0)  -->
<svg version="1.1" id="Layer_1" xmlns="http://www.w3.org/2000/svg" xmlns:xlink="http://www.w3.org/1999/xlink" x="0px" y="0px"
	 viewBox="0 0 288 288" style="enable-background:new 0 0 288 288;" xml:space="preserve">
<style type="text/css">
	.st0{display:none;}
	.st1{display:inline;}
	.st2{fill:#56A6DA;}
	.st3{display:inline;fill:none;stroke:#56A6DA;stroke-width:0.25;stroke-miterlimit:10;}
	.st4{fill:#FCFBFA;}
</style>
<g id="GUIDES" class="st0">
	<g class="st1">
		<path class="st2" d="M144,96.3c26.3,0,47.8,21.4,47.8,47.7s-21.4,47.7-47.8,47.7c-26.3,0-47.8-21.4-47.8-47.7S117.7,96.3,144,96.3
			 M144,96.1c-26.5,0-48,21.5-48,47.9c0,26.5,21.5,47.9,48,47.9s48-21.5,48-47.9C192,117.5,170.5,96.1,144,96.1L144,96.1z"/>
	</g>
	<line class="st3" x1="96" y1="0" x2="96" y2="288"/>
	<line class="st3" x1="192" y1="0" x2="192" y2="288"/>
	<line class="st3" x1="0" y1="192" x2="288" y2="192"/>
	<line class="st3" x1="0" y1="96" x2="288" y2="96"/>
	<g class="st1">
		<path class="st2" d="M144,12.4c35.2,0,68.3,13.7,93.2,38.6s38.6,58,38.6,93.2s-13.7,68.3-38.6,93.2S179.2,276,144,276
			s-68.3-13.7-93.2-38.6s-38.6-58-38.6-93.2C12.2,109,26,75.9,50.8,51C75.7,26.1,108.8,12.4,144,12.4 M144,12.1
			c-72.9,0-132,59.1-132,132s59.1,132,132,132s132-59.1,132-132S216.9,12.1,144,12.1L144,12.1z"/>
	</g>
	<g class="st1">
		<path class="st2" d="M240,12.2c6.5,0,11.8,5.3,11.8,11.8v240c0,6.5-5.3,11.8-11.8,11.8H48c-6.5,0-11.8-5.3-11.8-11.8V24
			c0-6.5,5.3-11.8,11.8-11.8H240 M240,12H48c-6.6,0-12,5.4-12,12v240c0,6.6,5.4,12,12,12h192c6.6,0,12-5.4,12-12V24
			C252,17.4,246.6,12,240,12L240,12z"/>
	</g>
	<g class="st1">
		<path class="st2" d="M264,36.2c6.5,0,11.8,5.3,11.8,11.8v192c0,6.5-5.3,11.8-11.8,11.8H24c-6.5,0-11.8-5.3-11.8-11.8V48
			c0-6.5,5.3-11.8,11.8-11.8H264 M264,36H24c-6.6,0-12,5.4-12,12v192c0,6.6,5.4,12,12,12h240c6.6,0,12-5.4,12-12V48
			C276,41.4,270.6,36,264,36L264,36z"/>
	</g>
	<g class="st1">
		<path class="st2" d="M247.8,24.2c8.8,0,16,7.2,16,16v207.6c0,8.8-7.2,16-16,16H40.2c-8.8,0-16-7.2-16-16V40.2c0-8.8,7.2-16,16-16
			H247.8 M247.8,24H40.2C31.3,24,24,31.3,24,40.2v207.6c0,8.9,7.3,16.2,16.2,16.2h207.6c8.9,0,16.2-7.3,16.2-16.2V40.2
			C264,31.3,256.7,24,247.8,24L247.8,24z"/>
	</g>
</g>
<g id="ART">
	<g>
		<path class="st4" d="M144,89c-17.9,0-32-14.2-32-32.4c0-18.3,14.1-32.6,32-32.6c18.2,0,33,14.6,33,32.6C177,74.5,162.2,89,144,89z
			 M144,32c-13.5,0-24,10.8-24,24.6c0,13.7,10.5,24.4,24,24.4c13.8,0,25-11,25-24.4C169,43,157.8,32,144,32z"/>
		<rect x="140" y="207" class="st4" width="8" height="46"/>
		<rect x="107" y="207" class="st4" width="8" height="46"/>
		<rect x="173" y="207" class="st4" width="8" height="46"/>
		<g>
			<path class="st4" d="M219.8,95.2H68.2c-2.9,0-5.2,2.3-5.2,5.2v95.5c0,2.9,2.3,5.2,5.2,5.2h151.7c2.9,0,5.2-2.3,5.2-5.2v-95.5
				C225,97.5,222.7,95.2,219.8,95.2 M217,193H71v-89.8h146V193z"/>
			<path class="st4" d="M144,187c-2.2,0-4-1.8-4-4v-70c0-2.2,1.8-4,4-4s4,1.8,4,4v70C148,185.2,146.2,187,144,187z"/>
			<path class="st4" d="M185.3,116.4c1.9-1.2,2.4-3.7,1.2-5.5c-1.2-1.9-3.7-2.4-5.5-1.2c-7.8,4.9-18,10.4-27,12v8.1
				C162.8,128.5,173.3,124,185.3,116.4"/>
			<path class="st4" d="M195.9,129.5c-1-2-3.3-2.8-5.2-1.8c-11.8,6-24.1,9.7-36.7,10.9v8c13.8-1.2,27.3-5.2,40.2-11.8
				C196.1,133.9,196.9,131.5,195.9,129.5"/>
			<path class="st4" d="M194,155.4c2.1-0.8,3.2-3.1,2.4-5.2c-0.8-2.1-3.2-3.1-5.3-2.3c-16.6,6.1-29.2,7.4-37.1,7.4v8
				C162.5,163.3,176.2,162,194,155.4"/>
			<path class="st4" d="M105.4,109.7c-1.8-1.2-4.3-0.7-5.5,1.1c-1.2,1.8-0.7,4.3,1.1,5.5c13.6,9.1,25.1,12.3,33.1,13.3v-8.1
				C127.1,120.5,117.2,117.6,105.4,109.7"/>
			<path class="st4" d="M96.1,127.7c-1.9-1-4.2-0.3-5.2,1.6c-1,1.9-0.3,4.4,1.6,5.4c8.6,4.8,22.5,10.4,41.6,11.9v-8
				C116.6,137.2,104,132.1,96.1,127.7"/>
			<path class="st4" d="M97.1,147.9c-2.1-0.8-4.5,0.3-5.3,2.3c-0.8,2.1,0.3,4.4,2.4,5.2c17.7,6.5,31.3,7.9,39.8,7.9v-8
				C126.1,155.3,113.6,154,97.1,147.9"/>
			<path class="st4" d="M192.8,171.8c-0.6-2.1-2.9-3.3-5-2.7c-11.5,3.5-25,4.5-33.9,4.8v8c9.3-0.3,23.6-1.4,36.1-5.2
				C192.3,176.2,193.5,174,192.8,171.8"/>
			<path class="st4" d="M100.1,169.2c-2.1-0.6-4.3,0.6-5,2.7c-0.6,2.1,0.6,4.3,2.7,5c12.6,3.8,26.8,4.9,36.2,5.2v-8
				C125.1,173.7,111.7,172.6,100.1,169.2"/>
		</g>
	</g>
</g>
</svg>
