<?xml version="1.0" encoding="utf-8"?>
<!-- Generator: Adobe Illustrator 27.1.0, SVG Export Plug-In . SVG Version: 6.00 Build 0)  -->
<svg version="1.1" id="Layer_1" xmlns="http://www.w3.org/2000/svg" xmlns:xlink="http://www.w3.org/1999/xlink" x="0px" y="0px"
	 viewBox="0 0 288 288" style="enable-background:new 0 0 288 288;" xml:space="preserve">
<style type="text/css">
	.st0{display:none;}
	.st1{display:inline;}
	.st2{fill:#56A5D8;}
	.st3{fill:none;stroke:#56A5D8;stroke-width:0.25;stroke-miterlimit:10;}
	.st4{fill:#FCFBFA;}
</style>
<g id="GUIDES" class="st0">
	<g class="st1">
		<g>
			<path class="st2" d="M144,96.3c26.3,0,47.8,21.4,47.8,47.7s-21.4,47.7-47.8,47.7S96.2,170.3,96.2,144S117.7,96.3,144,96.3
				 M144,96.1c-26.5,0-48,21.5-48,47.9c0,26.5,21.5,47.9,48,47.9s48-21.5,48-47.9C192,117.5,170.5,96.1,144,96.1L144,96.1z"/>
		</g>
		<line class="st3" x1="96" y1="0" x2="96" y2="288"/>
		<line class="st3" x1="192" y1="0" x2="192" y2="288"/>
		<line class="st3" x1="0" y1="192" x2="288" y2="192"/>
		<line class="st3" x1="0" y1="96" x2="288" y2="96"/>
		<g>
			<path class="st2" d="M144,12.4c35.2,0,68.3,13.7,93.2,38.6s38.6,58,38.6,93.2s-13.7,68.3-38.6,93.2S179.2,276,144,276
				s-68.3-13.7-93.2-38.6s-38.6-58-38.6-93.2S26,75.9,50.8,51C75.7,26.1,108.8,12.4,144,12.4 M144,12.1c-72.9,0-132,59.1-132,132
				s59.1,132,132,132s132-59.1,132-132S216.9,12.1,144,12.1L144,12.1z"/>
		</g>
		<g>
			<path class="st2" d="M240,12.2c6.5,0,11.8,5.3,11.8,11.8v240c0,6.5-5.3,11.8-11.8,11.8H48c-6.5,0-11.8-5.3-11.8-11.8V24
				c0-6.5,5.3-11.8,11.8-11.8H240 M240,12H48c-6.6,0-12,5.4-12,12v240c0,6.6,5.4,12,12,12h192c6.6,0,12-5.4,12-12V24
				C252,17.4,246.6,12,240,12L240,12z"/>
		</g>
		<g>
			<path class="st2" d="M264,36.2c6.5,0,11.8,5.3,11.8,11.8v192c0,6.5-5.3,11.8-11.8,11.8H24c-6.5,0-11.8-5.3-11.8-11.8V48
				c0-6.5,5.3-11.8,11.8-11.8H264 M264,36H24c-6.6,0-12,5.4-12,12v192c0,6.6,5.4,12,12,12h240c6.6,0,12-5.4,12-12V48
				C276,41.4,270.6,36,264,36L264,36z"/>
		</g>
		<g>
			<path class="st2" d="M247.8,24.2c8.8,0,16,7.2,16,16v207.6c0,8.8-7.2,16-16,16H40.2c-8.8,0-16-7.2-16-16V40.2c0-8.8,7.2-16,16-16
				H247.8 M247.8,24H40.2C31.3,24,24,31.3,24,40.2v207.6c0,8.9,7.3,16.2,16.2,16.2h207.6c8.9,0,16.2-7.3,16.2-16.2V40.2
				C264,31.3,256.7,24,247.8,24L247.8,24z"/>
		</g>
	</g>
</g>
<g id="ART">
	<path class="st4" d="M244.9,43.4c-1.6-1.6-4.1-1.6-5.7,0l-21,21c-4.4-2.2-9.7-1.6-13.2,1.9l-8.9,9c-1.6-1.3-3.6-2-5.7-2
		c-2.4,0-4.7,0.9-6.4,2.6l-7.8,7.8l-2.1-2.1c-3.5-3.5-9.2-3.5-12.7,0l-91.2,91.2l-4.3-1.4l-2.8,2.8l2.8,2.8l0,0l8.5,8.5l-19.8,19.8
		l-6-6l0,0l-8.5-2.8l-2.8,2.8l50.9,50.9l2.8-2.8l-2.8-8.5l0,0l-5.3-5.3l19.8-19.8l8.5,8.5l0,0l2.8,2.8l2.8-2.8l-1.4-4.3l91.2-91.2
		c1.7-1.7,2.6-4,2.6-6.4s-0.9-4.7-2.6-6.4l-2.1-2.1l7.8-7.8c3.3-3.3,3.5-8.5,0.6-12l9-8.9l0,0c3.5-3.5,4.1-8.8,1.9-13.2l21-21
		C246.5,47.5,246.5,45,244.9,43.4z M77.4,228l-17-17l19.8-19.8l17,17L77.4,228z M201.1,121.2L111.3,211l-2.8-2.8l0,0l-28.3-28.3l0,0
		l-2.8-2.8l9.9-9.9l8.5,8.5l5.7-5.7l-8.5-8.5l10.6-10.6l17.7,17.7l5.7-5.7l-17.7-17.7l10.6-10.6l8.5,8.5l5.7-5.7l-8.5-8.5l10.6-10.6
		l17.7,17.7l5.7-5.7l-17.7-17.7l10.6-10.6l8.5,8.5l5.7-5.7l-8.5-8.5l9.2-9.2c0.4-0.4,1-0.4,1.4,0l2.1,2.1l0,0l19.3,19.3l11.1,11.1
		c0.2,0.2,0.3,0.5,0.3,0.7C201.4,120.7,201.3,121,201.1,121.2z M206.8,98.6l-7.8,7.8l-12.6-12.6l-4.3-4.3l7.8-7.8
		c0.2-0.2,0.5-0.3,0.7-0.3s0.5,0.1,0.7,0.3l15.6,15.6C207.1,97.6,207.1,98.2,206.8,98.6z M216.4,77.6l-9,8.9l-5.5-5.5l8.9-9
		c0.8-0.8,1.8-0.9,2.3-0.9c1,0,2.1,0.5,2.9,1.3c0.8,0.8,1.3,1.8,1.3,2.9C217.3,75.8,217.2,76.8,216.4,77.6z"/>
</g>
</svg>
