<svg id="icon_art" data-name="icon art" xmlns="http://www.w3.org/2000/svg" viewBox="0 0 288 288"><defs><style>.cls-1{fill:#fcfbfa;}</style></defs><title>RMIL_Technology</title><path class="cls-1" d="M148,138v7h-8v-7h-9v-8h17a1.79,1.79,0,0,0,1.82-1.73,1.87,1.87,0,0,0-1.82-1.81h-8.24a9.73,9.73,0,1,1,0-19.46H140v-7h8v7h8v8H139.73a1.84,1.84,0,0,0-1.81,1.79,1.8,1.8,0,0,0,1.81,1.75H148A9.73,9.73,0,0,1,148,138Zm35-15a39,39,0,1,0-39,39A39.05,39.05,0,0,0,183,123Zm-8,0a31,31,0,1,1-31-31A31,31,0,0,1,175,123ZM78,192H210v-8H78Zm34,14h64v-8H112Zm140,7h0v4l-8,4H44l-8-4v-4h0l21-39.21V76a9,9,0,0,1,9-9H222a9,9,0,0,1,9,9v96.32L252,213Zm-27-35H63.87L45.08,213H243ZM65,170H223V76a1,1,0,0,0-1-1H66a1,1,0,0,0-1,1Z"/></svg>