<?xml version="1.0" encoding="utf-8"?>
<!-- Generator: Adobe Illustrator 28.0.0, SVG Export Plug-In . SVG Version: 6.00 Build 0)  -->
<svg version="1.1" xmlns="http://www.w3.org/2000/svg" xmlns:xlink="http://www.w3.org/1999/xlink" x="0px" y="0px"
	 viewBox="0 0 288 288" style="enable-background:new 0 0 288 288;" xml:space="preserve">
<style type="text/css">
	.st0{display:none;}
	.st1{display:inline;}
	.st2{fill:none;stroke:#2AA5DD;stroke-width:0.25;stroke-miterlimit:10;}
	.st3{fill:#2AA5DD;}
	.st4{fill:none;}
	.st5{fill:#FCFBFA;}
</style>
<g id="GUIDES" class="st0">
	<g class="st1">
		<line class="st2" x1="96" y1="0" x2="96" y2="288"/>
		<line class="st2" x1="192" y1="0" x2="192" y2="288"/>
		<g>
			<path class="st3" d="M144,12.4c35.2,0,68.3,13.7,93.2,38.6c24.9,24.9,38.6,58,38.6,93.2s-13.7,68.3-38.6,93.2
				c-24.9,24.9-58,38.6-93.2,38.6c-35.2,0-68.3-13.7-93.2-38.6c-24.9-24.9-38.6-58-38.6-93.2C12.2,109,26,75.9,50.8,51
				C75.7,26.1,108.8,12.4,144,12.4 M144,12.1c-72.9,0-132,59.1-132,132s59.1,132,132,132c72.9,0,132-59.1,132-132
				S216.9,12.1,144,12.1L144,12.1z"/>
		</g>
		<g>
			<path class="st3" d="M240,12.2c6.5,0,11.8,5.3,11.8,11.8v240c0,6.5-5.3,11.8-11.8,11.8H48c-6.5,0-11.8-5.3-11.8-11.8V24
				c0-6.5,5.3-11.8,11.8-11.8H240 M240,12H48c-6.6,0-12,5.4-12,12v240c0,6.6,5.4,12,12,12h192c6.6,0,12-5.4,12-12V24
				C252,17.4,246.6,12,240,12L240,12z"/>
		</g>
		<g>
			<path class="st3" d="M264,36.2c6.5,0,11.8,5.3,11.8,11.8v192c0,6.5-5.3,11.8-11.8,11.8H24c-6.5,0-11.8-5.3-11.8-11.8V48
				c0-6.5,5.3-11.8,11.8-11.8H264 M264,36H24c-6.6,0-12,5.4-12,12v192c0,6.6,5.4,12,12,12h240c6.6,0,12-5.4,12-12V48
				C276,41.4,270.6,36,264,36L264,36z"/>
		</g>
		<g>
			<path class="st3" d="M247.8,24.2c8.8,0,16,7.2,16,16v207.6c0,8.8-7.2,16-16,16H40.2c-8.8,0-16-7.2-16-16V40.2c0-8.8,7.2-16,16-16
				H247.8 M247.8,24H40.2C31.3,24,24,31.3,24,40.2v207.6c0,8.9,7.3,16.2,16.2,16.2h207.6c8.9,0,16.2-7.3,16.2-16.2V40.2
				C264,31.3,256.7,24,247.8,24L247.8,24z"/>
		</g>
		<g>
			<path class="st3" d="M239.8,48.2v191.5H48.2V48.2H239.8 M240,48H48v192h192V48L240,48z"/>
		</g>
		<line class="st2" x1="0" y1="192" x2="288" y2="192"/>
		<line class="st2" x1="0" y1="96" x2="288" y2="96"/>
		<g>
			<path class="st3" d="M144,96.3c26.3,0,47.8,21.4,47.8,47.7c0,26.3-21.4,47.7-47.8,47.7c-26.3,0-47.8-21.4-47.8-47.7
				C96.2,117.7,117.7,96.3,144,96.3 M144,96.1c-26.5,0-48,21.5-48,47.9c0,26.5,21.5,47.9,48,47.9c26.5,0,48-21.5,48-47.9
				C192,117.5,170.5,96.1,144,96.1L144,96.1z"/>
		</g>
	</g>
</g>
<g id="ART">
	<g>
		<polygon class="st4" points="141.2,141.5 83.9,113.9 83.9,178.8 141.2,206.6 		"/>
		<polygon class="st4" points="149.2,141.5 149.2,206.5 204.1,178.9 204.1,114 		"/>
		<polygon class="st4" points="145.2,134.5 199.3,107.5 145.2,79.5 89,107.5 		"/>
		<path class="st5" d="M212.1,105.1l-66.9-34.6l-69.4,34.5v78.8l69.4,33.6l66.9-33.6V105.1z M199.3,107.5l-54.1,27.1L89,107.5
			l56.2-28L199.3,107.5z M83.9,113.9l57.4,27.6v65.1l-57.4-27.8V113.9z M149.2,206.5v-65l54.9-27.4v64.8L149.2,206.5z"/>
		<polygon class="st5" points="204,32 204,40 248,40 248,84 256,84 256,32 		"/>
		<polygon class="st5" points="40,40 84,40 84,32 32,32 32,84 40,84 		"/>
		<polygon class="st5" points="248,248 204,248 204,256 256,256 256,204 248,204 		"/>
		<polygon class="st5" points="40,204 32,204 32,256 84,256 84,248 40,248 		"/>
	</g>
</g>
</svg>
