<svg id="ART" xmlns="http://www.w3.org/2000/svg" viewBox="0 0 288 288"><defs><style>.cls-1{fill:#312d2a;}</style></defs><path class="cls-1" d="M115,64.07A11.19,11.19,0,0,1,126,53h1V47.15h8V53h10v8H126a3.12,3.12,0,0,0-3,3.07A3,3,0,0,0,126,67h10a11,11,0,0,1,0,22h-1v6h-8V89H117V81h19a3,3,0,0,0,0-6H126A11,11,0,0,1,115,64.07ZM93,71a38,38,0,1,1,38,38A38,38,0,0,1,93,71Zm8,0a30,30,0,1,0,30-30A30,30,0,0,0,101,71Zm150,51v64H187V122Zm-56,8v29.09l15.25-15.25,16,16L243,143.09V130Zm48,48V154.41l-16.75,16.75-16-16L195,170.41V178ZM175,72.43A78.36,78.36,0,0,1,216.78,116h8.51a86.39,86.39,0,0,0-50.93-52.45A44.58,44.58,0,0,1,175,71C175,71.48,175,72,175,72.43ZM66,145c0-.33,0-.66,0-1A77.77,77.77,0,0,1,90.25,87.56,43.65,43.65,0,0,1,87.75,79,85.82,85.82,0,0,0,58,144c0,.34,0,.67,0,1Zm78,77c-1,0-2,0-3-.08v8c1,0,2,.08,3,.08a86,86,0,0,0,71.32-38h-9.91A77.88,77.88,0,0,1,144,222ZM46,151h89v93H46V151Zm81,81.41A12.21,12.21,0,0,0,115,220H102.86l-12.2,13.45L78.28,220H67c-6.91,0-13,5.78-13,12.37V236h73ZM78,183v10c0,6.51,5.67,11.82,12.64,11.82A12.64,12.64,0,0,0,103,192.24V181.8a14.7,14.7,0,0,1-6,1.2Zm19-8a5.25,5.25,0,0,0,5.55-4H85c-1.52,0-5,0-6.42,4ZM84,214.43l6.61,7.19L97,214.57v-2.84a19.57,19.57,0,0,1-6.36,1.09A21,21,0,0,1,84,211.74ZM54,159v57.55A21.11,21.11,0,0,1,67,212h9V207A19.36,19.36,0,0,1,70,193V179c0-9.87,5.75-16,15-16h26v29.24a20.59,20.59,0,0,1-6,14.42V212h10a19.61,19.61,0,0,1,12,4.12V159Z"/></svg>