<svg id="ART" xmlns="http://www.w3.org/2000/svg" viewBox="0 0 288 288"><defs><style>.cls-1{fill:#312d2a;}</style></defs><path class="cls-1" d="M222.65,215.29A10.3,10.3,0,0,1,215.4,218a10.43,10.43,0,0,1-7.22-2.66L205.24,212l-3,3.34A10.3,10.3,0,0,1,195,218a10.77,10.77,0,0,1-6.7-2.21c2-21.56,5-45.62,14.31-65.07l2.17-4.55-7.78-1.7V129h10v-4l-8-4h-2v-6h10v-4l-8-4H89l-8,4v4H91v6H89l-8,4v4H91v15.47l-7.78,1.7,2.17,4.55c9.26,19.45,12.35,43.5,14.31,65.07A10.77,10.77,0,0,1,93,218a10.43,10.43,0,0,1-7.22-2.66L82.84,212l-3,3.34A10.3,10.3,0,0,1,72.6,218a10.43,10.43,0,0,1-7.22-2.66l-6,5.32A18,18,0,0,0,72.6,226a18.84,18.84,0,0,0,10.2-2.9,19.39,19.39,0,0,0,20.4,0,19.39,19.39,0,0,0,20.4,0,19.39,19.39,0,0,0,20.4,0,19.39,19.39,0,0,0,20.4,0,19.39,19.39,0,0,0,20.4,0,19.39,19.39,0,0,0,20.4,0,18.84,18.84,0,0,0,10.2,2.9,18,18,0,0,0,13.18-5.34Zm-128-63.43L140,142v5.81L96.76,157.3C96.09,155.46,95.4,153.64,94.66,151.86ZM148,142l45.34,9.89c-.74,1.78-1.43,3.6-2.1,5.44L148,147.78Zm41-21H173v-6h16Zm-66,0v-6h17v6Zm25-6h17v6H148Zm-49,0h16v6H99Zm0,14h90v13.72l-45-9.81-45,9.81Zm68.38,86.34L164.44,212l-3,3.34a11.1,11.1,0,0,1-14.48.05L144,212l-3,3.34a11.1,11.1,0,0,1-14.48.05L123.64,212l-3,3.34A10.36,10.36,0,0,1,113.4,218a11,11,0,0,1-5.6-1.47c-1.48-16.6-3.57-34.76-8.54-51.59L140,156v50h8V156l40.74,9c-5,16.82-7.06,35-8.54,51.59a11,11,0,0,1-5.6,1.47A10.43,10.43,0,0,1,167.38,215.34ZM104,101V97l8-4h65l8,4v4Zm66-14V83l-8-4h-5.17l-2.19-23H134.36l-2.19,23H127l-8,4v4ZM141.64,64h5.72l1.43,15h-8.58Z"/></svg>