<svg id="ART" xmlns="http://www.w3.org/2000/svg" viewBox="0 0 288 288"><defs><style>.cls-1{fill:#fcfbfa;}</style></defs><path class="cls-1" d="M158,99v4h0l4,8h4V79h-4l-4,8h0v4H148V79h-8V91H130V87h0l-4-8h-4v32h4l4-8h0V99h8.78L107.21,216h8.28L121,195.68l19-19V216h8V176.66l19,19L172.51,216h8.28L149.22,99Zm-10,26.18,6.83,25.33L148,157.34Zm-8,32.16-6.83-6.83L140,125.18Zm-9.24,2.08,7.58,7.58-13.18,13.19Zm18.9,7.58,7.58-7.58,5.6,20.77ZM89,95a36.73,36.73,0,0,0,10.85,26.15l-5.66,5.66a45,45,0,0,1,0-63.62l5.66,5.66A36.73,36.73,0,0,0,89,95Zm20.74,16.26-5.66,5.66a31,31,0,0,1,0-43.84l5.66,5.66a23,23,0,0,0,0,32.52ZM206.91,95a44.71,44.71,0,0,1-13.2,31.81l-5.65-5.66a36.94,36.94,0,0,0,0-52.3l5.65-5.66A44.71,44.71,0,0,1,206.91,95Zm-14,0a30.81,30.81,0,0,1-9.08,21.92l-5.66-5.66a23,23,0,0,0,0-32.52l5.66-5.66A30.81,30.81,0,0,1,192.91,95Z"/></svg>