<?xml version="1.0" encoding="utf-8"?>
<!-- Generator: Adobe Illustrator 28.0.0, SVG Export Plug-In . SVG Version: 6.00 Build 0)  -->
<svg version="1.1" id="ART" xmlns="http://www.w3.org/2000/svg" xmlns:xlink="http://www.w3.org/1999/xlink" x="0px" y="0px"
	 viewBox="0 0 288 288" style="enable-background:new 0 0 288 288;" xml:space="preserve">
<style type="text/css">
	.st0{fill:#FCFBFA;}
</style>
<g>
	<path class="st0" d="M227.4,185.8l-3.6-9.8l-0.2-0.3c-4.8-7.7-14.9-10.4-22.9-6.1l-20.5,10.9l-51.7-12.4l-0.4-0.1
		c-1.9-0.3-11.8-1.5-16.9,0.2c-0.8,0.2-1.8,0.6-3,1.1c-1.6,0.6-4.8,1.9-5.9,2.1h-5.8v-4h-36v62h36v-14H98c3,0.9,13,3.6,23.5,6.5
		c10.7,2.9,22.9,6.2,24.5,6.8h0.1c1.7,0.5,3.4,0.7,5,0.7c5.9,0,10.6-2.8,11.3-3.2v-0.1c2.8-1.6,13.8-8.4,62.4-38.7L227.4,185.8z
		 M68.6,221.4v-46h20v46H68.6z M158.7,219.1l-0.6,0.3c-1.4,0.9-5.9,2.8-9.8,1.6c-1.8-0.6-10.6-3-24.8-6.9c-10.4-2.8-22.1-6-23.8-6.6
		l-0.6-0.2h-2.6v-28h6h0.3c2-0.2,4.7-1.2,8.3-2.6c1-0.4,2-0.8,2.5-1c2.5-0.8,9.1-0.4,13.1,0.1l44,10.5l-0.2,0.9l-1.4,3.6
		c-1.4,1-2.7,2-3.2,2.3l-0.3,0.1c-2.1,1-4.9,2.3-6.7,2.1l-19.4-3.4l-1.4,7.9l19.6,3.5h0.3c0.4,0,0.8,0.1,1.2,0.1
		c3.5,0,7-1.6,9.8-2.9l0.5-0.3c0.4-0.2,0.6-0.3,5.3-3.7l0.9-0.7l2.1-5.3l26.5-14.1c4.2-2.3,9.5-1,12.2,3l1.1,2.9
		C197.3,195.1,163.3,216.3,158.7,219.1z"/>
	<circle class="st0" cx="78.6" cy="211.4" r="4"/>
	<path class="st0" d="M102.6,80.3c-7.7,11-10.6,24.4-8.2,37.7s9.8,24.8,20.9,32.5c8.6,5.9,18.5,9,28.7,9c3,0,6-0.3,9.1-0.8
		c13.3-2.4,24.8-9.8,32.5-20.9s10.6-24.5,8.2-37.8s-9.8-24.8-20.9-32.5c-11.1-7.7-24.5-10.6-37.8-8.2
		C121.8,61.8,110.3,69.2,102.6,80.3z M144.1,66.6c20.2,0,38.1,14.4,41.8,35c2,11.2-0.4,22.5-6.9,31.8S162.8,149,151.6,151
		s-22.5-0.4-31.8-6.9s-15.6-16.2-17.6-27.4s0.4-22.5,6.9-31.8s16.2-15.6,27.4-17.6C139.1,66.8,141.6,66.6,144.1,66.6z"/>
	<path class="st0" d="M116.3,103.3c5.2,5.6,12.1,11.6,20.1,17.2s16,10,23.1,12.9c3.6,1.5,7.8,0.2,10.1-3l4.8-6.9L159.5,113l-4.7,6.7
		c-0.5,0.8-1.6,1-2.3,0.4L131,105.2c-0.8-0.5-1-1.6-0.4-2.3l4.6-6.7l-14.9-10.4l-4.8,6.9C113.3,96,113.6,100.4,116.3,103.3z"/>
</g>
</svg>
