<?xml version="1.0" encoding="utf-8"?>
<!-- Generator: Adobe Illustrator 27.1.0, SVG Export Plug-In . SVG Version: 6.00 Build 0)  -->
<svg version="1.1" id="ART" xmlns="http://www.w3.org/2000/svg" xmlns:xlink="http://www.w3.org/1999/xlink" x="0px" y="0px"
	 viewBox="0 0 288 288" style="enable-background:new 0 0 288 288;" xml:space="preserve">
<style type="text/css">
	.st0{fill:#FCFBFA;}
</style>
<path class="st0" d="M191,103.8V82.2h-13.3V65.1h6.2c1.2,0.5,3.9,2,3.9,5.9h8c0-8.6-6.7-12.8-10.2-13.7l-0.5-0.1H135v8h34.7v17.1
	h-13.3v16.4c2.3,4.1,4.3,8.5,5.5,12.9h24.4c13.6,0,24.7,11.1,24.7,24.7v87.6h-74.5V208c-2.1,0.8-4.9,1.6-8,1.8v21.9H219v-95.6
	C218.9,119.8,206.8,106.1,191,103.8L191,103.8z M164.4,103.5V90.2H183v13.3H164.4z"/>
<path class="st0" d="M137.8,200.6c2.8-1.6,13.8-8.4,62.4-38.7l2.8-1.7l-3.6-9.8L199,150c-4.8-7.7-14.9-10.4-22.9-6.1l-20.5,10.9
	l-51.7-12.4l-0.4-0.1c-1.9-0.3-11.8-1.4-16.9,0.2c-0.8,0.2-1.8,0.6-3,1.1c-1.6,0.6-4.8,1.9-5.9,2.1h-5.8v-4H36v62h36v-14h1.4
	c3,0.9,13,3.6,23.5,6.5c10.7,2.9,22.9,6.2,24.4,6.8h0.1c1.7,0.5,3.4,0.7,5,0.7C132.4,203.9,137.1,201.1,137.8,200.6L137.8,200.6z
	 M64,195.9H44v-46h20V195.9z M133.6,193.9c-1.4,0.9-5.9,2.8-9.8,1.6c-1.8-0.6-10.6-3-24.8-6.9c-10.4-2.8-22.2-6-23.8-6.6l-0.6-0.2
	H72v-28h6h0.3c1.9-0.2,4.7-1.2,8.3-2.6c1-0.4,2-0.8,2.5-1c2.4-0.8,9.1-0.4,13.1,0.1l44,10.5l-0.2,0.9l-1.4,3.6c-1.4,1-2.7,2-3.2,2.3
	l-0.3,0.1c-2.1,0.9-4.9,2.2-6.7,2.1l-19.4-3.4l-1.4,7.9l19.6,3.5h0.3c0.4,0,0.8,0.1,1.2,0.1c3.5,0,7-1.6,9.8-2.9l0.6-0.3
	c0.4-0.2,0.6-0.3,5.3-3.7l0.9-0.7l2.1-5.3l26.5-14.1c4.2-2.3,9.5-1,12.1,3l1.1,2.9c-20.4,12.7-54.4,33.9-58.9,36.7L133.6,193.9
	L133.6,193.9z"/>
<path class="st0" d="M135.2,142.7c12.1,0,22-9.9,22-22c0-13-10.6-27.1-16.9-34.3l-5.1-5.8l-5.1,5.8c-6.3,7.2-16.9,21.2-16.9,34.3
	C113.2,132.9,123,142.7,135.2,142.7z M135.2,92.8c8.9,10.4,14,20.6,14,27.9c0,7.7-6.3,14-14,14s-14-6.3-14-14
	S126.3,103.3,135.2,92.8z"/>
</svg>
