<?xml version="1.0" encoding="UTF-8"?>
<svg id="ART" xmlns="http://www.w3.org/2000/svg" viewBox="0 0 288 288">
  <defs>
    <style>
      .cls-1 {
        fill: #312d2a;
      }
    </style>
  </defs>
  <path class="cls-1" d="M170.95,172.67l14.42-19.06-2.87-3.13-19.33,14.29-.39-.27c-13.5-9.55-31.92-8.14-43.81,3.35-13.73,13.21-14.15,35.12-.95,48.85.95.99,1.97,1.93,3.05,2.82l1.14.9h41.29l1.11-.91c14.06-11.37,16.9-31.85,6.47-46.62l-.13-.19ZM168.85,197.13c-.69,4.09-2.33,7.93-4.82,11.26l-4.72-4.72-5.78,5.78,2.83,2.83h-27.2l2.85-2.83-5.83-5.77-4.62,4.65c-2.47-3.29-4.11-7.1-4.81-11.16h6.58v-8.26h-6.53c.59-4.2,2.18-8.15,4.66-11.58l4.74,4.77,5.81-5.82-4.82-4.79c3.33-2.49,7.18-4.13,11.28-4.82v7.12h8.19v-7.19c3.34.49,6.57,1.63,9.48,3.35l-12.87,9.51c-.06,0-.12,0-.17,0-3.79,0-7.37,1.64-9.78,4.46-.52.58-.99,1.24-1.32,1.84-3.29,5.47-2.14,12.43,2.74,16.53,2.32,1.99,5.26,3.08,8.27,3.08h.16c2.16,0,4.31-.55,6.21-1.59,4.16-2.28,6.71-6.68,6.67-11.39l9.65-12.76c1.66,2.87,2.77,6.04,3.24,9.32h-7.16v8.19h7.06ZM147.43,192.49c0,2.18-1.77,3.95-3.95,3.95s-3.95-1.77-3.95-3.95,1.77-3.95,3.95-3.95,3.95,1.77,3.95,3.95Z"/>
  <path class="cls-1" d="M94.06,160.81c5.35-3.6,8.6-9.72,8.6-16.43s-3.25-12.83-8.6-16.43c-1.93-8.82-9.51-15.24-18.38-15.24h-7.37v63.35h7.37c8.87,0,16.45-6.42,18.38-15.24ZM86.69,155.77l-.24,2.1c-.64,5.58-4.95,9.84-10.14,10.16v-6.65h.72c2.21,0,4-1.79,4-4s-1.79-4-4-4h-.72v-5h5.52c2.21,0,4-1.79,4-4s-1.79-4-4-4h-5.52v-5h.72c2.21,0,4-1.79,4-4s-1.79-4-4-4h-.72v-6.65c5.19.32,9.5,4.58,10.14,10.16l.24,2.1,1.87.98c3.76,1.98,6.1,5.97,6.1,10.41s-2.34,8.43-6.1,10.41l-1.87.98Z"/>
  <path class="cls-1" d="M37.12,127.95c-5.35,3.6-8.6,9.72-8.6,16.43s3.25,12.83,8.6,16.43c1.93,8.82,9.51,15.24,18.38,15.24h7.37v-63.35h-7.37c-8.87,0-16.45,6.42-18.38,15.24ZM54.88,127.38h-.72c-2.21,0-4,1.79-4,4s1.79,4,4,4h.72v5h-5.52c-2.21,0-4,1.79-4,4s1.79,4,4,4h5.52v5h-.72c-2.21,0-4,1.79-4,4s1.79,4,4,4h.72v6.65c-5.19-.32-9.5-4.58-10.14-10.16l-.24-2.1-1.87-.98c-3.76-1.98-6.1-5.97-6.1-10.41s2.34-8.43,6.1-10.41l1.87-.98.24-2.1c.64-5.58,4.95-9.84,10.14-10.16v6.65Z"/>
  <path class="cls-1" d="M237.18,79.56h-69.01v38.41h69.01l22.3-19.2-22.3-19.21ZM234.2,109.97h-58.04v-22.41h58.04l13.01,11.21-13.01,11.2Z"/>
  <polygon class="cls-1" points="182.07 94.84 182.07 97.65 185 96.9 185 105.56 189.56 105.56 189.56 91.81 186.37 91.81 182.07 94.84"/>
  <path class="cls-1" d="M206.5,101.22c.76-.82,1.36-1.53,1.8-2.12.46-.62.79-1.19.99-1.7.21-.53.31-1.08.31-1.62,0-1.34-.45-2.39-1.35-3.13-.87-.72-2.09-1.09-3.64-1.09-.63,0-1.28.08-1.93.23-.65.15-1.34.37-2.06.67l-.31.13v4.26l.73-.39c.65-.34,1.2-.59,1.64-.73.83-.27,1.67-.29,2.1.04.18.14.26.31.26.55,0,.09-.04.35-.4.88-.31.46-.86,1.11-1.62,1.92l-3.01,3.26v3.19h9.64v-4.09h-3.38l.23-.25Z"/>
  <path class="cls-1" d="M226.78,96.98l2.1-1.96v-3.21h-9.09v3.92h3.3l-2.39,2.22,1.48,2.48.4-.16c1.1-.45,2.01-.48,2.34-.13.16.17.24.4.24.68,0,.32-.12.55-.36.74-.28.22-.69.32-1.22.32-1.17,0-2.27-.27-3.27-.8l-.73-.39v4.06l.25.14c1.08.61,2.39.92,3.89.92,1.74,0,3.13-.42,4.13-1.26,1.03-.86,1.56-2.05,1.56-3.54,0-1.13-.31-2.09-.93-2.84-.44-.53-1.01-.93-1.71-1.19Z"/>
  <path class="cls-1" d="M182.2,125.97c6.34,13.22,10.84,27.56,10.84,41.18,0,5.66-.96,11.24-2.79,16.52-1.33-7.41-4.38-14.23-8.7-20.04l-5.56,7.05c4.05,6.19,6.42,13.58,6.42,21.51,0,1.75-.55,5.45-1.2,7.99l8.29,2.25c.05-.2.11-.4.16-.6,7.35-10.01,11.38-22.19,11.38-34.67,0-13.61-4.05-27.85-10.01-41.18h-8.83Z"/>
  <path class="cls-1" d="M101.55,123.69c2.42-5.94,5.17-11.42,8.1-15.96l23.57,22.85,17.98-49.27c2.69,2.69,5.76,6.11,8.98,10.08v-12.32c-2.95-3.17-5.71-5.83-8.13-7.84l-4.37-3.62-17.75,48.65-21.31-20.67-2.73,3.58c-3.33,4.36-6.48,9.83-9.31,15.9,1.9,2.41,3.43,5.15,4.45,8.15.18.15.35.31.52.47Z"/>
  <path class="cls-1" d="M143.03,152.8c8.09,0,15.61,2.45,21.87,6.65l7.01-5.56c-8.04-6.08-18.04-9.7-28.88-9.7-24.29,0-44.4,18.13-47.56,41.57-1.06-2.69-1.88-5.46-2.48-8.3-2.14,1.86-4.55,3.39-7.16,4.5,1.92,7.34,5.25,14.29,9.84,20.39l8.75-2.37c-.51-2.55-.79-5.16-.79-7.79,0-21.72,17.67-39.39,39.39-39.39Z"/>
</svg>