<?xml version="1.0" encoding="utf-8"?>
<!-- Generator: Adobe Illustrator 28.0.0, SVG Export Plug-In . SVG Version: 6.00 Build 0)  -->
<svg version="1.1" id="ART" xmlns="http://www.w3.org/2000/svg" xmlns:xlink="http://www.w3.org/1999/xlink" x="0px" y="0px"
	 viewBox="0 0 288 288" style="enable-background:new 0 0 288 288;" xml:space="preserve">
<style type="text/css">
	.st0{fill:#FCFBFA;}
</style>
<g>
	<g>
		<g>
			<path class="st0" d="M171.1,131.2c-4.2-12.4-12.3-25.9-24.1-40.1l-3.1-3.7l-3.1,3.7c-11,13.2-18.9,26.3-23.6,38.8
				c-1.2,3.2-1.8,6.5-1.8,9.9c0,15.7,12.8,28.5,28.5,28.5c15.7,0,28.5-12.8,28.5-28.5C172.5,136.1,171.7,133.1,171.1,131.2z
				 M148.1,160c3.1-1.5,5.2-4.7,5.2-8.3c0-1.3-0.2-2.3-0.4-2.8c-1.9-5.6-5.6-10.9-8.8-14.7c-5.3,6.4-7.7,11.4-8.7,14.2
				c-0.3,0.7-0.6,1.8-0.6,3.2c0,3.7,2.1,6.9,5.2,8.4c-9.3-1.9-16.4-10.2-16.4-20.1c0-2.5,0.4-4.8,1.3-7.1
				c3.9-10.5,10.4-21.5,19.2-32.7c9.5,12,16,23.3,19.5,33.7c0.4,1,0.9,3.2,0.9,6.1C164.5,149.8,157.4,158.1,148.1,160z"/>
		</g>
	</g>
	<g>
		<path class="st0" d="M203.3,198.9c-0.8,1-2,1.7-3.2,1.7H88c-1.3,0-2.5-0.6-3.3-1.7c-0.8-1.1-0.9-2.4-0.5-3.6l5.4-15.4
			c0.6-1.6,2.1-2.7,3.8-2.7l20.4-0.1c0,0,0,0,0,0c2.2,0,4,1.8,4,4c0,2.2-1.8,4-4,4l-17.6,0.1l-2.6,7.4H140v-10c0-2.2,1.8-4,4-4
			c2.2,0,4,1.8,4,4v10h46.4l-2.7-7.8l-17.3,0.1c0,0,0,0,0,0c-2.2,0-4-1.8-4-4c0-2.2,1.8-4,4-4l20.1-0.1c0,0,0,0,0,0
			c1.7,0,3.2,1.1,3.8,2.7l5.4,15.8C204.2,196.5,204,197.8,203.3,198.9z"/>
	</g>
</g>
</svg>
