<svg id="ART" xmlns="http://www.w3.org/2000/svg" viewBox="0 0 288 288"><defs><style>.cls-1{fill:#fcfbfa;}</style></defs><path class="cls-1" d="M235,67H53a9,9,0,0,0-9,9V183a9,9,0,0,0,9,9h68.68l-2.86,21H109l-8,4v4h86v-4l-8-4h-9.81l-2.87-21H235a9,9,0,0,0,9-9V76A9,9,0,0,0,235,67ZM53,75H235a1,1,0,0,1,1,1v92H52V76A1,1,0,0,1,53,75ZM161.12,213H126.89l2.86-21h28.5ZM235,184H53a1,1,0,0,1-1-1v-7H236v7A1,1,0,0,1,235,184ZM98.33,145.07H87V104h35v3h8V96H118V94.19a13.2,13.2,0,0,0-26.39,0V96H79v57.07H97.92ZM99.6,94.19a5.2,5.2,0,0,1,10.39,0V96H99.6ZM103.47,162H166l-2.51-49H106Zm10.11-41h42.3l1.69,33H111.89Zm26.34,6h8v1.84a13.19,13.19,0,0,1-26.38,0V127h8v1.84a5.19,5.19,0,0,0,10.38,0ZM208,118H176v-8h32Zm-7,14H176v-8h25Z"/></svg>