<?xml version="1.0" encoding="utf-8"?>
<!-- Generator: Adobe Illustrator 24.2.1, SVG Export Plug-In . SVG Version: 6.00 Build 0)  -->
<svg version="1.1" id="ART" xmlns="http://www.w3.org/2000/svg" xmlns:xlink="http://www.w3.org/1999/xlink" x="0px" y="0px"
	 viewBox="0 0 288 288" style="enable-background:new 0 0 288 288;" xml:space="preserve">
<style type="text/css">
	.st0{fill:#FCFBFA;}
</style>
<g>
	<path class="st0" d="M248.7,60.7c-0.6-2.6-2.2-4.8-4.5-6.2l-15.4-9.4c-1.6-1-3.4-1.5-5.2-1.5c-3.5,0-6.7,1.8-8.5,4.8L203,68.1V50
		c0-5.5-4.4-10-10-10h-18c-5.5,0-10,4.5-10,10v88c0,5.5,4.5,10,10,10h18c4.1,0,7.5-2.4,9.1-5.9l45.4-73.8
		C248.9,66,249.3,63.3,248.7,60.7z M210.4,71.3l18.7,11.5l-9.4,15.3L203,87.8v-4.5L210.4,71.3z M173,72h22v18h-22V72z M173,98h22
		v17.1h-22V98z M203,117.3V97.2l12.6,7.7l-8.9,14.6L203,117.3z M175,48h18c1.1,0,2,0.9,2,2v14h-22V50C173,48.9,173.9,48,175,48z
		 M193,140h-18c-1.1,0-2-0.9-2-2v-14.9h22V138c0,0.2,0,0.4-0.1,0.5l-0.3,0.5l0.1,0C194.4,139.6,193.7,140,193,140z M240.7,64.1
		L233.4,76l-18.7-11.5l7.3-11.9c0.4-0.6,1-1,1.7-1c0.4,0,0.7,0.1,1,0.3l15.4,9.4c0.6,0.4,0.8,0.9,0.9,1.2
		C241,62.8,241.1,63.4,240.7,64.1z"/>
	<path class="st0" d="M61,91h62v24h23.1v43h8v-51.5L130.6,83H53v120h73v-8H61V91z M131,94.7l12.3,12.3H131V94.7z"/>
	<path class="st0" d="M82.5,163H92l2.5-9H110l2.5,9h10L107,122h-9L82.5,163z M107.5,147L97,147l5-16L107.5,147z"/>
	<path class="st0" d="M187.9,130c-1.7,0-3.1,1.4-3.1,3.1c0,1.7,1.4,3.1,3.1,3.1s3.1-1.4,3.1-3.1C191,131.4,189.6,130,187.9,130z"/>
	<path class="st0" d="M215,171v-4h-8v4h-3.9l-3.2-7.5c-1.4-3.3-4.7-5.5-8.3-5.5h-15.2c-3.8,0-7.2,2.4-8.5,6l-2.5,7h-4.5
		c-0.5-3.9-3.9-7-7.9-7h-4c-4.1,0-7.4,3.1-7.9,7H141c-5,0-9,4-9,9v47c0,5,4,9,9,9h74c5,0,9-4,9-9v-47C224,175,220,171,215,171z
		 M175.5,166.7c0.1-0.4,0.5-0.7,0.9-0.7h15.2c0.4,0,0.8,0.2,0.9,0.6l1.9,4.4H174L175.5,166.7z M216,227c0,0.6-0.4,1-1,1h-74
		c-0.6,0-1-0.4-1-1v-47c0-0.6,0.4-1,1-1h74c0.6,0,1,0.4,1,1V227z"/>
	<path class="st0" d="M184.4,183c-11.3,0-20.5,9.2-20.5,20.5s9.2,20.5,20.5,20.5s20.5-9.2,20.5-20.5S195.7,183,184.4,183z
		 M184.4,216c-6.9,0-12.5-5.6-12.5-12.5s5.6-12.5,12.5-12.5s12.5,5.6,12.5,12.5S191.3,216,184.4,216z"/>
	<circle class="st0" cx="208" cy="187" r="4"/>
	<rect x="145" y="183" class="st0" width="14" height="8"/>
</g>
</svg>
