<?xml version="1.0" encoding="utf-8"?>
<!-- Generator: Adobe Illustrator 24.0.3, SVG Export Plug-In . SVG Version: 6.00 Build 0)  -->
<svg version="1.1" id="ART" xmlns="http://www.w3.org/2000/svg" xmlns:xlink="http://www.w3.org/1999/xlink" x="0px" y="0px"
	 viewBox="0 0 288 288" style="enable-background:new 0 0 288 288;" xml:space="preserve">
<style type="text/css">
	.st0{fill:#312D2A;}
</style>
<path class="st0" d="M181.7,47H74v125.8c2.6-1,5.3-1.8,8-2.2V55h91v33h33v132h-76.9c-0.6,2.8-1.5,5.4-2.7,8H214V79.3L181.7,47z
	 M181,57.7L203.3,80H181V57.7z M89,176c-19.3,0-35,15.7-35,35s15.7,35,35,35s35-15.7,35-35l0,0C124,191.7,108.3,176,89,176z M89,238
	c-14.9,0-27-12.1-27-27s12.1-27,27-27s27,12.1,27,27l0,0C116,225.9,103.9,238,89,238z M84.2,214.7l-6.4-6.4l-5.7,5.7l12,12
	l21.6-21.6l-5.7-5.6L84.2,214.7z M99,165v4h90v-4l-6-3v-26h6v-8h-6v-13h-16.4c-1.7-9.5-9.1-17-18.6-18.7V89h-8v7.3
	c-9.5,1.7-16.9,9.1-18.6,18.7H105v13h-6v8h6v26L99,165z M133,136v25h-6v-25H133z M161,136v25h-6v-25H161z M147,161h-6v-25h6V161z
	 M175,161h-6v-25h6V161z M144,104c6.7,0,12.6,4.5,14.4,11h-28.9C131.4,108.5,137.3,104,144,104z M113,123h62v5h-62V123z M119,136v25
	h-6v-25H119z"/>
</svg>
