<svg id="ART" xmlns="http://www.w3.org/2000/svg" viewBox="0 0 288 288"><defs><style>.cls-1{fill:#fcfbfa;}</style></defs><path class="cls-1" d="M188,55.08H100a11,11,0,0,0-11,11V221.91a11,11,0,0,0,11,11h88a11,11,0,0,0,11-11V66.08A11,11,0,0,0,188,55.08ZM100,63h88a3.09,3.09,0,0,1,3,3.08V205H97V66.08A3.09,3.09,0,0,1,100,63Zm88,162H100a3.1,3.1,0,0,1-3-3.09V213h94v8.91A3.1,3.1,0,0,1,188,225ZM105,87V75a4,4,0,0,1,4-4h12a4,4,0,0,1,4,4V87a4,4,0,0,1-4,4H109A4,4,0,0,1,105,87Zm29,0V75a4,4,0,0,1,4-4h12a4,4,0,0,1,4,4V87a4,4,0,0,1-4,4H138A4,4,0,0,1,134,87Zm29,0V75a4,4,0,0,1,4-4h12a4,4,0,0,1,4,4V87a4,4,0,0,1-4,4H167A4,4,0,0,1,163,87Zm0,28V103a4,4,0,0,1,4-4h12a4,4,0,0,1,4,4v12a4,4,0,0,1-4,4H167A4,4,0,0,1,163,115Zm-58,0V103a4,4,0,0,1,4-4h12a4,4,0,0,1,4,4v12a4,4,0,0,1-4,4H109A4,4,0,0,1,105,115Zm29,0V103a4,4,0,0,1,4-4h12a4,4,0,0,1,4,4v12a4,4,0,0,1-4,4H138A4,4,0,0,1,134,115Zm0,28V131a4,4,0,0,1,4-4h12a4,4,0,0,1,4,4v12a4,4,0,0,1-4,4H138A4,4,0,0,1,134,143Zm-29,0V131a4,4,0,0,1,4-4h12a4,4,0,0,1,4,4v12a4,4,0,0,1-4,4H109A4,4,0,0,1,105,143Z"/></svg>