<?xml version="1.0" encoding="utf-8"?>
<!-- Generator: Adobe Illustrator 27.1.0, SVG Export Plug-In . SVG Version: 6.00 Build 0)  -->
<svg version="1.1" id="ART" xmlns="http://www.w3.org/2000/svg" xmlns:xlink="http://www.w3.org/1999/xlink" x="0px" y="0px"
	 viewBox="0 0 288 288" style="enable-background:new 0 0 288 288;" xml:space="preserve">
<style type="text/css">
	.st0{fill:#312D2A;}
</style>
<g>
	<path class="st0" d="M79,139.5l-1.2-1.6h-9.2c-18,0-32.6,14.6-32.6,32.6V229h8v-58.4c0-13.6,11-24.6,24.6-24.6H74
		c7.7,9.2,18.3,15,30.1,16.6v-8.1C94.2,152.9,85.3,147.6,79,139.5"/>
	<path class="st0" d="M111.5,37C85.3,37,64,58.3,64,84.5S85.3,132,111.5,132S159,110.7,159,84.5S137.7,37,111.5,37 M111.5,45
		c13.6,0,25.7,7,32.8,17.5h-17.8c-1.8-6.6-7.8-11.5-15-11.5s-13.2,4.9-15,11.5H78.7C85.8,51.9,97.9,45,111.5,45 M119,66.5
		c0,4.1-3.4,7.5-7.5,7.5s-7.5-3.4-7.5-7.5s3.4-7.5,7.5-7.5S119,62.3,119,66.5 M111.5,124C89.7,124,72,106.3,72,84.5
		c0-4.9,0.9-9.7,2.6-14h22c1.8,6.6,7.8,11.5,15,11.5s13.2-4.9,15-11.5h22c1.7,4.3,2.6,9.1,2.6,14C151,106.3,133.3,124,111.5,124"/>
</g>
<g>
	<path class="st0" d="M249.8,245H115.2c-2.8,0-5.2-2.3-5.2-5.2v-93.7c0-2.9,2.3-5.2,5.2-5.2h134.7c2.9,0,5.2,2.3,5.2,5.2v93.7
		C255,242.7,252.7,245,249.8,245 M118,237h129v-88H118V237z"/>
	<path class="st0" d="M182.9,231c-2.2,0-4-1.8-4-4v-68c0-2.2,1.8-4,4-4s4,1.8,4,4v68C186.9,229.2,185.2,231,182.9,231z"/>
	<path class="st0" d="M224.3,162.4c1.9-1.2,2.4-3.7,1.2-5.5s-3.7-2.4-5.5-1.2c-7.8,4.9-18,10.4-27,12v8.1
		C201.8,174.5,212.2,170,224.3,162.4"/>
	<path class="st0" d="M234.9,175.5c-0.9-2-3.3-2.8-5.2-1.8c-11.8,6-24.1,9.7-36.7,10.9v8c13.8-1.2,27.3-5.2,40.2-11.8
		C235.1,179.8,235.8,177.4,234.9,175.5"/>
	<path class="st0" d="M233,201.4c2.1-0.8,3.2-3.1,2.4-5.2c-0.8-2.1-3.2-3.1-5.3-2.3c-16.6,6.1-29.2,7.4-37.1,7.4v8
		C201.5,209.3,215.2,207.9,233,201.4"/>
	<path class="st0" d="M144.3,155.6c-1.8-1.2-4.3-0.7-5.6,1.1c-1.2,1.8-0.7,4.3,1.1,5.6c13.6,9.1,25.1,12.3,33.1,13.3v-8.1
		C166.1,166.5,156.1,163.5,144.3,155.6"/>
	<path class="st0" d="M135.1,173.7c-1.9-1-4.2-0.3-5.2,1.6s-0.3,4.4,1.6,5.4c8.6,4.8,22.5,10.4,41.6,11.9v-8
		C155.5,183.2,142.9,178.1,135.1,173.7"/>
	<path class="st0" d="M136.1,193.9c-2.1-0.8-4.5,0.2-5.3,2.3c-0.8,2.1,0.3,4.4,2.4,5.2c17.7,6.5,31.3,7.9,39.8,7.9v-8
		C165.1,201.2,152.5,200,136.1,193.9"/>
	<path class="st0" d="M231.8,217.8c-0.6-2.1-2.9-3.3-5-2.7c-11.5,3.5-24.9,4.5-33.8,4.8v8c9.3-0.3,23.6-1.4,36.1-5.1
		C231.2,222.2,232.4,220,231.8,217.8"/>
	<path class="st0" d="M139.1,215.1c-2.1-0.6-4.4,0.6-5,2.7c-0.6,2.1,0.6,4.3,2.7,5c12.6,3.8,26.8,4.9,36.2,5.1v-8
		C164.1,219.6,150.6,218.6,139.1,215.1"/>
</g>
</svg>
