<?xml version="1.0" encoding="utf-8"?>
<!-- Generator: Adobe Illustrator 24.0.3, SVG Export Plug-In . SVG Version: 6.00 Build 0)  -->
<svg version="1.1" id="ART" xmlns="http://www.w3.org/2000/svg" xmlns:xlink="http://www.w3.org/1999/xlink" x="0px" y="0px"
	 viewBox="0 0 288 288" style="enable-background:new 0 0 288 288;" xml:space="preserve">
<style type="text/css">
	.st0{fill:#312D2A;}
</style>
<path class="st0" d="M219,50h-32.1c-0.5-4.6-4.4-8-8.9-8h-15.4c-2.2-10.3-12.3-16.8-22.6-14.6c-7.3,1.6-13,7.3-14.6,14.6H110
	c-4.6,0-8.4,3.4-8.9,8H69c-5,0-9,4-9,9v188c0,5,4,9,9,9h150c5,0,9-4,9-9V59C228,54,224,50,219,50z M107,231.3L84.7,209H107V231.3z
	 M82,201V72h19v8h86v-8h19v162h-91v-33H82z M109,51c0-0.6,0.4-1,1-1h23v-4c0-6.1,4.9-11,11-11s11,4.9,11,11v4h23c0.6,0,1,0.4,1,1v21
	h-70V51z M220,247c0,0.6-0.4,1-1,1H69c-0.6,0-1-0.4-1-1V59c0-0.6,0.4-1,1-1h32v6H74v145.7l32.3,32.3H214V64h-27v-6h32
	c0.6,0,1,0.4,1,1V247z M144,41c2.8,0,5,2.2,5,5s-2.2,5-5,5s-5-2.2-5-5S141.2,41,144,41z M174,154.9v-40l-30.4-11.2L114,115v40
	l29.6,11.2L174,154.9z M147,156.4v-25.1l19-7.9v26L147,156.4z M143.7,112.3l14.9,5.5l-15,6.2l-14.8-6.1L143.7,112.3z M122,123.7
	l16.9,7v25.1l-16.9-6.4V123.7z M140.2,193.3l-6.4-6.4l-5.6,5.7l12,12l21.6-21.6l-5.7-5.7L140.2,193.3z"/>
</svg>
