<svg id="ART" xmlns="http://www.w3.org/2000/svg" viewBox="0 0 288 288"><defs><style>.cls-1{fill:#fcfbfa;}</style></defs><path class="cls-1" d="M178,92h-6.83V84H178V77.17h8V84h6.83v8H186v6.83h-8Zm-20-4a24,24,0,1,1,24,24A24,24,0,0,1,158,88Zm8,0a16,16,0,1,0,16-16A16,16,0,0,0,166,88Zm3,30H155v8h14Zm6,8h14v-8H175Zm19,0h14v-8H194Zm-25,6H155v8h14Zm6,8h14v-8H175Zm19,0h14v-8H194Zm-25,6H155v8h14Zm6,8h14v-8H175Zm19,0h14v-8H194Zm-25,6H155v8h14Zm6,8h14v-8H175Zm19,0h14v-8H194Zm-64-8H116v8h14Zm19,0H135v8h14Zm20,14H155v8h14Zm6,8h14v-8H175Zm19,0h14v-8H194Zm-64-8H116v8h14Zm-34-6h14v-8H96Zm0,14h14v-8H96Zm53-8H135v8h14Zm81,59v4H57v-4l8-4V205.58l-7.11.08-1.83-3.56,7.11-3.66S74.74,193.6,82,191.89V146h59V50h81V229ZM90,190.27A161.57,161.57,0,0,1,117,188c20.69,0,41.31,4,53.83,10.44h0l7.11,3.66-1.83,3.56-7.11-.08V229h12V213h21v16h12V58H149v96H90ZM194,221h-5v8h5ZM73,229h27V213h34v16h27V202.88c-11.54-4.3-27.67-6.88-44-6.88s-32.46,2.58-44,6.88Zm48,0h5v-8h-5Zm-8-8h-5v8h5Z"/></svg>