<svg id="ART" xmlns="http://www.w3.org/2000/svg" viewBox="0 0 288 288"><defs><style>.cls-1{fill:#fcfbfa;}</style></defs><path class="cls-1" d="M144,55a89,89,0,1,0,89,89A89.09,89.09,0,0,0,144,55Zm0,170a81,81,0,1,1,81-81A81.1,81.1,0,0,1,144,225ZM114,112h12v8H114v12h-8V120H94v-8h12V100h8ZM94,152h32v8H94Zm85,8.88V152h7v-8h-7v-6h7v-8h-7v-6h7v-8h-7v-6h7v-8h-7V98a18,18,0,0,0-36,0v62.88a27,27,0,1,0,36,0ZM161,200a19,19,0,0,1-11.56-34.07l1.56-1.2V98a10,10,0,0,1,20,0v66.73l1.56,1.2A19,19,0,0,1,161,200Zm13-19a13,13,0,1,1-20.91-10.31l3.91-3V134h8v33.68l3.91,3A12.92,12.92,0,0,1,174,181Z"/></svg>