<svg id="ART" xmlns="http://www.w3.org/2000/svg" viewBox="0 0 288 288"><defs><style>.cls-1{fill:#312d2a;}</style></defs><path class="cls-1" d="M111,91H99a4,4,0,0,1-4-4V75a4,4,0,0,1,4-4h12a4,4,0,0,1,4,4V87A4,4,0,0,1,111,91Zm30-4V75a4,4,0,0,0-4-4H125a4,4,0,0,0-4,4V87a4,4,0,0,0,4,4h12A4,4,0,0,0,141,87Zm26,0V75a4,4,0,0,0-4-4H151a4,4,0,0,0-4,4V87a4,4,0,0,0,4,4h12A4,4,0,0,0,167,87Zm26,0V75a4,4,0,0,0-4-4H177a4,4,0,0,0-4,4V87a4,4,0,0,0,4,4h12A4,4,0,0,0,193,87Zm-78,26V101a4,4,0,0,0-4-4H99a4,4,0,0,0-4,4v12a4,4,0,0,0,4,4h12A4,4,0,0,0,115,113Zm26,0V101a4,4,0,0,0-4-4H125a4,4,0,0,0-4,4v12a4,4,0,0,0,4,4h12A4,4,0,0,0,141,113Zm26,0V101a4,4,0,0,0-4-4H151a4,4,0,0,0-4,4v12a4,4,0,0,0,4,4h12A4,4,0,0,0,167,113Zm26,0V101a4,4,0,0,0-4-4H177a4,4,0,0,0-4,4v12a4,4,0,0,0,4,4h12A4,4,0,0,0,193,113Zm-78,26V127a4,4,0,0,0-4-4H99a4,4,0,0,0-4,4v12a4,4,0,0,0,4,4h12A4,4,0,0,0,115,139Zm26,0V127a4,4,0,0,0-4-4H125a4,4,0,0,0-4,4v12a4,4,0,0,0,4,4h12A4,4,0,0,0,141,139Zm26,0V127a4,4,0,0,0-4-4H151a4,4,0,0,0-4,4v12a4,4,0,0,0,4,4h12A4,4,0,0,0,167,139Zm26,0V127a4,4,0,0,0-4-4H177a4,4,0,0,0-4,4v12a4,4,0,0,0,4,4h12A4,4,0,0,0,193,139Zm-78,26V153a4,4,0,0,0-4-4H99a4,4,0,0,0-4,4v12a4,4,0,0,0,4,4h12A4,4,0,0,0,115,165Zm26,0V153a4,4,0,0,0-4-4H125a4,4,0,0,0-4,4v12a4,4,0,0,0,4,4h12A4,4,0,0,0,141,165Zm26,0V153a4,4,0,0,0-4-4H151a4,4,0,0,0-4,4v12a4,4,0,0,0,4,4h12A4,4,0,0,0,167,165Zm42,59V64a9,9,0,0,0-9-9H88a9,9,0,0,0-9,9V224a9,9,0,0,0,9,9H200A9,9,0,0,0,209,224ZM200,63a1,1,0,0,1,1,1V224a1,1,0,0,1-1,1H88a1,1,0,0,1-1-1V64a1,1,0,0,1,1-1ZM154,211H134v8h20Z"/></svg>