<svg id="ART" xmlns="http://www.w3.org/2000/svg" viewBox="0 0 288 288"><defs><style>.cls-1{fill:#312d2a;}</style></defs><path class="cls-1" d="M201,141.11a33,33,0,1,0-33-33A33.05,33.05,0,0,0,201,141.11Zm0-58a25,25,0,1,1-25,25A25,25,0,0,1,201,83.11Zm15.86,25L190,123V93ZM184,194a12.13,12.13,0,0,0-3.53-1A11.5,11.5,0,1,0,192,204.5c0-.17,0-.33,0-.5h0V180.42L222,176v12a12.13,12.13,0,0,0-3.53-1A11.5,11.5,0,1,0,230,199h0V152.32L184,160Zm-3.53,14a3.5,3.5,0,1,1,3.5-3.5A3.5,3.5,0,0,1,180.47,208Zm38-6a3.5,3.5,0,1,1,3.5-3.5A3.5,3.5,0,0,1,218.47,202ZM222,162v6l-30,4.32v-5.9ZM99,180H94a4,4,0,0,1-4-4v-5a4,4,0,0,1,4-4h5a4,4,0,0,1,4,4v5A4,4,0,0,1,99,180Zm-15-9v5a4,4,0,0,1-4,4H75a4,4,0,0,1-4-4v-5a4,4,0,0,1,4-4h5A4,4,0,0,1,84,171Zm38,0v5a4,4,0,0,1-4,4h-5a4,4,0,0,1-4-4v-5a4,4,0,0,1,4-4h5A4,4,0,0,1,122,171Zm19,0v5a4,4,0,0,1-4,4h-5a4,4,0,0,1-4-4v-5a4,4,0,0,1,4-4h5A4,4,0,0,1,141,171Zm-5-77H76a5,5,0,0,0-5,5v57a5,5,0,0,0,5,5h60a5,5,0,0,0,5-5V99A5,5,0,0,0,136,94Zm-3,59H79V102h54Zm13-73H66a9,9,0,0,0-9,9V204a9,9,0,0,0,9,9h80a9,9,0,0,0,9-9V89A9,9,0,0,0,146,80Zm1,124a1,1,0,0,1-1,1H66a1,1,0,0,1-1-1V89a1,1,0,0,1,1-1h80a1,1,0,0,1,1,1ZM99,191h14l0,8H99Z"/></svg>