<?xml version="1.0" encoding="utf-8"?>
<!-- Generator: Adobe Illustrator 24.0.3, SVG Export Plug-In . SVG Version: 6.00 Build 0)  -->
<svg version="1.1" id="ART" xmlns="http://www.w3.org/2000/svg" xmlns:xlink="http://www.w3.org/1999/xlink" x="0px" y="0px"
	 viewBox="0 0 288 288" style="enable-background:new 0 0 288 288;" xml:space="preserve">
<style type="text/css">
	.st0{fill:#312D2A;}
</style>
<path class="st0" d="M179,104.2V63.8l-35-20.2l-35,20.2v40.4l35,20.2L179,104.2z M148,112.9V86.3L171,73v26.6L148,112.9z M167,66.1
	l-23,13.3l-23-13.3l23-13.3L167,66.1z M117,73l23,13.3v26.6l-23-13.3V73z M213,163.6l-35,20.2v40.4l35,20.2l35-20.2v-40.4L213,163.6
	z M236,186.1l-23,13.3l-23-13.3l23-13.3L236,186.1z M186,193l23,13.3v26.6l-23-13.3V193z M217,232.9v-26.5l23-13.3v26.6L217,232.9z
	 M40,183.8v40.4l35,20.2l35-20.2v-40.4l-35-20.2L40,183.8z M98,186.1l-23,13.3l-23-13.3l23-13.3L98,186.1z M48,193l23,13.3v26.6
	l-23-13.3V193z M79,232.9v-26.5l23-13.3v26.6L79,232.9z M140,129h8v28h-8V129z M147.9,170.6l4.2-6.8l24,14.8l-4.2,6.8L147.9,170.6z
	 M111.9,178.6l24-14.8l4.2,6.8l-24,14.8L111.9,178.6z"/>
</svg>
