<?xml version="1.0" encoding="utf-8"?>
<!-- Generator: Adobe Illustrator 24.0.3, SVG Export Plug-In . SVG Version: 6.00 Build 0)  -->
<svg version="1.1" id="ART" xmlns="http://www.w3.org/2000/svg" xmlns:xlink="http://www.w3.org/1999/xlink" x="0px" y="0px"
	 viewBox="0 0 288 288" style="enable-background:new 0 0 288 288;" xml:space="preserve">
<style type="text/css">
	.st0{fill:#312D2A;}
</style>
<path class="st0" d="M209,116h-14V97c0-28.2-22.8-51-51-51S93,68.8,93,97v19H79v108h130V116z M101,97c0-23.7,19.3-43,43-43
	s43,19.3,43,43v19h-12V97c0-17.1-13.9-31-31-31s-31,13.9-31,31v19h-12V97z M167,116h-46V97c0-12.7,10.3-23,23-23s23,10.3,23,23V116z
	 M87,216v-12h8v-8h-8v-12h8v-8h-8v-12h8v-8h-8v-12h8v-8h-8v-12h114v12h-8v8h8v12h-8v8h8v12h-8v8h8v12h-8v8h8v12H87z M144,148
	c-8.3,0-15,6.7-15,15c0,3.6,1.3,7,3.6,9.7l-1.9,24.3h26.7l-1.9-24.3c5.4-6.3,4.6-15.8-1.7-21.1C151,149.3,147.6,148,144,148z
	 M148.6,168.2l-1.5,1.3l1.6,19.4h-9.3l1.6-19.4l-1.5-1.3c-2.9-2.6-3.2-7-0.6-9.9s7-3.2,9.9-0.6s3.2,7,0.6,9.9
	C149.1,167.8,148.8,168.1,148.6,168.2L148.6,168.2z M201,230L201,230H87l0,0h-8v4l8,4l0,0h114l0,0l8-4v-4H201z"/>
</svg>
