<?xml version="1.0" encoding="utf-8"?>
<!-- Generator: Adobe Illustrator 27.1.0, SVG Export Plug-In . SVG Version: 6.00 Build 0)  -->
<svg version="1.1" id="Layer_1" xmlns="http://www.w3.org/2000/svg" xmlns:xlink="http://www.w3.org/1999/xlink" x="0px" y="0px"
	 viewBox="0 0 288 288" style="enable-background:new 0 0 288 288;" xml:space="preserve">
<style type="text/css">
	.st0{display:none;}
	.st1{display:inline;}
	.st2{fill:#56A5D8;}
	.st3{fill:none;stroke:#56A5D8;stroke-width:0.25;stroke-miterlimit:10;}
	.st4{fill:#FCFBFA;}
</style>
<g id="GUIDES" class="st0">
	<g class="st1">
		<g>
			<path class="st2" d="M144,96.3c26.3,0,47.8,21.4,47.8,47.7s-21.4,47.7-47.8,47.7S96.2,170.3,96.2,144S117.7,96.3,144,96.3
				 M144,96.1c-26.5,0-48,21.5-48,47.9c0,26.5,21.5,47.9,48,47.9s48-21.5,48-47.9C192,117.5,170.5,96.1,144,96.1L144,96.1z"/>
		</g>
		<line class="st3" x1="96" y1="0" x2="96" y2="288"/>
		<line class="st3" x1="192" y1="0" x2="192" y2="288"/>
		<line class="st3" x1="0" y1="192" x2="288" y2="192"/>
		<line class="st3" x1="0" y1="96" x2="288" y2="96"/>
		<g>
			<path class="st2" d="M144,12.4c35.2,0,68.3,13.7,93.2,38.6s38.6,58,38.6,93.2s-13.7,68.3-38.6,93.2S179.2,276,144,276
				s-68.3-13.7-93.2-38.6s-38.6-58-38.6-93.2S26,75.9,50.8,51C75.7,26.1,108.8,12.4,144,12.4 M144,12.1c-72.9,0-132,59.1-132,132
				s59.1,132,132,132s132-59.1,132-132S216.9,12.1,144,12.1L144,12.1z"/>
		</g>
		<g>
			<path class="st2" d="M240,12.2c6.5,0,11.8,5.3,11.8,11.8v240c0,6.5-5.3,11.8-11.8,11.8H48c-6.5,0-11.8-5.3-11.8-11.8V24
				c0-6.5,5.3-11.8,11.8-11.8H240 M240,12H48c-6.6,0-12,5.4-12,12v240c0,6.6,5.4,12,12,12h192c6.6,0,12-5.4,12-12V24
				C252,17.4,246.6,12,240,12L240,12z"/>
		</g>
		<g>
			<path class="st2" d="M264,36.2c6.5,0,11.8,5.3,11.8,11.8v192c0,6.5-5.3,11.8-11.8,11.8H24c-6.5,0-11.8-5.3-11.8-11.8V48
				c0-6.5,5.3-11.8,11.8-11.8H264 M264,36H24c-6.6,0-12,5.4-12,12v192c0,6.6,5.4,12,12,12h240c6.6,0,12-5.4,12-12V48
				C276,41.4,270.6,36,264,36L264,36z"/>
		</g>
		<g>
			<path class="st2" d="M247.8,24.2c8.8,0,16,7.2,16,16v207.6c0,8.8-7.2,16-16,16H40.2c-8.8,0-16-7.2-16-16V40.2c0-8.8,7.2-16,16-16
				H247.8 M247.8,24H40.2C31.3,24,24,31.3,24,40.2v207.6c0,8.9,7.3,16.2,16.2,16.2h207.6c8.9,0,16.2-7.3,16.2-16.2V40.2
				C264,31.3,256.7,24,247.8,24L247.8,24z"/>
		</g>
	</g>
</g>
<g id="ART">
	<path class="st4" d="M185.9,163.5h-17.2v-16.6v-0.1c7.8-6.4,13.2-15.9,14.8-26.6c12.2-3.1,21-14.3,21-27.1c0-9.3-4.6-18-12.3-23.2
		c-1.6-1.1-2.5-2.9-2.4-4.8c0.1-0.9,0-1.9,0-2.8c-0.8-10.1-9.1-18.3-19.2-18.9c-2.6-0.2-5.1,0.1-7.5,0.9c-1.8,0.6-3.8,0.2-5.1-1.1
		c-5.2-4.7-11.8-7.2-18.8-7.2c-11.5,0-22,7.2-26.1,17.9c-0.2,0.6-0.9,1-1.6,1l0,0c-15.4,0-28,12.6-28,28c0,5.5,1.6,10.8,4.6,15.3
		c0.5,0.7,0.5,1.6,0.2,2.3c-1.5,2.9-2.2,6-2.2,9.3c0,11.4,9.3,20.6,20.6,20.6h0.6c2.7,6.5,6.8,12.1,12,16.4v16.7h-17.2
		c-23.6,0-42.1,18.2-42.1,41.3v30.7h8v-30.7c0-18.7,15-33.3,34.1-33.3h11.1v22.3c-5.7,1.7-9.8,7-9.8,13.3c0,7.6,6.2,13.8,13.8,13.8
		s13.8-6.2,13.8-13.8c0-6.2-4.2-11.5-9.8-13.3v-22.3h0.1l22.7,24.6l22.7-24.6h0.2v22.9c-3.2,2.1-7.2,5-10,8c-4.7,5-5.7,9.9-5.7,13.1
		c0,3,0.6,5.7,1.8,8c1,2,2.1,3.5,3.2,4.6c0.4,3.1,3,5.5,6.2,5.5c3.5,0,6.3-2.8,6.3-6.3s-2.8-6.3-6.3-6.3c-0.5,0-1,0.1-1.5,0.2
		c-0.3-0.4-0.5-0.8-0.8-1.3c-0.6-1.2-0.9-2.7-0.9-4.4c0-2.6,1.2-5.2,3.5-7.7c2.3-2.4,5.6-4.9,8.2-6.5c2.5,1.6,5.9,4,8.2,6.5
		s3.5,5.1,3.5,7.7c0,1.7-0.3,3.2-0.9,4.4c-0.3,0.5-0.5,0.9-0.8,1.3c-0.4-0.1-0.9-0.2-1.4-0.2c-3.5,0-6.3,2.8-6.3,6.3
		s2.8,6.3,6.3,6.3c3.3,0,5.9-2.5,6.2-5.7c1-1.1,2.1-2.5,3-4.4c1.2-2.3,1.8-5,1.8-8c0-3.2-1-8.1-5.7-13.1c-2.8-3-6.8-5.9-10-8v-22.9
		h11.1c19.1,0,34.1,14.6,34.1,33.3v30.7h8v-30.7C228,181.7,209.5,163.5,185.9,163.5z M123.1,207.1c0,3.2-2.6,5.8-5.8,5.8
		s-5.8-2.6-5.8-5.8s2.6-5.8,5.8-5.8S123.1,203.8,123.1,207.1z M112,113.9V99.7h-8v14.2c0,2.9,0.3,5.6,0.8,8.3
		c-6.1-0.9-10.8-6.1-10.8-12.5c0-2,0.5-3.9,1.3-5.7c1.6-3.2,1.4-7.2-0.6-10.3c-2.1-3.2-3.3-7-3.3-10.9c0-11,9-20,20-20l0,0
		c4,0,7.6-2.5,9-6.1c3-7.6,10.4-12.8,18.6-12.8c5,0,9.7,1.8,13.4,5.2c3.4,3.1,8.4,4.2,12.9,2.8c1.5-0.5,3-0.7,4.6-0.6
		c6.2,0.4,11.3,5.4,11.8,11.6c0,0.6,0.1,1.2,0,1.8c-0.3,4.7,1.9,9.2,5.9,11.9c5.5,3.7,8.8,9.9,8.8,16.6c0,8.3-5.2,15.5-12.6,18.5
		V83.8l-28.6-15.3l-2.1,1.9c-21.2,19.3-41.9,8.5-42.8,8.1l-3.8,7c0.3,0.1,6.8,3.7,16.5,4.3c8.4,0.5,20.8-1.2,33.4-11.6L176,88.6
		v25.3c0,18.7-14.4,33.9-32,33.9S112,132.6,112,113.9z M127.2,166.2V152c5.1,2.5,10.8,3.9,16.8,3.9s11.7-1.4,16.8-3.9v14.2
		L144,184.3L127.2,166.2z"/>
</g>
</svg>
