<svg id="ART" xmlns="http://www.w3.org/2000/svg" viewBox="0 0 288 288"><defs><style>.cls-1{fill:#fcfbfa;}</style></defs><path class="cls-1" d="M56.68,147H74v8H47.81l.32-4.3A43.76,43.76,0,0,1,71.56,115a13.54,13.54,0,0,0,7-9.37,33,33,0,0,1,35.48-26.52,13,13,0,0,0,10.86-4,41,41,0,0,1,62.1,2.31,42.58,42.58,0,0,0-8,3,33,33,0,0,0-48.25.15,21,21,0,0,1-17.48,6.55A25,25,0,0,0,86.46,107.2a21.48,21.48,0,0,1-11.18,14.91A35.8,35.8,0,0,0,56.68,147Zm78.2,24.11-16,10v6.78l16,10,4.24-6.78-10.57-6.61,10.57-6.61Zm25.24,26.78,16-10v-6.78l-16-10-4.24,6.78,10.57,6.61-10.57,6.61Zm-11.39.11,5.72-27h-8.18l-5.72,27ZM187,161.61a43.92,43.92,0,0,0,8,1.28V222H80V142a9,9,0,0,1,9-9h67.29a43.69,43.69,0,0,0,3.61,8H89a1,1,0,0,0-1,1v5h76.06a44.15,44.15,0,0,0,8.66,8H108v59h79ZM88,214h12V155H88ZM194,97.77h7.89L213,136.3h-8.53l-1.86-8.11H193l-1.85,8.11H182.9Zm.47,23.85h6.63l-3.29-14.41Zm-33.4-5.18-7.27-7.27-5.66,5.66L165,131.66l16.83-16.83-5.66-5.66-7,7a29,29,0,0,1,54.42-10.91l5.85-5.85a37,37,0,0,0-68.31,17Zm86.73,6.73L231,106.34l-16.83,16.83,5.66,5.66,7-7a29,29,0,0,1-54.42,10.91l-5.85,5.85a37,37,0,0,0,68.31-17l7.27,7.27Z"/></svg>