<?xml version="1.0" encoding="utf-8"?>
<!-- Generator: Adobe Illustrator 28.0.0, SVG Export Plug-In . SVG Version: 6.00 Build 0)  -->
<svg version="1.1" id="ART" xmlns="http://www.w3.org/2000/svg" xmlns:xlink="http://www.w3.org/1999/xlink" x="0px" y="0px"
	 viewBox="0 0 288 288" style="enable-background:new 0 0 288 288;" xml:space="preserve">
<style type="text/css">
	.st0{fill:#FCFBFA;}
</style>
<g>
	<path class="st0" d="M130.2,220.6v41.9h25.4v-41.9H130.2z M147.6,254.5h-9.4v-33.8h9.4V254.5z"/>
	<path class="st0" d="M189,96.4c11.3,0,20.5-9.2,20.5-20.5v-5.4H189V52c0-6-4.1-11-9.5-12.3c0.3-1,0.5-2.1,0.5-3.3c0-6-4.9-11-11-11
		h-48.7c-6,0-11,4.9-11,11c0,1.1,0.2,2.1,0.4,3C103.7,40.2,99,45.5,99,52v18.5H78.4v5.4c0,11.3,9.2,20.5,20.5,20.5h0v16.1H78.4v5.4
		c0,11.3,9.2,20.5,20.5,20.5h0v16.1H78.4v5.4c0,11.3,9.2,20.5,20.5,20.5h0v27.8c0,6.9,5.4,12.6,12.2,12.6h65.7
		c6.7,0,12.2-5.6,12.2-12.6v-27.8h0c11.3,0,20.5-9.2,20.5-20.5v-5.4H189v-16.1h0c11.3,0,20.5-9.2,20.5-20.5v-5.4H189L189,96.4
		L189,96.4z M189.2,78.5h12.1c-1.2,5.6-6.2,9.9-12.1,9.9V78.5z M98.8,88.4c-6-0.1-10.9-4.3-12.1-9.9h12.1V88.4z M98.8,130.3
		c-6-0.1-10.9-4.3-12.1-9.9h12.1V130.3z M98.8,172.3c-6-0.1-10.9-4.3-12.1-9.9h12.1V172.3z M120.3,33.5H169c1.6,0,3,1.3,3,3
		s-1.3,3-3,3h-48.7c-1.6,0-3-1.3-3-3S118.7,33.5,120.3,33.5z M181,208.1c0,2.5-1.9,4.6-4.2,4.6h-65.7c-2.3,0-4.2-2-4.2-4.6V52
		c0-2.5,1.9-4.6,4.2-4.6h65.7c2.3,0,4.2,2,4.2,4.6V208.1z M189.2,162.4h12.1c-1.2,5.6-6.2,9.9-12.1,9.9V162.4z M189.2,120.4h12.1
		c-1.2,5.6-6.2,9.9-12.1,9.9V120.4z"/>
	<path class="st0" d="M144,154c-10,0-18,8.1-18,18s8.1,18,18,18c9.9,0,18-8.1,18-18S153.9,154,144,154z M144,182.1
		c-5.5,0-10-4.5-10-10c0-5.5,4.5-10,10-10c5.5,0,10,4.5,10,10C154,177.5,149.5,182.1,144,182.1z"/>
	<path class="st0" d="M144,112c-10,0-18,8.1-18,18c0,9.9,8.1,18,18,18c9.9,0,18-8.1,18-18C162,120.1,153.9,112,144,112z M144,140.1
		c-5.5,0-10-4.5-10-10c0-5.5,4.5-10,10-10c5.5,0,10,4.5,10,10C154,135.6,149.5,140.1,144,140.1z"/>
	<path class="st0" d="M144,70c-10,0-18,8.1-18,18s8.1,18,18,18c9.9,0,18-8.1,18-18S153.9,70,144,70z M144,98.1c-5.5,0-10-4.5-10-10
		c0-5.5,4.5-10,10-10c5.5,0,10,4.5,10,10C154,93.6,149.5,98.1,144,98.1z"/>
</g>
<g id="Annotations">
</g>
</svg>
