<svg id="ART" xmlns="http://www.w3.org/2000/svg" viewBox="0 0 288 288"><defs><style>.cls-1{fill:#fcfbfa;}</style></defs><path class="cls-1" d="M249.51,117.66,144,69.3,38.49,118.75,81,138.23v45.32l4.25-.27c11.08-.7,24.92,3,38,10.24a85.4,85.4,0,0,1,18,13.07l2.77,2.66,2.77-2.66a85.22,85.22,0,0,1,18-13.07A91.43,91.43,0,0,1,179,187.15v-8.41a99.72,99.72,0,0,0-18.1,7.77A95.47,95.47,0,0,0,144,198.27a95.47,95.47,0,0,0-16.9-11.76c-12.78-7-26.41-11.06-38.1-11.3V141.9l55,25.21,35-16.39v-8.84L144,158.3,57.51,118.66,144,78.11l86.47,39.64-37.85,17.74.05-.12-43.45-20.26-9.44,4.42L185,140.61v63.45l-7.68,18.65H200.8L193,203.77V183.7a49.35,49.35,0,0,1,9.75-.42l4.25.27v-46ZM199,175.21a59.71,59.71,0,0,0-6,.44v-31.5l6-2.81Z"/></svg>