<?xml version="1.0" encoding="utf-8"?>
<!-- Generator: Adobe Illustrator 28.0.0, SVG Export Plug-In . SVG Version: 6.00 Build 0)  -->
<svg version="1.1" id="ART" xmlns="http://www.w3.org/2000/svg" xmlns:xlink="http://www.w3.org/1999/xlink" x="0px" y="0px"
	 viewBox="0 0 288 288" style="enable-background:new 0 0 288 288;" xml:space="preserve">
<style type="text/css">
	.st0{fill:#312D2A;}
</style>
<g>
	<path class="st0" d="M263.6,144c0,40.5-20.2,77.9-54.1,100.1c-1.8,1.2-4.3,0.7-5.5-1.2c-1.2-1.8-0.7-4.3,1.1-5.5
		c31.6-20.7,50.5-55.6,50.5-93.4c0-61.5-50.1-111.6-111.6-111.6C82.5,32.4,32.4,82.5,32.4,144c0,60.2,47.9,109.4,107.6,111.5v-46.4
		h8v50.5c0,2.2-1.8,4-4,4C78.1,263.6,24.4,210,24.4,144S78.1,24.4,144,24.4C209.9,24.4,263.6,78.1,263.6,144z"/>
	<g>
		<polygon class="st0" points="163.1,180.6 163.1,185.9 160.9,191.2 160.9,191.2 127.1,191.2 124.9,185.9 124.9,180.6 		"/>
		<polygon class="st0" points="157.1,195.2 157.1,200.2 155.6,205.1 155.6,205.2 132.4,205.2 130.9,200.2 130.9,195.2 		"/>
		<g>
			<g>
				<path class="st0" d="M179.5,96.9V70.9c0-5.4-4.4-9.9-9.9-9.9s-9.9,4.4-9.9,9.9v26.1h-31.4V70.9c0-5.4-4.4-9.9-9.9-9.9
					c-5.5,0-9.9,4.4-9.9,9.9v26.1H91.7v52.7c0,14.1,11.5,26,25.6,26.3h53.3c14.1-0.4,25.6-12.2,25.6-26.3V96.9H179.5z M167.7,70.9
					c0-1,0.8-1.9,1.9-1.9s1.9,0.8,1.9,1.9v25.7h-3.8V70.9z M116.6,70.9c0-1,0.8-1.9,1.9-1.9c1,0,1.9,0.8,1.9,1.9v25.7h-3.8V70.9z
					 M188.3,149.7c0,9.8-8,18-17.8,18.3h-52.9c-9.8-0.3-17.8-8.5-17.8-18.3v-44.7h88.5V149.7z"/>
				<path class="st0" d="M142.3,158.6v-18.7h-9.7l14.5-25.6l0.7,18h7.6L142.3,158.6z"/>
				<polygon class="st0" points="142.3,158.6 142.3,139.9 132.6,139.9 147.1,114.4 147.8,132.3 155.4,132.3 				"/>
			</g>
		</g>
	</g>
</g>
</svg>
