<?xml version="1.0" encoding="utf-8"?>
<!-- Generator: Adobe Illustrator 24.0.3, SVG Export Plug-In . SVG Version: 6.00 Build 0)  -->
<svg version="1.1" id="ART" xmlns="http://www.w3.org/2000/svg" xmlns:xlink="http://www.w3.org/1999/xlink" x="0px" y="0px"
	 viewBox="0 0 288 288" style="enable-background:new 0 0 288 288;" xml:space="preserve">
<style type="text/css">
	.st0{fill:#FCFBFA;}
</style>
<path class="st0" d="M104,220h-6v-5c0-5-4-9-9-9H75c-5,0-9,4-9,9v5h-6v-44h31.2c-1.8-2.5-3.5-5.2-4.9-8H52v60h60v-33.9
	c-2.8-1.5-5.5-3.1-8-5V220z M74,215c0-0.6,0.4-1,1-1h14c0.6,0,1,0.4,1,1v5H74V215z M70.5,191.5c0,6.4,5.1,11.5,11.5,11.5
	s11.5-5.1,11.5-11.5S88.4,180,82,180C75.7,180,70.5,185.2,70.5,191.5z M85.5,191.5c0,1.9-1.6,3.5-3.5,3.5s-3.5-1.6-3.5-3.5
	s1.6-3.5,3.5-3.5S85.5,189.6,85.5,191.5z M97.4,98.3l0.1-0.1C96.3,94.5,92.9,92,89,92H75c-5,0-9,4-9,9l0,0v5h-6V62h44v30.6
	c2.5-1.9,5.2-3.5,8-5V54H52v60h34.2C89,108.2,92.8,102.9,97.4,98.3z M74,101c0-0.6,0.4-1,1-1h14c0.6,0,1,0.4,1,1v5H74V101z
	 M70.5,77.5C70.5,83.9,75.6,89,82,89s11.5-5.1,11.5-11.5S88.4,66,82,66l0,0C75.7,66,70.5,71.2,70.5,77.5z M85.5,77.5
	c0,1.9-1.6,3.5-3.5,3.5s-3.5-1.6-3.5-3.5S80.1,74,82,74S85.5,75.6,85.5,77.5z M208.5,76.5c0-6.4-5.1-11.5-11.5-11.5
	s-11.5,5.1-11.5,11.5S190.6,88,197,88l0,0C203.3,88,208.5,82.8,208.5,76.5z M193.5,76.5c0-1.9,1.6-3.5,3.5-3.5s3.5,1.6,3.5,3.5
	S198.9,80,197,80S193.5,78.4,193.5,76.5z M175,61h44v44h-6v-5c0-5-4-9-9-9h-14c-4,0-7.5,2.6-8.6,6.4c0.3,0.3,0.7,0.6,1,0.9
	c4.3,4.3,7.9,9.3,10.8,14.7H227V53h-60v34.2c2.8,1.4,5.5,3,8,4.9V61z M205,105h-16v-5c0-0.6,0.4-1,1-1h14c0.6,0,1,0.4,1,1V105z
	 M223,195.7c-5.4-5.4-11.1-10.3-17.1-14.9l-18.6-13.9c14.3-26.1,4.8-58.9-21.3-73.2S107,88.9,92.7,115s-4.8,58.9,21.3,73.2
	c16.1,8.9,35.7,8.9,51.9,0l14.8,19.7c3.3,4.6,7,9,11,13l13.4,13.5l28.3-28.3L223,195.7z M107.3,108.2c18-18,47.2-17.9,65.2,0.2
	c14.3,14.4,17.5,36.4,7.9,54.3c-3.7-5.5-9.8-8.7-16.4-8.7h-9v-5.3c3.8-3.8,6-9,6-14.4V105h-26c-9.2,0-15,6.1-15,16v14
	c0,5.3,2.2,10.3,6,14v5h-8.2c-7.2,0.1-13.9,3.9-17.8,10C89.6,145.9,92.5,123,107.3,108.2z M147,125c2.1,0,4.1-0.4,6-1.2v10.4
	c0,6.8-5.5,12.4-12.4,12.6c-7,0-12.6-5.3-12.6-11.8v-10H147z M128.6,117c1.4-4,4.9-4,6.4-4h17.6c-0.6,2.5-3,4.2-5.6,4H128.6z
	 M134,153.7c2.1,0.7,4.4,1.1,6.6,1.1c2.2,0,4.3-0.4,6.4-1.1v2.8l-6.4,7.1l-6.6-7.2V153.7z M107.3,173.4c-0.7-0.6-1.3-1.3-1.9-2
	c1.6-5.5,6.6-9.3,12.4-9.5h10.4l12.5,13.5l12.2-13.4H164c5.2,0,9.7,3.4,11.3,8.3c-0.9,1.1-1.8,2.1-2.9,3.1
	C154.4,191.4,125.3,191.4,107.3,173.4L107.3,173.4z M205.2,223.1l-7.8-7.8c-3.8-3.7-7.2-7.8-10.3-12.2l-14.5-19.3
	c3.9-2.9,7.3-6.4,10.3-10.3l18.2,13.6c5.8,4.3,11.2,9,16.3,14.1l4.8,4.8L205.2,223.1z M237.8,221.9l2.8-8.5l-2.8-2.8l-5.7,5.7l0,0
	l-17,17l0,0l-5.7,5.7l2.8,2.8l8.5-2.8l0,0L237.8,221.9L237.8,221.9z"/>
</svg>
