<?xml version="1.0" encoding="utf-8"?>
<!-- Generator: Adobe Illustrator 24.0.3, SVG Export Plug-In . SVG Version: 6.00 Build 0)  -->
<svg version="1.1" id="ART" xmlns="http://www.w3.org/2000/svg" xmlns:xlink="http://www.w3.org/1999/xlink" x="0px" y="0px"
	 viewBox="0 0 288 288" style="enable-background:new 0 0 288 288;" xml:space="preserve">
<style type="text/css">
	.st0{fill:#312D2A;}
</style>
<path class="st0" d="M226,231V41h-16.9L194,32.3L180,41h-18v50h8V49h12.1l12-7.3l12.8,7.3H218v182h-12v-22h-24v22h-12v-22h-8v22
	l-8,4v4h80v-4L226,231z M190,231v-14h8v14H190z M176,55h8v8h-8V55z M190,55h8v8h-8V55z M204,55h8v8h-8V55z M176,69h8v8h-8V69z
	 M190,69h8v8h-8V69z M204,69h8v8h-8V69z M176,83h8v8h-8V83z M190,83h8v8h-8V83z M204,83h8v8h-8V83z M204,97h8v8h-8V97z M204,111h8v8
	h-8V111z M204,125h8v8h-8V125z M204,139h8v8h-8V139z M204,153h8v8h-8V153z M204,167h8v8h-8V167z M204,181h8v8h-8V181z M204,195h8v8
	h-8V195z M61,160v29h51v-29H61z M104,181H69v-13h35V181z M197.9,105c-0.5-4.2-3.8-7.5-7.9-7.9c-0.3,0-0.7-0.1-1-0.1H57c-5,0-9,4-9,9
	v88c0,5,4,9,9,9h132c0.3,0,0.7,0,1-0.1c4.2-0.5,7.5-3.8,7.9-7.9c0-0.3,0.1-0.7,0.1-1v-88C198,105.7,198,105.3,197.9,105z M57,195
	c-0.6,0-1-0.4-1-1v-88c0-0.6,0.4-1,1-1h132c0.6,0,1,0.4,1,1v88c0,0.6-0.4,1-1,1H57z M176,141h8v18h-8V141z M61,111v29h109v-29H61z
	 M162,132H69v-13h93V132z M61,160v29h51v-29H61z M104,181H69v-13h35V181z M119,160v29h51v-29H119z M162,181h-35v-13h35V181z
	 M112,78.3L140.3,50H119v-9h36v35.8h-9V56.3l-27.6,28.3L112,78.3z M61,146h109v8H61V146z"/>
</svg>
