<?xml version="1.0" encoding="UTF-8"?>
<svg id="ART" xmlns="http://www.w3.org/2000/svg" version="1.1" viewBox="0 0 288 288">
  <defs>
    <style>
      .cls-1 {
        fill: #312d2a;
        fill-rule: evenodd;
        stroke-width: 0px;
      }
    </style>
  </defs>
  <path class="cls-1" d="M144,66.6c-43.6,0-77.4,31.9-77.4,75s9.2,42,24.3,55.5c1.3,1.1,2,2.7,2.1,4.4l.4,13.8c.1,4.4,4.7,7.2,8.7,5.5l15.4-6.8c1.3-.6,2.8-.7,4.1-.3,7.1,1.9,14.6,3,22.4,3,43.6,0,77.4-31.9,77.4-75s-33.8-75-77.4-75ZM190.5,124.4l-22.7,36.1c-3.6,5.7-11.4,7.2-16.8,3.1l-18.1-13.6c-1.7-1.2-3.9-1.2-5.6,0l-24.4,18.5c-3.3,2.5-7.5-1.4-5.3-4.9l22.7-36.1c3.6-5.7,11.4-7.2,16.8-3.1l18.1,13.6c1.7,1.2,3.9,1.2,5.6,0l24.4-18.5c3.3-2.5,7.5,1.4,5.3,4.9Z"/>
</svg>