<?xml version="1.0" encoding="utf-8"?>
<!-- Generator: Adobe Illustrator 24.0.3, SVG Export Plug-In . SVG Version: 6.00 Build 0)  -->
<svg version="1.1" xmlns="http://www.w3.org/2000/svg" xmlns:xlink="http://www.w3.org/1999/xlink" x="0px" y="0px"
	 viewBox="0 0 288 288" style="enable-background:new 0 0 288 288;" xml:space="preserve">
<style type="text/css">
	.st0{display:none;}
	.st1{display:inline;}
	.st2{fill:#00AEEF;}
	.st3{display:inline;fill:none;stroke:#00AEEF;stroke-miterlimit:10;}
	.st4{fill:#FCFBFA;}
</style>
<g id="Drawing" class="st0">
	<g class="st1">
		<path class="st2" d="M144,97.09c25.92,0,47,21.05,47,46.92s-21.08,46.92-47,46.92s-47-21.05-47-46.92S118.08,97.09,144,97.09
			 M144,96.09c-26.51,0-48,21.46-48,47.92s21.49,47.92,48,47.92s48-21.46,48-47.92S170.51,96.09,144,96.09L144,96.09z"/>
	</g>
	<g class="st1">
		<path class="st2" d="M287,1v286H1V1H287 M288,0H0v288h288V0L288,0z"/>
	</g>
	<line class="st3" x1="96" y1="0" x2="96" y2="288"/>
	<line class="st3" x1="192" y1="0" x2="192" y2="288"/>
	<line class="st3" x1="0" y1="192" x2="288" y2="192"/>
	<line class="st3" x1="0" y1="96" x2="288" y2="96"/>
	<g class="st1">
		<path class="st2" d="M144,13.15c34.99,0,67.89,13.63,92.63,38.37C261.37,76.26,275,109.16,275,144.15s-13.63,67.89-38.37,92.63
			c-24.74,24.74-57.64,38.37-92.63,38.37s-67.89-13.63-92.63-38.37C26.63,212.04,13,179.14,13,144.15s13.63-67.89,38.37-92.63
			C76.11,26.78,109.01,13.15,144,13.15 M144,12.15c-72.9,0-132,59.1-132,132s59.1,132,132,132s132-59.1,132-132
			S216.9,12.15,144,12.15L144,12.15z"/>
	</g>
	<g class="st1">
		<path class="st2" d="M240,13c6.07,0,11,4.93,11,11v240c0,6.07-4.93,11-11,11H48c-6.07,0-11-4.93-11-11V24c0-6.07,4.93-11,11-11
			H240 M240,12H48c-6.6,0-12,5.4-12,12v240c0,6.6,5.4,12,12,12h192c6.6,0,12-5.4,12-12V24C252,17.4,246.6,12,240,12L240,12z"/>
	</g>
	<g class="st1">
		<path class="st2" d="M264,37c6.07,0,11,4.93,11,11v192c0,6.07-4.93,11-11,11H24c-6.07,0-11-4.93-11-11V48c0-6.07,4.93-11,11-11
			H264 M264,36H24c-6.6,0-12,5.4-12,12v192c0,6.6,5.4,12,12,12h240c6.6,0,12-5.4,12-12V48C276,41.4,270.6,36,264,36L264,36z"/>
	</g>
	<g class="st1">
		<path class="st2" d="M247.78,25c8.39,0,15.22,6.83,15.22,15.22v207.56c0,8.39-6.83,15.22-15.22,15.22H40.22
			C31.83,263,25,256.17,25,247.78V40.22C25,31.83,31.83,25,40.22,25H247.78 M247.78,24H40.22C31.3,24,24,31.3,24,40.22v207.56
			C24,256.7,31.3,264,40.22,264h207.56c8.92,0,16.22-7.3,16.22-16.22V40.22C264,31.3,256.7,24,247.78,24L247.78,24z"/>
	</g>
</g>
<g id="icon_art">
	<path class="st4" d="M71.52,95.38L45.07,68.6l5.69-5.62l20.81,21.07l20.78-20.64L98,69.09L71.52,95.38z M248,68h-65.97v8H248V68z
		 M226,82h-44v8h44V82z M248,138H116v8h132V138z M198,152h-82v8h82V152z M248,208H116v8h132V208z M224,222H116v8h108V222z M104,196
		H72c0-6-3.42-8-7.88-8H49.08c-4.22,0-9.08,2-9.08,8.21S40,244,40,244h64V196z M48,197.22c0-1.22,0-1.22,1.08-1.22h13.04
		c1.88,0,1.88,0,1.88,0.67V204h32v32H48V197.22z M170,54h-32c0-6-3.42-8-7.88-8h-15.04c-4.22,0-9.08,2-9.08,8.21s0,47.79,0,47.79h64
		V54z M114,55.22c0-1.22,0-1.22,1.08-1.22h13.04c1.88,0,1.88,0,1.88,0.67V62h32v32h-48V55.22z M104,124H72c0-6-3.42-8-7.88-8H49.08
		c-4.22,0-9.08,2-9.08,8.21S40,172,40,172h64V124z M48,125.22c0-1.22,0-1.22,1.08-1.22h13.04c1.88,0,1.88,0,1.88,0.67V132h32v32H48
		V125.22z"/>
</g>
</svg>
