<?xml version="1.0" encoding="utf-8"?>
<!-- Generator: Adobe Illustrator 24.0.3, SVG Export Plug-In . SVG Version: 6.00 Build 0)  -->
<svg version="1.1" id="ART" xmlns="http://www.w3.org/2000/svg" xmlns:xlink="http://www.w3.org/1999/xlink" x="0px" y="0px"
	 viewBox="0 0 288 288" style="enable-background:new 0 0 288 288;" xml:space="preserve">
<style type="text/css">
	.st0{fill:#312D2A;}
</style>
<path class="st0" d="M150,128h37V92h-9v20.7L144,78v12.7l28.3,28.4H150V128z M138,169v-9h-37v36h9v-20.6l34,34.6v-12.7L115.7,169
	H138z M206.6,140H150v96h76v-76.3L206.6,140z M207.1,151.9l6.9,7h-6.9V151.9z M158.1,228v-80h41v18.9H218V228H158.1z M137.9,71.7
	L118.6,52H62v96h75.9V71.7z M119,63.9l6.9,7H119V63.9z M70,140V60h41v18.9h18.9V140H70z M108.1,88.2l-8.2,8.2l-8.2-8.2L86,93.9
	l8.2,8.2l-8.2,8.2l5.7,5.7l8.2-8.2l8.2,8.2l5.7-5.7l-8.2-8.2l8.2-8.2L108.1,88.2z M183.2,194.3l-6.4-6.4l-5.6,5.7l12,12l21.6-21.6
	l-5.7-5.7L183.2,194.3z"/>
</svg>
