<svg id="ART" xmlns="http://www.w3.org/2000/svg" viewBox="0 0 288 288"><defs><style>.cls-1{fill:#fcfbfa;}</style></defs><path class="cls-1" d="M171.51,150H164l0-13a26.86,26.86,0,0,0,8-19V79H137c-11.84,0-18.93,7.78-19,20.82h0v18.52A26,26,0,0,0,126,137v13h-8.51C102.88,150,91,162.11,91,177v29h8V177c0-10.3,8.47-19,18.49-19H126v48h8v-26.7l7-9.8V206h8v-36.5l7,9.8V206h8V158h7.51c10,0,18.49,8.7,18.49,19v29h8V177C198,162.11,186.12,150,171.51,150ZM137,87h26.74c-1.3,9-7.06,9-9.11,9H126.31C127.35,90.05,130.93,87,137,87Zm17.63,17a17,17,0,0,0,9.37-2.54V118a19.22,19.22,0,0,1-19,19,18.86,18.86,0,0,1-19-18.63V104ZM145,145a26.4,26.4,0,0,0,11-2.42V150H134l0-7.35A27.25,27.25,0,0,0,145,145Zm11,13v7.52L150.63,158Zm-22,0h5.37L134,165.52ZM94.66,118.2l-1-3.86a44.44,44.44,0,0,1-1.58-12l0-2.84C92.05,88.2,83.32,79,72.59,79H65C52.44,79,42.69,85.77,38.25,97.6c-8.52,22.73,1,37.06,1.45,37.66l.74,1.07L50,139.72c-.22,5.74-1.58,10.22-3.79,12.44l.11.11A24,24,0,0,0,30,175v31h8V175a16,16,0,0,1,15.69-16h.62A8,8,0,0,1,62,167v39h8V167a15.81,15.81,0,0,0-2.16-8h5.9l-.88,1A8.78,8.78,0,0,1,76,166.78V206h8v-39.2a16.73,16.73,0,0,0-5.65-12.54L78.9,139a16,16,0,0,0,3.43-1.61,15.6,15.6,0,0,0,7.26-11.46l.07-.46,2.75-1.65A5,5,0,0,0,94.66,118.2ZM45.75,100.4C47.62,95.39,52.63,87,65,87h7.59A10.56,10.56,0,0,1,78,88.45C77.64,94.62,74.86,100,61,100H58.8l-1.17,1.85c-.29.46-6.43,10.38-5.21,30.26l-6.7-2.39C44.05,126.5,39.88,116.06,45.75,100.4ZM75,136h0v-.25Zm7.32-15.47-.67,4.22,0,.18a7.73,7.73,0,0,1-7,6.83l0,.25H65v4l5.89,3L70.46,151H56a33.79,33.79,0,0,0,1.8-8.49l4,1.43L61,137.47c-2.09-16,1-25.76,2.54-29.53,8-.4,16.49-2.87,20.36-10.67a13.7,13.7,0,0,1,.18,2.23l0,2.82a52.73,52.73,0,0,0,1.86,14.13l.45,1.66Zm160.38,31.75.11-.11c-2.21-2.22-3.57-6.7-3.79-12.44l9.52-3.39.74-1.07c.41-.6,10-14.93,1.45-37.66C246.31,85.77,236.56,79,224,79h-7.59C205.68,79,197,88.2,197,99.54l0,2.82a44.44,44.44,0,0,1-1.58,12l-1,3.86a5,5,0,0,0,2.25,5.6l2.75,1.65.07.46a15.6,15.6,0,0,0,7.26,11.46A16,16,0,0,0,210.1,139l.55,15.26A16.73,16.73,0,0,0,205,166.78V206h8v-39.2a8.78,8.78,0,0,1,3.14-6.74l-.88-1h5.9a15.81,15.81,0,0,0-2.16,8v39h8V167a8,8,0,0,1,7.69-8h.62A16,16,0,0,1,251,175v31h8V175A24,24,0,0,0,242.72,152.27ZM216.41,87H224c12.37,0,17.38,8.41,19.25,13.42,5.88,15.68,1.69,26.13,0,29.32l-6.7,2.39c1.22-19.88-4.92-29.8-5.2-30.26L230.2,100H228c-8.44,0-16.28-1.44-16.95-11.55A10.52,10.52,0,0,1,216.41,87ZM214,136l0-.26V136Zm4.13,2.94,5.89-3v-4h-9.68l0-.25a7.73,7.73,0,0,1-7-6.82l-.69-4.41-4-2.41.45-1.66A52.73,52.73,0,0,0,205,102.32l0-2.8a13.63,13.63,0,0,1,.19-2.24c3.86,7.79,12.35,10.26,20.34,10.66,1.6,3.79,4.64,13.56,2.55,29.53l-.84,6.47,4-1.43A33.79,33.79,0,0,0,233,151H218.54Z"/></svg>