<?xml version="1.0" encoding="utf-8"?>
<!-- Generator: Adobe Illustrator 24.0.3, SVG Export Plug-In . SVG Version: 6.00 Build 0)  -->
<svg version="1.1" id="ART" xmlns="http://www.w3.org/2000/svg" xmlns:xlink="http://www.w3.org/1999/xlink" x="0px" y="0px"
	 viewBox="0 0 288 288" style="enable-background:new 0 0 288 288;" xml:space="preserve">
<style type="text/css">
	.st0{fill:#312D2A;}
</style>
<path class="st0" d="M183.2,108.2L158,133.3V54h-8v98.7l38.8-38.8L183.2,108.2z M138,54h-8v79.3l-25.2-25.2l-5.7,5.7l38.8,38.8V54z
	 M227,193c0-5-4-9-9-9l0,0h-71.3l56.2-56.2l-5.7-5.7L144,175.3l-53.2-53.2l-5.7,5.7l56.2,56.2H70c-5,0-9,4-9,9l0,0v27h166V193z
	 M219,212H69v-19c0-0.6,0.4-1,1-1h148c0.6,0,1,0.4,1,1V212z M207,197c2.8,0,5,2.2,5,5s-2.2,5-5,5s-5-2.2-5-5S204.2,197,207,197z
	 M191,197c2.8,0,5,2.2,5,5s-2.2,5-5,5s-5-2.2-5-5S188.2,197,191,197z M219,226L219,226H69l0,0h-8v4l8,4l0,0h150l0,0l8-4v-4H219z"/>
</svg>
