<?xml version="1.0" encoding="utf-8"?>
<!-- Generator: Adobe Illustrator 24.0.3, SVG Export Plug-In . SVG Version: 6.00 Build 0)  -->
<svg version="1.1" id="ART" xmlns="http://www.w3.org/2000/svg" xmlns:xlink="http://www.w3.org/1999/xlink" x="0px" y="0px"
	 viewBox="0 0 288 288" style="enable-background:new 0 0 288 288;" xml:space="preserve">
<style type="text/css">
	.st0{fill:#312D2A;}
</style>
<path class="st0" d="M187,112v64h64v-64H187z M243,168h-48v-48h48V168z M201,126h36v8h-36V126z M201,140h36v8h-36V140z M201,154h15
	v8h-15V154z M113,144c0,18.2,14.8,33,33,33s33-14.8,33-33s-14.8-33-33-33S113,125.8,113,144z M171,144c0,13.8-11.2,25-25,25
	s-25-11.2-25-25s11.2-25,25-25S171,130.2,171,144L171,144z M134.7,159.2l27.2-15.2l-27.2-15.2V159.2z M105,112H41v64h64V112z
	 M97,120v24.2l-12.7-8l-35.3,26V120H97z M54.6,168l30.1-22.1l12.3,7.8V168H54.6z M63.4,126.3c4.4,0,7.9,3.5,7.9,7.9
	s-3.5,7.9-7.9,7.9s-7.9-3.5-7.9-7.9S59.1,126.3,63.4,126.3z M217,192H75v-10h-8v18h158v-18h-8V192z M75,84.1c0-0.6,0.5-1.1,1.1-1.1
	h39.2c0.3,0,0.7,0.2,0.9,0.4L126.8,97H216c0.6,0,1.1,0.5,1.1,1.1l0,0v7.9h8v-7.9c0-5-4.1-9.1-9.1-9.1h-85.3l-8.2-10.5
	c-1.7-2.2-4.4-3.5-7.2-3.5H76.1c-5,0-9.1,4.1-9.1,9.1V106h8V84.1z"/>
</svg>
