<svg id="icon_art" data-name="icon art" xmlns="http://www.w3.org/2000/svg" viewBox="0 0 288 288"><defs><style>.cls-1{fill:#312d2a;}</style></defs><title>RMIL_Technology</title><path class="cls-1" d="M129.52,153.8a37.74,37.74,0,0,1,30.95-59.29,40.26,40.26,0,0,1,4.11.22A37.77,37.77,0,0,1,191.35,154l-5.76-5.77a29.75,29.75,0,1,0-50.3-.22Zm16.18-16.19a15.74,15.74,0,0,1,14.77-21.1,14.46,14.46,0,0,1,1.73.1,15.73,15.73,0,0,1,14,17.35,16,16,0,0,1-1,3.9l6,6a23.74,23.74,0,1,0-41.51-.22ZM216,102h-8v16h8Zm4.7-55H67.3A9.31,9.31,0,0,0,58,56.3V163.7a9.31,9.31,0,0,0,9.3,9.3h73.49l.73-8H67.3a1.3,1.3,0,0,1-1.3-1.3V56.3A1.3,1.3,0,0,1,67.3,55H220.7a1.3,1.3,0,0,1,1.3,1.3V163.7a1.3,1.3,0,0,1-1.3,1.3H180.26l1,8H220.7a9.31,9.31,0,0,0,9.3-9.3V56.3A9.31,9.31,0,0,0,220.7,47ZM195.36,245.37l16-39.69a2.91,2.91,0,0,0,.16-.5,12.56,12.56,0,0,0,.37-2,14.1,14.1,0,0,0-7.5-14.09l-.3-.14-29-12.33-5.4-44A9.91,9.91,0,0,0,150,132L144.41,192l-4.34,4.19a93.59,93.59,0,0,0-14.57-13.05c-14.45-10.55-25.1,2.21-25.2,2.34a4,4,0,0,0-.21,4.76L138.51,247a9.13,9.13,0,0,0,7.43,4.05H187A9,9,0,0,0,195.36,245.37Zm-84.88-57.64c3.3-1.38,6.67-.76,10.3,1.89,10.56,7.72,15.65,14.73,15.7,14.79a4,4,0,0,0,6,.56l8.53-8.22a4,4,0,0,0,1.2-2.52l5.67-61.47a1.91,1.91,0,0,1,3.81.2,3.87,3.87,0,0,0,0,.48l5.71,46.46a4,4,0,0,0,2.4,3.2l30.95,13.16a6.15,6.15,0,0,1,3.15,6.07,4.41,4.41,0,0,1-.11.63l-15.91,39.41a1,1,0,0,1-.93.63H146a1.1,1.1,0,0,1-.82-.54l-36.45-53.77A11.12,11.12,0,0,1,110.48,187.73Z"/></svg>