<svg id="icon_art" data-name="icon art" xmlns="http://www.w3.org/2000/svg" viewBox="0 0 288 288"><defs><style>.cls-1{fill:#312d2a;}</style></defs><title>RMIL_Technology</title><rect class="cls-1" x="129" y="207" width="12" height="8"/><rect class="cls-1" x="147" y="207" width="12" height="8"/><path class="cls-1" d="M203,76.63C203,62.72,165.91,59,144,59S85,62.72,85,76.63a5.11,5.11,0,0,0,0,.55,3.44,3.44,0,0,0,0,.45v96.21c0,8.34,14.07,12.92,30,15.2v31a9,9,0,0,0,9,9h40a9,9,0,0,0,9-9V189c15.93-2.28,30-6.86,30-15.2V77.63a3.44,3.44,0,0,0-.05-.45A5.11,5.11,0,0,0,203,76.63Zm-8,65c-1.17,2.15-15.62,9.31-51,9.31s-49.83-7.16-51-9.31V119.15c12.13,5.94,35.4,7.78,51,7.78s38.87-1.84,51-7.78Zm0-32c-1.17,2.15-15.62,9.31-51,9.31s-49.83-7.16-51-9.31V86.27c12.13,6.1,35.4,8,51,8s38.87-1.89,51-8ZM144,67c30.85,0,49.35,6.19,51,9.62-1.61,3.43-20.11,9.63-51,9.63s-49.35-6.2-51-9.63C94.65,73.2,113.15,67,144,67Zm21,153a1,1,0,0,1-1,1H124a1,1,0,0,1-1-1V190c7.43.72,14.82,1,21,1s13.57-.28,21-1Zm-21-37c-35.38,0-49.83-7.15-51-9.31V151.15c12.13,5.94,35.4,7.78,51,7.78s38.87-1.84,51-7.78v22.54C193.83,175.85,179.38,183,144,183Z"/><path class="cls-1" d="M144,110.92c14.76,0,28.91-1.49,39.85-4.19,1.86-.46,3.57-1,5.15-1.45v-8.4c-8.1,3-23.79,6-45,6Z"/><path class="cls-1" d="M144,143c14.76,0,28.91-1.49,39.85-4.19,1.86-.46,3.57-.95,5.15-1.45v-8.4c-8.1,3-23.79,6-45,6Z"/><path class="cls-1" d="M144,174.93c14.76,0,28.91-1.49,39.85-4.2,1.86-.46,3.57-.94,5.15-1.44v-8.41c-8.1,3-23.79,6.05-45,6.05Z"/></svg>