<svg id="ART" xmlns="http://www.w3.org/2000/svg" viewBox="0 0 288 288"><defs><style>.cls-1{fill:#fcfbfa;}</style></defs><path class="cls-1" d="M203,174a9,9,0,0,0-9-9h-8v-2a9,9,0,0,0-4-7.48V101a21,21,0,0,0-21-21h-5V75h8V52a17,17,0,0,0-17-17h-6a17,17,0,0,0-17,17V75h8v5h-5a21,21,0,0,0-21,21v61h14v34h6v61h36V209h41Zm-35-9v-3h9a1,1,0,0,1,1,1v2Zm-14,31v39h-6V196Zm6-8H128V147h32v41ZM152.28,65.68A11.94,11.94,0,0,1,143.42,69a12.32,12.32,0,0,1-11.33-11A16.86,16.86,0,0,0,144,55.27a16.94,16.94,0,0,0,9.4,2.88A18.26,18.26,0,0,0,156,58,11.83,11.83,0,0,1,152.28,65.68ZM143,77l1,0a20.3,20.3,0,0,0,4-.4v6.18a5.23,5.23,0,0,1-8,0V76.57A19,19,0,0,0,143,77Zm25,71h6v6h-6Zm6-47v39h-6V107h-8v32H148V92a12.89,12.89,0,0,0,6.06-4H161A13,13,0,0,1,174,101ZM141,43h6a9,9,0,0,1,8.73,6.87c-1.85.49-5.36.74-9-2.62L144,44.8l-2.7,2.45c-3.68,3.36-7.19,3.11-9,2.63A9,9,0,0,1,141,43ZM127,88h6.94A12.89,12.89,0,0,0,140,92v47H128V107h-8v33h-6V101A13,13,0,0,1,127,88Zm-13,66v-6h6v6Zm26,42v39h-6V196Zm-6,47h6v6h-6Zm14,6v-6h6v6Zm47-48H162v-5h6V173h26a1,1,0,0,1,1,1Z"/></svg>