<?xml version="1.0" encoding="utf-8"?>
<!-- Generator: Adobe Illustrator 27.1.0, SVG Export Plug-In . SVG Version: 6.00 Build 0)  -->
<svg version="1.1" id="Layer_1" xmlns="http://www.w3.org/2000/svg" xmlns:xlink="http://www.w3.org/1999/xlink" x="0px" y="0px"
	 viewBox="0 0 288 288" style="enable-background:new 0 0 288 288;" xml:space="preserve">
<style type="text/css">
	.st0{display:none;}
	.st1{display:inline;}
	.st2{fill:#56A5D8;}
	.st3{fill:none;stroke:#56A5D8;stroke-width:0.25;stroke-miterlimit:10;}
	.st4{fill:#FCFBFA;}
</style>
<g id="GUIDES" class="st0">
	<g class="st1">
		<g>
			<path class="st2" d="M144,96.3c26.3,0,47.8,21.4,47.8,47.7s-21.4,47.7-47.8,47.7S96.2,170.3,96.2,144S117.7,96.3,144,96.3
				 M144,96.1c-26.5,0-48,21.5-48,47.9c0,26.5,21.5,47.9,48,47.9s48-21.5,48-47.9C192,117.5,170.5,96.1,144,96.1L144,96.1z"/>
		</g>
		<line class="st3" x1="96" y1="0" x2="96" y2="288"/>
		<line class="st3" x1="192" y1="0" x2="192" y2="288"/>
		<line class="st3" x1="0" y1="192" x2="288" y2="192"/>
		<line class="st3" x1="0" y1="96" x2="288" y2="96"/>
		<g>
			<path class="st2" d="M144,12.4c35.2,0,68.3,13.7,93.2,38.6s38.6,58,38.6,93.2s-13.7,68.3-38.6,93.2S179.2,276,144,276
				s-68.3-13.7-93.2-38.6s-38.6-58-38.6-93.2S26,75.9,50.8,51C75.7,26.1,108.8,12.4,144,12.4 M144,12.1c-72.9,0-132,59.1-132,132
				s59.1,132,132,132s132-59.1,132-132S216.9,12.1,144,12.1L144,12.1z"/>
		</g>
		<g>
			<path class="st2" d="M240,12.2c6.5,0,11.8,5.3,11.8,11.8v240c0,6.5-5.3,11.8-11.8,11.8H48c-6.5,0-11.8-5.3-11.8-11.8V24
				c0-6.5,5.3-11.8,11.8-11.8H240 M240,12H48c-6.6,0-12,5.4-12,12v240c0,6.6,5.4,12,12,12h192c6.6,0,12-5.4,12-12V24
				C252,17.4,246.6,12,240,12L240,12z"/>
		</g>
		<g>
			<path class="st2" d="M264,36.2c6.5,0,11.8,5.3,11.8,11.8v192c0,6.5-5.3,11.8-11.8,11.8H24c-6.5,0-11.8-5.3-11.8-11.8V48
				c0-6.5,5.3-11.8,11.8-11.8H264 M264,36H24c-6.6,0-12,5.4-12,12v192c0,6.6,5.4,12,12,12h240c6.6,0,12-5.4,12-12V48
				C276,41.4,270.6,36,264,36L264,36z"/>
		</g>
		<g>
			<path class="st2" d="M247.8,24.2c8.8,0,16,7.2,16,16v207.6c0,8.8-7.2,16-16,16H40.2c-8.8,0-16-7.2-16-16V40.2c0-8.8,7.2-16,16-16
				H247.8 M247.8,24H40.2C31.3,24,24,31.3,24,40.2v207.6c0,8.9,7.3,16.2,16.2,16.2h207.6c8.9,0,16.2-7.3,16.2-16.2V40.2
				C264,31.3,256.7,24,247.8,24L247.8,24z"/>
		</g>
	</g>
</g>
<g id="ART">
	<g>
		<circle class="st4" cx="169.8" cy="199.3" r="6"/>
		<path class="st4" d="M225.3,115.3L204,99V65.1h-24v15.6l-29.5-22.5c-3.3-2.5-8-2.5-11.3,0l-74.8,57.1c-3.2,2.5-4.5,6.5-3.2,10.4
			c1.3,3.9,4.8,6.3,8.8,6.3h14.3v49.1c0,18,14.6,32.6,32.6,32.6s32.6-14.6,32.6-32.6v-17.7c17.9-2.3,31.8-17.6,31.8-36.1v-17.8
			c0-2.5-1-4.9-2.8-6.7c-1.8-1.8-4.2-2.8-6.7-2.8h-5.9c-1.4-2.1-3.9-3.6-6.7-3.6c-4.4,0-8,3.6-8,8s3.6,8,8,8c2.8,0,5.2-1.4,6.7-3.6
			h5.9c0.2,0,0.3,0.1,0.4,0.2s0.2,0.2,0.2,0.4v17.8c0,15.2-12.4,27.5-27.5,27.6c-15.2,0-27.5-12.4-27.5-27.6v-17.8
			c0-0.3,0.2-0.6,0.6-0.6h5.5c1.4,2.1,3.9,3.6,6.7,3.6c4.4,0,8-3.6,8-8s-3.6-8-8-8c-2.8,0-5.2,1.4-6.7,3.6H118
			c-5.2,0-9.4,4.2-9.4,9.4v17.8c0,18.8,14.4,34.4,32.7,36.3v17.6c0,13.4-10.9,24.2-24.2,24.2s-24.2-10.9-24.2-24.2v-57.4H70
			c-0.2,0-0.7,0-0.9-0.7c-0.2-0.5,0-0.8,0.3-1.1l74.8-57.1c0.4-0.3,0.9-0.3,1.2,0l74.8,57.1c0.1,0.1,0.6,0.4,0.3,1.1
			c-0.2,0.7-0.8,0.7-0.9,0.7H197v58.1c0,6.1-4.1,11.3-9.8,12.8c-2.1-7.8-9.1-13.5-17.5-13.5c-10,0-18.2,8.1-18.2,18.2
			s8.1,18.2,18.2,18.2c8.7,0,16-6.2,17.8-14.3c4.4-0.8,8.4-2.8,11.6-6c4.1-4.1,6.3-9.5,6.3-15.3v-49.8h14.3c4.1,0,7.5-2.5,8.8-6.3
			C229.8,121.9,228.6,117.8,225.3,115.3z M188,73.1h8v19.8l-8-6.1V73.1z M169.8,209.2c-5.4,0-9.8-4.4-9.8-9.8s4.4-9.8,9.8-9.8
			s9.8,4.4,9.8,9.8S175.2,209.2,169.8,209.2z"/>
	</g>
</g>
</svg>
