<svg id="ART" xmlns="http://www.w3.org/2000/svg" viewBox="0 0 288 288"><defs><style>.cls-1{fill:#fcfbfa;}</style></defs><path class="cls-1" d="M66.13,135H58v-4l8.13-4h50l7.87,4v4H66.13ZM113.64,226a24.35,24.35,0,0,0,3.27,4.05H73.13A9.13,9.13,0,0,1,64,221V141h54v49l-6,13a24,24,0,0,0-1.91,6.37V163H72v58a1,1,0,0,0,1,1h38.59A25.12,25.12,0,0,0,113.64,226ZM72,155h38.13v-6H72Zm23,48v-7h7v-8H95v-7H87v7H80v8h7v7Zm129.31,19.71A17.93,17.93,0,0,1,209.15,231h-75.3a18,18,0,0,1-16.36-25.52L148,139.12V63l-8-4V55h63v4l-8,4v76.12l30.51,66.36A18,18,0,0,1,224.31,222.71Zm-6.07-13.89L187,140.88V63H156v7h8v8h-8v6h18v8H156v6h8v8h-8v6h18v8H156v6h8v8h-8v6.88l-31.24,67.94A10,10,0,0,0,133.85,223h75.3a10,10,0,0,0,9.09-14.18Zm-6.1,1.09a5,5,0,0,1-4.55,7.09H135.41a5,5,0,0,1-4.55-7.08L149.21,170h44.58Zm-9.23-.91-14.25-31H154.34l-14.25,31Z"/></svg>