<svg id="ART" xmlns="http://www.w3.org/2000/svg" viewBox="0 0 288 288"><defs><style>.cls-1{fill:#fcfbfa;}</style></defs><path class="cls-1" d="M183,104v50h50V104Zm42,42h-6V122h-8v24h-6V131.14h-8V146h-6V112h34Zm-118,8V104H49v40H89.08l8,10ZM57,136V112H99v31.6L92.92,136Zm6-18H93v8H63ZM95,98H84.78a74.57,74.57,0,0,1,25.35-22.19A33.85,33.85,0,0,0,111.84,84,66.78,66.78,0,0,0,95,98Zm81.55-15.06A34.35,34.35,0,0,0,178,74.66,73.26,73.26,0,0,1,205.25,98H195.12A65.32,65.32,0,0,0,176.52,82.94Zm-3.8,110.38a33.71,33.71,0,0,0,5.81-7.62l.8-1.39L168,138.93l-.07,0c-2.61-8.1-9.87-13.95-18.42-13.95H138.41c-9.59,0-17.56,7.36-19.15,17l-10.53,42.31.8,1.39a33.59,33.59,0,0,0,5.79,7.61A25.82,25.82,0,0,0,93,219v18h8V219c0-10.09,8.12-18,18.49-18h9.76a15.12,15.12,0,0,0,29.5,0h9.76c10.37,0,18.49,7.91,18.49,18v18h8V219A25.81,25.81,0,0,0,172.72,193.32ZM127,159.62v-6.1a23.17,23.17,0,0,0,17-4.44,22.87,22.87,0,0,0,17,4.44v6.1c0,10.2-7.64,18.49-17,18.49S127,169.82,127,159.62ZM159,192.26V180.79a26.45,26.45,0,0,0,8.31-11.63l3.47,13.91A20.32,20.32,0,0,1,159,192.26ZM138.41,133h11.13c6.28,0,11.39,5.56,11.45,12.41-3.28.66-8.74.62-14.3-4.44L144,138.52,141.31,141c-5.58,5.08-11.07,5.1-14.35,4.44a12.67,12.67,0,0,1,.14-1.76l.69-2.79h0A11.52,11.52,0,0,1,138.41,133ZM120.7,169.33a26.54,26.54,0,0,0,8.3,11.5v11.41a20.3,20.3,0,0,1-11.72-9.17ZM144,204.79c-3.65,0-7-3-7-6.24V185.06a23.64,23.64,0,0,0,14,0v13.51C151,201.82,147.65,204.79,144,204.79ZM144,101a28,28,0,1,0-28-28A28,28,0,0,0,144,101Zm0-48a20,20,0,1,1-20,20A20,20,0,0,1,144,53Zm-3.71,32.93-9.95-10L136,70.32l4.29,4.3L152,62.9l5.66,5.66Z"/></svg>