<?xml version="1.0" encoding="UTF-8"?>
<svg id="ART" xmlns="http://www.w3.org/2000/svg" viewBox="0 0 288 288">
  <defs>
    <style>
      .cls-1 {
        fill: #fcfbfa;
      }
    </style>
  </defs>
  <path class="cls-1" d="M241.91,60.21c.05-.39.09-.78.09-1.17,0-7.58-9-13.64-26.77-18.03-15.6-3.85-36.28-5.97-58.23-5.97s-42.63,2.12-58.23,5.97c-17.76,4.39-26.77,10.45-26.77,18.03,0,.4.04.78.09,1.17,0,0,0,0,0,0-.06.27-.09.54-.09.83v33.92h-26v158h172v-34.55c15.92-4.19,24-9.87,24-16.89V61.04c0-.28-.03-.56-.09-.83,0,0,0,0,0,0ZM92,244.96h-38v-42h38v42ZM92,194.96h-38v-42h38v42ZM92,144.96h-38v-42h38v42ZM210,244.96h-110v-42h110v42ZM210,194.96h-110v-42h110v42ZM210,144.96h-110v-42h110v42ZM234,201.51c0,1.14-3.09,4.91-16,8.6v-38.63c6.76-1.78,12.09-3.83,16-6.14v36.16ZM234,154.59c0,1.14-3.09,4.91-16,8.6v-37.93c6.76-1.78,12.09-3.83,16-6.14v35.47ZM234,108.36c0,1.14-3.09,4.91-16,8.6v-22H80v-24.91h0c.52.31,1.06.62,1.63.92.06.03.13.07.19.1.53.28,1.08.55,1.65.82.13.06.25.12.38.18.54.25,1.09.49,1.66.74.2.08.4.16.6.25.53.22,1.08.44,1.64.65.28.11.57.21.85.31.52.19,1.05.38,1.59.56.38.13.78.25,1.17.38.49.16.97.32,1.48.47.53.16,1.09.32,1.65.48.4.12.8.23,1.21.35.99.27,2.02.54,3.07.8,15.6,3.85,36.28,5.97,58.23,5.97s42.63-2.12,58.23-5.97c1.06-.26,2.08-.53,3.07-.8.41-.11.8-.23,1.2-.35.56-.16,1.12-.32,1.65-.48.51-.15.99-.31,1.47-.47.39-.13.79-.25,1.17-.38.55-.19,1.07-.37,1.59-.56.28-.1.57-.21.85-.31.56-.21,1.11-.43,1.64-.65.2-.08.4-.16.6-.25.57-.24,1.12-.49,1.66-.74.13-.06.25-.12.38-.18.57-.27,1.12-.55,1.65-.82.06-.03.13-.07.19-.1.57-.3,1.11-.61,1.63-.92,0,0,0,0,0,0v38.31ZM213.32,69.3c-15,3.7-35,5.74-56.32,5.74s-41.32-2.04-56.32-5.74c-16.97-4.19-20.68-8.83-20.68-10.26s3.72-6.07,20.68-10.26c14.99-3.7,34.99-5.74,56.32-5.74s41.32,2.04,56.32,5.74c16.97,4.19,20.68,8.83,20.68,10.26s-3.72,6.07-20.68,10.26Z"/>
  <polygon class="cls-1" points="173.66 236.79 180.83 229.61 188 236.79 193.66 231.13 186.49 223.96 193.66 216.79 188 211.13 180.83 218.3 173.66 211.13 168 216.79 175.18 223.96 168 231.13 173.66 236.79"/>
  <polygon class="cls-1" points="124 186.72 131.17 179.55 138.34 186.72 144 181.07 136.82 173.89 144 166.72 138.34 161.07 131.17 168.24 124 161.07 118.34 166.72 125.51 173.89 118.34 181.07 124 186.72"/>
  <polygon class="cls-1" points="173.66 111.08 168 116.74 175.18 123.91 168 131.08 173.66 136.74 180.83 129.57 188 136.74 193.66 131.08 186.49 123.91 193.66 116.74 188 111.08 180.83 118.25 173.66 111.08"/>
  <path class="cls-1" d="M180.83,187.23c7.35,0,13.33-5.98,13.33-13.33s-5.98-13.33-13.33-13.33-13.33,5.98-13.33,13.33,5.98,13.33,13.33,13.33ZM180.83,167.23c3.68,0,6.67,2.99,6.67,6.67s-2.99,6.67-6.67,6.67-6.67-2.99-6.67-6.67,2.99-6.67,6.67-6.67Z"/>
  <path class="cls-1" d="M131.17,110.58c-7.35,0-13.33,5.98-13.33,13.33s5.98,13.33,13.33,13.33,13.33-5.98,13.33-13.33-5.98-13.33-13.33-13.33ZM131.17,130.58c-3.68,0-6.67-2.99-6.67-6.67s2.99-6.67,6.67-6.67,6.67,2.99,6.67,6.67-2.99,6.67-6.67,6.67Z"/>
  <path class="cls-1" d="M131.17,237.29c7.35,0,13.33-5.98,13.33-13.33s-5.98-13.33-13.33-13.33-13.33,5.98-13.33,13.33,5.98,13.33,13.33,13.33ZM131.17,217.29c3.68,0,6.67,2.99,6.67,6.67s-2.99,6.67-6.67,6.67-6.67-2.99-6.67-6.67,2.99-6.67,6.67-6.67Z"/>
</svg>