<svg id="ART" xmlns="http://www.w3.org/2000/svg" viewBox="0 0 288 288"><defs><style>.cls-1{fill:#fcfbfa;}</style></defs><path class="cls-1" d="M86,213h58V170H86Zm8-35h42v27H94Zm43-77V95h13a5,5,0,0,0,4-8L138.21,65.67A14.05,14.05,0,0,0,127,60H67V82.23l15.94,3.42,4.55,4.82L79.32,112h8.56l5.66-15.1,5.52,5.86,3.5,34.18-26.42,25.6A13.68,13.68,0,0,0,72,172.31V218.2a8.81,8.81,0,0,0,8.8,8.8h68.4a8.81,8.81,0,0,0,8.8-8.8V166.66L136.87,101Zm-5.22-30.56L144.06,87H129V97H104.63L89,80.41V68h38A6,6,0,0,1,131.78,70.43ZM75,68h6v9l-6-1.28Zm75,150.2a.8.8,0,0,1-.8.8H80.8a.8.8,0,0,1-.8-.8V172.31a5.6,5.6,0,0,1,1.71-4L110.92,140l-3.59-35h22.43L150,167.91ZM212,111h-6.61l-5-30H184.61l-5,30H173a9,9,0,0,0-9,9v98a9,9,0,0,0,9,9h39a9,9,0,0,0,9-9V120A9,9,0,0,0,212,111ZM191.39,89h2.22l3.67,22h-9.56ZM213,218a1,1,0,0,1-1,1H173a1,1,0,0,1-1-1V133h41Zm-41-93v-5a1,1,0,0,1,1-1h39a1,1,0,0,1,1,1v5Z"/></svg>