<?xml version="1.0" encoding="UTF-8"?>
<svg xmlns="http://www.w3.org/2000/svg" version="1.1" viewBox="0 0 288 288">
  <defs>
    <style>
      .cls-1 {
        fill: #fcfbfa;
      }
    </style>
  </defs>
  <!-- Generator: Adobe Illustrator 28.7.0, SVG Export Plug-In . SVG Version: 1.2.0 Build 136)  -->
  <g>
    <g id="ART">
      <g>
        <path class="cls-1" d="M153.7,147.5c-7.1,1.4-16.8,2.4-28.6,2.4s-12.4-.3-17.6-.8c-.4,0-.8,0-1.1-.1-8.5-.9-15-2.4-19.1-3.8-.2,0-.5-.2-.7-.3-.8-.3-1.5-.6-2.1-.9-.2,0-.4-.2-.5-.3-.5-.3-.9-.5-1.1-.8,0,0-.2-.2-.2-.3v-18.6c.1,0,.2,0,.3.2.2,0,.5.2.7.3.2,0,.4.2.7.3.3.1.6.2.9.3.4.2.9.3,1.3.4.5.2,1,.3,1.6.5.4.1.9.2,1.4.4.5.1,1,.3,1.5.4.4,0,.8.2,1.3.3,1.8.4,3.7.7,5.5,1,.8.1,1.5.2,2.2.3,1.9.3,3.8.5,5.6.7,1.1.1,2.1.2,3.2.3,3.2.3,6.2.4,8.7.5.4,0,.8,0,1.1,0s.7,0,1.1,0c.7,0,1.4,0,2,0,.2,0,.3,0,.4,0,.3,0,.6,0,.8,0,.9,0,1.6,0,2,0,.8,0,1.6,0,2.4,0,.4,0,.7,0,1.1,0,.3,0,.6,0,.9,0,.9,0,2,0,3.2-.1h.1c-1.4-2.5-2.6-5.1-3.5-7.9-.3,0-.5,0-.8,0-.5,0-1.1,0-1.6,0-.6,0-1.2,0-1.8,0-1.5,0-3,0-4.5,0-.3,0-.7,0-1,0-1.1,0-2.2,0-3.2-.1-.7,0-1.4,0-2,0-.5,0-.9,0-1.4,0-1.5,0-3-.2-4.4-.3-.6,0-1.2-.1-1.8-.2-.6,0-1.1-.1-1.6-.2,0,0-.2,0-.2,0-.5,0-1-.1-1.5-.2-1.6-.2-3.2-.4-4.6-.7-.5,0-1-.2-1.4-.2-4.3-.8-7.7-1.7-10.2-2.6-.3,0-.5-.2-.8-.3-.5-.2-1-.4-1.4-.6-.2,0-.3-.2-.5-.2-.2,0-.4-.2-.6-.3-.2,0-.3-.2-.4-.3-.2-.1-.3-.2-.4-.3h0c2.7-2.2,13.6-5.6,32.7-6.5,0-2.7.4-5.4,1-8.1-10.5.4-20.3,1.7-27.5,3.6-9.2,2.4-13.8,5.5-14.6,9.8,0,.2,0,.3,0,.3,0,.3,0,.6,0,.8v81.9c0,14.5,45.3,14.9,50.5,14.9s50.5-.4,50.5-14.9v-48.1c-2.6.5-5.3.8-8.1.8-4.9,0-9.5-.9-13.9-2.5h0ZM167.6,196.9c-2.1,2.7-17.6,7.3-42.5,7.3s-40.4-4.6-42.5-7.3v-17.9c.8.4,1.7.7,2.6,1,1.8.6,3.8,1.2,5.9,1.7.4.1.8.2,1.3.3,1.1.2,2.2.4,3.3.7.8.1,1.5.3,2.2.4,1.9.3,3.8.6,5.6.8.4,0,.8,0,1.1.1.7,0,1.5.1,2.2.2.5,0,1.1.1,1.6.1.4,0,.9,0,1.3.1.1,0,.2,0,.3,0,.3,0,.7,0,1,0,.3,0,.6,0,.9,0,.7,0,1.3,0,1.9.1.2,0,.5,0,.7,0h.2c.1,0,.2,0,.3,0,.4,0,.7,0,1.1,0,.3,0,.5,0,.8,0,.4,0,.8,0,1.1,0,.6,0,1.1,0,1.6,0h.2c.3,0,.6,0,.9,0,.4,0,.7,0,1,0,.2,0,.3,0,.4,0,1.3,0,2.3,0,2.8,0s1.5,0,2.8,0c.1,0,.3,0,.4,0,.3,0,.7,0,1,0,.3,0,.6,0,.9,0h.2c.5,0,1,0,1.6,0,.4,0,.7,0,1.1,0,.3,0,.5,0,.8,0,.4,0,.7,0,1.1,0,0,0,.2,0,.3,0h.1c.3,0,.5,0,.8,0,.3,0,.6,0,.9,0,.3,0,.6,0,.9,0,0,0,0,0,0,0,.3,0,.6,0,.9,0,.3,0,.7,0,1,0,.1,0,.2,0,.3,0,.4,0,.9,0,1.3-.1.5,0,1.1-.1,1.6-.1.7,0,1.5-.1,2.2-.2.4,0,.8,0,1.1-.1,1.9-.2,3.8-.5,5.6-.8.8-.1,1.5-.2,2.2-.4,1.1-.2,2.2-.4,3.3-.7.4,0,.8-.2,1.3-.3,2.1-.5,4.1-1.1,5.9-1.7.9-.3,1.8-.7,2.6-1v17.9h0ZM167.6,169.8c0,0-.1.2-.2.3-.1.1-.3.3-.5.4,0,0-.2.1-.3.2-.1,0-.2.1-.4.2-.2.1-.4.2-.5.3,0,0-.2,0-.3.1-.1,0-.3.1-.4.2-.2.1-.4.2-.7.3-.2.1-.5.2-.7.3-.2,0-.5.2-.7.3,0,0-.1,0-.2,0-.6.2-1.2.4-1.8.6-.2,0-.5.1-.8.2-.3,0-.5.1-.8.2-.4.1-.7.2-1.1.3-.2,0-.4.1-.7.2-.4.1-.8.2-1.3.3-.8.2-1.6.4-2.5.5-.1,0-.2,0-.4,0-.2,0-.3,0-.5,0-.8.1-1.6.3-2.4.4-.4,0-.7.1-1.1.2-.3,0-.5,0-.8.1-.6,0-1.3.2-2,.3-.5,0-.9.1-1.4.2s-1,.1-1.5.2c-.7,0-1.4.1-2.1.2-.7,0-1.4.1-2.1.2h0c-.7,0-1.4.1-2.2.2-.9,0-1.8.1-2.7.2-.7,0-1.3,0-2,0-.8,0-1.6,0-2.4,0-.8,0-1.7,0-2.5,0-.8,0-1.7,0-2.6,0s-1.7,0-2.6,0c-.8,0-1.7,0-2.5,0-.8,0-1.7,0-2.5,0-.6,0-1.2,0-1.8,0-.4,0-.8,0-1.2,0-2.9-.2-5.6-.4-8.1-.7-1-.1-1.9-.2-2.8-.3-.3,0-.7,0-1-.1-.7,0-1.3-.2-1.9-.3-.3,0-.7-.1-1-.2-.7-.1-1.4-.2-2.1-.4-.2,0-.3,0-.5-.1-.8-.1-1.5-.3-2.2-.4-2.1-.4-4-.9-5.6-1.4-.3,0-.6-.2-.8-.3-.4-.1-.7-.2-1-.3-.2,0-.5-.2-.7-.3-.5-.2-1-.4-1.4-.6-.2-.1-.4-.2-.6-.3-.2,0-.4-.2-.5-.3-.1,0-.2-.1-.3-.2s-.2-.1-.3-.2c-.2-.1-.4-.3-.5-.4,0,0-.2-.2-.2-.3v-17.9c.1,0,.2.1.3.1.3.1.5.2.8.3,2,.8,4.2,1.5,6.5,2.1.3,0,.7.2,1,.2,1.4.3,2.9.6,4.4.9.8.1,1.5.3,2.2.4,1.9.3,3.8.6,5.6.8.4,0,.8,0,1.1.1,2.2.2,4.4.4,6.4.6.6,0,1.1,0,1.7.1.2,0,.5,0,.7,0,.5,0,.9,0,1.4,0,1,0,1.9.1,2.8.1.6,0,1.1,0,1.6,0,1,0,1.8,0,2.6,0,.2,0,.3,0,.4,0,.3,0,.6,0,.8,0,.9,0,1.6,0,2,0s1.5,0,2.8,0c.1,0,.3,0,.4,0,.9,0,2,0,3.1,0,.3,0,.7,0,1,0,.9,0,1.8,0,2.8-.1.4,0,.9,0,1.4,0,.2,0,.5,0,.7,0,.6,0,1.1,0,1.7-.1,2.1-.1,4.2-.3,6.4-.6.4,0,.8,0,1.1-.1,1.9-.2,3.8-.5,5.6-.8.8-.1,1.5-.2,2.2-.4,1.5-.3,2.9-.6,4.4-.9.3,0,.7-.2,1-.2,2.3-.6,4.6-1.2,6.5-2.1.3-.1.6-.2.8-.3.1,0,.2-.1.4-.1v17.9h0ZM196.4,91.6l-1.4,1.5-1.4,1.5-2.9,3c-4.4-8.2-13-13.8-22.9-13.8s-23.6,9.4-25.6,21.8l4.9-4.7,1.1,1.1,4.5,4.7-10,9.7-3.2,3.1-1.6,1.5-.4.4-2.3-2.2-.3-.3-1.8-1.7-.5-.5-1.5-1.4-3.1-2.9-.2-.2-5.6-5.3,5.5-5.8.9.8h0l.2.2,2.4,2.3,1.1,1,1.6,1.5.2.2c1.4-17.4,16.1-31.2,33.9-31.2s12.4,1.8,17.5,4.9c.3.2.6.4.9.6.3.2.6.4.9.6.3.2.6.4.9.6,1.2.9,2.3,1.8,3.3,2.8.2.2.4.4.6.6.4.3.7.7,1,1.1.2.2.4.4.5.6.4.5.8,1,1.2,1.5.2.3.4.5.6.8.4.6.8,1.2,1.2,1.8ZM213.4,112.9l-5.6,5.8-.9-.9h0l-2.6-2.5-.9-.9-1.8-1.8c0,.6-.1,1.1-.2,1.6,0,.5-.1.9-.2,1.4,0,0,0,0,0,.1,0,.3,0,.5-.1.8,0,.2-.1.5-.2.8-.1.5-.2,1-.4,1.5-3.3,11.9-12.8,21.2-24.9,24.1-2.6.6-5.2.9-7.9.9s-1.1,0-1.6,0c-10.8-.5-20.3-6.1-26.1-14.4-.4-.5-.7-1-1-1.5l5.8-5.8c1.3,2.3,2.9,4.5,4.8,6.3h0c4.7,4.6,11.1,7.4,18.1,7.4h0c2.8,0,5.4-.4,7.9-1.2,9.2-3,16.2-11,17.7-20.8l-5,4.7-.6-.7-4.9-5.2,10-9.4,3.2-3.1,1.6-1.5.5-.5,2.1,2h0l2.3,2.2.4.4,1.2,1.2,3.4,3.3h0l5.8,5.7h0Z"/>
        <path class="cls-1" d="M132.7,129.9h0c-1.1,0-2.1.1-3.2.1.9,0,2,0,3.2-.1Z"/>
      </g>
      <g>
        <path class="cls-1" d="M150,121.8l8.1-21.8h5.9l8.1,21.8h-6.7l-1.1-3.8h-6.8l-1.1,3.8h-6.4ZM158.9,113.4h4.1l-2.1-7.2-2,7.2Z"/>
        <path class="cls-1" d="M174.1,121.8v-21.8h6v21.8h-6Z"/>
      </g>
    </g>
  </g>
</svg>