<?xml version="1.0" encoding="UTF-8"?>
<svg id="ART" xmlns="http://www.w3.org/2000/svg" viewBox="0 0 288 288">
  <defs>
    <style>
      .cls-1 {
        fill: #fcfbfa;
      }
    </style>
  </defs>
  <g>
    <g>
      <g>
        <rect class="cls-1" x="71.25" y="65.09" width="14" height="8"/>
        <rect class="cls-1" x="71.25" y="79.09" width="14" height="8"/>
      </g>
      <rect class="cls-1" x="71.25" y="65.09" width="14" height="8"/>
      <rect class="cls-1" x="71.25" y="79.09" width="14" height="8"/>
    </g>
    <g>
      <g>
        <rect class="cls-1" x="202.75" y="65.09" width="14" height="8"/>
        <rect class="cls-1" x="202.75" y="79.09" width="14" height="8"/>
        <path class="cls-1" d="M230.75,132.09V51.09h-42v49.63h-23.75v-49.63h-42v49.63h-23.75v-49.63h-42v81h16.92v23.82h-16.92v81h42v-49.63h23.75v49.63h42v-49.63h23.75v49.63h42v-81h-16.92v-23.82h16.92ZM131,59.09h26v65h-26V59.09ZM65.25,124.09V59.09h26v65h-26ZM91.25,228.91h-26v-65h26v65ZM123,179.28h-23.75v-23.37h-17.08v-23.82h17.08v-23.37h23.75v23.37h17v23.82h-17v23.37ZM157,228.91h-26v-65h26v65ZM188.75,179.28h-23.75v-23.37h-17v-23.82h17v-23.37h23.75v23.37h17.08v23.82h-17.08v23.37ZM222.75,163.91v65h-26v-65h26ZM196.75,124.09V59.09h26v65h-26Z"/>
        <path class="cls-1" d="M149,112.09c0,2.76-2.24,5-5,5s-5-2.24-5-5c0-1.3.5-2.49,1.31-3.37.92-1,2.23-1.63,3.69-1.63s2.77.63,3.69,1.63c.81.88,1.31,2.07,1.31,3.37Z"/>
        <rect class="cls-1" x="137" y="93.09" width="14" height="8"/>
        <rect class="cls-1" x="137" y="79.09" width="14" height="8"/>
        <rect class="cls-1" x="137" y="65.09" width="14" height="8"/>
        <path class="cls-1" d="M83.25,112.09c0,1.17-.4,2.25-1.08,3.1-.91,1.16-2.33,1.9-3.92,1.9-1.69,0-3.18-.84-4.08-2.13-.58-.81-.92-1.8-.92-2.87s.34-2.06.92-2.87c.9-1.29,2.39-2.13,4.08-2.13,1.59,0,3.01.74,3.92,1.9.68.85,1.08,1.93,1.08,3.1Z"/>
        <rect class="cls-1" x="71.25" y="93.09" width="14" height="8"/>
      </g>
      <rect class="cls-1" x="202.75" y="65.09" width="14" height="8"/>
      <rect class="cls-1" x="202.75" y="93.09" width="14" height="8"/>
      <rect class="cls-1" x="202.75" y="79.09" width="14" height="8"/>
      <path class="cls-1" d="M214.74,112.09c0,1.07-.34,2.06-.91,2.87-.9,1.29-2.39,2.13-4.09,2.13-1.59,0-3-.74-3.91-1.9-.68-.85-1.08-1.93-1.08-3.1s.4-2.25,1.08-3.1c.91-1.16,2.32-1.9,3.91-1.9,1.7,0,3.19.84,4.09,2.13.57.81.91,1.8.91,2.87Z"/>
    </g>
  </g>
  <g>
    <g>
      <rect class="cls-1" x="137" y="169.91" width="14" height="8"/>
      <rect class="cls-1" x="137" y="197.91" width="14" height="8"/>
      <rect class="cls-1" x="137" y="183.91" width="14" height="8"/>
      <circle class="cls-1" cx="144" cy="216.91" r="5"/>
    </g>
    <g>
      <rect class="cls-1" x="71.25" y="169.91" width="14" height="8"/>
      <rect class="cls-1" x="71.25" y="197.91" width="14" height="8"/>
      <rect class="cls-1" x="71.25" y="183.91" width="14" height="8"/>
      <path class="cls-1" d="M83.25,216.91c0,2.76-2.23,5-5,5s-5-2.24-5-5,2.24-5,5-5,5,2.24,5,5Z"/>
    </g>
    <g>
      <rect class="cls-1" x="202.75" y="169.91" width="14" height="8"/>
      <rect class="cls-1" x="202.75" y="197.91" width="14" height="8"/>
      <rect class="cls-1" x="202.75" y="183.91" width="14" height="8"/>
      <path class="cls-1" d="M214.74,216.91c0,2.76-2.23,5-5,5s-4.99-2.24-4.99-5,2.23-5,4.99-5,5,2.24,5,5Z"/>
    </g>
  </g>
</svg>