<?xml version="1.0" encoding="utf-8"?>
<!-- Generator: Adobe Illustrator 27.1.0, SVG Export Plug-In . SVG Version: 6.00 Build 0)  -->
<svg version="1.1" id="ART" xmlns="http://www.w3.org/2000/svg" xmlns:xlink="http://www.w3.org/1999/xlink" x="0px" y="0px"
	 viewBox="0 0 288 288" style="enable-background:new 0 0 288 288;" xml:space="preserve">
<style type="text/css">
	.st0{fill:#312D2A;}
</style>
<path class="st0" d="M200.7,173.5l-1.1-0.2c-6.2-1.5-12.2-2.7-18-3.6c0.8-0.4,1.6-0.8,2.4-1.2c8-4.4,12.3-11.4,12.3-20.1
	c0-10.1-4.5-15.6-16.6-19.9c2-0.9,3.8-2,5.4-3.3c4.1-3.4,6.2-7.9,6.2-13.1s-1.7-9.1-5.1-12.4c-7.9-7.6-22.2-7.3-22.9-7.3l-2.7,0.1
	c2-1.9,3.8-4.2,4.8-6.9c1.2-3.3,1-6.8-0.6-10.1c-4.7-9.8-21.9-7.3-23.8-7c-1.2,0.2-12.4,2.2-16.5,10.2c-1.5,2.8-2.6,7.6,0.5,13.9
	c0.8,1.7,1.9,3.2,3.1,4.4c-3.8,2.1-7.1,5.3-7.1,10.3c0,3.8,1.7,7.3,4.9,10.5c-16.7-0.1-30.5,6.2-38.7,13.1
	c-6.8,5.7-10.5,12.2-10.5,18.4c0,13.7,14.8,20.2,33.2,23.1c-39.7,13.5-45,39.1-45.2,40.3l-0.1,0.3v0.3c-0.1,5.1,1.7,9.6,5.4,13.2
	c10,9.9,31.7,10.6,37.3,10.6c0.7,0,1.1,0,1.3,0h79c18.5,0,36.1-18.4,36.1-37.8C223.6,178.9,208.7,175.4,200.7,173.5L200.7,173.5z
	 M163.6,100.5c3.2-0.1,12.6,0.7,17.1,5.1c1.8,1.7,2.6,3.9,2.6,6.6s-1.1,5.1-3.3,6.9c-4.3,3.6-12.8,5.2-21,4
	c-2.1-0.4-4.3-0.9-6.6-1.3C137,118.1,129,112,129,107.5c0-3,7.2-5.3,11-5.8L163.6,100.5L163.6,100.5z M131.5,82.5
	c1.9-3.7,8.5-5.6,10.7-6c1.6-0.3,3.6-0.4,5.5-0.4c4.4,0,8.8,0.8,9.9,3c0.6,1.4,0.7,2.6,0.3,3.9c-1.4,3.9-7.1,7.3-9.2,8.3l-0.1,0.1
	c-1.9,1-7.9,3.2-12.2,1.8c-1.8-0.6-3.2-1.9-4.1-3.9C130.1,85.1,131.2,83.2,131.5,82.5L131.5,82.5z M84.6,149.4
	c0-3.7,2.9-8.2,7.7-12.2c6.7-5.6,18.9-11.2,33.5-11.2c3.4,0,6.9,0.3,10.5,0.9c5.5,1,10.4,1.9,14.8,2.8c1.4,0.3,2.9,0.6,4.4,0.9
	c0.4,0.1,0.8,0.1,1.2,0.2c28.5,5.9,31.6,9.3,31.6,17.5c0,11.5-11.5,17.7-34.3,18.5c-4.7-0.2-9.1-0.1-13,0
	C104.6,166.1,84.6,160,84.6,149.4L84.6,149.4z M187.5,229.3h-79.1c-6.6,0.2-25.4-0.9-32.8-8.3c-2-2-3-4.3-3-7
	c0.8-3.2,8.1-27.3,52-37.3c3.5-0.8,9.2-1.5,16.7-1.8c2.6,0,5.2,0.1,7.7,0.1c1.5,0,3,0,4.4-0.1c12.4,0.4,27.6,2.1,44.4,6.1l1.1,0.3
	c7.8,1.9,16.7,3.9,16.7,18.2C215.5,216,200.2,229.3,187.5,229.3L187.5,229.3z"/>
</svg>
