<svg id="ART" xmlns="http://www.w3.org/2000/svg" viewBox="0 0 288 288"><defs><style>.cls-1{fill:#fcfbfa;}</style></defs><path class="cls-1" d="M127.94,210.34l3.73,9.41A49.14,49.14,0,0,1,96.5,189.91L74.74,135.32,83.08,132a19,19,0,0,1,24.73,10.47l6.53,16.11-7.41,3-6.54-16.11a11,11,0,0,0-14.31-6.07l-1,.39,18.81,47.19A41.23,41.23,0,0,0,127.94,210.34ZM104,129a23.64,23.64,0,0,1,7.93,8.21V95.42a6,6,0,0,1,6-6c3.31,0,6.07,2.26,6.07,5.58v37h8l-.07-36.58v-20a6,6,0,0,1,6-6c3.31,0,6.07,2.27,6.07,5.58v57h8l-.06-48.78a6,6,0,0,1,6-5.8c3.31,0,6.07,2.27,6.07,5.58v49h8l-.07-26.58a6,6,0,0,1,6-6c3.31,0,6.07,2.27,6.07,5.58v54l2.34,5.72a20.61,20.61,0,0,1,5.59-1.6v-57.7a14,14,0,0,0-14-14,14.54,14.54,0,0,0-6,1.29V83.42a14,14,0,0,0-14-14,13.81,13.81,0,0,0-6.68,1.7,14,14,0,0,0-27.32,4.3v7.37a13.87,13.87,0,0,0-6-1.37A13.6,13.6,0,0,0,104,95Zm98,40v38.93a32.9,32.9,0,0,1-21.21,30.69,32.3,32.3,0,0,1-11.6,2.15A33.71,33.71,0,0,1,138,219.44l-15.33-38.69a10.4,10.4,0,0,1,5.83-13.48,9.9,9.9,0,0,1,2.33-.61L129.37,163a10.35,10.35,0,0,1,9.32-14.19,10.38,10.38,0,0,1,20-2.91l1,2.48a10.52,10.52,0,0,1,2.12-1.14,10.39,10.39,0,0,1,13.48,5.83l8.4,21.2A14.25,14.25,0,0,1,195,169Zm-7.94,8c-2.58.29-5,2.14-5.06,5.07v19h-8V189.26L167.82,156a2.39,2.39,0,0,0-4.44,1.76l9.18,23.16-7.44,2.94-13.88-35a2.37,2.37,0,0,0-1.27-1.31,2.39,2.39,0,0,0-3.17,3.07l13.88,35-7.43,2.95-12-30.28a2.39,2.39,0,0,0-4.44,1.76L142,173.09h0l6.82,17.22-7.44,2.94L134.55,176a2.39,2.39,0,0,0-4.44,1.76l15.33,38.7c5.15,13,19.72,19.56,32.48,14.65A24.93,24.93,0,0,0,194,207.9Z"/></svg>