<?xml version="1.0" encoding="utf-8"?>
<!-- Generator: Adobe Illustrator 24.0.3, SVG Export Plug-In . SVG Version: 6.00 Build 0)  -->
<svg version="1.1" id="ART" xmlns="http://www.w3.org/2000/svg" xmlns:xlink="http://www.w3.org/1999/xlink" x="0px" y="0px"
	 viewBox="0 0 288 288" style="enable-background:new 0 0 288 288;" xml:space="preserve">
<style type="text/css">
	.st0{fill:#312D2A;}
</style>
<path class="st0" d="M204,233L204,233H84l0,0l-8,4v4h8l0,0h120l0,0h8v-4L204,233z M199,209c0-5-4-9-9-9H98c-5,0-9,4-9,9v18h110V209z
	 M191,219H97v-10c0-0.6,0.4-1,1-1h92c0.6,0,1,0.4,1,1V219z M114.4,104v4c0,41.1-12.9,80.3-13,80.7l-1.8,5.3h88.7l-1.8-5.3
	c-0.1-0.4-13-39.5-13-80.7v-4L114.4,104z M177.4,186h-66.8c3.4-11.8,11.2-41.6,11.8-74h43.2C166.2,144.4,173.9,174.2,177.4,186z
	 M100,98h88c5,0,9-4,9-9V47h-28v16h-11V47h-28v16h-11V47H91v42C91,94,95,98,100,98z M99,55h12v16h27V55h12v16h27V55h12v34
	c0,0.6-0.4,1-1,1h-88c-0.6,0-1-0.4-1-1V55z"/>
</svg>
