<svg id="ART" xmlns="http://www.w3.org/2000/svg" viewBox="0 0 288 288"><defs><style>.cls-1{fill:#fcfbfa;}</style></defs><path class="cls-1" d="M105,243h78V85H105Zm8-150h62V235H113Zm6,6h50v8H119Zm44,14H125v7h-6v8h6v7h38v-7h6v-8h-6Zm-8,14H133v-6h22Zm-36,14h50v8H119Zm0,14h50v8H119Zm28.63,60.31a19.85,19.85,0,0,0,8.25-1.92v7.44a19.86,19.86,0,0,1-4.28,1.58,21.9,21.9,0,0,1-5.27.59q-9.36,0-14.11-6t-4.74-17.24q0-8.25,2.36-13.42a16.49,16.49,0,0,1,6.54-7.66,18.69,18.69,0,0,1,9.7-2.48,22.54,22.54,0,0,1,5.27.56,11.79,11.79,0,0,1,3.29,1.18v7.44a19.42,19.42,0,0,0-3.23-1.06,16,16,0,0,0-3.78-.43,9.36,9.36,0,0,0-8.09,3.81q-2.76,3.81-2.76,11.87,0,7.51,2.6,11.63T147.63,215.31ZM99,173H64v-8H99Zm0,14H64v-8H99Zm0,14H64v-8H99Zm-35,6H99v8H64Zm133-48h-8v-8h8Zm0,14h-8v-8h8Zm14-14h-8v-8h8Zm-8,6h8v8h-8Zm0,14h8v8h-8Zm0,14h8v8h-8Zm22-34h-8v-8h8Zm-8,6h8v8h-8Zm0,14h8v8h-8Zm0,14h8v8h-8Zm-14,14h8v8h-8Zm-6-20h-8v-8h8Zm0,14h-8v-8h8Zm-8,6h8v8h-8Zm28,0h8v8h-8Zm22-84V243H189v-8h14V224h8v11h20V133l-42,9.74v-8.21ZM85,235h15v8H50V151H99v8H58v76H77V224h8ZM194.07,79.44A25.47,25.47,0,0,0,186,76.12a17.78,17.78,0,0,1-12.12-9.43,24.72,24.72,0,0,0-40.25-5.78,17.15,17.15,0,0,1-14.32,5.37A18.53,18.53,0,0,0,99.41,81.16a17.61,17.61,0,0,1-9.15,12.2A26.92,26.92,0,0,0,76.51,111H99v8H67.55l.32-4.3A34.86,34.86,0,0,1,86.54,86.28a9.64,9.64,0,0,0,5-6.66,26.5,26.5,0,0,1,28.5-21.3,9.21,9.21,0,0,0,7.69-2.85A32.73,32.73,0,0,1,181,63.12a9.75,9.75,0,0,0,6.69,5.18A33.52,33.52,0,0,1,210,116.9l-1.13,2.1H189v-8h14.94A25.57,25.57,0,0,0,194.07,79.44Z"/></svg>