<?xml version="1.0" encoding="UTF-8"?>
<svg id="ART" xmlns="http://www.w3.org/2000/svg" version="1.1" viewBox="0 0 288 288">
  <defs>
    <style>
      .cls-1 {
        fill: #fcfbfa;
        stroke-width: 0px;
      }
    </style>
  </defs>
  <path class="cls-1" d="M77.3,116.3c-.5,0-.8.4-.8.8v53.9c0,.5.4.8.8.8h33.8c0,16.4-12,21.1-27.7,22.1-.4,0-.7.4-.7.8v20.7c0,.5.4.8.8.8,17.9-.9,31.3-5.1,40.3-12.1,9.7-7.7,14.5-18.6,14.5-32v-55c0-.5-.4-.8-.8-.8h-60.2ZM150.5,171.8c-.5,0-.8-.4-.8-.8v-53.9c0-.5.4-.8.8-.8h33.8c0-16.4-12-21.1-27.7-22.1-.4,0-.7-.4-.7-.8v-20.7c0-.5.4-.8.8-.8,17.9.9,31.3,5.1,40.3,12.1,9.7,7.7,14.5,18.6,14.5,32v55c0,.5-.4.8-.8.8h-60.2ZM188.1,187.3v-1.9h8.8v1.9h-3.2v8.2h-2.2v-8.2h-3.4ZM198.7,195.5v-10.2h2.4l2.7,8,2.7-8h2.4v10.2h-1.9v-5.9l-2.1,5.9h-2l-2.1-5.9v5.9h-2.1Z"/>
</svg>