<svg id="ART" xmlns="http://www.w3.org/2000/svg" viewBox="0 0 288 288"><defs><style>.cls-1{fill:#fcfbfa;}</style></defs><path class="cls-1" d="M148,65.09V59h-8v6.09A91.11,91.11,0,0,0,53,156h8c0-8.67,11.45-16,25-16s25,7.33,25,16h8c0-7.8,9.27-14.51,21-15.78V216a8,8,0,0,1-16,0v-2h-8v2a16,16,0,0,0,32,0V140.22c11.73,1.27,21,8,21,15.78h8c0-8.67,11.45-16,25-16s25,7.33,25,16h8A91.11,91.11,0,0,0,148,65.09ZM202,132c-12.67,0-23.45,4.94-29,12.37-5.55-7.43-16.33-12.37-29-12.37s-23.45,4.94-29,12.37C109.45,136.94,98.67,132,86,132c-9.13,0-17.29,2.57-23.2,6.78a83,83,0,0,1,162.4,0C219.29,134.57,211.13,132,202,132Z"/></svg>