<svg id="ART" xmlns="http://www.w3.org/2000/svg" viewBox="0 0 288 288"><defs><style>.cls-1{fill:#312d2a;}</style></defs><path class="cls-1" d="M97,234V220h59a33.45,33.45,0,0,1,1-8H106.2l3.61-74h68.38l2.44,50.12a33.71,33.71,0,0,1,8-1.19L186.2,138H188a9,9,0,0,0,9-9V87H169v16H158V87H148V72.11h21.29a.71.71,0,0,1,.71.71h0A8.71,8.71,0,0,0,178.71,81h30.71l-9.14-14.76L209.22,51H178v-.14A8.54,8.54,0,0,0,169.61,42H140V87H130v16H119V87H91v42a9,9,0,0,0,9,9h1.8l-3.61,74H89v30h75a33.93,33.93,0,0,1-5-8ZM195.25,59l-4.31,7.35L195.05,73H178.71a.71.71,0,0,1-.71-.71V59Zm-25.64-9c.2,0,.39.42.39.86V64.14c-.23,0-.47,0-.71,0H148V50ZM99,129V95h12v16h27V95h12v16h27V95h12v34a1,1,0,0,1-1,1H100A1,1,0,0,1,99,129Z"/><path class="cls-1" d="M189.54,193A27.46,27.46,0,1,0,217,220.46,27.49,27.49,0,0,0,189.54,193Zm0,46.92A19.46,19.46,0,1,1,209,220.46,19.48,19.48,0,0,1,189.54,239.92Z"/><polygon class="cls-1" points="187.12 221.01 182.7 216.62 177.06 222.29 187.11 232.28 202.02 217.48 196.38 211.81 187.12 221.01"/><polygon class="cls-1" points="152 179 131.05 179 135.44 174.62 129.78 168.96 116.34 182.39 129.78 195.83 135.44 190.17 132.26 187 152 187 152 179"/><polygon class="cls-1" points="158.83 175.83 172.26 162.39 158.83 148.96 153.17 154.62 156.56 158 136 158 136 166 157.34 166 153.17 170.17 158.83 175.83"/></svg>