<?xml version="1.0" encoding="utf-8"?>
<!-- Generator: Adobe Illustrator 27.1.0, SVG Export Plug-In . SVG Version: 6.00 Build 0)  -->
<svg version="1.1" id="ART" xmlns="http://www.w3.org/2000/svg" xmlns:xlink="http://www.w3.org/1999/xlink" x="0px" y="0px"
	 viewBox="0 0 288 288" style="enable-background:new 0 0 288 288;" xml:space="preserve">
<style type="text/css">
	.st0{fill:#312D2A;}
</style>
<path class="st0" d="M183.2,201.3c-2.2,0-4,1.8-4,4s1.8,4,4,4s4-1.8,4-4S185.5,201.3,183.2,201.3z"/>
<path class="st0" d="M235.4,194.1l-15.1,6.6c-0.5,0.2-1,0.1-1.2,0s-0.6-0.4-0.8-0.9l-10.6-32.3c-0.8-2.5-2.6-4.6-5-5.7l-10.8-6.2
	v-39c0-5-4-9-9-9h-73.6L100,73.3l-0.3-0.4c-3.2-5.6-7.2-6.4-10-6l-22.1,2.8l1,7.9l22.1-2.8c0.6-0.1,1.4,1,1.8,1.7l9.6,35.8v11.2
	c-25.2,2-45.1,23.2-45.1,48.8c0,27,22,49,49,49s49-22,49-49c0-3.6-0.4-7.1-1.1-10.4h29.8v27.5c-0.2,0-0.4,0-0.6,0
	c-8.8,0-16,7.2-16,16s7.2,16,16,16s16-7.2,16-16c0-5.7-3-10.7-7.4-13.5v-27l7,4l0.4,0.2c0.4,0.2,0.7,0.5,0.8,0.9l10.6,32.3
	c0.8,2.6,2.7,4.6,5.1,5.8c1.2,0.6,2.6,0.9,3.9,0.9s2.6-0.3,3.8-0.8l15.1-6.6L235.4,194.1L235.4,194.1z M183.2,213.3
	c-4.4,0-8-3.6-8-8s3.6-8,8-8s8,3.6,8,8S187.7,213.3,183.2,213.3z M182.8,115.4c0.6,0,1,0.4,1,1v6.8h-73.6v-7.8H182.8z M106.1,213.3
	c-22.6,0-41-18.4-41-41s18.4-41,41-41s41,18.4,41,41S128.7,213.3,106.1,213.3z M151.5,153.8c-3.8-9.3-10.3-17.2-18.6-22.6h50.9v22.6
	H151.5L151.5,153.8z"/>
<path class="st0" d="M106.1,138.2c-18.8,0-34,15.3-34,34s15.2,34,34,34s34-15.3,34-34S124.8,138.2,106.1,138.2z M126.3,155.9
	l-10.6,6.1c-1.6-1.5-3.5-2.6-5.6-3.2v-12.2C116.6,147.6,122.4,151,126.3,155.9L126.3,155.9z M132.1,172.2c0,3.3-0.6,6.4-1.7,9.3
	l-10.6-6.1c0.2-1,0.4-2.1,0.4-3.2s-0.2-2.2-0.4-3.2l10.6-6.1C131.5,165.7,132.1,168.9,132.1,172.2L132.1,172.2z M106.1,178.2
	c-3.3,0-6-2.7-6-6s2.7-6,6-6s6,2.7,6,6S109.5,178.2,106.1,178.2z M80.1,172.2c0-3.3,0.6-6.5,1.8-9.4l10.7,6.2
	c-0.2,1-0.4,2.1-0.4,3.2s0.2,2.2,0.4,3.2l-10.7,6.2C80.7,178.7,80.1,175.6,80.1,172.2L80.1,172.2z M102.1,146.5v12.2
	c-2.1,0.6-4,1.8-5.6,3.2l-10.6-6.1C89.9,151,95.6,147.5,102.1,146.5L102.1,146.5z M85.8,188.5l10.7-6.2c1.6,1.5,3.5,2.6,5.6,3.2V198
	C95.6,197,89.8,193.5,85.8,188.5L85.8,188.5z M110.1,197.9v-12.3c2.1-0.6,4-1.8,5.6-3.2l10.6,6.1
	C122.4,193.4,116.7,196.9,110.1,197.9z"/>
</svg>
