<?xml version="1.0" encoding="UTF-8"?>
<svg id="icon" xmlns="http://www.w3.org/2000/svg" viewBox="0 0 288 288">
  <defs>
    <style>
      .cls-1 {
        fill: #312d2a;
      }
    </style>
  </defs>
  <g id="Art">
    <g>
      <path class="cls-1" d="M217.88,140.21l-1.13,2.1h-19.55c.7-1.87,1.09-3.89,1.09-6,0-.68-.04-1.34-.12-2h13.71c6.93-15.29,1.55-33.7-12.86-42.77-3.33-2.1-6.95-3.59-10.76-4.43-6.48-1.43-11.88-5.64-14.83-11.53-5.63-11.27-16.94-18.27-29.53-18.27-9.14,0-17.96,3.85-24.19,10.55-4.45,4.8-10.82,7.19-17.48,6.56-4.21-.41-8.49.29-12.39,2-7.48,3.29-12.89,10.05-14.47,18.09-1.26,6.4-5.34,11.84-11.19,14.91-9.78,5.15-16.52,14.26-18.59,24.89h46.77c-2.47,2.08-4.34,4.84-5.3,8h-50.35l.32-4.3c1.13-15.22,9.89-28.55,23.43-35.67,3.69-1.94,6.27-5.36,7.06-9.37,2.08-10.61,9.22-19.53,19.1-23.87,5.14-2.26,10.8-3.18,16.37-2.65,4.16.4,8.11-1.07,10.86-4.03,7.73-8.33,18.69-13.11,30.05-13.11,15.64,0,29.69,8.69,36.69,22.69,1.86,3.73,5.29,6.39,9.4,7.3,4.71,1.04,9.18,2.88,13.29,5.47,18.63,11.73,25.04,36.08,14.6,55.44Z"/>
      <path class="cls-1" d="M131.287,128.309c-6.617,0-12-5.383-12-12s5.383-12,12-12,12,5.383,12,12-5.383,12-12,12ZM131.287,112.309c-2.206,0-4,1.794-4,4s1.794,4,4,4,4-1.794,4-4-1.794-4-4-4Z"/>
      <rect class="cls-1" x="155.299" y="134.309" width="8" height="8"/>
      <rect class="cls-1" x="141.299" y="134.309" width="8" height="8"/>
      <rect class="cls-1" x="127.299" y="134.309" width="8" height="8"/>
      <rect class="cls-1" x="155.299" y="150.309" width="8" height="8"/>
      <rect class="cls-1" x="127.299" y="150.309" width="8" height="8"/>
      <rect class="cls-1" x="155.299" y="166.309" width="8" height="8"/>
      <rect class="cls-1" x="127.299" y="166.309" width="8" height="8"/>
      <rect class="cls-1" x="113.299" y="166.309" width="8" height="8"/>
      <rect class="cls-1" x="99.299" y="166.309" width="8" height="8"/>
      <rect class="cls-1" x="85.299" y="166.309" width="8" height="8"/>
      <rect class="cls-1" x="127.299" y="182.309" width="8" height="8"/>
      <rect class="cls-1" x="113.299" y="182.309" width="8" height="8"/>
      <rect class="cls-1" x="113.299" y="201.309" width="8" height="8"/>
      <rect class="cls-1" x="99.299" y="182.309" width="8" height="8"/>
      <rect class="cls-1" x="179.287" y="183.008" width="8" height="16.603"/>
      <rect class="cls-1" x="211.287" y="172.631" width="8" height="37.355"/>
      <rect class="cls-1" x="195.287" y="162.255" width="8" height="58.108"/>
      <rect class="cls-1" x="227.287" y="162.255" width="8" height="58.108"/>
      <rect class="cls-1" x="243.287" y="183.008" width="8" height="16.603"/>
      <path class="cls-1" d="M67.458,182.309c-6.617,0-12-5.383-12-12s5.383-12,12-12,12,5.383,12,12-5.383,12-12,12ZM67.458,166.309c-2.206,0-4,1.794-4,4s1.794,4,4,4,4-1.794,4-4-1.794-4-4-4Z"/>
      <path class="cls-1" d="M181.287,148.309c-6.617,0-12-5.383-12-12s5.383-12,12-12,12,5.383,12,12-5.383,12-12,12ZM181.287,132.309c-2.206,0-4,1.794-4,4s1.794,4,4,4,4-1.794,4-4-1.794-4-4-4Z"/>
      <path class="cls-1" d="M117.299,238.691c-6.617,0-12-5.383-12-12s5.383-12,12-12,12,5.383,12,12-5.383,12-12,12ZM117.299,222.691c-2.206,0-4,1.794-4,4s1.794,4,4,4,4-1.794,4-4-1.794-4-4-4Z"/>
      <path class="cls-1" d="M159.287,203.309c-6.617,0-12-5.383-12-12s5.383-12,12-12,12,5.383,12,12-5.383,12-12,12ZM159.287,187.309c-2.206,0-4,1.794-4,4s1.794,4,4,4,4-1.794,4-4-1.794-4-4-4Z"/>
      <path class="cls-1" d="M103.299,159.309c-6.617,0-12-5.383-12-12s5.383-12,12-12,12,5.383,12,12-5.383,12-12,12ZM103.299,143.309c-2.206,0-4,1.794-4,4s1.794,4,4,4,4-1.794,4-4-1.794-4-4-4Z"/>
    </g>
  </g>
</svg>