<svg id="icon_art" data-name="icon art" xmlns="http://www.w3.org/2000/svg" viewBox="0 0 288 288"><defs><style>.cls-1{fill:#fcfbfa;}</style></defs><title>RMIL_Technology</title><path class="cls-1" d="M138,122a6,6,0,1,1,6,6A6,6,0,0,1,138,122Zm48.6-14h53a14,14,0,1,1,0,28h-53c-5.22,10.82-16,21-29.92,21-9.41,0-16.63-1.52-22.07-4.64L133,151v-9l-11.59-20L133,102V93l1.61-1.36c5.44-3.12,12.66-4.64,22.07-4.64C170.55,87,181.38,97.18,186.6,108Zm-56,14,6.75,12h13.32l6.75-12-6.75-12H137.34Zm109-6H181.29l-1-2.51C177.54,106.62,169.47,95,156.68,95A38.21,38.21,0,0,0,141,98v4h14.34l11.25,20-11.25,20H141v4a38.21,38.21,0,0,0,15.68,3c12.79,0,20.86-11.62,23.61-18.49l1-2.51H239.6a6,6,0,1,0,0-12ZM252,213h0v4l-8,4H44l-8-4v-4h0l21-39.21V76a9,9,0,0,1,9-9H222a9,9,0,0,1,9,9v26h-8V76a1,1,0,0,0-1-1H66a1,1,0,0,0-1,1v94H223V142h8v30.32Zm-9,0-18-35H63.87L45.08,213ZM78,192H210v-8H78Zm34,14h64v-8H112Z"/></svg>