<?xml version="1.0" encoding="utf-8"?>
<!-- Generator: Adobe Illustrator 24.0.3, SVG Export Plug-In . SVG Version: 6.00 Build 0)  -->
<svg version="1.1" id="ART" xmlns="http://www.w3.org/2000/svg" xmlns:xlink="http://www.w3.org/1999/xlink" x="0px" y="0px"
	 viewBox="0 0 288 288" style="enable-background:new 0 0 288 288;" xml:space="preserve">
<style type="text/css">
	.st0{fill:#FCFBFA;}
</style>
<path class="st0" d="M122.8,115.6l14.6,19.4H130v8h10v6h-10v8h10v8h8v-8h10v-8h-10v-6h10v-8h-7.4l14.6-19.4l-6.4-4.8L144,130.5
	l-14.8-19.7L122.8,115.6z M217,123.2h8V151h-8V123.2z M63,123.2h8V151h-8V123.2z M240,85H48v104h192V85z M232,181H56V93h176V181z
	 M48,195v4l8,4l0,0h176l0,0l8-4v-4H48z M120.7,168.1C112.5,159.4,108,148,108,136c-0.1-7.9,2.1-15.6,6.2-22.3
	c1.7-2.8,3.8-5.4,6.3-7.5l9.1-7.2H86v8h23c-6,8.5-9.1,18.6-9,29c0,11.1,3.3,21.9,9.6,31H86v8h42.2L120.7,168.1z M180,138
	c0.1,7.9-2.1,15.6-6.2,22.3c-1.7,2.8-3.8,5.4-6.3,7.5l-9.1,7.1H202v-8h-23c6-8.5,9.1-18.6,9-29c0-11.1-3.3-21.9-9.6-31H202v-8h-42.2
	l7.5,6.9C175.5,114.6,180,126.1,180,138z"/>
</svg>
