<svg id="icon_art" data-name="icon art" xmlns="http://www.w3.org/2000/svg" viewBox="0 0 288 288"><defs><style>.cls-1{fill:#fcfbfa;}</style></defs><title>RMIL_Technology</title><path class="cls-1" d="M86,112a5,5,0,1,1,5-5A5,5,0,0,1,86,112Zm-11-5a5,5,0,1,0-5,5A5,5,0,0,0,75,107Zm-21,5a5,5,0,1,0-5-5A5,5,0,0,0,54,112ZM260,225v4H28v-4l8-4V75h64v8H44V221h62V55h76V221h62V181H188v-8h56V139H188v-8h64v90ZM174,63H114V221h60ZM120,195h48v-8H120Zm0,14h48v-8H120Zm0-78h48v36H120Zm8,28h32V139H128Zm-28,8H50V131h50Zm-8-28H58v20H92Zm76-14H119.94V89H168Zm-8-28H127.94v20H160Zm-40,84h48v-8H120Zm-20,6H50v8h50Zm0,14H50v8h50Zm0-28H50v8h50Zm68-98H120v8h48Zm70,70h-8v22h8Zm-22,0v22h8V145Zm-14,0v22h8V145ZM100,89H50v8h50Zm92,72a5,5,0,1,0-5-5A5,5,0,0,0,192,161Zm38,26.1V209h8V187.1Zm-14,0V209h8V187.1Zm-14,0V209h8V187.1ZM192,203a5,5,0,1,0-5-5A5,5,0,0,0,192,203Zm-92-86H50v8h50Z"/></svg>