<svg id="ART" xmlns="http://www.w3.org/2000/svg" viewBox="0 0 288 288"><defs><style>.cls-1{fill:#312d2a;}</style></defs><path class="cls-1" d="M220,170H68V78H176.12a40.56,40.56,0,0,1,1.39-8H60V198h60.66l-1.78,13H111l-8,4v4h83v-4l-8-4h-7.88l-1.78-13H228V120.49a40.56,40.56,0,0,1-8,1.39Zm-58,41H127l1.77-13h31.54ZM68,190V178H220v12Zm39-38h74V99H107Zm8-8V111.06l29.7,22.57L173,111.26V144Zm7.88-37h42.61l-20.88,16.51ZM217,46a35,35,0,1,0,35,35A35,35,0,0,0,217,46Zm0,62a27,27,0,1,1,27-27A27,27,0,0,1,217,108Zm1-19h11v8H206V90.49l7.63-8.14A47.14,47.14,0,0,0,218,77.16a6,6,0,0,0,1.28-3,3,3,0,0,0-1.19-2.47,4.93,4.93,0,0,0-3.14-.93,11.14,11.14,0,0,0-3.55.61A24,24,0,0,0,207,73V65a31,31,0,0,1,5.07-1.44,21.53,21.53,0,0,1,4.77-.56q5.63,0,8.68,2.54a8.81,8.81,0,0,1,3,7.18,10.38,10.38,0,0,1-.72,3.77,18.19,18.19,0,0,1-2.42,4.14,67.45,67.45,0,0,1-4.63,5.44Z"/></svg>