<?xml version="1.0" encoding="utf-8"?>
<!-- Generator: Adobe Illustrator 24.0.3, SVG Export Plug-In . SVG Version: 6.00 Build 0)  -->
<svg version="1.1" id="ART" xmlns="http://www.w3.org/2000/svg" xmlns:xlink="http://www.w3.org/1999/xlink" x="0px" y="0px"
	 viewBox="0 0 288 288" style="enable-background:new 0 0 288 288;" xml:space="preserve">
<style type="text/css">
	.st0{fill:#312D2A;}
</style>
<path class="st0" d="M164.6,71.9c-24.2-24.2-63.5-24.2-87.8,0s-24.2,63.5,0,87.8c24.2,24.2,63.5,24.2,87.7,0
	C188.8,135.5,188.8,96.2,164.6,71.9z M158.9,154.1c-21.1,21.1-55.3,21.1-76.4,0s-21.1-55.3,0-76.4c21.1-21.1,55.3-21.1,76.4,0
	C179.8,98.7,179.6,132.8,158.9,154.1L158.9,154.1z M165.6,98.8l-7.5,2.8c0.9,2.4,1.6,4.9,2,7.4l7.9-1.3
	C167.5,104.6,166.7,101.7,165.6,98.8z M154.7,81.8c-7.2-7.2-16.5-11.9-26.5-13.5l-1.2,7.9c8.4,1.3,16.1,5.2,22.1,11.2
	c2.6,2.6,4.9,5.6,6.7,8.8l7-3.9C160.5,88.6,157.8,85,154.7,81.8z M221.5,188.4c-5.4-5.4-11.1-10.3-17.1-14.9l-20.5-15.4
	c23.4-34.9,14-82.1-20.8-105.4S81,38.7,57.6,73.6s-14,82.1,20.8,105.4c25.6,17.1,58.9,17.1,84.5,0l15.4,20.5
	c4.5,6.1,9.5,11.8,14.9,17.1l16.4,16.4l28.4-28.3L221.5,188.4z M72.5,164c-26.6-26.6-26.6-69.7,0-96.3s69.7-26.6,96.3,0
	s26.6,69.7,0,96.3c-12.8,12.8-30.1,20-48.2,20C102.6,184,85.3,176.8,72.5,164z M198.9,211c-5.1-5.1-9.8-10.5-14.1-16.3l-15.4-20.5
	c1.7-1.5,3.4-3,5.1-4.6s3.2-3.3,4.6-5.1l20.5,15.4c5.8,4.3,11.2,9,16.3,14.1l10.8,10.8l-17,17L198.9,211z M245.1,211.9l-2.8,8.5
	l-17,17l-8.5,2.8l-2.8-2.8l28.3-28.3L245.1,211.9z"/>
</svg>
