<?xml version="1.0" encoding="UTF-8"?>
<svg id="Icons" xmlns="http://www.w3.org/2000/svg" viewBox="0 0 288 288">
  <defs>
    <style>
      .cls-1 {
        fill: #312d2a;
      }
    </style>
  </defs>
  <path class="cls-1" d="M233.2,86.5c-4.649,0-8.878,1.787-12.075,4.69l-26.796-18.702c.554-1.563.871-3.237.871-4.988,0-8.271-6.729-15-15-15s-15,6.729-15,15c0,6.251,3.846,11.616,9.295,13.866l-2.551,21.153c-10.688.34-19.594,7.846-22.061,17.865l-15.861-.756c-1.424-11.884-11.561-21.129-23.823-21.129-2.178,0-4.288.297-6.295.844l-7.881-16.535c3.164-2.752,5.176-6.796,5.176-11.309,0-8.271-6.729-15-15-15s-15,6.729-15,15,6.729,15,15,15c.89,0,1.758-.093,2.605-.242l7.84,16.449c-6.302,4.33-10.446,11.585-10.446,19.792,0,1.082.079,2.146.219,3.191l-21.951,6.811c-2.661-4.2-7.338-7.002-12.667-7.002-8.271,0-15,6.729-15,15s6.729,15,15,15,15-6.729,15-15c0-.115-.015-.226-.017-.341l22.01-6.829c1.872,3.684,4.661,6.825,8.073,9.114l-17.685,39.418c-1.047-.182-2.116-.296-3.214-.296-10.348,0-18.767,8.418-18.767,18.767s8.418,18.767,18.767,18.767,18.767-8.418,18.767-18.767c0-.625-.034-1.243-.094-1.852l22.736-7.708c4.073,7.004,11.656,11.727,20.325,11.727,5.238,0,10.08-1.724,13.992-4.632l16.29,15.552c-1.135,2.11-1.782,4.521-1.782,7.08,0,8.271,6.729,15,15,15s15-6.729,15-15-6.729-15-15-15c-2.811,0-5.434.791-7.685,2.142l-16.301-15.563c2.516-3.741,3.986-8.242,3.986-13.079,0-12.958-10.542-23.5-23.5-23.5-2.284,0-4.49.334-6.579.944l-6.901-14.483c4.713-3.405,8.144-8.474,9.424-14.341l15.674.747c1.191,11.851,11.222,21.133,23.381,21.133,5.799,0,11.111-2.116,15.214-5.611l15.83,14.025c-.979,1.991-1.544,4.221-1.544,6.586,0,8.271,6.729,15,15,15s15-6.729,15-15-6.729-15-15-15c-3.006,0-5.802.897-8.151,2.426l-16.007-14.181c2.004-3.458,3.158-7.468,3.158-11.744,0-1.426-.135-2.82-.379-4.177l22.157-7.76c3.19,5.059,8.813,8.437,15.222,8.437,9.925,0,18-8.075,18-18s-8.075-18-18-18ZM79.2,71.5c0-3.86,3.14-7,7-7s7,3.14,7,7-3.14,7-7,7-7-3.14-7-7ZM51.8,147.5c-3.86,0-7-3.14-7-7s3.14-7,7-7,7,3.14,7,7-3.14,7-7,7ZM75.966,211.1c-5.937,0-10.767-4.83-10.767-10.767s4.83-10.767,10.767-10.767,10.767,4.83,10.767,10.767-4.83,10.767-10.767,10.767ZM181.2,213.5c3.859,0,7,3.14,7,7s-3.141,7-7,7-7-3.14-7-7,3.141-7,7-7ZM153.2,179c0,8.547-6.953,15.5-15.5,15.5s-15.5-6.953-15.5-15.5,6.953-15.5,15.5-15.5,15.5,6.953,15.5,15.5ZM123.939,159.968c-5.894,4.274-9.738,11.21-9.738,19.032,0,1.458.14,2.883.396,4.268l-22.446,7.609c-1.397-2.381-3.291-4.433-5.557-5.996l17.566-39.153c1.931.502,3.954.771,6.04.771,2.378,0,4.674-.353,6.845-1l6.894,14.468ZM110.2,138.5c-8.822,0-16-7.178-16-16s7.178-16,16-16,16,7.178,16,16-7.178,16-16,16ZM180.2,60.5c3.859,0,7,3.14,7,7s-3.141,7-7,7-7-3.14-7-7,3.141-7,7-7ZM172.7,141.5c-8.547,0-15.5-6.953-15.5-15.5s6.953-15.5,15.5-15.5,15.5,6.953,15.5,15.5-6.953,15.5-15.5,15.5ZM217.2,157.5c3.859,0,7,3.14,7,7s-3.141,7-7,7-7-3.14-7-7,3.141-7,7-7ZM193.072,114.309c-2.895-5.024-7.59-8.884-13.202-10.686l2.57-21.308c2.752-.415,5.266-1.562,7.317-3.262l26.773,18.686c-.851,2.09-1.329,4.37-1.329,6.762,0,.682.046,1.354.12,2.017l-22.248,7.792ZM233.2,114.5c-5.514,0-10-4.486-10-10s4.486-10,10-10,10,4.486,10,10-4.486,10-10,10Z"/>
</svg>