<svg id="ART" xmlns="http://www.w3.org/2000/svg" viewBox="0 0 288 288"><defs><style>.cls-1{fill:#fcfbfa;}</style></defs><path class="cls-1" d="M76,166.34V117.66l-4.49,4.48-5.65-5.65L80,102.34l14.14,14.15-5.65,5.65L84,117.66v48.68l4.49-4.48,5.65,5.65L80,181.66,65.86,167.51l5.65-5.65Zm43-4.42-7,19.69H101l30.91-80h10.23l31,80H161.82l-7-19.69Zm3.19-8.8h29.37l-14.74-40.81Zm92.84-7.26v-3.63c0-4.11-.9-7-2.7-8.69s-4.85-2.53-9.18-2.53a46.23,46.23,0,0,0-8.91.93,80.18,80.18,0,0,0-10.67,3v-8a44,44,0,0,1,9.57-2.92,53.83,53.83,0,0,1,10.12-1Q225,123,225,142.23v39.38h-6.71l-1.65-9.24q-7,10.45-19.14,10.45-8.69,0-13.92-4.9t-5.22-13q0-9,6.21-14t17.33-5Zm-12.21,7.26q-7.48,0-11.06,2.69t-3.57,8.31A10.85,10.85,0,0,0,191,172a10.1,10.1,0,0,0,7.65,2.92,16.77,16.77,0,0,0,9.46-2.92,21,21,0,0,0,7-8V153.12ZM53,88v8H239V88Zm0,108H239v-8H53Z"/></svg>