<svg id="ART" xmlns="http://www.w3.org/2000/svg" viewBox="0 0 288 288"><defs><style>.cls-1{fill:#312d2a;}</style></defs><path class="cls-1" d="M179.8,136.09A28.44,28.44,0,0,1,205.34,152H214a36.45,36.45,0,0,0-56.85-16,18,18,0,0,0-29.79,4.23A28.48,28.48,0,0,1,103,104.86a38.68,38.68,0,0,1-4.79-9.76A36.49,36.49,0,0,0,125.67,148a18.05,18.05,0,0,0,16.27,17.78A28.47,28.47,0,0,1,115,203.52v8h0a36.46,36.46,0,0,0,35-46.78,18,18,0,0,0,11.73-16.87,17.69,17.69,0,0,0-.66-4.75A28.25,28.25,0,0,1,179.8,136.09Zm-36.11,21.82a10,10,0,1,1,10-10A10,10,0,0,1,143.69,157.91Z"/><path class="cls-1" d="M45,222h64V158H45Zm8-8v-7.84l15-15,16,16,17-17V214Zm48-48v12.84l-17,17-16-16-15,15V166Z"/><path class="cls-1" d="M135,116a33,33,0,0,0,33-33V79H139V50h-4a33,33,0,0,0,0,66Zm24.68-29a25,25,0,0,1-39.14,16.37L136.91,87ZM131,58.32V81.59L114.84,97.76A25,25,0,0,1,131,58.32Z"/><path class="cls-1" d="M182,69a33,33,0,0,0-33-33h-4V73h37Zm-29-4V44.32A25.06,25.06,0,0,1,173.68,65Z"/><path class="cls-1" d="M174,158v64h64V158Zm56,56h-6V176h-8v38h-6V186h-8v28h-6V196h-8v18h-6V166h48Z"/></svg>