<svg xmlns="http://www.w3.org/2000/svg" viewBox="0 0 288 288"><defs><style>.cls-1{fill:#312d2a;}</style></defs><g id="ART"><path class="cls-1" d="M113.73,90.49a82.85,82.85,0,0,0-7.7-4.73,68.94,68.94,0,0,1,52-9.1l-1.25,7.91a61.09,61.09,0,0,0-43.07,5.92ZM82.82,154H74.73a69,69,0,0,0,27.83,45.87l1.65-8.82A61,61,0,0,1,82.82,154Zm90.48,42.93-1.46,9.75A69.17,69.17,0,0,0,211.27,154h-8.09A61.17,61.17,0,0,1,173.3,196.93ZM164,140l-8,4v4h24v-4l-8-4h-8Zm-50.3,33h57.09l-8.49,44H105.15Zm1.15,36h16.61L133.18,199H116.81Zm40.85,0L157.64,199H141.3L139.58,209Zm5.4-28H144.37l-1.7,9.95h16.51Zm-40.8,0L118.36,191h16.19l1.71-9.95Zm-17.64,50H113v7.85h8V231h22v7.83h8V231h9.54l1.6-8H104.26ZM69.42,148l5.22-38.27-1.91,1A55.93,55.93,0,0,1,47.48,117a31.07,31.07,0,0,1-3.37-.15l-5.77-.69L41,111c.26-.48,6.45-12,21.31-19.7l9.65-5V75.68c0-16.73,7.41-27.52,7.72-28l3.33-4.77,3.26,4.82C86.63,48.22,94,59.3,94,76V86.33l9.65,5C118.51,99,124.7,110.53,125,111l2.7,5.15-5.77.69a31.07,31.07,0,0,1-3.37.15,56,56,0,0,1-25.25-6.29l-1.91-1L96.58,148ZM84.59,90.47h0a2.92,2.92,0,0,0-3.18,0h0l-.1.06a3,3,0,1,0,3.38,0ZM87.42,140,83,107.6,78.58,140ZM100,98.42l-6.19-3.2A10.92,10.92,0,0,1,91,100.53l6,3.08a48.85,48.85,0,0,0,16.38,5A47.45,47.45,0,0,0,100,98.42ZM80,75.68v6.75a10.68,10.68,0,0,1,6,0V76a48.93,48.93,0,0,0-3-16.87A47.51,47.51,0,0,0,80,75.68Zm-5,24.85a10.92,10.92,0,0,1-2.79-5.31L66,98.42a47.4,47.4,0,0,0-13.38,10.24,48.88,48.88,0,0,0,16.41-5Zm144.45,12.3L227.94,140H228l8,4v4H186v-4l8-4h.09l9-27.7a11.44,11.44,0,0,1-3.07-7.8,11.29,11.29,0,0,1,.15-1.76L183.46,94,175.29,105l-14.72-6.54,3.78-23.93,10.42-6,12.75,5.67,2.26,11.37-1.47,2,15.74,8.23A11.49,11.49,0,0,1,223,104.5a10.55,10.55,0,0,1-.06,1.13l18.91,9.88-3.7,7.09ZM181.24,83.62l-.76-3.81-5.25-2.33-3.58,2-2.22,14.07,3.28,1.46Zm29.06,32.32L207,126h8.15l-3.13-10c-.19,0-.37,0-.56,0Q210.9,116,210.3,115.94ZM208,104.5a3.5,3.5,0,1,0,3.5-3.5A3.5,3.5,0,0,0,208,104.5ZM219.56,140l-1.87-6H204.45l-1.95,6ZM172,110.28l-8-3.36V136h8Z"/></g></svg>