<svg id="ART" xmlns="http://www.w3.org/2000/svg" viewBox="0 0 288 288">
  <defs>
    <style>
      .cls-1 {
        fill: #fcfbfa;
      }
    </style>
  </defs>
  <path class="cls-1" d="M133,151v-4h22v4l-8,4h-6Zm23.94-10H130.06L124,134V122c0-5-2-8.1-4.45-12.09-3.07-4.92-6.89-11-6.89-21.56C112.66,72.41,127,59,144,59s30.62,13.14,30.62,29.33c0,10.55-3.93,16.68-7.09,21.6-2.55,4-4.57,7.13-4.57,12v12ZM155,126H132v4l1.94,3h19.12l1.94-3Zm0-8c.84-5.08,3.53-8.79,5.84-12.39,3-4.66,5.82-9.08,5.82-17.28C166.66,78.06,158,67,144,67s-23.38,11-23.38,21.33c0,8.23,2.76,12.65,5.67,17.33,2.24,3.58,4.85,7.29,5.67,12.34h8V98.12h8V118Zm-7-82.88h-8V51h8Zm26.46,9.14-6.92-4-8,13.86,6.92,4Zm18.31,21.32-4-6.92-13.86,8,4,6.92ZM128.46,54.21l-8-13.85-6.92,4,8,13.85ZM113.09,66.66l-13.86-8-4,6.92,13.86,8ZM240,216.35c0,20.48-49.46,31.53-96,31.53s-96-11-96-31.53c0-4.94,2.89-9.33,7.91-13.15l-1.08-5.4h0l-6.57-33.05a9,9,0,0,1,7.08-10.58,9.35,9.35,0,0,1,1.75-.17h13.8a9,9,0,0,1,8.83,7.24l4.93,24.81c-2.68.64-5.27,1.32-7.74,2.06l-5-25.31a1,1,0,0,0-1-.8H57.09a1,1,0,0,0-.78.37,1,1,0,0,0-.2.82l6,30.44h0l1,5.11c7.73-3.87,17.93-7,29.46-9.25l-1-5h0l-3.93-19.78a9,9,0,0,1,7.13-10.55,9.48,9.48,0,0,1,1.77-.16h13.81a9,9,0,0,1,8.83,7.24L123,180.52c-2.71.19-5.39.4-8,.66l-3.65-18.38a1,1,0,0,0-1-.8H96.54a1,1,0,0,0-1,1,1.49,1.49,0,0,0,0,.21l4,19.93h0l1,5a289.66,289.66,0,0,1,87,0l5-24.91a1,1,0,0,0-.79-1.17.75.75,0,0,0-.21,0H177.65a1,1,0,0,0-1,.81L173,181.18c-2.64-.26-5.32-.47-8-.66l3.83-19.28a9,9,0,0,1,8.83-7.24h13.81a9,9,0,0,1,9,9,9.25,9.25,0,0,1-.17,1.74l-4.92,24.75c11.53,2.28,21.73,5.38,29.46,9.25l7.07-35.56a1,1,0,0,0-.2-.82,1,1,0,0,0-.78-.37h-13.8a1,1,0,0,0-1,.81l-5,25.29c-2.47-.73-5.06-1.41-7.74-2l4.93-24.81a9,9,0,0,1,8.83-7.24h13.8a9,9,0,0,1,9,9,9.35,9.35,0,0,1-.17,1.75l-7.65,38.45C237.11,207,240,211.41,240,216.35Zm-8,0c0-9.83-33.48-23.53-88-23.53s-88,13.7-88,23.53,33.48,23.53,88,23.53S232,226.17,232,216.35Z"/>
</svg>
