<svg id="ART" xmlns="http://www.w3.org/2000/svg" viewBox="0 0 288 288"><defs><style>.cls-1{fill:#312d2a;}</style></defs><path class="cls-1" d="M206,224H183.2l-13.58-79.12.21-.21-.3-.29-8-46.38H162l8-4V90H148V84h0l8-4V76H132v4l8,4h0v6H117v4l8,4h1.43L104.8,224H82l-8,4v4H214v-4Zm-44.66-76.5L148,160.84v-25.7l-8,8v17.2L127.16,147.5l29.69-29.7,2.88,16.78L154.15,129l-5.66,5.66Zm-22.75,22.75-19.86,19.86,5.82-33.9Zm-10.43-35.07,3.06-17.81,7.37,7.38ZM153.46,98l1.74,10.15-7.2,7.19V98ZM140,98v16.84l-7.12-7.12L134.54,98ZM116.39,203.77l47.13-47.13,5.64,32.87-15-15-5.66,5.66,23,23L175.08,224H148V180.64l-8,8V224H112.92ZM148,70h-8a22,22,0,0,1,22-22v8A14,14,0,0,0,148,70Zm-12.17-10A14,14,0,0,0,126,56V48a21.84,21.84,0,0,1,13.84,4.92A28.21,28.21,0,0,0,135.83,60.05Z"/></svg>