<?xml version="1.0" encoding="utf-8"?>
<!-- Generator: Adobe Illustrator 27.1.0, SVG Export Plug-In . SVG Version: 6.00 Build 0)  -->
<svg version="1.1" id="Layer_1" xmlns="http://www.w3.org/2000/svg" xmlns:xlink="http://www.w3.org/1999/xlink" x="0px" y="0px"
	 viewBox="0 0 288 288" style="enable-background:new 0 0 288 288;" xml:space="preserve">
<style type="text/css">
	.st0{display:none;}
	.st1{display:inline;}
	.st2{fill:#4EA8E6;}
	.st3{fill:none;stroke:#4EA8E6;stroke-width:0.25;stroke-miterlimit:10;}
	.st4{fill:#312D2A;}
</style>
<g id="GUIDES" class="st0">
	<g class="st1">
		<g>
			<path class="st2" d="M144,96.3c26.3,0,47.8,21.4,47.8,47.7s-21.4,47.7-47.8,47.7c-26.3,0-47.8-21.4-47.8-47.7
				S117.7,96.3,144,96.3 M144,96.1c-26.5,0-48,21.5-48,47.9c0,26.5,21.5,47.9,48,47.9s48-21.5,48-47.9
				C192,117.5,170.5,96.1,144,96.1L144,96.1z"/>
		</g>
		<line class="st3" x1="96" y1="0" x2="96" y2="288"/>
		<line class="st3" x1="192" y1="0" x2="192" y2="288"/>
		<line class="st3" x1="0" y1="192" x2="288" y2="192"/>
		<line class="st3" x1="0" y1="96" x2="288" y2="96"/>
		<g>
			<path class="st2" d="M144,12.4c35.2,0,68.3,13.7,93.2,38.6s38.6,58,38.6,93.2s-13.7,68.3-38.6,93.2S179.2,276,144,276
				s-68.3-13.7-93.2-38.6s-38.6-58-38.6-93.2S26,75.9,50.8,51S108.8,12.4,144,12.4 M144,12.1c-72.9,0-132,59.1-132,132
				s59.1,132,132,132s132-59.1,132-132S216.9,12.1,144,12.1L144,12.1z"/>
		</g>
		<g>
			<path class="st2" d="M240,12.2c6.5,0,11.8,5.3,11.8,11.8v240c0,6.5-5.3,11.8-11.8,11.8H48c-6.5,0-11.8-5.3-11.8-11.8V24
				c0-6.5,5.3-11.8,11.8-11.8H240 M240,12H48c-6.6,0-12,5.4-12,12v240c0,6.6,5.4,12,12,12h192c6.6,0,12-5.4,12-12V24
				C252,17.4,246.6,12,240,12L240,12z"/>
		</g>
		<g>
			<path class="st2" d="M264,36.2c6.5,0,11.8,5.3,11.8,11.8v192c0,6.5-5.3,11.8-11.8,11.8H24c-6.5,0-11.8-5.3-11.8-11.8V48
				c0-6.5,5.3-11.8,11.8-11.8H264 M264,36H24c-6.6,0-12,5.4-12,12v192c0,6.6,5.4,12,12,12h240c6.6,0,12-5.4,12-12V48
				C276,41.4,270.6,36,264,36L264,36z"/>
		</g>
		<g>
			<path class="st2" d="M247.8,24.2c8.8,0,16,7.2,16,16v207.6c0,8.8-7.2,16-16,16H40.2c-8.8,0-16-7.2-16-16V40.2c0-8.8,7.2-16,16-16
				H247.8 M247.8,24H40.2C31.3,24,24,31.3,24,40.2v207.6c0,8.9,7.3,16.2,16.2,16.2h207.6c8.9,0,16.2-7.3,16.2-16.2V40.2
				C264,31.3,256.7,24,247.8,24L247.8,24z"/>
		</g>
	</g>
</g>
<g id="ART">
	<g>
		<g>
			<path class="st4" d="M91.8,109.8h10V59.5H43.3v40.3h40.4L91.8,109.8z M51.3,67.5h42.4v32l-6.2-7.7H51.3V67.5z M57.3,81.7h30v-8
				h-30C57.3,73.7,57.3,81.7,57.3,81.7z M112,206h64v-8h-64V206z M78,192h132v-8H78V192z M231,172.3V76c0-5-4-9-9-9H107.7v8H222
				c0.6,0,1,0.4,1,1v94h-39.2v-13.1c0-11.6-9.2-20.7-21-20.7h-5.5V131c3.2-3,5.5-7,6.4-11.5c6.3-1.7,10.5-7.1,10.5-13.7
				c0-2.6,0-7.3-4.9-11.3c0.3-6-4.8-9.7-6.5-10.9c-3.4-2.4-7.3-3.2-10.9-2c-0.1,0-0.2,0-0.3-0.1c-2.7-2.4-6.1-3.7-9.7-3.7
				c-5.6,0-9.8,2.4-12.8,7.3c-4.3-0.3-8.9,1.3-11.9,4.4c-3,3-4.1,7.1-3.1,11.2c0.3,1.2,0.3,1.6,0.3,1.6c0,0.1-0.3,0.7-0.5,1.1
				l-0.2,0.3c-2.3,4.6-1.9,9.4,1,13.6c2.6,3.7,7.1,6.4,11.2,7.1c1.2,2.6,2.8,4.8,4.9,6.7v5.2h-5.5c-11.8,0-21,9.1-21,20.7v13H65
				v-64.2h-8v68L36,213v4l8,4h200l8-4v-4L231,172.3z M128.4,100.4c-2.5,0.2-4.5,2.3-4.5,4.9v9.7c-1-0.6-2-1.5-2.7-2.5
				c-1.2-1.7-1.4-3.4-0.4-5.4l0.1-0.3c1.3-2.6,1.8-4.3,0.8-8.2c-0.4-1.4,0-2.6,1-3.6c1.6-1.6,4.4-2.4,6.6-1.9c2.4,0.6,4.8-0.6,6-2.9
				c1.8-3.7,3.9-4.5,6.5-4.5c1.6,0,3.2,0.6,4.4,1.7c2.2,2,5.2,2.6,8,1.8c1.2-0.4,2.5-0.1,3.8,0.9c0.9,0.7,3.3,2.4,3.2,4
				c-0.2,2.5,1,5,3,6.6c1.8,1.5,1.9,2.8,1.9,5.1c0,2-0.8,3.6-2.1,4.7V107c0-1.4-0.6-2.7-1.6-3.7l-9.8-8.7l-0.4-0.3
				c-1.9-1.2-4.5-1-6.1,0.5C143.8,96.9,138.9,99.5,128.4,100.4z M144,128.3c-6.7,0-12.1-5.8-12.1-13v-7.2c7.4-0.9,13.3-2.8,17.4-5.7
				l6.8,6v7C156.2,122.5,150.7,128.3,144,128.3z M149.3,135.5v3.2l-5.3,5.7l-5.3-5.7v-3.2c1.7,0.5,3.5,0.8,5.3,0.8
				C145.9,136.3,147.6,136,149.3,135.5z M112.3,156.9c0-6.9,5.4-12.3,12.4-12.7v8.2c-1.4,1.2-2.3,2.9-2.3,4.9c0,3.5,2.8,6.3,6.3,6.3
				c3.5,0,6.3-2.8,6.3-6.3c0-2-0.9-3.7-2.3-4.9v-8.3h0.3l11.1,12l11-11.9v5.8c-1.3,0.7-2.8,1.7-4,3c-2.7,2.8-3.2,5.7-3.2,7.5
				c0,1.7,0.4,3.3,1,4.7c0.7,1.4,2.1,2.2,3.6,2.2c0.6,0,1.2-0.1,1.8-0.4c2-1,2.8-3.4,1.8-5.4c-0.1-0.1-0.2-0.5-0.2-1.1
				s0.4-1.3,1.1-2.1c0.5-0.6,1.4-1.1,2.2-1.5c0.8,0.5,1.7,1,2.2,1.5c0.7,0.7,1.1,1.4,1.1,2.1c0,0.6-0.1,0.9-0.2,1.1
				c-1,2-0.2,4.4,1.8,5.4c0.6,0.3,1.2,0.4,1.8,0.4c1.5,0,2.9-0.8,3.6-2.2c0.7-1.4,1-3,1-4.7c0-1.9-0.6-4.7-3.2-7.5
				c-1.2-1.3-2.8-2.3-4-3v-6c7.2,0.1,12.8,5.6,12.8,12.7V170h-63.6v-13.1H112.3z M45.1,213l18.8-35H225l18,35H45.1z"/>
		</g>
	</g>
</g>
</svg>
