<svg id="ART" xmlns="http://www.w3.org/2000/svg" viewBox="0 0 288 288"><defs><style>.cls-1{fill:#312d2a;}</style></defs><path class="cls-1" d="M256.89,155.11a19.94,19.94,0,0,0-11.38-18.28,26.15,26.15,0,0,0,3.61-5l.79-1.39-7.68-30.85C241,92.06,234.68,86.1,227.35,86.1h-8c-7.23,0-13.47,5.81-14.84,13.25l-8.42,31.08.82,1.43a25.21,25.21,0,0,0,4.18,5.55l-.4.2a38.1,38.1,0,0,1,4.41,6.74,12.34,12.34,0,0,1,5.16-1.13l2,0a11.6,11.6,0,0,0,22.62-.22l.11,0,2.06,0A11.9,11.9,0,0,1,249,155v24l8,0ZM212,134.88a13.23,13.23,0,0,1-7.32-5.62l1.89-7A21.07,21.07,0,0,0,212,128.9Zm.21-22.34v-3.17c.37,0,.75,0,1.15,0a17.79,17.79,0,0,0,10-3.1,17.62,17.62,0,0,0,11.15,3.06v3.17c0,6.81-5,12.56-11,12.56S212.21,119.35,212.21,112.54ZM239.81,123l1.55,6.22a13.18,13.18,0,0,1-6.36,5.29v-5.66A20.29,20.29,0,0,0,239.81,123ZM219.33,94.1h8c2.87,0,5.47,2.21,6.57,5.2h0l.49,2s0,.07,0,.1A10.61,10.61,0,0,1,226,98.28l-2.69-2.46-2.7,2.46a10.62,10.62,0,0,1-8.36,3.09c0-.1,0-.21,0-.31l.54-2C214,96.2,216.54,94.1,219.33,94.1Zm4.15,50a3.22,3.22,0,0,1-3.48-3v-8.36a17.49,17.49,0,0,0,3.48.37,17.73,17.73,0,0,0,3.52-.37v8.37C227,143.05,225.19,144.1,223.48,144.1ZM87.93,137.41a25.21,25.21,0,0,0,4.18-5.55l.82-1.43L84.51,99.35C83.14,91.91,76.9,86.1,69.67,86.1h-8c-7.33,0-13.62,6-14.88,13.52l-7.68,30.85.79,1.39a26.48,26.48,0,0,0,3.6,5,20,20,0,0,0-11.37,18.27L32,179l8,0V155a11.9,11.9,0,0,1,12-12.08l2.1,0,.11,0a11.6,11.6,0,0,0,22.62.22l2,0a12.18,12.18,0,0,1,5.11,1.13,38.16,38.16,0,0,1,4.42-6.74ZM49.19,123A20.29,20.29,0,0,0,54,128.85v5.66a13.18,13.18,0,0,1-6.36-5.29Zm5.33-10.46v-3.17a17.66,17.66,0,0,0,11.16-3.06,17.66,17.66,0,0,0,10,3.1c.4,0,.78,0,1.15,0v3.17c0,6.81-5.16,12.56-11.27,12.56C59.56,125.1,54.52,119.35,54.52,112.54Zm27.91,9.71,1.89,7A13.23,13.23,0,0,1,77,134.88v-6A21.07,21.07,0,0,0,82.43,122.25ZM61.65,94.1h8c2.79,0,5.33,2.1,6.48,5l.54,2c0,.1,0,.2,0,.3a10.6,10.6,0,0,1-8.36-3.08l-2.69-2.46L63,98.28a10.59,10.59,0,0,1-8.39,3.09s0-.07,0-.11l.49-2h0C56.18,96.31,58.78,94.1,61.65,94.1Zm3.87,50c-1.71,0-3.52-1-3.52-3v-8.37a17.73,17.73,0,0,0,3.52.37,17.49,17.49,0,0,0,3.48-.37v8.36A3.22,3.22,0,0,1,65.52,144.1ZM86,179h8V161a23,23,0,0,1,23-23h10.67l16.21,17.22L160.11,138H172a23,23,0,0,1,23,23v18h8V161a31,31,0,0,0-31-31h-9V119a26.9,26.9,0,0,0,8-19V61H136c-11.84,0-18.93,7.78-19,20.82h0v18.52a26.34,26.34,0,0,0,7.94,18.83V130H117a31,31,0,0,0-31,31ZM136,69h26.74c-1.3,9-7.06,9-9.11,9H125.32C126.35,72.06,129.93,69,136,69Zm17.63,17A16.94,16.94,0,0,0,163,83.47v16.58a19.22,19.22,0,0,1-19,19,18.85,18.85,0,0,1-19-18.63V86Zm-20.69,38.62A27.14,27.14,0,0,0,144,127,26.26,26.26,0,0,0,155,124.6v7.19l-11.09,11.76L133,132v-2h-.06ZM195,220h-6V169a9,9,0,0,0-9-9H109a9,9,0,0,0-9,9v51H86v4l8,4H195l8-4v-4Zm-86.34,0,16.44-16.44,13.8,12.87L167,188.7V209h8V175H141.14v8h20.25l-22.65,22.34-13.84-12.9L108,209.34V169a1,1,0,0,1,1-1h71a1,1,0,0,1,1,1v51Z"/></svg>