<?xml version="1.0" encoding="UTF-8"?>
<svg id="ART" xmlns="http://www.w3.org/2000/svg" version="1.1" viewBox="0 0 288 288">
  <defs>
    <style>
      .cls-1 {
        fill: #312d2a;
        stroke-width: 0px;
      }
    </style>
  </defs>
  <path class="cls-1" d="M212,64H76c-6.6,0-12,5.4-12,12v136c0,6.6,5.4,12,12,12h136c6.6,0,12-5.4,12-12V76c0-6.6-5.4-12-12-12ZM111.3,200h-23.3v-76.2h23.3v76.2ZM99.4,113h-.2c-8.1,0-13.3-6-13.3-13.5s5.4-13.5,13.6-13.5,13.3,5.8,13.4,13.5c0,7.5-5.2,13.5-13.6,13.5h0ZM200.2,200h-24.3v-42.1c0-9.8-3.1-14.9-11.9-14.9s-10.2,2.6-12,7c-1,2-2,6.8-2,9l.3,41h-24.3v-76h23l.2,9.8c3.3-5,10.2-11.6,23.1-11.6,17.8,0,28,10.5,28,32.9v45h-.1ZM149.2,134v-.2s-.1.2-.2.2h.2ZM241.7,224c-5.9,0-10.7-4.7-10.7-10.5s4.8-10.5,10.7-10.5,10.7,4.7,10.7,10.5-4.8,10.5-10.7,10.5ZM241.7,203.9c-5.4,0-9.8,4.3-9.8,9.6s4.4,9.6,9.8,9.6,9.8-4.3,9.8-9.6-4.4-9.6-9.8-9.6ZM243.5,214.6c1.6-.4,2.7-1.5,2.7-3.3s-1.8-3.3-4.1-3.3h-3.7v11.9h1.5v-5h2.1l2.9,5h1.7l-3-5.2h0ZM241.8,213.5h-2v-4.4h2c1.8,0,2.8.6,2.8,2.1s-1,2.3-2.8,2.3h0Z"/>
</svg>