<svg id="ART" xmlns="http://www.w3.org/2000/svg" viewBox="0 0 288 288"><defs><style>.cls-1{fill:#fcfbfa;}</style></defs><path class="cls-1" d="M179.51,135.1a41.47,41.47,0,0,0,9.59-11.72l.8-1.39-15-60.34-.18.05C171.43,51.42,162.23,44,151.43,44H136.51c-11,0-20.06,7.3-23.26,17.67l-.06,0L98.18,122l.79,1.39a41.28,41.28,0,0,0,9.59,11.71A33.45,33.45,0,0,0,77,168.74v24.14h8V168.74A25.59,25.59,0,0,1,111,143h14.14c1.12,8.75,9.43,16,18.83,16s17.77-7.29,18.89-16H177a25.59,25.59,0,0,1,26,25.74v24.14h8V168.74A33.44,33.44,0,0,0,179.51,135.1ZM120,89V79.33c6,1.1,14.88.87,24-6.09a30.25,30.25,0,0,0,18.62,6.58,29.23,29.23,0,0,0,5.38-.5V89c0,14.34-10.77,26-24,26S120,103.34,120,89Zm43,45.61V116.34a34.34,34.34,0,0,0,12.26-20.07l6.09,24.5C176.77,128.22,171.31,132.33,163,134.61ZM136.51,52h14.92C160.72,52,168,59.91,168,70v1.15c-4.56,1.14-12.87,1.61-21.3-6.08L144,62.61l-2.7,2.46c-8.42,7.68-16.73,7.22-21.3,6.09V70C120,59.91,127.25,52,136.51,52ZM112.78,96.43A34.36,34.36,0,0,0,125,116.34v18.25c-8.26-2.28-13.71-6.39-18.28-13.82ZM144,151c-5.64,0-11-4.88-11-10V120.93a30.26,30.26,0,0,0,22,0V141C155,146.16,149.64,151,144,151Zm-20,60a32.94,32.94,0,0,1,12,2.22v8.89a24.71,24.71,0,0,0-24,0v-8.89A32.94,32.94,0,0,1,124,211Zm40-28a32.94,32.94,0,0,1,12,2.22v8.89a24.71,24.71,0,0,0-24,0v-8.88A32.74,32.74,0,0,1,164,183Zm-40,0a32.74,32.74,0,0,1,12,2.23v8.88a24.71,24.71,0,0,0-24,0v-8.89A32.94,32.94,0,0,1,124,183Zm40,14a32.94,32.94,0,0,1,12,2.22v8.89a24.71,24.71,0,0,0-24,0v-8.88A32.74,32.74,0,0,1,164,197Zm-40,0a32.74,32.74,0,0,1,12,2.23v8.88a24.71,24.71,0,0,0-24,0v-8.89A32.94,32.94,0,0,1,124,197Zm40-28c-7.91,0-15.54,2.8-20,6.71-4.46-3.91-12.09-6.71-20-6.71-12.34,0-24,6.8-24,14v57h8c0-2.79,6.38-7,16-7s16,4.21,16,7h8c0-2.79,6.38-7,16-7s16,4.21,16,7h8V182h-.08C186.91,175.19,175.76,169,164,169Zm-40,56a33.47,33.47,0,0,0-16,3.73V183.19c.64-1.65,6.92-6.19,16-6.19s15.36,4.54,16,6.19v45.54A33.47,33.47,0,0,0,124,225Zm40,0a33.47,33.47,0,0,0-16,3.73V183.19c.64-1.65,6.92-6.19,16-6.19s15.36,4.54,16,6.19v45.54A33.47,33.47,0,0,0,164,225Z"/></svg>