<svg id="icon_art" data-name="icon art" xmlns="http://www.w3.org/2000/svg" viewBox="0 0 288 288"><defs><style>.cls-1{fill:#fcfbfa;}</style></defs><title>RMIL_Technology</title><path class="cls-1" d="M196,134.88V147a9,9,0,0,0,9,9h14a9,9,0,0,0,9-9V134.88c7.4-1.25,14-3.81,14-8.92V110.74c0-.1,0-.2,0-.3s0-.27,0-.41V94.47c0-.06,0-.12,0-.18a2.29,2.29,0,0,0,0-.25V79.18a3.41,3.41,0,0,0-.05-.46,4.48,4.48,0,0,0,.05-.64C242,66.44,225.69,64,212,64c-5,0-30,.68-30,14.08a4.48,4.48,0,0,0,.05.64,3.41,3.41,0,0,0-.05.46V94a2.29,2.29,0,0,0,0,.25c0,.06,0,.12,0,.18V110c0,.14,0,.27,0,.41s0,.2,0,.3V126C182,131.07,188.62,133.63,196,134.88ZM220,147a1,1,0,0,1-1,1H205a1,1,0,0,1-1-1V135.79c3,.2,5.86.21,8,.21s5,0,8-.21Zm-8-19c-12.1,0-19.77-1.86-22-3.13v-7.35c6.91,2.24,16.6,2.48,22,2.48s15.09-.24,22-2.48v7.35C231.77,126.14,224.1,128,212,128Zm0-40c6,0,15.09-.19,22-2.43v7.37C231.77,94.21,224,96,212,96s-19.77-1.79-22-3.06V85.57C196.91,87.81,206,88,212,88Zm0,16c6,0,15,0,22-2.47v7.4C232,110,224,112,212,112s-20-2-22-3.07v-7.4C196.91,103.77,206,104,212,104Zm0-32c13.57,0,21,2,22,5-1,2-10.29,3-22,3s-21-1-22-3C191,74,201,72,212,72Z"/><path class="cls-1" d="M243,170H166v8h77a1,1,0,0,1,1,1v35H44V179a1,1,0,0,1,1-1H55v-8H45a9,9,0,0,0-9,9v43H252V179A9,9,0,0,0,243,170Z"/><rect class="cls-1" x="99" y="170" width="23" height="8"/><path class="cls-1" d="M128,158.88V171a9,9,0,0,0,9,9h14a9,9,0,0,0,9-9V158.88c7.4-1.25,14-3.81,14-8.92V134.74c0-.1,0-.2,0-.3s0-.27,0-.41V118.47c0-.06,0-.12,0-.18a2.29,2.29,0,0,0,0-.25V103.18a3.41,3.41,0,0,0-.05-.46,4.48,4.48,0,0,0,.05-.64C174,90.44,157.69,88,144,88c-5,0-30,.68-30,14.08a4.48,4.48,0,0,0,0,.64,3.41,3.41,0,0,0,0,.46V118a2.29,2.29,0,0,0,0,.25c0,.06,0,.12,0,.18V134c0,.14,0,.27,0,.41s0,.2,0,.3V150C114,155.07,120.62,157.63,128,158.88ZM152,171a1,1,0,0,1-1,1H137a1,1,0,0,1-1-1V159.79c3,.2,5.86.21,8,.21s5,0,8-.21Zm-8-19c-12.1,0-19.77-1.86-22-3.13v-7.35c6.91,2.24,16.6,2.48,22,2.48s15.09-.24,22-2.48v7.35C163.77,150.14,156.1,152,144,152Zm0-40c6,0,15.09-.19,22-2.43v7.37c-2.23,1.27-10,3.06-22,3.06s-19.77-1.79-22-3.06v-7.37C128.91,111.81,138,112,144,112Zm0,16c6,0,15,0,22-2.47v7.4C164,134,156,136,144,136s-20-2-22-3.07v-7.4C128.91,127.77,138,128,144,128Zm0-32c13.57,0,21,2,22,5-1,2-10.29,3-22,3s-21-1-22-3C123,98,133,96,144,96Z"/><path class="cls-1" d="M61,158.88V171a9,9,0,0,0,9,9H84a9,9,0,0,0,9-9V158.88c7.4-1.25,14-3.81,14-8.92V134.74c0-.1,0-.2,0-.3s0-.27,0-.41V118.47c0-.06,0-.12,0-.18a2.29,2.29,0,0,0,0-.25V103.18a3.41,3.41,0,0,0,0-.46,4.48,4.48,0,0,0,0-.64C107,90.44,90.69,88,77,88c-5,0-30,.68-30,14.08a4.48,4.48,0,0,0,0,.64,3.41,3.41,0,0,0,0,.46V118a2.29,2.29,0,0,0,0,.25c0,.06,0,.12,0,.18V134c0,.14,0,.27,0,.41s0,.2,0,.3V150C47,155.07,53.62,157.63,61,158.88ZM85,171a1,1,0,0,1-1,1H70a1,1,0,0,1-1-1V159.79c3,.2,5.86.21,8,.21s5,0,8-.21Zm-8-19c-12.1,0-19.77-1.86-22-3.13v-7.35c6.91,2.24,16.6,2.48,22,2.48s15.09-.24,22-2.48v7.35C96.77,150.14,89.1,152,77,152Zm0-40c6,0,15.09-.19,22-2.43v7.37C96.77,118.21,89,120,77,120s-19.77-1.79-22-3.06v-7.37C61.91,111.81,71,112,77,112Zm0,16c6,0,15,0,22-2.47v7.4C97,134,89,136,77,136s-20-2-22-3.07v-7.4C61.91,127.77,71,128,77,128Zm0-32c13.57,0,21,2,22,5-1,2-10.29,3-22,3s-21-1-22-3C56,98,66,96,77,96Z"/><path class="cls-1" d="M224,196a12,12,0,1,0-12,12A12,12,0,0,0,224,196Zm-16,0a4,4,0,1,1,4,4A4,4,0,0,1,208,196Z"/><circle class="cls-1" cx="144" cy="196" r="8"/><circle class="cls-1" cx="77" cy="196" r="8"/></svg>