<?xml version="1.0" encoding="utf-8"?>
<!-- Generator: Adobe Illustrator 24.0.3, SVG Export Plug-In . SVG Version: 6.00 Build 0)  -->
<svg version="1.1" id="ART" xmlns="http://www.w3.org/2000/svg" xmlns:xlink="http://www.w3.org/1999/xlink" x="0px" y="0px"
	 viewBox="0 0 288 288" style="enable-background:new 0 0 288 288;" xml:space="preserve">
<style type="text/css">
	.st0{fill:#312D2A;}
</style>
<path class="st0" d="M173.2,104l-29-11.2l-30,11.2v40l30,11.2l29-11.2V104z M158.8,107L158.8,107l-14.6,6l-14.9-6.2l14.8-5.6
	L158.8,107z M122.2,112.6l17.9,7.4v25.1l-17.9-6.7V112.6z M148.2,145L148.2,145v-25l17.1-7.1v25.5L148.2,145z M181.7,47H74v125.8
	c2.6-1,5.3-1.8,8-2.2V55h91v33h33v132h-77c-0.6,2.8-1.5,5.4-2.7,8H214V79.3L181.7,47z M181,57.7L203.3,80H181V57.7z M114.6,179H189
	v-8H98C104.1,172.4,109.7,175.1,114.6,179z M159,185h-38.3c2,2.5,3.7,5.1,5.1,8H159V185z M89,176c-19.3,0-35,15.7-35,35
	s15.7,35,35,35s35-15.7,35-35l0,0C124,191.7,108.3,176,89,176z M89,238c-14.9,0-27-12.1-27-27s12.1-27,27-27s27,12.1,27,27l0,0
	C116,225.9,103.9,238,89,238z M84.2,214.7l-6.4-6.4l-5.7,5.7l12,12l21.6-21.6l-5.7-5.6L84.2,214.7z"/>
</svg>
