<svg id="ART" xmlns="http://www.w3.org/2000/svg" viewBox="0 0 288 288"><defs><style>.cls-1{fill:#312d2a;}</style></defs><path class="cls-1" d="M242,139.37,218.46,129a23.85,23.85,0,0,0-9.66-2H198.75a16.14,16.14,0,0,1-2.78-.24l-13.55-2.39a23.26,23.26,0,0,0-4.17-.37h-3.57L119.55,68H135V64l-8-4H91.88l16,64H92.21l-12-19H61.39l5,35H49v8H66.39l-5,35H80.21l12-19h15.67l-16,64H127l8-4v-4H119.55l55.13-56h3.57a23.26,23.26,0,0,0,4.17-.37L196,161.24a16.14,16.14,0,0,1,2.78-.24H208.8a23.85,23.85,0,0,0,9.66-2L242,148.63a5,5,0,0,0,0-9.26Zm-26.73,12.28A16.06,16.06,0,0,1,208.8,153H198.75a23.26,23.26,0,0,0-4.17.37L181,155.76a16.14,16.14,0,0,1-2.78.24H153v4l8,4h2.45l-55.13,56h-6.2l14-56.07L124,160v-4H87.79l-12,19H70.61l1.9-13.25L80,158v-4H73.61l.86-6H90v-8H74.47l-.86-6H80v-4l-7.49-3.75L70.61,113h5.18l12,19H124v-4l-7.86-3.93L102.12,68h6.2l55.13,56H161l-8,4v4h25.25a16.14,16.14,0,0,1,2.78.24l13.55,2.39a23.26,23.26,0,0,0,4.17.37H208.8a16.06,16.06,0,0,1,6.44,1.35L232.63,144ZM213,144a4,4,0,0,1-4,4H189a4,4,0,0,1,0-8h20A4,4,0,0,1,213,144Z"/></svg>