<?xml version="1.0" encoding="utf-8"?>
<!-- Generator: Adobe Illustrator 24.0.3, SVG Export Plug-In . SVG Version: 6.00 Build 0)  -->
<svg version="1.1" id="ART" xmlns="http://www.w3.org/2000/svg" xmlns:xlink="http://www.w3.org/1999/xlink" x="0px" y="0px"
	 viewBox="0 0 288 288" style="enable-background:new 0 0 288 288;" xml:space="preserve">
<style type="text/css">
	.st0{fill:#312D2A;}
</style>
<path class="st0" d="M221,95h-8v9h-9v8h9v9h8v-9h9v-8h-9V95z M176,159h20v8h-20V159z M176,187h29v8h-29V187z M176,173h35v8h-35V173z
	 M51,71.1c0-0.6,0.5-1.1,1.1-1.1h39.2c0.3,0,0.7,0.2,0.9,0.4L102.8,84h81c2.2-3,4.7-5.7,7.6-8h-84.7l-8.2-10.5
	c-1.7-2.2-4.4-3.5-7.2-3.5H52.1c-5,0-9.1,4.1-9.1,9.1V190h18v-8H51V71.1z M225,148.2V213H75V108h101c0-1.3,0.1-2.7,0.2-4
	s0.3-2.7,0.6-4H67v121h166v-75.3c-1.3,0.6-2.6,1.1-4,1.5C227.7,147.6,226.4,148,225,148.2z M217,73c-19.3,0-35,15.7-35,35
	s15.7,35,35,35s35-15.7,35-35S236.3,73,217,73z M217,135c-14.9,0-27-12.1-27-27s12.1-27,27-27s27,12.1,27,27S231.9,135,217,135z
	 M170,207v-93H81v93H170z M125.8,146.2c2.9,2,6.4,3.1,10,3.1c0.4,0,0.8,0,1.1,0v3.2c0,6.8-5.2,12.6-11.3,12.6c-6,0-11-5.8-11-12.6
	v-3.2C118.7,149.6,122.6,148.5,125.8,146.2L125.8,146.2z M122.2,172.6c2.3,0.5,4.7,0.5,7,0v8.4c-0.1,1.8-1.7,3.1-3.4,3c0,0,0,0,0,0
	c-1.7,0-3.5-1.1-3.5-3V172.6z M143.9,169.1c-1.6,2.5-4,4.4-6.8,5.4v-5.8c2.1-1.7,3.8-3.8,5.1-6.1L143.9,169.1z M136.9,141.3
	c-3.1,0.2-6.2-0.9-8.4-3.1l-2.7-2.5l-2.7,2.5c-2.2,2.2-5.3,3.3-8.4,3.1c0,0,0-0.1,0-0.1l0.5-2l0,0c1.1-3,3.7-5.2,6.6-5.2h8
	C133.3,134,136.4,137.3,136.9,141.3L136.9,141.3z M114.2,168.7v5.7c-2.6-1-4.9-2.9-6.4-5.3l1.6-6.2
	C110.6,165.1,112.2,167.1,114.2,168.7L114.2,168.7z M112.2,182.9h2.2c1.4,6.2,7.6,10.2,13.9,8.8c4.3-1,7.7-4.3,8.7-8.7l0.2-0.1h2.8
	c6.4,0,11.2,5.3,11.2,12.4v3.7h-51v-3.7C100.1,188.6,105.4,183.1,112.2,182.9L112.2,182.9z M89,122h73v77h-2.8v-3.7
	c0.2-7.8-4.2-15-11.2-18.6c1.4-1.5,2.6-3.2,3.6-5l0.8-1.4l-8.2-33.1l0,0c-2-6.5-7.8-11.3-14.4-11.3h-8c-7.3,0-13.6,5.9-14.9,13.5
	l-7.7,30.9l0.8,1.4c1,1.8,2.3,3.5,3.7,5.1c-7.1,3.4-11.6,10.6-11.6,18.5v3.7H89V122z"/>
</svg>
