<?xml version="1.0" encoding="utf-8"?>
<!-- Generator: Adobe Illustrator 25.0.1, SVG Export Plug-In . SVG Version: 6.00 Build 0)  -->
<svg version="1.1" xmlns="http://www.w3.org/2000/svg" xmlns:xlink="http://www.w3.org/1999/xlink" x="0px" y="0px"
	 viewBox="0 0 288 288" style="enable-background:new 0 0 288 288;" xml:space="preserve">
<style type="text/css">
	.st0{display:none;opacity:0.75;}
	.st1{display:inline;}
	.st2{fill:#00AEEF;}
	.st3{fill:none;stroke:#00AEEF;stroke-width:0.25;stroke-miterlimit:10;}
	.st4{fill:#FCFBFA;}
	.st5{fill:#312D2A;}
</style>
<g id="Guide" class="st0">
</g>
<g id="ART">
	<g>
		<path class="st5" d="M212.2,41H104.5v50.2c1.4-0.1,2.8-0.2,4.2-0.2c1.3,0,2.5,0.1,3.8,0.1V49h91v33h33v132h-124v-17.6
			c-1.2,0.1-2.5,0.1-3.8,0.1c-1.4,0-2.8-0.1-4.2-0.2V222h140V73.3L212.2,41z M211.5,74V51.7L233.9,74H211.5z"/>
		<path class="st5" d="M146.1,181.1c-0.3,0.3-0.7,0.6-1,0.9h61.4v-8H152C150.2,176.5,148.3,178.9,146.1,181.1z"/>
		<path class="st5" d="M224.5,154h-64c-0.5,2.7-1.3,5.4-2.2,8h66.2V154z"/>
		<path class="st5" d="M224.5,134h-63.9c0.5,2.6,0.8,5.3,0.9,8h63V134z"/>
		<path class="st5" d="M224.5,114h-72.2c1.7,2.5,3.2,5.2,4.5,8h67.7V114z"/>
		<path class="st5" d="M224.5,94h-98.1c5.3,1.9,10.2,4.5,14.6,8h83.5V94z"/>
		<path class="st5" d="M119.8,156v20h8v-20c0-5-4-9-9-9h-20c-5,0-9,4-9,9v20h8v-20c0-0.6,0.4-1,1-1h20
			C119.3,155,119.8,155.4,119.8,156z"/>
		<path class="st5" d="M141.8,176.8c8.8-8.8,13.7-20.6,13.7-33.1c0-12.5-4.9-24.3-13.7-33.1C133,101.9,121.3,97,108.8,97
			c-12.5,0-24.3,4.9-33.1,13.7c-8.8,8.8-13.7,20.6-13.7,33.1c0,8.9,2.5,17.4,7,24.7l-28.1,28.1l16,16l28.4-28.4
			c7,4.1,15.1,6.3,23.5,6.3C121.3,190.5,133,185.6,141.8,176.8z M56.9,201.6l-5-5l21.8-21.8c0.6,0.7,1.3,1.4,1.9,2.1
			c1,1,2.1,2,3.1,2.9L56.9,201.6z M81.3,171.2c-7.3-7.3-11.3-17-11.3-27.4c0-10.4,4-20.1,11.3-27.4c7.3-7.3,17-11.3,27.4-11.3
			s20.1,4,27.4,11.3c7.3,7.3,11.3,17,11.3,27.4s-4,20.1-11.3,27.4c-7.3,7.3-17,11.3-27.4,11.3S88.6,178.5,81.3,171.2z"/>
		<path class="st5" d="M108.8,141.5c7.4,0,13.4-6,13.4-13.4s-6-13.4-13.4-13.4s-13.4,6-13.4,13.4S101.4,141.5,108.8,141.5z
			 M108.8,122.8c3,0,5.4,2.4,5.4,5.4s-2.4,5.4-5.4,5.4s-5.4-2.4-5.4-5.4S105.8,122.8,108.8,122.8z"/>
		
			<rect x="39.4" y="198.4" transform="matrix(0.7071 -0.7071 0.7071 0.7071 -135.9381 92.1859)" class="st5" width="7.8" height="23.5"/>
	</g>
</g>
<g id="Layer_1">
</g>
</svg>
