<svg id="Icon_Art" data-name="Icon Art" xmlns="http://www.w3.org/2000/svg" viewBox="0 0 28.8 28.8">
  <defs>
    <style>
      .cls-1 {
        fill: #fcfbfa;
      }

      .cls-2 {
        fill: none;
        stroke: #fcfbfa;
        stroke-miterlimit: 10;
        stroke-width: 0.8px;
      }
    </style>
  </defs>
  <polygon class="cls-1" points="14 15.67 14 20.4 14.8 20.4 14.8 15.66 16.52 17.35 17.08 16.78 14.4 14.14 11.72 16.82 12.29 17.38 14 15.67"/>
  <path class="cls-1" d="M23.94,12.64a4.19,4.19,0,0,0-3.38-3.41,1.57,1.57,0,0,1-1.1-.9,4,4,0,0,0-6.69-.93,1.22,1.22,0,0,1-1,.44,3.69,3.69,0,0,0-2.45.64,3.55,3.55,0,0,0-1.44,2.16A1.62,1.62,0,0,1,7,11.71a4,4,0,0,0-2.19,3.48v.41H8.42a5.74,5.74,0,0,1,.26-.8h-3a3.25,3.25,0,0,1,1.72-2.38,2.4,2.4,0,0,0,1.25-1.6A2.78,2.78,0,0,1,9.74,9.13a2.87,2.87,0,0,1,1.91-.49,2.05,2.05,0,0,0,1.73-.72,3.21,3.21,0,0,1,5.35.74A2.39,2.39,0,0,0,20.41,10a3.4,3.4,0,0,1,2.47,4.78H20.12a5.74,5.74,0,0,1,.26.8h3l.12-.21A4.27,4.27,0,0,0,23.94,12.64Z"/>
  <circle class="cls-2" cx="14.4" cy="17.2" r="5.2"/>
</svg>
