<svg id="ART" xmlns="http://www.w3.org/2000/svg" viewBox="0 0 288 288"><defs><style>.cls-1{fill:#312d2a;}</style></defs><path class="cls-1" d="M209,130h-8v-8h8Zm-28,6h-8v8h8Zm-8,22h8v-8h-8Zm28,0h8v-8h-8Zm-20-36h-8v8h8Zm35-28H201v8h15Zm-89,36h18v30h8V88h34v72h8V116h19v44h8V108H195V80H145v42H119v38h8Zm82,6h-8v8h8Zm13-56H201v8h21Zm-90,78h8v-8h-8Zm35-64h-8v8h8Zm-27,42h-8v8h8Zm-13,47h87v9h8V166h-8v9H127v-9h-8v26h8Zm109,23H55V98.34L87.34,66H236ZM96,107H77v45h28V88H96ZM77,160v24h28V160ZM65.66,99H88V76.66ZM228,74H96v6h17V192H69V107H63v91H228Zm0,138H55v4l8,4H228l8-4v-4Zm-61-90h-8v8h8Zm0,14h-8v8h8Zm14-42h-8v8h8Zm-14,14h-8v8h8Zm-8,50h8v-8h-8Zm22-50h-8v8h8Z"/></svg>