<?xml version="1.0" encoding="UTF-8"?>
<svg id="ART" xmlns="http://www.w3.org/2000/svg" version="1.1" viewBox="0 0 288 288">
  <defs>
    <style>
      .cls-1 {
        fill: #fcfbfa;
        stroke-width: 0px;
      }
    </style>
  </defs>
  <path class="cls-1" d="M213,109.1c-1.7-6.2-6.5-11.1-12.7-12.8-11.2-3-56.3-3-56.3-3,0,0-45,0-56.3,3-6.2,1.7-11.1,6.6-12.7,12.8-3,11.3-3,34.9-3,34.9,0,0,0,23.6,3,34.9,1.7,6.2,6.5,11.1,12.7,12.8,11.2,3,56.3,3,56.3,3,0,0,45,0,56.3-3,6.2-1.7,11.1-6.6,12.7-12.8,3-11.3,3-34.9,3-34.9,0,0,0-23.6-3-34.9ZM129.3,165.4v-42.8l37.6,21.4-37.6,21.4Z"/>
</svg>