<svg id="ART" xmlns="http://www.w3.org/2000/svg" viewBox="0 0 288 288"><defs><style>.cls-1{fill:#fdfcfb;}</style></defs><title>RMIL_Personas</title><path class="cls-1" d="M185.9,164H167v-8h26.53L184,79.71a33.24,33.24,0,0,0-1-7.79L183,71.5h-.06C179.36,58,167.49,48,153.43,48H134.49c-14,0-25.86,10-29.4,23.5H105l0,.4a32.88,32.88,0,0,0-1,7.81L94.47,156H121v8H102.1C78.49,164,60,182.15,60,205.33V236h8V205.33C68,186.64,83,172,102.1,172H121v64h8V180.45a23.82,23.82,0,0,0,11,5.19V236h8V185.63a23.94,23.94,0,0,0,11-5.2V236h8V172h18.9C205,172,220,186.64,220,205.33V236h8V205.33C228,182.15,209.51,164,185.9,164ZM112,104.07V90.35a36.91,36.91,0,0,0,6,.88c6.58.4,16.19-.85,26-8.55a37.93,37.93,0,0,0,23.78,8.61c.76,0,1.48,0,2.17-.06a37,37,0,0,0,6.05-.88v13.72c0,18.71-14.36,33.93-32,33.93S112,122.78,112,104.07ZM167,148v-9.69a42.07,42.07,0,0,0,14-18.26l3.49,28ZM134.49,56h18.94c10.33,0,19,7.41,21.72,17.47l.85,6.78v1.84c-5.67,1.69-17.45,3.21-29.3-7.6L144,72l-2.7,2.46c-11.89,10.84-23.61,9.34-29.3,7.63V80.25l.85-6.81C115.52,63.4,124.2,56,134.49,56Zm-31,92L107,120.05a42.07,42.07,0,0,0,14,18.26V148ZM144,178c-7.71,0-15-6.72-15-13.83V142.91a38.2,38.2,0,0,0,30.1,0v21.26C159.05,171.28,151.71,178,144,178Z"/></svg>