<svg xmlns="http://www.w3.org/2000/svg" viewBox="0 0 288 288"><defs><style>.cls-1{fill:#fcfbfa;}</style></defs><g id="ART"><path class="cls-1" d="M139,112.05l-8,3.14V99h10a32.81,32.81,0,0,1,1.4-3.37l-7.06-7,16.27-16.27,7,7.06A32.81,32.81,0,0,1,162,78V68h23V78a32.81,32.81,0,0,1,3.37,1.4l7-7.06,16.27,16.27-7.06,7A32.81,32.81,0,0,1,206,99h9.59l-15.88,7.13-.55-2.15a26.49,26.49,0,0,0-2.92-7l-1.59-2.67,5.69-5.69-5-5-5.69,5.69-2.67-1.59a26.49,26.49,0,0,0-7-2.92l-3-.76V76h-7v8l-3,.76a26.49,26.49,0,0,0-7,2.92l-2.67,1.59-5.69-5.69-5,5,5.69,5.69-1.59,2.67a26.49,26.49,0,0,0-2.92,7l-.77,3h-8Zm54.92-3.31a20.5,20.5,0,0,0-40.5-2.37l10.82-4.26h0A12.47,12.47,0,0,1,173.5,98c.37,0,.73,0,1.08,0a12.36,12.36,0,0,1,1.52.22A12.53,12.53,0,0,1,186,110.5a14,14,0,0,1-.13,1.85ZM225,211v4H61v-4l8-4h0V68h49l-.11,58.19L171,105v21l46-21.23V207h0ZM110,138V76H91V207h18V165h62v42h6V179h26v28h6V117.23L163,138V117Zm53,35H117v6h46Zm-46,20h46v-6H117Zm0,14h46v-6H117Zm78-1V187H185v19ZM77,207h6V76H77Z"/></g></svg>