<svg id="ART" xmlns="http://www.w3.org/2000/svg" viewBox="0 0 288 288"><defs><style>.cls-1{fill:#fcfbfa;}</style></defs><path class="cls-1" d="M211,217V77L147,91.82V127h8V98.18L203,87V217H183V206h-8v11h-6V133H77v84.5L70,221v4H219v-4Zm-50-76v76H85V141Zm8-28h-8v-8h8Zm-8,6h8v8h-8Zm22-6h-8v-8h8Zm-8,6h8v8h-8Zm0,14h8v8h-8Zm0,14h8v8h-8Zm0,14h8v8h-8Zm0,14h8v8h-8Zm22-62h-8v-8h8Zm-8,6h8v8h-8Zm0,14h8v8h-8Zm0,14h8v8h-8Zm0,14h8v8h-8Zm0,14h8v8h-8Zm-14,14h8v8h-8Zm14,0h8v8h-8Zm-69-34H91v-8h29Zm35,0H126v-8h29Zm-35,14H91v-8h29Zm35,0H126v-8h29Zm-35,14H91v-8h29Zm35,0H126v-8h29Zm-35,14H91v-8h29Zm35,0H126v-8h29Zm-35,14H91v-8h29Zm35,0H126v-8h29Zm-42-84h-8V63h65V80.42l-8,1.83V71H113Zm14-37h-8V77h8Zm14,0h-8V77h8Zm-14,19h-8V96h8Zm14,0h-8V96h8Zm-22,6h8v12h-8Zm14,0h8v12h-8Zm14-29.3V77h8v6.86Z"/></svg>