<svg id="ART" xmlns="http://www.w3.org/2000/svg" viewBox="0 0 288 288"><defs><style>.cls-1{fill:#fcfbfa;}</style></defs><path class="cls-1" d="M240,143V129.22l-8-7.2V77H177V74.34L170.66,68H117.34L111,74.34V77H56v45l-8,7.2V143a9,9,0,0,0,8,8.94V209l-8,4v4H240v-4l-8-4V151.94A9,9,0,0,0,240,143Zm-9,1H201a6,6,0,0,1-6-6v-2h37v7A1,1,0,0,1,231,144ZM104,182H92V168h12Zm8-6h14v6H112Zm0-8v-8H84v22H78V152h9a14,14,0,0,0,10-4.21A14,14,0,0,0,107,152h27a14,14,0,0,0,10-4.21A14,14,0,0,0,154,152h2v30H134V168ZM57,144a1,1,0,0,1-1-1v-7H93v2a6,6,0,0,1-6,6Zm137.46-16-8.16-14H177l8.16,14H148V114h-8v14H102.8L111,114H101.7l-8.16,14H61.31l22.23-20H204.46l22.23,20ZM101,136h39v2a6,6,0,0,1-6,6H107a6,6,0,0,1-6-6Zm53,8a6,6,0,0,1-6-6v-2h39v2a6,6,0,0,1-6,6Zm24,8h3a14,14,0,0,0,10-4.21A14,14,0,0,0,201,152h9v45H178ZM119,77.66,120.66,76h46.68L169,77.66v6.68L167.34,86H120.66L119,84.34ZM64,85h47v2.66L117.34,94h53.32L177,87.66V85h47v29.82L207.54,100H80.46L64,114.82Zm0,124V152h6v38h94V152h6v53h48V152h6v57Zm120-51h20v8H184Z"/></svg>