<svg id="ART" xmlns="http://www.w3.org/2000/svg" viewBox="0 0 288 288"><defs><style>.cls-1{fill:#312d2a;}</style></defs><path class="cls-1" d="M174.51,192H164V182a26.9,26.9,0,0,0,8-19V124H137c-11.84,0-18.93,7.78-19,20.82h0v18.52a26.34,26.34,0,0,0,7.94,18.83V192H114.49C99.88,192,88,204.11,88,219v18h8V219c0-10.3,8.47-19,18.49-19h13.23l17.16,18.22L162.05,200h12.46c10,0,18.49,8.7,18.49,19v18h8V219C201,204.11,189.12,192,174.51,192ZM137,132h27c-1.3,9-7.32,9-9.37,9H126.32C127.35,135.06,130.93,132,137,132Zm17.63,17a16.94,16.94,0,0,0,9.37-2.57v16.58a19.22,19.22,0,0,1-19,19,18.85,18.85,0,0,1-19-18.63V149Zm-9.75,57.51-10.94-11.62v-7.27A27.14,27.14,0,0,0,145,190,26.26,26.26,0,0,0,156,187.6v7.19ZM183,104v50h50V104Zm42,42h-6V122h-8v24h-6V131.14h-8V146h-6V112h34ZM97.08,154H107V104H49v40H89.08ZM57,112H99v31.6L92.92,136H57Zm36,14H63v-8H93Zm51-25a28,28,0,1,0-28-28A28,28,0,0,0,144,101Zm0-48a20,20,0,1,1-20,20A20,20,0,0,1,144,53Zm-3.71,32.93-9.95-10L136,70.32l4.29,4.3L152,62.9l5.66,5.66ZM95,98H84.78a74.57,74.57,0,0,1,25.35-22.19A33.85,33.85,0,0,0,111.84,84,66.78,66.78,0,0,0,95,98Zm81.55-15.06A34.35,34.35,0,0,0,178,74.66,73.26,73.26,0,0,1,205.25,98H195.12A65.32,65.32,0,0,0,176.52,82.94Z"/></svg>