<?xml version="1.0" encoding="utf-8"?>
<!-- Generator: Adobe Illustrator 27.1.0, SVG Export Plug-In . SVG Version: 6.00 Build 0)  -->
<svg version="1.1" id="ART" xmlns="http://www.w3.org/2000/svg" xmlns:xlink="http://www.w3.org/1999/xlink" x="0px" y="0px"
	 viewBox="0 0 288 288" style="enable-background:new 0 0 288 288;" xml:space="preserve">
<style type="text/css">
	.st0{fill:#312D2A;}
</style>
<path class="st0" d="M120.4,178c1.2-2.9,2.8-5.5,4.6-8H36.3V78H141c2-3.1,4.6-5.8,7.6-8H28.3v128h60.1l-1.8,13h-7.3l0,0l-8,4v4h46
	v-8H94.7l1.8-13h20.8v-4.1c0-1.3,0.1-2.6,0.2-3.9H36.3v-12H120.4z"/>
<path class="st0" d="M226.3,159.6h-13.2v-12.5c6.4-5.4,10.9-13.3,12.1-22.2c9.9-2.8,17-12,17-22.6c0-7.8-3.9-15.1-10.4-19.5
	c-1.1-0.7-1.7-1.9-1.6-3.2c0.1-0.8,0-1.6,0-2.4c-0.7-8.6-7.7-15.5-16.3-16.1c-2.2-0.1-4.3,0.1-6.4,0.8c-1.2,0.4-2.5,0.1-3.4-0.7
	c-4.3-3.9-9.9-6.1-15.8-6.1c-9.6,0-18.4,6-21.9,15c-0.1,0.2-0.3,0.3-0.6,0.3l0,0c-12.9,0-23.5,10.5-23.5,23.5c0,4.6,1.3,9,3.8,12.9
	c0.2,0.3,0.3,0.8,0.1,1.1c-1.2,2.5-1.9,5.1-1.9,7.9c0,9.5,7.7,17.3,17.2,17.5c2.1,5.4,5.6,10.1,9.9,13.8v12.5h-13.2
	c-19.6,0-34.9,15.1-34.9,34.3v24.9h8v-24.9c0-14.8,11.8-26.3,26.9-26.3h15.3l18.8,20.3l18.8-20.3h15.3c15.1,0,26.9,11.6,26.9,26.3
	v24.9h8v-24.9C261.2,174.6,245.9,159.6,226.3,159.6L226.3,159.6z M205.1,162.1L192.2,176l-12.9-13.9v-10c4,1.7,8.3,2.7,12.9,2.7
	s8.9-1,12.9-2.7L205.1,162.1L205.1,162.1z M192.2,146.8c-13.9,0-25.2-12-25.2-26.8v-11.6h-8V120c0,1.7,0.1,3.3,0.3,5
	c-4-1.1-7-4.8-7-9.2c0-1.5,0.3-2.9,1-4.3c1.4-2.9,1.2-6.4-0.6-9.1c-1.6-2.5-2.5-5.4-2.5-8.5c0-8.5,6.9-15.5,15.5-15.5l0,0
	c3.5,0,6.8-2.2,8-5.5c2.3-5.9,8.1-9.9,14.4-9.9c3.9,0,7.5,1.4,10.4,4c3,2.7,7.3,3.6,11.2,2.4c1.1-0.3,2.3-0.5,3.5-0.4
	c4.6,0.3,8.5,4.1,8.9,8.7c0,0.4,0,0.9,0,1.3c-0.2,4.1,1.7,8,5.1,10.3c4.3,2.9,6.8,7.7,6.8,12.8c0,6-3.5,11.3-8.7,13.9V95.1
	l-24.1-12.9l-2.1,1.9c-16.8,15.3-33.2,6.8-33.9,6.4l-3.8,7c0.2,0.1,5.7,3.1,13.7,3.6c6.9,0.4,17-0.9,27.2-9.2l15,8V120
	C217.5,134.8,206.1,146.8,192.2,146.8L192.2,146.8z"/>
<g>
	<rect x="113.2" y="146.8" class="st0" width="22.2" height="8"/>
	<rect x="113.2" y="133" class="st0" width="29.8" height="8"/>
	<path class="st0" d="M99,147h-6v-5c0-5-4-9-9-9H70c-5,0-9,4-9,9v5h-6v-44h44V147L99,147z M85,147H69v-5c0-0.6,0.4-1,1-1h14
		c0.6,0,1,0.4,1,1V147L85,147z M47,95v60h60V95H47z"/>
	<path class="st0" d="M77,115c-1.9,0-3.5,1.6-3.5,3.5s1.6,3.5,3.5,3.5s3.5-1.6,3.5-3.5S78.9,115,77,115L77,115z M77,130
		c-6.3,0-11.5-5.2-11.5-11.5S70.7,107,77,107s11.5,5.2,11.5,11.5S83.3,130,77,130L77,130z"/>
</g>
</svg>
