<?xml version="1.0" encoding="utf-8"?>
<!-- Generator: Adobe Illustrator 24.0.3, SVG Export Plug-In . SVG Version: 6.00 Build 0)  -->
<svg version="1.1" id="ART" xmlns="http://www.w3.org/2000/svg" xmlns:xlink="http://www.w3.org/1999/xlink" x="0px" y="0px"
	 viewBox="0 0 288 288" style="enable-background:new 0 0 288 288;" xml:space="preserve">
<style type="text/css">
	.st0{fill:#312D2A;}
</style>
<path class="st0" d="M144,230l-54.6-78.7C68.5,121.2,76,79.8,106.1,58.9s71.5-13.4,92.5,16.7c15.8,22.8,15.8,53,0,75.7L144,230z
	 M96,146.8l48,69.2l48-69.2c18.4-26.5,11.9-62.9-14.7-81.4c-9.8-6.8-21.5-10.5-33.4-10.4c-32.3,0-58.4,26.2-58.4,58.5
	C85.5,125.4,89.2,137,96,146.8L96,146.8z M144,139.7c-14.2,0-25.7-11.5-25.7-25.7s11.5-25.7,25.7-25.7c14.2,0,25.7,11.5,25.7,25.7
	c0,0,0,0,0,0C169.7,128.2,158.2,139.7,144,139.7z M144,96.2c-9.8,0-17.7,7.9-17.7,17.7s7.9,17.7,17.7,17.7c9.8,0,17.7-7.9,17.7-17.7
	C161.7,104.2,153.8,96.3,144,96.2z M144,154c-22.1,0-40-17.9-40-40s17.9-40,40-40s40,17.9,40,40C184,136.1,166.1,154,144,154z
	 M144,81.9c-17.7,0-32,14.3-32,32s14.3,32,32,32s32-14.3,32-32C176,96.3,161.7,82,144,81.9z"/>
</svg>
