<svg id="icon_art" data-name="icon art" xmlns="http://www.w3.org/2000/svg" viewBox="0 0 288 288">
  <defs>
    <style>
      .cls-1 {
        fill: #fcfbfa;
      }

      .cls-2 {
        fill: none;
        stroke: #fcfbfa;
        stroke-miterlimit: 10;
        stroke-width: 8px;
      }
    </style>
  </defs>
  <polygon class="cls-1" points="147 176.34 147 129 139 129 139 176.43 121.81 159.53 116.19 165.22 143 191.64 169.81 164.83 164.15 159.17 147 176.34"/>
  <path class="cls-1" d="M238.37,115.42a42,42,0,0,0-33.74-34.13,15.7,15.7,0,0,1-11-9A40.09,40.09,0,0,0,126.73,63a12.3,12.3,0,0,1-10.45,4.38,36.37,36.37,0,0,0-24.44,6.37A36,36,0,0,0,77.37,95.44,15.93,15.93,0,0,1,69,106.08a40.4,40.4,0,0,0-21.9,34.81L47,145H83.16a62,62,0,0,1,2.66-8H55.48a32.4,32.4,0,0,1,17.18-23.8,23.91,23.91,0,0,0,12.51-16,28.1,28.1,0,0,1,30.31-21.82,20.45,20.45,0,0,0,17.31-7.12,32.09,32.09,0,0,1,53.54,7.39,23.77,23.77,0,0,0,16.81,13.51A34,34,0,0,1,227.77,137H200.18a62,62,0,0,1,2.66,8h29.78l1.13-2.09A41.93,41.93,0,0,0,238.37,115.42Z"/>
  <circle class="cls-2" cx="143" cy="161" r="52"/>
</svg>
