<svg id="ART" xmlns="http://www.w3.org/2000/svg" viewBox="0 0 288 288"><defs><style>.cls-1{fill:#312d2a;}</style></defs><path class="cls-1" d="M243,180H231V170c0-14.89-11.88-27-26.49-27H198V133a26.9,26.9,0,0,0,8-19V75H171c-11.84,0-18.93,7.78-19,20.82h0v18.52a26.34,26.34,0,0,0,7.94,18.83V143h-7.45a25.76,25.76,0,0,0-11.92,2.94L130,104.9l-.07,0C127.33,96.84,120.08,91,111.54,91H100.41c-9.59,0-17.56,7.36-19.15,17L70.73,150.31l.8,1.39a33.59,33.59,0,0,0,5.79,7.61A25.84,25.84,0,0,0,55.48,180H45l-8,4v4H55v28h8V185c0-10.09,8.12-18,18.49-18h9.76a15.12,15.12,0,0,0,29.5,0h9.76c10.37,0,18.49,7.91,18.49,18v31h8V188h94v-4ZM171,83h26.74c-1.3,9-7.06,9-9.11,9H160.32C161.35,86.06,164.93,83,171,83Zm17.63,17A16.94,16.94,0,0,0,198,97.47v16.58a19.22,19.22,0,0,1-19,19,18.85,18.85,0,0,1-19-18.63V100ZM179,141A26.26,26.26,0,0,0,190,138.6v7.19l-11.09,11.76-10.94-11.62v-7.27A27.14,27.14,0,0,0,179,141Zm-50.67,18H121V146.79a26.52,26.52,0,0,0,8.45-12l4.19,16.31A27.62,27.62,0,0,0,128.36,159ZM89,125.62v-6.1a23.13,23.13,0,0,0,17-4.44,22.87,22.87,0,0,0,17,4.44v6.1c0,10.2-7.64,18.49-17,18.49S89,135.82,89,125.62ZM100.41,99h11.13c6.28,0,11.39,5.56,11.45,12.41-3.28.66-8.74.62-14.3-4.44L106,104.52,103.31,107c-5.58,5.08-11.07,5.1-14.35,4.44a12.67,12.67,0,0,1,.14-1.76l.69-2.79h0A11.52,11.52,0,0,1,100.41,99ZM82.7,135.33a26.54,26.54,0,0,0,8.3,11.5v11.41a20.3,20.3,0,0,1-11.72-9.17ZM106,170.79c-3.65,0-7-3-7-6.24V151.06a23.64,23.64,0,0,0,14,0v13.51C113,167.82,109.65,170.79,106,170.79ZM156.52,180A25.76,25.76,0,0,0,137,159.76a18.4,18.4,0,0,1,15.5-8.76h9.23l17.16,18.22L196.05,151h8.46c10,0,18.49,8.7,18.49,19v10Z"/></svg>