<?xml version="1.0" encoding="utf-8"?>
<!-- Generator: Adobe Illustrator 24.0.3, SVG Export Plug-In . SVG Version: 6.00 Build 0)  -->
<svg version="1.1" id="ART" xmlns="http://www.w3.org/2000/svg" xmlns:xlink="http://www.w3.org/1999/xlink" x="0px" y="0px"
	 viewBox="0 0 288 288" style="enable-background:new 0 0 288 288;" xml:space="preserve">
<style type="text/css">
	.st0{fill:#FCFBFA;}
</style>
<path class="st0" d="M94.9,98.4c0.9-4.4,3.1-8.5,6.4-11.6c-1.6-2.3-2.7-5-3.1-7.8c-6.5,5-10.7,12.5-11.6,20.6
	c2.1-0.8,4.4-1.3,6.6-1.3C93.9,98.4,94.4,98.4,94.9,98.4z M139.7,98.4c2.5,0,4.9,0.5,7.2,1.5c-0.9-8.6-5.4-16.4-12.4-21.5
	c-0.3,2.8-1.3,5.6-2.9,7.9c3.6,3.2,6,7.4,7,12.1C139,98.4,139.3,98.4,139.7,98.4z M128.2,131c-2.2-1.8-4-4.1-5.2-6.7
	c-4.3,1.2-8.8,1.2-13-0.2c-1.1,2.6-2.8,4.8-5,6.6C112.5,134,120.8,134.1,128.2,131L128.2,131z M139.7,129.5
	c7.1,0,12.8-5.7,12.8-12.8s-5.7-12.8-12.8-12.8s-12.8,5.7-12.8,12.8v0C126.9,123.8,132.6,129.5,139.7,129.5z M139.7,111.9
	c2.7,0,4.8,2.2,4.8,4.8s-2.2,4.8-4.8,4.8c-2.7,0-4.8-2.2-4.8-4.8c0,0,0,0,0,0C134.9,114,137,111.9,139.7,111.9z M116.3,89.1
	c7.1,0,12.8-5.7,12.8-12.8s-5.7-12.8-12.8-12.8c-7.1,0-12.8,5.7-12.8,12.8C103.5,83.4,109.2,89.1,116.3,89.1z M116.3,71.5
	c2.7,0,4.8,2.2,4.8,4.8c0,2.7-2.2,4.8-4.8,4.8c-2.7,0-4.8-2.2-4.8-4.8c0,0,0,0,0,0C111.5,73.7,113.6,71.5,116.3,71.5
	C116.3,71.5,116.3,71.5,116.3,71.5z M80.5,116.7c0,7.1,5.7,12.8,12.8,12.8s12.8-5.7,12.8-12.8s-5.7-12.8-12.8-12.8h0
	C86.2,103.9,80.5,109.6,80.5,116.7z M93.3,111.9c2.7,0,4.8,2.2,4.8,4.8c0,2.7-2.2,4.8-4.8,4.8c-2.7,0-4.8-2.2-4.8-4.8c0,0,0,0,0,0
	C88.5,114,90.7,111.9,93.3,111.9C93.3,111.9,93.3,111.9,93.3,111.9z M229.2,131.8l-1.8-23.6l-19.5,19.5l1.4,18.4l-4.9,4.9l0,0
	l-30.6,30.6c-4.7-1.6-9.8,0.9-11.4,5.7s0.9,9.8,5.7,11.4s9.8-0.9,11.4-5.7c0.6-1.9,0.6-3.9,0-5.7l30.6-30.6l0,0l4.9-4.9l18.4,1.4
	l19.5-19.5L229.2,131.8z M216.8,138.6l-0.6-7.9l4.6-4.6l0.6,7.9l-0.8,0.8L216.8,138.6z M230.3,144.8l-7.9-0.6l3.8-3.8l0.8-0.8
	l7.9,0.6L230.3,144.8z M118.6,155.1H74V51h85v77.2c2.6-0.5,5.3-0.8,8-1v-84H66V163h48C115.3,160.3,116.8,157.7,118.6,155.1z
	 M171,173c0.9,0,1.8,0.1,2.6,0.2l6.5-6.5c-12.9-5-27.4,1.3-32.4,14.1s1.3,27.4,14.1,32.4c12.9,5,27.4-1.3,32.4-14.1
	c2.3-5.9,2.3-12.4,0-18.3l-6.5,6.5c0.1,0.9,0.2,1.7,0.2,2.6c0,9.4-7.6,17-17,17s-17-7.6-17-17S161.6,173,171,173z M214.1,161
	l-2.1,2.2c14.8,22.7,8.5,53.1-14.2,67.9c-22.7,14.8-53.1,8.5-67.9-14.2c-14.8-22.7-8.5-53.1,14.2-67.9c16.3-10.7,37.4-10.7,53.8,0
	l2.2-2.2l3.6-3.6c-25.8-18-61.4-11.7-79.5,14.1s-11.7,61.4,14.1,79.5s61.4,11.7,79.5-14.1c13.7-19.6,13.7-45.7,0-65.3L214.1,161z
	 M189,157.9l3-3c-19.5-11.6-44.6-5.2-56.2,14.2s-5.2,44.6,14.2,56.2s44.6,5.2,56.2-14.2c7.7-13,7.7-29.1-0.1-42.1l-3,3l-2.8,2.8
	c8.4,16.2,2,36.1-14.1,44.5c-16.2,8.4-36.1,2-44.5-14.1c-8.4-16.2-2-36.1,14.1-44.5c9.5-4.9,20.8-4.9,30.3,0L189,157.9z"/>
</svg>
