<svg id="ART" xmlns="http://www.w3.org/2000/svg" viewBox="0 0 288 288"><defs><style>.cls-1{fill:#312d2a;}</style></defs><path class="cls-1" d="M231.68,157.28l-14.1-3V154h-1.22l-8.5-1.82-51.4-23.75A48.29,48.29,0,0,0,136.32,124H112.49a42.14,42.14,0,0,1-1.59,4.59l-.52.27.22.43c-.4.92-.82,1.83-1.29,2.71H112l11.55,22H57.42c.2-1.05.42-2,.65-2.83a40.58,40.58,0,0,1-7.22-3.69c-2.09,6.07-2.85,16.3-2.85,24.13v14.55A8.84,8.84,0,0,0,56.84,195H68.59a17,17,0,0,0,32.49,0h94.67a17,17,0,0,0,32.5,0H239a9,9,0,0,0,9-9v-8.54A20.73,20.73,0,0,0,231.68,157.28Zm-100-4.78-.11-.45L121.06,132h15.26a40.38,40.38,0,0,1,16.79,3.69L192.72,154H133.65A2,2,0,0,1,131.71,152.5ZM84.84,199a9,9,0,1,1,9-9A9,9,0,0,1,84.84,199ZM212,199a9,9,0,1,1,9-9A9,9,0,0,1,212,199Zm27-12H228.72a17,17,0,0,0-33.44,0H101.55a17,17,0,0,0-33.43,0H56.84a.85.85,0,0,1-.84-.84V181h7.67a23.12,23.12,0,0,1,5.69-8H56v-1.39c0-3.32.14-6.59.38-9.61H215.52L230,165.1a12.68,12.68,0,0,1,9.16,7.9H227.48a23.1,23.1,0,0,1,5.68,8H240v5A1,1,0,0,1,239,187ZM100.31,173h96.21a23.1,23.1,0,0,0-5.68,8H106A23.12,23.12,0,0,0,100.31,173ZM73,148a35,35,0,1,0-35-35A35,35,0,0,0,73,148Zm0-62a27,27,0,1,1-27,27A27,27,0,0,1,73,86Zm-2,31H60l6.37-9.37L77,92h3l-6.18,15L73,109H84l-3.84,6L68,134H65Z"/></svg>