<?xml version="1.0" encoding="utf-8"?>
<!-- Generator: Adobe Illustrator 24.0.3, SVG Export Plug-In . SVG Version: 6.00 Build 0)  -->
<svg version="1.1" id="ART" xmlns="http://www.w3.org/2000/svg" xmlns:xlink="http://www.w3.org/1999/xlink" x="0px" y="0px"
	 viewBox="0 0 288 288" style="enable-background:new 0 0 288 288;" xml:space="preserve">
<style type="text/css">
	.st0{fill:#FCFBFA;}
</style>
<path class="st0" d="M88,124.4V87h130v100h-67.3c1,2.6,1.7,5.3,2,8H226V79H80v52.9C81.9,128.7,84.6,126.1,88,124.4z M234,201h-87
	v-3.6c0.1-11.2-8.8-20.3-20-20.4h-9v-5.3c3.8-3.8,6-9,6-14.4V128H98c-9.2,0-15,6.1-15,16v14c0,5.3,2.2,10.3,6,14v5h-8.2
	c-11.3,0-20.8,9.4-20.8,20.5v3.5h-6l-8,4v4h196v-4L234,201z M97,176.7c2.1,0.7,4.4,1.1,6.6,1.1c2.2,0,4.3-0.4,6.4-1.1v2.8l-6.4,7.1
	l-6.6-7.2V176.7z M98,136h17.6c-0.6,2.5-3,4.2-5.6,4H91.6C93,136,96.5,136,98,136z M110,148c2.1,0,4.1-0.4,6-1.2v10.4
	c0,6.8-5.5,12.4-12.4,12.6c-7,0-12.6-5.3-12.6-11.8v-10H110z M68,197.4c0-6.7,6-12.5,12.8-12.5h10.4l12.5,13.5l12.2-13.4H127
	c6.7,0.1,12.1,5.7,12,12.4v3.6H68V197.4z M143.8,122.6l8.2-8.2l8.2,8.2l5.7-5.7l-8.2-8.2l8.2-8.2l-5.7-5.7l-8.2,8.2l-8.2-8.2
	l-5.7,5.7l8.2,8.2l-8.2,8.2L143.8,122.6z M205.2,140.9l-8.2,8.2l-8.2-8.2l-5.7,5.7l8.2,8.2l-8.2,8.2l5.7,5.7l8.2-8.2l8.2,8.2
	l5.7-5.7l-8.2-8.2l8.2-8.2L205.2,140.9z M152,170c8.4,0,15.2-6.8,15.2-15.2s-6.8-15.2-15.2-15.2s-15.2,6.8-15.2,15.2
	C136.8,163.2,143.6,170,152,170z M152,147.5c4,0,7.2,3.2,7.2,7.2S156,162,152,162s-7.2-3.2-7.2-7.2l0,0
	C144.8,150.7,148,147.5,152,147.5z M168.2,138.4l7.7,2.3c0.1-0.2,6.7-21.2,27.2-31.6V122h8V95h-27v8h13.4
	C175.4,115.2,168.5,137.4,168.2,138.4z"/>
</svg>
