<svg id="ART" xmlns="http://www.w3.org/2000/svg" viewBox="0 0 288 288"><defs><style>.cls-1{fill:#312d2a;}</style></defs><path class="cls-1" d="M219,154H176a8,8,0,0,0-8,8v43a8,8,0,0,0,8,8h43a8,8,0,0,0,8-8V162A8,8,0,0,0,219,154Zm-43,51V162h43v43Z"/><path class="cls-1" d="M149.48,148H158a4,4,0,0,0,4-4V132a4,4,0,0,0-.25-1.35A52.12,52.12,0,0,1,149.48,148Z"/><rect class="cls-1" x="168" y="128" width="20" height="20" rx="4"/><path class="cls-1" d="M116,162V170a4,4,0,0,0,4,4h12a4,4,0,0,0,4-4V158a3.86,3.86,0,0,0-.09-.84A51.48,51.48,0,0,1,116,162Z"/><rect class="cls-1" x="142" y="154" width="20" height="20" rx="4"/><rect class="cls-1" x="116" y="180" width="20" height="20" rx="4"/><rect class="cls-1" x="142" y="180" width="20" height="20" rx="4"/><path class="cls-1" d="M97.89,137h38.16v-4l-7.82-3.91c-1.12-5-3.19-15.25-3.19-23.14v-4H103v4c0,7.89-2.08,18.19-3.19,23.14L92,133v4Zm13-27h6.27A137.55,137.55,0,0,0,120,129h-12A137.55,137.55,0,0,0,110.9,110Z"/><path class="cls-1" d="M102,96h24a6,6,0,0,0,6-6V82h-8v6h-6V82h-8v6h-6V82H96v8A6,6,0,0,0,102,96Z"/><path class="cls-1" d="M114,157a47,47,0,0,0,40-71.72,144.34,144.34,0,0,1,45.8-10.15,12,12,0,1,0-.1-8A152.44,152.44,0,0,0,149,78.66a47,47,0,0,0-73,59c-11.13,16.82-17.59,34.67-18.83,52a12,12,0,1,0,8,.14c1.17-15.2,6.76-30.91,16.3-45.88A46.84,46.84,0,0,0,114,157Zm97-90a4,4,0,1,1-4,4A4,4,0,0,1,211,67Zm-97,4a39,39,0,1,1-39,39A39.05,39.05,0,0,1,114,71ZM61,205a4,4,0,1,1,4-4A4,4,0,0,1,61,205Z"/><polygon class="cls-1" points="193.11 186.45 187.51 180.85 181.85 186.51 193.11 197.76 213.15 177.72 207.49 172.07 193.11 186.45"/></svg>