<?xml version="1.0" encoding="utf-8"?>
<!-- Generator: Adobe Illustrator 24.0.3, SVG Export Plug-In . SVG Version: 6.00 Build 0)  -->
<svg version="1.1" id="ART" xmlns="http://www.w3.org/2000/svg" xmlns:xlink="http://www.w3.org/1999/xlink" x="0px" y="0px"
	 viewBox="0 0 288 288" style="enable-background:new 0 0 288 288;" xml:space="preserve">
<style type="text/css">
	.st0{fill:#312D2A;}
</style>
<path class="st0" d="M166,94V79.1h21.3c0.4,0,0.7,0.3,0.7,0.7l0,0l0,0c0.3,4.6,4.1,8.2,8.7,8.2h30.7l-9.1-14.8l8.9-15.2H196v-0.1
	c0.2-4.7-3.5-8.7-8.2-8.9c-0.1,0-0.1,0-0.2,0H158v45H72V79.1h21.3c0.4,0,0.7,0.3,0.7,0.7l0,0c0.3,4.6,4.1,8.2,8.7,8.2h30.7
	l-9.1-14.8l8.9-15.2H102v-0.1c0.2-4.7-3.5-8.7-8.2-8.9c-0.1,0-0.1,0-0.2,0H64v45H41v36h8v-28h190v28h8V94H166z M213.2,66l-4.3,7.3
	L213,80h-16.3c-0.4,0-0.7-0.3-0.7-0.7l0,0V66H213.2z M187.6,57c0.2,0,0.4,0.4,0.4,0.9v13.3c-0.2,0-0.5,0-0.7,0H166V57H187.6z
	 M119.2,66l-4.3,7.3L119,80h-16.3c-0.4,0-0.7-0.3-0.7-0.7V66H119.2z M93.6,57c0.2,0,0.4,0.4,0.4,0.9v13.3c-0.2,0-0.5,0-0.7,0H72V57
	H93.6z M41,239h8v-8l-8,4V239z M239,231h-6V108H55v123h-6v8h198v-4L239,231z M225,158h-21v-20h21V158z M140,138v20H92v-20H140z
	 M148,138h48v20h-48V138z M63,116h162v14H63V116z M63,138h21v20H63V138z M63,166h162v65h-13v-13.3c0-9.4-7.6-17-17-17s-17,7.6-17,17
	V231h-8v-30c0-14.4-11.6-26-26-26s-26,11.6-26,26v30h-9v-13.3c0-9.4-7.6-17-17-17s-17,7.6-17,17V231H63V166z M204,231h-18v-13.3
	c0-5,4-9,9-9s9,4,9,9V231z M162,231h-36v-30c0-9.9,8.1-18,18-18s18,8.1,18,18V231z M101,231H83v-13.3c0-5,4-9,9-9s9,4,9,9V231z"/>
</svg>
