<svg id="ART" xmlns="http://www.w3.org/2000/svg" viewBox="0 0 288 288"><defs><style>.cls-1{fill:#312d2a;}</style></defs><path class="cls-1" d="M211,207V73L147,87.82V207h-6V116.82L77,102V207l-8,4v4H219v-4Zm-106,0V193h8v14Zm16,0V185H97v22H85V112l48,11.14V207Zm54,0V193h8v14Zm16,0V185H167v22H155V94.18L203,83V207ZM161,101h8v8h-8Zm14,0h8v8h-8Zm-14,14h8v8h-8Zm14,0h8v8h-8Zm-14,14h8v8h-8Zm14,0h8v8h-8Zm-14,14h8v8h-8Zm14,0h8v8h-8Zm-14,14h8v8h-8Zm14,0h8v8h-8Zm-14,14h8v8h-8Zm14,0h8v8h-8Zm14-70h8v8h-8Zm0,14h8v8h-8Zm0,14h8v8h-8Zm0,14h8v8h-8Zm0,14h8v8h-8Zm0,14h8v8h-8ZM91,129h36v8H91Zm0,14h36v8H91Zm0,14h36v8H91Zm0,14h36v8H91Z"/></svg>