<svg id="ART" xmlns="http://www.w3.org/2000/svg" viewBox="0 0 288 288"><defs><style>.cls-1{fill:#fcfbfa;}</style></defs><path class="cls-1" d="M245,197V95.8L192,83.9l-48,11-47.48-11L43,95.79V197l-8,4v4H253v-4ZM73,197v-6h44v6Zm44-28H73v-6h44Zm-44,8h44v6H73Zm67,20V183h8v14Zm31,0v-6h44v6Zm44-28H171v-6h44Zm-44,8h44v6H171Zm-8-22v42h-7V175H132v22h-7V155H65v42H51V102.21L96.48,92.1l47.52,11,48-11,45,10.1V197H223V155ZM65,139h60V117H65Zm8-14h44v6H73Zm58,14h26V117H131Zm8-14h10v6H139Zm84-8H163v22h60Zm-8,14H171v-6h44Z"/></svg>