<svg id="icon_art" data-name="icon art" xmlns="http://www.w3.org/2000/svg" viewBox="0 0 288 288"><defs><style>.cls-1{fill:#312d2a;}</style></defs><title>RMIL_Technology</title><path class="cls-1" d="M224,54H88a9,9,0,0,0-9,9V98h8V76h45V98h8V76h85v99a1,1,0,0,1-1,1h-6v8h6a9,9,0,0,0,9-9V63A9,9,0,0,0,224,54ZM87,68V63a1,1,0,0,1,1-1H224a1,1,0,0,1,1,1v5Zm116,36H67a9,9,0,0,0-9,9V225a9,9,0,0,0,9,9H203a9,9,0,0,0,9-9V113A9,9,0,0,0,203,104ZM67,112H203a1,1,0,0,1,1,1v5H66v-5A1,1,0,0,1,67,112ZM66,225V126h44V226H67A1,1,0,0,1,66,225Zm137,1H118V126h86v99A1,1,0,0,1,203,226Zm-98-92v8H73v-8ZM86,148h18v8H86Zm0,14h18v8H86ZM72,182h32v8H72Zm14,14h18v8H86Zm0,14h18v8H86Zm60.34-43.85L136.52,176l9.82,9.82-5.65,5.66L125.21,176l15.48-15.48Zm33.44-5.65L195.26,176l-15.48,15.48-5.66-5.66L184,176l-9.83-9.83ZM161.87,159h8.47l-11.86,34H150Z"/></svg>