<svg id="ART" xmlns="http://www.w3.org/2000/svg" viewBox="0 0 288 288"><defs><style>.cls-1{fill:#312d2a;}</style></defs><path class="cls-1" d="M217,155h-8v-8h8Zm-14-8h-8v8h8Zm-14,0h-8v8h8ZM93,187a5,5,0,1,0,5,5A5,5,0,0,0,93,187Zm-16,0a5,5,0,1,0,5,5A5,5,0,0,0,77,187Zm166.06,22.29,5.92,5.37A18,18,0,0,1,235.8,220a18.84,18.84,0,0,1-10.2-2.9,19.39,19.39,0,0,1-20.4,0,19.39,19.39,0,0,1-20.4,0,19.39,19.39,0,0,1-20.4,0,19.39,19.39,0,0,1-20.4,0,19.39,19.39,0,0,1-20.4,0,19.39,19.39,0,0,1-20.4,0,19.39,19.39,0,0,1-20.4,0,19.39,19.39,0,0,1-20.4,0A18.84,18.84,0,0,1,52.2,220,18,18,0,0,1,39,214.66l6-5.32A10.43,10.43,0,0,0,52.2,212a10.61,10.61,0,0,0,6.9-2.38l-2.69-11.43L49,191.84V173h88.54L90,123.76v17.08A13.47,13.47,0,0,1,85.45,167C78,167,72,160.43,72,153h8c0,3,2.46,6,5.49,6a5.49,5.49,0,0,0,0-11v0H82V115h.2L143,62h16v4l-8,4h0V82h8v4l-8,4h0l0,12h8v4l-8,4h0v63h8V151.67L173,133h13V119h14V105h8v14h13v14h10v28h18.82l-19.09,49.82A11.17,11.17,0,0,0,235.8,212,10.36,10.36,0,0,0,243.06,209.29ZM194,133h19v-6H194Zm-27,40h4.13l10-12H223V141H177l-10,13.33ZM94.43,115H143V73ZM143,167.1V123H100.38Zm95.18,1.9H184.87l-10,12H57v7.16l6.59,5.65,4,17.05a11.07,11.07,0,0,0,5,1.14,10.3,10.3,0,0,0,7.25-2.71l3-3.34,2.94,3.39A10.43,10.43,0,0,0,93,212a10.3,10.3,0,0,0,7.25-2.71l3-3.34,2.94,3.39a11.13,11.13,0,0,0,14.44,0l3-3.35,3,3.35a11.1,11.1,0,0,0,14.48-.05l3-3.34,2.94,3.39a11.13,11.13,0,0,0,14.44,0l3-3.35,3,3.35A10.43,10.43,0,0,0,174.6,212a10.3,10.3,0,0,0,7.25-2.71l3-3.34,2.94,3.39A10.43,10.43,0,0,0,195,212a10.3,10.3,0,0,0,7.25-2.71l3-3.34,2.94,3.39A10.43,10.43,0,0,0,215.4,212a10.3,10.3,0,0,0,7.25-2.71l.18-.19Z"/></svg>