<svg id="ART" xmlns="http://www.w3.org/2000/svg" viewBox="0 0 288 288"><defs><style>.cls-1{fill:#312d2a;}</style></defs><path class="cls-1" d="M104,48.11H96v-12h8Zm26,34h12v-8H130Zm-72,0H70v-8H58ZM73.13,45.58l-5.66,5.66L76,59.72l5.66-5.65Zm59.4,5.66-5.66-5.66-8.49,8.49L124,59.72ZM84,108.11v-4c0-3.69-1.35-6.1-3.06-9.14C78.74,91.05,76,86.17,76,77.84,76,65,87.13,54.11,100.3,54.11A23.76,23.76,0,0,1,124,77.84c0,8.34-2.75,13.22-5,17.14-1.72,3-3.07,5.44-3.07,9.13v13l-16,8.41-16-8.41Zm0-30.27c0,6.24,1.9,9.63,3.92,13.22a28.89,28.89,0,0,1,3.71,9H96v-13h8v13h4.37a28.82,28.82,0,0,1,3.73-9.06c2-3.59,3.93-7,3.93-13.21A15.77,15.77,0,0,0,100.3,62.11,16.24,16.24,0,0,0,84,77.84Zm8,30.27v4.17l8,4.2,8-4.2v-4.17Zm143,108V240h-8V216.1a30.22,30.22,0,0,0-30.18-30.18l-15,.07L162,206.81,142.24,186l-15.08-.08A30.21,30.21,0,0,0,97,216.1V240H89V216.1A38.15,38.15,0,0,1,127.18,178H139V162.75a32.38,32.38,0,0,1-10-23.4V116h0c0-15.64,8.6-25,23-25h43v4h0v43.93a33.08,33.08,0,0,1-10,23.5V178H196.8A38.16,38.16,0,0,1,235,216.1ZM137.24,112H174c2.94,0,11.38,0,12.8-13H152C143.3,99,138.35,103.37,137.24,112ZM162,164a25.41,25.41,0,0,0,25.08-25.07l-.06-23.12A20.3,20.3,0,0,1,174,120H137l-.1,19.37C136.88,153,148.17,164,162,164Zm15,15.39V168.27A32.08,32.08,0,0,1,162,172a33.14,33.14,0,0,1-15-3.59v11l15,15.79Z"/></svg>