<svg id="ART" xmlns="http://www.w3.org/2000/svg" viewBox="0 0 288 288"><defs><style>.cls-1{fill:#312d2a;}</style></defs><path class="cls-1" d="M127,62v99h99V62Zm91,8v47L194.13,102.1,135,145.54V70Zm-79.65,83,56.15-41.24L218,126.44V153Zm11.14-56.73a12.19,12.19,0,1,1,12.19,12.18A12.19,12.19,0,0,1,149.49,96.27ZM152,178.16l-8.4-7.2a4,4,0,0,0-6,.9l-6.05,9.58L123,174.3l-7.68-11.52c-.08-.12-.17-.23-.26-.34l-15-18a4,4,0,0,0-5.9-.27l-8,8a3.8,3.8,0,0,0-.33.37l-6.33,8.15-8.81,3.52-1.7.49V137h52v-8H61v98h99V167h-8Zm-10.09,1.89L152,188.7v7.64l-2.74,2.74-4.67-5.56A4,4,0,0,0,139,193l-5.24,4.19-1.67-1.68c.09-.11.19-.21.27-.33ZM96.73,152.93l8.5,10.19-3.9,3.89-1.21-1.51a4,4,0,0,0-1.14-1l-5.51-3.16-1-4.14ZM73.1,171.85l.39-.14,10-4a4,4,0,0,0,1.67-1.25l1-1.32A4,4,0,0,0,88,167.47l6.33,3.62,3.53,4.41a4,4,0,0,0,2.9,1.49H101a4,4,0,0,0,2.83-1.17l6.35-6.35,6.49,9.74a3.66,3.66,0,0,0,.77.85l9.82,8.19-1.15,1.83-15.23,9.52a3.67,3.67,0,0,0-.83.69L107.61,203,96.83,192.17a3.93,3.93,0,0,0-1.57-1l-7.85-2.62-6.25-8.05A4,4,0,0,0,79,179.12l-10-2.49V173Zm-4.1,13,6.69,1.68,6.15,7.91a4,4,0,0,0,1.9,1.33l8.1,2.71,10.36,10.36-2.73,3L86.94,219H69ZM103.06,219l.92-.53a3.79,3.79,0,0,0,1-.77l10.63-11.6,9.76-6.1,5.3,5.34a4,4,0,0,0,5.34.3l5-4,5,5.92a4,4,0,0,0,2.89,1.43H149a4,4,0,0,0,2.83-1.17l.17-.17V219Z"/></svg>