<svg id="icon_art" data-name="icon art" xmlns="http://www.w3.org/2000/svg" viewBox="0 0 288 288"><defs><style>.cls-1{fill:#fcfbfa;}</style></defs><title>RMIL_Technology</title><path class="cls-1" d="M144,103c4.71,0,46-.4,46-14V69h0v0c0-10-22.31-12.88-36-13.7v8c15.46.9,24.82,3.77,27.49,5.73-3.21,2.35-16,6-37.49,6s-34.28-3.67-37.49-6c3-2.2,14.42-5.56,33.49-6v7h8V29h-8V55c-11.61.32-42,2.27-42,14v0h0V88.94C98,102.56,139.29,103,144,103Zm38-25.37v10.9c-2.08,2.3-15.12,6.47-38,6.47s-35.92-4.17-38-6.47V77.59C118.25,82.8,140.61,83,144,83S169.75,82.8,182,77.59ZM166,111h-4v21h-8v8h8v19h4c4.71,0,46-.39,46-14v-19.5h0c0-.15,0-.29,0-.44C212,111.37,170.71,111,166,111Zm4,8c19.08.42,30.5,3.79,33.5,6-3,2.2-14.42,5.57-33.5,6Zm0,31.92V139c7.82-.21,24.17-1.17,34-5.35v10.88C202.05,146.67,190.41,150.49,170,150.94Zm-16,13.34v8c15.46.9,24.82,3.77,27.49,5.73-3.21,2.35-16,6-37.49,6s-34.28-3.67-37.49-6c3-2.2,14.42-5.56,33.49-6v7h8V111h-8v21H126V112h-4c-4.62,0-44.4.38-45.95,13.25h0V146c0,13.64,41.29,14,46,14h4V140h14v24c-11.61.32-42,2.27-42,14v0h0v19.94c0,13.62,41.29,14,46,14s46-.4,46-14V178h0v0C190,168,167.69,165.1,154,164.28Zm-36-44.22v12c-19.08-.42-30.5-3.79-33.5-6C87.5,123.85,98.92,120.48,118,120.06ZM84,145.55V134.67c9.83,4.18,26.18,5.14,34,5.35v12C97.59,151.53,86,147.71,84,145.55ZM144,204c-22.88,0-35.92-4.17-38-6.47v-10.9c12.25,5.21,34.61,5.41,38,5.41s25.75-.2,38-5.41v10.9C179.92,199.79,166.88,204,144,204ZM39.23,132H70v8H39.23l12,11.06-5.43,5.88L23.1,136l22.69-20.94,5.43,5.88Zm225.67,4-22.69,20.94-5.43-5.88,12-11.06H218v-8h30.77l-12-11.06,5.43-5.88ZM159.06,236.78l5.88,5.43L144,264.9l-20.94-22.69,5.88-5.43,11.06,12V218h8v30.77Z"/></svg>