<?xml version="1.0" encoding="utf-8"?>
<!-- Generator: Adobe Illustrator 27.1.0, SVG Export Plug-In . SVG Version: 6.00 Build 0)  -->
<svg version="1.1" id="ART" xmlns="http://www.w3.org/2000/svg" xmlns:xlink="http://www.w3.org/1999/xlink" x="0px" y="0px"
	 viewBox="0 0 288 288" style="enable-background:new 0 0 288 288;" xml:space="preserve">
<style type="text/css">
	.st0{fill:#312D2A;}
</style>
<path class="st0" d="M231.2,229.4h-25.4v-1.9c0-6.8-1.8-13.5-3.4-19.5c-1.2-4.5-2.3-8.7-2.5-12.2c3.9-0.4,7.1-1.3,9.6-2.4v29.9h8
	v-37c0-0.1,0-0.2,0-0.3s0-0.1,0-0.2l-1.2-8.9c0-0.1,0-0.2,0-0.2c-1.4-6.8-7.2-12-14.1-12.6l-21.8-1.8c3.5-10,4.8-18.9,4.8-19.3
	c0-0.2,0-0.4,0-0.6v-14.7c0-9.3-14.5-19.1-20.6-22.8c0.1-3.3,0.4-10.2,2.8-17c0.5-1.4,0.1-3-0.9-4.1c0,0-4.1-4.1-5.9-5.9
	c-4.9-4.9-12.3-7.4-19.5-7c-0.4-0.4-0.7-0.7-1-1.1c-13.3-13.3-28.4-21.1-43.6-22.4c-2.2-0.2-4.2,1.4-4.3,3.6s1.4,4.2,3.6,4.3
	c31.6,2.9,53.9,36.2,61.3,53.4c0,0,0,0,0,0.1v0.1c0,0.1,0.1,0.1,0.1,0.1c0.1,0.1,0.1,0.3,0.2,0.4l0.1,0.1l0.1,0.1
	c0.1,0.1,0.2,0.2,0.3,0.3l0.1,0.1c0,0,0,0,0.1,0.1l0,0c0.2,0.2,0.4,0.3,0.6,0.4c0,0,0,0,0.1,0.1c1.3,0.7,2.6,1.5,3.9,2.4l0,0
	c0,4.3-3.5,7.7-7.7,7.7c-1.8,0-3.4-0.6-4.8-1.7c0-0.1,0-0.1,0-0.2c0-0.7-0.2-16.2-15.4-37.5c-13.1-18.3-31.1-22-31.8-22.2
	c-2.2-0.4-4.2,1-4.7,3.2c-0.4,2.2,1,4.3,3.1,4.7c0.1,0,12.3,2.6,22.8,13.9c-2.6,4.6-3.4,10-2,15.5c1,4.3,3.3,8.2,6.6,11.4
	c3.8,3.7,8.8,5.6,12.8,6.1c0.7,3.1,0.7,4.9,0.7,4.9c0,7.6,4,13.1,7.3,17.5c2.4,3.3,4.5,6.1,4.5,8.9c0,0.3,0,0.5,0.1,0.8
	c0,0.5,0,1.5,0,2.6l-3.7,1.9c-3.1,1.6-17.9,9.4-19.7,19.3c-3.4,3.2-14.7,13.4-23.6,15.6c-4.4,1.1-7.9,1.8-11,2.4
	c-5.1,1-9.2,1.8-13.3,3.8c-2.7,1.4-7.1,4.6-12.7,8.6c-7.1,5.2-16,11.6-22.6,14.9c-1,0.5-1.7,1.4-2,2.5s-0.2,2.2,0.4,3.2l8.8,14.7
	c0.7,1.2,2,1.9,3.4,1.9h14.7c2.2,0,4-1.8,4-4s-1.8-4-4-4H60.3l-5.5-9.2c6.4-3.7,13.8-9.1,19.9-13.5c4.8-3.5,9.4-6.8,11.5-7.9
	c3.1-1.6,6.4-2.2,11.2-3.1c1.2-0.2,2.5-0.5,4-0.8l1.8,8.8c-19.5,3.8-37.5,14-38.3,14.5c-0.1,0-0.1,0.1-0.1,0.1l-3,1.9l4.1,6.9l3-1.9
	c1.3-0.7,20.5-11.4,39.4-14.1h5.6c0.2,0,0.4,0,0.7-0.1c3.7-0.6,34.8-6.2,43.2-21c7.9-2,14.5-8.7,19.7-19.9l24.2,2
	c3.4,0.3,6.2,2.8,6.9,6.1l0.9,6.5c-1.6,1-4.4,2.4-8.6,3.1c0.3-1.9,0.6-3.2,0.6-3.3c0.3-1.2,0-2.5-0.7-3.4s-1.9-1.5-3.1-1.5
	c-4.6,0-7.5,0.7-10.3,1.4c-2.6,0.7-5.3,1.3-10.1,1.5c-2.2,3.1-4.5,5.6-7,7.7c2.8,0.4,4.9,0.3,5.4,0.3c6.8,0,10.5-0.9,13.7-1.8
	c1.2-0.3,2.3-0.6,3.4-0.8c-0.3,2.1-0.6,4.7-0.6,7.3c0,4.6,1.3,9.6,2.8,14.9c1.5,5.7,3.1,11.6,3.1,17.4v5.9c0,2.2,1.8,4,4,4h29.4
	c2.2,0,4-1.8,4-4S233.5,229.4,231.2,229.4L231.2,229.4z M155,83.6c1.1,1,2.8,2.8,4.1,4.1c-0.5,1.8-0.9,3.5-1.2,5.2
	c-2.4-4-5.3-8.4-8.9-13C151.3,80.8,153.4,82,155,83.6L155,83.6z M134.2,102.2c-2.2-2.2-3.7-4.8-4.4-7.6c-0.5-2.2-0.5-4.3-0.1-6.3
	c4.3,6.4,7.1,12.1,8.9,16.8C137.1,104.4,135.4,103.5,134.2,102.2L134.2,102.2z M154.3,182.5h-0.1c-0.1,0-0.3,0.1-0.4,0.1
	c-0.1,0-0.2,0.1-0.3,0.1c-0.1,0.1-0.2,0.1-0.4,0.2c-0.1,0.1-0.2,0.1-0.3,0.2c-0.1,0.1-0.2,0.1-0.3,0.2c-0.1,0.1-0.2,0.1-0.3,0.2
	c-0.1,0.1-0.2,0.2-0.3,0.3s-0.2,0.2-0.2,0.3c-0.1,0.1-0.1,0.2-0.2,0.3c-0.1,0.1-0.1,0.2-0.2,0.4c0,0,0,0.1-0.1,0.1
	c-3.6,9.1-24.9,15.8-37.7,18h-2.3l-2-9.8c12.6-3.4,27.3-17.9,27.9-18.6c0.8-0.8,1.2-1.8,1.2-2.8c0-4.3,9.2-10.9,15.4-14l5.9-2.9
	c1.3-0.7,2.2-2,2.2-3.5c0,0,0-1.5,0.1-3c0-1.1,0-2.2-0.1-3.1c0-5.4-3.1-9.5-6-13.5c-0.7-1-1.5-2-2.1-3c0.4,0,0.8,0.1,1.2,0.1
	c6.9,0,12.7-4.4,14.9-10.6c4.4,3.7,7.6,7.3,7.6,9.5v14.4C175.7,152.9,168.6,180.4,154.3,182.5L154.3,182.5z"/>
</svg>
