<?xml version="1.0" encoding="UTF-8"?>
<svg id="ART" xmlns="http://www.w3.org/2000/svg" version="1.1" viewBox="0 0 288 288">
  <!-- Generator: Adobe Illustrator 29.5.0, SVG Export Plug-In . SVG Version: 2.1.0 Build 137)  -->
  <defs>
    <style>
      .st0 {
        fill: #312d2a;
      }
    </style>
  </defs>
  <path class="st0" d="M97.2,105.3v-61.1c0,0,0-.1,0-.2,0,0,0-.2,0-.2,0-11.7-32.1-12.3-38.5-12.3s-38.5.6-38.5,12.3,0,.2,0,.2c0,0,0,.1,0,.2v61.1c0,11.8,32.1,12.4,38.5,12.4s38.5-.6,38.5-12.4ZM44.7,40.2c4-.5,8.7-.7,14-.7s10,.3,14,.7c7.8.9,13.1,2.4,15.5,3.6-3.6,1.8-13.8,4.3-29.4,4.3s-25.8-2.5-29.4-4.3c2.4-1.2,7.7-2.7,15.5-3.6ZM28.2,51.9c9.9,3.8,26.1,4.1,30.5,4.1s20.6-.3,30.5-4.1v12c-1.2,1-4.8,2.4-10.7,3.4-5,.9-11.7,1.6-19.8,1.6s-14.8-.7-19.8-1.6c-5.9-1.1-9.5-2.4-10.7-3.4v-12ZM28.2,72.8c9.9,3.9,26.1,4.1,30.5,4.1s20.6-.3,30.5-4.1v11.3c-1.5,1.3-7,3.2-16,4.2-4.1.5-8.9.8-14.5.8s-10.4-.3-14.5-.8c-9.1-1.1-14.5-3-16-4.2v-11.3ZM28.2,93c9.9,3.9,26.1,4.1,30.5,4.1s20.6-.3,30.5-4.1v11.6c-2.1,1.8-12.8,5-30.5,5s-28.4-3.2-30.5-5v-11.6Z"/>
  <path class="st0" d="M43.7,248.6h59.3v-51.4h-59.3v51.4ZM51.7,205.2h43.3v35.4h-43.3v-35.4Z"/>
  <path class="st0" d="M64.8,212.1l-8.1,21.8h6.4l1.1-3.8h6.8l1.1,3.8h6.7l-8.1-21.8h-5.9ZM65.5,225.5l2-7.2,2.1,7.2h-4.1Z"/>
  <rect class="st0" x="80.8" y="212.1" width="6" height="21.8"/>
  <path class="st0" d="M118.5,179c0,.8.6,1.4,1,2l10,15v42c0,.8.1,1.2.6,1.9,0,0,3.4,7.1,9.4,7.1s11-3,11-3c0,0,2-1.4,2-3v-7l6-4c1.2-.7,2-2.6,2-4v-10l18.4-9.9c.9-.5,1.5-1.2,1.8-2.2,0,0,5.7-15.4,5.7-15.9v-18c0-1.3-1-2.2-2.1-3l-9.3-6.2c-.7-.4-1.8-.8-2.6-.8h-7l-7.4-1.6-9.6-8.6c-.8-.8-1.9-1.1-3.1-1l-19,1.9-8-7.2c-.7-.6-1.7-1-2.7-1h-5l-2.1-11.9,1.1-.8h6.3l2.1,5.7c.5,1.3,1.6,2.3,3,2.5l11.4,2.1c1.4.2,2.8-.2,3.7-1.2.9-1,1.3-2.5.9-3.8l-3.9-13.7.6-3.6,7.9-5.3c1-.7,1.6-1.7,1.8-2.9l.8-7,12.4-5.3c1.4-.6,2.6-1.7,2.7-3.2v-13c.1-1.6-.6-3.2-2-4l-8.7-4.7c-1.2-.6-2.6-.7-3.7,0l-6,3-9.1,3c-1.4.5-2.5,1.7-2.7,3.2l-.5,3.8h-1.5l-.5-2.9c-.3-1.8-1.7-3.1-3.5-3.3l-5.8-.6v-1.1l7.6-8.4,11.1,3.4c1.7.5,3.5-.1,4.5-1.6l4.2-6.2c1.1-1.6.9-3.7-.5-5.1l-7.3-7.3c-.6-.6-1.4-1-2.3-1.1l-14.6-1.9-9.5-6.7c3.8-1.4,7.7-2.5,11.6-3.5l1,3.5c.4,1.5,1.7,2.7,3.3,2.9l15.6,2.1c.2,0,.4,0,.5,0,1.7,0,3.2-1.1,3.8-2.7,1.4-4.1,2.3-6.8,3-8.7,3,0,6,.2,8.9.5v12.4c0,1.3,0,2,1.3,2.9l2.8,2.1,1.9,13.9c.3,2,2,3.1,4,3.1h6.1v14c0,2.2,1.8,4,4,4h8c1.1,0,1.7-.4,2.5-1.2l26.6-27.5c7.2,5.9,13.6,12.6,19.1,20.1,2.7,0,6.3.2,10.2.6-20.7-31.9-56.6-53-97.4-53s-30.7,3.2-44.4,8.9c1.4,2,2.1,4.3,2.1,6.9v4.5l11.3,8c.5.4,1.1.6,1.8.7l14.2,1.9,4,4-.7,1-10.6-3.3c-1.5-.5-3.1,0-4.1,1.1l-10.4,11.4c-.7.7-1,1.7-1,2.7v6.2c0,2,1.5,3.8,3.6,4l6.3.7.5,3.2c.3,1.9,1.5,3,3.5,3h9c2,0,3.4-1.1,3.7-3.1l.7-4.8,7-2.3c.2,0,.4-.1.5-.2l4.4-2.2,4.7,2.7v8l-12.4,5c-1.3.6-2.2,1.8-2.4,3.2l-.8,7.5-7.8,5.2c-.9.6-1.5,1.6-1.7,2.7l-1,6.2c-.1.6,0,1.2,0,1.8l2.4,8.4-2.9-.5-2.3-6.2c-.6-1.6-2.1-2.6-3.8-2.6h-10.4c-.9,0-1.7.3-2.4.8l-4.2,3.1c-1.2.9-1.8,2.4-1.5,3.9l3.1,17.7c.3,1.9,2,3.3,3.9,3.3h6.8l8.2,7.3c.8.7,1.9,1.1,3.1,1l19-1.9,9.1,8.2c.5.5,1.1.8,1.8.9l8.1,2.1h8l7,4v15l-4.8,12.8-19.2,10.2c-1.3.7-2,2.5-2,4v10l-6.7,4.3c-1.2.7-1.3,2.4-1.3,3.7v6s-2,1-4,1-3-2-3-2v-42c0-.8-.6-1.4-1-2l-10-15v-12c0-1.8-1.3-3.5-3-4l-13.1-3.6-21.2-18.3-.8-3.9c0-.5-.3-1-.6-1.4l-4.2-6.2c-.7-1-1.7-1.6-2.9-1.8-1.2-.1-2.4.3-3.2,1.2l-2.3,2.3-3.7-7.3c-3.3.3-6.3.4-8.7.5l7.7,15.3c.6,1.2,1.7,2,2.9,2.2s2.6-.2,3.5-1.1l2.8-2.8,1,1.5.9,4.4c.2.9.6,1.7,1.3,2.2l22.9,19.7c.4.4,1,.7,1.5.8l11.2,3.1v10ZM164.5,37.7c15.6,2.8,30.1,9,42.7,17.7l-24.8,25.6h-1.9v-13.7c0-2.2-1.8-4.4-4-4.4h-6.9l-1.3-11.8c-.1-1.1-.7-2-1.6-2.7l-2.3-1.6v-9.3ZM139.1,36.2c-.3.9-.6,1.9-1,2.9l-9.7-1.3v-.4c3.4-.6,7.1-1,10.7-1.2Z"/>
  <path class="st0" d="M248.2,177.3c-14.1,43.3-54.8,74.7-102.7,74.7h0c-12.8,0-25-2.3-36.4-6.4v8.5c11.4,3.8,23.7,5.8,36.4,5.8,53,0,97.8-35.7,111.6-84.4-1.6.4-3.3.8-5.1,1.1-1.3.2-2.6.4-3.8.6Z"/>
  <path class="st0" d="M37.5,144c0-7.4.8-14.6,2.2-21.6-1.3-.2-2.5-.4-3.8-.6-1.4-.3-2.8-.6-4.1-.9-1.5,7.5-2.3,15.2-2.3,23.1,0,16.8,3.6,32.7,10,47.2h8.8c-7-14.3-10.9-30.3-10.9-47.2Z"/>
  <path class="st0" d="M267.8,98.7c0-11.7-32.1-12.3-38.5-12.3s-38.5.6-38.5,12.3,0,.2,0,.2c0,0,0,.1,0,.2v61.1c0,11.8,32.1,12.4,38.5,12.4s38.5-.6,38.5-12.4v-61.1c0,0,0-.1,0-.2,0,0,0-.2,0-.2ZM215.3,95.1c4-.5,8.7-.7,14-.7s10,.3,14,.7c7.8.9,13.1,2.4,15.5,3.6-3.6,1.8-13.8,4.3-29.4,4.3s-25.8-2.5-29.4-4.3c2.4-1.2,7.7-2.7,15.5-3.6ZM259.8,159.6c-2.1,1.8-12.8,5-30.5,5s-28.4-3.2-30.5-5v-11.6c9.9,3.9,26.1,4.1,30.5,4.1s20.6-.3,30.5-4.1v11.6ZM259.8,139.1c-1.5,1.3-7,3.2-16,4.2-4.1.5-8.9.8-14.5.8s-10.4-.3-14.5-.8c-9.1-1.1-14.5-3-16-4.2v-11.3c9.9,3.9,26.1,4.1,30.5,4.1s20.6-.3,30.5-4.1v11.3ZM259.8,118.9c-1.2,1-4.8,2.4-10.7,3.4-5,.9-11.7,1.6-19.8,1.6s-14.8-.7-19.8-1.6c-5.9-1.1-9.5-2.4-10.7-3.4v-12c9.9,3.8,26.1,4.1,30.5,4.1s20.6-.3,30.5-4.1v12Z"/>
</svg>