<svg id="ART" xmlns="http://www.w3.org/2000/svg" viewBox="0 0 288 288"><defs><style>.cls-1{fill:#312d2a;}</style></defs><path class="cls-1" d="M235.07,187.49c-16.71-16.71-35.18-16.18-53.28-14.25,1.93-18.1,2.46-36.57-14.25-53.28s-35.17-16.18-53.28-14.25c1.93-18.1,2.46-36.57-14.25-53.28l-4.24-4.24-5.66,5.65,4.25,4.25c14.63,14.63,13.69,31.1,11.76,48.53-4,.44-7.92.83-11.79,1l6.31-6.31a102.15,102.15,0,0,0,.57-11.88L83.33,107.3A43.38,43.38,0,0,1,70,103.66L98.61,75a34,34,0,0,0-4-7.35L62.9,99.44a47.8,47.8,0,0,1-5.31-4.58l-4.25-4.25-5.65,5.66,4.24,4.24c16.71,16.71,35.18,16.18,53.28,14.25-1.93,18.1-2.46,36.57,14.25,53.28s35.17,16.18,53.28,14.25c-1.93,18.1-2.46,36.57,14.25,53.28l4.24,4.24,5.66-5.65-4.25-4.25a49.54,49.54,0,0,1-3.35-3.72l32.14-32.14a35.29,35.29,0,0,0-7-4.32L184.77,219.4a41.26,41.26,0,0,1-4.22-12.74l20.24-20.25a79.41,79.41,0,0,0-11.49.18l-9.49,9.49c.05-4.81.52-9.71,1.07-14.7,17.43-1.93,33.9-2.87,48.53,11.76l4.25,4.25,5.65-5.66ZM125.12,162.38c-14.64-14.63-13.7-31.09-11.77-48.53,4.74-.52,9.41-1,14-1.06l-8.71,8.71a84.33,84.33,0,0,0-.28,11.59L138,113.42a41.72,41.72,0,0,1,12.89,4.09l-29.42,29.42a35.13,35.13,0,0,0,4.24,7.07l32.05-32a45.91,45.91,0,0,1,4.11,3.67,47.6,47.6,0,0,1,4.29,4.9L134.3,162.39a34.37,34.37,0,0,0,7.27,4.05l28.9-28.9a42.5,42.5,0,0,1,3.78,13.19l-18.49,18.49a95.74,95.74,0,0,0,11.79-.48l7.12-7.12c-.15,4.11-.55,8.29-1,12.53C156.21,176.08,139.75,177,125.12,162.38Z"/></svg>