<svg id="ART" xmlns="http://www.w3.org/2000/svg" viewBox="0 0 288 288"><defs><style>.cls-1{fill:#fcfbfa;}</style></defs><path class="cls-1" d="M141.12,215l7.88,4v4H63.11v-4l8-4h70Zm.88-6H70V196a9,9,0,0,1,9-9h54a9,9,0,0,1,9,9Zm-8-13a1,1,0,0,0-1-1H79a1,1,0,0,0-1,1v5l56,0Zm95.3.13-2.83-2.82-20.53,20.53,2.83,2.82,8.49-2.84h0l9.2-9.19h0Zm-7-7.17-20.51,20.51-42.56-42.57-24.05-26.58-10.83,10.83a9,9,0,0,1-1.76,10.23l-2.82,2.83a9,9,0,0,1-12.73,0L72.37,129.6a9,9,0,0,1,0-12.72l2.83-2.83a9,9,0,0,1,10.23-1.75l38.93-38.93a9,9,0,0,1,1.75-10.23l2.83-2.83a9,9,0,0,1,12.73,0L176.31,95a9,9,0,0,1,0,12.72l-2.82,2.83a9,9,0,0,1-10.24,1.76L152.49,123l27.36,23.56ZM131.76,70.21l34.66,34.65a1,1,0,0,0,.7.29,1,1,0,0,0,.71-.29l2.83-2.83a1,1,0,0,0,0-1.42L136,66a1,1,0,0,0-.71-.29,1,1,0,0,0-.7.29l-2.83,2.83A1,1,0,0,0,131.76,70.21Zm-40.3,47.37L119,145.16,157.22,107,129.65,79.4Zm25.75,37.48a1,1,0,0,0-.29-.71L82.27,119.7a1,1,0,0,0-.71-.29,1,1,0,0,0-.7.3L78,122.53A1,1,0,0,0,78,124l34.64,34.65a1,1,0,0,0,1.42,0l2.83-2.83A1,1,0,0,0,117.21,155.06Zm84.56,43.13L211,189,174.3,152.34l-27.48-23.65-6,6,24.25,26.81Z"/></svg>