<svg id="ART" xmlns="http://www.w3.org/2000/svg" viewBox="0 0 288 288"><defs><style>.cls-1{fill:#312d2a;}</style></defs><path class="cls-1" d="M119,75h8v8h-8Zm14,8h8V75h-8Zm14,0h8V75h-8ZM119,97h8V89h-8Zm14,0h8V89h-8Zm-14,14h8v-8h-8Zm14,0h8v-8h-8Zm-14,14h8v-8h-8Zm14,0h8v-8h-8Zm-14,14h8v-8h-8Zm14,0h8v-8h-8Zm-14,14h8v-8h-8Zm14,0h8v-8h-8Zm-14,14h8v-8h-8Zm14,0h8v-8h-8Zm-14,14h8v-8h-8Zm14,0h8v-8h-8Zm-14,14h8v-8h-8Zm14,0h8v-8h-8Zm-14,14h8v-8h-8Zm14,0h8v-8h-8ZM147,97h8V89h-8Zm0,14h8v-8h-8Zm0,14h8v-8h-8Zm0,14h8v-8h-8Zm0,14h8v-8h-8Zm0,14h8v-8h-8Zm0,14h8v-8h-8Zm0,14h8v-8h-8Zm0,14h8v-8h-8ZM161,83h8V75h-8Zm0,14h8V89h-8Zm0,14h8v-8h-8Zm0,14h8v-8h-8Zm0,14h8v-8h-8Zm0,14h8v-8h-8Zm0,14h8v-8h-8Zm0,14h8v-8h-8Zm0,14h8v-8h-8Zm0,14h8v-8h-8Zm30,22v4H97v-4l8-4V61h23.72l15.2-10.86L160.21,61H183V227Zm-16-4V69H157.79l-13.71-9.14L131.28,69H113V227h27V215h8v12Z"/></svg>