<svg id="ART" xmlns="http://www.w3.org/2000/svg" viewBox="0 0 288 288"><defs><style>.cls-1{fill:#312d2a;}</style></defs><path class="cls-1" d="M158,139h40v8H158Zm-6,8H120v42H38v-4l8-4V104.56l-8.09.15-1.85-3.55,7.09-3.7h0C63.73,86.69,97.78,80,132,80s68.27,6.69,88.85,17.46h0l7.09,3.7-1.85,3.55-8.09-.15V147h-8V101.22C190.21,93,161.26,88,132,88s-58.21,5-78,13.22V181H66V139h40v42h6V139h40ZM98,161H74v6H98ZM74,147v6H98v-6Zm0,34H98v-6H74Zm-8-54V105h40v22Zm8-8H98v-6H74Zm38-14h40v22H112Zm8,14h24v-6H120Zm78,8H158V105h40Zm-8-14H166v6h24Zm59,90H234.92a6.63,6.63,0,0,1,.08,1,7,7,0,0,1-14,0,6.63,6.63,0,0,1,.08-1H205.92a6.63,6.63,0,0,1,.08,1,7,7,0,0,1-14,0,6.63,6.63,0,0,1,.08-1H153.42a6.63,6.63,0,0,1,.08,1,7,7,0,0,1-14,0,6.63,6.63,0,0,1,.08-1H126V153h92v14h6.54a9,9,0,0,1,7.13,3.51l7.8,10.15,6.29,2.35a5,5,0,0,1,3.24,4.68Zm-38.95-8V161H134v34ZM241,189.77l-6.47-2.43-9.2-12a1,1,0,0,0-.79-.39H218v20h23ZM140,189h8V167h-8Zm14,0h8V167h-8Zm14,0h8V167h-8Zm14,0h8V167h-8Zm14,0h8V167h-8Z"/></svg>