<svg id="ART" xmlns="http://www.w3.org/2000/svg" viewBox="0 0 288 288"><defs><style>.cls-1{fill:#312d2a;}</style></defs><title>RMIL_Industries_outline</title><path class="cls-1" d="M238,218l8,4.15V226H138v-3.85l8-4.15ZM88,86h32V226H88V118.26L78.54,226.33l-31.87-2.79L57.12,104,88,106.7Zm-7.66,28.06L64.4,112.67l-9.07,103.6,15.94,1.4ZM96,218h16V94H96Zm142-58H176v4l8,4h54l8-4v-4Zm-112-8.59a60.74,60.74,0,0,1,27.44-50.75A15.81,15.81,0,0,1,153,97a16,16,0,0,1,31.19-5H186V74h28V92h10v35l6.27-3,3.19,7.34-9,3.92L229.79,147l-21.28,9.75L203,144.64l-8.55,3.73L191.27,141l4.4-1.92L194.08,136H172a18.2,18.2,0,0,0-18,18,17.86,17.86,0,0,0,18,18.06h29.23L238,172v8H206v32H186.49A60.61,60.61,0,0,1,126,151.41Zm91.14-12.93-6.8,3,2.13,4.66L219.2,143ZM194,92h12V82H194Zm-33,5a8,8,0,1,0,8-8A8,8,0,0,0,161,97Zm-27,54.41c0,29,23.06,52.59,52,52.59h12V180H173c-14.49,0-27-11.49-27-26,0-14.18,11.71-25.74,26.18-26H199l4,7.91L216,130V100H184.71a16,16,0,0,1-27.5,7.77A52.7,52.7,0,0,0,134,151.41ZM213,70l8-4V62H179v4l8,4ZM186,198a6,6,0,1,0-6-6A6,6,0,0,0,186,198Z"/></svg>