<svg id="ART" xmlns="http://www.w3.org/2000/svg" viewBox="0 0 288 288"><defs><style>.cls-1{fill:#312d2a;}</style></defs><path class="cls-1" d="M237,241V149l-6.53-46H207.53l-6,42h-5.06l-6-42H167.53l-6,42h-5.06l-6-42H127.53l-6,42h-5.06l-6-42H87.53L81,148.72V210H75a25,25,0,0,0-25,25v6.5L43,245v4H245v-4ZM94.47,111h9.06l6,42h18.94l6-42h9.06l6,42h18.94l6-42h9.06l6,42h18.94l6-42h9.06L229,149.28V241h-7V226H195v15h-6V226H162v15h-6V226H129v15h-6V226H96v15H89V149.28ZM203,241v-7h11v7Zm-33,0v-7h11v7Zm-33,0v-7h11v7Zm-33,0v-7h11v7Zm-23,0H72v-2a7,7,0,0,1,7-7h2Zm-6-23h6v6H79a15,15,0,0,0-15,15v2H58v-6A17,17,0,0,1,75,218Zm48,2H96v-8h27Zm33,0H129v-8h27Zm33,0H162v-8h27Zm33,0H195v-8h27Zm-99-14H96v-8h27Zm33,0H129v-8h27Zm33,0H162v-8h27Zm33,0H195v-8h27Zm-99-14H96v-8h27Zm33,0H129v-8h27Zm33,0H162v-8h27Zm33,0H195v-8h27Zm-99-14H96v-8h27Zm33,0H129v-8h27Zm33,0H162v-8h27Zm33,0H195v-8h27ZM96,97H88V92a30,30,0,0,1,30-30h17.72A18,18,0,0,1,153,39v8a10,10,0,0,0-7.66,16.43A4,4,0,0,1,142.28,70H118A22,22,0,0,0,96,92Zm67.55-26H156V63h7.55A15.47,15.47,0,0,0,179,47.55V39h8v8.55a23.44,23.44,0,0,1-9.39,18.76A14.5,14.5,0,0,1,164.5,87H116a6,6,0,0,0-6,6v4h-8V93a14,14,0,0,1,14-14h48.5a6.51,6.51,0,0,0,6.5-6.5,6.42,6.42,0,0,0-.53-2.54A23.55,23.55,0,0,1,163.55,71Z"/></svg>