<?xml version="1.0" encoding="utf-8"?>
<!-- Generator: Adobe Illustrator 24.0.3, SVG Export Plug-In . SVG Version: 6.00 Build 0)  -->
<svg version="1.1" id="ART" xmlns="http://www.w3.org/2000/svg" xmlns:xlink="http://www.w3.org/1999/xlink" x="0px" y="0px"
	 viewBox="0 0 288 288" style="enable-background:new 0 0 288 288;" xml:space="preserve">
<style type="text/css">
	.st0{fill:#FCFBFA;}
</style>
<path class="st0" d="M220,69H68c-5,0-9,4-9,9v126c0,5,4,9,9,9h152c5,0,9-4,9-9V78C229,73,225,69,220,69z M68,77h152c0.6,0,1,0.4,1,1
	v9H67v-9C67,77.4,67.4,77,68,77z M220.7,204.7c-0.2,0.2-0.4,0.3-0.7,0.3H68c-0.6,0-1-0.4-1-1V95h154v109
	C221,204.3,220.9,204.5,220.7,204.7z M79,120.9h17v8H79V120.9z M102,120.9h33v8h-33V120.9z M79,134.9h17v8H79V134.9z M102,134.9h33
	v8h-33V134.9z M79,148.9h17v8H79V148.9z M102,148.9h33v8h-33V148.9z M149,118.9v39.9l28.7,11.3l29.3-11.2v-39.9l-29.3-11.2
	L149,118.9z M157,128l17,7v25l-17-6.7V128z M182,159.8v-25.1l17-7v25.6L182,159.8z M192.3,121.8l-14.7,6.1l-14.5-6l14.5-5.7
	L192.3,121.8z M199,179h-42v-6h-8v19.9h8V187h42v5.9h8V173h-8V179z"/>
</svg>
