<svg id="Icon_art" data-name="Icon art" xmlns="http://www.w3.org/2000/svg" viewBox="0 0 288 288">
  <defs>
    <style>
      .cls-1 {
        fill: none;
        stroke: #fcfbfa;
        stroke-miterlimit: 10;
        stroke-width: 8px;
      }

      .cls-2 {
        fill: #fcfbfa;
      }
    </style>
  </defs>
  <g>
    <path class="cls-1" d="M157,60a36.92,36.92,0,0,0-26.12,11.82,17,17,0,0,1-14.17,5.3,29,29,0,0,0-31.17,23.3,17.51,17.51,0,0,1-9.12,12.14A40,40,0,0,0,55.12,145H85"/>
    <polyline class="cls-1" points="182 118 168 132 154 118"/>
    <polyline class="cls-1" points="220 132 234 118 248 132"/>
  </g>
  <g>
    <path class="cls-2" d="M187.53,82.27c.28.55.58,1.09.9,1.61a42.31,42.31,0,0,1,8.76-1.7,13.63,13.63,0,0,1-2.5-3.49A40.82,40.82,0,0,0,158,56h-1.11l.22,8H158A32.84,32.84,0,0,1,187.53,82.27Z"/>
    <path class="cls-2" d="M185.9,142.3,197,103.77h7.89L216,142.3h-8.53l-1.86-8.11H196l-1.85,8.11Zm11.6-14.68h6.63l-3.29-14.41Z"/>
    <path class="cls-2" d="M175.44,138.7A29,29,0,0,0,230,125v-5.42h8V125a37,37,0,0,1-68.41,19.55Z"/>
    <path class="cls-2" d="M201,88a37.09,37.09,0,0,1,31.41,17.45l-5.85,5.85A29,29,0,0,0,172,125v6.9h-8V125A37,37,0,0,1,201,88Z"/>
    <path class="cls-2" d="M189,167.19V186c-1.9,2.93-18.21,8-45,8s-43.1-5.07-45-8V167.11a52.63,52.63,0,0,0,9.42,3.07c9.55,2.28,22.19,3.54,35.58,3.54s26-1.26,35.58-3.54a53.11,53.11,0,0,0,9.31-3,44,44,0,0,1-10.73-4.87c-7.74,1.88-19.35,3.43-34.16,3.43-26.79,0-43.1-5.07-45-8V139.11a52.63,52.63,0,0,0,9.42,3.07c9.55,2.28,22.19,3.54,35.58,3.54,6.34,0,12.51-.28,18.26-.82a43.45,43.45,0,0,1-3-7.76c-4.6.37-9.68.58-15.21.58-26.79,0-43.1-5.07-45-8v-.47c1.83-2.6,16.52-7.26,45-7.26h2v-8l-2,0c-13.63,0-26.24,1.11-35.5,3.12C96.73,119.67,91,123.56,91,129v85.28c0,5.39,5.7,9.37,17.42,12.18C118,228.74,130.61,230,144,230s26-1.26,35.58-3.54c11.72-2.81,17.42-6.79,17.42-12.18V168.77A44.09,44.09,0,0,1,189,167.19ZM189,214c-1.69,2.45-16.47,8-45,8s-43.31-5.54-45-8V195.35a52.63,52.63,0,0,0,9.42,3.07C118,200.7,130.61,202,144,202s26-1.26,35.58-3.54a52.63,52.63,0,0,0,9.42-3.07Z"/>
  </g>
</svg>
