<svg id="ART" xmlns="http://www.w3.org/2000/svg" viewBox="0 0 288 288"><defs><style>.cls-1{fill:#fcfbfa;}</style></defs><path class="cls-1" d="M201,182.63l8-8V224a9,9,0,0,1-9,9H88a9,9,0,0,1-9-9V64a9,9,0,0,1,9-9H200a9,9,0,0,1,9,9v62.54l-8,8V64a1,1,0,0,0-1-1H88a1,1,0,0,0-1,1V224a1,1,0,0,0,1,1H200a1,1,0,0,0,1-1ZM134,219h20v-8H134Zm36.76-45.73,70.93-70.93,15.55,15.56-71.6,71.61L172,193.93a4.88,4.88,0,0,1-1.55.25,5,5,0,0,1-4.75-6.54L170.08,174Zm4.31,11.25,6.27-2,64.59-64.59-4.24-4.24L177.1,178.25Zm-20.69-41a12.82,12.82,0,0,1,11.54-12.74c.05-.58.08-1.15.08-1.74a21.91,21.91,0,0,0-6.48-15.57,18.6,18.6,0,0,0,2.95-8A29.94,29.94,0,0,1,174,129a29,29,0,0,1-.24,3.51,12.8,12.8,0,1,1-19.38,11Zm8,0a4.81,4.81,0,1,0,4.81-4.81A4.81,4.81,0,0,0,162.38,143.48Zm-5.76-40.37A12.79,12.79,0,0,1,133,110a22,22,0,0,0-10.59,14.79c-.53,0-1.07-.08-1.61-.08a18.62,18.62,0,0,0-6.65,1.24,30,30,0,0,1,16.9-24,12.81,12.81,0,0,1,25.56,1.16Zm-8,0a4.81,4.81,0,1,0-4.81,4.81A4.81,4.81,0,0,0,148.62,103.11Zm5.7,54.06a29.87,29.87,0,0,1-26.52-3,12.84,12.84,0,1,1,5-6.29A21.76,21.76,0,0,0,144,151a22,22,0,0,0,5.66-.74A19,19,0,0,0,154.32,157.17Zm-28.7-13.69a4.81,4.81,0,1,0-4.81,4.81A4.81,4.81,0,0,0,125.62,143.48Z"/></svg>