<?xml version="1.0" encoding="UTF-8"?>
<svg id="Icons" xmlns="http://www.w3.org/2000/svg" viewBox="0 0 288 288">
  <defs>
    <style>
      .cls-1 {
        fill: #fcfbfa;
      }
    </style>
  </defs>
  <path class="cls-1" d="M77.87,185.7c-11.83-2.62-15.47-5.66-15.87-6.58v-24.54c12.82,6.51,38.24,8.5,55.18,8.5,14.57,0,28.31-1.22,39.29-3.48-.63-1.2-1.15-2.46-1.54-3.77-.38-1.26-.65-2.57-.8-3.92-10.28,2.03-23.43,3.17-36.95,3.17-14.67,0-28.63-1.3-39.32-3.67-5.46-1.21-9.17-2.5-11.62-3.63-2.87-1.34-4.02-2.45-4.24-2.95v-24.02c12.82,6.5,38.24,8.5,55.18,8.5s42.35-2,55.17-8.5v7c1.19-.21,2.41-.31,3.65-.31.12,0,.23,0,.35.01,1.37.01,2.71.16,4,.43v-16.57c.01-.07.01-.15.01-.22v-34.57c0-.21-.02-.41-.05-.61.03-.28.05-.56.05-.85,0-6.1-6.86-10.88-20.38-14.22-11.48-2.83-26.68-4.4-42.8-4.4s-31.32,1.57-42.8,4.4c-13.52,3.34-20.38,8.12-20.38,14.22,0,.29.02.57.05.85-.03.2-.05.4-.05.61v102.62c0,6.07,6.68,10.62,20.4,13.91,11.48,2.74,26.67,4.25,42.78,4.25,4.35,0,8.64-.11,12.83-.33.02-1.37.14-2.71.35-4.02.22-1.39.55-2.75.98-4.06-4.6.27-9.33.41-14.16.41-14.66,0-28.62-1.3-39.31-3.66ZM156.49,117.64c-10.69,2.37-24.65,3.67-39.31,3.67s-28.62-1.3-39.31-3.67c-7.65-1.69-11.88-3.56-14.01-4.92-1.17-.74-1.72-1.33-1.86-1.66v-26.08c3.19,1.65,7.32,3.1,12.38,4.35,11.48,2.84,26.68,4.4,42.8,4.4s31.32-1.56,42.8-4.4c5.06-1.25,9.19-2.7,12.38-4.35v26.08c-.14.33-.69.92-1.86,1.66-2.13,1.36-6.36,3.23-14.01,4.92ZM117.18,64.5c28.57,0,45.56,4.6,52.1,8.08,1.83.98,2.85,1.87,3.06,2.54-.13.41-.57.91-1.31,1.46-1.61,1.19-4.69,2.63-9.29,4-8.95,2.69-23.65,5.15-44.56,5.15s-35.61-2.46-44.56-5.15c-4.6-1.37-7.68-2.81-9.29-4-.74-.55-1.18-1.05-1.31-1.46.21-.67,1.23-1.56,3.06-2.54,6.54-3.48,23.53-8.08,52.1-8.08Z"/>
  <path class="cls-1" d="M204.69,182.39c2.88,4.28,7.77,7.11,13.31,7.11,8.83,0,16-7.17,16-16s-7.17-16-16-16c-4.48,0-8.54,1.86-11.45,4.84l-9.79-5.58-5.32-3.04c.36-1.34.56-2.76.56-4.22,0-7.31-4.93-13.5-11.65-15.39-1.27-.37-2.61-.58-4-.6-.12-.01-.23-.01-.35-.01-1.26,0-2.48.15-3.65.43-3.66.85-6.83,2.96-9.05,5.85-.93,1.21-1.69,2.55-2.24,4-.49,1.26-.82,2.6-.97,4-.06.56-.09,1.14-.09,1.72,0,.36.01.71.04,1.06.06,1.01.22,1.99.46,2.93v.01c.09.33.19.67.3.99.42,1.31,1.01,2.54,1.75,3.67,1.12,1.74,2.58,3.25,4.28,4.44l-2.16,5.75-.68,1.8-2.13,5.69h-.01c-1.25-.22-2.54-.34-3.85-.34-3.56,0-6.93.85-9.91,2.37-4.47,2.25-8.07,6-10.14,10.59-.6,1.31-1.07,2.69-1.39,4.12-.31,1.31-.49,2.67-.54,4.06-.01.28-.02.57-.02.86,0,12.13,9.87,22,22,22,7.99,0,14.99-4.28,18.84-10.66l5.7,2.14,7.55,2.83c-.06.55-.09,1.12-.09,1.69,0,8.83,7.18,16,16,16s16-7.17,16-16-7.17-16-16-16c-5.41,0-10.2,2.7-13.1,6.82l-7.55-2.83-5.69-2.14c.22-1.25.34-2.54.34-3.85,0-1.58-.17-3.13-.49-4.62l5.62-2.34,19.56-8.15ZM206,207.5c4.42,0,8,3.59,8,8s-3.58,8-8,8-8-3.58-8-8,3.59-8,8-8ZM218,165.5c4.42,0,8,3.59,8,8s-3.58,8-8,8-8-3.58-8-8,3.59-8,8-8ZM168.03,148.78c.28-3.03,2.24-5.57,4.93-6.68.93-.39,1.96-.6,3.04-.6,4.42,0,8,3.59,8,8s-3.58,8-8,8-8-3.58-8-8c0-.24.01-.49.03-.72ZM158,211.5c-7.72,0-14-6.28-14-14s6.28-14,14-14,14,6.28,14,14-6.28,14-14,14ZM176.43,185.5c-1.81-2.78-4.24-5.13-7.09-6.84l2.14-5.7.68-1.8,2.16-5.75c.55.06,1.11.09,1.68.09,4.49,0,8.55-1.85,11.45-4.84l5.34,3.04,9.77,5.59c-.36,1.34-.56,2.75-.56,4.21,0,.44.02.88.06,1.31v.01l-20.02,8.34-5.61,2.34Z"/>
</svg>