<?xml version="1.0" encoding="utf-8"?>
<!-- Generator: Adobe Illustrator 27.1.0, SVG Export Plug-In . SVG Version: 6.00 Build 0)  -->
<svg version="1.1" id="Layer_1" xmlns="http://www.w3.org/2000/svg" xmlns:xlink="http://www.w3.org/1999/xlink" x="0px" y="0px"
	 viewBox="0 0 288 288" style="enable-background:new 0 0 288 288;" xml:space="preserve">
<style type="text/css">
	.st0{display:none;}
	.st1{display:inline;}
	.st2{fill:#4EA8E6;}
	.st3{fill:none;stroke:#4EA8E6;stroke-width:0.25;stroke-miterlimit:10;}
	.st4{fill:#312D2A;}
</style>
<g id="GUIDES" class="st0">
	<g class="st1">
		<g>
			<path class="st2" d="M144,96.3c26.3,0,47.8,21.4,47.8,47.7s-21.4,47.7-47.8,47.7S96.2,170.3,96.2,144S117.7,96.3,144,96.3
				 M144,96.1c-26.5,0-48,21.5-48,47.9c0,26.5,21.5,47.9,48,47.9s48-21.5,48-47.9C192,117.5,170.5,96.1,144,96.1L144,96.1z"/>
		</g>
		<line class="st3" x1="96" y1="0" x2="96" y2="288"/>
		<line class="st3" x1="192" y1="0" x2="192" y2="288"/>
		<line class="st3" x1="0" y1="192" x2="288" y2="192"/>
		<line class="st3" x1="0" y1="96" x2="288" y2="96"/>
		<g>
			<path class="st2" d="M144,12.4c35.2,0,68.3,13.7,93.2,38.6s38.6,58,38.6,93.2s-13.7,68.3-38.6,93.2S179.2,276,144,276
				s-68.3-13.7-93.2-38.6s-38.6-58-38.6-93.2S26,75.9,50.8,51C75.7,26.1,108.8,12.4,144,12.4 M144,12.1c-72.9,0-132,59.1-132,132
				s59.1,132,132,132s132-59.1,132-132S216.9,12.1,144,12.1L144,12.1z"/>
		</g>
		<g>
			<path class="st2" d="M240,12.2c6.5,0,11.8,5.3,11.8,11.8v240c0,6.5-5.3,11.8-11.8,11.8H48c-6.5,0-11.8-5.3-11.8-11.8V24
				c0-6.5,5.3-11.8,11.8-11.8H240 M240,12H48c-6.6,0-12,5.4-12,12v240c0,6.6,5.4,12,12,12h192c6.6,0,12-5.4,12-12V24
				C252,17.4,246.6,12,240,12L240,12z"/>
		</g>
		<g>
			<path class="st2" d="M264,36.2c6.5,0,11.8,5.3,11.8,11.8v192c0,6.5-5.3,11.8-11.8,11.8H24c-6.5,0-11.8-5.3-11.8-11.8V48
				c0-6.5,5.3-11.8,11.8-11.8H264 M264,36H24c-6.6,0-12,5.4-12,12v192c0,6.6,5.4,12,12,12h240c6.6,0,12-5.4,12-12V48
				C276,41.4,270.6,36,264,36L264,36z"/>
		</g>
		<g>
			<path class="st2" d="M247.8,24.2c8.8,0,16,7.2,16,16v207.6c0,8.8-7.2,16-16,16H40.2c-8.8,0-16-7.2-16-16V40.2c0-8.8,7.2-16,16-16
				H247.8 M247.8,24H40.2C31.3,24,24,31.3,24,40.2v207.6c0,8.9,7.3,16.2,16.2,16.2h207.6c8.9,0,16.2-7.3,16.2-16.2V40.2
				C264,31.3,256.7,24,247.8,24L247.8,24z"/>
		</g>
	</g>
</g>
<g id="ART">
	<g>
		<path class="st4" d="M219,70H69c-5,0-9,4-9,9v110c0,5,4,9,9,9h51.7l-1.8,13H111l0,0l-8,4v4h83v-4l-8-4l0,0h-7.9l-1.8-13H219
			c5,0,9-4,9-9V79C228,74,224,70,219,70z M162,211h-35l1.8-13h31.5L162,211z M220,189c0,0.6-0.4,1-1,1H69c-0.6,0-1-0.4-1-1V79
			c0-0.6,0.4-1,1-1h150c0.6,0,1,0.4,1,1V189z"/>
		<path class="st4" d="M207,85H81c-3.3,0-6,2.7-6,6v86c0,3.3,2.7,6,6,6h126c3.3,0,6-2.7,6-6V91C213,87.7,210.3,85,207,85z M83,175
			V93h122v42.3h-17.1l-9-33.9h-8.4l-14.3,52.1l-10.7-37h-8.1l-6.3,18.9h-15.3c-1.8-4.3-6.1-7.4-11.1-7.4c-6.6,0-12,5.4-12,12
			s5.4,12,12,12c5.4,0,10-3.6,11.5-8.6h20.6l4.4-13.1l11.1,38.4h8l14.4-52.1l7.1,26.8H205V175H83z M108.6,139.9c0,2.2-1.8,4-4,4
			s-4-1.8-4-4s1.8-4,4-4S108.6,137.7,108.6,139.9z"/>
	</g>
</g>
</svg>
