<svg id="ART" xmlns="http://www.w3.org/2000/svg" viewBox="0 0 288 288"><defs><style>.cls-1{fill:#2f2925;}</style></defs><path class="cls-1" d="M99,191h89.17V179.41a20.74,20.74,0,0,0-.17-2.51V127.39a41.18,41.18,0,0,1-8-2.24V163a19.64,19.64,0,0,0-11.82-4H158v-5.19a20.72,20.72,0,0,0,6-14.59V110H138c-9.25,0-15,6.13-15,16v14a19.27,19.27,0,0,0,6,13.9V159h-8.88A21.09,21.09,0,0,0,107,163.68V106h53.85a41.18,41.18,0,0,1-2.24-8H99Zm38-32.29a21.82,21.82,0,0,0,6.8,1.11,20.13,20.13,0,0,0,6.23-1v2.65l-6.37,7.2L137,161.8ZM138,118h17.55a5.25,5.25,0,0,1-5.55,4H131.58C133,118,136.48,118,138,118Zm12,12a14.7,14.7,0,0,0,6-1.2v10.44c0,6.82-5.59,12.58-12.2,12.58-7.06,0-12.8-5.31-12.8-11.82V130Zm-42.83,49.41c0-6.59,6-12.37,13-12.37h10.82l13,13.39L155.79,167h12.39A12.13,12.13,0,0,1,180,177.43V183H107.17Z"/><path class="cls-1" d="M199,122a35,35,0,1,0-35-35A35,35,0,0,0,199,122Zm0-62a27,27,0,1,1-27,27A27,27,0,0,1,199,60Z"/><polygon class="cls-1" points="215.82 80.43 210.16 74.78 194.2 90.74 187.84 84.37 182.18 90.02 194.2 102.05 215.82 80.43"/><path class="cls-1" d="M194,185h28v44h-6v-5a9,9,0,0,0-9-9H193a9,9,0,0,0-9,9v5h-6V197h-8v40h60V177H194Zm-2,39a1,1,0,0,1,1-1h14a1,1,0,0,1,1,1v5H192Z"/><path class="cls-1" d="M200,212a11.5,11.5,0,1,0-11.5-11.5A11.51,11.51,0,0,0,200,212Zm0-15a3.5,3.5,0,1,1-3.5,3.5A3.51,3.51,0,0,1,200,197Z"/><path class="cls-1" d="M109,229h-6v-5a9,9,0,0,0-9-9H80a9,9,0,0,0-9,9v5H65V185H93v-8H57v60h60V197h-8Zm-30-5a1,1,0,0,1,1-1H94a1,1,0,0,1,1,1v5H79Z"/><path class="cls-1" d="M87,189a11.5,11.5,0,1,0,11.5,11.5A11.51,11.51,0,0,0,87,189Zm0,15a3.5,3.5,0,1,1,3.5-3.5A3.5,3.5,0,0,1,87,204Z"/><path class="cls-1" d="M93,107H79v-5a1,1,0,0,1,1-1H93V93H80a9,9,0,0,0-9,9v5H65V63h44V92h8V55H57v60H93Z"/><path class="cls-1" d="M87,67a11.5,11.5,0,1,0,11.5,11.5A11.51,11.51,0,0,0,87,67Zm0,15a3.5,3.5,0,1,1,3.5-3.5A3.5,3.5,0,0,1,87,82Z"/></svg>