<?xml version="1.0" encoding="UTF-8"?>
<svg id="ART" xmlns="http://www.w3.org/2000/svg" viewBox="0 0 288 288">
  <defs>
    <style>
      .cls-1 {
        fill: #fcfbfa;
      }
    </style>
  </defs>
  <path class="cls-1" d="M24,187.51h57v17.6c-1.37.69-2.48,1.5-3.41,2.2-1.83,1.37-2.93,2.2-5.6,2.2s-3.77-.83-5.6-2.2c-2.14-1.6-5.07-3.8-10.4-3.8s-8.26,2.2-10.4,3.8c-1.83,1.37-2.93,2.2-5.6,2.2s-3.77-.83-5.6-2.2c-2.14-1.6-5.07-3.8-10.4-3.8v8c2.67,0,3.77.83,5.6,2.2,2.14,1.6,5.07,3.8,10.4,3.8s8.26-2.2,10.4-3.8c1.83-1.37,2.93-2.2,5.6-2.2s3.77.83,5.6,2.2c2.14,1.6,5.07,3.8,10.4,3.8s8.26-2.2,10.4-3.8c1.83-1.37,2.93-2.2,5.6-2.2s3.77.83,5.6,2.2c2.14,1.6,5.07,3.8,10.4,3.8s8.26-2.2,10.4-3.8c1.83-1.37,2.93-2.2,5.6-2.2s3.77.83,5.6,2.2c2.14,1.6,5.07,3.8,10.4,3.8s8.26-2.2,10.4-3.8c1.83-1.37,2.93-2.2,5.6-2.2s3.77.83,5.6,2.2c2.14,1.6,5.07,3.8,10.4,3.8s8.26-2.2,10.4-3.8c1.83-1.37,2.93-2.2,5.6-2.2s3.77.83,5.6,2.2c2.14,1.6,5.07,3.8,10.4,3.8s8.26-2.2,10.4-3.8c1.83-1.37,2.93-2.2,5.6-2.2s3.77.83,5.6,2.2c2.14,1.6,5.07,3.8,10.4,3.8s8.26-2.2,10.4-3.8c1.83-1.37,2.93-2.2,5.6-2.2s3.77.83,5.6,2.2c2.14,1.6,5.07,3.8,10.4,3.8v-8c-2.67,0-3.77-.83-5.6-2.2-2.14-1.6-5.07-3.8-10.4-3.8s-8.26,2.2-10.4,3.8c-1.83,1.37-2.93,2.2-5.6,2.2s-3.77-.83-5.6-2.2c-2.14-1.6-5.07-3.8-10.4-3.8-3.59,0-6.08,1-7.98,2.14v-18.14h56v-8H24v8ZM89,187.51h111v22s-.01,0-.02,0c-2.67,0-3.77-.83-5.6-2.2-2.14-1.6-5.07-3.8-10.4-3.8s-8.26,2.2-10.4,3.8c-1.83,1.37-2.93,2.2-5.6,2.2s-3.77-.83-5.6-2.2c-2.14-1.6-5.07-3.8-10.4-3.8s-8.26,2.2-10.4,3.8c-1.83,1.37-2.93,2.2-5.6,2.2s-3.77-.83-5.6-2.2c-2.14-1.6-5.07-3.8-10.4-3.8s-8.26,2.2-10.4,3.8c-1.83,1.37-2.93,2.2-5.6,2.2s-3.77-.83-5.6-2.2c-1.99-1.5-4.7-3.48-9.39-3.75v-16.05Z"/>
  <path class="cls-1" d="M261,163.51h-1c-39.2,0-52-43.88-52-59v-4h-8v4c0,6.66-2.14,21.45-10.17,34.67-9.8,16.14-24.88,24.33-44.83,24.33s-35.46-7.83-45.38-23.29c-7.84-12.2-10.62-26.86-10.62-35.71v-4h-8v4c0,15.12-12.8,59-52,59h-5v8h240v-8h-3ZM81,163.51h-23.5c8.4-5.31,14.45-12.46,18.62-18.96,1.84-2.86,3.46-5.83,4.88-8.82v27.78ZM89,163.51v-25.9c1.15,2.35,2.43,4.68,3.88,6.93,4.17,6.5,10.46,13.66,19.7,18.96h-23.58ZM200,163.51h-23.43c8.05-4.72,14.82-11.48,20.1-20.17,1.24-2.04,2.33-4.11,3.33-6.18v26.36ZM208,163.51v-27.79c1.43,2.99,3.05,5.96,4.88,8.82,4.17,6.5,10.22,13.66,18.62,18.96h-23.5Z"/>
  <path class="cls-1" d="M247.99,219.51c-5.33,0-8.26,2.2-10.4,3.8-1.83,1.37-2.93,2.2-5.6,2.2s-3.77-.83-5.6-2.2c-2.14-1.6-5.07-3.8-10.4-3.8s-8.26,2.2-10.4,3.8c-1.83,1.37-2.93,2.2-5.6,2.2s-3.77-.83-5.6-2.2c-2.14-1.6-5.07-3.8-10.4-3.8s-8.26,2.2-10.4,3.8c-1.83,1.37-2.93,2.2-5.6,2.2s-3.77-.83-5.6-2.2c-2.14-1.6-5.07-3.8-10.4-3.8s-8.26,2.2-10.4,3.8c-1.83,1.37-2.93,2.2-5.6,2.2s-3.77-.83-5.6-2.2c-2.14-1.6-5.07-3.8-10.4-3.8s-8.26,2.2-10.4,3.8c-1.83,1.37-2.93,2.2-5.6,2.2s-3.77-.83-5.6-2.2c-2.14-1.6-5.07-3.8-10.4-3.8s-8.26,2.2-10.4,3.8c-1.83,1.37-2.93,2.2-5.6,2.2s-3.77-.83-5.6-2.2c-2.14-1.6-5.07-3.8-10.4-3.8s-8.26,2.2-10.4,3.8c-1.83,1.37-2.93,2.2-5.6,2.2s-3.77-.83-5.6-2.2c-2.14-1.6-5.07-3.8-10.4-3.8v8c2.67,0,3.77.83,5.6,2.2,2.14,1.6,5.07,3.8,10.4,3.8s8.26-2.2,10.4-3.8c1.83-1.37,2.93-2.2,5.6-2.2s3.77.83,5.6,2.2c2.14,1.6,5.07,3.8,10.4,3.8s8.26-2.2,10.4-3.8c1.83-1.37,2.93-2.2,5.6-2.2s3.77.83,5.6,2.2c2.14,1.6,5.07,3.8,10.4,3.8s8.26-2.2,10.4-3.8c1.83-1.37,2.93-2.2,5.6-2.2s3.77.83,5.6,2.2c2.14,1.6,5.07,3.8,10.4,3.8s8.26-2.2,10.4-3.8c1.83-1.37,2.93-2.2,5.6-2.2s3.77.83,5.6,2.2c2.14,1.6,5.07,3.8,10.4,3.8s8.26-2.2,10.4-3.8c1.83-1.37,2.93-2.2,5.6-2.2s3.77.83,5.6,2.2c2.14,1.6,5.07,3.8,10.4,3.8s8.26-2.2,10.4-3.8c1.83-1.37,2.93-2.2,5.6-2.2s3.77.83,5.6,2.2c2.14,1.6,5.07,3.8,10.4,3.8s8.26-2.2,10.4-3.8c1.83-1.37,2.93-2.2,5.6-2.2s3.77.83,5.6,2.2c2.14,1.6,5.07,3.8,10.4,3.8v-8c-2.67,0-3.77-.83-5.6-2.2-2.14-1.6-5.07-3.8-10.4-3.8Z"/>
  <path class="cls-1" d="M182.2,54.49h-76.07v76.07h76.07V54.49ZM174.2,122.56h-9.02v-47.05h-8v47.05h-9.02v-34.9h-8v34.9h-9.02v-22.74h-8v22.74h-9.02v-60.07h60.07v60.07Z"/>
</svg>