<?xml version="1.0" encoding="utf-8"?>
<!-- Generator: Adobe Illustrator 24.0.3, SVG Export Plug-In . SVG Version: 6.00 Build 0)  -->
<svg version="1.1" id="ART" xmlns="http://www.w3.org/2000/svg" xmlns:xlink="http://www.w3.org/1999/xlink" x="0px" y="0px"
	 viewBox="0 0 288 288" style="enable-background:new 0 0 288 288;" xml:space="preserve">
<style type="text/css">
	.st0{fill:#FCFBFA;}
</style>
<path class="st0" d="M231,85.9H124.8L114,71.6c-1.7-2.3-4.3-3.6-7.2-3.6H57c-5,0-9,4-9,9v134c0,5,4,9,9,9h174c5,0,9-4,9-9V94.9
	C240,89.9,236,85.9,231,85.9z M57,76h49.8c0.3,0,0.6,0.2,0.8,0.4l10.2,13.5l-10.2,13.6c-0.2,0.2-0.5,0.4-0.8,0.4H56V77
	C56,76.4,56.4,76,57,76z M105.5,190.9l13.3,14.1l13.3-14.2h8.3c7.5,0,13.5,6,13.5,13.5v0v7.7H84v-7.7c0-7.4,6-13.5,13.5-13.5H105.5z
	 M126.4,151.2c2.2,0,4.4-0.4,6.4-1.4v11.3c-0.1,7.6-6.2,13.8-13.8,13.9c-7.6,0.1-13.8-6-13.9-13.6v-10.2H126.4z M105.6,143.2
	c1.4-5.2,5.6-5.2,7.2-5.2h19.7c-1.1,5.2-4.6,5.2-6,5.2L105.6,143.2z M156.6,180.3l13.4,14.2l13.4-14.2h5.3c7.4,0,13.4,6,13.4,13.5
	v4.2h-41c-2.5-8-9.4-13.8-17.7-14.9c2.3-1.8,5.2-2.7,8.1-2.7H156.6z M177.4,141c2.2,0,4.4-0.5,6.4-1.5v11.2
	c-0.1,7.6-6.2,13.8-13.8,13.9c-7.6,0.1-13.8-6-13.9-13.6v-10H177.4z M156.5,133c0.8-3.2,2.7-6,7.2-6h19.7c-0.6,3.2-2.3,6-6,6H156.5z
	 M162.3,171.2c2.5,0.9,5.1,1.4,7.7,1.4c2.6,0,5.2-0.5,7.6-1.4v3.5l-7.7,8.2l-7.6-8.1V171.2z M111.3,181.7c2.5,0.9,5.1,1.4,7.7,1.4
	c2.6,0,5.2-0.5,7.6-1.4v3.5l-7.7,8.2l-7.6-8.1V181.7z M232,211c0,0.6-0.4,1-1,1h-69v-6h64v-4l-8-4h-8v-4.2
	c0-11.9-9.6-21.5-21.5-21.5h-2.9v-6.5c4-4,6.2-9.5,6.2-15.1V119h-28.1c-9.4,0-15.5,6.9-15.6,17.6l0,0V151c0,5.6,2.2,11,6.2,15v6.4
	h-2.8c-6.6,0-12.8,3-16.9,8.2v-4.2c4-4,6.2-9.5,6.2-15.1V130h-28.1c-9.6,0-15.6,6.5-15.7,17.1l0,0v14.4c0,5.6,2.2,11,6.2,15v6.4
	h-5.8c-9.4,0-17.7,6.2-20.5,15.1h-7l-8,4v4h14v6H57c-0.6,0-1-0.4-1-1v-99.1h50.8c2.8,0,5.5-1.3,7.2-3.6l10.8-14.4H231
	c0.6,0,1,0.4,1,1V211z M65,85.9h37v8H65V85.9z"/>
</svg>
