<?xml version="1.0" encoding="utf-8"?>
<!-- Generator: Adobe Illustrator 24.0.3, SVG Export Plug-In . SVG Version: 6.00 Build 0)  -->
<svg version="1.1" id="icon_art" xmlns="http://www.w3.org/2000/svg" xmlns:xlink="http://www.w3.org/1999/xlink" x="0px" y="0px"
	 viewBox="0 0 288 288" style="enable-background:new 0 0 288 288;" xml:space="preserve">
<style type="text/css">
	.st0{fill:#312D2A;}
</style>
<title>RMIL_Business_World_Globe_Eastern_Bark_RGB</title>
<path class="st0" d="M144,28C79.9,28,28,79.9,28,144s51.9,116,116,116s116-51.9,116-116C259.9,80,208,28.1,144,28z M247,111l-6,6
	c-1,1.1-1.7,2.5-2,4v30l-1,4l-1,1.2l-3-10.3c-1.2-0.9-1.7-1.6-2.3-2.1l-4.9-3.8l-5.3-4.2c-1.6-1.3-3.9-1.1-5.3,0.3l-11.6,11.6
	c-0.6,0.6-1,1.3-1.1,2.2l-1.6,9.8l-3.2-14.2c-0.2-0.7-0.5-1.4-1.1-1.9l-6.4-6.4c-0.4-0.4-0.9-0.7-1.5-0.9l-18-6.4
	c-0.7-0.2-1.4-0.3-2.1-0.2l-10.6,2.1c-2.2,0.4-3.6,2.5-3.1,4.7c0.1,0.4,0.2,0.8,0.4,1.2l3.8,6.8l-7.7,7l-9.1-2.3l-6.6-10.3
	c-0.7-1.2-2-1.9-3.4-1.9h-11.7c-2.2,0-4,1.8-4,4c0,0.6,0.1,1.1,0.4,1.7l11.6,25.9c0.6,1.4,1.9,2.3,3.4,2.3h13l-2.1,6.3l-9.2,4.7
	c-0.6,0.3-1,0.7-1.4,1.2L123,195.8c-0.5,0.6-0.9,1.4-1,2.2v23l-4.3,5h-10L91,206l2-10c0.3-1,0.6-3.1,0-4l-7.7-13.1l-1-10.7
	c-0.2-1.9-1.6-3.4-3.4-3.6L60,162l-5-20l6-14l6-4h16l1.9,6.2c0.5,2,2.1,3.4,4.1,3.8h16c1.1,0.2,2.2-0.2,3-1l3-3l6.3,3.8
	c1.1,0.8,2.6,0.9,3.8,0.3l9.5-4.2c2-0.9,2.9-3.3,2-5.3c-0.2-0.5-0.6-1-1-1.4l-1.7-1.5l11.8-3.3c1.7-0.4,3.2-1.6,3.2-3.4v-7
	c-0.1-1.7-1.3-3.1-3-3.6L126,99.1c-1.2-0.4-2.6-0.2-3.6,0.6l-8.5,6.2l-5-6.5c-1.4-1.7-3.9-2.1-5.6-0.7c-0.5,0.4-1,1-1.2,1.6
	l-1.7,3.7l-0.4-1c-0.5-2.1-2.7-3.4-4.9-2.9H95L85,103H73l-3-2l3-4l8.4,2.9c0.9,0.2,1.8,0.2,2.6-0.2L95,95h22c1.1,0,1.2-0.2,2-1l3-3
	c0.7-0.8,1.1-1.9,1-3V78c0-1.2,0-1.8-1-2.5c-0.9-0.8-2.2-1.1-3.4-0.8L111,77h-4v-2l8-4h15l6.6,3.7c0.8,0.3,1.6,0.4,2.4,0.3h25
	c0.8,0.1,1.5-0.1,2.2-0.5l23-15l14.3,2.8c1.3,0.3,2.6-0.1,3.5-1l3-2.8C227.3,72,240.2,90.2,247,111z M144,252
	c-59.6,0-108-48.3-108.1-107.9S84.2,36,143.9,36c21.1,0,41.8,6.2,59.5,17.8l-0.4,0.3l-13.9-2.8c-1-0.2-2.1,0-3,0.6L163,67h-23
	l-6.8-3.5c-0.7-0.3-1.4-0.5-2.2-0.5h-17c-0.6,0-1.2,0.1-1.7,0.4l-13.8,7.4c-1.9,1-2.7,3.5-1.6,5.4c0.1,0.2,0.3,0.5,0.4,0.7l4.6,5.6
	c0.8,0.9,1.9,1.4,3.1,1.4h9.9v3H94c-0.5,0-0.9,0.4-1.4,0.6l-10.4,4.2L72.4,89c-1.6-0.4-3.3,0.2-4.2,1.5L61.8,99
	c-0.6,0.9-0.9,1.9-0.8,3c0.2,1.1,0.7,2,1.6,2.7L70,110c0.5,0.5,1.2,0.9,1.9,1h14c0.4,0,0.9,0,1.3-0.2l6.1-1.8l2.2,8.6
	c0.5,2.1,2.7,3.4,4.9,2.9c1.2-0.3,2.2-1.2,2.7-2.3l3.7-8.6l3.2,4.2c1.3,1.7,3.8,2,5.5,0.8l10-7.3L137,111v1l-16.4,4
	c-2.1,0.6-3.4,2.8-2.8,4.9c0.2,0.8,0.6,1.4,1.2,2l3,2.1l-2,1l-7.8-5.2c-1.7-1.1-4-0.8-5.3,0.8l-4,4.5H92l-1-6.8
	c-0.3-1.9-2-3.3-4-3.2H65c-0.7,0.1-1.4,0.5-2,1l-7.2,4.9c-0.6,0.4-1.1,1-1.3,1.7L47,140.5c-0.4,0.8-0.4,1.8-0.2,2.7l6.4,23.3
	c0.4,1.5,1.7,2.7,3.3,2.9L77,172l0.4,8.6c0.1,0.6,0.3,1.2,0.6,1.7l7,12.7l-2.2,10.7c-0.3,1.2,0,2.5,0.8,3.5l19.1,23.3
	c0.8,0.9,1.9,1.5,3.1,1.5h13.8c1.2,0,2.2-0.5,3-1.4l6.4-7.4c0.6-0.7,0.9-1.5,1-2.4V200l9.1-11.3l9.7-4.9c0.9-0.4,1.5-1.1,1.9-2
	l5.3-12.7c0.6-1.3,0.6-2.8,0-4.1c-1-1.2-2.5-1.9-4-2h-16l-8.1-17.9h3.2l6.2,9.8c0.5,0.9,1.4,1.5,2.4,1.7l12.7,3.2
	c1.3,0.3,2.7,0,3.7-0.9l11.6-10.6c1.4-1.3,1.7-3.3,0.8-4.9l-2.6-4.7l4.1-0.8l16.1,5.7l4.9,4.9l5,22.2c0.4,1.9,2,3.3,3.9,3.4h4.2
	c2-0.2,3.7-1.7,3.9-3.7l3-17.8l8.2-8.2l6.5,5.1l5.4,15.9c0.7,2.1,3,3.2,5.1,2.4c0.6-0.2,1.2-0.6,1.6-1.1l6-7
	c0.3-0.4,0.6-0.8,0.7-1.3l2-5.8c0.2-0.5,0.2-1,0.2-1.5V123l3-3c1.8,7.8,2,15.6,2,24c0,5.6-0.4,11.2-1.3,16.7
	c-0.2,0.1-0.4,0.3-0.5,0.4l-5,5c-0.8,0.9-1.3,2-1.1,3.2l1,10c0.1,0.5,0.2,1,0.5,1.5C229.9,223.6,189.4,251.9,144,252z M143.8,203.7
	l-6,4c-1.1,0.7-1.8,2-1.8,3.3v9c0,2.2,1.8,4,4,4s4-1.8,4-4v-6.9l4.2-2.8c1.8-1.2,2.3-3.7,1.1-5.6S145.6,202.4,143.8,203.7z
	 M238.4,176.8l-8-6c-1.8-1.3-4.3-1-5.6,0.8s-1,4.3,0.8,5.6l0,0l8,6c1.8,1.3,4.3,1,5.6-0.8S240.2,178.1,238.4,176.8z M80,86h2
	c2.2,0,4-1.8,4-4s-1.8-4-4-4h-2c-2.2,0-4,1.8-4,4S77.8,86,80,86z"/>
</svg>
