<svg id="ART" xmlns="http://www.w3.org/2000/svg" viewBox="0 0 288 288"><defs><style>.cls-1{fill:#fcfbfa;}</style></defs><path class="cls-1" d="M228.76,138.28l-14.09-3V135h-1.23l-8.5-1.82-51.4-23.75A48.25,48.25,0,0,0,133.4,105H74c-13.87,0-23.81,17.76-25.71,22.51-2.37,5.91-3.21,16.84-3.21,25.1v14.55A8.85,8.85,0,0,0,53.92,176H65.67a17,17,0,0,0,32.5,0h94.66a17,17,0,0,0,32.5,0h10.75a9,9,0,0,0,9-9v-8.54A20.73,20.73,0,0,0,228.76,138.28Zm-78.57-21.59L189.8,135H130.73a2,2,0,0,1-1.94-1.5l-.11-.45L118.14,113H133.4A40.38,40.38,0,0,1,150.19,116.69ZM74,113h35.11l11.56,22H54.5a25.43,25.43,0,0,1,1.21-4.51C57.77,125.34,66,113,74,113Zm7.92,67a9,9,0,1,1,9-9A9,9,0,0,1,81.92,180Zm127.16,0a9,9,0,1,1,9-9A9,9,0,0,1,209.08,180Zm27-12H225.8a17,17,0,0,0-33.44,0H98.64a17,17,0,0,0-33.44,0H53.92a.85.85,0,0,1-.84-.84V162h7.67a23.12,23.12,0,0,1,5.69-8H53.08v-1.39c0-3.32.14-6.59.39-9.61H212.6l14.49,3.1a12.68,12.68,0,0,1,9.16,7.9H224.56a23.12,23.12,0,0,1,5.69,8h6.83v5A1,1,0,0,1,236.08,168ZM97.39,154h96.22a23.12,23.12,0,0,0-5.69,8H103.08A23.12,23.12,0,0,0,97.39,154Z"/></svg>