<svg id="icon_art" data-name="icon art" xmlns="http://www.w3.org/2000/svg" viewBox="0 0 288 288"><defs><style>.cls-1{fill:#312d2a;}</style></defs><title>RMIL_Technology</title><path class="cls-1" d="M124,145V108h8v37Zm37,0V116h12v-8H141v8h12v29Zm20-67a35,35,0,1,1,35,35A35,35,0,0,1,181,78Zm35,27a26.93,26.93,0,0,0,7-.93V96a1,1,0,0,0-1-1H210a1,1,0,0,0-1,1v8.07A26.93,26.93,0,0,0,216,105ZM189,78a27,27,0,0,0,12,22.44V96a9,9,0,0,1,9-9h12a9,9,0,0,1,9,9v4.44A27,27,0,1,0,189,78ZM112,206h64v-8H112Zm140,7h0v4l-8,4H44l-8-4v-4h0l21-39.21V76a9,9,0,0,1,9-9H176.51a40.56,40.56,0,0,0-1.39,8H66a1,1,0,0,0-1,1v94H223V118.39a41.18,41.18,0,0,0,8-2.24v56.17L252,213Zm-9,0-18-35H63.87L45.08,213ZM78,192H210v-8H78ZM204,71.15a12,12,0,1,1,12,12A12,12,0,0,1,204,71.15Zm8,0a4,4,0,1,0,4-4A4,4,0,0,0,212,71.15Z"/></svg>