<svg id="ART" xmlns="http://www.w3.org/2000/svg" viewBox="0 0 288 288"><defs><style>.cls-1{fill:#312d2a;}</style></defs><title>RMIL_Personas</title><path class="cls-1" d="M177.5,129H167V114a33,33,0,0,0,10-23.33V44H134c-14.07,0-22.6,8.93-23,23.93V90.67a32.88,32.88,0,0,0,10.09,23.74V129H109.72C88.92,129,72,146.22,72,167.38V192h8V167.38C80,150.63,93.33,137,109.72,137H121v29h8v-5.25l11-14.48V166h8V146.27l11,14.47V166h8V137h10.5A30.47,30.47,0,0,1,208,167.38V192h8V167.38A38.48,38.48,0,0,0,177.5,129ZM134,52h35c-1,8.63-5.56,13-13.24,13H119.22C120.33,56.37,125.29,52,134,52ZM119,90.67V73h36.78A20.4,20.4,0,0,0,169,68.65v22a25.34,25.34,0,0,1-25,25A25,25,0,0,1,119,90.67Zm25,33a32.19,32.19,0,0,0,15.09-3.79V129H129v-8.89A33.14,33.14,0,0,0,144,123.68ZM129.09,137H136l-6.95,9.15Zm23.06,0h6.94v9.14Zm7,75.5a10.51,10.51,0,0,1-10.5,10.5H148v4h-8v-4h-9v-8h17.64a2.5,2.5,0,0,0,0-5h-9.28a10.5,10.5,0,1,1,0-21H140v-4h8v4h9v8H139.36a2.61,2.61,0,0,0-2.5,2.57,2.49,2.49,0,0,0,2.5,2.43h9.28A10.51,10.51,0,0,1,159.14,212.5ZM188,232V181a9,9,0,0,0-9-9H109a9,9,0,0,0-9,9v51H86v4l8,4H194l8-4v-4Zm-80,0V181a1,1,0,0,1,1-1h70a1,1,0,0,1,1,1v51Z"/></svg>