<?xml version="1.0" encoding="utf-8"?>
<!-- Generator: Adobe Illustrator 27.1.0, SVG Export Plug-In . SVG Version: 6.00 Build 0)  -->
<svg version="1.1" id="ART" xmlns="http://www.w3.org/2000/svg" xmlns:xlink="http://www.w3.org/1999/xlink" x="0px" y="0px"
	 viewBox="0 0 288 288" style="enable-background:new 0 0 288 288;" xml:space="preserve">
<style type="text/css">
	.st0{fill:#312D2A;}
</style>
<path class="st0" d="M217.4,172.9c-4.5-2.6-10-1.9-13.6,1.4l-13.4-7.7c2.8-5.8,4.6-12.1,5-18.8h11.5c1.3,2.6,4,4.3,7.1,4.3
	c4.4,0,8-3.6,8-8s-3.6-8-8-8c-3.1,0-5.8,1.8-7.1,4.3h-11.5c-0.5-6.7-2.2-13.1-5.1-18.9l13.4-7.8c2.2,1.9,4.9,3,7.8,3
	c2,0,4-0.5,5.8-1.6c5.6-3.2,7.5-10.4,4.3-16c-1.6-2.7-4.1-4.7-7.1-5.5s-6.2-0.4-8.9,1.2c-4.5,2.6-6.6,7.7-5.6,12.5l-13.4,7.7
	c-3.7-5.4-8.4-10.1-13.8-13.8l5.8-10c2.9,0.1,5.7-1.3,7.3-4c2.2-3.8,0.9-8.7-2.9-10.9c-3.8-2.2-8.7-0.9-10.9,2.9
	c-1.5,2.7-1.4,5.9,0.2,8.3l-5.7,9.9c-5.8-2.8-12.2-4.6-18.9-5.1V77c4.6-1.6,8-5.9,8-11.1c0-6.5-5.2-11.7-11.7-11.7
	s-11.7,5.2-11.7,11.7c0,5.2,3.4,9.6,8,11.1v15.5c-6.7,0.5-13.1,2.2-18.8,5l-5.8-9.9c1.6-2.4,1.7-5.6,0.2-8.3
	c-2.2-3.8-7.1-5.1-10.9-2.9s-5.1,7.1-2.9,10.9c1.5,2.7,4.4,4.1,7.3,4l5.8,10c-5.4,3.7-10.1,8.4-13.8,13.8L88,107.4
	c0.4-1.8,0.3-3.6-0.2-5.4c-0.8-3-2.8-5.6-5.5-7.1s-5.9-2-8.9-1.2s-5.6,2.8-7.1,5.5c-3.2,5.6-1.3,12.8,4.3,16
	c1.8,1.1,3.8,1.6,5.8,1.6c2.8,0,5.6-1.1,7.8-3l13.4,7.8c-2.8,5.8-4.6,12.1-5,18.8H81c-1.3-2.6-4-4.3-7.1-4.3c-4.4,0-8,3.6-8,8
	s3.6,8,8,8c3.1,0,5.8-1.8,7.1-4.3h11.5c0.5,6.7,2.2,13.1,5.1,18.9l-13.4,7.7c-3.7-3.2-9.2-4-13.6-1.4l0,0c-5.6,3.2-7.5,10.4-4.3,16
	c1.6,2.7,4.1,4.6,7.1,5.5c1,0.3,2,0.4,3.1,0.4c2,0,4-0.5,5.8-1.6c2.7-1.6,4.7-4.1,5.5-7.1c0.5-1.8,0.5-3.6,0.2-5.4l13.4-7.7
	c3.7,5.4,8.3,10.1,13.8,13.8l-5.8,10c-2.9-0.1-5.7,1.3-7.3,4c-2.2,3.8-0.9,8.7,2.9,10.9s8.7,0.9,10.9-2.9c1.5-2.7,1.4-5.9-0.2-8.3
	l5.7-9.9c5.8,2.8,12.2,4.6,18.9,5.1V211c-4.6,1.6-8,5.9-8,11.1c0,6.5,5.2,11.7,11.7,11.7s11.7-5.2,11.7-11.7c0-5.2-3.4-9.6-8-11.1
	v-15.5c6.7-0.5,13.1-2.2,18.8-5l5.8,9.9c-1.6,2.4-1.7,5.6-0.2,8.3c2.2,3.8,7.1,5.1,10.9,2.9c3.8-2.2,5.1-7.1,2.9-10.9
	c-1.5-2.7-4.4-4.1-7.3-4l-5.8-10c5.4-3.7,10.1-8.4,13.8-13.8l13.4,7.7c-1,4.8,1.1,9.9,5.6,12.5c1.8,1,3.8,1.6,5.8,1.6
	c1,0,2-0.1,3.1-0.4c3-0.8,5.6-2.8,7.1-5.5C224.9,183.3,223,176.1,217.4,172.9L217.4,172.9z M207.4,103.9c0.3-1.1,1-2,2-2.6
	c0.7-0.4,1.4-0.6,2.1-0.6c0.4,0,0.8,0.1,1.1,0.2c1.1,0.3,2,1,2.6,2c1.2,2.1,0.5,4.7-1.6,5.9c-1,0.6-2.1,0.7-3.2,0.4
	c-1.1-0.3-2-1-2.6-2S207.1,105,207.4,103.9L207.4,103.9z M80.1,107.1c-1.2,2.1-3.8,2.8-5.9,1.6s-2.8-3.8-1.6-5.9
	c0.6-1,1.5-1.7,2.6-2c0.4-0.1,0.7-0.2,1.1-0.2c0.7,0,1.5,0.2,2.1,0.6l0,0c1,0.6,1.7,1.5,2,2.6C80.8,105,80.6,106.1,80.1,107.1
	L80.1,107.1z M80.5,184.1c-0.3,1.1-1,2-2,2.6s-2.2,0.7-3.2,0.4c-1.1-0.3-2-1-2.6-2c-1.2-2.1-0.5-4.7,1.6-5.9s4.7-0.5,5.9,1.6
	C80.6,181.9,80.8,183,80.5,184.1L80.5,184.1z M143.9,61.7c2.4,0,4.3,1.9,4.3,4.3c0,2.4-1.9,4.3-4.3,4.3s-4.3-1.9-4.3-4.3
	S141.6,61.7,143.9,61.7z M143.9,226.4c-2.4,0-4.3-1.9-4.3-4.3s1.9-4.3,4.3-4.3s4.3,1.9,4.3,4.3S146.3,226.4,143.9,226.4z
	 M143.9,188.2c-24.4,0-44.2-19.8-44.2-44.2s19.8-44.2,44.2-44.2s44.2,19.8,44.2,44.2S168.3,188.2,143.9,188.2z M215.3,185.2
	c-0.6,1-1.5,1.7-2.6,2s-2.3,0.1-3.2-0.4c-1-0.6-1.7-1.5-2-2.6s-0.1-2.3,0.4-3.2c0.6-1,1.5-1.7,2.6-2c0.4-0.1,0.7-0.1,1.1-0.1
	c0.7,0,1.5,0.2,2.1,0.6C215.8,180.5,216.4,183.1,215.3,185.2L215.3,185.2z"/>
<circle class="st0" cx="143.9" cy="167.9" r="8"/>
<path class="st0" d="M120,132.2c-6.5,0-11.7,5.2-11.7,11.7s5.2,11.7,11.7,11.7s11.7-5.2,11.7-11.7S126.4,132.2,120,132.2z
	 M120,148.2c-2.4,0-4.3-1.9-4.3-4.3s1.9-4.3,4.3-4.3s4.3,1.9,4.3,4.3S122.4,148.2,120,148.2z"/>
<circle class="st0" cx="144" cy="120.1" r="8"/>
<path class="st0" d="M167.9,132.3c-6.5,0-11.7,5.2-11.7,11.7s5.2,11.7,11.7,11.7s11.7-5.2,11.7-11.7S174.4,132.3,167.9,132.3z
	 M167.9,148.3c-2.4,0-4.3-1.9-4.3-4.3s1.9-4.3,4.3-4.3s4.3,1.9,4.3,4.3S170.3,148.3,167.9,148.3z"/>
</svg>
