<svg id="ART" xmlns="http://www.w3.org/2000/svg" viewBox="0 0 288 288"><defs><style>.cls-1{fill:#312d2a;}</style></defs><path class="cls-1" d="M103,65H69A10,10,0,0,0,59,75V208a10,10,0,0,0,10,10h34a10,10,0,0,0,10-10V75A10,10,0,0,0,103,65ZM69,73h34a2,2,0,0,1,2,2v26H67V75A2,2,0,0,1,69,73Zm-2,63V109h38v27Zm38,8v29H67V144Zm-2,66H69a2,2,0,0,1-2-2V181h38v27A2,2,0,0,1,103,210Zm-2.17-8.52a4.35,4.35,0,1,1-4.35-4.34A4.35,4.35,0,0,1,100.83,201.48ZM221,164H165.58L150,179.08V210H118.88a16,16,0,0,1-3.33,8H221a10,10,0,0,0,10-10V174A10,10,0,0,0,221,164Zm-34,46H158V172h29Zm36-2a2,2,0,0,1-2,2H195V172h26a2,2,0,0,1,2,2Zm-25.93-98.12-24-24a10,10,0,0,0-14.14,0l-40,40v19.79l22.56,22.56L119,190.78V202.1L197.07,124A10,10,0,0,0,197.07,109.88Zm-49.85,52.68-26.8-26.79,20.16-20.17,26.8,26.8Zm44.19-44.19L173,136.75,146.24,110l18.38-18.38a2,2,0,0,1,2.82,0l24,24A2,2,0,0,1,191.41,118.37Z"/></svg>