<?xml version="1.0" encoding="utf-8"?>
<!-- Generator: Adobe Illustrator 24.0.3, SVG Export Plug-In . SVG Version: 6.00 Build 0)  -->
<svg version="1.1" id="ART" xmlns="http://www.w3.org/2000/svg" xmlns:xlink="http://www.w3.org/1999/xlink" x="0px" y="0px"
	 viewBox="0 0 288 288" style="enable-background:new 0 0 288 288;" xml:space="preserve">
<style type="text/css">
	.st0{fill:#312D2A;}
</style>
<path class="st0" d="M195.9,85.8c3-1.1,6.1-1.9,9.2-2.3c-23.5-23.7-58.6-31.6-90.1-20.3v8.6C142.4,60.7,173.8,66.1,195.9,85.8z
	 M66.2,149h-8c1.8,31.5,20.7,59.4,49.2,72.9l-0.8-9.4C83.2,199.6,68,175.7,66.2,149z M188.8,207.9l-1.9,10.7
	c19.2-11.1,33.5-29.1,39.8-50.4c-3,1.1-6,1.9-9.2,2.4C211.9,185.7,202,198.7,188.8,207.9z M109.1,143V64h-6.2l-55.8-0.1V64H47v79
	H109.1z M101,135H55V72h46V135z M95.6,96.8l-5.7-5.6l-16.5,16.5l-7.3-7.3l-5.7,5.7l13,13L95.6,96.8z M216,123h-10
	c-1.6,0-3-1.3-3-2.9c0-1.7,1.3-3,3-3.1h19v-8h-10v-5.8h-8v5.8h-1c-6.1,0.1-10.9,5-11,11.1c0,6,5,10.9,11,10.9h10c1.7,0,3,1.3,3,3
	s-1.3,3-3,3h-19v8h10v6h8v-6h1c6.1,0,11-4.9,11-11S222.1,123,216,123z M211,89c-21,0-38,17-38,38s17,38,38,38s38-17,38-38
	S232,89,211,89z M211,157c-16.6,0-30-13.4-30-30s13.4-30,30-30s30,13.4,30,30S227.6,157,211,157L211,157z M119.2,190.1
	c-0.3-3.5-3.2-6.1-6.7-6.1H101v4l7.6,3.8v0.2h2.7l4.1,44.4c0.3,3.2,3,6.6,6.7,6.6h3.3c-1.8,2.5-1.3,5.9,1.2,7.7s5.9,1.3,7.7-1.2
	c1.4-1.9,1.4-4.6,0-6.5h24.2c-1.8,2.5-1.3,5.9,1.2,7.7c2.5,1.8,5.9,1.3,7.7-1.2c1.4-1.9,1.4-4.6,0-6.5h1.4v-0.2l7.6-3.8v-4h-53.1
	l-0.6-6h50c4,0,6.8-3.4,7.2-6.8l4.9-27.2h-65.2L119.2,190.1z M175.2,203l-3.2,17.9v0.1h-50l-1.7-18H175.2z"/>
</svg>
