<svg id="ART" xmlns="http://www.w3.org/2000/svg" viewBox="0 0 288 288"><defs><style>.cls-1{fill:#312d2a;}</style></defs><path class="cls-1" d="M237.4,138.29l-32.35-11.8-31-26.46a16,16,0,0,0-10.61-4H55a9,9,0,0,0-9,9v73a9,9,0,0,0,9,9H79.59a17,17,0,0,0,32.49,0h71.84a17,17,0,0,0,32.49,0H234a9,9,0,0,0,9-9V146.63A9,9,0,0,0,237.4,138.29ZM95.84,191a9,9,0,1,1,9-9A9,9,0,0,1,95.84,191Zm104.32,0a9,9,0,1,1,9-9A9,9,0,0,1,200.16,191ZM234,179H216.88a17,17,0,0,0-33.43,0h-70.9a17,17,0,0,0-33.43,0H55a1,1,0,0,1-1-1v-5H74.67a23.12,23.12,0,0,1,5.69-8H54v-6h8v-8H54V105a1,1,0,0,1,1-1H163.45a8,8,0,0,1,5.36,2.06L201,133.51l33.47,12.21a1,1,0,0,1,.58.91V151h-5v8h5v6H215.64a23.12,23.12,0,0,1,5.69,8H235v5A1,1,0,0,1,234,179Zm-67.24-66.74a9,9,0,0,0-6-2.26H152a5,5,0,0,0-5,5v23a5,5,0,0,0,5,5h36.36a5,5,0,0,0,3.31-8.75ZM155,135V118h5.79a1,1,0,0,1,.67.26l19,16.74Zm-43.69,30h73.38a23.12,23.12,0,0,0-5.69,8H117A23.12,23.12,0,0,0,111.31,165Z"/></svg>