<svg id="ART" xmlns="http://www.w3.org/2000/svg" viewBox="0 0 288 288"><defs><style>.cls-1{fill:#fcfbfa;}</style></defs><path class="cls-1" d="M241.11,134.64l-6.06-2.42A72.75,72.75,0,0,0,207.94,127H182.47L172,110h3.19a10,10,0,0,0,10-10V99a10,10,0,0,0-10-10H159.15L128.47,39H110.78l6.93,22h-6.48v8h9L128,93.62V127H108.69a97.46,97.46,0,0,0-22.77,2.71L66.05,107H45.39l12.39,32H45.23v8H58.55L45.39,181H66.05l21.33-24.38A97.21,97.21,0,0,0,108.69,159H128l-.11,34.39L120,219h-8.79v8h6.34l-6.75,22h17.65l30.68-50h16.08a10,10,0,0,0,10-10v-1a10,10,0,0,0-10-10H172l11.6-18.91-.15-.09h24.45a72.75,72.75,0,0,0,27.11-5.22l6.06-2.42h0a9,9,0,0,0,0-16.72ZM175.23,97a2,2,0,0,1,2,2v1a2,2,0,0,1-2,2h-8.1l-3.07-5ZM121.69,47H124l49.09,80H136V92.38ZM62.42,115,77.3,132,65,135.38,57.07,115Zm0,58H57.07l8.59-22.19,13.06,3.56Zm112.81,13a2,2,0,0,1,2,2v1a2,2,0,0,1-2,2H164.06l3.07-5ZM124,241h-2.35l14.24-46.39L136,159h38.32Zm114.15-97.07-6.06,2.42A64.59,64.59,0,0,1,207.94,151H108.69a89,89,0,0,1-23.42-3.14L67.43,143l17.84-4.86A89,89,0,0,1,108.69,135h99.25a64.59,64.59,0,0,1,24.14,4.65l6.06,2.42a1,1,0,0,1,0,1.86Z"/></svg>