<svg id="ART" xmlns="http://www.w3.org/2000/svg" viewBox="0 0 288 288"><defs><style>.cls-1{fill:#fcfbfa;}</style></defs><path class="cls-1" d="M81.05,135H80v-5.38a20.59,20.59,0,0,0,6-14.42V86H60c-9.25,0-15,6.13-15,16v14A19.36,19.36,0,0,0,51,130V135H50c-11.36,0-21,9.33-21,20.37V179h8V155.41c0-6.59,6-12.37,13-12.37H53.4a18.14,18.14,0,0,0,12.15,4.71h.07A18.12,18.12,0,0,0,77.71,143H81a12.51,12.51,0,0,1,3.32.48,37.65,37.65,0,0,1,4.75-6.83A20.75,20.75,0,0,0,81.05,135ZM60,94H77.55A5.25,5.25,0,0,1,72,98H53.58C55,94,58.48,94,60,94Zm12,12a14.7,14.7,0,0,0,6-1.2v10.44a12.64,12.64,0,0,1-12.36,12.58c-7,0-12.64-5.31-12.64-11.82V106Zm-6.41,33.75h0A9.93,9.93,0,0,1,59,137.33v-2.59a21,21,0,0,0,6.64,1.08A19.57,19.57,0,0,0,72,134.73v2.7A10,10,0,0,1,65.59,139.75ZM239.05,135H238V130A19.36,19.36,0,0,0,244,116V102c0-9.87-5.75-16-15-16H203v29.24a20.59,20.59,0,0,0,6,14.42V135h-1a20.9,20.9,0,0,0-8.05,1.66,38.26,38.26,0,0,1,4.73,6.81A12.44,12.44,0,0,1,208,143h3.33a18.11,18.11,0,0,0,12.08,4.71h.08A18.14,18.14,0,0,0,235.6,143H239c6.91,0,13,5.78,13,12.37V179h8V155.41C260,144.37,250.4,135,239.05,135ZM236,116c0,6.51-5.67,11.82-12.64,11.82A12.64,12.64,0,0,1,211,115.24V104.8a14.7,14.7,0,0,0,6,1.2h19Zm-7-22c1.52,0,5,0,6.42,4H217a5.08,5.08,0,0,1-5.51-4Zm-5.55,45.75h0a10,10,0,0,1-6.41-2.32v-2.7a19.57,19.57,0,0,0,6.36,1.09,21,21,0,0,0,6.64-1.08v2.59A9.93,9.93,0,0,1,223.45,139.75ZM86,161v18h8V161a23,23,0,0,1,23-23h12.25a15.12,15.12,0,0,0,29.5,0H172a23,23,0,0,1,23,23v18h8V161a31,31,0,0,0-30-31,33.74,33.74,0,0,0,5.52-7.33l.8-1.4L168,75.93,168,76c-2.61-8.1-9.87-14-18.42-14H138.41c-9.59,0-17.56,7.36-19.15,17l-10.53,42.3.8,1.4a33.56,33.56,0,0,0,5.55,7.36A31,31,0,0,0,86,161Zm41-70.48a23.17,23.17,0,0,0,17-4.44,22.87,22.87,0,0,0,17,4.44v6.1c0,10.2-7.64,18.49-17,18.49s-17-8.29-17-18.49Zm17,51.27c-3.65,0-7-3-7-6.24V122.06a23.64,23.64,0,0,0,14,0v13.51C151,138.82,147.65,141.79,144,141.79Zm15-12.53V117.79a26.45,26.45,0,0,0,8.31-11.63l3.47,13.91A20.32,20.32,0,0,1,159,129.26ZM138.41,70h11.13c6.28,0,11.39,5.56,11.45,12.41-3.28.66-8.74.62-14.3-4.44L144,75.52,141.31,78c-5.58,5.08-11.07,5.1-14.35,4.44a12.67,12.67,0,0,1,.14-1.76l.69-2.79h0A11.52,11.52,0,0,1,138.41,70ZM120.7,106.33a26.54,26.54,0,0,0,8.3,11.5v11.41a20.3,20.3,0,0,1-11.72-9.17ZM195,220h-6V169a9,9,0,0,0-9-9H109a9,9,0,0,0-9,9v51H86v4l8,4H195l8-4v-4Zm-86.34,0,16.44-16.44,13.8,12.87L167,188.7V209h8V175H141.14v8h20.25l-22.65,22.34-13.84-12.9L108,209.34V169a1,1,0,0,1,1-1h71a1,1,0,0,1,1,1v51Z"/></svg>