<?xml version="1.0" encoding="utf-8"?>
<!-- Generator: Adobe Illustrator 24.0.3, SVG Export Plug-In . SVG Version: 6.00 Build 0)  -->
<svg version="1.1" id="ART" xmlns="http://www.w3.org/2000/svg" xmlns:xlink="http://www.w3.org/1999/xlink" x="0px" y="0px"
	 viewBox="0 0 288 288" style="enable-background:new 0 0 288 288;" xml:space="preserve">
<style type="text/css">
	.st0{fill:#FCFBFA;}
</style>
<path class="st0" d="M224,173H85v-17.8l11.3-11.3c6.3,2.9,13.7,0.1,16.5-6.2c2.9-6.3,0.1-13.7-6.2-16.5c-6.3-2.9-13.7-0.1-16.5,6.2
	c-1.6,3.5-1.5,7.6,0.3,11.1L77,151.8V173H64l-8,4v4h14v32h148v-32h14v-4L224,173z M101.5,128c2.5,0,4.5,2,4.5,4.5s-2,4.5-4.5,4.5
	s-4.5-2-4.5-4.5C97,130,99,128,101.5,128z M210,205H78v-24h132V205z M109,167h8c0.1-10.2,8.3-18.4,18.5-18.3h9.7
	c1.4,7.1,7.6,12.1,14.8,12.1c7.4,0,13.7-5.4,14.8-12.1h9.7c10.2,0,18.4,8.2,18.5,18.3h8c0-12.8-9.3-23.8-22-25.9
	c2.2-2.2,4-4.7,5.6-7.4l0.8-1.4L184,86.9V87c-2.6-8.1-9.9-14-18.4-14h-11.2c-9.6,0-17.6,7.4-19.1,17l-10.5,42.3l0.8,1.4
	c1.5,2.7,3.4,5.2,5.5,7.4C118.4,143.2,109,154.1,109,167z M143,101.5c6,0.8,12.1-0.8,17-4.4c4.8,3.7,11,5.3,17,4.4v6.1
	c0,10.2-7.6,18.5-17,18.5s-17-8.3-17-18.5V101.5z M160,152.8c-3.6,0-7-3-7-6.2v-13.5c4.6,1.4,9.4,1.4,14,0v13.5
	C167,149.8,163.6,152.8,160,152.8z M175,140.3v-11.5c3.8-3,6.7-7.1,8.3-11.6l3.5,13.9C184.2,135.5,180,138.8,175,140.3z M154.4,81
	h11.1c6.3,0,11.4,5.6,11.4,12.4c-3.3,0.7-8.7,0.6-14.3-4.4l-2.7-2.5l-2.7,2.5c-5.6,5.1-11.1,5.1-14.4,4.4c0-0.6,0.1-1.2,0.1-1.8
	l0.7-2.8l0,0C145.3,84.3,149.6,81.1,154.4,81z M136.7,117.3c1.7,4.5,4.5,8.5,8.3,11.5v11.4c-4.9-1.5-9.1-4.7-11.7-9.2L136.7,117.3z"
	/>
</svg>
