<svg id="ART" xmlns="http://www.w3.org/2000/svg" viewBox="0 0 288 288"><defs><style>.cls-1{fill:#312d2a;}</style></defs><path class="cls-1" d="M151,132.5A13.52,13.52,0,0,0,137.5,119H41v8H58.28L68.7,138H41v8h96.5A13.52,13.52,0,0,0,151,132.5Zm-8,0a5.51,5.51,0,0,1-5.5,5.5H119.72L109.3,127h28.2A5.51,5.51,0,0,1,143,132.5ZM69.3,127h29l10.42,11h-29ZM247,183H208.39a12.55,12.55,0,0,0,6.76-7L235.5,176A18.38,18.38,0,0,0,254,158.16c.12-7.54-13.5-19.14-13.64-19.26l-31.29-25.57A50.29,50.29,0,0,0,177.35,102H41v8H177.35a42.31,42.31,0,0,1,26,9H165.65a6,6,0,0,0-4.36,10.13l4.75,5A38.12,38.12,0,0,0,193.62,146h42.73a61,61,0,0,1,7.35,8H209.11a18.61,18.61,0,0,1,9.89,8h26.07a10.63,10.63,0,0,1-9.58,6h-20a12.51,12.51,0,0,0-12-9H180.81a12.51,12.51,0,0,0-12,9H105.49a12.51,12.51,0,0,0-12-9H70.81a12.51,12.51,0,0,0-12,9H41v8H59.16a12.55,12.55,0,0,0,6.76,7H41l-8,4v4H255v-4Zm-75.15-54.37L170.3,127h42.86l13.46,11h-33A30.08,30.08,0,0,1,171.85,128.63ZM105.15,176h64a12.55,12.55,0,0,0,6.76,7H98.39A12.55,12.55,0,0,0,105.15,176Zm87,.72a12.51,12.51,0,0,0,6.45,6.28H185.7A12.56,12.56,0,0,0,192.16,176.72ZM208,171.5a4.5,4.5,0,1,1-4.5-4.5A4.51,4.51,0,0,1,208,171.5ZM180.81,167a4.5,4.5,0,1,1-4.5,4.5A4.51,4.51,0,0,1,180.81,167ZM98,171.5a4.5,4.5,0,1,1-4.5-4.5A4.51,4.51,0,0,1,98,171.5ZM70.81,167a4.5,4.5,0,1,1-4.5,4.5A4.51,4.51,0,0,1,70.81,167Zm11.35,9.72A12.51,12.51,0,0,0,88.61,183H75.7A12.56,12.56,0,0,0,82.16,176.72ZM55.31,162H41v-8H65.2A18.61,18.61,0,0,0,55.31,162Zm43.8-8h76.2a18.54,18.54,0,0,0-9.89,8H109A18.61,18.61,0,0,0,99.11,154Z"/></svg>