<svg id="icon_art" data-name="icon art" xmlns="http://www.w3.org/2000/svg" viewBox="0 0 288 288"><defs><style>.cls-1{fill:#fcfbfa;}</style></defs><title>RMIL_Business_World_Globe_Western_Air_RGB</title><path class="cls-1" d="M144,28A116,116,0,1,0,260,144,116.13,116.13,0,0,0,144,28Zm31,35h-6.89l-1.29-11.75a4,4,0,0,0-1.56-2.67L163,47V37.67a107.41,107.41,0,0,1,42.67,17.72L180.9,81H179V67.36A4.32,4.32,0,0,0,175,63ZM137.61,36.19l-1,2.88-9.72-1.3-.12-.39Q132.12,36.53,137.61,36.19ZM98.52,46.06,113,56.24a3.89,3.89,0,0,0,1.78.69L129,58.83l4,4-.68,1-10.66-3.28a4,4,0,0,0-4.13,1.13L107.1,73.13a4,4,0,0,0-1,2.69v6.24a4,4,0,0,0,3.56,4l6.34.71L116.5,90a3.29,3.29,0,0,0,3.5,3h9a3.49,3.49,0,0,0,3.72-3.11l.69-4.82,7-2.34a4.87,4.87,0,0,0,.53-.21l4.34-2.18L150,83v8l-12.43,5a4,4,0,0,0-2.4,3.23l-.83,7.5-7.8,5.2a4,4,0,0,0-1.73,2.67l-1,6.23a3.88,3.88,0,0,0,.1,1.76l2.38,8.36-2.86-.52-2.32-6.19a4,4,0,0,0-3.75-2.59H106.94a4,4,0,0,0-2.4.8l-4.15,3.11a4,4,0,0,0-1.54,3.9L102,147.16a4,4,0,0,0,3.94,3.3h6.8l8.21,7.3a4,4,0,0,0,3,1l19-1.91,9.07,8.17a4.07,4.07,0,0,0,1.81.93L162,168h8l7,4v15l-4.75,12.79L153,210a4.77,4.77,0,0,0-2,4v10l-6.7,4.26c-1.17.73-1.3,2.36-1.3,3.74v6a10.34,10.34,0,0,1-4,1,3.7,3.7,0,0,1-3-2V195c0-.75-.6-1.36-1-2l-10-15V166a4.27,4.27,0,0,0-3-4l-13.11-3.56L87.74,140.18,87,136.33a3.91,3.91,0,0,0-.59-1.43l-4.16-6.24a4,4,0,0,0-6.15-.61l-2.31,2.31L62.51,107.88,67,97a6.7,6.7,0,0,0,0-2V88c0-2.21-2.79-4-5-4H54.24A108.71,108.71,0,0,1,98.52,46.06ZM144,252A108,108,0,0,1,49.37,92H59v3l-4.58,11.49a4,4,0,0,0,.12,3.33L69.08,138.9a4,4,0,0,0,6.41,1l2.78-2.78,1,1.52.89,4.41a4,4,0,0,0,1.3,2.25l22.86,19.73a4,4,0,0,0,1.51.82L117,169v10c0,.75.6,1.36,1,2l10,15v42a2.8,2.8,0,0,0,.6,1.91S132,247,138,247a23.86,23.86,0,0,0,11-3s2-1.42,2-3v-7l6-4a5.24,5.24,0,0,0,2-4V216l18.44-9.93a4,4,0,0,0,1.83-2.16S185,188.46,185,188V170c0-1.34-1-2.23-2.08-3l-9.35-6.23A5.35,5.35,0,0,0,171,160h-7l-7.38-1.63-9.6-8.65a4,4,0,0,0-3.08-1l-19,1.9-8-7.14a3.94,3.94,0,0,0-2.65-1h-5l-2.11-11.93,1.13-.84h6.28l2.14,5.71a4,4,0,0,0,3,2.53L131.16,140a4,4,0,0,0,4.56-5l-3.91-13.68.61-3.63,7.91-5.28a4,4,0,0,0,1.75-2.88l.79-7,12.4-5.31A4.09,4.09,0,0,0,158,94V81a4.21,4.21,0,0,0-2-4l-8.68-4.67a4,4,0,0,0-3.73-.08l-6,3-9.08,3a4,4,0,0,0-2.69,3.23l-.55,3.84h-1.45l-.49-2.89a4,4,0,0,0-3.5-3.32l-5.79-.64V77.37L121.7,69l11.08,3.4a4,4,0,0,0,4.5-1.6l4.16-6.23a4,4,0,0,0-.5-5.05l-7.27-7.27a4.06,4.06,0,0,0-2.3-1.14l-14.61-1.95-9.49-6.69A104.29,104.29,0,0,1,118.92,39l1,3.54a4,4,0,0,0,3.32,2.86l15.58,2.08a3.27,3.27,0,0,0,.54,0,4,4,0,0,0,3.78-2.71c1.39-4.07,2.32-6.84,2.95-8.73q4.5.07,8.9.53V49c0,1.26,0,2,1.3,2.86L159.11,54,161,67.89a3.7,3.7,0,0,0,4,3.11H171V85a4,4,0,0,0,4,4h8a3.14,3.14,0,0,0,2.47-1.2l26.65-27.54A108,108,0,0,1,144,252Z"/></svg>