<svg id="Icon_art" data-name="Icon art" xmlns="http://www.w3.org/2000/svg" viewBox="0 0 288 288">
  <defs>
    <style>
      .cls-1 {
        fill: #312d2a;
      }
    </style>
  </defs>
  <g id="Instance_Pools" data-name="Instance Pools">
    <path class="cls-1" d="M243,252H45a9,9,0,0,1-9-9V45a9,9,0,0,1,9-9H243a9,9,0,0,1,9,9V243A9,9,0,0,1,243,252ZM45,44a1,1,0,0,0-1,1V243a1,1,0,0,0,1,1H243a1,1,0,0,0,1-1V45a1,1,0,0,0-1-1Z"/>
    <g>
      <g>
        <path class="cls-1" d="M181.5,117.58h-75v-40h75Zm-67-8h59v-24h-59Z"/>
        <circle class="cls-1" cx="161.5" cy="97.58" r="4"/>
      </g>
      <g>
        <path class="cls-1" d="M222,163.58H147v-40h75Zm-67-8h59v-24H155Z"/>
        <circle class="cls-1" cx="202" cy="143.58" r="4"/>
      </g>
      <g>
        <path class="cls-1" d="M141,163.58H66v-40h75Zm-67-8h59v-24H74Z"/>
        <circle class="cls-1" cx="121" cy="143.58" r="4"/>
      </g>
      <path class="cls-1" d="M144.46,210.42c-60.7,0-83.8-12.8-90.91-18.3L52,190.92V163.58h8V186.9c7.16,4.77,29.44,15.52,84.46,15.52,48,0,74.35-11.5,83.54-16.53V163.58h8v26.89l-1.94,1.17C226.71,196.05,198.55,210.42,144.46,210.42Z"/>
    </g>
  </g>
</svg>
