<svg id="ART" xmlns="http://www.w3.org/2000/svg" viewBox="0 0 288 288"><defs><style>.cls-1{fill:#312d2a;}</style></defs><path class="cls-1" d="M151.52,133.89H148V121h15v-8H148V102h-8v11h-3.52a14.45,14.45,0,1,0,0,28.89H140V155H125v8l15,0v11h8V163h3.52a14.53,14.53,0,1,0,0-29.06Zm-11.52,0h-3.52a6.49,6.49,0,0,1-6.54-6.42,6.59,6.59,0,0,1,6.54-6.47H140ZM151.51,155H148V141.89h3.52a6.56,6.56,0,0,1,0,13.11Zm86.25-17.68a45.86,45.86,0,0,1-7.21,24.74l-6.74-4.31a38.08,38.08,0,0,0,.76-39.63l6.9-4.05A46,46,0,0,1,237.76,137.32ZM219,120.3a33.77,33.77,0,0,1-.67,35.13l-6.74-4.31a25.77,25.77,0,0,0,.51-26.77ZM188,55.08H100a11,11,0,0,0-11,11V221.91a11,11,0,0,0,11,11h88a11,11,0,0,0,11-11V66.08A11,11,0,0,0,188,55.08Zm3,166.83a3.1,3.1,0,0,1-3,3.09H100a3.1,3.1,0,0,1-3-3.09V213h94ZM191,205H97V66.08A3.09,3.09,0,0,1,100,63h88a3.09,3.09,0,0,1,3,3.08Z"/></svg>