<svg id="ART" xmlns="http://www.w3.org/2000/svg" viewBox="0 0 288 288"><defs><style>.cls-1{fill:#312d2a;}</style></defs><path class="cls-1" d="M220.5,90c-7.62,0-32.5.79-32.5,11V102h-1c-10.46,0-20.34,1-27.82,2.83-9.54,2.32-14.18,5.74-14.18,10.43V126c23.87.47,38.48,5,40.83,7.9-2.13,2.46-15.51,7.43-40.83,7.91v8c11.9-.23,23-1.47,31.6-3.57a51.59,51.59,0,0,0,9.4-3.12v18.63c-1.53,2.49-16.22,8.19-45,8.19-28,0-42.67-5.4-44.84-8H88v56.28c0,5.39,5.7,9.37,17.42,12.18C115,232.74,127.61,234,141,234s26-1.26,35.58-3.54c11.72-2.81,17.42-6.79,17.42-12.18V193.6c11.7-.51,35-2.81,35-12.94V160.52c10.35-.72,24-3.08,24-10.52V101C253,90.79,228.12,90,220.5,90ZM186,218c-1.69,2.45-16.47,8-45,8s-43.31-5.54-45-8V199.23a51.59,51.59,0,0,0,9.4,3.12C115,204.68,127.6,206,141,206s26-1.28,35.6-3.61a51.59,51.59,0,0,0,9.4-3.12Zm0-28.23c-1.53,2.49-16.22,8.18-45,8.18s-43.47-5.69-45-8.18V171.25a52.42,52.42,0,0,0,9.4,3.11C115,176.69,127.6,178,141,178s26-1.29,35.6-3.62a52.42,52.42,0,0,0,9.4-3.11Zm59-73.39c-1.53,1-6.7,2.78-16,3.51v-4.64a6.48,6.48,0,0,0-1.09-3.6,80.93,80.93,0,0,0,13.69-1.91c.79-.19,2-.5,3.4-1Zm0,16.28c-1.53,1-6.7,2.78-16,3.51v-8.25c5.22-.37,11.28-1.16,16-2.82Zm-24,3.83c-1.72,1.78-10.81,4.9-27,5.64V134a7.74,7.74,0,0,0-2.37-5.49,116.36,116.36,0,0,0,23.19-2.76,44.6,44.6,0,0,0,6.18-1.93Zm-27,13.65c6.95-.31,19-1.34,27-4.63v12.69c-.72.66-3.26,2.14-9.24,3.47A107,107,0,0,1,194,163.84ZM243.13,101c-3.68,1.37-11.48,3-22.63,3s-18.95-1.58-22.63-3c3.68-1.37,11.49-3,22.63-3S239.45,99.58,243.13,101ZM187,110c18.61,0,30,3.15,33.32,5.27-3.3,2.12-14.74,5.26-33.32,5.26s-30-3.14-33.32-5.26C157,113.15,168.39,110,187,110Zm7,75.59V171.86a108.44,108.44,0,0,0,21.86-2.94,41.68,41.68,0,0,0,5.14-1.64V180.1C219.14,181.87,210,184.87,194,185.59Zm35-33.09v-8.29c5.22-.37,11.28-1.16,16-2.82v7.67C243.42,150.07,238.23,151.79,229,152.5ZM48.3,183.81A102.66,102.66,0,0,1,55.75,156H139V79.66a149.57,149.57,0,0,1,43.79-10.41,12,12,0,1,0-.18-8A156.69,156.69,0,0,0,139,71.08V63H50v86.14c-5.32,11.75-8.78,24.06-9.72,34.46a12,12,0,1,0,8,.21ZM194,61a4,4,0,1,1-4,4A4,4,0,0,1,194,61Zm-63,87H58v-3.59c0-6.59,6-12.37,13-12.37H82.28l12.38,13.43L106.86,132H119a12.21,12.21,0,0,1,12,12.4ZM101,95a14.7,14.7,0,0,0,6-1.2v10.44a12.64,12.64,0,0,1-12.36,12.58c-7,0-12.64-5.31-12.64-11.82V95ZM82.58,87c1.38-4,4.9-4,6.42-4h17.55A5.25,5.25,0,0,1,101,87ZM88,123.74a21,21,0,0,0,6.64,1.08,19.57,19.57,0,0,0,6.36-1.09v2.84l-6.39,7.05L88,126.43ZM131,71v57.13A19.61,19.61,0,0,0,119,124H109v-5.36a20.59,20.59,0,0,0,6-14.42V75H89c-9.25,0-15,6.13-15,16v14a19.36,19.36,0,0,0,6,14V124H71a21.11,21.11,0,0,0-13,4.51V71ZM44,199a4,4,0,1,1,4-4A4,4,0,0,1,44,199Z"/></svg>