<svg id="ART" xmlns="http://www.w3.org/2000/svg" viewBox="0 0 288 288"><defs><style>.cls-1{fill:#fcfbfa;}</style></defs><path class="cls-1" d="M200,200l8-8v36H125v-8h75ZM76,180H68V47H175.66L208,79.34V144l-8,8V88H167V55H76ZM175,57.66V80h22.34ZM125,234v8h75l8-4v-4H125Zm130-90.4a9,9,0,0,1,0,12.73l-24.75,24.75-5.66-5.66,24.75-24.75a1,1,0,0,0,0-1.41l-3.54-3.54L187,204.6l-18.89,3.33L171.4,189l74.43-74.43,15.56,15.56-9.9,9.9Zm-9.19-17.67-4.24,4.24,4.24,4.24,4.24-4.24Zm-5.65,14.14-4.25-4.25-57.09,57.1-.91,5.15,5.15-.91ZM188,100H88v8H188Zm0,20H88v8H188Zm0,20H88v8H188ZM88,168h82v-8H88ZM40,186h79v56H63.14L51.69,257H40Zm8,62.65,11.2-14.56H111V194H48ZM92,225v-9h7V202H83v14l5,11Zm-23,0v-9h7V202H60v14l5,11Z"/></svg>