<svg id="ART" xmlns="http://www.w3.org/2000/svg" viewBox="0 0 288 288"><defs><style>.cls-1{fill:#fcfbfa;fill-rule:evenodd;}</style></defs><path class="cls-1" d="M113.2,133l-4.41,85H220.21l-4.41-85Zm4,77,3.59-69h87.4l3.59,69ZM178,148h8v3.5a21.5,21.5,0,0,1-43,0V148h8v3.5a13.5,13.5,0,0,0,27,0ZM70,104h75v23h8V96H129V92.5a21.5,21.5,0,0,0-43,0V96H62V201h41.66l.42-8H70ZM94,92.5a13.5,13.5,0,0,1,27,0V96H94Zm77.93-21.45-.29-3.39A6.24,6.24,0,0,0,165.4,62H156v4l7.62,3.8V70h.19l3.3,38.34a6.23,6.23,0,0,0,6.23,5.66h2.53a4.46,4.46,0,0,0-.7,2.39,4.54,4.54,0,1,0,9.07,0,4.46,4.46,0,0,0-.7-2.39h19.59a4.46,4.46,0,0,0-.7,2.39,4.54,4.54,0,1,0,8.17-2.69L218,110v-4H174.93l-.51-6H215a6.74,6.74,0,0,0,6.65-5.76l4.16-23.19Zm42,21H173.73l-1.11-13h43.59Z"/></svg>