<?xml version="1.0" encoding="utf-8"?>
<!-- Generator: Adobe Illustrator 24.0.3, SVG Export Plug-In . SVG Version: 6.00 Build 0)  -->
<svg version="1.1" id="ART" xmlns="http://www.w3.org/2000/svg" xmlns:xlink="http://www.w3.org/1999/xlink" x="0px" y="0px"
	 viewBox="0 0 288 288" style="enable-background:new 0 0 288 288;" xml:space="preserve">
<style type="text/css">
	.st0{fill:#312D2A;}
</style>
<path class="st0" d="M193.8,108.8c19.4,27.5,12.9,65.6-14.7,85s-65.6,12.9-85-14.7s-12.9-65.6,14.7-85c21.1-14.9,49.3-14.9,70.4,0
	l5.7-5.7c-30.7-22.5-73.8-16-96.3,14.7s-16,73.8,14.7,96.3s73.8,16,96.3-14.7c17.9-24.3,17.9-57.4,0-81.7L193.8,108.8z M170.5,102.8
	c-22.8-14.7-53.1-8.1-67.7,14.7s-8.1,53.1,14.7,67.7s53.1,8.1,67.7-14.7c10.4-16.2,10.4-36.9,0-53.1l-5.8,5.8
	c11.4,19.5,4.9,44.7-14.7,56.1c-19.5,11.4-44.7,4.9-56.1-14.7s-4.9-44.7,14.7-56.1c12.8-7.5,28.6-7.5,41.4,0L170.5,102.8z M144,123
	c1.9,0,3.8,0.3,5.6,0.8l6.2-6.2c-14.6-6.5-31.7,0.1-38.2,14.7c-6.5,14.6,0.1,31.7,14.7,38.2c14.6,6.5,31.7-0.1,38.2-14.7
	c3.3-7.5,3.3-16.1,0-23.6l-6.3,6.2c3.1,11.2-3.5,22.7-14.7,25.8c-11.2,3.1-22.7-3.5-25.8-14.7c-3.1-11.2,3.5-22.7,14.7-25.8
	C140.2,123.3,142.1,123,144,123z M220.2,67.8l-1.8-23.6l-23.5,23.5l1.4,18.4l-4.8,4.8l0,0l-44.6,44.6c-4.7-1.6-9.8,0.9-11.4,5.6
	c-1.6,4.7,0.9,9.8,5.6,11.4c4.7,1.6,9.8-0.9,11.4-5.6c0.6-1.9,0.6-3.9,0-5.8l44.6-44.6l0,0l4.9-4.8l18.4,1.4l23.5-23.5L220.2,67.8z
	 M203.7,78.6l-0.6-7.9l8.6-8.6l0.6,7.9l-1.5,1.5L203.7,78.6z M217.3,84.9l-7.9-0.6l7.1-7.1l1.5-1.5l7.9,0.6L217.3,84.9z"/>
</svg>
