<?xml version="1.0" encoding="utf-8"?>
<!-- Generator: Adobe Illustrator 24.0.3, SVG Export Plug-In . SVG Version: 6.00 Build 0)  -->
<svg version="1.1" id="ART" xmlns="http://www.w3.org/2000/svg" xmlns:xlink="http://www.w3.org/1999/xlink" x="0px" y="0px"
	 viewBox="0 0 288 288" style="enable-background:new 0 0 288 288;" xml:space="preserve">
<style type="text/css">
	.st0{fill:#312D2A;}
</style>
<path class="st0" d="M150,222h-13l0,0h-8.02v4l8.02,4l0,0h13l0,0l8.02-4v-4H150L150,222z M140,43h8v25h-8V43z M196.3,98.2
	l21.8-11.74l3.79,7.04l-21.8,11.74L196.3,98.2z M171.67,74.54l13.56-20.72l6.69,4.38l-13.56,20.72L171.67,74.54z M96.09,58.19
	l6.69-4.38l13.56,20.72l-6.69,4.38L96.09,58.19z M66.1,93.53l3.79-7.04l21.8,11.74l-3.79,7.04L66.1,93.53z M144.61,85.29
	c-24.87,0-45.88,20.48-45.88,44.71c0,16.1,5.13,25.17,9.66,33.18c3.09,5.46,5.82,10.31,6.61,16.9l0,0v24.13l7.86,11.79H164l9-11.63
	v-24.29l0,0c0.79-6.59,3.53-11.43,6.63-16.9c4.54-8,9.69-17.07,9.69-33.18C189.29,105.32,169.29,85.32,144.61,85.29z M140,144.71
	c0-2.21,1.79-4,4-4s4,1.79,4,4s-1.79,4-4,4S140,146.92,140,144.71z M165,188v6h-42v-6H165z M160,208h-32.9l-4-6h41.57L160,208z
	 M172.63,159.23c-3.39,6-6.88,12.12-7.72,20.77H148v-24c6.25-2.21,9.52-9.07,7.31-15.31c-2.21-6.25-9.07-9.52-15.31-7.31
	c-6.25,2.21-9.52,9.07-7.31,15.31c1.21,3.42,3.9,6.11,7.31,7.31v24h-17c-0.84-8.64-4.32-14.79-7.7-20.76
	c-4.23-7.5-8.62-15.24-8.62-29.24c0-22,19.59-36.71,37.88-36.71c22.68,0,36.71,19.06,36.71,36.71c0.05,14-4.35,21.74-8.6,29.23
	H172.63z"/>
</svg>
