<svg id="ART" xmlns="http://www.w3.org/2000/svg" viewBox="0 0 288 288"><defs><style>.cls-1{fill:#312d2a;}</style></defs><path class="cls-1" d="M256,75v8H241V75Zm-75,0H166v8h15Zm59-30.65L229.38,55,235,60.62,245.65,50ZM215,34h-8V49h8ZM192.62,55,182,44.35,176.35,50,187,60.62ZM235,78.73c0,8.34-2.75,13.22-5,17.14-1.72,3-3.07,5.44-3.07,9.13v13l-16,8.4L195,118V105c0-3.69-1.35-6.09-3.06-9.13C189.74,92,187,87.07,187,78.73,187,65.87,198.13,55,211.3,55A23.76,23.76,0,0,1,235,78.73ZM219,109H203v4.17l8,4.21,8-4.21Zm8-30.27A15.77,15.77,0,0,0,211.3,63,16.24,16.24,0,0,0,195,78.73c0,6.24,1.9,9.63,3.92,13.22a28.89,28.89,0,0,1,3.71,9H207V88h8v13h4.37a28.82,28.82,0,0,1,3.73-9.06C225.12,88.36,227,85,227,78.73ZM110.09,154.82a9.91,9.91,0,1,0,9.91,9.9A9.91,9.91,0,0,0,110.09,154.82ZM207,198h8v-8h-8Zm-14,0h8v-8h-8Zm14-14h8v-8h-8Zm0-14h8v-8h-8Zm0-14h8v-8h-8Zm0-14h8v-8h-8ZM109.94,74.87,188,119.93v90.14l-74.06,42.75V253h-.3l-3.7,2.13L106.25,253h-.31v-.18L31.88,210.07V119.93ZM180,200.64V129.77l-10.49,5.76a15,15,0,0,1,.49,3.73,14.72,14.72,0,0,1-8,13.11v24.75a15,15,0,0,1,3.68,2.7,14.77,14.77,0,0,1,3.69,14.67ZM160,195a6.74,6.74,0,0,0,0-9.54,6.85,6.85,0,0,0-4.93-2l0-1.5h0l0,1.5a6.75,6.75,0,0,0-5.83,9.86l-2.35,1.22h0l2.35-1.22a6.6,6.6,0,0,0,1.22,1.65A6.75,6.75,0,0,0,160,195Zm-45.5,26a6.75,6.75,0,0,0,1.31-7.68h0a6.74,6.74,0,0,0-12.23.14A6.78,6.78,0,0,0,105,221a6.74,6.74,0,0,0,9.54,0Zm1.27-105.76a6.77,6.77,0,1,0-1.27,1.76,6.6,6.6,0,0,0,1.27-1.76l2.23,1.11h0ZM154,175.58V153.93a14.66,14.66,0,0,1-9.18-4.24c-.24-.24-.45-.48-.67-.73l-7.74,4.47.45.43a38.12,38.12,0,0,1,6.66,9l1,1.9-1,1.9a38.28,38.28,0,0,1-6.62,8.93l7.74,4.47.18-.2A14.66,14.66,0,0,1,154,175.58Zm-22.8-5.65a30.36,30.36,0,0,0,4.17-5.21,30.4,30.4,0,0,0-47.18-5.21A30.85,30.85,0,0,0,84,164.72a30.85,30.85,0,0,0,4.17,5.21A30.45,30.45,0,0,0,131.2,169.93ZM74.36,180l8-4.62a38.41,38.41,0,0,1-6.49-8.78l-1-1.9,1-1.9a38.32,38.32,0,0,1,6.66-9h0l.3-.29-8-4.61c-.22.25-.43.49-.67.73A14.66,14.66,0,0,1,65,153.93v21.65a14.63,14.63,0,0,1,9.18,4.24ZM59,134.49A6.75,6.75,0,0,0,59,144a6.76,6.76,0,0,0,9.54,0,6.73,6.73,0,0,0,1-8.26l2.27-1.38h0l-2.27,1.38a6.6,6.6,0,0,0-1-1.29A6.75,6.75,0,0,0,59,134.49ZM76.56,132a14.74,14.74,0,0,1,1.73,9.73l11.35,6.55A38.49,38.49,0,0,1,106,142.8V126.5a14.61,14.61,0,0,1-6.68-3.82A14.35,14.35,0,0,1,97.25,120ZM160,134.49a6.74,6.74,0,0,0-9.54,0,6.24,6.24,0,0,0-1,1.28h0a6.76,6.76,0,0,0-.71,5.37l1.58,2.74c.05.05.08.11.13.15a6.68,6.68,0,0,0,4.61,2l0,1.49h0l0-1.49a6.81,6.81,0,0,0,4.93-2A6.74,6.74,0,0,0,160,134.49ZM142.44,132l-20.32-11.73a14.53,14.53,0,0,1-8.12,6.13v16.49a38.3,38.3,0,0,1,15.56,5.28l11.15-6.44A14.74,14.74,0,0,1,142.44,132Zm-36.5-45.57-62.25,36L54,128.24a14.77,14.77,0,0,1,16.61-2.05L95,112.09A14.68,14.68,0,0,1,105.94,98Zm-66.06,43v71l9.77-5.85A14.76,14.76,0,0,1,57,177.13V152.37a14.72,14.72,0,0,1-8-13.11,14.94,14.94,0,0,1,.63-4.29ZM59,195a6.74,6.74,0,1,0,0-9.54A6.75,6.75,0,0,0,59,195Zm17.92,1.89,20.26,11.7a14.35,14.35,0,0,1,2.16-2.79A14.61,14.61,0,0,1,106,202V186.64a38.37,38.37,0,0,1-17-5.85l-10.86,6.27A14.68,14.68,0,0,1,76.9,196.91Zm65.2,0a14.68,14.68,0,0,1-1.26-9.85l-10.66-6.15A38.33,38.33,0,0,1,114,186.57v15.55a14.67,14.67,0,0,1,6.18,3.7,14.45,14.45,0,0,1,2,2.57Zm34.42-74.36L113.94,86.41v11.7a14.72,14.72,0,0,1,10.55,14.27l23.92,13.81a14.78,14.78,0,0,1,17.05,2.44Zm-70.58,121v-13.1A14.67,14.67,0,0,1,95,216.61l-23.74-13.7A14.67,14.67,0,0,1,54,201.28l-10.45,6.27Zm8,0,62.22-35.93-11.1-6.42a14.71,14.71,0,0,1-17.35,1.67l-23.23,13.41a14.75,14.75,0,0,1-4.3,10.36,14.59,14.59,0,0,1-6.24,3.71Z"/></svg>