<svg id="ART" xmlns="http://www.w3.org/2000/svg" viewBox="0 0 288 288"><defs><style>.cls-1{fill:#fcfbfa;}</style></defs><path class="cls-1" d="M255,137.64,150.36,33a9,9,0,0,0-12.72,0L33,137.64a9,9,0,0,0,0,12.72L137.64,255a9,9,0,0,0,12.72,0L255,150.36a9,9,0,0,0,0-12.72Zm-111.73-99a1,1,0,0,1,1.42,0l49.5,49.5L181,101.3a8,8,0,0,0,4.21,13.52,12.18,12.18,0,0,1,6.48,3.37,12.5,12.5,0,0,1-.23,17.9,12.66,12.66,0,0,1-16.56.58,12.07,12.07,0,0,1-4.25-7.24,8,8,0,0,0-13.53-4.25L144,138.35l-13.24-13.24a19.48,19.48,0,0,0,10.76-5.5A20.49,20.49,0,1,0,107,101.31L93.79,88.14ZM38.64,143.29l49.5-49.5L101.31,107a8,8,0,0,0,8,2,8.06,8.06,0,0,0,5.54-6.24,12.23,12.23,0,0,1,4.8-7.69,12.53,12.53,0,0,1,15.26.38,12.35,12.35,0,0,1,4.61,9.08,12.53,12.53,0,0,1-3.64,9.47,11.54,11.54,0,0,1-6.37,3.26,8,8,0,0,0-4.4,13.55L138.34,144l-13.23,13.23a19.48,19.48,0,0,0-5.5-10.76A20.49,20.49,0,1,0,101.31,181L88.14,194.21l-49.5-49.5A1,1,0,0,1,38.64,143.29ZM144.71,249.36a1,1,0,0,1-1.42,0l-49.5-49.5L107,186.69a7.94,7.94,0,0,0,2-8,8.06,8.06,0,0,0-6.24-5.54,12.23,12.23,0,0,1-7.69-4.8,12.53,12.53,0,0,1,.38-15.26,12.51,12.51,0,0,1,18.55-1,11.54,11.54,0,0,1,3.26,6.37,8,8,0,0,0,13.55,4.4L144,149.68l13.11,13.14a20.47,20.47,0,0,0,3.6,40.57H161a20.38,20.38,0,0,0,14.49-6A20.11,20.11,0,0,0,181,186.7l13.17,13.16ZM249.36,144.71l-49.5,49.5L186.7,181a8,8,0,0,0-13.52,4.21,12.18,12.18,0,0,1-3.37,6.48,12.42,12.42,0,0,1-8.84,3.66h-.16a12.38,12.38,0,0,1-8.9-3.89,12.66,12.66,0,0,1-.58-16.56,12.07,12.07,0,0,1,7.24-4.25,8,8,0,0,0,4.25-13.53L149.67,144l13.15-13.13A20.51,20.51,0,1,0,186.7,107l13.16-13.17,49.5,49.5A1,1,0,0,1,249.36,144.71Z"/></svg>