<?xml version="1.0" encoding="utf-8"?>
<!-- Generator: Adobe Illustrator 27.1.0, SVG Export Plug-In . SVG Version: 6.00 Build 0)  -->
<svg version="1.1" id="ART" xmlns="http://www.w3.org/2000/svg" xmlns:xlink="http://www.w3.org/1999/xlink" x="0px" y="0px"
	 viewBox="0 0 288 288" style="enable-background:new 0 0 288 288;" xml:space="preserve">
<style type="text/css">
	.st0{fill:#312D2A;}
</style>
<path class="st0" d="M221.4,132.7l-0.5-0.4c0,0-4.1-3.2-6-7.2c-1.8-3.7-1.8-8.6-1.8-9.1v-0.3c-1-17.3-14.2-31.2-31-33.5
	c0.4-2.3,1-4.8,1.8-7.2l0,0l0,0c1.8-5.4,4.8-10.7,9.7-13.8c1.9-1.2,2.4-3.7,1.2-5.5s-3.6-2.4-5.5-1.2c-3.3,2.1-6,4.9-8.1,8
	c-1.8-3.2-4.4-5.9-7.7-7.8c-6.4-3.7-14.4-3.7-20.8,0l-2,1.2v2.3c0,7.4,4,14.3,10.4,18c3.2,1.8,6.8,2.8,10.4,2.8
	c1.1,0,2.1-0.1,3.1-0.2c-0.2,1.1-0.4,2.3-0.6,3.4c-17.5,1.6-31.5,15.8-32.5,33.7v0.3c0,0.6,0,5.5-1.8,9.1c-1.9,4-6,7.1-6,7.2
	l-0.3,0.2l-0.2,0.2c-6.3,6.6-10.9,14.5-13.6,23h8.5c2.4-6.4,6-12.2,10.8-17.3c1.2-1,5.6-4.8,8.1-9.8c2.4-4.9,2.6-10.7,2.6-12.5
	c0.8-13.3,10.8-23.9,23.6-25.9c-0.2,3.8-0.1,7,0,9.1h8c-0.1-2-0.2-5.2,0-9.1c12.9,1.8,23.1,12.5,23.9,25.9c0,1.8,0.2,7.6,2.6,12.5
	c2.4,5.1,6.9,8.9,8.1,9.8c9.2,9.8,14.2,22.6,14.2,36c0,34.9-17.7,52.7-52.7,52.7c-3.7,0-7.2-0.2-10.5-0.7c-3.2,2.5-6.5,4.6-9.6,6.3
	c6.1,1.6,12.8,2.4,20.2,2.4c21.2,0,37.1-6.1,47.4-18c8.8-10.2,13.3-24.6,13.3-42.7C238,158.9,232.1,144,221.4,132.7L221.4,132.7z
	 M165.1,69.2c-3.2-1.9-5.5-5.1-6.2-8.7c3.5-1.2,7.4-0.9,10.6,1c3.2,1.9,5.5,5.1,6.2,8.7C172.2,71.4,168.3,71.1,165.1,69.2
	L165.1,69.2z"/>
<path class="st0" d="M190.6,170.4c0.1-2.2-0.6-4.5-2.2-6.1c-1.5-1.6-3.7-2.6-5.9-2.6H58.2c-2.2,0-4.4,0.9-6,2.6
	c-1.5,1.6-2.3,3.9-2.2,6.1c2.4,36.8,33.3,65.7,70.3,65.7S188.1,207.3,190.6,170.4L190.6,170.4z M116.3,215.8
	c-10.8-0.9-20.7-5.2-28.6-11.9l28.6-28.6V215.8L116.3,215.8z M124.3,175.4l28.6,28.6c-7.8,6.7-17.7,11-28.6,11.9L124.3,175.4
	L124.3,175.4z M158.5,198.3L130,169.7h40.4C169.5,180.6,165.2,190.5,158.5,198.3L158.5,198.3z M110.7,169.7l-28.6,28.6
	c-6.7-7.8-11-17.7-11.9-28.6H110.7z M120.3,228.2c-32.8,0-60.1-25.6-62.3-58.2v-0.1c0-0.1,0.1-0.1,0.1-0.1h4
	C64.3,200,89.6,224,120.3,224s56-24,58.1-54.2h4.1c0,0,0.1,0,0.1,0.1c0.1,0.1,0.1,0.1,0.1,0.1C180.5,202.6,153.1,228.2,120.3,228.2
	L120.3,228.2z"/>
<path class="st0" d="M191.5,107.1c-2.1,0.6-3.4,2.8-2.8,4.9s2.8,3.4,4.9,2.8s3.4-2.8,2.8-4.9S193.6,106.5,191.5,107.1z"/>
<path class="st0" d="M185.5,128.8c2.1-0.6,3.4-2.8,2.8-4.9c-0.6-2.1-2.8-3.4-4.9-2.8c-2.1,0.6-3.4,2.8-2.8,4.9
	C181.2,128.1,183.4,129.4,185.5,128.8z"/>
<path class="st0" d="M194.7,134.1c0.6,2.1,2.8,3.4,4.9,2.8c2.1-0.6,3.4-2.8,2.8-4.9c-0.6-2.1-2.8-3.4-4.9-2.8
	C195.4,129.7,194.1,131.9,194.7,134.1z"/>
</svg>
