<?xml version="1.0" encoding="UTF-8"?>
<svg id="ART" xmlns="http://www.w3.org/2000/svg" viewBox="0 0 288 288">
  <defs>
    <style>
      .cls-1 {
        fill: #fcfbfa;
      }
    </style>
  </defs>
  <path class="cls-1" d="M207,172.32v-24.23l-15.28-1.7c-.4-1.06-.83-2.1-1.3-3.13l9.61-12.01-22.96-22.96-12.01,9.6c-1.03-.47-2.07-.9-3.13-1.3l-1.7-15.28h-32.46l-1.7,15.28c-1.06.4-2.1.83-3.13,1.3l-12.01-9.6-22.96,22.96,9.61,12.01c-.47,1.03-.9,2.07-1.3,3.13l-15.28,1.7v24.23h41v-7h.03c.52-11.67,10.18-21,21.97-21s21.45,9.33,21.97,21h.03v7h41ZM144,136.32c-15.87,0-28.88,12.39-29.92,28h-25.08v-9.07l13.25-1.47.79-2.48c.73-2.31,1.67-4.57,2.79-6.73l1.2-2.31-8.33-10.42,12.83-12.83,10.42,8.34,2.31-1.2c2.15-1.12,4.41-2.05,6.73-2.79l2.48-.79,1.47-13.26h18.14l1.47,13.25,2.48.79c2.31.73,4.57,1.67,6.73,2.79l2.31,1.2,10.42-8.33,12.83,12.83-8.33,10.42,1.2,2.31c1.12,2.15,2.06,4.42,2.79,6.73l.79,2.48,13.25,1.47v9.07h-25.08c-1.03-15.61-14.05-28-29.92-28Z"/>
  <path class="cls-1" d="M246,205.59c0-7.81-13.23-11.06-26-11.61v-14.66h-72v-18h-8v18h-72v14.66c-12.77.55-26,3.8-26,11.61,0,.14.02.27.02.41,0,.08-.02.16-.02.24v37.03c0,9.49,22.96,10.22,30,10.22s30-.74,30-10.22v-37.03c0-.08-.02-.16-.02-.24,0-.14.02-.27.02-.41,0-7.81-13.23-11.06-26-11.61v-6.66h64v6.66c-12.77.55-26,3.8-26,11.61,0,.14.02.27.02.41,0,.08-.02.16-.02.24v37.03c0,9.49,22.96,10.22,30,10.22s30-.74,30-10.22v-37.03c0-.08-.02-.16-.02-.24,0-.14.02-.27.02-.41,0-7.81-13.23-11.06-26-11.61v-6.66h64v6.66c-12.77.55-26,3.8-26,11.61,0,.14.02.27.02.41,0,.08-.02.16-.02.24v37.03c0,9.49,22.96,10.22,30,10.22s30-.74,30-10.22v-37.03c0-.08-.02-.16-.02-.24,0-.14.02-.27.02-.41ZM94,214.03v9.35c-2.19,1.29-9.85,3.26-22,3.26s-19.81-1.97-22-3.26v-9.35c5.95,2.31,14.33,3.25,22,3.25s16.05-.94,22-3.25ZM72,245.48c-12.15,0-19.81-1.97-22-3.26v-10.28c7.33,2.42,17.67,2.7,22,2.7s14.67-.28,22-2.7v10.28c-2.19,1.29-9.85,3.26-22,3.26ZM72,209.29c-11.32,0-18.71-2.14-21.29-3.7,2.58-1.55,9.97-3.7,21.29-3.7s18.71,2.14,21.29,3.7c-2.58,1.55-9.97,3.7-21.29,3.7ZM166,214.03v9.35c-2.19,1.29-9.85,3.26-22,3.26s-19.81-1.97-22-3.26v-9.35c5.95,2.31,14.33,3.25,22,3.25s16.05-.94,22-3.25ZM144,245.48c-12.15,0-19.81-1.97-22-3.26v-10.28c7.33,2.42,17.67,2.7,22,2.7s14.67-.28,22-2.7v10.28c-2.19,1.29-9.85,3.26-22,3.26ZM144,209.29c-11.32,0-18.71-2.14-21.29-3.7,2.58-1.55,9.97-3.7,21.29-3.7s18.71,2.14,21.29,3.7c-2.58,1.55-9.96,3.7-21.29,3.7ZM238,223.38c-2.19,1.29-9.85,3.26-22,3.26s-19.81-1.97-22-3.26v-9.35c5.95,2.31,14.33,3.25,22,3.25s16.05-.94,22-3.25v9.35ZM216,201.89c11.32,0,18.71,2.14,21.29,3.7-2.58,1.55-9.97,3.7-21.29,3.7s-18.71-2.14-21.29-3.7c2.58-1.55,9.97-3.7,21.29-3.7ZM216,245.48c-12.15,0-19.81-1.97-22-3.26v-10.28c7.33,2.42,17.67,2.7,22,2.7s14.67-.28,22-2.7v10.28c-2.19,1.29-9.85,3.26-22,3.26Z"/>
  <path class="cls-1" d="M231.92,137.22c5.65-10.48,6.36-22.41,2.87-33.02-2.2,1.64-4.57,3.06-7.07,4.24,2.01,7.42,1.54,15.52-1.8,22.89h-19.17l-6,8h30.03l1.13-2.1Z"/>
  <path class="cls-1" d="M210.32,106.32c19.3,0,35-15.7,35-35s-15.7-35-35-35-35,15.7-35,35,15.7,35,35,35ZM210.32,44.32c14.89,0,27,12.11,27,27s-12.11,27-27,27-27-12.11-27-27,12.11-27,27-27Z"/>
  <polygon class="cls-1" points="228.5 77.36 214.05 69.02 214.05 52.32 206.05 52.32 206.05 73.63 224.5 84.29 228.5 77.36"/>
  <path class="cls-1" d="M80.35,131.32h-20.72c2.08-10.63,8.81-19.74,18.6-24.89,5.85-3.07,9.92-8.51,11.18-14.91,1.58-8.03,6.99-14.8,14.48-18.09,3.9-1.71,8.18-2.41,12.39-2.01,6.66.64,13.03-1.75,17.48-6.55,6.23-6.71,15.04-10.55,24.19-10.55,4.89,0,9.58,1.07,13.83,3.02.92-2.53,2.08-4.95,3.46-7.22-5.31-2.46-11.17-3.81-17.29-3.81-11.36,0-22.32,4.78-30.05,13.11-2.75,2.96-6.7,4.43-10.86,4.03-5.56-.53-11.22.39-16.37,2.65-9.88,4.34-17.02,13.27-19.11,23.87-.79,4.02-3.36,7.43-7.06,9.38-13.54,7.12-22.3,20.45-23.43,35.67l-.32,4.3h35.99l-6.4-8Z"/>
</svg>