<?xml version="1.0" encoding="UTF-8"?>
<svg id="ART" xmlns="http://www.w3.org/2000/svg" viewBox="0 0 288 288">
  <defs>
    <style>
      .cls-1 {
        fill: #312d2a;
      }
    </style>
  </defs>
  <path class="cls-1" d="M237.24,135.98c0-5.53-5.87-9.62-17.94-12.53-9.89-2.38-22.98-3.69-36.85-3.69s-26.96,1.31-36.85,3.69c-12.07,2.9-17.94,7-17.94,12.53,0,.13.02.26.03.39,0,.09-.03.17-.03.26v89.95c0,5.55,5.87,9.67,17.93,12.6,9.89,2.4,22.98,3.72,36.86,3.72s26.96-1.32,36.86-3.72c12.07-2.93,17.93-7.05,17.93-12.6v-89.95c0-.09-.02-.17-.03-.26,0-.13.03-.25.03-.39ZM182.45,127.77c29.16,0,44.37,5.55,46.63,8.22-2.26,2.66-17.48,8.22-46.63,8.22s-44.37-5.55-46.63-8.22c2.26-2.66,17.48-8.22,46.63-8.22ZM229.24,226.38c-1.53,2.59-16.73,8.52-46.79,8.52s-45.26-5.93-46.79-8.52v-20.69c2.65,1.24,5.94,2.34,9.93,3.31,9.89,2.4,22.98,3.72,36.86,3.72s26.96-1.32,36.86-3.72c3.99-.97,7.29-2.07,9.93-3.31v20.69ZM229.24,196.21c-1.53,2.59-16.73,8.52-46.79,8.52s-45.26-5.93-46.79-8.52v-20.22c2.65,1.24,5.94,2.34,9.93,3.31,9.89,2.4,22.98,3.72,36.86,3.72s26.96-1.32,36.86-3.72c3.99-.97,7.29-2.07,9.93-3.31v20.22ZM229.24,166.5c-1.53,2.59-16.73,8.52-46.79,8.52s-45.26-5.93-46.79-8.52v-21.28c2.65,1.23,5.95,2.32,9.94,3.28,9.89,2.38,22.98,3.69,36.85,3.69s26.96-1.31,36.85-3.69c3.99-.96,7.29-2.05,9.94-3.28v21.28Z"/>
  <path class="cls-1" d="M175.26,77.04c5.87,0,10.65-4.78,10.65-10.65s-4.78-10.65-10.65-10.65-10.65,4.78-10.65,10.65,4.78,10.65,10.65,10.65ZM175.26,63.74c1.46,0,2.65,1.19,2.65,2.65s-1.19,2.65-2.65,2.65-2.65-1.19-2.65-2.65,1.19-2.65,2.65-2.65Z"/>
  <path class="cls-1" d="M110.74,119.25h27.54s0-21.86,0-21.86c3.21-1.92,6.52-3.73,9.94-5.41v7.22h54.09v-23.16c2.23-.31,4.48-.59,6.76-.83,1.74,4.45,6.07,7.62,11.14,7.62,6.6,0,11.96-5.36,11.96-11.95s-5.37-11.95-11.96-11.95c-5.31,0-9.82,3.48-11.38,8.27-2.21.23-4.38.49-6.52.78v-22.87h-54.09s0,38.12,0,38.12c-3.46,1.61-6.78,3.29-9.94,5.04v-10.37c0-3.28-2.67-5.95-5.95-5.95h-29.46s-2.58-3.88-2.58-3.88c-1.18-1.77-3.16-2.83-5.29-2.83h-17.24c-3.28,0-5.95,2.67-5.95,5.95v48.07s28.14,0,28.14,0c-2.19,2.54-4.22,5.07-6.09,7.57h-42.99v44.55l-.1.07.1.14v7.25h18.45c-1.04,4.24-1.65,7.64-1.99,9.89-4.85,1.53-8.38,6.06-8.38,11.4,0,6.59,5.37,11.95,11.96,11.95s11.96-5.36,11.96-11.95c0-5.01-3.1-9.3-7.49-11.08.4-2.39,1.08-5.89,2.22-10.22h25.27v-50.58c2.49-3.13,5.12-6.13,7.87-9ZM220.21,66.92c2.19,0,3.96,1.77,3.96,3.95s-1.78,3.95-3.96,3.95-3.96-1.77-3.96-3.95,1.78-3.95,3.96-3.95ZM181.9,91.2h-13.27v-3.98c0-.24.19-.43.43-.43h12.41c.24,0,.43.19.43.43v3.98ZM156.22,53.1h38.09v38.1h-4.41v-3.98c0-4.65-3.78-8.43-8.43-8.43h-12.41c-4.65,0-8.43,3.78-8.43,8.43v3.98h-4.41v-38.1ZM79.8,73.23h14.31s4.47,6.71,4.47,6.71h31.69s0,31.31,0,31.31h-50.48s0-38.02,0-38.02ZM70.9,204.08c-2.19,0-3.96-1.77-3.96-3.95s1.78-3.95,3.96-3.95,3.96,1.77,3.96,3.95-1.78,3.95-3.96,3.95ZM58.86,134.82h36.01v16.61l-9.12-5.69-26.89,19.75v-30.67ZM65.11,170.83l21-15.43,8.75,5.47v9.96h-29.76Z"/>
  <circle class="cls-1" cx="69.32" cy="144.53" r="6.41"/>
</svg>