<?xml version="1.0" encoding="utf-8"?>
<!-- Generator: Adobe Illustrator 24.0.3, SVG Export Plug-In . SVG Version: 6.00 Build 0)  -->
<svg version="1.1" id="ART" xmlns="http://www.w3.org/2000/svg" xmlns:xlink="http://www.w3.org/1999/xlink" x="0px" y="0px"
	 viewBox="0 0 288 288" style="enable-background:new 0 0 288 288;" xml:space="preserve">
<style type="text/css">
	.st0{fill:#FCFBFA;}
</style>
<path class="st0" d="M49,68v152h190V68H49z M231,212H57v-49.3l23.1-23.1l13.8,12.9l28.1-27.7V145h8v-34H96.1v8h20.2l-22.7,22.3
	l-13.8-12.9L57,151.3V76h174V212z M161,181h-25v25h25V181z M153,198h-9v-9h9V198z M168,206h25v-25h-25V206z M176,189h9v9h-9V189z
	 M200,206h25v-25h-25V206z M208,189h9v9h-9V189z M225,82h-89v93h89V82z M180.8,114.2c2.9,2,6.4,3.1,10,3.1c0.4,0,0.8,0,1.1,0v3.2
	c0,6.8-5.2,12.6-11.3,12.6c-6,0-11-5.8-11-12.6v-3.2C173.7,117.6,177.6,116.5,180.8,114.2z M177.2,140.6c2.3,0.5,4.7,0.5,7,0v8.4
	c-0.1,1.8-1.7,3.1-3.4,3c0,0,0,0,0,0c-1.7,0-3.5-1.1-3.5-3V140.6z M198.9,137.1c-1.6,2.5-4,4.4-6.8,5.4v-5.8
	c2.1-1.7,3.8-3.8,5.1-6.1L198.9,137.1z M191.9,109.3c-3.1,0.2-6.2-0.9-8.4-3.1l-2.7-2.5l-2.7,2.5c-2.2,2.2-5.3,3.3-8.4,3.1
	c0,0,0-0.1,0-0.1l0.5-2l0,0c1.1-3,3.7-5.2,6.6-5.2h8C188.3,102,191.4,105.3,191.9,109.3L191.9,109.3z M169.2,136.8v5.7
	c-2.6-1-4.9-2.9-6.4-5.3l1.6-6.2C165.6,133.1,167.2,135.1,169.2,136.8L169.2,136.8z M167.2,150.9h2.2c1.4,6.2,7.6,10.2,13.9,8.8
	c4.3-1,7.7-4.3,8.7-8.7l0.2-0.1h2.8c6.4,0,11.2,5.3,11.2,12.4v3.7h-51v-3.7C155.1,156.6,160.4,151.1,167.2,150.9L167.2,150.9z
	 M217,167h-2.8v-3.7c0.2-7.8-4.2-15-11.2-18.6c1.4-1.5,2.6-3.2,3.6-5l0.8-1.4l-8.2-33.1l0,0c-2-6.5-7.8-11.3-14.4-11.3h-8
	c-7.3,0-13.6,6-14.9,13.5l-7.7,30.9l0.8,1.4c1,1.8,2.3,3.5,3.7,5.1c-7.1,3.4-11.6,10.6-11.6,18.5v3.7H144V90h73V167z"/>
</svg>
