<?xml version="1.0" encoding="utf-8"?>
<!-- Generator: Adobe Illustrator 24.0.3, SVG Export Plug-In . SVG Version: 6.00 Build 0)  -->
<svg version="1.1" id="ART" xmlns="http://www.w3.org/2000/svg" xmlns:xlink="http://www.w3.org/1999/xlink" x="0px" y="0px"
	 viewBox="0 0 288 288" style="enable-background:new 0 0 288 288;" xml:space="preserve">
<style type="text/css">
	.st0{fill:#312D2A;}
</style>
<path class="st0" d="M229,68h-33v-9c0-6.1-4.9-11-11-11s-11,4.9-11,11v9h-60v-9c0-6.1-4.9-11-11-11s-11,4.9-11,11v9H59
	c-6.1,0-11,4.9-11,11v147h192V79C240,72.9,235.1,68,229,68z M182,59c0-1.7,1.3-3,3-3s3,1.3,3,3v28c0,1.7-1.3,3-3,3s-3-1.3-3-3V59z
	 M100,59c0-1.7,1.3-3,3-3s3,1.3,3,3v28c0,1.7-1.3,3-3,3s-3-1.3-3-3V59z M232,218H56V110h176V218z M232,102H56V79c0-1.7,1.3-3,3-3h33
	v11c0,6.1,4.9,11,11,11s11-4.9,11-11V76h60v11c0,6.1,4.9,11,11,11s11-4.9,11-11V76h33c1.7,0,3,1.3,3,3V102z M90,184H62v28h28V184z
	 M82,204H70v-12h12V204z M124,184H96v28h28V184z M116,204h-12v-12h12V204z M158,184h-28v28h28V184z M150,204h-12v-12h12V204z
	 M192,184h-28v28h28V184z M184,204h-12v-12h12V204z M90,150H62v28h28V150z M82,170H70v-12h12V170z M124,150H96v28h28V150z M116,170
	h-12v-12h12V170z M158,150h-28v28h28V150z M150,170h-12v-12h12V170z M192,150h-28v28h28V150z M184,170h-12v-12h12V170z M226,150h-28
	v28h28V150z M218,170h-12v-12h12V170z M124,116H96v28h28V116z M116,136h-12v-12h12V136z M158,116h-28v28h28V116z M150,136h-12v-12
	h12V136z M192,116h-28v28h28V116z M184,136h-12v-12h12V136z M226,116h-28v28h28V116z M218,136h-12v-12h12V136z M48.1,232v4l8,4l0,0
	l0,0h175.8l0,0l0,0l8-4l0.1-4H48.1z"/>
</svg>
