<?xml version="1.0" encoding="UTF-8"?>
<svg id="logo" xmlns="http://www.w3.org/2000/svg" version="1.1" viewBox="0 0 288 288">
  <defs>
    <style>
      .cls-1 {
        fill: #fcfbfa;
        stroke-width: 0px;
      }
    </style>
  </defs>
  <path class="cls-1" d="M100.7,199h26.7l-1.9-24.3c2.3-2.7,3.6-6.2,3.6-9.7,0-8.3-6.7-15-15-15s-15,6.7-15,15,1.3,7,3.6,9.7l-1.9,24.3ZM114,158c3.9,0,7,3.1,7,7s-.9,3.9-2.4,5.2l-1.5,1.3,1.6,19.4h-9.3l1.6-19.4-1.5-1.3c-1.5-1.3-2.4-3.2-2.4-5.2,0-3.9,3.1-7,7-7ZM49,232h130v4l-8,4h0s-114,0-114,0h0s-8-4-8-4v-4ZM188,48c-28.1,0-51,22.9-51,51v19H49v108h130v-108h-14v-19c0-12.7,10.3-23,23-23s23,10.3,23,23v27h28v-27c0-28.1-22.9-51-51-51ZM171,126v12h-8v8h8v12h-8v8h8v12h-8v8h8v12h-8v8h8v12H57v-12h8v-8h-8v-12h8v-8h-8v-12h8v-8h-8v-12h8v-8h-8v-12h114ZM231,118h-12v-19c0-17.1-13.9-31-31-31s-31,13.9-31,31v19h-12v-19c0-23.7,19.3-43,43-43s43,19.3,43,43v19Z"/>
</svg>