<?xml version="1.0" encoding="UTF-8"?>
<svg id="ART" xmlns="http://www.w3.org/2000/svg" version="1.1" viewBox="0 0 288 288">
  <defs>
    <style>
      .cls-1 {
        fill: #fcfbfa;
        stroke-width: 0px;
      }
    </style>
  </defs>
  <path class="cls-1" d="M183,215V65h-78v150l-8,4v4h94v-4l-8-4ZM113,215V73h62v142h-62ZM155.8,177.8c1.3-2.4,1.9-5,1.8-7.7,0-4.6-1.3-8.1-3.9-10.4-2.6-2.4-6.3-3.6-11.7-3.6h-13v46h9v-18l3.2.4,7.8,17.6h10l-9.3-19.5c2.5-.8,4.7-2.5,6.1-4.8h0ZM142,178h-4v-15h4c4.6,0,6.4,2.9,6.4,7.6s-1.8,7.4-6.4,7.4ZM119,79h50v8h-50v-8ZM163,93h-38v7h-6v8h6v7h38v-7h6v-8h-6v-7ZM155,107h-22v-6h22v6ZM127,129h-8v-8h8v8ZM141,129h-8v-8h8v8ZM155,129h-8v-8h8v8ZM161,121h8v8h-8v-8ZM127,143h-8v-8h8v8ZM133,135h8v8h-8v-8ZM147,135h8v8h-8v-8ZM161,135h8v8h-8v-8Z"/>
</svg>