<?xml version="1.0" encoding="UTF-8"?><svg id="ART" xmlns="http://www.w3.org/2000/svg" viewBox="0 0 288 288"><defs><style>.cls-1{fill:#312d2a;stroke-width:0px;}</style></defs><path class="cls-1" d="M183,215V65h-78v150l-8,4v4h94v-4l-8-4ZM113,215V73h62v142h-62ZM155.78,177.78c1.28-2.35,1.91-5,1.84-7.68,0-4.59-1.31-8.08-3.92-10.45-2.61-2.38-6.31-3.65-11.7-3.65h-13v46h9v-18l3.19.38,7.81,17.62h10l-9.34-19.46c2.54-.8,4.72-2.49,6.12-4.76ZM142,178h-4v-15h4c4.55,0,6.39,2.85,6.39,7.61s-1.84,7.39-6.39,7.39ZM119,79h50v8h-50v-8ZM163,93h-38v7h-6v8h6v7h38v-7h6v-8h-6v-7ZM155,107h-22v-6h22v6ZM127,129h-8v-8h8v8ZM141,129h-8v-8h8v8ZM155,129h-8v-8h8v8ZM161,121h8v8h-8v-8ZM127,143h-8v-8h8v8ZM133,135h8v8h-8v-8ZM147,135h8v8h-8v-8ZM161,135h8v8h-8v-8Z"/></svg>